<svg width="430" height="430" viewBox="0 0 430 430" fill="none" xmlns="http://www.w3.org/2000/svg">
<g clip-path="url(#clip0_12_77)">
<mask id="mask0_12_77" style="mask-type:luminance" maskUnits="userSpaceOnUse" x="0" y="0" width="430" height="430">
<path d="M430 0H0V430H430V0Z" fill="white"/>
</mask>
<g mask="url(#mask0_12_77)">
<mask id="mask1_12_77" style="mask-type:luminance" maskUnits="userSpaceOnUse" x="0" y="0" width="430" height="430">
<path d="M0 0H430V430H0V0Z" fill="white"/>
</mask>
<g mask="url(#mask1_12_77)">
<path d="M381.5 215.5C381.5 307.732 306.732 382.5 214.5 382.5C122.268 382.5 47.5 307.732 47.5 215.5C47.5 123.268 122.268 48.5 214.5 48.5C306.732 48.5 381.5 123.268 381.5 215.5Z" fill="#EBE6EF" stroke="black"/>
<g style="mix-blend-mode:multiply" opacity="0.5">
<path d="M240.238 381.19C263.651 377.571 286.032 369.038 305.911 356.151C267.155 369.947 224.683 369.035 186.556 353.585C148.429 338.135 117.301 309.225 99.081 272.341C80.861 235.457 76.818 193.168 87.718 153.5C98.618 113.832 123.703 79.546 158.211 57.151C135.896 65.107 115.519 77.697 98.417 94.091C81.315 110.485 67.876 130.313 58.985 152.272C50.094 174.231 45.951 197.824 46.828 221.498C47.705 245.172 53.583 268.393 64.075 289.633C74.567 310.873 89.437 329.652 107.705 344.736C125.973 359.82 147.228 370.866 170.07 377.149C192.912 383.432 216.825 384.809 240.238 381.19Z" fill="#EBE6EF"/>
</g>
<path d="M289.898 132.745L189.452 233.192L140.098 183.838C138.926 182.666 137.027 182.666 135.855 183.838L101.207 218.486C100.035 219.658 100.035 221.557 101.207 222.729L187.331 308.853C188.503 310.025 190.402 310.025 191.574 308.853L328.789 171.636C329.961 170.464 329.961 168.565 328.789 167.393L294.141 132.745C292.969 131.573 291.07 131.573 289.898 132.745Z" fill="black"/>
<g style="mix-blend-mode:multiply" opacity="0.5">
<path d="M140.08 183.853L189.434 233.207L189.435 309.747C188.667 309.747 187.9 309.455 187.314 308.869L101.189 222.744C100.032 221.587 100.017 219.721 101.145 218.546L135.882 183.81C137.057 182.682 138.923 182.696 140.08 183.853Z" fill="#08A88A"/>
</g>
</g>
</g>
</g>
<defs>
<clipPath id="clip0_12_77">
<rect width="430" height="430" fill="white"/>
</clipPath>
</defs>
</svg>
