<svg width="198" height="77" viewBox="0 0 198 77" fill="none" xmlns="http://www.w3.org/2000/svg">
<path d="M197.252 44.7979C196.891 45.1211 196.569 45.4721 196.212 45.7852C194.55 47.2349 191.627 50.0284 189.638 50.2931C179.908 51.5878 141.051 38.5192 125.587 36.8192C103.212 34.3732 53.0776 33.8767 34.3356 49.6578C40.8218 52.3692 47.9555 54.989 53.2822 59.8475C56.6666 62.9352 58.8913 65.7523 59.1643 70.8514L57.111 73.4428C51.6352 76.0771 46.9554 76.708 41.2918 76.081C28.4834 74.6589 10.0642 66.1575 2.8543 54.7351C2.31921 53.9948 1.7553 53.2632 1.43291 52.3759C0.815203 50.6594 0.223158 48.8801 1.03821 47.0777C7.75941 32.6646 24.5798 6.8181 38.6774 1.37571C42.0609 0.0642172 42.6992 0.428317 45.5241 1.90531C49.3528 15.7494 38.7534 15.262 35.6609 25.5959C35.4579 26.2151 35.3221 26.8561 35.1637 27.4906C72.9129 9.72544 141.188 13.0804 177.173 26.8945C187.602 30.8973 193.098 33.1735 197.252 44.7979Z" fill="#202021"/>
</svg>
