<svg width="197" height="77" viewBox="0 0 197 77" fill="none" xmlns="http://www.w3.org/2000/svg">
<path d="M0.313074 44.7979C0.674235 45.1211 0.995995 45.4721 1.35305 45.7852C3.0145 47.2349 5.93829 50.0284 7.92717 50.2931C17.6564 51.5878 56.5137 38.5192 71.9778 36.8192C94.3528 34.3732 144.487 33.8767 163.229 49.6578C156.743 52.3692 149.609 54.989 144.283 59.8475C140.898 62.9352 138.674 65.7523 138.4 70.8514L140.454 73.4428C145.93 76.0771 150.609 76.708 156.273 76.081C169.081 74.6589 187.501 66.1575 194.711 54.7351C195.246 53.9948 195.81 53.2632 196.132 52.3759C196.75 50.6594 197.342 48.8801 196.527 47.0777C189.805 32.6646 172.985 6.8181 158.887 1.37571C155.504 0.0642172 154.866 0.428317 152.041 1.90531C148.212 15.7494 158.811 15.262 161.904 25.5959C162.107 26.2151 162.243 26.8561 162.401 27.4906C124.652 9.72544 56.3771 13.0804 20.3919 26.8945C9.96279 30.8973 4.46718 33.1735 0.313074 44.7979Z" fill="#202021"/>
</svg>
