<?xml version="1.0" encoding="utf-8" ?>
<svg xmlns="http://www.w3.org/2000/svg" xmlns:xlink="http://www.w3.org/1999/xlink" width="1024" height="1024">
	<path fill="#FEFEFE" d="M0 0L1024 0L1024 1024L0 1024L0 0Z"/>
	<path fill="#231F20" d="M254.388 765.091C256.366 764.412 258.177 763.708 260.265 764.43C263.88 765.68 268.587 773.145 271.41 775.99C273.425 778.02 275.68 779.953 277.976 781.658C282.453 784.982 295.145 788.432 296.985 792.913C297.418 793.968 297.366 795.318 297.381 796.442C296.321 797.802 294.678 799.705 292.941 800.162C288.351 801.368 280.802 796.63 276.998 794.275C270.27 790.111 254.288 778.507 252.783 770.306C252.402 768.232 253.324 766.76 254.388 765.091Z"/>
	<path fill="#231F20" d="M246.819 708.864C245.138 708.275 243.362 707.631 242.23 706.168C240.088 703.401 234.073 640.674 232.598 630.142C229.826 610.343 227.268 590.359 223.822 570.673C222.265 561.778 214.663 531.706 215.302 525.362C215.448 523.912 216.17 522.696 217.305 521.791C218.562 520.789 220.155 520.278 221.757 520.545C223.354 520.812 224.507 522.752 225.434 523.952C229.243 535.415 231.008 548.005 233.244 559.875C240.647 599.166 245.149 639.119 249.729 678.82C250.249 683.324 253.371 702.14 252.1 705.486C251.337 707.492 248.613 708.198 246.819 708.864Z"/>
	<path fill="#231F20" d="M384.828 400.022C383.346 400.062 381.899 400.082 380.47 399.624C378.947 399.136 377.892 398.17 377.28 396.674C376.446 394.639 377.062 391.998 377.721 390.012C379.4 384.947 382.097 379.972 384.336 375.12Q388.775 365.42 392.846 355.56Q415.706 300.747 439.952 246.533C444.502 236.435 448.12 227.942 459.357 223.922C466.21 221.471 473.212 222.336 479.704 225.324L476.173 233.548C470.067 233.134 463.248 233.004 458.341 237.321C451.96 242.935 439.561 276.61 435.358 286.642C424.547 312.453 412.964 337.973 401.951 363.7Q397.071 375.224 392.382 386.827C391.003 390.204 389.779 394.265 387.96 397.387C387.265 398.582 386.01 399.376 384.828 400.022Z"/>
	<path fill="#231F20" d="M773.594 736.257C775.593 737.165 777.106 737.927 777.982 740.049C780.93 747.197 776.29 761.309 773.112 768.078C766.193 782.816 754.202 792.874 739.049 798.325C734.186 800.074 728.407 800.653 723.258 800.865C710.048 801.407 696.682 801.006 683.457 800.993L610.104 800.931L526.688 800.963C514.616 800.959 502.361 801.511 490.313 801.098C488.367 801.031 485.956 800.884 484.197 800.001C482.635 799.218 481.934 798.03 481.036 796.609C481.087 794.492 481.285 792.183 482.897 790.636C486.928 786.768 498.003 788.449 503.467 788.494C549.261 789.232 595.193 788.427 641.001 788.359L694.792 788.295C705.24 788.27 715.919 788.628 726.341 787.833C729.791 787.569 733.176 786.729 736.421 785.545C751.557 780.02 762.172 766.981 765.343 751.226C766.022 747.848 765.49 742.837 767.172 739.82C768.397 737.622 770.718 736.997 772.997 736.406L773.594 736.257Z"/>
	<path fill="#231F20" d="M536.139 239.537C538.982 232.868 542.704 227.314 549.809 224.618C555.498 222.46 562.081 222.639 567.55 225.35Q568.327 225.728 569.075 226.161Q569.823 226.594 570.537 227.08Q571.251 227.566 571.928 228.103Q572.605 228.64 573.242 229.225Q573.878 229.81 574.47 230.439Q575.062 231.069 575.606 231.74Q576.151 232.411 576.645 233.119Q577.139 233.828 577.581 234.571C581.366 240.894 583.815 248.118 586.637 254.911Q592.713 269.482 598.94 283.989L632.05 360.85L648.559 399.235C651.24 405.481 653.579 411.862 656.457 418.023C699.021 419.115 741.787 417.639 784.377 417.569Q796.64 417.581 808.901 417.398C814.534 417.334 820.757 416.746 826.291 417.876C831.688 418.978 836.635 422.38 840.386 426.329C841.899 427.922 843.223 429.73 844.415 431.57L843.534 431.462C840.356 431.052 837.304 430.085 834.089 429.846C824.083 429.102 813.326 430.143 803.267 430.366C790.276 430.655 777.253 430.33 764.258 430.325L700.161 430.513C687.276 430.545 674.091 430.092 661.232 430.909C666.815 442.47 671.363 453.648 666.965 466.498C664.089 474.899 657.767 481.307 649.796 485.054Q649.008 485.427 648.203 485.761Q647.398 486.095 646.578 486.388Q645.757 486.682 644.923 486.935Q644.089 487.187 643.244 487.398Q642.398 487.609 641.544 487.778Q640.689 487.948 639.826 488.074Q638.964 488.201 638.097 488.284Q637.229 488.368 636.359 488.409Q635.488 488.45 634.617 488.448Q633.745 488.445 632.875 488.4Q632.005 488.355 631.138 488.266Q630.271 488.178 629.41 488.047Q628.548 487.916 627.694 487.742Q626.84 487.569 625.996 487.353Q625.151 487.138 624.319 486.881Q623.486 486.624 622.667 486.326C615.919 483.848 609.632 479.142 606.575 472.495C603.646 466.126 598.277 450.83 600.744 444.237C601.644 441.829 603.201 439.733 604.908 437.835C608.526 446.889 611.835 456.725 616.408 465.333C619.272 470.723 623.353 474.865 629.361 476.576C634.961 478.171 640.895 477.183 645.9 474.291Q646.421 473.988 646.927 473.66Q647.432 473.332 647.921 472.979Q648.41 472.626 648.881 472.25Q649.352 471.874 649.803 471.475Q650.255 471.076 650.687 470.655Q651.118 470.234 651.529 469.793Q651.939 469.351 652.327 468.89Q652.715 468.429 653.08 467.949Q653.445 467.47 653.786 466.973Q654.127 466.476 654.443 465.962Q654.759 465.449 655.049 464.921Q655.34 464.393 655.604 463.851Q655.868 463.309 656.105 462.755Q656.342 462.201 656.552 461.636Q656.761 461.071 656.943 460.496Q657.124 459.921 657.277 459.338C658.436 454.74 657.901 451.267 656.415 446.895C654.769 442.049 652.497 437.322 650.506 432.601Q643.742 416.731 636.803 400.937L604.345 325.277C595.934 305.78 587.994 286.095 579.513 266.62C575.736 257.946 572.348 248.754 567.597 240.581C567.27 240.019 566.963 239.445 566.605 238.903C564.63 235.912 559.961 233.823 556.546 233.152C548.662 231.604 542.387 235.326 536.139 239.537Z"/>
	<path fill="#FCA845" d="M536.139 239.537C542.387 235.326 548.662 231.604 556.546 233.152C559.961 233.823 564.63 235.912 566.605 238.903C566.963 239.445 567.27 240.019 567.597 240.581C572.348 248.754 575.736 257.946 579.513 266.62C587.994 286.095 595.934 305.78 604.345 325.277L636.803 400.937Q643.742 416.731 650.506 432.601C652.497 437.322 654.769 442.049 656.415 446.895C657.901 451.267 658.436 454.74 657.277 459.338Q657.124 459.921 656.943 460.496Q656.761 461.071 656.552 461.636Q656.342 462.201 656.105 462.755Q655.868 463.309 655.604 463.851Q655.34 464.393 655.049 464.921Q654.759 465.449 654.443 465.962Q654.127 466.476 653.786 466.973Q653.445 467.47 653.08 467.949Q652.715 468.429 652.327 468.89Q651.939 469.351 651.529 469.793Q651.118 470.234 650.687 470.655Q650.255 471.076 649.803 471.475Q649.352 471.874 648.881 472.25Q648.41 472.626 647.921 472.979Q647.432 473.332 646.927 473.66Q646.421 473.988 645.9 474.291C640.895 477.183 634.961 478.171 629.361 476.576C623.353 474.865 619.272 470.723 616.408 465.333C611.835 456.725 608.526 446.889 604.908 437.835C604.158 435.31 603.448 432.908 602.214 430.562L597.085 419.368Q590.969 419.455 584.862 419.12C588.838 418.886 592.913 419.067 596.901 419.067Q575.007 368.606 553.983 317.776Q546.931 300.505 540.123 283.137C537.55 276.589 534.703 270.006 532.551 263.309C529.632 254.228 532.041 247.629 536.139 239.537Z"/>
	<path fill="#231F20" d="M632.529 440.557C633.757 440.495 635.014 440.42 636.233 440.615C639.117 441.076 641.85 442.653 643.517 445.08Q643.792 445.477 644.023 445.9Q644.254 446.324 644.438 446.77Q644.624 447.215 644.76 447.678Q644.897 448.141 644.985 448.615Q645.072 449.09 645.109 449.571Q645.145 450.052 645.131 450.534Q645.117 451.016 645.051 451.494Q644.986 451.973 644.871 452.441C643.974 456.07 641.42 458.078 638.314 459.832C636.326 460.4 634.028 460.782 632.01 460.154C629.816 459.472 628.028 457.873 626.996 455.836C625.627 453.137 625.516 449.807 626.482 446.961C627.619 443.609 629.459 442.101 632.529 440.557Z"/>
	<defs>
		<linearGradient id="gradient_0" gradientUnits="userSpaceOnUse" x1="408.30139" y1="341.82947" x2="459.5394" y2="365.94928">
			<stop offset="0" stop-color="#FEB33E"/>
			<stop offset="1" stop-color="#FB954C"/>
		</linearGradient>
	</defs>
	<path fill="url(#gradient_0)" d="M479.704 225.324C487.165 229.953 492.622 235.045 494.767 243.938C495.75 248.017 496.154 252.786 495.183 256.882C493.225 265.143 489.548 273.029 486.348 280.867L472.855 313.634Q452.304 362.305 433.904 411.829C433.257 413.594 430.209 420.361 431.384 421.465L430.629 421.512L430.95 421.937L435.272 422.089C433.324 422.342 431.394 422.558 429.432 422.673C425.04 432.778 421.269 443.4 417.592 453.791C415.433 459.891 413.91 466.768 410.523 472.322C408.141 476.228 404.843 479.628 400.529 481.341C394.661 483.671 387.096 482.319 381.489 479.644C374.54 476.329 368.688 469.496 366.249 462.183C362.366 450.54 367.261 441.236 372.307 431.055C373.592 428.462 375.233 425.476 375.626 422.577C379.24 416.007 381.362 407.148 384.828 400.022C386.01 399.376 387.265 398.582 387.96 397.387C389.779 394.265 391.003 390.204 392.382 386.827Q397.071 375.224 401.951 363.7C412.964 337.973 424.547 312.453 435.358 286.642C439.561 276.61 451.96 242.935 458.341 237.321C463.248 233.004 470.067 233.134 476.173 233.548L479.704 225.324Z"/>
	<path fill="#682927" d="M391.83 442.163C393.466 442.273 395.452 442.257 396.976 442.849C399.082 443.668 400.842 445.754 401.692 447.799Q401.887 448.28 402.031 448.779Q402.174 449.278 402.266 449.79Q402.357 450.301 402.395 450.819Q402.433 451.337 402.417 451.856Q402.401 452.375 402.331 452.889Q402.262 453.404 402.139 453.908Q402.016 454.413 401.842 454.902Q401.668 455.391 401.444 455.86C399.998 458.875 397.242 460.823 394.144 461.871C391.839 461.686 389.509 461.383 387.504 460.141C385.335 458.799 383.665 456.487 383.126 453.992C382.582 451.47 383.028 448.841 384.465 446.69C386.251 444.019 388.758 442.766 391.83 442.163Z"/>
	<path fill="#EE7039" d="M731.679 516.331C758.322 516.388 785.096 515.918 811.721 516.665C810.154 530.299 807.102 543.998 804.727 557.521L791.286 634.406L779.66 703.786C777.776 714.601 776.155 725.579 773.594 736.257L772.997 736.406C770.718 736.997 768.397 737.622 767.172 739.82C765.49 742.837 766.022 747.848 765.343 751.226C762.172 766.981 751.557 780.02 736.421 785.545C733.176 786.729 729.791 787.569 726.341 787.833C715.919 788.628 705.24 788.27 694.792 788.295L641.001 788.359C595.193 788.427 549.261 789.232 503.467 788.494C510.216 785.632 518.262 784.385 525.351 782.259Q550.577 774.581 574.917 764.437C580.76 762.047 587.353 759.793 592.618 756.313Q593.41 756.533 594.211 756.719C598.552 757.723 603.081 757.066 606.811 754.561C611.596 751.347 613.36 746.862 614.329 741.467Q620.232 739.135 625.977 736.436Q631.722 733.737 637.285 730.682Q642.848 727.626 648.208 724.226Q653.567 720.826 658.702 717.095C663.507 713.615 667.948 708.713 673.114 705.906C672.305 715.857 667.108 741.387 671.661 749.317C673.947 753.296 677.685 755.411 682.026 756.516C686.343 757.615 689.685 757.155 693.482 754.828C696.482 752.989 699.432 750.275 700.755 746.941C703.4 740.276 703.538 731.285 704.403 724.119C707.142 701.433 708.948 678.639 711.892 655.977C712.768 649.234 713.03 641.625 714.696 635.067L714.878 634.377L715.49 634.241C720.515 626.225 725.273 569.43 726.752 556.292Q729.078 536.295 731.679 516.331Z"/>
	<path fill="#EE7039" d="M481.001 422.097C481.506 421.456 482.044 420.716 482.667 420.187C483.88 419.156 485.068 419.054 486.609 418.992C495.493 418.637 504.652 419.439 513.577 419.411Q549.219 419.078 584.862 419.12Q590.969 419.455 597.085 419.368L602.214 430.562C603.448 432.908 604.158 435.31 604.908 437.835C603.201 439.733 601.644 441.829 600.744 444.237C598.277 450.83 603.646 466.126 606.575 472.495C609.632 479.142 615.919 483.848 622.667 486.326Q623.486 486.624 624.319 486.881Q625.151 487.138 625.996 487.353Q626.84 487.569 627.694 487.742Q628.548 487.916 629.41 488.047Q630.271 488.178 631.138 488.266Q632.005 488.355 632.875 488.4Q633.746 488.445 634.617 488.448Q635.488 488.45 636.359 488.409Q637.229 488.368 638.097 488.284Q638.964 488.201 639.826 488.074Q640.689 487.948 641.544 487.778Q642.398 487.609 643.244 487.398Q644.089 487.187 644.923 486.935Q645.757 486.682 646.578 486.388Q647.398 486.095 648.203 485.761Q649.008 485.427 649.796 485.054C657.767 481.307 664.089 474.899 666.965 466.498C671.363 453.648 666.815 442.47 661.232 430.909C674.091 430.092 687.276 430.545 700.161 430.513L764.258 430.325C777.253 430.33 790.276 430.655 803.267 430.366C813.326 430.143 824.083 429.102 834.089 429.846C837.304 430.085 840.356 431.052 843.534 431.462L844.415 431.57Q844.91 432.374 845.353 433.208Q845.796 434.041 846.185 434.901Q846.575 435.761 846.909 436.645Q847.243 437.528 847.52 438.43Q847.797 439.333 848.017 440.251Q848.236 441.169 848.397 442.099Q848.558 443.03 848.66 443.968Q848.761 444.907 848.803 445.85C849.162 452.716 849.298 475.684 847.993 481.7Q847.677 483.164 847.166 484.572Q846.655 485.98 845.959 487.306Q845.263 488.632 844.395 489.852Q843.526 491.072 842.501 492.164C839.524 495.305 835.284 497.695 831.066 498.728C822.52 500.821 811.808 499.947 803.015 499.971Q784.308 499.898 765.606 500.331C727.121 501.143 688.507 499.711 650.005 499.599L412.745 499.428L263.027 499.142L217.489 498.886C209.664 498.836 201.496 499.266 193.726 498.549C187.932 498.014 182.752 495.051 178.666 490.99C173.16 485.518 171.765 478.773 171.643 471.311C171.503 462.683 170.521 444.384 172.948 436.641C173.915 433.556 175.825 430.803 178.118 428.545C181.754 424.965 186.347 423.05 191.358 422.362C196.653 421.634 202.466 422.275 207.821 422.266L242.711 422.151Q309.17 421.82 375.626 422.577C375.233 425.476 373.592 428.462 372.307 431.055C367.261 441.236 362.366 450.54 366.249 462.183C368.688 469.496 374.54 476.329 381.489 479.644C387.096 482.319 394.661 483.671 400.529 481.341C404.843 479.628 408.141 476.228 410.523 472.322C413.91 466.768 415.433 459.891 417.592 453.791C421.269 443.4 425.04 432.778 429.432 422.673C431.394 422.558 433.324 422.342 435.272 422.089C450.508 421.78 465.777 422.611 481.001 422.097Z"/>
	<path fill="#231F20" d="M481.001 422.097C481.506 421.456 482.044 420.716 482.667 420.187C483.88 419.156 485.068 419.054 486.609 418.992C495.493 418.637 504.652 419.439 513.577 419.411Q549.219 419.078 584.862 419.12Q590.969 419.455 597.085 419.368L602.214 430.562C600.362 430.797 598.53 430.882 596.667 430.957C572.686 431.932 548.576 431.436 524.576 431.451L500.667 431.537C496.273 431.556 491.648 431.854 487.281 431.406C485.689 431.243 483.926 430.552 482.785 429.392C480.81 427.386 480.95 424.713 481.001 422.097Z"/>
	<path fill="#F59A6B" d="M225.434 523.952C225.664 523.301 225.909 522.651 226.129 521.997C226.596 520.61 226.91 519.478 228.026 518.452C229.374 517.212 231.056 516.689 232.857 516.591C238.283 516.299 243.87 516.577 249.314 516.545L285.253 516.339L408.914 516.362L731.679 516.331Q729.078 536.295 726.752 556.292C725.273 569.43 720.515 626.225 715.49 634.241L714.878 634.377L714.696 635.067C713.03 641.625 712.768 649.234 711.892 655.977C708.948 678.639 707.142 701.433 704.403 724.119C703.538 731.285 703.4 740.276 700.755 746.941C699.432 750.275 696.482 752.989 693.482 754.828C689.685 757.155 686.343 757.615 682.026 756.516C677.685 755.411 673.947 753.296 671.661 749.317C667.108 741.387 672.305 715.857 673.114 705.906C667.948 708.713 663.507 713.615 658.702 717.095Q653.567 720.826 648.208 724.226Q642.848 727.626 637.285 730.682Q631.722 733.737 625.977 736.436Q620.232 739.135 614.329 741.467C613.36 746.862 611.596 751.347 606.811 754.561C603.081 757.066 598.552 757.723 594.211 756.719Q593.41 756.533 592.618 756.313C587.353 759.793 580.76 762.047 574.917 764.437Q550.577 774.581 525.351 782.259C518.262 784.385 510.216 785.632 503.467 788.494C498.003 788.449 486.928 786.768 482.897 790.636C481.285 792.183 481.087 794.492 481.036 796.609C462.275 795.931 443.308 796.447 424.533 796.527C382.211 796.706 339.693 797.365 297.381 796.442C297.366 795.318 297.418 793.968 296.985 792.913C295.145 788.432 282.453 784.982 277.976 781.658C275.68 779.953 273.425 778.02 271.41 775.99C268.587 773.145 263.88 765.68 260.265 764.43C258.177 763.708 256.366 764.412 254.388 765.091C253.684 754.168 252.116 743.324 250.697 732.476C249.679 724.687 249.019 716.41 246.819 708.864C248.613 708.198 251.337 707.492 252.1 705.486C253.371 702.14 250.249 683.324 249.729 678.82C245.149 639.119 240.647 599.166 233.244 559.875C231.008 548.005 229.243 535.415 225.434 523.952Z"/>
	<path fill="#231F20" d="M592.618 756.313C590.213 755.277 587.984 753.624 586.194 751.723C582.816 748.136 581.928 743.477 582.131 738.704C582.626 727.05 584.158 715.335 585.029 703.689Q587.995 659.398 592.082 615.197L594.952 581.747C595.37 576.228 595.17 570.304 596.338 564.899C597.088 561.431 598.792 558.274 601.483 555.933Q602.089 555.408 602.745 554.946Q603.401 554.485 604.1 554.093Q604.8 553.7 605.535 553.381Q606.271 553.061 607.035 552.818Q607.799 552.574 608.584 552.409Q609.369 552.245 610.166 552.16Q610.964 552.076 611.766 552.072Q612.568 552.069 613.366 552.147Q614.178 552.232 614.978 552.399Q615.778 552.565 616.557 552.81Q617.336 553.055 618.087 553.377Q618.838 553.698 619.553 554.093Q620.268 554.488 620.94 554.952Q621.612 555.416 622.235 555.945Q622.857 556.474 623.423 557.063Q623.99 557.651 624.495 558.293C626.162 560.38 627.415 563.016 627.555 565.716C627.878 571.95 626.766 578.786 626.315 585.066L622.809 629.957C619.838 667.093 617.944 704.389 614.329 741.467C613.36 746.862 611.596 751.347 606.811 754.561C603.081 757.066 598.552 757.723 594.211 756.719Q593.41 756.533 592.618 756.313Z"/>
	<path fill="#231F20" d="M508.683 552.572C513.667 552.015 518.758 552.392 522.922 555.497C525.488 557.409 527.638 560.334 527.992 563.565C528.996 572.74 528.425 582.265 528.428 591.495L528.521 639.185L528.544 706.452C528.568 718.211 529.209 730.183 528.581 741.909C528.456 744.236 528.044 745.977 526.889 748.017C524.429 752.363 520.307 755.077 515.616 756.449C512.256 756.799 509.333 756.848 506.093 755.645C502.236 754.213 498.7 751.135 497.18 747.241C496.116 744.517 496.1 740.693 496.005 737.777C495.593 725.174 496.052 712.422 496.097 699.805L496.042 641.697L496.042 596.276C496.004 587.587 495.65 578.782 495.993 570.105C496.103 567.317 496.267 564.684 497.405 562.097C499.629 557.039 503.68 554.377 508.683 552.572Z"/>
	<path fill="#231F20" d="M409.403 553.612C412.591 553.45 415.554 553.738 418.484 555.096C422.247 556.841 425.834 560.565 427.088 564.572C428.613 569.445 428.491 575.646 428.995 580.763Q431.109 602.195 432.819 623.663Q436.626 664.977 439.7 706.351C440.574 717.322 442.337 728.5 442.656 739.473C442.745 742.516 442.509 744.949 441.026 747.678C438.395 752.518 433.901 755.072 428.756 756.491C425.071 756.715 421.838 756.465 418.479 754.782C414.989 753.032 411.81 749.694 410.687 745.896C408.444 738.309 408.537 728.825 407.873 720.927L403.677 668.863L397.881 603.176C396.921 592.019 395.399 580.576 395.346 569.394C395.331 566.383 395.95 563.986 397.561 561.399C400.343 556.929 404.479 554.848 409.403 553.612Z"/>
	<path fill="#231F20" d="M315.329 551.13C317.949 551.078 320.399 551.19 322.908 552.023C327.097 553.413 330.806 556.354 332.554 560.483C334.665 565.467 336.655 593.087 337.576 600.116C342.188 635.319 347.359 670.467 351.312 705.753L353.906 728.777C354.345 732.608 355.136 736.645 355.231 740.483C355.283 742.62 354.454 745.197 353.536 747.095C351.15 752.023 347.1 754.839 342.015 756.501C338.428 756.845 335.244 756.543 331.938 755.011C328.252 753.304 324.528 749.841 323.328 745.852C321.355 739.292 321.18 731.638 320.421 724.82Q318.612 708.567 316.6 692.338Q311.259 650.062 306.544 607.712C304.968 594.576 302.286 581.228 301.548 568.059C301.357 564.65 301.681 562.343 303.471 559.342C306.156 554.837 310.316 552.297 315.329 551.13Z"/>
	<path fill="#231F20" d="M673.114 705.906C677.919 673.112 680.894 639.841 684.616 606.9L687.797 579.756C688.436 574.514 688.807 569.024 690.12 563.91C690.901 560.87 692.332 558.295 694.613 556.11Q695.197 555.554 695.833 555.058Q696.47 554.563 697.153 554.134Q697.836 553.704 698.558 553.345Q699.28 552.986 700.035 552.701Q700.789 552.416 701.568 552.208Q702.348 551.999 703.144 551.87Q703.94 551.74 704.745 551.691Q705.55 551.642 706.356 551.673C710.665 551.809 714.974 553.609 717.871 556.849C719.904 559.123 721.551 562.349 721.876 565.408C722.695 573.141 720.684 582.392 719.759 590.116C717.995 604.846 716.087 619.589 714.878 634.377L714.696 635.067C713.03 641.625 712.768 649.234 711.892 655.977C708.948 678.639 707.142 701.433 704.403 724.119C703.538 731.285 703.4 740.276 700.755 746.941C699.432 750.275 696.482 752.989 693.482 754.828C689.685 757.155 686.343 757.615 682.026 756.516C677.685 755.411 673.947 753.296 671.661 749.317C667.108 741.387 672.305 715.857 673.114 705.906Z"/>
</svg>
