<?xml version="1.0" encoding="utf-8" ?>
<svg xmlns="http://www.w3.org/2000/svg" xmlns:xlink="http://www.w3.org/1999/xlink" width="1024" height="1024">
	<path fill="#FEFEFE" d="M0 0L1024 0L1024 1024L0 1024L0 0Z"/>
	<path fill="#231F20" d="M218.564 594.991Q219.173 594.932 219.783 594.895C221.571 594.796 223.121 594.971 224.485 596.298C233.574 605.144 245.229 711.579 244.935 729.994C244.886 733.07 243.537 734.342 241.458 736.366C240.563 736.428 239.644 736.5 238.747 736.44C237.004 736.323 234.89 735.586 233.832 734.113C231.823 731.316 230.807 706.116 230.342 700.854C228.288 677.57 226.111 654.257 221.741 631.272C220.383 624.129 214.451 603.737 215.1 598.572C215.921 596.911 217.113 596.097 218.564 594.991Z"/>
	<path fill="#231F20" d="M508.263 548.511C511.83 548.259 515.138 548.502 518.422 550.051C521.958 551.719 525.416 555.335 526.635 559.088C528.666 565.34 526.842 617.719 526.67 627.705L526.065 681.187C525.886 698.04 526.792 715.284 525.802 732.083C525.607 735.4 524.781 738.485 523.029 741.344C520.524 745.432 517.012 746.938 512.501 747.911C509.888 748.026 507.342 747.978 504.799 747.283C501.436 746.363 497.635 744.2 496.087 740.898C494.892 738.348 494.902 733.903 494.85 731.075C494.693 722.583 495.251 714.001 495.381 705.502L495.894 649.527L496.289 599.216C496.284 586.926 495.832 574.507 496.386 562.237C496.468 560.402 496.819 558.856 497.559 557.164C499.613 552.473 503.697 550.238 508.263 548.511Z"/>
	<path fill="#231F20" d="M408.51 548.12C411.186 547.9 413.679 548.141 416.181 549.179C419.945 550.742 423.723 554.126 425.047 558.072C427.101 564.193 426.885 572.575 427.42 579.066L430.547 616.923L436.982 691.272C438.064 703.99 439.646 716.859 440.09 729.612C440.198 732.718 440.146 735.197 438.658 738.016C436.322 742.44 432.216 745.098 427.54 746.493C423.246 746.737 419.416 746.575 415.602 744.248C411.956 742.023 410.324 739.055 409.468 734.994C407.737 726.788 407.627 717.698 406.872 709.314L401.955 650.003C400.186 629.077 398.106 608.208 396.57 587.257C395.963 578.976 394.642 570.107 395.018 561.852C395.135 559.272 396.156 556.616 397.604 554.493C400.249 550.616 404.079 549.037 408.51 548.12Z"/>
	<path fill="#231F20" d="M590.263 742.886C587.471 739.395 585.886 736.219 586.048 731.676C586.369 722.668 587.285 713.624 587.877 704.624Q590.055 672.997 591.78 641.343L594.879 586.097C595.385 577.521 595.089 567.546 596.915 559.184C597.421 556.865 599.446 554.229 601.196 552.683Q601.807 552.149 602.468 551.679Q603.129 551.209 603.834 550.807Q604.538 550.405 605.279 550.076Q606.021 549.746 606.791 549.492Q607.561 549.238 608.353 549.061Q609.145 548.885 609.95 548.789Q610.755 548.692 611.566 548.677Q612.377 548.661 613.186 548.726C617.513 549.037 621.677 550.936 624.507 554.265C626.822 556.988 627.811 560.331 628.025 563.849C628.34 569.023 627.275 574.606 626.928 579.799L624.935 613.359Q622.219 670.009 618.44 726.598C618.173 732.698 617.749 738.314 613.034 742.81C609.916 745.782 605.625 747.221 601.35 747.097C597.089 746.973 593.56 745.508 590.263 742.886Z"/>
	<path fill="#231F20" d="M311.25 548.1C313.928 547.854 316.607 547.923 319.177 548.778C323.316 550.155 326.574 552.99 328.412 556.966C330.985 562.53 332.551 587.579 333.35 594.988L342.463 681.186L346.468 715.582C347.117 721.014 348.082 726.505 348.384 731.967C348.521 734.439 348.19 736.306 347.217 738.574C344.982 743.784 340.696 746.717 335.574 748.633C331.898 749.367 328.362 749.108 324.908 747.59C321.585 746.13 318.323 743.217 317.134 739.703C313.943 730.268 313.904 718.794 312.953 708.86L308.763 665.858L301.756 600.001C300.586 588.949 298.958 577.748 298.376 566.653C298.186 563.028 298.005 559.765 299.792 556.491C302.26 551.968 306.509 549.576 311.25 548.1Z"/>
	<path fill="#F7A43D" d="M384.094 417.353C386.777 412.748 392.19 395.742 394.484 389.534L428.218 296.213C434.387 278.958 440.002 260.983 447.302 244.181C448.421 241.606 449.516 238.951 451.67 237.065C456.584 232.763 463.764 230.403 470.265 231.143C476.979 231.908 482.517 235.596 486.536 240.895C490.816 246.537 491.954 252.04 491.107 258.967C490.716 263.498 478.123 294.74 475.648 301.248C461.107 339.495 446.017 377.768 432.65 416.44L417.92 457.886C415.279 465.343 413.456 473.965 409.188 480.689C406.712 484.59 403.066 487.626 398.91 489.608C393.163 492.35 386.431 493.04 380.415 490.763C376.819 489.402 371.859 486.337 370.399 482.57C369.813 481.057 369.775 478.965 370.586 477.518C371.241 476.349 372.385 475.302 373.306 474.332C372.109 472.383 370.758 470.439 369.721 468.401C368.78 466.552 368.899 464.758 369.303 462.78C370.616 456.344 373.687 449.757 375.879 443.543Q380.363 430.566 384.094 417.353Z"/>
	<path fill="#231F20" d="M389.603 449.461C390.325 449.429 391.047 449.398 391.77 449.41C393.347 449.435 394.754 449.949 395.72 451.266C396.993 453.001 396.981 455.708 396.486 457.706C395.637 461.136 394.219 464.213 391.103 466.013C388.89 466.15 386.55 466.223 384.832 464.563C383.816 463.581 383.47 462.203 383.511 460.835C383.635 456.689 386.701 452.236 389.603 449.461Z"/>
	<path fill="#231F20" d="M373.306 474.332C374.322 475.34 375.482 476.37 376.65 477.207C380.567 480.016 385.656 481.827 390.509 481.026C394.518 480.364 398.213 477.78 400.294 474.303C402.374 470.827 403.523 466.577 404.876 462.769C407.946 454.128 410.68 445.368 413.795 436.747C431.65 387.318 449.018 337.724 468.101 288.755C471.549 279.908 476.776 262.006 482.031 254.899C483.58 254.02 484.754 253.778 486.496 254.322C488.778 255.035 489.991 257.02 491.107 258.967C490.716 263.498 478.123 294.74 475.648 301.248C461.107 339.495 446.017 377.768 432.65 416.44L417.92 457.886C415.279 465.343 413.456 473.965 409.188 480.689C406.712 484.59 403.066 487.626 398.91 489.608C393.163 492.35 386.431 493.04 380.415 490.763C376.819 489.402 371.859 486.337 370.399 482.57C369.813 481.057 369.775 478.965 370.586 477.518C371.241 476.349 372.385 475.302 373.306 474.332Z"/>
	<path fill="#F7A43D" d="M563.662 334.528C560.022 329.029 557.876 321.965 555.49 315.837Q550.21 302.108 544.705 288.468L536.268 267.824C534.81 264.323 532.997 260.821 531.921 257.188C530.972 253.979 530.384 250.151 531.139 246.843C532.832 239.427 536.174 232.105 542.991 228.098C548.843 224.658 556.951 224.126 563.413 225.943C571.138 228.115 577.803 233.93 581.544 240.963C587.524 252.208 593.244 268.035 598.354 280.249Q617.303 326.516 635.371 373.133C641.032 387.568 646.352 402.377 652.59 416.561C654.636 422.549 656.632 428.574 658.863 434.495C662.081 443.031 668.428 454.546 668.609 463.569C668.691 467.695 666.874 472.788 665.087 476.476C661.672 483.522 655.917 488.914 648.387 491.365C642.394 493.316 635.682 493.145 630.07 490.118C626.798 488.354 624.651 486.33 622.535 483.33C623.11 480.22 623.528 477.843 625.575 475.315C625.316 475.217 625.049 475.141 624.799 475.023C623.104 474.22 621.691 471.041 620.926 469.408C618.376 463.967 616.612 458.011 614.496 452.383C609.98 440.366 605.428 428.27 600.445 416.442C597.244 405.308 591.535 394.212 587.202 383.429C580.932 367.822 575.352 351.781 568.324 336.501C566.735 335.912 565.133 335.382 563.662 334.528Z"/>
	<path fill="#231F20" d="M635.443 445.893C636.052 445.925 636.654 445.948 637.253 446.075C640.013 446.665 642.174 449.14 643.649 451.389C645.43 454.105 646.927 458.163 646.15 461.442C645.631 463.63 644.101 464.522 642.34 465.66C642.186 465.652 642.031 465.654 641.879 465.635C638.734 465.253 636.319 462.436 634.637 459.946C632.98 457.491 630.796 453.03 631.687 449.955C632.318 447.775 633.6 446.986 635.443 445.893Z"/>
	<path fill="#231F20" d="M563.662 334.528C560.022 329.029 557.876 321.965 555.49 315.837Q550.21 302.108 544.705 288.468L536.268 267.824C534.81 264.323 532.997 260.821 531.921 257.188C530.972 253.979 530.384 250.151 531.139 246.843C532.832 239.427 536.174 232.105 542.991 228.098C548.843 224.658 556.951 224.126 563.413 225.943C571.138 228.115 577.803 233.93 581.544 240.963C587.524 252.208 593.244 268.035 598.354 280.249Q617.303 326.516 635.371 373.133C641.032 387.568 646.352 402.377 652.59 416.561C654.636 422.549 656.632 428.574 658.863 434.495C662.081 443.031 668.428 454.546 668.609 463.569C668.691 467.695 666.874 472.788 665.087 476.476C661.672 483.522 655.917 488.914 648.387 491.365C642.394 493.316 635.682 493.145 630.07 490.118C626.798 488.354 624.651 486.33 622.535 483.33C623.11 480.22 623.528 477.843 625.575 475.315C628.849 475.978 631.164 477.849 633.99 479.497C637.504 481.545 641.034 482.282 644.993 481.079C649.23 479.793 652.527 476.391 654.522 472.533C656.863 468.008 657.37 463.686 655.798 458.858C647.512 433.411 636.84 408.416 626.68 383.667C624.295 377.858 622.33 371.869 620.037 366.02C617.148 358.645 614.008 351.37 611.11 344L590.269 291.474C584.735 277.274 579.1 261.058 571.842 247.76C569.632 243.71 566.737 240.386 562.54 238.316C559.136 236.636 555.165 235.989 551.52 237.271C548.144 238.459 544.904 241.252 543.492 244.572C542.261 247.469 542.489 250.654 543.229 253.642C545.07 261.068 549.025 268.783 551.948 275.907L571.082 322.064C572.25 324.88 574.901 330.351 573.277 333.258C572.338 334.94 570.555 335.678 568.847 336.313C568.673 336.377 568.498 336.438 568.324 336.501C566.735 335.912 565.133 335.382 563.662 334.528Z"/>
	<path fill="#DB583B" d="M728.077 416.487L803.597 416.561C813.85 416.571 829.429 415.559 838.974 417.042C842.118 417.531 844.693 418.838 846.937 421.111C850.454 424.673 851.143 429.275 851.012 434.091C850.814 441.342 849.828 448.589 849.382 455.832C848.766 465.828 849.25 477.291 846.961 486.992C846.259 489.97 844.946 492.832 842.627 494.898C836.364 500.477 823.213 497.926 815.272 497.983Q814.355 506.166 813.148 514.311L750.126 514.451C739.331 514.457 728.176 515.092 717.429 514.431L717.156 514.482C675.141 513.572 632.963 514.318 590.93 514.223L207.92 513.885C207.847 512.147 207.907 510.399 207.925 508.66C208.456 504.757 208.168 500.577 208.164 496.633C222.549 495.573 237.08 495.857 251.5 495.718L333.75 495.398Q486.033 496.255 638.306 494.383C643.779 494.266 649.321 494.822 654.802 494.931C666.439 495.163 678.11 495.027 689.75 495.021C696.91 495.018 704.332 495.357 711.467 494.858C714.495 494.646 716.884 493.925 719.549 492.49C722.905 490.031 726.397 487.455 729.067 484.235C731.758 480.989 732.936 477.192 733.35 473.038C734.15 465.013 732.309 456.364 731.398 448.382Q729.61 432.448 728.077 416.487Z"/>
	<path fill="#EA774A" d="M432.65 416.44C488.559 417.131 544.53 416.541 600.445 416.442C605.428 428.27 609.98 440.366 614.496 452.383C616.612 458.011 618.376 463.967 620.926 469.408C621.691 471.041 623.104 474.22 624.799 475.023C625.049 475.141 625.316 475.217 625.575 475.315C623.528 477.843 623.11 480.22 622.535 483.33C624.651 486.33 626.798 488.354 630.07 490.118C635.682 493.145 642.394 493.316 648.387 491.365C655.917 488.914 661.672 483.522 665.087 476.476C666.874 472.788 668.691 467.695 668.609 463.569C668.428 454.546 662.081 443.031 658.863 434.495C656.632 428.574 654.636 422.549 652.59 416.561L728.077 416.487Q729.61 432.448 731.398 448.382C732.309 456.364 734.15 465.013 733.35 473.038C732.936 477.192 731.758 480.989 729.067 484.235C726.397 487.455 722.905 490.031 719.549 492.49C716.884 493.925 714.495 494.646 711.467 494.858C704.332 495.357 696.91 495.018 689.75 495.021C678.11 495.027 666.439 495.163 654.802 494.931C649.321 494.822 643.779 494.266 638.306 494.383Q486.033 496.255 333.75 495.398L251.5 495.718C237.08 495.857 222.549 495.573 208.164 496.633C208.168 500.577 208.456 504.757 207.925 508.66C207.457 504.894 207.625 500.969 207.601 497.171C200.251 497.223 186.714 499.029 181.069 493.402C178.754 491.094 177.683 487.943 177.175 484.781C176.268 479.129 176.917 472.786 176.927 467.051C176.945 456.078 176.816 445.086 176.99 434.115C177.064 429.484 177.57 424.048 181.224 420.74C183.259 418.898 186.07 417.561 188.797 417.226C195.306 416.427 202.521 417.015 209.098 417.031Q227.658 417.108 246.217 416.999C292.128 416.799 338.199 416.349 384.094 417.353Q380.363 430.566 375.879 443.543C373.687 449.757 370.616 456.344 369.303 462.78C368.899 464.758 368.78 466.552 369.721 468.401C370.758 470.439 372.109 472.383 373.306 474.332C372.385 475.302 371.241 476.349 370.586 477.518C369.775 478.965 369.813 481.057 370.399 482.57C371.859 486.337 376.819 489.402 380.415 490.763C386.431 493.04 393.163 492.35 398.91 489.608C403.066 487.626 406.712 484.59 409.188 480.689C413.456 473.965 415.279 465.343 417.92 457.886L432.65 416.44Z"/>
	<path fill="#EA774A" d="M813.148 514.311L790.166 677.064Q786.633 704.89 782.774 732.673C781.488 742.142 781.007 752.778 777.951 761.817C774.681 771.49 767.516 779.927 759.463 786.014C751.497 792.035 741.986 797.122 732.042 798.778C723.043 801.283 705.871 800.029 696.132 800.034L637.653 800.117C631.812 800.642 625.632 800.387 619.755 800.424L585.253 800.464L482.823 800.572L369.937 800.606Q345.628 800.885 321.317 800.859C312.052 800.863 302.68 801.108 293.435 800.499Q290.735 800.345 288.067 799.904Q285.398 799.464 282.792 798.741Q280.186 798.019 277.671 797.024Q275.156 796.028 272.762 794.771C261.373 788.779 253.601 779.702 249.746 767.463L426.439 767.492L476.779 767.498C491.604 767.49 506.605 767.751 521.32 765.702C544.88 762.422 569.967 755.487 590.263 742.886C593.56 745.508 597.089 746.973 601.35 747.097C605.625 747.221 609.916 745.782 613.034 742.81C617.749 738.314 618.173 732.698 618.44 726.598C636.434 713.186 653.192 699.691 668.477 683.186C673.452 677.813 678.277 672.721 682.185 666.5C683.907 656.757 684.468 646.693 685.388 636.844L689.801 587.699C690.573 578.615 690.408 567.124 692.968 558.535C693.969 555.176 696.495 552.456 699.565 550.836C704.401 548.284 709.278 548.543 714.339 550.132C714.743 541.9 718.136 520.917 717.156 514.482L717.429 514.431C728.176 515.092 739.331 514.457 750.126 514.451L813.148 514.311Z"/>
	<path fill="#7B3B34" d="M637.653 800.117C628.919 799.522 619.907 800.046 611.149 800.106L569.547 800.109C561.637 800.132 553.23 800.753 545.385 799.708C543.098 799.404 540.717 798.798 538.874 797.342C537.217 796.033 536.278 794.141 536.067 792.055C535.842 789.828 536.175 787.491 537.718 785.777C539.569 783.721 542.588 783.25 545.208 783.105C553.884 782.624 564.312 783.375 573.205 783.394L640.218 783.449L701.4 782.994C710.221 782.983 719.419 782.444 728.201 783.156C730.11 783.311 731.904 783.946 733.287 785.316C735.017 787.031 735.589 789.396 735.551 791.769C735.502 794.87 734.176 796.671 732.042 798.778C723.043 801.283 705.871 800.029 696.132 800.034L637.653 800.117Z"/>
	<path fill="#231F20" d="M682.185 666.5C683.907 656.757 684.468 646.693 685.388 636.844L689.801 587.699C690.573 578.615 690.408 567.124 692.968 558.535C693.969 555.176 696.495 552.456 699.565 550.836C704.401 548.284 709.278 548.543 714.339 550.132C717.717 552.411 721.365 555.138 722.285 559.371C723.736 566.048 721.246 580.971 720.623 588.498L715.285 650.057L710.153 709.507C709.244 718.944 708.599 728.609 706.984 737.95C706.588 740.241 705.747 742.23 704.415 744.141Q704.007 744.729 703.543 745.272Q703.079 745.816 702.563 746.311Q702.046 746.806 701.483 747.246Q700.92 747.687 700.315 748.069Q699.711 748.451 699.071 748.77Q698.432 749.09 697.763 749.344Q697.095 749.598 696.404 749.784Q695.714 749.969 695.008 750.085Q694.589 750.162 694.167 750.217Q693.745 750.271 693.321 750.304Q692.897 750.337 692.472 750.348Q692.046 750.359 691.621 750.348Q691.196 750.337 690.771 750.303Q690.347 750.27 689.925 750.215Q689.503 750.16 689.085 750.083Q688.666 750.006 688.252 749.907Q687.838 749.809 687.43 749.689Q687.022 749.569 686.62 749.428Q686.219 749.287 685.825 749.126Q685.431 748.964 685.046 748.783Q684.662 748.601 684.287 748.4Q683.912 748.198 683.548 747.978Q683.184 747.757 682.832 747.518Q682.48 747.279 682.141 747.022C678.644 744.327 676.469 740.634 676.095 736.241C675.485 729.085 677.087 721.123 677.836 713.98C679.483 698.277 681.547 682.277 682.185 666.5Z"/>
</svg>
