<svg width="430" height="430" viewBox="0 0 430 430" fill="none" xmlns="http://www.w3.org/2000/svg">
<g clip-path="url(#clip0_10_15)">
<mask id="mask0_10_15" style="mask-type:luminance" maskUnits="userSpaceOnUse" x="0" y="0" width="430" height="430">
<path d="M430 0H0V430H430V0Z" fill="white"/>
</mask>
<g mask="url(#mask0_10_15)">
<mask id="mask1_10_15" style="mask-type:luminance" maskUnits="userSpaceOnUse" x="0" y="0" width="430" height="430">
<path d="M0 0H430V430H0V0Z" fill="white"/>
</mask>
<g mask="url(#mask1_10_15)">
<path d="M381.5 215.5C381.5 307.732 306.732 382.5 214.5 382.5C122.268 382.5 47.5 307.732 47.5 215.5C47.5 123.268 122.268 48.5 214.5 48.5C306.732 48.5 381.5 123.268 381.5 215.5Z" fill="#EBE6EF" stroke="black"/>
<g style="mix-blend-mode:multiply" opacity="0.5">
<path d="M240.238 381.19C263.651 377.571 286.032 369.038 305.911 356.151C267.155 369.947 224.683 369.035 186.556 353.585C148.429 338.135 117.301 309.225 99.081 272.341C80.861 235.457 76.818 193.168 87.718 153.5C98.618 113.832 123.703 79.546 158.211 57.151C135.896 65.107 115.519 77.697 98.417 94.091C81.315 110.485 67.876 130.313 58.985 152.272C50.094 174.231 45.951 197.824 46.828 221.498C47.705 245.172 53.583 268.393 64.075 289.633C74.567 310.873 89.437 329.652 107.705 344.736C125.973 359.82 147.228 370.866 170.07 377.149C192.912 383.432 216.825 384.809 240.238 381.19Z" fill="#EBE6EF"/>
</g>
<path d="M302.888 162.246C303.62 162.978 303.62 164.166 302.888 164.898L164.119 303.667C163.387 304.399 162.199 304.399 161.467 303.667L126.554 268.754C125.822 268.022 125.822 266.834 126.554 266.102L265.323 127.333C266.055 126.601 267.243 126.601 267.975 127.333L302.888 162.246Z" fill="black"/>
<path d="M302.446 266.102C303.178 266.834 303.178 268.022 302.446 268.754L267.533 303.667C266.801 304.399 265.613 304.399 264.881 303.667L126.112 164.898C125.38 164.166 125.38 162.978 126.112 162.246L161.025 127.333C161.757 126.601 162.945 126.601 163.677 127.333L302.446 266.102Z" fill="black"/>
</g>
</g>
</g>
<defs>
<clipPath id="clip0_10_15">
<rect width="430" height="430" fill="white"/>
</clipPath>
</defs>
</svg>
