<svg width="1024" height="1024" viewBox="0 0 1024 1024" fill="none" xmlns="http://www.w3.org/2000/svg">
<g clip-path="url(#clip0_114_867)">
<rect width="1024" height="1024" fill="white"/>
<path d="M-318 -417H1752.54C1753.69 -415.187 1754.08 -413.617 1754.18 -411.481C1755.07 -392.041 1754.31 -372.277 1754.31 -352.8V-238.346L1754.33 110.884V750.795L1754.31 906.238C1754.31 916.973 1755.91 952.131 1754.03 960.477C1753.73 961.78 1753.24 962.88 1752.54 964H-318V-57.048V-57.6971V-417Z" fill="#FEFEFE"/>
<path d="M551.688 716.293L552.333 719.413C559.026 721.819 569.917 721.322 577.244 721.872C618.168 724.885 659.146 726.569 700.179 726.923C741.212 727.278 782.213 726.303 823.184 723.996C835.371 723.37 855.701 724.142 866.661 720.201C867.099 719.095 867.372 718.517 867.348 717.308C872.543 781.336 874.567 845.929 881.04 909.824C868.522 911.534 855.952 914.263 843.327 914.802C839.179 914.853 833.699 914.187 830.364 916.865L830.027 920.072C829.854 918.851 829.47 917.789 829.094 916.612C827.378 915.915 768.658 920.224 760.325 920.385C706.187 921.421 651.583 921.257 597.611 916.724C578.335 915.107 559.087 913.59 540.106 909.716C535.281 908.603 530.601 907.429 525.632 907.297C518.52 906.853 509.183 903.027 504.164 897.845C496.282 889.705 498.046 873.67 498.356 863.046C499.079 838.166 501.058 813.353 502.66 788.518C503.865 769.839 503.752 749.427 508.307 731.267C509.021 728.419 509.967 726.156 512.177 724.135C519.244 717.676 527.943 717.928 536.899 718.199C540.423 719.418 547.665 720.431 551.088 718.934L551.688 716.293Z" fill="#FBA241"/>
<path d="M852.154 717.913L851.508 721.048C844.804 723.466 833.895 722.966 826.556 723.519C785.564 726.547 744.518 728.239 703.418 728.595C662.317 728.952 621.248 727.972 580.21 725.654C568.002 725.024 547.639 725.8 536.66 721.84C536.222 720.729 535.948 720.148 535.972 718.933C530.768 783.273 525.503 841.225 519.02 905.431C531.559 907.149 547.387 916.848 560.033 917.39C564.188 917.44 569.677 916.771 573.018 919.462L573.355 922.685C573.529 921.458 573.913 920.391 574.289 919.208C576.008 918.507 634.826 922.838 643.173 922.999C697.4 924.04 752.093 923.876 806.155 919.321C825.463 917.696 844.743 916.171 863.755 912.278C868.588 911.16 873.276 909.981 878.253 909.847C885.377 909.402 894.729 905.557 899.756 900.35C907.652 892.17 905.884 876.057 905.575 865.382C904.85 840.38 902.868 815.446 901.262 790.49C900.056 771.72 900.17 751.209 895.606 732.96C894.891 730.098 893.944 727.824 891.73 725.794C884.652 719.302 875.939 719.556 866.967 719.828C863.437 721.053 856.183 722.071 852.755 720.566L852.154 717.913Z" fill="#FBA241"/>
<path d="M588.354 756.664C592.121 756.53 596.238 755.871 599.667 757.65C601.369 760.759 600.776 762.862 600.558 766.27C603.316 770.866 613.458 774.055 618.051 777.763C622.662 781.485 625.453 786.392 625.867 792.352C626.007 794.356 625.773 796.135 624.329 797.613C620.994 801.029 612.506 799.799 607.943 799.678C605.996 795.619 603.841 791.866 600.234 789.017C597.19 786.611 593.773 785.434 589.879 786.072C586.197 786.674 582.969 789.386 581.07 792.499C579.103 795.722 578.279 799.718 579.338 803.398C582.517 814.459 604.5 816.277 613.702 821.379C620.889 825.364 627.486 832.166 629.656 840.254C631.498 847.127 630.179 854.529 626.588 860.608C620.478 870.955 611.167 874.613 600.082 877.447C600.07 879.976 600.363 883.224 599.602 885.63C598.937 887.738 597.726 887.893 595.924 888.789C592.519 888.944 589.178 889.48 586.074 887.837C584.301 884.848 584.423 881.45 584.203 878.059C579.208 876.426 574.519 874.881 570.2 871.8C561.423 865.538 558.096 857.23 556.335 846.9C563.318 845.94 569.899 845.565 576.937 845.625C579.239 849.243 582.08 854.895 585.579 857.348C589.03 859.768 594.205 860.471 598.301 859.53C602.037 858.672 604.853 855.063 606.627 851.825C608.041 849.246 608.831 846.578 607.761 843.734C603.954 833.604 584.533 830.043 575.387 825.789C567.961 822.332 561.342 816.832 558.503 808.945C555.867 801.625 556.829 791.832 560.316 784.929C565.322 775.017 574.919 770.722 584.92 767.364C585.16 762.774 585.203 760.061 588.354 756.664Z" fill="#FEFEFE"/>
<path d="M771.969 765.871C775.013 765.591 778.315 765.498 781.356 765.775C790.628 766.619 799.777 770.92 805.725 778.178C810.558 784.075 813.057 791.558 812.275 799.185C811.264 809.03 805.759 815.219 798.404 821.216C804.632 825.767 810.982 831.374 813.399 838.929C816.266 847.891 816.465 858.21 811.913 866.661C807.729 874.424 800.387 879.386 792.062 881.886C780.138 885.466 765.244 884.634 754.257 878.535C747.668 874.876 742.612 869.239 740.582 861.903C739.644 858.518 739.482 855.934 741.195 852.817C745.515 850.612 752.582 851.197 757.353 851.902C757.571 851.935 757.788 851.975 758.007 852.011C758.934 853.662 759.888 855.315 761.01 856.844C764.305 861.335 769.646 863.729 775.079 864.417C779.554 864.982 784.294 864.377 787.824 861.338C791.547 858.132 792.645 853.206 792.865 848.511C793.754 829.531 773.949 837.121 765.907 827.146C762.93 823.453 764.541 817.952 765.205 813.691C773.727 813.537 782.296 813.973 789.09 807.871C791.975 805.28 793.814 801.647 793.778 797.736C793.743 793.742 792.078 790.144 789.187 787.408C788.775 787.018 788.343 786.651 787.892 786.307C787.439 785.963 786.971 785.644 786.485 785.349C785.999 785.055 785.499 784.788 784.986 784.547C784.471 784.308 783.945 784.096 783.409 783.911C782.871 783.728 782.326 783.573 781.772 783.447C781.218 783.321 780.66 783.226 780.096 783.16C779.532 783.094 778.966 783.059 778.4 783.053C777.832 783.048 777.265 783.073 776.7 783.128C767.876 784.017 762.794 792.259 757.759 798.623C754.056 798.549 749.606 798.804 746.065 797.621C742.79 796.525 741.823 794.673 740.441 791.815C740.381 787.708 741.712 784.909 744.134 781.661C751.306 772.046 760.421 767.658 771.969 765.871Z" fill="#FEFEFE"/>
<path d="M678.477 765.834C680.189 765.738 681.902 765.661 683.614 765.604C693.337 765.293 703.863 766.379 711.181 773.485C717.558 779.678 720.621 789.926 720.647 798.631C720.723 824.543 690.868 847.608 673.98 864.879C685.065 864.758 709.303 862.347 719.023 867.343C720.602 869.461 720.968 871 721.392 873.584C720.882 875.279 720.735 876.448 719.459 877.735C712.713 884.542 675.361 881.856 664.088 881.857C660.741 881.927 656.937 882.209 653.623 881.702C651.071 881.312 649.645 879.855 648.204 877.852C644.156 863.593 688.08 826.319 696.345 810.858C699.358 805.224 700.512 798.79 698.365 792.604C697.318 789.584 695.215 787.111 692.305 785.749C687.547 783.52 681.631 784.29 676.909 786.225C669.609 789.217 666.566 794.135 663.63 801.134C658.949 801.222 652.535 802.109 648.571 799.352C646.92 798.202 645.704 796.502 645.389 794.493C644.817 790.855 646.996 786.989 649.02 784.104C656.13 773.963 666.497 768.068 678.477 765.834Z" fill="#FEFEFE"/>
<path d="M824.019 428.739C832.641 433.428 840.906 438.608 851.104 435.526C861.426 432.404 871.468 423.841 881.059 418.67C881.256 433.617 881.744 448.554 882.521 463.481C882.545 464.69 882.272 465.268 881.834 466.374C870.874 470.315 850.544 469.542 838.356 470.169C797.386 472.475 756.385 473.451 715.352 473.096C674.319 472.742 633.341 471.058 592.417 468.045C585.09 467.494 574.199 467.991 567.506 465.586L566.861 462.466C567.441 448.674 568.226 434.859 568.469 421.058C575.646 425.397 594.271 439.245 600.195 441.49C603.17 442.617 606.285 442.931 609.371 442.079C617.218 439.913 624.261 433.241 630.628 428.358C639.787 434.849 649.331 441.008 659.257 446.269C671.035 441.676 680.803 432.532 691.971 426.667C703.601 433.891 714.793 441.296 727.88 445.585C739.078 440.954 749.432 432.981 759.534 426.331C769.18 432.069 786.045 445.771 797.608 442.643C806.927 440.12 815.477 433.165 824.019 428.739Z" fill="#FEFEFE"/>
<path d="M555.28 655.888C574.261 659.762 593.509 661.279 612.785 662.897C666.757 667.43 721.361 667.593 775.498 666.557C783.831 666.397 842.552 662.087 844.268 662.785C844.644 663.962 845.027 665.024 845.201 666.245C845.351 672.638 846.599 682.749 841.676 687.745C839.133 690.327 835.142 691.158 831.65 691.441C821.487 692.264 810.684 691.509 800.468 691.516L735.18 691.55C681.223 691.564 626.931 692.859 573.011 691.44C568.688 691.325 559.201 691.682 556.287 688.224C551.176 682.158 554.611 663.732 555.28 655.888Z" fill="#FEFEFE"/>
<path d="M858.501 660.975C871.126 660.435 883.696 657.706 896.214 655.996C896.797 663.675 900.167 682.528 894.632 688.115C889.314 693.482 866.363 690.489 858.548 690.571C858.738 680.705 858.722 670.84 858.501 660.975Z" fill="#FEFEFE"/>
<path d="M710.016 305.733C712.651 305.59 715.287 305.502 717.926 305.467C732.31 305.357 744.785 310.698 754.89 320.885C781.694 347.909 784.328 388.774 783.978 424.46C776.429 419.54 768.588 415.272 760.551 411.211L750.02 416.562C751.522 413.104 752.965 409.524 754.022 405.901C757.235 394.882 759.012 379.502 752.741 369.161C750.602 365.637 747.546 362.876 743.44 361.981C736.111 360.382 729.536 363.65 723.596 367.471C725.872 355.099 726.033 345.697 721.733 333.773C718.474 328.554 715.352 323.935 709.139 321.942C703.59 320.164 697.234 321.1 692.189 323.846C667.585 337.246 662.821 372.553 660.85 397.887C660.081 407.779 660.387 418.364 657.557 427.913L656.112 428.656C654.87 428.229 653.625 427.84 652.574 427.021C650.745 425.593 649.879 423.509 649.577 421.257C648.863 415.926 649.365 409.709 649.519 404.302C650.29 377.313 655.73 350.141 672.339 328.17C681.931 315.48 694.266 307.963 710.016 305.733Z" fill="#FEFEFE"/>
<path d="M906.168 244.44L908.561 246.561C915.68 267.758 849.261 353.549 850.206 371.448C852.148 372.083 853.179 371.354 854.843 370.139C858.698 367.321 862.213 363.211 865.757 359.955C875.132 351.344 886.8 345.183 898.972 341.62C889.917 355.793 878.404 368.134 867.253 380.651C856.44 393.56 847.461 407.153 839.37 421.899C835.117 419.493 830.576 417.454 826.192 415.284C832.527 384.016 839.043 354.08 850.629 324.174C861.392 296.387 877.292 257.147 906.168 244.44Z" fill="#FEFEFE"/>
<path d="M698.234 335.695C700.201 335.58 702.609 335.327 704.509 335.997C721.794 342.083 706.421 374.997 712.271 386.916C720.371 394.063 730.114 375.216 739.667 374.98L741.633 376.955C743.325 381.478 743.545 386.146 743.179 390.931C742.366 401.557 733.951 421.229 725.708 428.361C722.508 429.386 722.304 428.79 719.376 427.406C711.915 423.261 704.605 418.864 697.447 414.216C694.577 403.738 693.989 380.991 688.996 373.61L687.539 373.998C684.147 380.975 684.099 389.044 683.569 396.64L676.314 386.163C676.625 381.264 677.545 376.356 678.435 371.531C681.137 356.903 685.651 344.33 698.234 335.695Z" fill="#FEFEFE"/>
<path d="M621.696 332.878C628.156 333.848 633.304 338.339 637.79 342.864C639.694 344.786 641.867 347.304 642.064 350.103C642.707 359.223 638.077 370.802 636.55 380.011C634.748 390.872 634.235 401.648 634.298 412.641C631.136 409.933 627.683 407.553 624.323 405.095L622.564 417.298C617.366 420.829 612.248 424.474 607.211 428.232C601.139 424.363 595.277 420.115 589.356 416.02C596.561 414.681 606.756 418.698 612.573 413.833C616.364 402.502 593.7 385.936 590.483 373.802C589.567 370.342 589.805 367.878 591.526 364.768C600.926 357.672 610.397 372.71 619.727 372.099C627.204 365.427 618.223 344.279 621.398 333.837L621.696 332.878Z" fill="#FEFEFE"/>
<path d="M826.936 282.899C831.422 289.654 834.167 318.647 833.093 326.988C831.013 343.179 824.602 360.03 820.901 376.056C818.273 387.431 816.333 406.683 812.469 416.51C811.632 418.64 809.054 420.384 807.3 421.772C805.624 422.73 804.515 423.272 802.57 423.596C798.706 411.386 810.497 334.649 814.47 318.465C815.986 312.355 817.786 306.33 819.868 300.389C821.95 294.449 824.306 288.619 826.936 282.899Z" fill="#FEFEFE"/>
<path d="M674.76 407.042C677.371 409.068 680.596 412.28 681.059 415.631L679.159 417.674C677.242 419.039 676.528 420.156 674.137 419.865C672.632 416.58 674.234 410.667 674.76 407.042Z" fill="#FEFEFE"/>
<path d="M689.309 136.062C689.725 135.971 690.143 135.89 690.563 135.819C690.982 135.749 691.403 135.689 691.825 135.64C692.249 135.589 692.672 135.549 693.096 135.521C693.52 135.492 693.946 135.473 694.372 135.465C694.797 135.456 695.223 135.458 695.648 135.471C696.073 135.484 696.498 135.507 696.922 135.541C697.346 135.574 697.769 135.618 698.191 135.672C698.613 135.726 699.034 135.791 699.452 135.866C699.871 135.941 700.288 136.026 700.702 136.122C701.118 136.217 701.53 136.322 701.939 136.438C702.348 136.553 702.755 136.679 703.158 136.815C703.562 136.95 703.962 137.095 704.358 137.25C704.754 137.406 705.146 137.571 705.533 137.746C705.922 137.92 706.306 138.103 706.684 138.296C707.064 138.49 707.439 138.692 707.808 138.903C708.177 139.116 708.54 139.337 708.898 139.566C709.257 139.795 709.61 140.033 709.956 140.28C710.303 140.527 710.643 140.782 710.976 141.045C711.311 141.309 711.639 141.58 711.959 141.86C712.28 142.139 712.593 142.427 712.9 142.723C713.206 143.017 713.506 143.319 713.798 143.629C714.09 143.939 714.374 144.256 714.65 144.58C714.926 144.903 715.194 145.234 715.455 145.57C715.715 145.907 715.966 146.25 716.209 146.598C716.452 146.947 716.686 147.302 716.912 147.664C717.138 148.024 717.355 148.39 717.562 148.761C717.771 149.133 717.969 149.509 718.158 149.89C718.347 150.271 718.527 150.656 718.697 151.046C718.868 151.436 719.029 151.829 719.18 152.228C719.331 152.625 719.472 153.026 719.604 153.431C719.735 153.835 719.856 154.243 719.968 154.655C720.08 155.065 720.18 155.478 720.271 155.893C720.362 156.309 720.443 156.726 720.514 157.146C720.584 157.566 720.644 157.987 720.694 158.409C720.744 158.832 720.784 159.256 720.812 159.68C720.841 160.104 720.86 160.529 720.868 160.954C720.877 161.379 720.875 161.805 720.862 162.23C720.849 162.655 720.826 163.08 720.792 163.504C720.759 163.928 720.715 164.351 720.661 164.773C720.606 165.195 720.541 165.616 720.467 166.034C720.391 166.453 720.306 166.87 720.211 167.286C720.116 167.7 720.01 168.112 719.894 168.521C719.778 168.931 719.653 169.338 719.518 169.74C719.382 170.144 719.237 170.544 719.081 170.94C718.926 171.336 718.761 171.728 718.587 172.115C718.412 172.504 718.228 172.888 718.035 173.266C717.842 173.645 717.639 174.019 717.427 174.388C717.215 174.758 716.995 175.121 716.766 175.48C716.536 175.838 716.297 176.19 716.05 176.537C715.803 176.883 715.548 177.224 715.285 177.558C715.021 177.892 714.75 178.219 714.47 178.54C714.191 178.86 713.903 179.174 713.607 179.48C713.313 179.787 713.01 180.086 712.701 180.379C712.391 180.67 712.074 180.954 711.75 181.23C711.427 181.507 711.096 181.775 710.76 182.035C710.423 182.295 710.079 182.547 709.73 182.789C709.381 183.032 709.027 183.266 708.666 183.492C708.305 183.718 707.938 183.935 707.567 184.143C707.196 184.35 706.819 184.549 706.438 184.739C706.057 184.928 705.672 185.107 705.282 185.278C704.892 185.447 704.498 185.608 704.101 185.759C703.702 185.91 703.301 186.051 702.896 186.183C702.491 186.314 702.084 186.436 701.674 186.547C701.262 186.658 700.849 186.759 700.434 186.85C700.018 186.941 699.6 187.021 699.18 187.093C698.761 187.163 698.34 187.223 697.918 187.272C697.495 187.322 697.071 187.361 696.647 187.391C696.223 187.42 695.798 187.438 695.373 187.446C694.947 187.454 694.522 187.452 694.097 187.439C693.672 187.426 693.247 187.403 692.823 187.37C692.398 187.336 691.975 187.292 691.553 187.238C691.131 187.183 690.711 187.119 690.292 187.044C689.873 186.969 689.456 186.883 689.041 186.788C688.626 186.693 688.214 186.588 687.805 186.471C687.396 186.356 686.99 186.23 686.586 186.095C686.183 185.959 685.783 185.814 685.387 185.658C684.99 185.503 684.599 185.338 684.211 185.164C683.823 184.99 683.439 184.806 683.06 184.612C682.681 184.419 682.307 184.217 681.938 184.005C681.569 183.794 681.205 183.573 680.847 183.343C680.489 183.113 680.136 182.875 679.79 182.629C679.443 182.382 679.103 182.127 678.77 181.863C678.435 181.599 678.108 181.327 677.787 181.047C677.467 180.768 677.153 180.481 676.846 180.186C676.54 179.891 676.241 179.589 675.95 179.279C675.657 178.97 675.373 178.653 675.096 178.329C674.82 178.005 674.552 177.675 674.293 177.338C674.033 177.002 673.781 176.659 673.537 176.31C673.294 175.961 673.06 175.605 672.835 175.245C672.609 174.884 672.392 174.519 672.184 174.147C671.977 173.776 671.778 173.4 671.59 173.019C671.4 172.638 671.22 172.252 671.05 171.863C670.88 171.473 670.719 171.079 670.568 170.681C670.417 170.284 670.276 169.883 670.144 169.478C670.013 169.073 669.892 168.665 669.78 168.254C669.668 167.844 669.567 167.431 669.477 167.016C669.386 166.6 669.305 166.182 669.234 165.762C669.164 165.344 669.104 164.923 669.054 164.5C669.005 164.078 668.965 163.655 668.936 163.23C668.907 162.805 668.888 162.38 668.879 161.955C668.872 161.529 668.874 161.104 668.886 160.679C668.899 160.254 668.922 159.829 668.955 159.405C668.989 158.982 669.033 158.559 669.088 158.137C669.142 157.715 669.206 157.295 669.281 156.876C669.356 156.457 669.442 156.04 669.537 155.626C669.633 155.212 669.739 154.799 669.854 154.389C669.969 153.98 670.095 153.574 670.231 153.17C670.366 152.767 670.511 152.368 670.667 151.972C670.822 151.576 670.987 151.183 671.161 150.795C671.335 150.407 671.519 150.024 671.713 149.645C671.906 149.267 672.108 148.893 672.32 148.523C672.531 148.154 672.752 147.791 672.982 147.432C673.212 147.074 673.45 146.722 673.696 146.375C673.943 146.029 674.198 145.689 674.462 145.355C674.725 145.02 674.996 144.693 675.276 144.372C675.556 144.052 675.843 143.738 676.139 143.432C676.434 143.125 676.736 142.826 677.046 142.535C677.355 142.242 677.672 141.958 677.996 141.683C678.32 141.407 678.65 141.139 678.987 140.879C679.324 140.618 679.666 140.367 680.015 140.124C680.363 139.88 680.719 139.645 681.08 139.42C681.441 139.194 681.806 138.978 682.178 138.771C682.549 138.562 682.925 138.364 683.306 138.175C683.687 137.986 684.073 137.806 684.462 137.636C684.852 137.465 685.246 137.304 685.644 137.153C686.041 137.002 686.442 136.861 686.847 136.729C687.252 136.598 687.66 136.478 688.071 136.366C688.481 136.254 688.894 136.153 689.309 136.062Z" fill="black"/>
<path d="M690.799 144.64C693.308 144.576 695.824 144.515 698.29 145.072C702.632 146.055 706.061 148.859 708.287 152.684C708.578 153.188 708.843 153.706 709.08 154.237C709.318 154.769 709.528 155.311 709.71 155.864C709.892 156.417 710.046 156.977 710.17 157.546C710.294 158.114 710.389 158.687 710.455 159.265C710.521 159.844 710.557 160.424 710.563 161.006C710.569 161.588 710.545 162.168 710.492 162.748C710.438 163.328 710.355 163.903 710.243 164.474C710.13 165.045 709.989 165.609 709.819 166.166C708.07 171.997 704.515 175.177 699.344 177.97C696.279 178.112 692.908 178.412 689.949 177.469C686.047 176.229 682.817 172.951 680.957 169.379C678.854 165.34 678.554 160.328 680.018 156.036C682.04 150.104 685.453 147.304 690.799 144.64Z" fill="#FEFEFE"/>
<path d="M846.663 136.002C856.38 135.95 871.26 134.189 879.535 140.487C881.826 142.229 883.271 144.57 883.519 147.465C883.932 152.33 882.052 155.765 879.128 159.392L878.343 160.352C878.72 163.758 881.879 165.601 883.652 168.351C885.582 171.347 884.335 175.376 883.686 178.622C883.16 179.244 882.65 179.806 882.054 180.361C873.104 188.712 857.973 186.217 846.667 185.982C846.24 169.36 846.63 152.636 846.663 136.002Z" fill="black"/>
<path d="M856.916 164.878C860.686 164.914 864.832 164.818 868.548 165.425C871.461 165.901 872.453 166.958 874.15 169.134C874.603 172.139 874.038 173.805 872.947 176.608C867.641 177.768 862.321 177.639 856.922 177.647L856.916 164.878Z" fill="#FEFEFE"/>
<path d="M856.873 144.386C862.049 144.275 867.898 143.342 872.028 146.996C873.405 149.965 872.959 151.681 872.274 154.814C867.361 156.085 862.939 157.838 858.227 155.395C856.107 152.015 856.732 148.23 856.873 144.386Z" fill="#FEFEFE"/>
<path d="M731.554 136.248C742.347 136.172 755.613 134.72 764.555 142.14C767.16 144.302 768.794 147.107 768.894 150.536C769.106 157.821 764.751 162.408 760.043 167.287C759.23 172.625 764.432 176.216 766.979 180.425C768.316 182.635 768.559 183.103 767.934 185.571C765.318 187.105 762.708 186.861 759.771 186.882C755.382 182.509 753.368 173.397 748.103 170.386C745.784 169.06 744.726 169.326 742.244 169.991C740.243 174.218 742.161 180.111 741.089 184.883C740.06 185.917 738.998 187.112 737.594 187.611C736.346 188.054 735.258 188.329 734.165 187.369C728.84 182.686 731.406 144.082 731.554 136.248Z" fill="black"/>
<path d="M741.64 145.463C745.02 145.424 749.38 145.066 752.62 145.958C755.65 146.792 756.431 147.825 757.962 150.312C758.26 153.721 757.472 155.87 756.143 158.928C751.349 160.199 746.571 160.256 741.64 160.421V145.463Z" fill="#FEFEFE"/>
<path d="M475.755 287.977C479.041 287.464 481.528 288.068 484.363 289.76C493.747 295.358 541.514 332.877 543.547 340.832C543.515 344.065 541.876 345.718 539.958 348.095C537.71 348.126 535.727 348.071 533.694 347.002C523.708 341.757 507.259 325.701 497.791 318.017C489.792 311.527 480.947 305.729 473.365 298.792C472.169 297.697 471.703 296.904 471.231 295.355C471.954 291.748 473.349 290.645 475.755 287.977Z" fill="#FBA241"/>
<path d="M780.008 136.064C790.839 135.889 803.037 134.501 813.319 138.32L814.282 141.963C806.653 146.639 799.073 145.727 790.514 145.504L790.452 156.575C794.992 156.464 799.638 156.21 804.172 156.434C806.951 156.57 808.87 157.17 810.754 159.252C811.015 162.016 810.633 162.505 809.453 164.919C804.542 167.064 795.895 165.913 790.506 166.004L790.515 177.141C797.106 177.056 807.575 175.499 812.845 179.956C813.293 182.78 813.162 182.64 811.668 184.862C804.019 189.087 789.452 186.68 780.699 186.273C778.815 169.939 779.994 152.516 780.008 136.064Z" fill="black"/>
<path d="M594.213 135.553C599.975 135.379 605.762 136.542 610.037 140.66C612.508 143.044 614.659 146.194 614.734 149.699L613.121 150.666C608.645 150.353 604.976 148.179 600.924 146.463C597.979 145.216 595.031 143.398 591.927 145.082C589.704 146.286 588.914 147.588 588.076 149.85C591.1 156.088 603.634 158.194 609.589 162.004C612.639 163.956 615.561 166.765 616.16 170.495C616.779 174.347 614.771 178.139 612.571 181.155C608.787 186.34 603.956 186.996 598.06 187.75C592.526 187.037 586.45 186.539 582.238 182.418C580.024 180.25 577.449 176.77 577.398 173.601C583.206 170.567 594.442 178.682 601.929 178.098C603.335 177.203 604.504 176.486 605.253 174.936C606.021 173.346 605.423 172.909 604.894 171.313C600.461 166.921 593.206 165.102 587.669 162.366C583.81 160.459 580.126 157.381 578.899 153.101C577.942 149.764 578.676 146.17 580.538 143.288C583.638 138.491 589.008 136.862 594.213 135.553Z" fill="black"/>
<path d="M603.641 247.928C613.235 247.305 621.197 248.321 629.709 253.114C654.907 267.298 661.935 299.271 669.393 324.963C674.831 314.094 684.205 304.653 694.632 298.512C707.759 290.779 724.139 287.711 738.997 291.66C760.513 297.38 772.64 315.254 783.265 333.349L799.303 327.819C803.729 310.886 795.607 300.142 799.133 282.914C801.485 271.426 808.508 259.554 818.47 253.109C825.113 248.81 833.331 246.997 841.102 248.825C847.56 250.345 852.741 254.543 856.204 260.13C865.293 274.795 863.297 293.883 859.533 309.85C857.625 311.893 855.48 313.774 853.458 315.705L853.434 335.536C858.147 338.465 862.868 342.095 866.546 346.261C880.618 362.191 877.796 381.828 876.535 401.358C885.069 401.755 897.232 400.843 903.752 407.13C907.83 414.661 907.158 469.573 907.887 483.893C909.99 525.294 913.15 566.876 916.618 608.196C918.498 630.594 925.102 669.968 921.843 690.542C921.077 695.38 918.43 699.18 914.36 701.921C911.275 703.998 907.665 705.06 904.013 705.564C895.163 706.781 853.767 707.017 845.499 705.395C842.59 704.824 841.021 704.208 839.34 701.757C840.726 696.575 846.218 691.201 849.325 686.707C850.651 661.584 849.597 635.859 849.545 610.674C849.215 554.046 848.166 497.432 846.398 440.831C839.094 435.195 830.852 430.348 823.142 425.254C812.702 431.431 803.308 439.221 792.42 444.697C780.395 440.513 769.803 432.849 759.255 425.894C746.626 431.983 734.597 439.594 722.134 446.076C721.957 446.02 721.779 445.963 721.601 445.91C708.96 442.145 697.149 432.969 686.124 425.813L674.218 433.804C668.241 438.137 662.436 442.587 655.721 445.73C644.414 439.447 633.672 431.596 622.553 424.903C612.808 431.557 604.012 439.461 594.087 445.916C579.256 438.817 564.777 427.566 550.906 418.558C549.901 450.038 548.565 481.504 546.897 512.955C545.723 534.368 534.554 677.15 537.557 685.857C538.679 689.108 541.935 691.15 545.11 691.967C555.738 694.705 587.356 692.786 599.943 692.788L749.3 692.665C772.363 692.626 795.885 691.36 818.886 692.357C822.88 692.531 827.085 692.772 830.634 694.749C831.074 695.775 831.634 696.95 831.785 698.061C832.07 700.153 831.532 701.798 830.195 703.365C828.265 705.63 824.514 706.609 821.653 706.805C807.341 707.781 792.252 706.783 777.874 706.736L694.067 706.784L599.692 706.889C583.046 706.904 565.998 707.752 549.416 706.642C543.745 706.261 534.716 705.418 530.345 701.398C524.264 695.806 522.193 689.212 522.034 681.12C521.699 664.135 523.493 646.639 524.553 629.681L530.448 538.025C532.075 508.344 533.407 478.649 534.445 448.94C534.855 437.407 534.462 425.773 535.257 414.265C535.485 410.977 535.768 407.688 538.14 405.21C545.922 401.125 558.068 403.047 566.639 403.294C564.681 395.967 562.88 388.6 561.235 381.195C553.843 347.281 550.074 301.194 569.943 270.825C578.16 258.268 589.046 250.955 603.641 247.928Z" fill="black"/>
<path d="M605.527 262.031C613.618 261.454 620.28 263.002 626.841 267.924C654.304 288.519 666.839 384.582 671.829 418.234C666.95 422.308 661.479 425.887 656.326 429.622C644.897 422.536 633.776 414.475 621.715 408.509C612.378 413.853 604.913 422.172 595.931 427.693C594.166 428.777 593.973 428.855 591.98 428.403C585.81 414.357 634.139 375.563 632.797 364.792C632.607 363.265 632.017 363.304 630.859 362.459C627.386 362.259 624.5 363.961 621.415 365.374C605.34 377.753 594.173 394.217 583.552 411.208C581 399.155 578.449 387.195 574.952 375.368C581.169 364.035 587.496 350.959 595.594 340.897C602.007 332.931 621.412 319.401 623.217 311.075C622.442 308.494 622.573 308.642 620.216 307.338C618.579 307.17 617.149 307.243 615.598 307.869C593.867 316.638 581.371 339.914 572.104 359.947C568.954 335.418 567.99 301.884 581.102 280.036C587.025 270.168 594.48 264.809 605.527 262.031Z" fill="#FEFEFE"/>
<path d="M888.536 420.554C889.153 421.127 889.528 421.744 889.781 422.569C891.094 426.858 892.282 476.365 892.885 486.065C895.958 534.749 899.75 583.377 904.26 631.949C905.063 641.149 910.734 681.673 906.321 688.092C899.259 692.666 886.475 690.776 878.356 690.658L863.68 690.425C866.919 673.727 864.779 646.104 864.649 628.241C864.194 565.405 861.322 502.79 859.742 439.999C868.898 432.942 878.841 426.843 888.536 420.554Z" fill="#FEFEFE"/>
<path d="M816.527 317.544L839.226 317.497C839.164 322.041 839.161 326.586 839.216 331.131C839.462 344.965 847.767 348.248 856.299 356.798C863.327 363.839 863.306 375.353 863.284 384.548C851.528 382.704 839.038 378.799 827.119 379.011C822.326 379.097 814.361 379.534 810.875 383.186L811.52 385.09C819.487 391.78 850.9 393.777 861.786 393.654L861.788 405.277L861.835 420.569L851.551 427.543C842.101 421.03 832.423 414.494 822.169 409.315C814.18 413.759 806.551 419.139 798.884 424.13C798.513 397.574 797.413 372.564 789.65 346.945C796.879 344.045 804.293 341.489 811.601 338.787C813.903 332.031 815.005 324.532 816.527 317.544Z" fill="#FEFEFE"/>
<path d="M717.09 305.597C719.34 305.333 721.604 305.095 723.872 305.077C735.738 304.99 746.718 309.755 755.104 318.079C782.57 345.337 783.817 389.741 783.671 425.835L770.361 417.476C770.154 404.741 773.952 372.939 767.316 362.942L765.924 362.73C761.004 368.895 760.748 379.452 759.65 387.06C756.964 384.073 753.942 381.442 750.968 378.746C748.359 377.318 745.452 376.232 742.728 375.026C743.581 373.285 744.392 371.525 745.162 369.745C750.077 358.337 755.143 343.219 750.075 331.014C747.856 325.669 743.935 321.431 738.43 319.391C731.423 316.792 722.567 317.952 715.842 320.884C696.302 329.399 686.624 354.026 679.156 372.491C677.996 363.531 675.934 354.547 674.245 345.664C677.135 340.231 679.98 334.705 683.266 329.5C691.466 316.512 702.213 309.018 717.09 305.597Z" fill="#FEFEFE"/>
<path d="M724.089 332.793C726.508 332.731 729.194 332.531 731.583 332.892C733.754 333.219 735.5 334.48 736.759 336.259C744.806 347.626 724.673 373.368 722.35 384.929C724.453 389.938 740.14 388.409 745.147 391.575C751.775 395.765 753.101 405.437 754.55 412.506L730.991 424.82C732.183 421.836 733.305 418.827 734.355 415.79C735.325 412.928 736.155 410.21 734.748 407.37L732.885 407.25C726.265 412.109 721.749 422.292 717.733 429.351L707.395 423.256L690.415 412.876C697.32 400.711 708.174 389.48 713.546 376.71C714.579 374.252 715.406 372.287 714.343 369.782C713.727 369.695 713.319 369.589 712.717 369.648C703.762 370.533 689.672 390.335 683.867 397.077C685.695 388.876 688.16 381.084 691.333 373.302C697.939 357.099 707.287 339.905 724.089 332.793Z" fill="#FEFEFE"/>
<path d="M831.665 262.879C833.051 262.759 834.406 262.659 835.799 262.764C839.121 263.017 841.68 264.449 843.709 267.104C850.614 276.135 848.296 292.38 846.779 302.973L830.273 303.346L812.207 303.257C812.043 295.419 812.105 287.342 814.812 279.88C817.946 271.236 823.609 266.739 831.665 262.879Z" fill="#FEFEFE"/>
<path d="M732.85 513.417L736.545 515.245C737.547 517.094 737.903 517.428 737.312 519.578C734.612 529.394 638.991 605.778 624.506 614.221C623.324 614.111 622.428 613.981 621.319 613.528C619.197 612.66 619.017 612.701 618.093 610.581C624.587 599.964 721.007 519.489 732.85 513.417Z" fill="black"/>
<path d="M759.211 554.968C759.491 555.055 759.783 555.114 760.052 555.232C762.479 556.313 762.652 557.391 763.345 559.732C760.367 571.083 700.576 613.768 688.066 622.143C686.441 622.281 685.309 621.659 683.815 621.084C683.367 619.693 683.297 620.144 683.609 618.829C685.892 609.212 747.399 562.318 759.211 554.968Z" fill="black"/>
<path d="M456.155 387.885C468.993 390.469 498.645 403.591 510.864 409.746C515.07 411.866 518.447 413.388 519.961 418.023C519.485 421.572 517.752 423.435 515.593 426.126C513.098 425.732 510.851 425.077 508.498 424.177C498.195 420.233 455.704 404.849 452.101 396.654C452.348 393.017 454.17 390.795 456.155 387.885Z" fill="#FBA241"/>
<path d="M978.549 444.091C979.546 444.084 979.614 444.037 980.715 444.282C983.475 444.895 984.876 447.096 986.274 449.322C986.376 450.737 986.686 451.511 985.988 452.809C982.339 459.594 942.031 469.784 932.901 472.614L929.36 472.778C927.063 471.387 926.142 470.079 924.764 467.798C924.824 466.235 924.635 465.028 925.46 463.643C929.989 456.052 968.919 446.833 978.549 444.091Z" fill="#FBA241"/>
<path d="M622.968 137.086C632.781 137.113 642.814 136.038 652.593 136.602C656.826 136.846 660.291 137.275 663.244 140.592C663.762 143.035 664.112 143.275 662.851 145.545C658.555 147.567 652.899 146.804 648.231 146.68L648.265 169.546C648.302 173.631 648.555 177.896 648.254 181.962C648.045 184.783 647.376 185.252 645.318 186.863C642.634 187.091 642.071 187.07 639.644 185.936C635.922 181.211 637.926 154.03 637.978 146.725C633.947 146.879 628.083 147.815 624.503 145.919C622.62 142.875 623.049 140.584 622.968 137.086Z" fill="black"/>
<path d="M110.794 247.928C120.388 247.305 128.35 248.322 136.861 253.114C162.059 267.298 169.087 299.271 176.546 324.963C181.984 314.095 191.358 304.653 201.785 298.512C214.911 290.78 231.292 287.712 246.15 291.661C267.666 297.381 279.792 315.254 290.418 333.35L306.456 327.819C310.882 310.886 302.759 300.143 306.286 282.915C308.638 271.426 315.661 259.554 325.623 253.109C332.266 248.811 340.484 246.998 348.255 248.825C354.713 250.346 359.894 254.544 363.357 260.131C372.446 274.796 370.45 293.883 366.685 309.85C364.778 311.893 362.633 313.774 360.611 315.706L360.587 335.537C365.3 338.466 370.02 342.095 373.699 346.261C387.771 362.192 384.949 381.829 383.688 401.359C392.222 401.755 404.385 400.844 410.905 407.13C414.983 414.662 414.311 469.573 415.04 483.893C417.143 525.294 420.303 566.876 423.771 608.196C425.651 630.595 432.255 669.969 428.996 690.543C428.23 695.381 425.583 699.18 421.513 701.921C418.428 703.998 414.818 705.061 411.166 705.564C402.316 706.781 360.92 707.018 352.652 705.396C349.743 704.824 348.174 704.209 346.493 701.758C347.879 696.575 353.371 691.202 356.478 686.708C357.804 661.584 356.75 635.86 356.698 610.675C356.368 554.047 355.318 497.432 353.55 440.831C346.247 435.196 338.005 430.348 330.295 425.255C319.854 431.431 310.461 439.222 299.573 444.697C287.547 440.514 276.956 432.85 266.408 425.895C253.778 431.984 241.749 439.594 229.286 446.077C229.11 446.02 228.932 445.964 228.754 445.91C216.113 442.146 204.302 432.969 193.277 425.813L181.371 433.805C175.393 438.137 169.589 442.588 162.874 445.73C151.567 439.447 140.825 431.597 129.705 424.904C119.961 431.558 111.165 439.462 101.24 445.916C86.4087 438.817 71.9301 427.567 58.0586 418.559C57.0537 450.039 55.7175 481.504 54.0499 512.956C52.8762 534.369 41.7067 677.151 44.71 685.858C45.8319 689.109 49.0877 691.15 52.2626 691.968C62.8912 694.705 94.5085 692.787 107.096 692.789L256.453 692.666C279.516 692.627 303.038 691.361 326.039 692.358C330.033 692.531 334.238 692.772 337.786 694.749C338.227 695.776 338.787 696.951 338.937 698.062C339.222 700.153 338.685 701.798 337.348 703.365C335.418 705.63 331.667 706.61 328.806 706.806C314.494 707.782 299.405 706.783 285.027 706.736L201.22 706.785L106.845 706.89C90.1988 706.904 73.1508 707.753 56.5691 706.642C50.8978 706.262 41.8686 705.418 37.4974 701.398C31.4164 695.806 29.3457 689.212 29.1871 681.12C28.852 664.136 30.6458 646.639 31.7062 629.682L37.601 538.026C39.2275 508.344 40.56 478.649 41.5983 448.941C42.0079 437.407 41.6145 425.773 42.4094 414.265C42.6377 410.977 42.921 407.689 45.2928 405.21C53.0753 401.126 65.221 403.047 73.7919 403.295C71.834 395.967 70.0326 388.601 68.3877 381.196C60.9954 347.281 57.2264 301.195 77.0963 270.826C85.3127 258.269 96.1988 250.956 110.794 247.928Z" fill="black"/>
<path d="M112.679 262.032C120.771 261.455 127.433 263.003 133.993 267.925C161.456 288.52 173.992 384.583 178.981 418.235C174.102 422.309 168.631 425.888 163.478 429.623C152.05 422.537 140.929 414.476 128.867 408.51C119.531 413.854 112.065 422.173 103.083 427.694C101.318 428.778 101.126 428.856 99.1328 428.404C92.9628 414.358 141.291 375.564 139.949 364.793C139.76 363.266 139.169 363.305 138.011 362.46C134.539 362.26 131.652 363.962 128.568 365.375C112.493 377.754 101.325 394.218 90.7044 411.209C88.1528 399.156 85.6013 387.196 82.1043 375.369C88.3212 364.036 94.6482 350.96 102.746 340.898C109.159 332.932 128.564 319.402 130.37 311.076C129.594 308.495 129.725 308.643 127.368 307.339C125.731 307.171 124.302 307.244 122.751 307.87C101.019 316.639 88.5236 339.915 79.2565 359.948C76.1059 335.419 75.1426 301.885 88.2548 280.037C94.1771 270.169 101.633 264.81 112.679 262.032Z" fill="#FEFEFE"/>
<path d="M395.687 420.554C396.304 421.127 396.68 421.744 396.932 422.569C398.245 426.858 399.434 476.365 400.036 486.065C403.11 534.749 406.902 583.377 411.411 631.949C412.214 641.149 417.885 681.673 413.472 688.092C406.41 692.666 393.626 690.776 385.507 690.658L370.831 690.425C374.071 673.727 371.93 646.104 371.801 628.241C371.346 565.405 368.474 502.79 366.894 439.999C376.049 432.942 385.993 426.843 395.687 420.554Z" fill="#FEFEFE"/>
<path d="M323.68 317.544L346.378 317.497C346.316 322.041 346.313 326.585 346.368 331.13C346.614 344.964 354.92 348.248 363.452 356.798C370.48 363.839 370.459 375.353 370.436 384.547C358.681 382.703 346.19 378.798 334.271 379.01C329.479 379.096 321.513 379.533 318.028 383.186L318.672 385.089C326.639 391.779 358.052 393.777 368.939 393.654L368.94 405.277L368.987 420.568L358.703 427.543C349.253 421.029 339.575 414.494 329.322 409.314C321.332 413.759 313.703 419.139 306.036 424.13C305.665 397.574 304.566 372.563 296.803 346.944C304.032 344.045 311.445 341.488 318.753 338.786C321.055 332.03 322.158 324.531 323.68 317.544Z" fill="#FEFEFE"/>
<path d="M224.243 305.597C226.494 305.333 228.757 305.095 231.025 305.077C242.891 304.99 253.871 309.755 262.257 318.079C289.724 345.337 290.97 389.741 290.824 425.835L277.515 417.476C277.308 404.741 281.106 372.939 274.469 362.942L273.077 362.73C268.157 368.895 267.901 379.452 266.804 387.06C264.118 384.073 261.095 381.442 258.121 378.746C255.513 377.318 252.605 376.232 249.882 375.026C250.734 373.285 251.546 371.525 252.315 369.745C257.23 358.337 262.296 343.219 257.229 331.014C255.009 325.669 251.088 321.431 245.583 319.391C238.576 316.792 229.72 317.952 222.995 320.884C203.456 329.399 193.777 354.026 186.309 372.491C185.15 363.531 183.087 354.547 181.398 345.664C184.288 340.231 187.133 334.705 190.419 329.5C198.62 316.512 209.367 309.018 224.243 305.597Z" fill="#FEFEFE"/>
<path d="M231.241 332.794C233.66 332.732 236.345 332.532 238.735 332.893C240.906 333.22 242.651 334.481 243.911 336.26C251.957 347.627 231.825 373.369 229.502 384.93C231.605 389.939 247.291 388.409 252.299 391.576C258.927 395.766 260.253 405.438 261.702 412.507L238.143 424.821C239.335 421.837 240.457 418.828 241.507 415.791C242.477 412.929 243.307 410.211 241.9 407.371L240.037 407.251C233.417 412.11 228.901 422.293 224.885 429.352L214.547 423.257L197.567 412.877C204.472 400.712 215.326 389.481 220.698 376.711C221.731 374.253 222.558 372.288 221.494 369.783C220.879 369.696 220.471 369.59 219.869 369.649C210.914 370.534 196.824 390.336 191.019 397.078C192.846 388.877 195.312 381.085 198.485 373.303C205.091 357.1 214.439 339.906 231.241 332.794Z" fill="#FEFEFE"/>
<path d="M338.818 262.88C340.204 262.76 341.559 262.66 342.951 262.765C346.273 263.017 348.833 264.45 350.861 267.105C357.766 276.136 355.448 292.381 353.931 302.974L337.425 303.347L319.359 303.258C319.195 295.42 319.257 287.343 321.964 279.881C325.098 271.237 330.762 266.74 338.818 262.88Z" fill="#FEFEFE"/>
<path d="M293.533 752.769C299.751 752.784 305.968 752.855 312.185 752.983C312.638 762.229 310.42 801.825 314.321 806.788C316.903 806.913 318.834 806.829 320.98 808.389C322.038 810.659 322.11 812.325 321.893 814.778C321.375 820.631 318.062 817.334 314.473 820.308C311.913 825.769 312.564 831.381 312.58 837.279C307.357 837.509 302.005 838.509 297.441 835.734C295.487 832.417 295.916 828.873 295.956 825.144C296.117 823.085 296.165 822.157 295.218 820.236C289.341 817.061 266.075 820.336 257.533 819.149C256.223 818.068 255.677 817.819 255.399 816.039C253.689 805.124 285.443 762.94 293.533 752.769Z" fill="black"/>
<path d="M294.679 774.587C297.823 778.199 296.072 800.545 296.051 806.367L274.683 806.418L274.138 805.868C273.882 802.091 291.396 779.226 294.679 774.587Z" fill="#FEFEFE"/>
<path d="M140.166 744.591C143.164 744.603 146.302 744.137 148.785 746.048C148.809 747.144 148.813 748.277 148.976 749.362C150.058 756.519 159.205 757.915 164.476 761.684C167.212 763.64 169.748 766.322 170.06 769.834C170.326 772.816 169.385 775.495 167.606 777.822C158.522 780.985 154.813 769.988 147.686 767.65C144.025 766.45 140.049 767.357 136.839 769.304C134.041 771.003 131.969 772.763 131.253 775.962C134.258 786.189 156.678 789.012 165.048 795.147C169.599 798.482 172.91 803.247 173.603 808.953C174.49 816.266 170.146 827.387 163.921 831.5C159.773 834.239 152.731 834.948 149.75 839.106C148.17 841.309 148.795 842.506 149.138 845.083C146.926 847.076 144.454 847.306 141.64 847.822C139.387 845.098 139.848 840.776 137.815 838.628C133.801 834.385 125.551 834.375 120.375 828.302C117.471 824.896 114.668 820.864 115.073 816.228C116.507 813.836 117.221 812.638 120.103 811.788C130.907 808.604 129.987 819.216 136.715 822.101C141.111 823.984 146.324 824.03 150.704 822.087C153.271 820.949 155.501 818.969 156.48 816.286C157.369 813.849 157.309 810.828 155.967 808.567C152.175 802.176 140.156 800.528 133.505 798.629C126.895 796.741 121.1 792.794 117.786 786.647C117.447 786.028 117.141 785.392 116.868 784.742C116.595 784.091 116.357 783.428 116.153 782.753C115.949 782.078 115.78 781.393 115.646 780.7C115.512 780.008 115.414 779.31 115.353 778.607C115.29 777.905 115.265 777.2 115.277 776.494C115.288 775.788 115.335 775.085 115.418 774.385C115.502 773.684 115.622 772.99 115.777 772.301C115.932 771.613 116.123 770.934 116.349 770.266C120.177 758.659 127.427 759.94 136.181 754.836C139.759 752.749 139.12 748.376 140.166 744.591Z" fill="black"/>
<path d="M208.423 751.799C210.91 751.601 213.401 751.463 215.895 751.385C223.146 751.211 230.744 753.161 236.037 758.346C240.936 763.143 244.253 770.265 244.185 777.167C243.999 795.662 223.985 810.418 211.972 822.434C222.712 822.508 233.449 822.738 244.182 823.124C244.321 827.864 244.227 832.634 244.242 837.377L202.337 837.363C199.58 837.46 195.747 837.913 193.114 837.16C190.55 836.427 189.353 834.227 188.204 832.025C186.458 819.162 220.894 799.383 227.183 781.587C228.241 778.588 228.959 774.866 227.31 771.943C225.275 768.334 221.176 766.838 217.352 765.957C203.388 762.743 207.868 774.107 199.966 778.328C197.276 779.765 193.297 780.504 190.359 779.456C188.076 778.642 186.458 777.188 185.707 774.858C184.899 772.346 186.109 768.85 187.237 766.626C191.425 758.374 200.089 754.451 208.423 751.799Z" fill="black"/>
<path d="M184.338 135.926C184.755 135.855 185.175 135.794 185.596 135.743C186.016 135.694 186.438 135.654 186.86 135.623C187.283 135.593 187.706 135.574 188.129 135.565C188.553 135.555 188.978 135.557 189.402 135.568C189.825 135.58 190.247 135.602 190.669 135.635C191.093 135.667 191.514 135.71 191.934 135.763C192.355 135.816 192.774 135.879 193.192 135.952C193.608 136.025 194.023 136.109 194.437 136.203C194.85 136.297 195.261 136.401 195.669 136.516C196.077 136.629 196.482 136.752 196.885 136.886C197.286 137.02 197.685 137.164 198.08 137.317C198.475 137.47 198.866 137.633 199.253 137.806C199.641 137.979 200.023 138.16 200.401 138.351C200.779 138.543 201.152 138.743 201.522 138.954C201.89 139.163 202.252 139.381 202.61 139.608C202.968 139.836 203.32 140.071 203.665 140.315C204.012 140.56 204.352 140.813 204.685 141.075C205.019 141.336 205.346 141.605 205.666 141.882C205.987 142.159 206.3 142.443 206.607 142.736C206.913 143.028 207.212 143.328 207.504 143.636C207.796 143.943 208.081 144.258 208.357 144.578C208.633 144.9 208.901 145.227 209.162 145.561C209.423 145.895 209.675 146.236 209.919 146.582C210.162 146.929 210.397 147.281 210.623 147.64C210.85 147.998 211.068 148.362 211.276 148.731C211.485 149.099 211.685 149.472 211.875 149.851C212.066 150.23 212.247 150.613 212.419 151.001C212.591 151.387 212.752 151.778 212.905 152.174C213.057 152.569 213.199 152.968 213.332 153.371C213.465 153.773 213.588 154.179 213.701 154.587C213.815 154.995 213.918 155.405 214.01 155.819C214.103 156.232 214.186 156.648 214.258 157.065C214.33 157.483 214.393 157.902 214.444 158.322C214.497 158.743 214.539 159.164 214.571 159.586C214.602 160.009 214.623 160.432 214.634 160.855C214.645 161.28 214.645 161.703 214.634 162.126C214.624 162.551 214.604 162.974 214.572 163.396C214.542 163.819 214.501 164.24 214.449 164.66C214.397 165.081 214.335 165.5 214.263 165.918C214.192 166.335 214.11 166.75 214.017 167.165C213.925 167.578 213.823 167.989 213.709 168.397C213.597 168.806 213.475 169.211 213.343 169.613C213.211 170.015 213.068 170.414 212.916 170.811C212.764 171.206 212.602 171.597 212.432 171.984C212.26 172.372 212.08 172.755 211.89 173.134C211.701 173.513 211.502 173.887 211.294 174.256C211.085 174.625 210.868 174.989 210.641 175.347C210.416 175.705 210.181 176.058 209.939 176.406C209.695 176.752 209.443 177.093 209.183 177.427C208.924 177.762 208.656 178.09 208.38 178.412C208.103 178.733 207.819 179.048 207.528 179.356C207.237 179.663 206.938 179.963 206.631 180.256C206.326 180.548 206.013 180.834 205.692 181.112C205.373 181.39 205.046 181.659 204.713 181.92C204.379 182.181 204.04 182.434 203.694 182.679C203.348 182.924 202.996 183.161 202.639 183.389C202.281 183.616 201.919 183.835 201.551 184.046C201.183 184.255 200.81 184.456 200.432 184.648C200.054 184.84 199.672 185.023 199.286 185.195C198.898 185.368 198.507 185.532 198.112 185.686C197.718 185.839 197.32 185.983 196.917 186.118C196.516 186.252 196.111 186.376 195.703 186.491C195.295 186.605 194.884 186.71 194.471 186.805C194.059 186.899 193.644 186.983 193.226 187.057C192.807 187.132 192.386 187.196 191.963 187.25C191.541 187.304 191.118 187.347 190.694 187.379C190.27 187.412 189.844 187.434 189.418 187.447C188.993 187.459 188.567 187.46 188.142 187.451C187.716 187.442 187.291 187.423 186.866 187.392C186.441 187.363 186.018 187.323 185.596 187.273C185.172 187.222 184.751 187.16 184.331 187.088C183.912 187.017 183.495 186.935 183.078 186.843C182.662 186.752 182.25 186.65 181.839 186.538C181.429 186.425 181.022 186.303 180.617 186.17C180.212 186.037 179.811 185.895 179.413 185.743C179.015 185.59 178.622 185.428 178.232 185.257C177.843 185.086 177.457 184.906 177.076 184.715C176.696 184.525 176.321 184.325 175.95 184.116C175.578 183.907 175.213 183.689 174.853 183.461C174.493 183.235 174.138 182.999 173.79 182.756C173.441 182.511 173.099 182.257 172.762 181.996C172.426 181.735 172.097 181.466 171.774 181.188C171.451 180.911 171.136 180.626 170.827 180.334C170.517 180.04 170.216 179.739 169.922 179.432C169.628 179.124 169.342 178.81 169.062 178.488C168.784 178.166 168.514 177.838 168.251 177.502C167.989 177.166 167.735 176.825 167.49 176.477C167.244 176.13 167.007 175.776 166.78 175.417C166.551 175.057 166.331 174.692 166.121 174.322C165.911 173.953 165.711 173.578 165.518 173.197C165.326 172.817 165.144 172.433 164.971 172.044C164.798 171.656 164.635 171.263 164.482 170.866C164.328 170.468 164.184 170.068 164.052 169.663C163.918 169.259 163.794 168.852 163.679 168.442C163.566 168.032 163.462 167.619 163.368 167.203C163.276 166.789 163.192 166.372 163.119 165.952C163.046 165.532 162.983 165.111 162.931 164.689C162.879 164.267 162.838 163.844 162.807 163.418C162.775 162.994 162.754 162.569 162.743 162.144C162.733 161.719 162.733 161.293 162.743 160.867C162.754 160.441 162.775 160.017 162.807 159.593C162.838 159.167 162.88 158.744 162.933 158.322C162.985 157.9 163.047 157.479 163.121 157.059C163.193 156.639 163.276 156.222 163.37 155.807C163.464 155.392 163.568 154.979 163.681 154.569C163.794 154.159 163.918 153.752 164.053 153.348C164.187 152.943 164.331 152.542 164.484 152.145C164.637 151.749 164.8 151.356 164.973 150.967C165.147 150.578 165.329 150.194 165.52 149.814C165.712 149.434 165.913 149.059 166.124 148.689C166.334 148.318 166.553 147.954 166.781 147.594C167.01 147.235 167.247 146.881 167.494 146.534C167.739 146.186 167.992 145.845 168.255 145.509C168.518 145.174 168.789 144.846 169.067 144.525C169.346 144.203 169.632 143.888 169.925 143.579C170.22 143.272 170.522 142.972 170.83 142.679C171.139 142.387 171.455 142.102 171.777 141.824C172.101 141.547 172.431 141.278 172.767 141.016C173.103 140.755 173.446 140.502 173.795 140.257C174.143 140.013 174.497 139.778 174.857 139.551C175.217 139.324 175.583 139.106 175.954 138.897C176.326 138.689 176.701 138.489 177.081 138.298C177.462 138.108 177.848 137.927 178.237 137.756C178.627 137.584 179.021 137.422 179.419 137.27C179.816 137.119 180.217 136.977 180.622 136.844C181.027 136.711 181.434 136.589 181.844 136.477C182.256 136.364 182.669 136.262 183.084 136.171C183.5 136.079 183.918 135.997 184.338 135.926Z" fill="black"/>
<path d="M185.814 144.586C188.239 144.538 190.651 144.504 193.012 145.151C197.307 146.333 200.757 149.498 202.7 153.473C202.953 154.004 203.18 154.546 203.38 155.098C203.579 155.652 203.751 156.214 203.896 156.784C204.04 157.354 204.155 157.929 204.243 158.511C204.329 159.093 204.387 159.677 204.416 160.265C204.444 160.852 204.443 161.439 204.414 162.028C204.385 162.615 204.327 163.199 204.239 163.781C204.152 164.362 204.036 164.938 203.891 165.508C203.747 166.078 203.574 166.64 203.373 167.192C201.364 172.867 197.896 175.681 192.72 178.172C189.822 178.221 186.133 178.558 183.387 177.589C179.294 176.147 175.842 172.137 174.241 168.211C174.02 167.669 173.826 167.117 173.66 166.556C173.494 165.994 173.355 165.425 173.245 164.85C173.136 164.275 173.056 163.696 173.004 163.112C172.952 162.53 172.93 161.945 172.936 161.359C172.943 160.774 172.979 160.191 173.045 159.609C173.109 159.026 173.203 158.449 173.326 157.877C173.448 157.303 173.599 156.738 173.778 156.182C173.957 155.623 174.164 155.076 174.398 154.54C176.877 148.915 180.338 146.628 185.814 144.586Z" fill="#FEFEFE"/>
<path d="M240.001 513.418L243.695 515.246C244.697 517.095 245.053 517.428 244.462 519.578C241.762 529.394 146.141 605.778 131.656 614.221C130.474 614.111 129.579 613.982 128.47 613.528C126.347 612.661 126.168 612.701 125.243 610.582C131.737 599.964 228.158 519.489 240.001 513.418Z" fill="black"/>
<path d="M225.268 136.617C229.523 136.457 233.78 136.345 238.038 136.279C244.746 136.201 253.017 136.779 257.91 142.013C261.141 145.468 262.032 150.699 261.569 155.286C260.932 161.584 257.307 164.598 252.742 168.353C255.531 172.816 261.324 179.83 261.088 184.986C258.423 187.23 256.253 186.612 252.871 186.686C248.511 180.872 245.91 172.424 239.636 168.354C234.973 168.947 236.091 182.77 230.955 186.746C228.442 186.524 227.707 186.746 225.752 185.056C223.864 169.491 225.101 152.359 225.268 136.617Z" fill="black"/>
<path d="M235.195 145.498C238.731 145.422 242.618 145.152 246.089 145.919C248.048 146.353 249.988 147.402 250.978 149.16C252.784 152.368 251.218 156.353 250.179 159.579C245.338 160.694 240.167 160.424 235.218 160.445L235.195 145.498Z" fill="#FEFEFE"/>
<path d="M352.389 136.348C354.599 136.284 357.06 136.054 359.247 136.327C361.312 136.585 362.571 137.02 363.732 138.817C367.234 144.236 380.335 180.608 379.396 185.159C377.079 186.356 375.646 186.571 373.054 186.365C370.43 184.332 370.323 182.692 369.041 179.852C367.805 177.116 367.854 176.532 364.995 175.483L348.902 175.648C347.903 179.104 346.88 182.2 345.222 185.412C344.508 185.779 343.877 186.144 343.051 186.184C340.221 186.325 338.408 185.946 336.161 184.348C338.392 170.464 347.246 150.134 352.389 136.348Z" fill="black"/>
<path d="M357.779 148.142C359.979 153.381 363.617 160.233 363.156 166.027L360.839 167.39C357.795 167.091 355.512 167.486 353.314 165.193C352.363 159.993 356.063 153.12 357.779 148.142Z" fill="#FEFEFE"/>
<path d="M273.079 136.134C282.879 135.99 296.01 134.412 305.397 137.172C306.597 138.945 306.257 140.713 306.145 142.741C301.504 149.054 292.593 142.843 286.248 145.719C284.417 146.548 283.253 147.853 282.853 149.894C282.325 152.587 282.809 153.964 284.367 156.045C288.22 157.4 291.943 156.56 295.931 156.356C298.913 156.202 300.537 156.415 302.766 158.421C303.165 161.404 303.21 161.727 301.822 164.374C296.964 167.336 288.526 166.024 282.875 165.866C282.794 169.675 283.102 173.463 283.361 177.262C291.663 177.124 298.601 176.714 306.446 180.009L306.913 182.784C300.186 188.766 281.718 186.302 273.21 186.048C272.858 169.411 272.814 152.773 273.079 136.134Z" fill="black"/>
<path d="M89.3105 135.579C95.7185 136.007 100.257 137.817 105.41 141.603C107.506 143.145 108.871 144.628 109.291 147.233C108.343 149.617 108.269 149.936 106.065 151.491C101.527 151.452 98.0078 147.566 94.1254 145.505C91.9981 144.377 89.1276 144.03 86.9209 145.172C84.4843 146.433 83.7752 147.976 82.8653 150.343C85.3424 157.28 97.9932 158.616 104.089 162.105C106.862 163.693 109.605 166.039 110.317 169.298C111.154 173.12 109.043 177.519 106.868 180.598C102.931 186.176 98.0223 186.895 91.7601 188.068C86.7833 187.295 81.4779 186.707 77.3446 183.569C74.241 181.214 72.1071 177.305 71.6846 173.467C75.3192 169.831 90.0472 180.652 97.3391 177.835C99.0779 175.788 99.379 174.723 99.5555 172.061C95.8869 165.103 85.5205 164.956 79.0364 161.392C76.221 159.846 73.5836 157.686 72.724 154.453C71.7429 150.757 73.1821 146.03 75.0877 142.795C78.0229 137.815 84.1297 136.709 89.3105 135.579Z" fill="black"/>
<path d="M266.365 554.969C266.645 555.056 266.936 555.114 267.205 555.233C269.632 556.314 269.805 557.392 270.498 559.733C267.521 571.084 207.73 613.769 195.22 622.144C193.594 622.282 192.463 621.66 190.968 621.085C190.52 619.694 190.45 620.145 190.763 618.83C193.045 609.213 254.553 562.319 266.365 554.969Z" fill="black"/>
<path d="M117.504 137.277C127.658 137.148 144.328 135.194 153.748 137.844C156.355 138.576 157.097 139.099 158.482 141.338C158.162 142.711 157.584 143.396 156.546 144.304C152.457 147.877 147.353 146.886 142.289 146.7L142.325 172.202C142.461 175.249 142.802 178.518 142.584 181.552C142.388 184.243 141.727 185.041 139.815 186.851C136.898 187.186 136.548 187.278 134.002 185.878C129.82 179.438 132.093 155.211 131.997 146.826C127.866 146.943 122.301 147.765 118.673 145.743C117.067 142.685 117.435 140.666 117.504 137.277Z" fill="black"/>
<path d="M957.405 543.369C968.239 544.56 1006.7 543.955 1013.07 549.96C1014.59 551.394 1014.42 552.021 1014.5 553.973C1013.13 556.61 1011.93 557.92 1009.46 559.565C991.601 559.379 971.599 559.295 954.081 556.049C953.207 555.42 952.595 554.87 952.135 553.871C951.203 551.844 951.016 549.663 951.918 547.58C953.147 544.741 954.722 544.478 957.405 543.369Z" fill="#FBA241"/>
<path d="M446.83 489.904C447.729 489.883 447.541 489.867 448.631 489.964C455.97 490.615 493.376 504.771 497.785 509.985C498.942 513.404 498.054 515.711 497.111 519.036C494.557 519.307 492.165 519.346 489.636 518.816C482.629 517.346 448.297 504.501 445.041 499.184C444.335 495.637 445.546 493.119 446.83 489.904Z" fill="#FBA241"/>
<path d="M949.026 627.601C952.258 628.226 955.465 629.689 958.361 631.234C964.933 634.739 992.161 649.038 994.959 653.406C995.378 654.061 995.609 655.543 995.851 656.334C995.376 659.521 993.987 661.329 992.171 663.874C990.914 663.439 989.674 662.917 988.452 662.393C980.393 658.941 948.537 642.439 945.929 635.901C945.838 632.517 947.37 630.406 949.026 627.601Z" fill="#FBA241"/>
<path d="M519.892 207.264C522.068 207.581 524.011 207.436 525.704 208.911C531.923 214.329 550.242 243.099 550.216 250.83C550.206 253.893 548.257 255.303 546.35 257.398C545.362 257.186 544.402 256.899 543.484 256.469C538.205 253.988 519.05 221.948 516.351 214.94C516.27 211.563 517.959 209.825 519.892 207.264Z" fill="#FBA241"/>
<path d="M972.04 311.133C974.476 311.099 975.702 311.598 977.828 312.754C978.733 314.125 979.301 314.313 979.044 316.034C977.941 323.418 947.015 341.864 939.362 347.08C936.372 346.661 934.638 345.592 932.332 343.698C932.052 342.723 931.486 341.677 931.78 340.687C934.674 330.974 962.854 316.29 972.04 311.133Z" fill="#FBA241"/>
<path d="M692.466 227.065C695.243 227.198 697.356 227.601 699.943 228.623C702.344 231.251 702.818 232.274 703.145 235.918C703.769 242.868 705.927 265.457 704.222 271.086C703.725 272.726 702.36 274.214 701.256 275.488C699.154 275.119 696.346 274.8 694.657 273.406C690.465 269.944 689.814 260.475 689.473 255.503C688.927 247.559 687.161 233.184 692.466 227.065Z" fill="#FBA241"/>
<path d="M483.554 579.927C486.565 579.606 487.577 580.131 489.871 581.866C490.956 584.492 491.228 585.723 490.605 588.517C486.489 593.523 462.369 596.38 455.231 597.978C453.705 597.888 451.997 597.881 450.514 597.511C447.993 596.881 447.295 594.846 446.116 592.812C446.124 591.277 445.846 590.385 446.714 589.05C450.956 582.525 475.741 581.06 483.554 579.927Z" fill="#FBA241"/>
</g>
<defs>
<clipPath id="clip0_114_867">
<rect width="1024" height="1024" fill="white"/>
</clipPath>
</defs>
</svg>
