<svg width="1024" height="1024" viewBox="0 0 1024 1024" fill="none" xmlns="http://www.w3.org/2000/svg">
<g clip-path="url(#clip0_112_211)">
<path d="M0 0H1024V1024H0V0Z" fill="#FEFEFE"/>
<path d="M648.136 927.442C648.079 927.612 648.039 927.788 647.965 927.951C647.024 930.014 644.424 931.996 642.916 933.732C640.764 936.209 638.917 938.878 636.644 941.268C629.439 948.843 619.467 955.052 610.09 959.527C593.06 967.656 575.109 969.174 556.49 967.901C547.548 967.29 538.839 965.808 529.991 964.475C523.27 963.463 516.434 962.655 509.783 961.245C499.872 959.144 490.137 956.336 480.193 954.308L353.713 928.211C338.182 924.95 322.47 922.642 306.965 919.226C287.564 914.953 268.369 909.556 248.896 905.641C243.027 904.461 236.978 904.351 231.087 903.225C219.467 901.004 208.231 897.273 196.74 894.502C179.767 890.41 162.409 887.397 145.909 881.586C122.771 873.437 111.919 862.193 101.502 839.98C98.4802 833.535 97.1784 826.976 95.2446 820.188C93.8472 815.283 92.1389 810.379 91.0303 805.403C87.6187 790.089 90.468 775.289 95.7665 760.798C98.8247 752.434 103.068 744.773 106.722 736.685C110.529 728.257 113.953 719.65 117.916 711.292C119.979 706.941 122.415 702.781 124.549 698.466C130.386 686.63 136.075 674.724 141.616 662.747C178.937 581.658 217.57 501.199 257.517 421.372L356.139 223.55L389.058 158.265C398.982 138.159 409.221 118.566 420.474 99.1672C422.971 94.8611 424.98 90.1936 427.706 86.0341C432.554 78.6392 443.67 68.5209 451.743 64.8533C466.286 58.246 483.187 55.3955 499.105 55.4651C516.449 55.5411 533.745 58.9863 551.003 60.2715C565.305 61.3366 579.729 61.8652 593.994 63.268C606.083 64.4568 618.088 66.5071 630.185 67.6268C651.702 69.6182 673.323 71.0756 694.78 73.7078C711.242 75.7274 727.928 77.7317 744.312 80.2593C755.379 81.9667 766.336 84.2866 777.44 85.772C785.263 86.8185 793.142 87.2246 800.97 88.2032C816.661 90.1647 832.2 92.6694 847.809 95.1432C857.817 96.7292 868.575 97.6129 878.068 101.323C894.512 107.75 910.711 135.665 917.537 151.209C923.047 163.754 924.29 178.461 921.62 191.837C920.545 197.221 918.723 202.472 917.197 207.741C915.227 214.538 913.477 221.414 911.578 228.234C908.572 239.033 906.439 250.069 902.703 260.676C900.507 266.912 897.198 272.692 895.111 279C872.23 348.16 845.831 416.196 820.424 484.456L707.648 788.654C700.308 808.419 693.733 828.478 686.509 848.281C682.822 858.389 678.675 868.309 674.798 878.345C672.99 881.575 671.521 883.99 671.371 887.769C671.34 888.565 671.361 888.202 671.208 889.246L671.718 889.909C668.001 897.949 662.19 904.869 658.305 912.766C656.058 915.245 652.814 914.417 650.618 916.984L650.75 917.467C651.097 918.765 651.302 919.811 651.255 921.174L650.5 922.186C651.76 922.627 653.018 923.113 654.299 923.485C652.553 924.982 650.54 927.367 648.136 927.442Z" fill="black"/>
<path d="M650.5 922.186C651.76 922.627 653.018 923.113 654.299 923.485C652.553 924.982 650.54 927.367 648.136 927.442C648.357 925.315 649.212 923.852 650.5 922.186Z" fill="black"/>
<path d="M491.807 67.6933C494.818 67.2877 498.174 67.4886 501.229 67.4746C522.362 67.3777 542.996 72.0908 563.993 74.1204C611.156 78.6792 658.418 82.1618 705.489 87.7308C722.416 89.7335 739.239 93.0907 756.101 95.5613C768.36 97.3575 780.757 98.4216 793.049 100.028C806.408 101.774 819.689 103.942 833.014 105.906C844.345 107.575 861.355 109.167 871.724 113.757C877.944 116.51 884.517 122.766 888.507 128.198C896.137 138.583 895.156 153.518 893.184 165.515C891.863 173.557 887.843 181.318 884.99 188.92C881.753 197.548 878.871 206.497 876.065 215.28L867.995 240.532C866.747 244.539 865.851 248.68 864.47 252.64C862.08 259.489 858.826 266.093 856.302 272.924L818.512 373.073L767.912 509.829C759.771 531.833 753.267 554.392 745.141 576.582L677.855 755.021C674.244 764.783 670.385 774.521 667.035 784.371C664.56 791.647 662.54 799.167 659.797 806.337C655.004 818.866 649.272 831.127 644.309 843.601C640.82 852.371 638.642 861.535 634.522 870.1C627.035 885.663 612.886 900.658 598.922 910.528C575.093 927.371 555.695 926.388 528.315 920.878C524.281 920.066 520.423 918.618 516.376 917.936L515.814 917.846C495.387 915.005 475.126 909.955 454.985 905.589L367.201 887.204L236.748 859.44C223.525 856.58 210.114 854.414 196.882 851.523C179.268 847.675 161.135 842.848 143.938 837.455C135.575 834.833 126.838 830.824 119.824 825.517C111.864 819.495 105.216 809.768 103.909 799.74C102.322 787.557 103.396 776.513 107.669 765.031C110.702 756.881 114.648 749.17 118.204 741.251C122.341 732.04 125.774 722.414 130.211 713.353C132.67 708.331 135.567 703.517 138.116 698.537C144.637 685.638 150.941 672.635 157.029 659.526C182.297 603.401 208.544 547.737 235.771 492.535C240.567 482.744 245.379 472.779 250.392 463.105C252.572 458.901 255.077 454.872 257.17 450.624L332.168 298.576L402.307 159.824C405.838 152.89 408.57 145.531 412.26 138.67C415.982 131.747 420.816 125.411 424.567 118.507C428.633 111.024 431.873 102.84 437.087 96.0476C452.58 75.8653 467.744 70.7857 491.807 67.6933Z" fill="#FEFEFE"/>
<path d="M502.264 81.6956C511.141 80.2165 521.442 84.3005 530.36 84.9205C550.456 86.3175 570.445 88.6113 590.518 90.1692C606.592 91.4167 622.694 91.9418 638.761 93.553C646.523 94.3314 654.151 96.0375 661.916 96.8247C677.547 98.4091 693.455 99.0506 709.017 101.022C722.671 102.752 736.105 105.873 749.693 107.763L786.601 112.573C792.967 113.339 799.449 113.824 805.773 114.846C812.286 115.9 818.638 118.013 825.174 119.153C833.071 120.531 841.186 121.258 848.991 123.063C849.593 123.208 850.191 123.367 850.786 123.542C851.38 123.717 851.969 123.907 852.554 124.112C853.139 124.316 853.718 124.535 854.291 124.769C854.864 125.003 855.432 125.251 855.993 125.513C856.554 125.775 857.108 126.051 857.655 126.342C858.202 126.632 858.742 126.936 859.274 127.253C859.805 127.57 860.329 127.901 860.844 128.245C861.359 128.588 861.866 128.945 862.363 129.314C862.86 129.683 863.348 130.065 863.826 130.459C864.304 130.852 864.772 131.258 865.229 131.675C865.687 132.092 866.134 132.521 866.57 132.961C867.006 133.401 867.431 133.852 867.844 134.313C868.257 134.774 868.659 135.246 869.048 135.727C869.438 136.208 869.815 136.699 870.18 137.2C870.545 137.701 870.897 138.21 871.236 138.728C871.575 139.246 871.901 139.772 872.214 140.307C876.794 147.995 877.04 157.365 875.718 165.96C873.575 179.889 867.268 191.967 863.407 205.357C856.629 228.87 848.859 251.877 840.308 274.796C837.904 281.238 834.99 287.48 832.571 293.918L801.031 376.984C796.74 387.964 794 399.65 789.78 410.622L767.918 468.193C764.329 477.743 760.124 486.466 757.728 496.425C756.445 501.757 753.735 506.848 751.731 511.946L737.469 548.268C734.353 556.057 732.058 564.076 729.172 571.939C724.058 585.87 718.42 599.612 713.184 613.498L655.441 766.138C650.113 780.61 644.627 795.021 638.982 809.372C635.564 817.897 631.795 826.278 628.335 834.786C624.444 844.355 621.166 855.073 616.286 864.129C608.897 877.838 596.469 891.387 583.165 899.445C576.586 903.429 569.427 906.648 561.792 907.902C547.963 910.173 518.547 903.969 504.631 900.605C465.599 893.36 426.897 885.121 388.075 876.833C382.202 875.579 376.197 875.018 370.319 873.779C364.269 872.503 358.368 870.557 352.335 869.19C346.513 867.87 340.666 866.398 334.793 865.335C330.801 864.612 326.746 864.353 322.773 863.498C312.933 861.379 303.225 858.625 293.365 856.545L205.161 838.54C196.651 836.719 187.797 835.862 179.397 833.638C167.3 830.434 145.806 824.526 136.219 816.989C127.227 809.919 123.437 800.43 122.398 789.196C121.345 777.81 127.04 764.25 131.18 753.784C134.608 745.116 139.158 736.929 142.974 728.433L182.913 641.81C189.89 626.637 196.289 611.223 203.188 596.021C206.136 589.524 209.558 583.256 212.575 576.787C221.293 558.094 229.762 539.302 238.681 520.697L301.591 391.519C311.976 370.558 323.02 349.886 333.31 328.88C342.895 309.312 351.801 289.405 361.425 269.851C375.282 241.695 389.916 213.88 404.126 185.91C417.636 159.319 432.494 125.523 451.239 102.427C465.496 84.8625 481.372 83.7913 502.264 81.6956Z" fill="black"/>
<path d="M429.764 150.905C438.825 153.484 447.676 153.448 456.836 155.007C500.919 162.508 545.688 165.978 590.033 171.704L754.083 193.228C762.548 194.336 770.959 195.958 779.422 197.131C784.786 197.875 790.195 198.124 795.563 198.794C806.751 200.19 817.869 201.816 829.085 203.049C837.649 203.991 846.231 205.22 854.835 205.692C853.41 210.609 852.276 215.71 850.43 220.484C847.947 226.901 844.665 232.933 842.397 239.456C838.389 250.984 834.767 262.673 830.569 274.134C826.093 286.358 820.83 298.37 816.269 310.586C814.238 316.024 812.666 321.623 810.573 327.039C803.072 346.453 794.92 365.694 787.667 385.202C785.074 392.175 783.624 399.556 781.133 406.564C775.914 421.245 769.278 435.418 763.794 449.988L727.229 548.59C725.22 553.927 724.097 559.554 722.104 564.895C712.461 590.746 701.982 616.239 692.233 642.048C687.603 654.303 682.853 666.6 678.421 678.919C676.607 683.962 675.194 689.131 673.238 694.128L628.209 812.164C623.486 824.554 615.651 836.676 613.805 850.009L315.56 792.686L182.223 766.6C174.004 765.009 148.889 758.959 142.262 759.444C140.765 759.553 138.973 759.981 138.078 761.312C137.172 762.66 137.529 764.282 137.954 765.713C139.231 767.355 140.509 767.941 142.457 768.628C150.446 771.446 159.141 772.208 167.408 773.84C183.813 777.078 200.019 780.699 216.616 782.957C222.399 784.019 228.029 785.842 233.805 786.972L316.397 803.175L506.94 839.328C516.028 841 524.956 843.259 534.01 845.01C539.706 846.113 545.473 846.819 551.146 848.051C557.913 849.521 564.542 851.661 571.316 853.068C575.55 853.948 579.943 854.099 584.224 854.701C592.971 855.932 601.382 857.588 610.241 858.131C600.147 872.372 593.488 883.668 577.897 892.976C569.412 898.04 561.225 900.826 551.282 900.18C544.942 899.768 538.185 898.67 532.024 897.111C527.946 896.078 523.904 894.692 519.759 893.964C514.276 893.003 508.671 892.803 503.206 891.728C474.944 886.172 446.94 879.234 418.712 873.62L241.415 836.859C235.547 835.596 229.6 834.738 223.721 833.536C217.883 832.342 212.113 830.84 206.252 829.75C197.406 828.105 188.44 826.845 179.716 824.626C165.446 820.996 143.424 816.666 135.609 802.878C130.281 793.479 130.556 780.981 133.256 770.849C136.04 760.398 143.915 747.137 148.714 736.73C157.828 716.963 166.651 697.145 176.136 677.551C183.75 661.822 192.185 646.388 199.637 630.588C203.091 623.265 205.71 615.427 208.914 607.969C212.52 599.576 216.996 591.682 220.788 583.391C223.806 576.793 226.087 569.909 229.191 563.347C233.23 554.81 238.118 546.727 242.188 538.239L347.938 321.332C355.365 306.208 361.836 290.661 369.24 275.549C375.724 262.314 383.276 249.611 389.747 236.376C393.237 229.239 396.776 222.026 399.98 214.756C402.264 209.573 404.254 204.174 406.827 199.134C414.79 183.543 425.187 167.852 429.764 150.905Z" fill="#FEFEFE"/>
<path d="M449.592 324.168C452.993 321.377 456.448 318.619 459.722 315.682C462.804 312.917 465.923 309.307 469.459 307.142C470.691 306.388 472.399 305.691 473.877 305.969C475.89 306.348 477.277 307.543 478.34 309.258C479.476 311.092 480.139 313.124 480.737 315.181C472.87 324.936 461.048 330.582 453.26 340.095L453.709 342.951C453.333 349.095 450.421 356.345 448.142 362.019C445.287 369.13 441.536 375.558 438.294 382.454C433.476 392.702 426.913 410.111 420.291 418.454C416.948 422.667 414.174 424.919 408.732 425.527C405.834 425.847 402.935 425.859 400.034 425.565C392.786 424.77 385.397 422.919 378.195 421.681C369.226 420.14 359.537 419.406 350.894 416.551C349.209 415.994 347.664 415.049 346.31 413.908C342.879 411.018 341.102 407.214 340.781 402.761C340.448 398.139 341.874 393.124 343.231 388.746C346.873 377.004 367.354 326.545 374.577 318.432C378.212 314.349 381.716 312.632 387.208 312.384C395.593 312.005 409.05 315.213 418.001 316.368C426.179 317.423 434.709 317.642 442.769 319.34C444.715 319.75 447.433 320.308 448.841 321.82C449.403 322.424 449.082 322.984 448.991 323.734L449.592 324.168Z" fill="black"/>
<path d="M449.592 324.168C452.993 321.377 456.448 318.619 459.722 315.682C462.804 312.917 465.923 309.307 469.459 307.142C470.691 306.388 472.399 305.691 473.877 305.969C475.89 306.348 477.277 307.543 478.34 309.258C479.476 311.092 480.139 313.124 480.737 315.181C472.87 324.936 461.048 330.582 453.26 340.095C447.677 344.067 442.579 348.686 437.635 353.417C435.537 355.933 432.886 357.596 430.524 359.803C428.679 361.391 426.695 362.929 424.961 364.632C421.762 367.583 418.53 370.43 415.143 373.164C413.55 371.066 412.124 372.827 410.314 371.13L410.803 368.582C410.001 369.077 410.212 368.814 409.754 369.571C409.652 369.74 409.562 369.917 409.467 370.091C408.479 370.642 408.054 370.713 406.931 370.595C405.627 368.992 404.368 367.81 402.64 366.666L402.22 366.393L399.597 368.232C399.316 367.432 398.692 366.77 398.183 366.095C398.614 365.643 398.95 365.15 399.314 364.644L398.324 362.292C399.202 361.586 400.194 360.78 400.864 359.867C402.478 357.665 402.897 354.966 402.582 352.323L401.933 352.27C401.513 353.107 401.174 353.638 400.482 354.272C399.741 352.752 400.282 350.949 400.402 349.254L399.738 348.795L398.506 349.745L397.833 349.244L397.913 347.943L398.517 347.614C399.714 347.811 400.79 347.953 402.01 347.949L402.368 347.263C401.703 345.789 400.385 346.057 399.619 344.52L400.208 343.296C401.131 342.783 401.905 342.396 402.953 342.172C404.651 341.81 408.431 342.566 409.803 343.503C409.159 344.343 408.547 344.782 407.716 345.434L407.895 346.13C408.673 346.207 409.159 346.023 409.902 345.814C412.153 343.74 411.09 341.343 411.618 338.709C411.736 338.118 411.857 337.899 411.926 337.214C412.061 335.885 411.685 334.994 410.909 333.982C411.641 333.17 411.348 333.415 412.102 332.832C413.299 331.906 414.244 331.168 415.152 329.95C414.293 328.628 412.543 328.84 411.608 327.503L412.129 327.084L413.754 327.727C415.006 327.462 414.894 327.377 415.606 326.288C422.722 327.831 430.178 328.032 437.187 330.028C441.722 328.448 444.837 325.841 448.991 323.734L449.592 324.168Z" fill="#EE9440"/>
<path d="M449.592 324.168C452.993 321.377 456.448 318.619 459.722 315.682C462.804 312.917 465.923 309.307 469.459 307.142C470.691 306.388 472.399 305.691 473.877 305.969C475.89 306.348 477.277 307.543 478.34 309.258C479.476 311.092 480.139 313.124 480.737 315.181C472.87 324.936 461.048 330.582 453.26 340.095C447.677 344.067 442.579 348.686 437.635 353.417C437.042 353.061 436.527 352.594 435.99 352.159L436.011 351.403L438.098 350.719L438.402 349.724L437.778 349.335L437.393 350.351L436.562 350.316C436.492 349.179 436.422 349.369 435.688 348.61L435.712 348.57C437.654 348.57 438.383 347.826 439.851 346.658L439.351 346.428C440.584 345.43 441.427 345.616 442.984 345.506C439.475 344.957 440.495 343.822 438.211 343.198C437.916 343.909 437.954 344.066 437.305 344.535L436.523 343.396L436.355 343.599C435.504 342.697 435.176 342.567 434.879 341.322C435.162 339.817 436.071 339.015 437.066 337.924L437.535 337.418L437.486 336.422C440.877 331.884 445.489 328.061 449.592 324.168Z" fill="black"/>
<path d="M436.523 343.396C436.592 342.341 436.638 341.298 436.684 340.243C436.722 339.399 436.852 338.855 437.144 338.076L438.783 338.527L437.575 337.402C439.392 338.635 439.849 341.244 441.311 342.982L441.119 341.038C442.168 340.883 442.657 341.077 443.657 341.367C444.272 340.335 444.595 339.359 444.966 338.224L445.789 337.951L446.407 338.453C446.121 340.634 444.926 342.601 443.242 343.985C443.17 344.475 443.138 345.037 442.984 345.506C439.475 344.957 440.495 343.822 438.211 343.198C437.916 343.909 437.954 344.066 437.305 344.535L436.523 343.396Z" fill="black"/>
<path d="M427.429 345.175C430.62 342.059 434.001 339.204 437.486 336.422L437.535 337.418L437.066 337.924C436.071 339.015 435.162 339.817 434.879 341.322C435.176 342.567 435.504 342.697 436.355 343.599L436.523 343.396L437.305 344.535C437.954 344.066 437.916 343.909 438.211 343.198C440.495 343.822 439.475 344.957 442.984 345.506C441.427 345.616 440.584 345.43 439.351 346.428L439.851 346.658C438.383 347.826 437.654 348.57 435.712 348.57L435.688 348.61C436.422 349.369 436.492 349.179 436.562 350.316L437.393 350.351L437.778 349.335L438.402 349.724L438.098 350.719L436.011 351.403L435.99 352.159C436.527 352.594 437.042 353.061 437.635 353.417C435.537 355.933 432.886 357.596 430.524 359.803C428.679 361.391 426.695 362.929 424.961 364.632C421.762 367.583 418.53 370.43 415.143 373.164C413.55 371.066 412.124 372.827 410.314 371.13L410.803 368.582C410.001 369.077 410.212 368.814 409.754 369.571C409.652 369.74 409.562 369.917 409.467 370.091C408.479 370.642 408.054 370.713 406.931 370.595C405.627 368.992 404.368 367.81 402.64 366.666L402.22 366.393C403.593 365.14 404.857 363.861 406.083 362.464C413.796 357.777 420.629 351.067 427.429 345.175Z" fill="black"/>
<path d="M434.509 348.507C435.516 348.493 435.14 348.375 435.688 348.61C436.422 349.369 436.492 349.179 436.562 350.316L437.393 350.351L437.778 349.335L438.402 349.724L438.098 350.719L436.011 351.403L435.99 352.159C436.527 352.594 437.042 353.061 437.635 353.417C435.537 355.933 432.886 357.596 430.524 359.803C428.679 361.391 426.695 362.929 424.961 364.632C421.762 367.583 418.53 370.43 415.143 373.164C413.55 371.066 412.124 372.827 410.314 371.13L410.803 368.582C409.36 368.117 408.513 368.517 407.244 367.484C408.712 366.304 410.026 367.43 411.583 366.012C411.99 366.22 411.85 366.189 412.331 366.257C412.535 366.286 412.739 366.302 412.943 366.327C415.006 366.576 416.912 366.314 418.921 365.782C420.895 365.259 423.486 364.362 424.547 362.465L423.828 362.083C424.23 361.534 424.428 361.112 424.687 360.492C424.115 359.127 423.736 358.89 422.563 357.952C423.645 357.301 424.793 356.802 425.94 356.279L424.08 355.84L423.968 355.066L424.781 354.582C426.029 355.013 427.002 355.186 428.299 355.283L428.841 354.799L428.298 353.404C428.995 353.219 429.58 353.113 430.13 352.612C431.115 351.715 432.019 350.505 433.302 350.037C433.455 349.981 433.619 349.963 433.778 349.925L434.509 348.507Z" fill="black"/>
<path d="M411.583 366.012L411.776 364.941C413.285 363.918 413.535 365.323 414.941 365.174C416.297 365.031 416.115 363.076 417.516 362.45C418.388 363.109 418.886 363.614 420.016 363.616L420.848 362.481C420.032 361.925 420.466 362.251 419.568 361.474C420.306 360.694 420.165 361.028 420.455 360.103C420.518 359.904 420.564 359.699 420.619 359.498L421.068 359.263C421.918 360.322 422.82 361.185 423.828 362.083L424.547 362.465C423.486 364.362 420.895 365.259 418.921 365.782C416.912 366.314 415.006 366.576 412.943 366.327C412.739 366.302 412.535 366.286 412.331 366.257C411.85 366.189 411.99 366.22 411.583 366.012Z" fill="black"/>
<path d="M428.298 353.404L427.291 351.484L427.741 350.955L429.205 351.758L430.3 351.314C430.4 349.904 429.05 349.46 428.149 348.39C430.157 347.999 432.408 348.529 434.509 348.507L433.778 349.925C433.619 349.963 433.455 349.981 433.302 350.037C432.019 350.505 431.115 351.715 430.13 352.612C429.58 353.113 428.995 353.219 428.298 353.404Z" fill="black"/>
<path d="M388.289 322.92C393.577 322.78 399.133 323.864 404.331 324.827C408.137 325.04 411.849 325.669 415.606 326.288C414.894 327.377 415.006 327.462 413.754 327.727L412.129 327.084L411.608 327.503C412.543 328.84 414.293 328.628 415.152 329.95C414.244 331.168 413.299 331.906 412.102 332.832C411.348 333.415 411.641 333.17 410.909 333.982C411.685 334.994 412.061 335.885 411.926 337.214C411.857 337.899 411.736 338.118 411.618 338.709C411.09 341.343 412.153 343.74 409.902 345.814C409.159 346.023 408.673 346.207 407.895 346.13L407.716 345.434C408.547 344.782 409.159 344.343 409.803 343.503C408.431 342.566 404.651 341.81 402.953 342.172C401.905 342.396 401.131 342.783 400.208 343.296L399.619 344.52C400.385 346.057 401.703 345.789 402.368 347.263L402.01 347.949C400.79 347.953 399.714 347.811 398.517 347.614L397.913 347.943L397.833 349.244L398.506 349.745L399.738 348.795L400.402 349.254C400.282 350.949 399.741 352.752 400.482 354.272C401.174 353.638 401.513 353.107 401.933 352.27L402.582 352.323C402.897 354.966 402.478 357.665 400.864 359.867C400.194 360.78 399.202 361.586 398.324 362.292L399.314 364.644C398.95 365.15 398.614 365.643 398.183 366.095C398.692 366.77 399.316 367.432 399.597 368.232C397.939 371.702 396.074 374.451 393.45 377.303L392.488 377.503C390.287 377.522 388.715 377.293 387.002 378.805L386.567 379.948L387.247 380.921L387.073 381.57C385.532 381.864 385.012 381.191 383.693 380.408C383.648 380.283 383.606 380.156 383.557 380.032C382.11 376.376 381.208 372.919 380.633 369.035C379.84 369.139 379.047 369.247 378.253 369.341C376.993 369.489 376.849 369.784 375.841 369.001L375.708 367.418L374.728 368.264C374.11 367.793 373.613 367.323 373.095 366.743C372.244 367.375 372.143 367.197 371.922 368.303L373.277 369.555C373.227 370.417 372.398 370.868 371.765 371.422C370.671 372.38 369.217 373.564 367.761 373.78C367.794 372.442 369.112 371.836 368.781 370.651C367.936 370.391 367.331 370.549 366.452 370.611C364.336 370.762 363.411 370.507 361.535 369.567C361.779 368.437 361.894 367.915 362.757 367.123C364.138 364.251 365.221 361.242 366.364 358.27C368.641 353.02 370.681 347.687 373.216 342.551C374.079 339.528 375.52 336.72 377.204 334.081C378.682 331.041 380.679 327.715 383.064 325.305C384.734 323.618 385.915 322.919 388.289 322.92Z" fill="#EE9440"/>
<path d="M384.755 356.127C387.046 354.912 389.701 353.67 392.353 354.52C393.808 354.986 395.424 356.346 395.9 357.817C396.274 358.969 396.259 360.418 396.335 361.625C396.879 362.738 396.879 363.685 396.957 364.901L398.183 366.095C398.692 366.77 399.316 367.432 399.597 368.232C397.939 371.702 396.074 374.451 393.45 377.303L392.488 377.503C390.287 377.522 388.715 377.293 387.002 378.805L386.567 379.948L387.247 380.921L387.073 381.57C385.532 381.864 385.012 381.191 383.693 380.408C383.648 380.283 383.606 380.156 383.557 380.032C382.11 376.376 381.208 372.919 380.633 369.035L380.348 365.251C380.402 363.937 380.419 362.577 380.65 361.28C381.126 358.613 382.714 357.637 384.755 356.127Z" fill="black"/>
<path d="M396.335 361.625C396.879 362.738 396.879 363.685 396.957 364.901L398.183 366.095C398.692 366.77 399.316 367.432 399.597 368.232C397.939 371.702 396.074 374.451 393.45 377.303L392.488 377.503C392.416 377.328 392.33 377.159 392.272 376.979C391.605 374.912 392.634 373.151 393.467 371.301L393.637 370.962C394.581 369.723 395.047 368.978 395.424 367.469C395.893 365.567 396.072 363.565 396.335 361.625Z" fill="#EE9440"/>
<path d="M388.582 370.221L387.905 368.76C389.037 367.149 390.208 364.996 392.106 364.341C392.536 365.446 392.813 366.517 393.09 367.666L393.946 368.111L395.424 367.469C395.047 368.978 394.581 369.723 393.637 370.962L393.467 371.301C392.129 371.666 390.791 372.022 389.458 371.461C388.632 371.113 388.89 371.181 388.582 370.221Z" fill="black"/>
<path d="M388.582 370.221C389.458 369.728 390.077 368.472 390.68 368.404C391.645 369.291 392.601 370.158 393.637 370.962L393.467 371.301C392.129 371.666 390.791 372.022 389.458 371.461C388.632 371.113 388.89 371.181 388.582 370.221Z" fill="black"/>
<path d="M373.216 342.551C373.319 342.744 373.436 342.929 373.523 343.129C374.089 344.428 374.348 346.288 373.791 347.623L372.093 349.111C372.366 350.308 372.461 350.089 373.423 350.722C375.377 350.09 374.951 348.222 376.8 347.54C377.786 349.859 373.561 353.456 376.04 355.296L377.778 355.31C378.552 356.509 377.589 357.114 378.741 357.938L380.262 357.691C379.964 356.419 379.343 356.158 378.402 355.315C379.61 355.009 380.144 355.009 381.331 355.394C382.541 355.084 382.703 354.888 383.948 355.266L384.755 356.127C382.714 357.637 381.126 358.613 380.65 361.28C380.419 362.577 380.402 363.937 380.348 365.251L380.633 369.035C379.84 369.139 379.047 369.247 378.253 369.341C376.993 369.489 376.849 369.784 375.841 369.001L375.708 367.418L374.728 368.264C374.11 367.793 373.613 367.323 373.095 366.743C372.244 367.375 372.143 367.197 371.922 368.303L373.277 369.555C373.227 370.417 372.398 370.868 371.765 371.422C370.671 372.38 369.217 373.564 367.761 373.78C367.794 372.442 369.112 371.836 368.781 370.651C367.936 370.391 367.331 370.549 366.452 370.611C364.336 370.762 363.411 370.507 361.535 369.567C361.779 368.437 361.894 367.915 362.757 367.123C364.138 364.251 365.221 361.242 366.364 358.27C368.641 353.02 370.681 347.687 373.216 342.551Z" fill="#EE9440"/>
<path d="M369.8 357.087C370.163 359.972 369.728 363.435 369.143 366.285L369.418 366.993L371.035 366.626C371.811 365.244 371.588 364.212 371.205 362.703C371.147 362.472 371.076 362.245 371.011 362.016C372.404 362.893 373.037 364.175 373.815 365.567C374.297 366.427 374.82 366.693 375.571 367.27C375.624 367.311 375.662 367.369 375.708 367.418L374.728 368.264C374.11 367.793 373.613 367.323 373.095 366.743C372.244 367.375 372.143 367.197 371.922 368.303L373.277 369.555C373.227 370.417 372.398 370.868 371.765 371.422C370.671 372.38 369.217 373.564 367.761 373.78C367.794 372.442 369.112 371.836 368.781 370.651C367.936 370.391 367.331 370.549 366.452 370.611C364.336 370.762 363.411 370.507 361.535 369.567C361.779 368.437 361.894 367.915 362.757 367.123C364.138 364.251 365.221 361.242 366.364 358.27C367.518 357.768 368.591 357.408 369.8 357.087Z" fill="#EE9440"/>
<path d="M369.8 357.087C370.163 359.972 369.728 363.435 369.143 366.285L369.418 366.993C368.984 367.073 368.564 367.3 368.158 367.471C368.781 368.02 368.48 367.843 369.295 368.176C369.493 368.257 369.694 368.33 369.893 368.407C368.724 368.368 367.784 368.342 366.671 367.924C365.69 367.556 366.176 367.622 365.212 367.563C364.338 367.51 363.604 367.338 362.757 367.123C364.138 364.251 365.221 361.242 366.364 358.27C367.518 357.768 368.591 357.408 369.8 357.087Z" fill="#EE9440"/>
<path d="M369.8 357.087C369.678 354.987 369.783 353.375 370.368 351.351L371.047 350.768L371.527 351.224C372.167 351.825 371.896 351.598 372.522 352.063L373.706 351.455C374.383 352.59 373.963 353.255 374.071 354.465C374.096 354.74 374.211 354.999 374.281 355.266L373.9 355.538L374.41 356.032L374.623 357.605L373.754 358.093L374.714 358.008L375.21 356.652C376.476 357.013 376.237 357.008 376.921 358.005C376.5 359.113 376.286 358.98 375.294 359.528L374.298 359.403C373.346 358.024 373.106 356.216 371.786 355.263C371.135 356.345 371.079 357.394 371.384 358.61C371.543 359.244 371.859 359.853 372.135 360.438L373.012 360.828L373.876 361.225L374 363.286L374.7 363.801L375.264 363.502L375.259 360.692L375.76 360.5C377.524 361.518 379.277 363.514 380.348 365.251L380.633 369.035C379.84 369.139 379.047 369.247 378.253 369.341C376.993 369.489 376.849 369.784 375.841 369.001L375.708 367.418C375.662 367.369 375.624 367.311 375.571 367.27C374.82 366.693 374.297 366.427 373.815 365.567C373.037 364.175 372.404 362.893 371.011 362.016C371.076 362.245 371.147 362.472 371.205 362.703C371.588 364.212 371.811 365.244 371.035 366.626L369.418 366.993L369.143 366.285C369.728 363.435 370.163 359.972 369.8 357.087Z" fill="#EE9440"/>
<path d="M377.204 334.081L377.979 334.542L379.164 334.078C379.429 333.482 379.712 332.71 380.124 332.184C381.417 330.534 383.511 330.728 385.417 330.52C384.637 331.593 384.571 332.121 383.231 332.463C382.23 332.719 381.723 333.05 380.975 333.779C379.39 337.404 382.263 343.018 379.517 345.77L377.791 346.092C377.682 347.329 378.869 346.917 378.281 349.639L379.021 349.968C381.051 349.06 383.023 348.061 385.213 347.615L385.873 347.918C386.12 349.24 385.852 349.477 387 350.293L387.755 350.302L387.993 351.276L387.482 351.879L385.961 351.855C385.24 351.091 385.089 350.75 384.724 349.8L384.123 350.022C383.676 351.392 383.724 351.799 382.569 352.621L381.866 352.343L382.2 350.382L381.52 349.986C380.417 350.784 380.481 350.828 380.145 352.163C380.519 353.44 380.322 353.63 381.469 354.422L383.488 353.965C383.643 354.375 383.867 354.837 383.948 355.266C382.703 354.888 382.541 355.084 381.331 355.394C380.144 355.009 379.61 355.009 378.402 355.315C379.343 356.158 379.964 356.419 380.262 357.691L378.741 357.938C377.589 357.114 378.552 356.509 377.778 355.31L376.04 355.296C373.561 353.456 377.786 349.859 376.8 347.54C374.951 348.222 375.377 350.09 373.423 350.722C372.461 350.089 372.366 350.308 372.093 349.111L373.791 347.623C374.348 346.288 374.089 344.428 373.523 343.129C373.436 342.929 373.319 342.744 373.216 342.551C374.079 339.528 375.52 336.72 377.204 334.081Z" fill="#EE9440"/>
<path d="M430.524 359.803L431.762 360.042C433.12 359.501 433.696 358.848 434.764 357.953C436.011 356.909 435.985 356.948 437.574 357.073C438.129 357.758 438.67 358.453 439.199 359.158C436.194 365.985 431.811 372.033 428.868 378.939C427.677 381.995 426.151 384.905 424.689 387.838C422.743 392.465 419.754 397.242 418.481 402.052L416.48 406.037L415.465 408.192C413.17 411.026 411.138 414.177 407.224 414.649C405.194 414.894 402.626 414.265 400.569 414.072C395.798 414.003 391.089 412.804 386.462 411.732L386.258 409.797L384.428 409.888C384.461 408.089 384.44 407.122 383.477 405.576L384.425 405.325C386.128 403.211 388.948 402.163 390.974 400.199L390.966 398.418C392.097 397.855 392.455 398.019 393.73 398.171C393.93 397.064 394.278 395.768 394.275 394.65C394.264 391.275 393.761 394.024 392.649 392.811C391.882 391.975 392.638 390.799 390.813 389.244L390.282 389.679C390.317 390.983 390.325 392.287 390.306 393.591L389.87 393.684C388.802 392.729 388.592 392.458 388.433 391.028C388.972 390.228 389.448 389.503 389.867 388.629C389.969 388.416 390.062 388.199 390.159 387.984L389.278 388.105C386.737 386.478 385.177 382.956 383.693 380.408C385.012 381.191 385.532 381.864 387.073 381.57L387.247 380.921L386.567 379.948L387.002 378.805C388.715 377.293 390.287 377.522 392.488 377.503L393.45 377.303C396.074 374.451 397.939 371.702 399.597 368.232L402.22 366.393L402.64 366.666C404.368 367.81 405.627 368.992 406.931 370.595C408.054 370.713 408.479 370.642 409.467 370.091C409.562 369.917 409.652 369.74 409.754 369.571C410.212 368.814 410.001 369.077 410.803 368.582L410.314 371.13C412.124 372.827 413.55 371.066 415.143 373.164C418.53 370.43 421.762 367.583 424.961 364.632C426.695 362.929 428.679 361.391 430.524 359.803Z" fill="#EE9440"/>
<path d="M399.597 368.232L402.22 366.393L402.64 366.666C404.368 367.81 405.627 368.992 406.931 370.595C408.054 370.713 408.479 370.642 409.467 370.091C409.562 369.917 409.652 369.74 409.754 369.571C410.212 368.814 410.001 369.077 410.803 368.582L410.314 371.13C412.124 372.827 413.55 371.066 415.143 373.164C413.852 374.725 412.67 375.967 410.998 377.121C409.66 378.488 408.344 379.872 406.895 381.124C403.558 383.48 400.285 385.514 396.545 387.178C394.401 387.612 392.361 388.11 390.159 387.984L389.278 388.105C386.737 386.478 385.177 382.956 383.693 380.408C385.012 381.191 385.532 381.864 387.073 381.57L387.247 380.921L386.567 379.948L387.002 378.805C388.715 377.293 390.287 377.522 392.488 377.503L393.45 377.303C396.074 374.451 397.939 371.702 399.597 368.232Z" fill="black"/>
<path d="M387.002 378.805C389.169 379.955 391.684 381.162 394.219 380.484C396.222 379.947 397.153 378.679 398.297 377.082C399.505 377.112 400.656 377.071 401.583 377.975C402.601 378.967 403.476 381.455 404.954 381.466C405.249 381.468 406.282 381.197 406.589 381.143C406.689 381.125 406.793 381.131 406.895 381.124C403.558 383.48 400.285 385.514 396.545 387.178C394.401 387.612 392.361 388.11 390.159 387.984L389.278 388.105C386.737 386.478 385.177 382.956 383.693 380.408C385.012 381.191 385.532 381.864 387.073 381.57L387.247 380.921L386.567 379.948L387.002 378.805Z" fill="black"/>
<path d="M410.314 371.13C412.124 372.827 413.55 371.066 415.143 373.164C413.852 374.725 412.67 375.967 410.998 377.121C410.331 376.406 410.703 376.671 409.628 376.228C409.349 376.114 409.066 376.01 408.785 375.901C408.353 374.089 409.453 372.644 410.314 371.13Z" fill="black"/>
<path d="M412.366 393.053C412.611 392.715 412.772 392.539 412.897 392.096C413.361 390.457 413.926 386.269 413.047 384.944L411.035 385.501L410.66 385.234C411.724 384.47 412.755 383.9 413.919 383.313C414.414 384.263 414.582 384.77 415.482 385.392C415.877 383.828 416.328 382.753 417.833 381.948C418.741 381.463 419.565 381.411 420.524 381.706L421.32 383.733L420.962 384.373C419.888 384.132 418.833 383.941 417.743 383.791C417.444 384.434 417.256 384.926 417.081 385.625C418.668 386.323 420.993 385.952 422.71 385.897L422.599 386.867C420.429 387.925 418.035 386.06 416.188 387.266L416.405 388.296C418.213 389.16 420.143 388.64 422.115 388.454L422.176 388.943C422.079 389.055 421.979 389.165 421.884 389.279C420.775 390.606 420.479 391.551 420.246 393.243L419.561 393.697L418.082 392.727L417.403 393.305C417.256 395.887 419.203 395.465 416.621 397.836C417.03 399.907 416.999 400.467 418.481 402.052L416.48 406.037L415.465 408.192C415.204 407.043 414.968 406.069 414.459 404.997C414.215 405.482 413.829 406.43 413.431 406.851C412.523 407.812 412.027 407.769 410.803 407.84L411.069 407.757L410.384 407.368C410.914 407.278 411.319 407.001 411.79 406.75L411.833 405.861L410.953 405.299L408.72 405.962L408.169 405.47L409.131 404.222L409.021 404.436L410.463 402.766L409.735 403.019L410.09 402.465C410.792 403.052 410.354 402.764 411.475 403.21L412.148 402.71L411.965 401.956C410.555 400.754 409.988 400.117 409.506 398.311C408.251 398.259 407.149 398.085 405.926 397.832L405.59 397.133L406.731 395.08C405.904 394.573 405.653 394.825 404.728 394.973C403.787 396.34 402.971 397.462 401.68 398.515L400.836 398.427L400.284 397.501L402.069 395.722C402.237 393.999 402.109 392.307 402.015 390.582C402.653 389.296 402.533 389.265 403.884 388.811C404.913 388.465 405.461 388.28 406.533 388.633C406.624 389.943 406.276 390.697 405.847 391.904L406.23 393.181L406.988 393.427L407.604 392.292C408.58 391.347 409.288 390.603 410.629 390.193L411.73 390.742C411.948 391.511 412.16 392.281 412.366 393.053Z" fill="#EE9440"/>
<path d="M416.48 406.037C415.019 403.588 415.017 400.83 415.416 398.064L416.621 397.836C417.03 399.907 416.999 400.467 418.481 402.052L416.48 406.037Z" fill="#EE9440"/>
<path d="M430.524 359.803L431.762 360.042C433.12 359.501 433.696 358.848 434.764 357.953C436.011 356.909 435.985 356.948 437.574 357.073C438.128 357.758 438.67 358.453 439.199 359.158C436.194 365.985 431.811 372.033 428.868 378.939C427.477 379.202 426.547 380.104 425.16 379.71L425.059 378.743C425.795 377.834 426.313 377.339 426.365 376.135L425.832 375.928L424.431 377.027L423.68 376.725C423.555 376.297 423.365 375.74 423.371 375.296C423.391 373.916 423.687 373.563 424.683 372.811C426.131 372.674 427.209 372.679 428.368 371.686C428.69 370.89 428.96 370.177 429.465 369.474C429.985 368.75 429.708 369.279 430.084 368.238C429.239 367.718 428.837 367.876 427.867 367.881C428.13 368.791 428.481 369.049 427.858 369.928C427.119 370.972 425.523 371.714 424.307 371.814C423.201 371.229 423.473 371.4 423.134 370.339C423.433 369.025 423.71 367.901 424.495 366.778C425.259 365.684 425.071 365.87 424.961 364.632C426.695 362.929 428.679 361.391 430.524 359.803Z" fill="#EE9440"/>
<path d="M387.43 409.681C388.543 409.284 389.637 408.96 390.784 408.673L390.043 408.265C389.023 407.691 389.418 407.947 388.535 407.268C389.717 406.501 391.041 406.799 392.376 407.107C393.775 407.431 395.795 407.639 396.542 408.931C396.932 409.604 397.231 410.11 397.08 410.903C397.055 411.036 396.989 411.158 396.943 411.285C392.835 408.799 391.071 411.786 387.43 409.681Z" fill="#EE9440"/>
<path d="M361.535 369.567C363.411 370.507 364.336 370.762 366.452 370.611C367.331 370.549 367.936 370.391 368.781 370.651C369.112 371.836 367.794 372.442 367.761 373.78C369.217 373.564 370.671 372.38 371.765 371.422C372.398 370.868 373.227 370.417 373.277 369.555L371.922 368.303C372.143 367.197 372.244 367.375 373.095 366.743C373.613 367.323 374.11 367.793 374.728 368.264L375.708 367.418L375.841 369.001C376.849 369.784 376.993 369.489 378.253 369.341C379.047 369.247 379.84 369.139 380.633 369.035C381.208 372.919 382.11 376.376 383.557 380.032C383.606 380.156 383.648 380.283 383.693 380.408C385.177 382.956 386.737 386.478 389.278 388.105L390.159 387.984C390.062 388.199 389.969 388.416 389.867 388.629C389.448 389.503 388.972 390.228 388.433 391.028C388.592 392.458 388.802 392.729 389.87 393.684L390.306 393.591C390.324 392.287 390.317 390.983 390.282 389.679L390.813 389.244C392.638 390.799 391.882 391.975 392.649 392.811C393.761 394.024 394.264 391.275 394.275 394.65C394.278 395.768 393.93 397.064 393.73 398.171C392.455 398.019 392.097 397.855 390.966 398.418L390.974 400.199C388.948 402.163 386.128 403.211 384.425 405.325L383.477 405.576C384.44 407.122 384.461 408.089 384.428 409.888L386.258 409.797L386.462 411.732C379.631 410.297 372.651 409.733 365.801 408.231C362.925 408.206 359.819 407.949 357.006 407.358C355.028 406.941 353.126 405.879 352.063 404.108C346.999 395.668 359.477 378.417 361.341 370.472C361.411 370.171 361.47 369.868 361.535 369.567Z" fill="#EE9440"/>
<path d="M389.278 388.105L390.159 387.984C390.062 388.199 389.969 388.416 389.867 388.629C389.448 389.503 388.972 390.228 388.433 391.028C388.592 392.458 388.802 392.729 389.87 393.684L390.306 393.591C390.324 392.287 390.316 390.983 390.282 389.679L390.813 389.244C392.638 390.799 391.882 391.975 392.649 392.811C393.761 394.024 394.264 391.275 394.275 394.65C394.278 395.768 393.93 397.064 393.73 398.171C392.455 398.019 392.097 397.855 390.966 398.418L390.974 400.199C388.948 402.163 386.128 403.211 384.425 405.325L383.477 405.576C384.44 407.122 384.461 408.089 384.428 409.888L386.258 409.797L386.462 411.732C379.631 410.297 372.651 409.733 365.801 408.231L366.432 406.742L367.255 406.426C367.929 406.634 368.796 406.983 369.495 407.012C370.87 407.068 371.042 406.772 371.897 405.842C372.33 404.941 372.314 405.172 372.435 404.404C372.621 403.231 372.755 402.373 373.253 401.259C373.666 401.942 373.891 402.245 374.515 402.78L375.168 402.259L375.151 399.837L375.883 399.462L376.763 400.93C379.354 401.363 382.125 401.825 384.602 400.773C385.128 400.04 385.68 399.343 386.253 398.647L388.333 398.546L388.864 397.884L388.409 396.708C389.382 395.566 389.713 396.884 391.178 396.327L388.966 394.852L388.15 395.111L388.591 394.592C388.276 394.337 388.084 394.214 387.845 393.85C387.221 392.897 387.289 391.961 387.389 390.891C387.541 389.27 388.044 389.119 389.278 388.105Z" fill="#EE9440"/>
<path d="M371.897 405.842C371.962 405.837 372.027 405.843 372.09 405.829C373.13 405.609 373.82 405.376 374.89 405.547L375.115 406.487L374.699 407.138L372.498 407.188L372.246 407.742C372.536 407.774 373.495 407.87 373.743 407.94C374.472 408.147 375.023 408.403 375.773 408.553C377.362 407.294 375.978 406.951 376.668 405.752C376.895 405.358 378.941 405.068 379.476 404.952C383.044 404.177 387.356 402.056 389.667 399.116C389.845 398.889 390.011 398.652 390.183 398.42L390.966 398.418L390.974 400.199C388.948 402.163 386.128 403.211 384.425 405.325L383.477 405.576C384.44 407.122 384.461 408.089 384.428 409.888L386.258 409.797L386.462 411.732C379.631 410.297 372.651 409.733 365.801 408.231L366.432 406.742L367.255 406.426C367.929 406.634 368.796 406.983 369.495 407.012C370.87 407.068 371.042 406.772 371.897 405.842Z" fill="#EE9440"/>
<path d="M384.428 409.888L382.842 409.687C382.579 409.348 382.105 408.779 381.948 408.394C381.513 407.334 381.796 406.804 382.236 405.873L383.477 405.576C384.44 407.122 384.461 408.089 384.428 409.888Z" fill="#EE9440"/>
<path d="M379.233 375.825C379.786 376.234 380.38 376.637 380.822 377.176C382.791 379.576 382.706 383.173 382.605 386.072C382.37 386.191 382.082 386.003 381.824 385.952L381.527 385.286C381.398 384.99 381.274 384.692 381.142 384.397C379.962 381.748 379.778 378.668 379.233 375.825Z" fill="#EE9440"/>
<path d="M370.728 390.796C371.305 390.977 371.873 391.289 372.423 391.543C373.099 392.701 373.341 393.445 373.196 394.808C372.987 396.772 371.838 397.921 370.428 399.157C370.129 398.047 369.872 397.142 369.889 395.982C370.622 395.4 371.324 394.976 371.699 394.09C372.023 393.326 371.038 391.589 370.728 390.796Z" fill="#EE9440"/>
<path d="M437.635 353.417C442.579 348.686 447.677 344.067 453.26 340.095L453.709 342.951C448.129 345.61 443.883 354.48 439.199 359.158C438.67 358.453 438.129 357.758 437.574 357.073C435.985 356.948 436.011 356.909 434.764 357.953C433.696 358.848 433.12 359.501 431.762 360.042L430.524 359.803C432.886 357.596 435.537 355.933 437.635 353.417Z" fill="#EE9440"/>
<path d="M375.244 326.757C374.692 325.314 374.292 324.377 374.587 322.795C375.299 322.176 375.21 322.085 376.208 321.98C378.223 321.767 379.546 321.505 381.344 320.516C381.649 320.349 381.972 320.218 382.287 320.072C381.575 321.726 380.367 323.919 378.685 324.698L378.065 325.573L375.244 326.757Z" fill="black"/>
<path d="M345.105 394.816C346.138 395.778 345.973 397.014 346.218 398.377C347.078 398.939 346.787 398.863 347.621 399.069C347.787 399.11 347.956 399.138 348.124 399.173L347.853 400.544C346.701 400.345 345.673 400.147 344.568 399.75C343.891 398.184 344.699 396.458 345.105 394.816Z" fill="black"/>
<path d="M347.866 384.604L348.928 385.421C348.789 387.624 348.612 389.824 348.397 392.021C347.903 391.45 347.516 390.821 347.099 390.193C346.705 388.174 347.313 386.535 347.866 384.604Z" fill="black"/>
<path d="M390.734 417.934L393.34 417.911C394.3 418.73 394.124 419.643 394.287 420.856C393.268 420.617 392.303 420.447 391.426 419.839C390.732 419.357 390.867 418.715 390.734 417.934Z" fill="black"/>
<path d="M384.392 472.234L385.442 470.769C391.113 470.113 398.325 457.083 404.813 461.957C406.852 463.488 408.726 467.41 408.788 469.913C408.854 472.574 406.891 474.249 405.082 475.932C399.728 480.914 391.743 484.064 388.728 490.94C388.575 491.289 388.398 491.552 388.201 491.865C387.981 491.095 387.765 490.393 387.456 489.651C385.325 489.794 381.927 493.075 380.001 494.26C376.875 498.176 369.155 504.826 365.125 507.851L364.939 508.217C366.198 509.16 366.907 509.57 367.114 511.217C367.502 514.304 364.693 517.177 365.695 520.143L365.391 520.96C362.768 524.569 360.707 528.467 359.048 532.61C358.575 533.387 358.105 534.128 357.709 534.947C359.364 536.168 360.214 537.188 362.434 536.89C364.146 536.66 366.075 535.89 367.619 536.751L367.918 537.978C364.374 545.212 355.918 565.49 351.137 569.982C349.467 572.717 346.106 574.84 343.132 575.898C339.925 577.039 336.25 577.449 332.872 577.222C327.807 576.881 322.787 575.071 317.787 574.193C308.64 572.587 285.578 570.171 278.406 566.537C275.326 564.976 273.282 562.256 272.291 558.984C271.105 555.073 271.422 550.925 272.386 547.009C274.737 537.454 279.932 528.096 283.584 518.978C289.355 504.57 293.856 489.135 301.218 475.434C303.836 470.562 307.302 466.294 312.718 464.466C315.002 463.696 317.351 463.476 319.751 463.523C328.632 463.698 337.827 465.607 346.62 466.897C353.702 467.935 360.956 468.605 367.962 470.039C372.682 471.006 379.186 473.89 383.817 472.429C384.01 472.368 384.2 472.299 384.392 472.234Z" fill="#EE9440"/>
<path d="M351.137 569.982C349.467 572.717 346.106 574.84 343.132 575.898C339.925 577.039 336.25 577.449 332.872 577.222C327.807 576.881 322.787 575.071 317.787 574.193C308.64 572.587 285.578 570.171 278.406 566.537C275.326 564.976 273.282 562.256 272.291 558.984C271.105 555.073 271.422 550.925 272.386 547.009C274.737 537.454 279.932 528.096 283.584 518.978C289.355 504.57 293.856 489.135 301.218 475.434C303.836 470.562 307.302 466.294 312.718 464.466C315.002 463.696 317.351 463.476 319.751 463.523C328.632 463.698 337.827 465.607 346.62 466.897C353.702 467.935 360.956 468.605 367.962 470.039C372.682 471.006 379.186 473.89 383.817 472.429C384.01 472.368 384.2 472.299 384.392 472.234C382.489 476.58 375.689 479.884 372.057 483.074L371.343 482.379C368.75 482.34 350.307 478.617 346.831 477.799C343.026 475.801 323.045 474.589 318.123 474.713C315.801 474.772 314.706 475.377 313.159 477.083L312.765 477.923C311.763 479.194 310.731 480.438 309.883 481.819C308.307 484.489 307.289 486.823 306.627 489.873C301.736 496.865 284.378 536.272 282.718 544.481C281.663 547.793 280.392 552.356 281.936 555.679C282.63 557.172 283.92 558.176 285.497 558.62C286.268 558.837 286.36 558.833 287.078 558.945C293.911 559.979 301.278 560.196 307.888 562.265L308.574 562.01C312.448 562.539 316.406 563.507 320.286 563.758C321.462 563.834 322.462 564.082 323.586 564.401L330.145 565.047C331.664 565.591 333.074 565.657 334.664 565.75C335.843 566.362 337.965 566.271 339.168 565.898C346.848 563.516 354.71 541.952 357.709 534.947C359.364 536.168 360.214 537.188 362.434 536.89C364.146 536.66 366.075 535.89 367.619 536.751L367.918 537.978C364.374 545.212 355.918 565.49 351.137 569.982Z" fill="black"/>
<path d="M280.868 532.731C281.891 532.721 282.393 532.751 283.279 533.278L283.257 534.044C282.382 534.846 281.511 535.653 280.644 536.465L281.001 537.035L282.735 536.707L283.174 537.774L282.7 538.623L280.419 539.252C281.438 541.4 281.231 541.675 280.57 543.927C280.424 544.268 280.178 544.896 279.946 545.173C279.229 546.028 278.575 545.868 277.591 545.83L277.104 544.944C277.379 540.993 278.788 536.138 280.868 532.731Z" fill="black"/>
<path d="M295.188 562.791L296.945 563.051C298.069 563.935 298.566 564.096 298.973 565.498C298.281 566.704 297.789 566.6 296.496 567.002C296.23 567.01 295.963 567.023 295.697 567.024C293.872 567.031 293.499 566.858 292.256 565.606L292.263 564.605C293.219 563.349 293.735 563.317 295.188 562.791Z" fill="black"/>
<path d="M294.722 499.206L297.125 499.729C298.308 500.756 298.12 501.267 298.326 502.78C297.239 502.654 296.189 502.461 295.117 502.251C294.368 501.039 294.597 500.594 294.722 499.206Z" fill="black"/>
<path d="M300.329 486.817L300.457 486.37C302.107 486.111 304.263 485.61 305.702 486.74C305.828 486.839 305.929 486.966 306.043 487.08C305.777 488.321 306.112 487.886 305.196 488.494C304.524 488.004 303.885 487.51 303.26 486.96L301.947 487.315L300.329 486.817Z" fill="black"/>
<path d="M331.858 569.275L334.295 569.117L334.435 570.382L334.579 571.585C333.235 571.732 333.239 571.449 332.153 570.746L331.858 569.275Z" fill="black"/>
<path d="M368.536 476.3C368.562 476.254 368.592 476.21 368.626 476.168C368.659 476.126 368.695 476.087 368.735 476.05C368.773 476.013 368.815 475.98 368.859 475.949C368.903 475.919 368.949 475.892 368.997 475.868C369.045 475.844 369.094 475.824 369.145 475.807C369.195 475.79 369.247 475.776 369.3 475.767C369.352 475.758 369.405 475.752 369.459 475.751C369.512 475.75 369.565 475.752 369.619 475.758C369.672 475.764 369.724 475.774 369.776 475.788C369.828 475.802 369.878 475.819 369.928 475.84C369.977 475.861 370.024 475.886 370.07 475.914C370.116 475.942 370.159 475.973 370.2 476.008C370.241 476.042 370.28 476.079 370.316 476.119C370.351 476.159 370.384 476.201 370.414 476.246C370.443 476.291 370.469 476.337 370.492 476.385C370.515 476.434 370.534 476.484 370.55 476.535C370.565 476.586 370.577 476.638 370.585 476.691C370.593 476.744 370.597 476.798 370.598 476.851C370.598 476.904 370.594 476.957 370.587 477.011C370.579 477.063 370.568 477.116 370.553 477.167C370.538 477.218 370.519 477.268 370.497 477.317C370.475 477.365 370.449 477.413 370.42 477.458C370.391 477.503 370.359 477.545 370.324 477.585C370.288 477.626 370.25 477.663 370.21 477.698C370.16 477.74 370.108 477.777 370.052 477.81C369.996 477.843 369.938 477.871 369.877 477.893C369.816 477.916 369.754 477.933 369.691 477.945C369.627 477.956 369.562 477.962 369.498 477.963C369.433 477.963 369.369 477.958 369.305 477.947C369.241 477.936 369.178 477.92 369.118 477.898C369.056 477.876 368.998 477.849 368.942 477.817C368.886 477.784 368.833 477.747 368.783 477.706C368.733 477.665 368.687 477.619 368.646 477.569C368.604 477.52 368.566 477.467 368.534 477.411C368.502 477.355 368.474 477.296 368.452 477.235C368.43 477.174 368.413 477.112 368.402 477.048C368.39 476.984 368.385 476.92 368.386 476.855C368.386 476.79 368.391 476.726 368.403 476.662C368.414 476.598 368.431 476.536 368.454 476.475C368.476 476.414 368.503 476.356 368.536 476.3Z" fill="black"/>
<path d="M384.392 472.234L385.442 470.769C391.113 470.113 398.325 457.083 404.813 461.957C406.852 463.488 408.726 467.41 408.788 469.913C408.854 472.574 406.891 474.249 405.082 475.932C399.728 480.914 391.743 484.064 388.728 490.94C388.575 491.289 388.398 491.552 388.201 491.865C387.981 491.095 387.765 490.393 387.456 489.651C385.325 489.794 381.927 493.075 380.001 494.26C376.875 498.176 369.155 504.826 365.125 507.851L364.939 508.217C363.283 509.702 360.983 511.441 359.926 513.411L347.287 524.699L346.111 524.03C343.691 524.262 342.623 523.879 340.441 522.824L340.737 521.284C340.207 519.78 339.663 519.58 338.417 518.636C337.379 518.055 337.192 517.377 336.738 516.318C337.996 515.544 338.678 514.259 339.48 513.056C343.314 509.681 347.487 505.829 350.968 502.121C352.73 499.028 356.787 497.981 358.5 494.971L358.417 493.755C359.992 491.224 369.262 485.011 372.057 483.074C375.689 479.884 382.489 476.58 384.392 472.234Z" fill="black"/>
<path d="M373.996 495.206C372.563 496.791 370.436 498.646 370.284 500.847C374.272 500.645 375.818 494.738 380.001 494.26C376.875 498.176 369.155 504.826 365.125 507.851L364.939 508.217C363.283 509.702 360.983 511.441 359.926 513.411L347.287 524.699L346.111 524.03C343.691 524.262 342.623 523.879 340.441 522.824L340.737 521.284C340.207 519.78 339.663 519.58 338.417 518.636C337.379 518.055 337.192 517.377 336.738 516.318C337.996 515.544 338.678 514.259 339.48 513.056C343.314 509.681 347.487 505.829 350.968 502.121C352.73 499.028 356.787 497.981 358.5 494.971C361.261 494.688 362.954 494.384 365.426 495.871C365.708 496.041 367.66 497.337 367.881 497.289C368.07 497.247 368.164 497.026 368.308 496.898C369.903 495.48 370.907 494.821 373.13 495.044C373.422 495.073 373.709 495.14 373.996 495.206Z" fill="black"/>
<path d="M373.996 495.206C372.563 496.791 370.436 498.646 370.284 500.847C374.272 500.645 375.818 494.738 380.001 494.26C376.875 498.176 369.155 504.826 365.125 507.851C365.683 506.419 366.606 505.283 367.49 504.035L367.402 504.34L366.474 504.309L366.261 504.544L365.4 504.179C365.289 503.052 365.033 502.431 364.471 501.452L366.589 499.455L366.306 498.841L364.918 498.571C363.411 498.264 361.857 497.723 360.362 498.265C358.495 499.839 358.115 501.248 357.108 503.368C356.963 503.672 356.741 503.968 356.546 504.244C355.584 504.149 355.495 504.271 354.711 503.623C353.29 502.46 353.26 502.395 351.435 502.337L350.968 502.121C352.73 499.028 356.787 497.981 358.5 494.971C361.261 494.688 362.954 494.384 365.426 495.871C365.708 496.041 367.66 497.337 367.881 497.289C368.07 497.247 368.164 497.026 368.308 496.898C369.903 495.48 370.907 494.821 373.13 495.044C373.422 495.073 373.709 495.14 373.996 495.206Z" fill="black"/>
<path d="M351.435 502.337C353.26 502.395 353.29 502.46 354.711 503.623C353.457 504.378 352.732 504.544 351.319 504.696L350.705 504.045L351.435 502.337Z" fill="black"/>
<path d="M355.794 508.268C356.712 508.076 357.88 508.437 358.686 508.873C358.711 509.036 358.76 509.196 358.763 509.361C358.793 511.09 357.334 512.607 356.182 513.726L353.76 513.917C352.769 513.302 352.724 513.334 352.354 512.239C353.226 510.562 354.652 510.385 355.503 508.897C355.617 508.696 355.697 508.478 355.794 508.268Z" fill="black"/>
<path d="M363.008 502.008L363.596 502.403C364.12 503.652 364.437 504.367 364.349 505.755L363.409 506.433C363.283 506.291 363.185 506.117 363.031 506.006C362.766 505.814 362.456 505.693 362.169 505.537C361.001 505.248 360.187 504.901 359.159 504.275L359.16 503.733C359.969 503.328 360.387 503.168 361.319 503.152C361.565 503.148 361.812 503.165 362.058 503.171L363.008 502.008Z" fill="black"/>
<path d="M372.057 483.074C373.525 483.901 374.393 483.245 376.027 483.71C376.44 482.713 376.469 482.328 376.48 481.283L377.184 481.258C378.671 483.084 378.139 489.348 378.32 491.927C377.956 492.446 378.219 492.202 377.403 492.488L376.684 492.228L376.708 490.101C375.597 490.22 375.23 490.53 374.313 491.124L373.311 490.883L372.93 490.204L371.558 491.286C371.898 492.595 371.845 493.064 373.156 493.705C373.79 494.014 374.722 494.123 375.419 494.265C375.789 495.422 375.61 495.26 375.101 496.275L374.561 496.173L374.294 495.23L373.996 495.206C373.709 495.14 373.422 495.073 373.13 495.044C370.907 494.821 369.903 495.48 368.308 496.898C368.164 497.026 368.07 497.247 367.881 497.289C367.66 497.337 365.708 496.041 365.426 495.871C362.954 494.384 361.261 494.688 358.5 494.971L358.417 493.755C359.992 491.224 369.262 485.011 372.057 483.074Z" fill="black"/>
<path d="M359.926 513.411C360.983 511.441 363.283 509.702 364.939 508.217C366.198 509.16 366.907 509.57 367.114 511.217C367.502 514.304 364.693 517.177 365.695 520.143L365.391 520.96C362.768 524.569 360.707 528.467 359.048 532.61C358.575 533.387 358.105 534.128 357.709 534.947C354.71 541.952 346.848 563.516 339.168 565.898C337.965 566.271 335.843 566.362 334.664 565.75C333.074 565.657 331.664 565.591 330.145 565.047C328.576 563.172 328.543 562.302 328.502 559.857L329.965 559.194C327.566 559.006 325.906 558.973 323.667 559.921C323.269 558.032 324.391 556.957 325.369 555.379C326.037 556.121 326.429 556.876 326.929 557.741L327.825 557.934L328.506 557.188C328.646 555.704 329.368 552.924 328.451 551.812C327.722 552.433 326.997 553.058 326.276 553.688C325.609 552.804 325.717 552.61 325.608 551.552L326.266 550.772C327.116 550.553 327.71 550.502 328.577 550.676C329.795 550.92 330.857 551.314 332.096 550.98C332.408 550.896 332.712 550.785 333.026 550.711C334.41 550.385 334.988 550.456 336.201 551.147C335.334 551.75 334.183 552.129 333.213 552.561C334.578 553.212 334.427 553.157 335.953 552.943C337.067 552.035 338.162 551.255 338.888 549.986L338.607 549.15C335.73 547.852 334.055 549.58 331.37 549.482L331.631 548.844C333.014 548.343 334.215 547.814 335.502 547.102C336.091 546 336.166 546.07 335.828 544.883C332.23 542.242 335.077 541.798 333.991 538.511L333.325 538.344C333.181 539.458 333.31 540.172 332.512 541.008L331.7 540.759L331.637 538.852L330.903 538.448C333.241 537.525 335.929 536.541 337.497 534.496C339.119 533.136 340.461 531.756 341.797 530.115C343.704 528.372 345.5 526.563 347.287 524.699L359.926 513.411Z" fill="#EE9440"/>
<path d="M359.926 513.411C360.983 511.441 363.283 509.702 364.939 508.217C366.198 509.16 366.907 509.57 367.114 511.217C367.502 514.304 364.693 517.177 365.695 520.143L365.391 520.96C362.768 524.569 360.707 528.467 359.048 532.61C358.854 527.816 357.881 530.351 357.103 528.501C356.982 528.213 357.806 527.253 357.516 526.383C356.587 526.185 356.623 526.285 355.794 526.606C355.759 527.597 355.696 528.523 355.518 529.5C354.482 530.333 354.446 530.335 353.115 530.369C353.191 530.221 353.275 530.077 353.344 529.925C353.903 528.693 354.152 527.62 353.67 526.334L352.943 526.705C352.649 528.264 352.496 529.999 351.477 531.266L351.07 530.85C351.044 529.346 351.048 528.057 350.521 526.621L349.847 526.324C348.677 527.089 347.53 527.974 346.158 528.313C345.943 528.367 345.707 528.343 345.504 528.432C344.301 528.959 344.335 531.108 343.556 532.265C342.532 531.756 342.301 531.103 341.797 530.115C343.704 528.372 345.5 526.563 347.287 524.699L359.926 513.411Z" fill="#EE9440"/>
<path d="M359.926 513.411C360.983 511.441 363.283 509.702 364.939 508.217C366.198 509.16 366.907 509.57 367.114 511.217C367.502 514.304 364.693 517.177 365.695 520.143L365.391 520.96C364.384 520.88 363.832 520.683 362.996 520.09C362.204 519.528 362.056 519.726 361.11 519.792C360.199 520.509 359.522 521.118 358.327 521.276C357.486 521.387 357.72 521.374 357.106 520.822C357.598 520.001 357.336 520.226 358.088 519.733C359.84 518.586 361.048 518.113 361.623 515.947C361.224 514.586 360.973 514.397 359.926 513.411Z" fill="#EE9440"/>
<path d="M329.965 559.194C330.178 557.72 330.179 556.119 331.014 554.868L332.532 554.768C332.74 555.621 332.793 555.204 332.36 555.971C331.699 557.139 331.01 558.078 331.053 559.466C331.787 560.429 332.293 560.813 333.512 561.064C334.836 561.337 336.373 561.041 337.51 560.322C338.974 559.394 339.527 557.483 340.14 555.959L340.617 556.057C340.803 557.773 340.612 559.243 339.503 560.634C338.302 562.141 336.565 562.571 334.731 562.553C333.964 562.545 333.203 562.459 332.441 562.381L331.507 562.983L331.622 563.712C332.932 564.083 333.969 563.874 335.279 563.666L335.724 563.942C335.485 564.767 335.262 565.136 334.664 565.75C333.074 565.657 331.664 565.591 330.145 565.047C328.576 563.172 328.543 562.302 328.502 559.857L329.965 559.194Z" fill="#EE9440"/>
<path d="M316.455 506.375C318.229 505.833 320.01 505.315 321.798 504.822C323.874 505.539 325.077 506 326.214 507.999C326.278 508.186 326.345 508.371 326.407 508.559C327.886 513.068 326.395 520.696 329.672 524.188L330.394 524.187C332.161 521.668 334.113 517.97 336.738 516.318C337.192 517.377 337.379 518.055 338.417 518.636C339.663 519.58 340.207 519.78 340.737 521.284L340.441 522.824C342.623 523.879 343.691 524.262 346.111 524.03L347.287 524.699C345.5 526.563 343.704 528.372 341.797 530.115C340.461 531.756 339.119 533.136 337.497 534.496C335.929 536.541 333.241 537.525 330.903 538.448L329.989 538.506C328.784 538.875 327.689 539.178 326.416 539.126C324.916 539.065 322.898 538.913 321.854 537.829L320.344 537.402C316.067 532.827 315.266 527.352 312.839 521.889L312.65 521.474C313.029 517.782 311.386 513.275 313.097 509.857C313.838 508.377 314.966 507.675 316.48 507.108L316.455 506.375Z" fill="black"/>
<path d="M322.275 532.491L320.265 533.127C319.217 531.793 318.351 531.061 318.091 529.365C319.396 527.293 321.854 526.819 324.156 526.27C325.483 525.953 326.835 525.721 328.178 525.483C328.88 526.72 328.578 527.97 329.435 528.962L331.475 529.116L331.821 529.58C330.951 530.007 330.225 530.181 329.271 530.34C330.303 530.92 331.356 531.272 332.569 531.069C333.036 530.991 333.376 530.751 333.765 530.521C334.675 528.488 332.939 525.734 334.685 524.294L335.449 524.753C335.308 525.873 335.102 526.122 334.478 527.021L334.721 527.833L335.653 528.117L337.343 527.068L337.895 527.504C337.808 528.432 337.696 528.813 337.398 529.655C336.875 531.132 336.732 532.288 336.974 533.854L337.497 534.496C335.929 536.541 333.241 537.525 330.903 538.448L329.989 538.506C329.835 537.517 329.821 537.46 329.239 536.738C327.733 536.003 326.525 535.997 324.86 535.967L324.186 535.96L323.418 534.92L324.683 534.621L325.482 532.909C324.337 532.923 323.387 532.73 322.275 532.491Z" fill="black"/>
<path d="M322.275 532.491L324.272 531.718C324.363 531.457 324.451 531.195 324.545 530.935C324.89 529.972 325.361 529.254 325.941 528.417L326.767 528.117L327.757 528.683C328.101 530.02 328.431 531.355 328.839 532.674C327.649 532.687 326.824 532.594 325.696 532.213L325.482 532.909C324.337 532.923 323.387 532.73 322.275 532.491Z" fill="black"/>
<path d="M316.455 506.375C318.229 505.833 320.01 505.315 321.798 504.822C323.874 505.539 325.077 506 326.214 507.999C325.513 508.413 325.79 508.205 325.156 508.77C323.847 509.935 322.193 511.783 320.43 512.236C318.429 512.75 317.037 512.101 315.304 511.227L315.098 510.433C315.533 509.651 315.97 508.888 316.458 508.138L316.853 507.543L316.48 507.108L316.455 506.375Z" fill="black"/>
<path d="M338.417 518.636C339.663 519.58 340.207 519.78 340.737 521.284L340.441 522.824C339.94 522.802 339.443 522.685 338.949 522.599C338.932 521.546 338.867 520.625 338.637 519.594L338.417 518.636Z" fill="black"/>
<path d="M320.344 537.402L321.854 537.829C322.898 538.913 324.916 539.065 326.416 539.126C327.689 539.178 328.784 538.875 329.989 538.506L330.903 538.448L331.637 538.852L331.7 540.759L332.512 541.008C333.31 540.172 333.181 539.458 333.325 538.344L333.991 538.511C335.077 541.798 332.23 542.242 335.828 544.883C336.166 546.07 336.091 546 335.502 547.102C334.215 547.814 333.014 548.343 331.631 548.844L331.37 549.482C334.055 549.58 335.73 547.852 338.607 549.15L338.888 549.986C338.162 551.255 337.067 552.035 335.953 552.943C334.427 553.157 334.578 553.212 333.213 552.561C334.183 552.129 335.334 551.75 336.201 551.147C334.988 550.456 334.41 550.385 333.026 550.711C332.712 550.785 332.408 550.896 332.096 550.98C330.857 551.314 329.795 550.92 328.577 550.676C327.71 550.502 327.116 550.553 326.266 550.772L325.608 551.552C325.717 552.61 325.609 552.804 326.276 553.688C326.997 553.059 327.722 552.433 328.451 551.812C329.368 552.924 328.646 555.704 328.506 557.188L327.825 557.934L326.929 557.741C326.429 556.876 326.037 556.121 325.369 555.379C324.391 556.957 323.269 558.032 323.667 559.921C325.906 558.973 327.566 559.006 329.965 559.194L328.502 559.857C328.543 562.302 328.576 563.172 330.145 565.047L323.586 564.401C322.462 564.082 321.462 563.834 320.286 563.758C316.406 563.507 312.448 562.539 308.574 562.01L309.781 560.818C312.296 560.961 315.046 560.592 317.489 560.025C317.034 558.641 313.69 558.933 312.33 557.745L312.744 556.96C314.152 556.434 314.26 556.421 315.715 556.79C315.913 555.489 314.992 553.667 314.54 552.401L314.949 551.824C315.582 551.92 316.217 552.006 316.854 552.081C316.645 551.746 316.456 551.383 316.115 551.151C314.971 550.377 314.377 550.389 313.149 550.677C312.591 551.488 312.569 551.937 312.625 552.884C312.635 553.049 312.704 553.819 312.682 553.996C312.536 555.15 312.321 555.021 311.491 555.627C310.455 554.071 311.355 552.263 310.455 550.751C310.085 551.964 309.755 553.004 309.131 554.117L308.343 554.009L307.949 553.227C308.09 551.798 307.929 550.785 308.851 549.639L310.536 550.212L311.005 549.495C310.71 548.308 310.232 547.413 309.679 546.336L308.545 546.204C307.706 545.524 307.399 545.154 307.367 543.963C307.333 542.681 307.998 542.306 308.847 541.518L309.422 542.039C309.175 543.032 309.075 543.679 309.233 544.693L310.033 544.935C310.503 544.045 310.745 543.634 311.504 542.936L312.067 543.304C311.721 544.397 311.515 545.09 311.685 546.234L312.817 546.784C313.527 545.842 313.201 544.755 313.157 543.599L313.799 542.941L314.555 543.083L314.731 545.189L315.34 545.326C316.986 543.759 317.65 541.931 318.967 540.157C319.694 539.177 320.064 538.607 320.344 537.402Z" fill="#EE9440"/>
<path d="M321.798 504.822C322.516 503.928 322.665 503.711 323.763 503.252L325.458 503.985L325.912 503.279L325.925 502.331C325.959 500.693 325.898 498.732 327.105 497.585L328.171 497.664C328.559 499.235 327.076 499.304 327.137 500.99C328.098 501.091 328.874 500.294 329.675 499.775L331.505 501.429C331.549 501.278 331.631 501.133 331.637 500.976C331.68 499.918 331.441 497.272 330.711 496.647L329.216 497.187C329.034 497.068 328.83 496.977 328.671 496.829C327.687 495.912 327.101 494.143 326.838 492.861L327.34 492.329C327.562 492.496 327.803 492.639 328.005 492.83C329.186 493.947 329.746 494.358 331.265 495.004C332.3 495.444 332.063 497.927 333.004 499.067L333.823 498.884C333.878 498.012 333.931 497.668 334.22 496.894L335.436 496.863L336.126 496.237C337.254 495.979 338.146 495.643 339.296 495.907C338.642 497.726 336.46 497.93 335.936 499.817C336.224 499.823 336.512 499.824 336.799 499.835C337.939 499.881 337.498 499.782 338.425 500.185L335.855 502.163L335 501.719L335.707 503.223C335.927 503.159 336.144 503.086 336.366 503.03C337.194 502.823 337.638 502.853 338.456 502.992C338.665 504.032 338.767 503.568 338.207 504.41C337.211 505.906 336.208 507.36 335.09 508.77C335.341 510.032 335.816 510.599 336.876 511.362C337.407 511.743 338.022 512.02 338.595 512.329C339.212 512.663 338.974 512.497 339.48 513.056C338.678 514.259 337.996 515.544 336.738 516.318C334.113 517.97 332.161 521.668 330.394 524.187L329.672 524.188C326.395 520.696 327.886 513.068 326.407 508.559C326.345 508.371 326.278 508.186 326.214 507.999C325.077 506 323.874 505.539 321.798 504.822Z" fill="#EE9440"/>
<path d="M312.526 503.504L313.264 503.374C313.93 504.141 314.267 504.764 314.641 505.707L316.455 506.375L316.48 507.108C314.966 507.675 313.838 508.377 313.097 509.857C311.386 513.275 313.029 517.782 312.65 521.474C311.774 520.197 312.149 518.734 311.251 517.811L309.747 518.276C309.512 518.146 309.258 518.045 309.041 517.886C307.55 516.793 307.608 516.085 307.27 514.427C306.65 514.276 306.028 514.135 305.404 514.004L305.654 513.27C306.544 512.644 307.066 512.605 308.112 512.6C309.147 512.595 309.975 512.519 310.988 512.257L311.465 511.398C311.156 510.362 310.723 509.269 310.818 508.175C310.875 507.51 310.93 507.701 311.58 507.264L312.863 508.239C313.244 506.346 313.106 505.336 312.526 503.504Z" fill="#EE9440"/>
<path d="M282.718 544.481L283.859 545.567C283.899 548.47 281.652 549.95 283.537 552.779L285.734 553.054L285.876 553.717L284.476 555.722L284.76 556.229C286.118 556.391 286.342 556.582 287.479 555.865C287.284 554.667 287.417 555.279 287.067 554.031L287.709 553.825C288.305 555.173 288.248 555.937 287.739 557.321C287.537 557.869 287.306 558.408 287.078 558.945C286.36 558.833 286.268 558.837 285.497 558.62C283.92 558.176 282.63 557.172 281.936 555.679C280.392 552.356 281.663 547.793 282.718 544.481Z" fill="#EE9440"/>
<path d="M637.878 537.07C643.139 537.499 648.366 538.353 653.558 539.292C661.437 540.717 667.598 542.614 672.386 549.52C672.764 554.213 673.064 558.972 671.45 563.494C669.375 569.307 665.25 572.064 659.969 574.599C661.489 576.286 663.065 578.14 664.004 580.22C666.228 585.149 665.95 591.034 664.022 596.007C661.748 601.873 656.81 606.339 651.171 608.93C645.349 610.926 638.692 611.117 632.617 610.503C628.266 610.063 615.978 609.496 613.318 606.26C612.592 600.021 634.709 550.093 637.686 537.88L637.878 537.07Z" fill="black"/>
<path d="M636.213 577.673C638.186 577.9 640.226 578.075 642.165 578.509C645.725 579.306 649.833 581.7 651.751 584.887C652.728 586.512 653.111 588.469 652.587 590.315C651.597 593.804 648.103 596.143 645.167 597.866C639.669 599.333 634.137 599.016 628.51 598.846C630.278 591.572 633.331 584.564 636.213 577.673Z" fill="#FEFEFE"/>
<path d="M647.509 548.729C651.95 549.934 657.408 551.065 660.153 555.14C661.238 556.75 661.633 558.524 661.187 560.423C660.467 563.485 656.949 565.893 654.354 567.213C649.532 567.888 645.312 567.241 640.562 566.449C642.521 560.33 644.469 554.422 647.509 548.729Z" fill="#FEFEFE"/>
<path d="M628.758 581.489L629.837 581.622L630.14 582.187C629.215 582.762 628.46 583.225 627.687 584.006C627.517 584.177 627.359 584.361 627.196 584.539L627.199 584.341L627.656 585.322C628.242 584.451 628.27 584.166 629.253 583.708C629.662 584.84 629.378 585.905 629.196 587.058C628.967 587.298 628.616 587.697 628.327 587.851C627.298 588.398 626.797 587.987 625.861 587.548C625.355 586.431 625.01 585.605 625.5 584.379C626.175 582.688 627.271 582.246 628.758 581.489Z" fill="black"/>
<path d="M716.244 385.553C717.899 385.528 719.617 385.704 721.242 386.02C723.617 386.482 726.076 387.553 727.247 389.802C728.074 391.389 727.938 393.875 727.884 395.642C727.561 406.266 726.12 416.966 725.404 427.579C724.987 433.758 725.1 454.606 723.628 458.543C723.348 459.289 723.121 459.777 722.385 460.101C719.496 461.371 715.319 459.297 712.613 458.167C712.538 457.609 712.483 457.058 712.424 456.499C711.896 451.411 713.353 445.947 713.431 440.778C706.923 438.454 699.046 438.45 692.179 437.916C688.041 441.794 685.981 451.989 680.082 453.404C678.053 453.891 673.801 452.974 672.166 451.645C671.392 451.016 671.65 451.339 671.48 450.227C675.476 439.737 685.709 427.607 692.151 418.043C697.433 410.199 702.244 401.803 707.945 394.274C710.216 391.274 712.869 387.343 716.244 385.553Z" fill="black"/>
<path d="M716.751 399.795C718.409 404.169 715.305 422.83 714.729 428.326C710.379 428.28 706.025 428.076 701.678 427.929C701.276 427.281 701.138 427.247 701.085 426.502C700.712 421.245 713.592 404.283 716.751 399.795Z" fill="#FEFEFE"/>
<path d="M692.531 427.443C692.569 427.451 692.611 427.449 692.646 427.466C693.771 428.018 694.193 428.898 694.562 430.092C694.88 431.119 694.901 431.847 694.426 432.814C693.759 431.889 693.31 431.174 692.35 430.52L692.32 431.593C691.584 432.731 690.834 433.458 689.704 434.202L689.063 433.841C689.099 433.747 689.136 433.654 689.17 433.559C690.007 431.162 690.508 429.154 692.531 427.443Z" fill="black"/>
<path d="M564.775 379.68C568.79 379.211 574.043 380.277 577.425 382.597C581.161 385.16 583.228 389.187 584.038 393.571C585.703 402.593 581.046 413.447 575.934 420.737C570.726 428.161 564.47 431.978 555.537 433.511C550.602 433.625 545.51 432.776 541.427 429.819C537.513 426.985 535.425 422.593 534.796 417.88C533.631 409.161 537.505 398.727 542.901 391.931C548.946 384.319 555.128 380.769 564.775 379.68Z" fill="black"/>
<path d="M564.556 390.027C565.663 390.006 566.735 390.01 567.765 390.457C569.588 391.249 571.037 392.494 571.701 394.403C573.141 398.543 571.245 405.156 569.404 409.031C566.591 414.953 562.061 420.231 555.796 422.493C554.24 422.566 552.728 422.735 551.295 421.995C549.686 421.164 548.463 419.43 548.003 417.706C546.62 412.524 549.167 405.134 551.724 400.586C554.789 395.136 558.524 391.68 564.556 390.027Z" fill="#FEFEFE"/>
<path d="M539.64 407.625C539.812 407.665 539.991 407.683 540.156 407.745C541.345 408.194 542.257 408.762 543.594 408.804C544.843 408.844 543.714 408.419 545.086 409.186L545.112 411.539C544.203 412.391 543.609 412.704 542.418 413.063C540.816 412.125 540.307 409.372 539.64 407.625Z" fill="black"/>
<path d="M494.44 532.155C499.86 531.899 505.144 531.788 509.75 535.179C513.423 537.883 515.45 541.997 516.088 546.446C517.401 555.599 513.405 566.533 507.895 573.797C507.617 574.165 507.329 574.526 507.033 574.881C506.737 575.235 506.433 575.582 506.119 575.922C505.806 576.261 505.485 576.593 505.156 576.917C504.827 577.24 504.49 577.556 504.145 577.864C503.801 578.171 503.449 578.47 503.089 578.76C502.731 579.051 502.365 579.332 501.992 579.605C501.619 579.878 501.24 580.141 500.854 580.395C500.469 580.649 500.077 580.893 499.679 581.128C499.282 581.363 498.879 581.589 498.47 581.804C498.062 582.019 497.649 582.225 497.23 582.42C496.812 582.615 496.389 582.8 495.961 582.975C495.534 583.15 495.103 583.314 494.667 583.468C494.231 583.622 493.792 583.765 493.35 583.897C492.908 584.029 492.462 584.151 492.014 584.262C491.566 584.373 491.115 584.472 490.661 584.561C490.208 584.649 489.753 584.727 489.296 584.794C484.242 584.862 479.574 584.804 475.112 582.033C471.079 579.53 468.44 575.418 467.577 570.775C465.859 561.532 469.996 550.892 475.374 543.485C480.317 536.677 486.255 533.505 494.44 532.155Z" fill="black"/>
<path d="M496.621 542.499C496.873 542.532 497.127 542.555 497.378 542.597C500.632 543.144 502.164 545.176 504.053 547.647C504.343 552.739 503.638 557.396 501.407 562.006C498.558 567.896 494.284 571.949 488.15 574.163C486.929 574.169 485.792 574.136 484.633 573.694C482.705 572.959 480.96 570.808 480.337 568.89C478.904 564.473 480.505 558.734 482.526 554.75C485.661 548.572 490.027 544.557 496.621 542.499Z" fill="#FEFEFE"/>
<path d="M425.758 500.656C426.392 500.629 427.025 500.625 427.659 500.645C428.293 500.666 428.926 500.71 429.556 500.779C430.187 500.848 430.814 500.94 431.437 501.057C432.061 501.173 432.679 501.313 433.291 501.476C433.904 501.639 434.51 501.826 435.108 502.035C435.707 502.244 436.297 502.476 436.878 502.731C437.459 502.985 438.029 503.261 438.589 503.559C439.149 503.856 439.697 504.175 440.233 504.514C443.269 506.421 446.819 509.664 447.579 513.337C448.01 515.419 447.448 517.304 446.285 519.041C445.178 520.695 444.073 521.718 442.095 522.157C437.916 521.603 435.597 515.664 432.273 513.271C430.418 511.935 428.259 511.327 425.994 511.768C423.007 512.35 420.202 514.311 418.639 516.912C412.505 527.116 432.644 530.363 435.485 543.338C436.826 549.461 434.074 556.788 430.66 561.89C426.399 568.258 420.344 570.591 413.149 571.964C410.053 572.281 406.221 572.287 403.202 571.608C398.644 570.583 394.485 568.025 392.093 563.934C390.386 561.014 389.636 557.365 390.679 554.086C391.328 552.045 392.702 549.905 394.793 549.121C395.998 548.67 397.072 548.867 398.186 549.433C401.003 550.863 401.852 555.066 402.763 557.812C405.898 558.979 409.147 560.193 412.54 559.581C415.52 559.043 417.981 557.422 419.692 554.933C427.948 542.922 406.482 539.842 404.441 526.11C403.558 520.172 406.319 513.951 409.787 509.246C414.059 503.45 418.916 501.721 425.758 500.656Z" fill="black"/>
<path d="M426.005 546.805C426.108 546.869 426.224 546.915 426.313 546.997C426.925 547.554 427.346 548.1 428.068 548.561C429.521 549.49 430.206 549.947 431.049 551.471L430.375 552.184C430.013 552.945 430.058 553.239 429.28 553.631C429.06 553.457 428.834 553.292 428.621 553.111C426.803 551.568 426.078 549.092 426.005 546.805Z" fill="black"/>
<path d="M425.406 557.739L427.587 557.935L427.937 558.627L426.973 560.76L425.709 560.989L425.129 560.529L425.406 557.739Z" fill="black"/>
<path d="M492.814 350.603C498.941 350.186 505.061 352.546 509.628 356.57C511.706 358.402 514.262 361.278 514.204 364.261C514.158 366.602 512.932 368.418 511.289 369.988C510.535 370.708 509.574 371.377 508.491 371.278C506.142 371.062 504.62 368.607 503.151 366.968C500.831 364.38 498.319 361.797 494.595 361.754C491.802 361.721 488.795 363.338 486.915 365.34C485.767 366.562 485.065 368.083 485.139 369.78C485.359 374.857 490.858 378.107 494.316 381.056C498.803 384.883 502.384 389.393 502.708 395.522C503.025 401.504 500.284 409.166 496.083 413.548C495.81 413.834 495.53 414.113 495.243 414.385C494.956 414.658 494.662 414.923 494.363 415.181C494.064 415.44 493.758 415.691 493.446 415.934C493.135 416.178 492.817 416.414 492.494 416.642C492.171 416.871 491.843 417.091 491.509 417.304C491.176 417.517 490.837 417.721 490.494 417.917C490.151 418.114 489.803 418.302 489.45 418.481C489.098 418.661 488.742 418.832 488.381 418.994C488.02 419.157 487.656 419.31 487.288 419.455C486.919 419.6 486.548 419.737 486.174 419.864C485.799 419.991 485.422 420.109 485.041 420.218C484.661 420.327 484.278 420.426 483.893 420.517C483.508 420.608 483.121 420.689 482.732 420.761C482.343 420.833 481.953 420.896 481.561 420.949C481.169 421.002 480.776 421.046 480.382 421.08C479.988 421.115 479.593 421.14 479.198 421.155C474.39 421.135 470.059 420.787 465.78 418.371C462.034 416.255 458.747 412.8 457.624 408.559C457.089 406.539 457.187 404.418 458.351 402.626C460.369 399.518 463.059 398.588 466.488 397.837C467.369 400.505 468.194 403.655 470.01 405.838C472.523 408.861 475.969 408.997 479.593 409.273C482.816 407.752 485.966 406.238 487.857 403.03C488.955 401.167 489.705 397.587 488.442 395.646C483.84 388.576 475.813 387.395 473.064 376.56C471.734 371.317 472.652 366.026 475.576 361.492C479.922 354.756 485.14 352.103 492.814 350.603Z" fill="black"/>
<path d="M496.115 400.132C496.638 401.436 495.763 402.623 495.258 403.903L495.941 404.54L496.977 403.745L497.259 404.202C496.877 405.673 491.794 412.103 490.539 413.256L489.217 413.711L488.558 413.223C488.503 412.283 488.482 411.796 488.891 410.914C489.347 409.929 490.726 409.766 491.713 409.37L492.028 408.332C491.466 407.419 490.999 406.541 490.573 405.556C491.543 402.618 493.901 402.567 495.778 400.56C495.902 400.427 496.003 400.275 496.115 400.132Z" fill="black"/>
<path d="M639.343 393.653C642.004 393.485 644.921 393.126 647.555 393.595C651.873 394.362 655.695 396.713 658.206 400.323C661.011 404.355 661.926 409.303 660.969 414.094C660.005 418.921 657.584 422.537 653.568 425.296C644.761 423.343 636.09 421.447 627.026 421.413C626.949 423.754 626.836 426.254 627.136 428.582C627.419 430.778 628.246 433.19 630.154 434.493C634.55 437.497 644.034 433.654 648.881 432.611L650.756 432.649L651.512 433.496C651.888 435.371 651.782 436.559 650.685 438.212C647.749 442.636 642.77 445.098 637.656 445.962C631.851 446.943 625.299 446.292 620.485 442.68C616.805 439.92 614.843 436.298 614.365 431.742C613.468 423.193 617.696 410.689 623.118 404.034C627.271 398.936 632.649 394.34 639.343 393.653Z" fill="black"/>
<path d="M640.509 404.106C642.473 403.99 644.945 403.562 646.745 404.485C648.233 405.247 649.366 406.974 649.838 408.537C650.473 410.637 650.133 412.458 649.055 414.315C647.66 415.116 645.021 414.369 643.464 414.152C639.414 413.801 635.375 413.356 631.346 412.815C633.852 408.577 635.94 406.09 640.509 404.106Z" fill="#FEFEFE"/>
<path d="M575.824 544.646C578.271 544.804 581.03 545.121 583.336 545.996C583.871 546.201 584.394 546.432 584.906 546.69C585.417 546.948 585.914 547.231 586.397 547.539C586.879 547.848 587.344 548.18 587.793 548.536C588.242 548.892 588.671 549.27 589.082 549.67C589.492 550.07 589.881 550.49 590.248 550.929C590.615 551.368 590.96 551.825 591.281 552.3C591.602 552.775 591.897 553.264 592.168 553.769C592.439 554.274 592.684 554.791 592.902 555.32C594.847 560.083 594.371 566.053 592.233 570.672C591.47 572.323 590.329 574.689 588.635 575.577C581.657 579.234 568.942 569.662 561.954 572.159C560.56 574.023 560.279 576.579 559.775 578.816C560.464 581.304 561.12 583.76 563.007 585.633C568.399 590.983 577.785 584.712 584.269 584.883C584.433 584.888 584.596 584.898 584.759 584.906C584.966 585.472 585.17 586.038 585.326 586.62C585.748 588.183 585.355 589.432 584.518 590.75C582.07 594.608 578.029 597.023 573.645 598.054C567.707 599.45 560.474 598.688 555.315 595.274C551.218 592.563 548.819 588.286 548.067 583.482C546.762 575.149 550.427 563.593 555.335 556.825C560.625 549.53 566.978 545.999 575.824 544.646Z" fill="black"/>
<path d="M576.297 555.514C577.061 555.456 577.987 555.329 578.741 555.453C579.921 555.648 581.031 556.148 581.627 557.237C583.138 559.994 581.824 563.988 581.182 566.85L573.384 565.945C570.224 565.38 566.972 565.075 563.786 564.658C567.129 558.917 570.113 557.386 576.297 555.514Z" fill="#FEFEFE"/>
<path d="M556.73 569.352C558.59 571.114 555.475 573.269 556.086 575.48L557.695 575.243L557.902 575.974L557.269 576.727L555.252 576.758L554.712 577.794L553.769 577.81L553.073 576.854C553.066 574.229 553.513 572.371 554.6 569.991L556.73 569.352Z" fill="black"/>
<path d="M460.05 512.663C461.756 512.776 463.485 512.938 465.172 513.217C466.77 513.482 468.451 513.936 469.306 515.471C470.823 518.195 467.59 524.317 466.487 527.079C469.054 527.673 473.11 528.162 475.254 529.632C475.474 530.233 475.529 530.285 475.594 531.024C475.812 533.522 474.543 536.377 472.944 538.211C470.792 539.266 466.127 538.045 463.713 537.724C459.951 547.77 455.465 557.999 452.644 568.338C455.633 569.117 459.001 569.069 460.967 571.689C461.331 573.607 460.587 575.077 459.92 576.857C459.339 577.504 458.617 578.403 457.823 578.807C456.471 579.497 455.073 579.168 453.648 578.909C451.913 578.595 450.102 578.347 448.408 577.857C445.792 577.101 443.327 575.703 441.994 573.238C437.582 565.077 448.843 546.238 451.241 537.841C452.347 533.965 448.671 533.946 447.173 531.115C446.977 529.415 447.205 527.69 448.48 526.405C450.182 524.69 453.289 524.862 455.538 524.74C456.695 520.651 457.697 516.251 460.05 512.663Z" fill="black"/>
<path d="M457.718 529.156L459.664 528.987C459.959 529.889 457.5 533.223 457.167 534.5C456.933 535.398 456.951 535.478 457.461 536.267L459.596 536.117L459.793 536.622L458.614 538.538L456.505 538.063C455.531 537.223 455.139 536.577 454.608 535.41C454.882 533.843 455.701 533.398 456.851 532.354C455.689 532.153 455.05 532.108 454.023 531.513L454.656 530.79C455.558 530.878 456.145 530.892 457.059 530.762L457.718 529.156Z" fill="black"/>
<path d="M528.48 360.453C528.686 360.44 528.892 360.419 529.099 360.414C532.927 360.317 534.444 361.554 537.122 364.169C536.425 368.025 535.145 371.509 533.776 375.17L535.504 375.354C537.841 375.601 539.894 375.666 541.645 377.441C542.574 378.383 543.141 379.459 543.038 380.808C542.948 381.993 542.024 383.002 541.111 383.676C538.063 385.926 534.147 384.527 530.859 383.746C528.684 390.812 518.622 410.295 520.071 416.409C521.811 417.772 524.172 417.394 526.222 417.935C527.498 418.272 527.787 418.681 528.371 419.811C528.378 421.427 527.81 422.202 526.954 423.487C526.45 424.764 525.973 426.208 524.746 426.977C522.661 428.282 517.969 427.357 515.771 426.711C512.911 425.871 510.363 424.158 509.044 421.42C505.057 413.141 513.592 396.895 516.488 389.049C517.403 386.567 518.38 384.735 517.2 382.182C516.479 381.719 515.472 381.195 514.89 380.577C514.296 379.944 514.081 379.464 514.039 378.627C513.952 376.888 514.868 374.696 516.001 373.424C517.949 372.412 519.066 373.425 520.986 373.262C523.654 373.036 524.074 364.351 528.48 360.453Z" fill="black"/>
<path d="M600.314 385.892C608.83 386.085 605.362 387.961 608.511 390.531C611.291 390.571 614.031 389.115 616.625 388.163C618.012 388.541 620.049 388.915 621.168 389.79C622.431 390.777 622.866 392.982 622.765 394.5C622.657 396.099 621.789 397.692 620.599 398.746C618.305 400.778 613.49 399.742 610.616 399.559C601.949 406.632 599.847 417.643 595.995 427.629C594.696 430.84 593.066 436.917 589.921 438.678C588.38 439.54 584.653 439.027 582.991 438.498C581.667 438.076 581.187 437.678 580.543 436.481C581.821 429.267 596.142 390.741 600.314 385.892Z" fill="black"/>
<path d="M593.417 410.455L596.619 411.094L597.131 411.863L596.504 414.355L595.445 414.232C594.538 413.021 593.605 412.01 593.417 410.455Z" fill="black"/>
<path d="M531.47 538.516C533.268 538.421 534.804 538.51 536.528 539.088C539.236 539.996 539.845 540.708 541.116 543.111C542.628 543.186 543.971 541.89 545.25 541.183C547.288 540.057 549.016 540 551.211 540.783C553.025 541.431 554.702 542.701 555.429 544.533C556.03 546.05 555.889 547.5 555.217 548.981C552.816 554.277 547.487 550.355 543.376 552.147C535.554 555.557 531.771 570.837 528.765 578.378C527.236 582.333 525.892 586.271 523.632 589.881C522.05 590.141 520.483 590.373 518.876 590.358C516.833 590.339 515.507 590.066 514.04 588.525C513.842 584.865 529.045 542.128 531.47 538.516Z" fill="black"/>
<path d="M380.001 494.26C381.927 493.075 385.325 489.794 387.456 489.651C387.765 490.393 387.981 491.095 388.201 491.865C386.856 494.058 385.811 494.821 383.32 495.45C383.208 496.224 383.113 495.918 383.394 496.408C384.54 498.188 385.11 499.093 384.591 501.3C384.298 502.548 383.916 503.803 383.402 504.977C380.483 513.552 375.851 521.766 371.795 529.865C370.499 532.453 369.385 535.524 367.918 537.978L367.619 536.751C366.075 535.89 364.146 536.66 362.434 536.89C360.214 537.188 359.364 536.168 357.709 534.947C358.105 534.128 358.575 533.387 359.048 532.61C360.707 528.467 362.768 524.569 365.391 520.96L365.695 520.143C364.693 517.177 367.502 514.304 367.114 511.217C366.907 509.57 366.198 509.16 364.939 508.217L365.125 507.851C369.155 504.826 376.875 498.176 380.001 494.26Z" fill="url(#paint0_linear_112_211)"/>
<path d="M380.001 494.26C381.927 493.075 385.325 489.794 387.456 489.651C387.765 490.393 387.981 491.095 388.201 491.865C386.856 494.058 385.811 494.821 383.32 495.45C383.208 496.224 383.113 495.918 383.394 496.408C384.54 498.188 385.11 499.093 384.591 501.3C384.298 502.548 383.916 503.803 383.402 504.977C381.348 503.272 378.242 503.804 375.71 503.946C371.521 509.257 368.198 513.802 365.695 520.143C364.693 517.177 367.502 514.304 367.114 511.217C366.907 509.57 366.198 509.16 364.939 508.217L365.125 507.851C369.155 504.826 376.875 498.176 380.001 494.26Z" fill="#EE9440"/>
<path d="M375.71 503.946C378.279 501.49 380.557 498.55 383.394 496.408C384.54 498.188 385.11 499.093 384.591 501.3C384.298 502.548 383.916 503.803 383.402 504.977C381.348 503.272 378.242 503.804 375.71 503.946Z" fill="black"/>
<path d="M489.256 90.7049C498.292 89.6862 507.577 90.6214 516.591 91.399C523.12 91.9622 529.746 92.2797 536.248 93.0163C545.179 94.0281 554.07 95.5043 563.017 96.3579C570.062 97.0301 577.157 97.1024 584.212 97.7434C593.728 98.6081 603.251 100.005 612.776 100.608C622.736 101.239 632.906 101.174 642.809 102.211C647.524 102.706 652.04 104.438 656.754 104.945C680.138 107.459 703.42 109.407 726.751 112.528C730.943 113.089 735.184 113.25 739.369 113.864C749.31 115.321 759.077 117.882 769.071 119.205C789.488 121.909 809.815 124.776 830.089 128.462C838.833 130.052 847.545 130.703 855.733 134.415C859.34 136.049 862.761 140.553 864.937 143.844C876.242 160.941 862.056 178.867 858.647 195.894C858.557 195.871 858.466 195.851 858.376 195.826C846.835 192.566 832.6 193.045 820.611 191.512C809.963 190.701 799.337 188.171 788.723 186.888C768.594 184.455 748.355 182.482 728.273 179.681C711.977 177.408 695.713 174.461 679.411 172.167C673.616 171.351 667.74 171.214 661.928 170.54L610.538 164.125C551.94 155.854 493.244 148.355 434.448 141.629C434.954 140.996 435.444 140.357 435.94 139.717C440.008 134.475 442.392 128.342 445.823 122.709C449.463 116.734 454.372 110.873 458.85 105.488C467.371 95.2402 476.243 91.8375 489.256 90.7049Z" fill="#FEFEFE"/>
<path d="M629.69 128.148C636.065 127.306 642.349 129.569 648.648 130.302C663.463 132.027 678.168 133.014 692.962 135.183C695.141 137.544 696.488 139.226 696.752 142.51C696.996 145.564 696.568 148.81 694.384 151.132C692.792 152.824 690.834 153.074 688.625 153.066C681.837 152.938 674.999 153.149 668.226 152.647C662.184 152.199 656.554 150.474 650.627 149.862C643.381 149.113 635.902 149.315 628.721 148.329C626.965 148.088 625.205 147.568 623.675 146.657C621.677 145.467 620.3 143.648 619.891 141.342C619.349 138.288 620.371 133.77 622.195 131.265C623.989 128.803 626.9 128.564 629.69 128.148Z" fill="black"/>
<path d="M628.892 137.163C636.723 136.301 681.008 140.237 687.148 142.551C688.157 143.761 687.937 144.117 687.923 145.649C675.264 144.78 662.612 144.088 649.974 142.929C645.017 142.474 632.054 142.293 628.745 138.317L628.892 137.163Z" fill="#FEFEFE"/>
<path d="M594.829 127.368C598.026 127.272 601.775 127.579 604.086 130.098C604.947 131.037 605.218 132.125 605.039 133.378C604.809 134.988 603.659 136.173 602.445 137.107C599.354 137.17 594.873 137.837 592.579 135.21C592.049 134.604 591.825 133.88 591.818 133.102C591.797 130.901 593.35 128.842 594.829 127.368Z" fill="black"/>
<path d="M906.458 154C907.213 156.856 907.926 159.696 909.021 162.445C909.28 165.779 906.939 168.675 907.259 171.471C903.965 177.318 901.074 183.318 899.227 189.792C896.881 198.013 895.781 206.337 892.933 214.467C893.706 216.393 894.168 218.718 893.403 220.73C892.718 222.53 891.413 223.277 889.826 224.165C878.184 259.334 863.39 293.322 850.6 328.108L747.143 609.827C743.564 619.727 740.531 629.826 736.937 639.723C729.96 658.935 722.294 677.893 715.218 697.06C710.894 708.774 707.28 720.768 702.951 732.479C699.627 741.47 695.915 750.356 692.494 759.318L670.503 817.306L654.081 860.57C652.226 865.436 651.18 870.963 648.748 875.559C645.595 881.517 640.36 886.056 636.599 891.569C633.755 895.739 635.608 897.912 634.109 901.691C633.316 903.691 630.612 905.242 629.127 906.76C626.585 909.358 624.625 912.543 622.164 915.229C618.251 919.5 605.554 930.375 600.601 932.919C585.397 940.728 575.669 943.92 558.386 942.944C543.348 942.095 528.227 938.336 513.518 935.252L456.632 923.247L297.659 889.842C291.228 888.508 284.679 887.775 278.265 886.393C256.017 881.598 233.902 876.148 211.561 871.769C204.002 870.288 196.307 868.87 188.712 867.579C184.803 866.915 180.617 866.794 176.845 865.564C171.232 863.733 165.865 860.937 160.167 859.387C146.77 855.743 129.078 855.291 119.237 844.455C118.38 843.512 116.956 842.099 116.433 840.943C116.327 840.707 116.296 840.444 116.227 840.194C117.131 840.65 118.002 841.217 119.012 841.349C133.962 849.923 150.919 852.44 167.519 856.256C177.215 858.485 186.788 861.354 196.514 863.387C213.419 866.92 230.536 869.454 247.421 873.152C257.883 875.444 272.841 881.031 282.798 881.549C287.064 880.465 291.272 883.033 295.394 882.283C294.653 880.158 290.813 879.491 290.374 877.962C292.944 877.208 297.544 877.819 299.237 875.91L299.498 876.026C299.34 877.53 298.981 878.236 298.225 879.498L296.705 879.963C296.387 881.179 296.483 882.006 296.624 883.233C297.504 883.761 296.786 883.487 297.804 883.446C298.837 883.405 299.072 883.609 299.929 884.036C303.704 885.914 309.067 885.715 313.215 886.98L313.47 887.798C324.679 891.423 336.475 892.699 347.995 894.93C359.842 897.224 371.689 899.973 383.51 902.448L512.685 929.088C518.535 930.262 524.294 931.857 530.149 932.994C547.753 936.411 570.454 938.035 587.523 931.494C593.224 929.309 598.779 925.861 603.799 922.43C622.755 909.478 636.503 889.408 646.309 868.979C649.664 861.989 652.944 854.66 655.491 847.339C657.975 840.2 659.823 832.849 662.448 825.756C667.894 811.041 674.566 796.697 680.279 782.059C683.079 774.886 684.977 767.415 687.701 760.226C721.54 670.558 754.592 580.6 786.857 490.353L830.979 370.132L857.08 300.505C862.822 285.318 869 270.305 874.324 254.96C879.086 241.236 883.173 227.276 887.553 213.43C891.092 202.244 895.953 191.345 899.789 180.235C902.747 171.669 904.822 162.902 906.458 154Z" fill="#FEFEFE"/>
<path d="M282.798 881.549C287.064 880.465 291.272 883.033 295.394 882.283C294.653 880.158 290.813 879.491 290.374 877.962C292.944 877.208 297.544 877.819 299.237 875.91L299.498 876.026C299.34 877.53 298.981 878.236 298.225 879.498L296.705 879.963C296.387 881.179 296.483 882.006 296.624 883.233C297.504 883.761 296.786 883.487 297.804 883.446C298.837 883.405 299.072 883.609 299.929 884.036C303.704 885.914 309.067 885.715 313.215 886.98L313.47 887.798C304.615 887.216 292.231 883.183 282.798 881.549Z" fill="black"/>
<path d="M892.933 214.467C893.706 216.393 894.168 218.718 893.403 220.73C892.718 222.53 891.413 223.277 889.826 224.165C890.754 220.906 891.88 217.689 892.933 214.467Z" fill="black"/>
<path d="M897.26 227.515L898.833 228.677C894.83 247.717 886.001 264.867 879.811 283.181C868.092 318.109 855.718 352.803 842.689 387.264L826.685 428.758C821.924 441.458 817.584 454.317 812.871 467.029C810.849 472.481 808.455 477.789 806.447 483.24C771.73 580.216 736.087 676.85 699.516 773.143C691.733 793.749 684.216 814.57 676.805 835.314C674.928 840.569 673.458 845.964 671.541 851.202C668.988 858.174 665.792 864.888 662.926 871.733C660.693 877.064 658.749 882.507 656.253 887.727C645.751 909.687 636.107 926.642 615.11 940.348C600.2 950.08 589.098 954.051 571.257 955.264C561.134 955.952 552.921 955.645 542.958 953.552L340.63 912.249C312.745 906.508 284.62 901.336 256.867 895.008C250.985 893.667 245.337 891.43 239.453 890.081C226.36 887.081 213.011 884.262 199.842 881.599C192.928 880.201 185.914 879.189 179.03 877.664C173.277 876.39 167.61 874.469 161.985 872.722C150.395 869.121 142.475 866.634 131.818 860.579C137.466 862.385 143.398 862.717 149.084 864.283C160.532 867.437 171.585 872.574 183.157 875.304C189.251 876.742 195.6 877.492 201.767 878.616C216.221 881.249 230.734 883.847 245.104 886.919L396.821 919.525L481.533 937.406C507.711 943.022 534.534 949.236 561.296 951.131C573.853 952.02 584.889 950.892 596.207 945.112C600.573 942.882 604.704 940.361 608.362 937.079L608.291 936.459C608.994 935.343 609.501 933.81 610.273 932.816C611.939 930.669 615.621 930.697 617.622 928.875C622.436 924.492 623.29 917.542 630.484 914.336C631.45 912.069 634.139 909.604 634.155 907.268C634.16 906.625 634.073 905.739 634.261 905.127C634.765 903.481 635.927 902.196 637.457 901.474C644.942 897.941 649.866 890.539 653.354 883.275C656.24 877.267 657.851 870.627 660.362 864.445C663.766 856.066 668.043 848.042 671.188 839.546C677.475 822.565 683.371 805.304 689.24 788.165C691.658 781.105 693.66 773.843 696.374 766.893C721.071 703.571 745.006 639.962 768.179 576.067C774.976 557.368 781.251 538.467 788.116 519.779C793.197 505.946 798.842 492.367 804.08 478.599C807.801 468.82 811.125 458.903 814.876 449.129C818.771 438.98 823.042 428.895 826.675 418.653L845.471 365.169C846.909 361.067 848.014 356.846 849.495 352.762C861.304 320.041 873.63 287.517 886.472 255.188C890.009 246.308 891.92 235.382 897.26 227.515Z" fill="#FEFEFE"/>
<path d="M608.362 937.079L608.291 936.459C608.994 935.343 609.501 933.81 610.273 932.816C611.939 930.669 615.621 930.697 617.622 928.875C622.436 924.492 623.29 917.542 630.484 914.336C627.44 920.861 615.021 933.941 608.362 937.079Z" fill="black"/>
<path d="M909.021 162.445C913.571 176.644 908.407 196.086 904.145 210.075C903.225 216.448 900.166 222.351 898.833 228.677L897.26 227.515C898.18 224.179 903.863 200.997 903.583 199.383C903.41 198.385 903.59 198.27 903.965 197.311C904.965 192.381 908.248 179.692 907.399 175.272C907.181 174.135 907.188 173.163 907.234 172.004L907.259 171.471C906.939 168.675 909.28 165.779 909.021 162.445Z" fill="white"/>
<path d="M223.477 861.417L224.218 861.278C224.714 861.59 225.025 861.817 225.633 861.816C230.381 861.805 234.724 862.997 239.428 863.453C239.639 864.386 239.846 864.975 240.388 865.766C242.266 865.266 244.179 864.578 246.139 864.737L246.593 865.287L246.188 866.71C244.805 867.778 243.163 867.545 241.447 867.642C241.106 867.472 240.763 867.283 240.386 867.2C239.173 866.934 238.534 867.107 237.472 866.336L237.448 864.765L237.275 864.716L236.979 865.971C233.62 867.962 229.539 862.973 225.776 864.445C225.569 864.526 225.392 864.672 225.187 864.758C223.954 865.27 223.685 865.394 222.505 864.938L222.243 863.491L222.706 862.86L223.227 864.409C224.353 864.365 224.455 864.303 225.376 863.646C224.736 862.603 224.319 862.525 223.284 861.931L223.477 861.417Z" fill="black"/>
<path d="M389.159 925.74C389.401 925.744 389.646 925.711 389.884 925.752C390.788 925.909 391.639 926.373 392.631 926.498C393.376 926.591 393.743 927.162 394.303 927.662C394.069 928.528 393.333 929.228 392.776 929.926C391.994 930.131 391.586 930.3 390.919 930.797C390.729 930.939 390.549 931.094 390.364 931.242L389.912 932.03C388.272 931.639 387.161 930.856 385.781 929.912L385.841 929.222C386.543 929.074 387.158 928.955 387.804 928.626C388.544 928.25 388.87 926.541 389.159 925.74Z" fill="black"/>
<path d="M455.572 911.468L457.746 912.449C459.347 912.01 460.506 911.872 462.165 911.996C463.585 912.926 464.125 913.747 464.931 915.225C464.445 915.615 464.069 915.733 463.489 915.939C460.784 915.24 457.766 914.52 455.618 912.653L455.572 911.468Z" fill="black"/>
<path d="M105.582 836.42C104.698 836.655 105.204 836.597 104.055 836.456C103.021 835.039 102.108 833.166 102.275 831.366L102.982 831.476C104.938 832.087 106.878 832.574 108.598 833.72L108.383 834.475C107.288 834.968 106.466 835.305 105.259 835.46L105.582 836.42Z" fill="black"/>
<path d="M303.086 876.662C303.456 876.963 303.616 877.71 303.791 878.156C305.178 878.52 306.243 879.478 307.374 880.321L307.218 880.749L305.446 879.346C305.071 880.13 304.844 880.681 304.141 881.233C303.535 881.709 303.352 881.497 302.647 881.393C302.242 880.904 302.06 880.739 301.777 880.096C301.34 879.098 301.089 877.672 301.495 876.684L302.278 877.074L303.086 876.662Z" fill="black"/>
<path d="M126.521 836.552C127.783 836.685 129.047 836.795 130.313 836.881C130.305 838.124 129.153 838.844 128.312 839.728C127.605 839.602 126.692 839.867 126.006 840.004L125.221 840.165L124.696 839.708C125.077 838.482 125.781 837.578 126.521 836.552Z" fill="black"/>
<path d="M360.296 919.656C360.644 919.791 360.988 919.899 361.284 920.147C362.514 921.18 363.236 922.9 363.185 924.459L361.695 925.771C360.765 925.494 359.89 925.167 358.993 924.795C360.53 922.493 360.653 922.508 360.296 919.656Z" fill="black"/>
<path d="M873.584 104.561C874.368 104.789 875.214 105.002 875.954 105.35C876.776 105.738 877.543 106.189 877.823 107.067C876.576 107.24 875.858 106.911 874.706 106.491C875.078 107.738 875.346 108.14 875.04 109.425L874.358 109.644C874.012 109.296 873.697 109.016 873.445 108.577C872.724 107.319 873.246 105.851 873.584 104.561Z" fill="black"/>
<path d="M330.664 280.751C332.126 280.979 333.499 281.269 334.922 281.674L335.297 282.537L334.719 283.345C333.551 283.376 333.991 283.282 332.99 283.585C332.178 283.83 331.381 284.045 330.556 284.242C330.076 282.972 330.445 282.063 330.664 280.751Z" fill="black"/>
<path d="M773.587 91.0161C774.129 90.8038 773.746 90.9012 774.768 91.139C774.73 91.4758 774.741 91.8218 774.653 92.1493C774.288 93.5228 773.233 93.6392 772.082 94.1003C771.236 93.3959 770.403 92.6767 769.582 91.9427L769.574 91.3104C770.716 91.3268 771.809 91.3541 772.941 91.1554C773.158 91.1172 773.372 91.0625 773.587 91.0161Z" fill="black"/>
<path d="M110.071 829.453L110.519 828.855L111.262 828.884C112.128 827.64 112.4 826.836 113.83 826.299C114.67 826.967 114.97 827.888 114.963 829.004C114.961 829.34 114.901 829.673 114.87 830.007C112.838 829.842 111.905 830.552 110.071 829.453Z" fill="black"/>
<path d="M736.942 82.3359C738.288 83.4106 738.659 84.5412 738.952 86.1593L738.074 87.3771C736.668 86.5455 736.395 86.3368 735.564 84.94C735.75 83.4682 735.9 83.4215 736.942 82.3359Z" fill="black"/>
<path d="M253.647 867.055L254.399 867.306C255.559 868.633 255.497 870.626 255.526 872.339C254.682 872.205 254.113 872.01 253.33 871.696C252.657 870.017 253.264 868.796 253.647 867.055Z" fill="black"/>
<path d="M412.451 931.231C412.865 932.086 413.155 932.755 412.97 933.735C412.733 934.989 412.008 935.107 410.986 935.604L409.107 934.875L408.292 934.895L408.103 934.372C409.176 934.198 409.996 934.066 411 933.617C412.022 933.16 412.07 932.231 412.451 931.231Z" fill="black"/>
<path d="M782.407 573.556L782.87 573.594C782.914 574.287 782.881 574.738 782.571 575.372C782.153 576.228 782.056 576.719 781.143 577.042L781.222 575.936C780.757 575.342 779.866 574.803 779.269 574.322C780.255 574.329 780.822 574.314 781.745 573.896C781.971 573.794 782.186 573.669 782.407 573.556Z" fill="black"/>
<path d="M644.738 75.3836C646.218 75.339 647.702 75.0586 648.944 76.0061L648.851 77.1285L647.166 77.8086C645.769 77.3218 645.556 76.5842 644.738 75.3836Z" fill="black"/>
<path d="M600.686 70.7024C600.87 70.6844 601.052 70.6612 601.236 70.6485C603.111 70.5187 603.563 70.6685 604.965 71.8454C603.022 71.9139 602.186 71.9614 600.686 70.7024Z" fill="black"/>
<path d="M707.365 903.123C706.445 903.994 705.839 904.761 705.225 905.873C700.095 915.163 645.886 954.611 635.408 958.873C633.223 959.762 630.49 960.427 628.253 959.393C627.421 959.008 627.577 958.749 627.334 957.941C629.707 951.862 645.714 944.254 651.257 940.046C654.148 937.851 656.808 935.305 659.777 933.224C665.835 928.977 671.839 925.174 677.691 920.588C687.412 912.97 696.861 903.417 707.732 897.595C707.583 899.426 707.35 901.286 707.365 903.123Z" fill="black"/>
<path d="M658.305 912.766L659.293 912.603C659.411 912.462 659.525 912.319 659.646 912.181C663.68 907.56 670.032 903.745 674.922 900.034C682.373 894.381 689.513 888.511 697.284 883.288C704.478 878.453 716.296 873.362 721.084 866.04C721.46 866.889 721.372 867.137 721.473 868.006C721.498 868.226 721.555 868.441 721.596 868.658C722.312 867.926 722.473 867.543 722.907 866.64C723.385 865.646 723.6 865.077 724.623 864.559C725.166 864.703 725.33 865.227 725.638 865.679C724.717 868.414 720.167 869.437 718.042 871.233C715.35 873.507 713.545 876.881 711.276 879.572C708.984 882.291 706.321 884.799 703.8 887.305C702.672 888.426 701.488 889.938 700.07 890.684C699.257 891.112 698.621 891.239 697.716 891.368C695.648 891.661 690.758 896.947 688.85 898.373C680.666 904.494 672.101 910.125 663.819 916.114C660.567 918.465 657.541 921.114 654.299 923.485C653.018 923.113 651.76 922.627 650.5 922.186L651.255 921.174C651.302 919.811 651.097 918.765 650.75 917.467L650.618 916.984C652.814 914.417 656.058 915.245 658.305 912.766Z" fill="black"/>
<path d="M674.798 878.345L675.498 877.788C677.344 876.289 678.908 874.362 680.706 872.763L680.714 872.146L679.561 871.705C681.234 869.467 684.027 869.184 686.241 867.727C688.103 866.501 689.837 864.028 691.304 862.315L692.186 862.73C693.835 862.011 694.926 861.164 696.267 859.974L696.17 859.333L694.243 859.794C694.745 858.722 695.617 858.317 696.557 857.628C696.694 857.719 696.828 857.816 696.969 857.901C697.649 858.314 697.395 858.176 698.302 858.317C700.863 856.124 704.847 852.289 708.209 851.653L708.907 852.017L709.179 852.916L707.474 854.089C707.392 854.845 707.391 855.509 707.457 856.266C705.332 858.678 700.69 858.525 699.237 860.847C696.655 864.973 691.737 868.468 688.264 871.949C683.23 876.993 676.109 884.42 671.718 889.909L671.208 889.246C671.361 888.202 671.34 888.565 671.371 887.769C671.521 883.99 672.99 881.575 674.798 878.345Z" fill="black"/>
<path d="M707.732 897.595C709.138 896.421 710.591 895.067 712.151 894.108C712.928 893.63 725.545 888.713 725.985 888.726L726.284 889.18C725.601 890.301 725.035 891.426 723.652 891.75C723.506 891.784 722.243 891.894 722.144 891.904C716.361 892.5 714.028 901.569 707.365 903.123C707.35 901.286 707.583 899.426 707.732 897.595Z" fill="black"/>
</g>
<defs>
<linearGradient id="paint0_linear_112_211" x1="386.024" y1="510.097" x2="356.406" y2="531.392" gradientUnits="userSpaceOnUse">
<stop/>
<stop offset="1"/>
</linearGradient>
<clipPath id="clip0_112_211">
<rect width="1024" height="1024" fill="white"/>
</clipPath>
</defs>
</svg>
