<svg width="1024" height="1024" viewBox="0 0 1024 1024" fill="none" xmlns="http://www.w3.org/2000/svg">
<g clip-path="url(#clip0_16_601)">
<path d="M0 0H1024V1024H0V0Z" fill="#FEFEFE"/>
<path d="M453.613 911.538C454.276 911.503 454.852 911.765 455.481 911.959L455.819 912.647C454.555 915.785 448.706 918.97 445.892 920.967L443.864 919.575C443.426 918.539 443.209 918.111 443.862 917.021C445.473 914.328 450.828 912.668 453.613 911.538Z" fill="#231F20"/>
<path d="M585.729 911.938C585.848 912.073 585.988 912.192 586.086 912.343C586.751 913.363 587.047 914.046 586.509 915.213C584.769 918.995 575.872 922.806 572.145 924.659C571.867 924.363 571.526 924.022 571.312 923.681C570.58 922.514 570.598 922.185 570.837 920.912C573.43 917.277 581.667 914.476 585.729 911.938Z" fill="#231F20"/>
<path d="M644.623 915.927C645.703 916.107 645.83 916.716 646.487 917.546C642.889 922.718 628.411 929.115 622.18 931.043C621.145 929.946 620.532 929.514 620.163 928.03C622.953 924.477 639.902 918.037 644.623 915.927Z" fill="#231F20"/>
<path d="M664.207 927.059C665.298 927.054 665.735 927.18 666.655 927.767L666.604 928.639C662.427 932.791 647.875 939.407 641.777 943.047C641.153 943.024 640.346 942.894 639.81 942.56C638.905 941.996 638.711 941.501 638.601 940.514C642.403 935.42 657.814 928.142 664.207 927.059Z" fill="#231F20"/>
<path d="M724.449 941.485C724.962 941.518 725.727 941.55 726.21 941.67C727.515 941.994 727.835 942.222 728.43 943.314L727.374 943.838L727.901 943.919C723.412 947.965 717.498 951.081 712.469 954.475C707.66 957.721 703.125 961.335 698.261 964.506C697.074 964.512 696.134 964.11 695.02 963.739C694.314 962.806 694.404 962.83 694.535 961.652C698.116 956.135 717.87 945.231 724.449 941.485Z" fill="#231F20"/>
<path d="M742.22 111.713C742.294 111.696 742.367 111.666 742.443 111.662C745.511 111.477 748.596 114.232 750.88 116.165C757.597 121.85 766.216 131.032 769.507 139.287C773.583 149.51 775.743 163.985 777.689 174.966C784.588 213.905 788.192 253.368 792.408 292.667L798.721 349.452C799.824 358.861 801.274 368.208 802.133 377.648C803.483 375.245 805.007 372.927 806.514 370.62C816.722 354.99 836.839 345.374 854.618 341.711C881.72 336.127 911.526 340.934 934.785 356.386C946.167 363.948 958.531 376.285 961.184 390.224C963.663 403.248 958.966 418.341 951.569 429.045C942.655 441.944 927.517 449.827 912.261 452.572C908.18 453.269 904.075 453.781 899.947 454.106C895.819 454.431 891.685 454.569 887.545 454.52C878.185 454.336 869.444 452.031 860.233 450.894C853.923 450.115 847.18 450.285 840.985 449.153C838.82 448.757 837.209 447.955 835.414 446.714C826.499 449.284 817.353 450.796 808.15 451.846C809.535 456.825 810.173 462.2 811.089 467.296C812.346 474.287 813.796 481.235 815.131 488.212C820.802 517.851 824.827 546.53 828.672 576.424C830.162 588.004 832.071 599.551 833.19 611.174C834.337 623.106 834.621 635.033 835.509 646.963C839.595 650.227 857.549 647.546 863.564 651.88C864.884 652.832 865.76 654.206 865.901 655.844C866.268 660.095 864.069 665.534 862.845 669.604C860.728 676.646 851.433 704.215 852.017 708.968C852.833 709.888 853.838 710.07 854.99 710.362C861.297 711.962 868.235 712.526 874.668 713.693C885.529 715.662 896.239 718.049 907.155 719.767C914.88 720.982 923.655 721.246 931.032 723.599C931.21 723.656 931.387 723.719 931.564 723.779C932.734 724.99 933.698 726.409 934.697 727.762C933.2 734.93 928.518 741.267 925.378 747.83C922.958 752.89 921.177 758.261 919.516 763.612C915.858 775.392 912.814 787.419 909.564 799.319C901.595 828.496 894.378 857.563 888.249 887.19C886.665 894.846 882.142 926.644 879.317 931.49C877.618 934.403 874.498 936.451 872.035 938.681C882.447 938.866 895.282 944.087 905.108 947.929C910.027 949.852 919.223 952.804 921.438 957.872C921.383 959.386 921.342 960.223 920.117 961.32C917.508 963.656 913.016 967.687 909.283 967.295C908.082 967.168 907.954 967.077 907.235 966.199C907.607 963.317 912.843 960.453 914.892 958.229C911.905 956.562 907.688 953.847 904.302 953.37C898.458 952.546 883.19 967.099 877.65 970.726C876.289 971.618 874.855 972.538 873.176 972.212C872.537 971.348 872.247 970.967 872.56 969.803C874.045 964.281 891.692 954.086 896.931 950.504C893.06 948.692 888.22 946.514 883.915 946.193C881.114 945.983 879.221 946.601 877.094 948.403C872.586 952.22 867.533 955.368 863.216 959.414C859.863 962.557 851.538 972.796 848.152 974.306C847.068 974.79 845.756 974.933 844.642 974.531C844.303 973.753 844.209 973.933 844.432 973.197C845.287 970.379 847.984 967.906 849.933 965.769C857.854 957.088 865.693 950.318 875.922 944.445C873.137 942.982 870.554 941.738 867.526 940.857C859.337 945.3 851.359 950.093 843.592 955.238C840.287 957.452 836.386 961.353 832.854 962.848C830.378 963.897 826.437 962.18 824.084 961.288C818.849 964.22 813.655 967.246 808.755 970.716C804.613 973.65 800.718 976.916 796.422 979.631C795.241 979.684 794.429 979.81 793.45 978.957C792.518 978.145 792.665 977.432 792.706 976.339C794.525 974.055 813.512 962.194 817.285 960.108C807.199 957.207 797.139 954.218 787.106 951.14C783.213 955.281 768.953 966.646 764.316 969.523C762.505 970.646 761.03 971.484 758.891 970.971C758.576 970.373 758.376 969.986 758.428 969.282C758.479 968.603 758.645 967.911 759.086 967.374C762.043 963.777 776.713 953.202 781.496 949.564C775.724 948.036 760.49 944.256 755.13 944.786C755.639 945.988 755.877 946.563 755.618 947.86C751.421 952.068 736.576 963.753 731.134 965.3C729.585 965.74 728.673 965.608 727.311 964.803L727.234 963.934C729.512 959.713 749.228 947.091 754.425 944.407C745.084 943.605 735.205 941.804 726.021 939.904C720.612 938.784 698.719 932.555 695.547 932.975C695.183 933.023 694.873 933.265 694.536 933.41C693.723 934.622 692.877 936.079 691.681 936.945C686.515 940.685 669.625 951.191 664.077 953.684C662.366 954.453 660.822 954.991 658.938 954.634C658.43 953.872 658.299 954.061 658.556 953.267C660.164 948.307 685.659 935.886 691.518 931.951L692.075 931.573C684.092 928.895 674.831 927.759 666.484 926.456C661.763 925.719 655.766 925.52 651.475 923.411C650.076 920.851 651.115 918.354 651.826 915.748C646.264 914.589 622.57 911.962 618.468 913.923C613.7 916.204 604.813 927.613 600.593 928.329C600.202 928.058 599.601 927.674 599.309 927.309C598.553 926.36 598.515 925.689 598.604 924.581C602.219 920.065 608.656 915.856 613.466 912.637C604.129 912.132 563.944 907.902 558.721 910.435C552.059 913.666 545.839 921.11 537.654 925.28C537.089 925.064 536.343 924.696 535.911 924.282C534.952 923.365 535.031 922.789 535.097 921.598C541.331 917.642 547.112 913.718 552.626 908.805C544.839 907.861 536.874 908.011 529.036 907.896C525.284 911.454 519.118 916.285 514.229 918.081C512.7 918.643 511.88 918.579 510.427 917.899L510.175 916.931C511.721 913.266 518.072 910.176 521.213 907.532C514.57 907.255 505.074 905.852 498.803 907.765C493.311 909.441 483.163 921.755 477.931 921.132C477.106 919.844 477.098 919.807 477.223 918.282C479.89 913.606 486.464 910.598 490.669 907.227C467.089 905.371 440.581 907.154 416.997 909.223C414.229 912.559 402.749 922.39 398.938 924.511C397.793 925.148 397.17 925.091 395.958 924.753C395.067 923.808 394.779 923.257 394.466 921.997C395.422 920.029 406.931 912.022 409.462 909.93C391.569 909.675 372.788 911.824 355.098 914.474C352.911 916.616 341.101 927.294 338.984 928.444C338.036 928.959 337.881 928.809 336.934 928.47C335.917 927.301 335.592 927.038 335.293 925.471C336.648 922.34 343.491 917.927 346.364 915.548C336.529 915.598 326.631 917.774 316.852 918.711C297.827 920.535 278.705 922.389 259.825 925.396C232.349 929.771 204.976 936.185 177.996 942.951C171.663 944.474 165.392 946.218 159.181 948.181C153.989 949.818 119.742 961.925 117.013 961.816C116.82 961.809 116.631 961.763 116.44 961.736L116.473 961.791L115.516 960.543C115.576 960.046 115.527 960.227 115.826 959.57C116.611 957.844 118.684 956.309 120.306 955.431C124.36 953.234 130 952.084 134.47 950.618C147.673 946.287 161.299 942.029 174.765 938.602C184.246 936.188 194.218 934.527 203.455 931.311L204.314 931.008C203.653 925.397 202.019 919.684 200.691 914.191C197.478 900.898 193.575 887.421 191.077 874.013C175.247 876.321 160.216 874.475 145.262 869.035C123 860.936 98.7518 844.232 88.6643 822.162C80.3281 803.924 80.1759 775.017 87.2025 756.343C94.8929 735.905 109.232 716.191 127.858 704.498C132.866 701.354 138.406 699.022 143.783 696.587C139.296 684.981 135.122 668.527 133.179 656.228C132.456 651.655 133.054 646.791 132.12 642.314C131.428 638.998 129.767 635.865 128.993 632.483C120.045 634.461 111.24 637.99 102.751 641.393C100.787 639.495 99.4835 637.078 98.3798 634.599C95.2192 627.498 93.2501 619.6 90.6032 612.267L72.2022 562.547C69.4344 555.156 60.291 540.029 59.8942 533.965C60.2396 533.065 60.705 532.65 61.4543 532.076C65.7974 528.746 71.3317 526.159 76.081 523.356C88.4948 516.031 104.803 505.823 117.943 500.421C119.155 499.923 120.508 499.469 121.829 499.812C124.316 500.458 125.908 504.249 127.107 506.299C133.56 502.023 139.176 495.638 145.359 490.814C170.242 471.4 196.167 450.677 224.547 436.563C211.778 387.376 196.515 339.017 185.91 289.265C182.301 272.33 178.667 255.204 176.896 237.959C175.476 224.125 176.326 211.243 185.542 200.143C191.528 192.935 200.339 188.506 209.028 185.451C223.114 180.497 237.969 177.842 252.526 174.674C303.711 163.535 355.973 157.036 407.87 150.095C430.364 147.087 452.792 143.457 475.275 140.328C515.463 134.694 555.722 129.619 596.051 125.103C619.267 122.456 642.568 121.91 665.833 119.859C691.348 117.61 716.709 113.919 742.22 111.713Z" fill="#231F20"/>
<path d="M555.922 676.453C556.916 676.905 558.136 677.716 558.728 678.686C559.289 679.605 559.196 680.413 558.755 681.364C557.52 684.03 553.672 684.978 551.12 685.637C548.022 684.952 546.356 684.259 544.228 681.845C544.381 680.796 544.636 680.127 545.369 679.325C546.081 678.545 547.391 677.201 548.44 677.168C548.58 678.886 548.54 680.482 549.552 681.95C550.612 682.74 551.173 682.901 552.485 683.015C555.24 681.646 554.423 679.577 555.558 677.19C555.676 676.943 555.801 676.699 555.922 676.453Z" fill="#FEFEFE"/>
<path d="M529.295 565.532C533.142 565.383 538.607 565.765 542.267 567.018C543.733 567.52 544.433 568.018 545.083 569.413C544.479 570.886 543.59 571.325 542.351 572.296C541.74 572.631 541.724 572.66 540.981 572.955C538.098 574.099 535.686 573.577 532.934 572.284C531.328 571.529 529.65 570.204 529.088 568.465C528.628 567.042 528.642 566.865 529.295 565.532Z" fill="#FEFEFE"/>
<path d="M456.712 677.214C457.438 677.775 458.042 678.282 458.646 678.983C458.809 679.173 458.964 679.371 459.123 679.565C460.498 679.579 461.721 679.731 463.077 679.964C464.131 680.784 464.445 680.93 464.508 682.381C464.61 684.71 463.123 687.105 461.488 688.576C460.459 688.917 459.06 689.364 457.975 689.363C456.71 689.362 455.509 688.82 454.607 687.935C453.364 686.716 452.998 685.043 453.101 683.359C453.284 680.388 454.595 679.151 456.712 677.214Z" fill="#FEFEFE"/>
<path d="M145.145 626.546C145.689 626.609 146.05 626.94 146.503 627.232C147.859 629.411 148.165 632.138 148.688 634.624C144.917 635.139 141.356 637.64 137.615 637.292C137.154 637.436 136.504 637.37 136.017 637.379C134.346 635.977 134.146 632.112 133.796 630.001C137.509 628.676 141.362 627.66 145.145 626.546Z" fill="#FEFEFE"/>
<path d="M143.842 646.393C145.931 648.047 148.051 649.663 149.607 651.86C155.797 660.598 159.117 681.523 161.148 692.248L156.611 693.425C154.699 693.439 152.849 694.097 151.021 694.617C147.097 679.791 142.07 665.558 140.635 650.19L143.842 646.393Z" fill="#FEFEFE"/>
<path d="M212.971 866.147C214.639 868.624 215.323 872.508 216.154 875.406C217.911 881.537 219.902 887.755 221.204 893.995C223.418 904.608 224.852 915.28 227.362 925.858C224.022 927.328 220.752 927.66 217.163 928.071C214.429 923.109 212.607 909.823 211.143 903.493C208.459 892.126 205.693 880.78 202.845 869.453C206.33 868.531 209.645 867.545 212.971 866.147Z" fill="#FEFEFE"/>
<path d="M517.481 566.686C519.115 566.445 520.887 566.509 522.542 566.451C522.891 567.521 523.283 568.575 523.719 569.613C526.175 575.341 530.552 577.756 536.06 579.906C537.077 579.808 538.09 579.686 539.101 579.54C544.146 578.783 548.471 575.797 551.465 571.756C558.856 576.51 564.132 582.64 567.258 590.891C574.74 610.646 571.34 626.607 563.021 645.109C549.593 645.187 536.282 644.415 522.875 643.814C502.337 642.286 482.295 645.287 461.833 646.137C462.032 625.37 465.651 606.16 478.382 589.173C488.749 575.341 500.591 569.094 517.481 566.686Z" fill="#FEFEFE"/>
<path d="M119.605 505.495C120.111 505.824 120.187 505.833 120.646 506.365C126.875 513.579 162.536 604.455 162.289 613.724C156.539 617.216 148.958 619.123 142.592 621.332C131.725 625.154 120.822 628.868 109.882 632.473L104.316 634.492C101.921 628.809 100.07 622.791 97.9396 616.995C93.2372 603.844 88.4297 590.732 83.5172 577.659C78.1926 563.127 73.1437 549.301 65.9539 535.516C83.0443 524.238 101.547 515.07 119.605 505.495Z" fill="#FEFEFE"/>
<path d="M126.629 590.546C129.383 590.349 131.464 590.814 134.029 591.882C137.764 593.438 141.11 596.356 142.572 600.198C143.589 602.871 143.848 606.239 142.595 608.88C141.275 611.662 138.986 613.466 136.175 614.577C133.681 615.309 131.82 615.573 129.258 615.021C125.858 614.287 122.935 612.324 121.101 609.35C120.874 608.98 120.666 608.6 120.477 608.209C120.288 607.818 120.12 607.418 119.972 607.01C119.824 606.602 119.697 606.187 119.591 605.766C119.486 605.345 119.402 604.92 119.339 604.49C119.276 604.061 119.236 603.629 119.217 603.195C119.199 602.762 119.203 602.328 119.228 601.895C119.254 601.462 119.302 601.031 119.371 600.602C119.44 600.173 119.531 599.749 119.644 599.33C120.685 595.358 123.188 592.609 126.629 590.546Z" fill="#231F20"/>
<path d="M128.632 595.723C131.032 596.139 133.351 597.115 135.133 598.821C136.748 600.368 137.797 602.389 137.677 604.665C137.549 607.099 136.107 608.208 134.398 609.712C133.01 609.727 131.442 609.811 130.086 609.504C127.97 609.026 126.227 607.133 125.2 605.319C125.088 605.12 124.987 604.915 124.897 604.704C124.806 604.494 124.727 604.28 124.658 604.061C124.59 603.843 124.533 603.622 124.488 603.397C124.443 603.173 124.409 602.947 124.387 602.719C124.365 602.491 124.355 602.263 124.357 602.034C124.359 601.805 124.373 601.577 124.398 601.35C124.423 601.123 124.46 600.897 124.509 600.673C124.558 600.45 124.618 600.229 124.69 600.012C125.401 597.883 126.677 596.695 128.632 595.723Z" fill="#FEFEFE"/>
<path d="M872.698 344.793C874.959 344.648 877.234 344.513 879.5 344.533C901.014 344.724 928.856 355.37 943.846 371.07C951.134 378.702 957.051 387.641 956.757 398.575C956.502 408.037 951.479 416.129 944.709 422.444C929.895 436.262 903.076 442.817 883.157 442.538C874.038 442.411 865.183 440.663 856.164 440.36L855.625 440.347C848.781 440.569 841.699 439.711 834.922 440.302C829.526 440.774 824.045 443.296 818.65 444.273C809.651 445.904 800.568 446.2 791.499 447.183C797.637 443.395 815.893 430.503 819.953 425.36C820.512 424.653 821.3 423.769 820.969 422.779C820.4 421.075 818.5 419.354 817.289 418.055C811.321 411.654 805.188 405.028 804.451 395.837C803.698 386.444 808.069 376.83 814.026 369.774C828.812 352.259 850.826 346.595 872.698 344.793Z" fill="#FEFEFE"/>
<path d="M879.297 354.285C880.524 354.26 881.591 354.359 882.799 354.573C885.898 357.005 895.088 375.27 897.496 379.473C904.605 379.452 929.763 379.034 934.866 381.032C936.28 381.586 936.622 382.205 937.158 383.504C936.737 390.715 923.168 396.943 917.769 400.77C915.142 402.632 912.855 404.823 910.574 407.087C912.23 415.509 916.77 423.01 917.566 431.66C917.117 432.141 916.77 432.435 916.142 432.661C914.782 433.149 914.54 433.192 913.225 432.621C908.082 430.39 903.285 425.997 898.61 422.875C894.61 420.203 890.287 418.098 885.987 415.96C883.821 414.554 882.305 413.227 880.626 411.242C877.862 413.657 874.794 415.527 871.648 417.39C866.24 420.593 851.941 429.307 846.286 427.851C845.639 427.302 845.192 427.138 844.971 426.266C843.543 420.632 856 403.251 859.305 397.609C852.784 393.649 844.072 391.63 838.338 386.767C836.715 385.391 836.05 383.843 835.922 381.738C835.82 380.066 836.039 378.787 837.274 377.538C841.516 373.246 865.031 376.187 871.648 376.621C873.527 369.025 875.062 360.982 879.297 354.285Z" fill="#FABD1C"/>
<path d="M881.295 362.223C885.546 364.674 890.249 380.32 893.929 384.79C895.57 385.474 923.533 385.12 927.123 385.175C922.916 387.897 918.649 390.606 914.253 393.021C911.316 394.634 908.115 395.96 905.321 397.795C904.399 398.4 903.537 399.055 903.081 400.096C901.299 404.168 910.122 420.097 911.891 424.973C907.788 422.093 904.451 417.924 900.725 414.552C896.766 410.968 892.252 408.324 887.705 405.572C886.318 404.593 884.549 403.167 882.877 402.797C881.707 402.537 881.201 402.686 880.133 403.213C876.694 404.912 873.467 407.592 870.152 409.584C864.531 412.962 858.58 415.769 852.947 419.177C857.489 411.925 865.451 402.114 868.798 394.956C861.706 392.242 851.623 385.573 845.503 380.97C851.268 381.048 856.979 380.567 862.746 381.096C866.363 381.428 871.225 382.968 874.714 382.051C877.406 380.27 879.724 366.316 881.295 362.223Z" fill="#FEFEFE"/>
<path d="M265.961 423.631C269.365 423.419 272.87 423.089 276.179 424.108C279.138 425.019 281.724 426.771 283.098 429.618C285.204 433.984 283.733 438.372 282.31 442.657C276.24 448.773 265.632 452.291 257.98 456.12C250.72 459.753 242.885 463.874 236.25 468.547C234.065 470.086 232.31 471.58 231.851 474.304C232.271 475.591 232.426 475.718 233.471 476.596C234.941 476.89 236.01 476.816 237.361 476.163C244.188 472.86 250.854 467.983 257.397 464.068C263.348 460.506 269.575 457.649 275.772 454.563C279.885 452.515 283.904 450.149 288.125 448.337C293.167 446.173 299.314 445.418 304.467 447.667C306.37 448.498 308.021 449.837 308.765 451.825C309.571 453.979 309.154 456.514 308.23 458.56C303.608 468.794 272.379 479.977 261.614 483.745C257.691 485.118 252.95 486.138 249.259 487.963C248.059 488.556 248.066 489.034 247.723 490.22C248.137 491.742 248.439 492.336 249.54 493.464C249.988 493.62 250.411 493.899 250.884 493.933C253.046 494.089 266.245 488.11 269.314 487.147C273.901 485.706 278.869 485.096 283.587 484.18C290.294 482.879 297.013 481.4 303.759 480.326C309.627 479.391 316.127 479.158 321.098 482.827C321.275 482.958 321.449 483.092 321.624 483.224C313.735 496.375 302.846 501.257 289.02 506.547L270.186 513.785C267.159 514.935 262.944 515.727 260.209 517.242C259.19 517.807 258.986 518.352 258.719 519.446C258.448 520.557 258.591 521.722 259.236 522.683C260.344 524.332 262.983 523.087 264.398 522.527C277.128 517.492 288.703 512.182 302.81 514.641C305.902 515.181 310.496 516.786 312.363 519.467C312.569 520.511 312.623 521.286 312.324 522.307C311.152 526.312 307.264 528.087 303.915 530.004C299.211 532.267 293.98 533.947 288.966 535.373C283.084 537.046 264.361 539.939 260.896 544.613C260.381 545.309 260.655 545.79 260.749 546.592C263.791 550.782 271.201 547.648 275.725 547.569C278.918 547.514 282.31 548.19 285.288 549.323C289.066 550.761 295.538 555.399 296.803 559.528C297.126 560.581 296.991 561.394 296.471 562.331C295.337 564.372 292.163 565.915 290.141 566.858C272.589 575.049 250.193 569.905 231.542 573.347C219.024 575.657 207.115 581.086 195.274 585.615C185.055 589.568 174.689 593.085 164.174 596.166C161.103 588.937 158.724 581.352 155.847 574.033C147.724 552.867 139.097 531.908 129.968 511.155C161.069 482.719 196.71 458.405 233.582 438.117C243.916 432.432 254.326 426.194 265.961 423.631Z" fill="#FED496"/>
<path d="M167.439 696.706C167.591 696.687 167.741 696.662 167.894 696.648C186.583 694.976 205.234 703.191 219.634 714.568C239.584 730.33 252.713 750.658 255.702 776.096C258.347 798.605 252.153 822.192 237.913 839.994C222.353 859.447 203.573 865.676 179.688 868.443C159.154 867.201 147.512 862.448 131.487 849.506C108.494 830.937 92.8496 810.18 89.7245 779.819C87.818 761.297 99.947 739.385 111.442 725.516C125.641 708.385 145.413 698.693 167.439 696.706Z" fill="#FBBE1D"/>
<path d="M161.92 714.461C162.673 714.336 163.429 714.224 164.187 714.125C164.944 714.025 165.703 713.938 166.463 713.863C167.223 713.788 167.984 713.726 168.747 713.676C169.509 713.627 170.272 713.59 171.035 713.565C171.799 713.54 172.563 713.528 173.326 713.529C174.09 713.53 174.854 713.543 175.617 713.569C176.381 713.595 177.144 713.633 177.906 713.684C178.668 713.735 179.429 713.799 180.189 713.875C180.949 713.951 181.708 714.04 182.465 714.141C183.222 714.242 183.978 714.355 184.731 714.481C185.484 714.607 186.235 714.745 186.984 714.896C187.733 715.047 188.48 715.21 189.223 715.385C189.966 715.56 190.707 715.748 191.444 715.948C192.181 716.148 192.915 716.36 193.646 716.583C194.376 716.807 195.102 717.043 195.825 717.291C196.548 717.539 197.266 717.799 197.98 718.07C198.694 718.341 199.403 718.625 200.108 718.92C200.813 719.215 201.512 719.521 202.207 719.839C202.902 720.157 203.591 720.486 204.274 720.827C204.958 721.168 205.636 721.52 206.308 721.883C206.98 722.246 207.646 722.62 208.306 723.005C208.966 723.39 209.619 723.785 210.266 724.192C210.913 724.599 211.552 725.016 212.185 725.443C212.818 725.87 213.444 726.308 214.063 726.757C214.682 727.205 215.293 727.663 215.896 728.131C216.499 728.6 217.095 729.078 217.683 729.566C218.27 730.054 218.85 730.552 219.421 731.059C219.992 731.566 220.555 732.082 221.109 732.608C221.664 733.133 222.209 733.668 222.746 734.211C223.283 734.755 223.81 735.307 224.329 735.868C224.847 736.429 225.356 736.999 225.856 737.576C226.355 738.154 226.845 738.74 227.326 739.334C227.807 739.928 228.277 740.53 228.737 741.139C229.198 741.748 229.648 742.365 230.089 742.99C230.529 743.614 230.959 744.245 231.378 744.884C231.797 745.522 232.206 746.167 232.604 746.819C233.003 747.471 233.39 748.129 233.766 748.794C234.143 749.459 234.508 750.129 234.863 750.806C235.217 751.483 235.56 752.165 235.892 752.853C236.224 753.541 236.544 754.234 236.853 754.933C237.162 755.632 237.46 756.335 237.745 757.044C238.031 757.753 238.305 758.466 238.568 759.183C238.83 759.9 239.08 760.622 239.319 761.347C239.558 762.073 239.784 762.803 239.999 763.536C240.213 764.269 240.415 765.005 240.606 765.745C240.796 766.485 240.974 767.228 241.14 767.973C241.305 768.719 241.459 769.467 241.6 770.218C241.741 770.969 241.87 771.721 241.986 772.476C242.102 773.231 242.206 773.988 242.297 774.747C242.388 775.505 242.467 776.265 242.534 777.026C242.6 777.787 242.654 778.548 242.695 779.311C242.736 780.074 242.765 780.838 242.781 781.601C242.797 782.365 242.8 783.129 242.791 783.892C242.782 784.656 242.761 785.42 242.726 786.183C242.692 786.946 242.645 787.709 242.586 788.47C242.527 789.231 242.455 789.992 242.37 790.751C242.285 791.51 242.188 792.268 242.079 793.024C241.97 793.78 241.848 794.534 241.713 795.286C241.579 796.038 241.432 796.788 241.273 797.535C241.114 798.282 240.943 799.026 240.759 799.768C240.576 800.509 240.38 801.247 240.172 801.982C239.965 802.717 239.745 803.449 239.513 804.177C239.281 804.904 239.037 805.628 238.781 806.348C238.525 807.068 238.257 807.783 237.978 808.494C237.699 809.205 237.408 809.911 237.105 810.612C236.802 811.314 236.488 812.01 236.162 812.701C235.837 813.392 235.5 814.078 235.152 814.757C234.803 815.437 234.444 816.111 234.074 816.779C233.703 817.447 233.322 818.109 232.93 818.765C232.537 819.42 232.134 820.069 231.721 820.711C231.308 821.354 230.884 821.989 230.449 822.617C230.014 823.245 229.569 823.866 229.114 824.48C228.659 825.093 228.194 825.699 227.719 826.297C227.244 826.896 226.76 827.486 226.265 828.068C225.77 828.651 225.266 829.225 224.753 829.79C224.24 830.356 223.717 830.913 223.186 831.461C222.654 832.01 222.113 832.549 221.564 833.08C221.015 833.611 220.457 834.132 219.89 834.644C219.323 835.156 218.748 835.659 218.165 836.152C217.582 836.645 216.99 837.129 216.391 837.603C215.792 838.077 215.185 838.541 214.571 838.994C213.956 839.448 213.334 839.892 212.705 840.325C212.076 840.758 211.44 841.181 210.797 841.594C210.154 842.006 209.505 842.407 208.848 842.798C208.192 843.189 207.53 843.569 206.861 843.938C206.192 844.307 205.517 844.665 204.836 845.012C204.156 845.359 203.47 845.695 202.778 846.019C202.087 846.343 201.39 846.656 200.688 846.957C199.986 847.258 199.279 847.548 198.567 847.826C197.856 848.104 197.14 848.37 196.42 848.625C195.699 848.879 194.975 849.121 194.247 849.352C193.519 849.583 192.787 849.801 192.051 850.007C191.316 850.214 190.577 850.408 189.835 850.59C189.094 850.772 188.349 850.942 187.601 851.099C186.854 851.257 186.104 851.402 185.352 851.535C184.599 851.668 183.845 851.788 183.089 851.896C181.97 852.055 180.848 852.188 179.723 852.293C178.598 852.398 177.472 852.475 176.343 852.525C175.214 852.575 174.084 852.598 172.954 852.593C171.825 852.588 170.696 852.555 169.567 852.495C168.439 852.435 167.313 852.348 166.188 852.233C165.064 852.118 163.944 851.975 162.827 851.806C161.71 851.636 160.597 851.439 159.49 851.215C158.382 850.992 157.28 850.741 156.185 850.464C155.09 850.186 154.002 849.882 152.922 849.551C151.841 849.22 150.769 848.864 149.706 848.481C148.643 848.098 147.59 847.69 146.547 847.256C145.504 846.821 144.472 846.362 143.451 845.878C142.43 845.393 141.421 844.884 140.425 844.35C139.429 843.817 138.447 843.259 137.478 842.678C136.509 842.096 135.555 841.491 134.616 840.863C133.677 840.235 132.753 839.585 131.846 838.912C130.938 838.239 130.047 837.544 129.174 836.827C128.3 836.11 127.444 835.373 126.606 834.615C125.769 833.857 124.95 833.079 124.15 832.281C123.35 831.482 122.57 830.665 121.81 829.829C121.05 828.993 120.311 828.139 119.593 827.267C118.874 826.394 118.178 825.505 117.503 824.599C116.828 823.693 116.175 822.771 115.545 821.833C114.915 820.895 114.308 819.942 113.724 818.975C113.141 818.007 112.581 817.026 112.045 816.031C111.51 815.036 110.999 814.029 110.512 813.009C110.025 811.989 109.564 810.958 109.127 809.916C108.69 808.874 108.28 807.822 107.895 806.759C107.51 805.697 107.151 804.626 106.818 803.546C106.485 802.466 106.178 801.379 105.898 800.284C105.619 799.189 105.366 798.089 105.139 796.982C104.913 795.875 104.714 794.763 104.542 793.646C104.37 792.529 104.225 791.409 104.108 790.285C103.991 789.161 103.901 788.035 103.838 786.907C103.775 785.779 103.74 784.65 103.733 783.52C103.726 782.39 103.746 781.261 103.793 780.132C103.841 779.003 103.916 777.875 104.019 776.75C104.122 775.625 104.251 774.503 104.408 773.384C104.565 772.265 104.75 771.151 104.962 770.041C105.173 768.931 105.412 767.827 105.677 766.728C105.942 765.63 106.234 764.539 106.553 763.455C106.872 762.371 107.217 761.295 107.588 760.228C107.959 759.161 108.355 758.103 108.778 757.055C109.201 756.007 109.649 754.97 110.122 753.944C110.595 752.918 111.093 751.904 111.616 750.902C112.139 749.9 112.685 748.912 113.256 747.937C113.827 746.962 114.421 746.001 115.038 745.055C115.656 744.108 116.296 743.178 116.959 742.263C117.622 741.348 118.307 740.45 119.014 739.568C119.721 738.687 120.449 737.823 121.198 736.977C121.947 736.13 122.716 735.303 123.505 734.495C124.294 733.686 125.103 732.897 125.93 732.128C126.758 731.359 127.604 730.61 128.468 729.882C129.332 729.154 130.213 728.448 131.112 727.763C132.011 727.078 132.926 726.415 133.857 725.775C134.788 725.134 135.734 724.517 136.695 723.923C137.656 723.328 138.63 722.758 139.619 722.211C140.608 721.664 141.61 721.142 142.624 720.644C143.639 720.146 144.665 719.673 145.702 719.225C146.739 718.778 147.787 718.355 148.845 717.958C149.903 717.561 150.97 717.191 152.046 716.846C153.122 716.501 154.206 716.183 155.297 715.891C156.388 715.599 157.486 715.334 158.591 715.095C159.696 714.856 160.805 714.645 161.92 714.461Z" fill="#231F20"/>
<path d="M166.469 718.817C167.524 718.708 168.58 718.624 169.639 718.566C170.698 718.509 171.758 718.478 172.818 718.473C173.879 718.468 174.939 718.489 175.998 718.536C177.057 718.583 178.115 718.657 179.171 718.756C180.227 718.855 181.28 718.981 182.329 719.132C183.378 719.283 184.424 719.461 185.465 719.664C186.506 719.867 187.541 720.095 188.57 720.349C189.6 720.604 190.623 720.883 191.638 721.188C192.654 721.492 193.662 721.821 194.661 722.176C195.66 722.53 196.651 722.909 197.632 723.312C198.613 723.715 199.583 724.143 200.542 724.594C201.502 725.045 202.45 725.52 203.386 726.017C204.323 726.515 205.246 727.036 206.157 727.579C207.068 728.123 207.964 728.689 208.847 729.276C209.73 729.864 210.597 730.473 211.449 731.104C212.302 731.735 213.138 732.386 213.959 733.058C214.78 733.73 215.583 734.422 216.369 735.133C217.155 735.844 217.923 736.575 218.674 737.324C219.424 738.074 220.155 738.842 220.868 739.627C221.58 740.412 222.272 741.215 222.945 742.035C223.618 742.855 224.27 743.691 224.901 744.543C225.533 745.395 226.143 746.262 226.731 747.144C227.32 748.026 227.886 748.922 228.431 749.832C228.976 750.742 229.497 751.665 229.996 752.601C230.495 753.537 230.97 754.484 231.422 755.443C231.874 756.402 232.302 757.372 232.707 758.353C233.111 759.333 233.491 760.323 233.846 761.322C234.201 762.321 234.532 763.329 234.837 764.344C235.143 765.359 235.423 766.382 235.678 767.411C235.933 768.44 236.163 769.475 236.367 770.516C236.571 771.557 236.749 772.602 236.902 773.651C237.054 774.7 237.18 775.753 237.281 776.809C237.382 777.865 237.456 778.923 237.504 779.982C237.552 781.041 237.574 782.101 237.57 783.161C237.566 784.222 237.536 785.281 237.48 786.34C237.423 787.399 237.341 788.456 237.232 789.511C237.123 790.566 236.989 791.617 236.829 792.666C236.668 793.714 236.482 794.758 236.27 795.797C236.058 796.836 235.821 797.869 235.558 798.896C235.295 799.923 235.006 800.944 234.693 801.957C234.38 802.97 234.042 803.974 233.679 804.971C233.316 805.967 232.928 806.954 232.517 807.931C232.105 808.908 231.669 809.875 231.21 810.831C230.751 811.787 230.268 812.731 229.762 813.662C229.256 814.594 228.727 815.513 228.176 816.419C227.625 817.325 227.051 818.217 226.456 819.094C225.861 819.972 225.244 820.834 224.606 821.681C223.968 822.528 223.31 823.359 222.631 824.174C221.952 824.989 221.253 825.786 220.535 826.566C219.816 827.346 219.079 828.108 218.323 828.852C217.567 829.595 216.793 830.32 216.002 831.025C215.21 831.731 214.401 832.417 213.576 833.082C212.751 833.747 211.909 834.392 211.052 835.017C210.195 835.641 209.322 836.243 208.435 836.824C207.548 837.405 206.647 837.964 205.732 838.5C204.817 839.037 203.89 839.55 202.95 840.041C202.01 840.532 201.058 840.999 200.095 841.443C199.132 841.887 198.159 842.307 197.175 842.702C196.191 843.098 195.198 843.469 194.196 843.816C193.193 844.163 192.183 844.484 191.165 844.781C190.147 845.078 189.122 845.349 188.091 845.595C187.06 845.842 186.023 846.062 184.98 846.257C183.938 846.452 182.892 846.622 181.841 846.765C180.79 846.908 179.737 847.026 178.68 847.117C177.635 847.208 176.589 847.272 175.54 847.311C174.492 847.35 173.444 847.364 172.395 847.352C171.346 847.34 170.298 847.303 169.251 847.24C168.204 847.177 167.16 847.088 166.117 846.974C165.074 846.86 164.035 846.721 162.999 846.556C161.964 846.391 160.933 846.2 159.906 845.985C158.879 845.77 157.859 845.53 156.844 845.265C155.829 845 154.822 844.711 153.821 844.396C152.82 844.082 151.828 843.744 150.844 843.381C149.859 843.018 148.884 842.632 147.919 842.221C146.954 841.811 146 841.377 145.055 840.92C144.111 840.463 143.179 839.984 142.258 839.481C141.337 838.979 140.43 838.455 139.535 837.908C138.64 837.361 137.758 836.793 136.891 836.203C136.024 835.613 135.171 835.002 134.334 834.371C133.497 833.74 132.675 833.088 131.869 832.417C131.064 831.745 130.275 831.054 129.503 830.344C128.731 829.634 127.977 828.906 127.24 828.159C126.504 827.412 125.786 826.648 125.087 825.866C124.388 825.084 123.708 824.285 123.048 823.47C122.388 822.655 121.748 821.825 121.129 820.978C120.51 820.132 119.911 819.271 119.333 818.395C118.756 817.52 118.2 816.631 117.666 815.728C117.132 814.825 116.62 813.91 116.131 812.982C115.642 812.055 115.175 811.116 114.731 810.165C114.288 809.215 113.868 808.254 113.471 807.283C113.074 806.312 112.702 805.332 112.353 804.343C112.004 803.354 111.68 802.357 111.38 801.352C111.08 800.347 110.805 799.335 110.554 798.316C110.303 797.298 110.078 796.274 109.877 795.245C109.676 794.215 109.501 793.181 109.35 792.143C109.2 791.105 109.075 790.064 108.976 789.02C108.877 787.976 108.803 786.93 108.754 785.882C108.706 784.835 108.683 783.786 108.686 782.737C108.689 781.688 108.718 780.64 108.772 779.593C108.826 778.546 108.906 777.5 109.011 776.456C109.116 775.413 109.246 774.372 109.402 773.335C109.558 772.298 109.739 771.266 109.945 770.237C110.152 769.208 110.383 768.186 110.639 767.169C110.896 766.152 111.177 765.141 111.482 764.138C111.788 763.135 112.118 762.139 112.472 761.152C112.826 760.165 113.204 759.187 113.606 758.218C114.008 757.249 114.433 756.291 114.882 755.343C115.331 754.395 115.802 753.459 116.297 752.534C116.792 751.609 117.308 750.696 117.847 749.797C118.386 748.897 118.947 748.011 119.529 747.139C120.111 746.266 120.714 745.409 121.339 744.566C121.963 743.723 122.607 742.895 123.272 742.084C123.937 741.273 124.621 740.478 125.324 739.7C126.027 738.922 126.749 738.162 127.489 737.419C128.23 736.676 128.988 735.951 129.764 735.246C130.54 734.54 131.333 733.853 132.142 733.186C132.951 732.519 133.776 731.872 134.617 731.245C135.458 730.618 136.314 730.013 137.184 729.428C138.055 728.843 138.939 728.279 139.837 727.737C140.735 727.196 141.646 726.676 142.569 726.179C143.492 725.681 144.427 725.206 145.374 724.755C146.321 724.303 147.278 723.875 148.246 723.47C149.213 723.065 150.19 722.683 151.176 722.326C152.162 721.969 153.156 721.636 154.159 721.327C155.161 721.018 156.17 720.734 157.187 720.475C158.203 720.216 159.225 719.981 160.253 719.771C161.28 719.562 162.312 719.377 163.349 719.218C164.386 719.059 165.426 718.926 166.469 718.817Z" fill="#FBBE1D"/>
<path d="M166.431 728.468C166.584 728.451 166.737 728.427 166.892 728.418C168.545 728.319 169.041 728.74 170.201 729.8C171.093 731.867 170.991 733.974 171.05 736.188C174.738 735.635 180.289 734.674 183.856 735.735C184.897 736.045 185.771 736.514 186.309 737.488C185.078 745.437 175.959 738.747 171.572 741.98C170.456 744.006 170.555 746.787 171.466 748.926C171.544 749.109 171.979 749.929 172.249 750.103C174.726 751.699 196.524 746.562 201.449 748.963C202.313 750.097 202.407 750.279 202.555 751.692C200.078 757.108 177.514 753.602 172.438 759.326C170.153 761.902 172.54 775.385 172.9 778.893C179.024 778.457 186.712 779.762 192.522 781.676C196.224 782.896 199.703 784.94 201.455 788.577C203.501 792.826 202.62 797.88 200.983 802.107C197.175 811.939 190.01 816.868 180.714 821.026C180.307 821.27 179.855 821.72 179.487 822.029C178.822 825.225 180.029 828.697 179.887 831.961C179.831 833.261 179.379 834.463 178.372 835.325C177.491 836.079 176.392 836.352 175.267 836.193C171.967 833.63 170.648 827.711 169.035 823.894C161.607 821.312 145.959 819.681 141.276 812.967C141.156 811.697 141.038 811.191 142.041 810.195C145.968 806.297 159.038 812.146 164.454 811.748C166.004 811.634 166.718 811.14 167.712 809.999C167.63 804.323 166.382 793.312 164.72 787.986C161.875 785.372 155.069 785.94 151.315 784.923C147.352 783.85 143.252 781.66 141.337 777.851C139.611 774.42 139.683 770.385 140.984 766.841C144.535 757.159 152.621 754.495 161.085 750.475C160.708 743.883 160.843 737.606 161.502 731.036C163.111 730.125 164.786 729.313 166.431 728.468Z" fill="#231F20"/>
<path d="M158.072 761.962C158.756 761.978 159.456 762.12 160.134 762.214C162.628 765.187 162.208 773.828 162.48 777.864C160.153 777.624 157.759 777.671 155.42 777.614C153.707 777.141 151.942 776.55 150.944 774.962C149.407 772.516 150.609 769.43 151.358 766.927C153.536 765.101 155.642 763.451 158.072 761.962Z" fill="#FEFEFE"/>
<path d="M172.365 787.476C177.561 787.284 179.382 787.842 183.561 790.718C185.008 797.008 184.616 800.157 181.309 805.618C179.964 807.029 178.485 808.346 177.078 809.698C175.417 802.31 173.846 794.903 172.365 787.476Z" fill="#FEFEFE"/>
<path d="M495.857 648.796C505.541 648.01 514.851 648.845 524.503 649.251C536.408 649.709 548.317 649.974 560.23 650.047C558.708 653.096 552.007 669.998 551.133 670.78C547.798 673.762 543.35 671.863 540.286 677.15C539.189 679.044 538.749 680.863 539.367 683C540.12 685.599 541.673 687.708 544.059 689.014C547.683 690.999 552.668 690.938 556.494 689.614C559.645 688.524 562.698 686.295 564.136 683.213C564.907 681.563 565.188 679.662 564.491 677.929C563.308 674.985 560.936 673.439 558.165 672.191L557.532 671.913C559.809 664.131 563.069 657.221 567.151 650.226C574.918 650.503 582.831 649.996 590.538 651.016C590.408 659.946 590.382 668.844 591.097 677.752C592.407 694.07 595.054 710.212 596.663 726.495C597.547 735.442 598.512 744.488 598.956 753.466C599.363 761.711 599.202 769.998 599.432 778.251C599.528 781.697 601.47 788.313 599.499 791.217C595.455 793.038 570.674 792.675 564.503 792.98C554.098 793.495 543.628 794.136 533.245 794.949C527.152 795.425 521.134 796.418 515.11 797.421C501.373 798.198 487.319 800.733 473.655 802.553C457.42 804.715 441.347 806.421 425.183 809.221C423.873 800.501 423.601 791.393 422.864 782.584C420.61 755.654 419.436 728.75 418.238 701.755C417.832 692.656 417.491 683.555 417.215 674.452C416.991 668.104 416.253 661.347 417.241 655.066C418.208 654.23 419.595 654.227 420.851 654.095C426.064 653.547 431.456 653.841 436.71 653.528C443.345 653.133 449.954 652.233 456.546 651.399C456.457 654.349 457.355 670.563 455.993 671.899C454.164 673.693 450.94 672.88 448.692 676.501C446.946 679.314 446.935 683.842 447.802 686.934C448.913 690.9 453.22 692.917 456.543 694.738C460.673 694.937 464.199 694.305 467.322 691.347C469.274 689.498 470.4 687.05 470.362 684.349C470.276 678.325 466.872 677.122 463.277 673.298C460.633 670.486 461.64 655.659 461.749 651.516C473.073 651.33 484.535 649.564 495.857 648.796Z" fill="#C62D2D"/>
<path d="M588.624 774.764C588.791 774.829 588.974 774.865 589.126 774.96C590.157 775.603 590.375 776.046 590.748 777.125C589.997 779.704 587.72 781.053 585.597 782.466C584.296 781.908 583.628 781.81 582.815 780.624C583.367 777.772 586.38 776.341 588.624 774.764Z" fill="#231F20"/>
<path d="M585.854 761.859C586.723 762.813 586.902 762.966 587.14 764.217C585.004 769.762 577.455 775.104 572.981 778.954C572.882 778.886 572.766 778.836 572.683 778.749C571.745 777.768 571.704 777.33 571.559 776.041C573.683 771.193 581.583 764.973 585.854 761.859Z" fill="#231F20"/>
<path d="M584.476 743.237C585.106 743.541 585.689 744.033 586.261 744.439C586.425 748.646 558.137 776.961 553.059 782.752C552.934 782.69 552.797 782.647 552.683 782.567C551.649 781.839 551.327 781.734 551.164 780.474C555.981 772.429 576.99 748.786 584.476 743.237Z" fill="#231F20"/>
<path d="M722.915 119.256L723.355 119.622C725.137 124.125 726.743 154.396 727.596 162.614L736.254 247.399C737.665 260.634 739.87 273.964 740.847 287.215C731.463 289.8 719.537 290.714 709.795 292.365C709.376 282.728 705.315 273.751 703.616 264.352C700.857 249.086 700.29 233.343 699.78 217.877C699.655 214.09 699.397 210.278 699.432 206.489C699.458 203.696 699.993 200.591 699.648 197.856C699.5 196.677 699.238 196.285 698.52 195.403C693.386 195.234 674.022 199.772 668.662 201.612C674.717 222.259 673.518 249.811 674.965 271.586C675.55 280.394 677.713 289.032 678.376 297.851C668.525 299.633 658.146 300.838 648.168 301.666C647.848 295.495 648.539 289.29 648.135 283.107C647.558 274.264 645.839 265.444 645.559 256.579C645.425 252.361 646.729 247.927 646.046 243.74C645.743 241.884 645.107 240.561 643.529 239.49C640.239 239.652 636.756 240.945 633.528 241.685C627.197 243.137 620.792 244.276 614.545 246.07C618.031 262.472 618.022 279.73 620.353 296.383C620.773 299.243 620.907 302.128 621.086 305.01C612.598 305.587 604.088 306.618 595.629 307.532C595.531 303.587 591.861 273.257 590.48 270.133C587.16 269.175 560.939 274.084 556.608 275.435C557.537 287.719 560.2 299.397 559.879 311.829C543.081 313.529 526.089 314.137 509.234 315.045C507.844 304.318 505.898 293.654 504.266 282.96C500.686 259.835 497.333 236.678 494.208 213.487C492.523 200.753 492.128 187.996 490.728 175.265C489.588 164.891 487.556 154.86 484.989 144.754C523.989 140.964 562.695 134.508 601.664 130.286C623.007 127.974 644.37 127.089 665.744 125.369C684.833 123.833 703.889 121.425 722.915 119.256Z" fill="#FEFEFE"/>
<path d="M586.589 230.732L587.436 231.063C588.541 232.316 589.303 233.471 589.753 235.105C590.721 238.613 591.718 248.654 589.395 251.626C588.543 252.715 586.677 253.418 585.399 253.772C582.285 254.632 578.859 254.727 575.665 255.232C568.03 256.44 560.17 258.331 552.448 258.56C551.659 258.127 550.722 257.695 550.216 256.906C549.117 255.193 548.739 240.843 549.571 238.745C551.275 234.444 580.288 233.36 586.168 230.919C586.309 230.86 586.448 230.794 586.589 230.732Z" fill="#231F20"/>
<path d="M582.634 236.713C583.602 236.571 583.695 236.582 584.674 236.953C586.597 240.037 585.601 245.678 585.394 249.213C580.658 250.467 575.622 250.798 570.775 251.474C566.047 252.133 561.372 253.123 556.613 253.539L555.991 253.8C554.136 251.657 554.254 243.886 553.991 240.817C563.322 238.784 573.145 237.828 582.634 236.713Z" fill="#4B6F4C"/>
<path d="M615.778 183.859C616.708 183.859 617.913 183.775 618.748 184.24C622.13 186.122 623.723 197.194 624.664 200.751C628.911 199.713 633.141 199.337 637.501 199.336C638.158 199.994 638.932 200.689 639.47 201.446C643.069 206.511 634.933 208.803 633.579 213.003C632.361 216.782 636.535 221.879 635.285 226.243C634.738 228.152 633.334 228.826 631.677 229.531C627.406 226.773 623.176 224.101 618.665 221.741L614.253 222.911C611.694 225.917 606.902 230.679 602.858 231.053C602.198 230.746 601.75 230.703 601.379 230.024C599.365 226.339 602.208 219.239 603.331 215.382L600.2 214.598C599.531 214.435 598.661 214.321 598.056 213.981C596.813 213.284 596.348 212.625 595.858 211.326C595.879 209.906 596.227 209.068 597.203 208.048C600.605 204.492 605.257 203.574 609.923 203.397C612.273 196.983 613.42 190.19 615.778 183.859Z" fill="#231F20"/>
<path d="M617.505 192.812C620.236 195.722 619.703 201.344 619.849 205.104C623.99 204.345 628.29 204.55 632.488 204.049C630.438 205.758 627.903 207.559 626.409 209.783C625.65 210.914 624.916 212.397 625.351 213.781C625.844 215.351 626.992 215.98 628.394 216.607C628.642 216.717 628.894 216.817 629.144 216.921C629.612 218.106 629.807 218.318 629.526 219.537L629.059 219.692C625.597 219.251 622.51 216.867 619.694 214.956C615.081 214.989 609.695 219.749 606.036 222.318C606.649 219.895 607.51 217.194 607.635 214.712C607.706 213.295 607.573 212.45 606.69 211.358C605.41 210.924 604.515 210.722 603.506 209.776C605.786 207.839 610.809 207.573 613.712 207.069C615.192 202.398 615.997 197.519 617.505 192.812Z" fill="#FABD1C"/>
<path d="M533.834 152.733C534.627 152.87 535.41 153.013 536.177 153.263C540.842 154.783 543.781 162.874 545.692 166.945C549.56 166.255 557.61 163.919 561.197 165.442C562.405 165.955 562.406 166.514 562.66 167.647C561.586 171.906 558.24 174.674 555.28 177.713C556.642 179.762 558.238 181.677 559.748 183.619C559.408 186.71 559.413 190.762 557.995 193.523C557.34 194.797 556.329 195.786 554.856 195.99C551.515 196.454 546.122 192.058 543.375 190.248L541.844 189.406C536.008 190.469 531.709 197.606 526.275 199.86C525.08 200.355 524.545 200.347 523.369 199.88C521.28 196.581 523.513 189.838 524.263 186.248C522.34 185.988 520.176 185.827 518.355 185.144C516.979 184.627 516.099 183.963 515.532 182.62C516.618 179.398 525.117 176.193 527.875 173.545C528.026 173.4 528.174 173.251 528.324 173.104C530.546 166.457 531.089 159.231 533.834 152.733Z" fill="#231F20"/>
<path d="M536.407 161.231C538.993 163.953 540.396 167.97 542.666 171.023C545.89 172.795 551.999 170.874 555.583 170.232C552.627 173.237 549.738 175.318 547.775 179.219C550.934 182.473 552.583 185.32 554.342 189.437C551.363 187.423 548.24 185.43 546.243 182.366C544.714 182.506 542.91 182.309 541.452 182.699C537.055 183.874 531.976 189.48 528.436 192.299C528.979 189.675 530.365 185.706 529.151 183.189C528.445 181.725 526.463 181.303 525.041 180.813C532.749 173.585 534.288 171.837 536.407 161.231Z" fill="#FABD1C"/>
<path d="M670.869 143.681C671.449 143.814 671.952 143.903 672.503 144.159C676.062 145.814 679.163 153.974 680.592 157.424C684.814 156.43 695.158 154.145 699.019 156.084C700.332 156.744 700.393 156.987 700.732 158.3C699.45 162.456 693.347 166.33 689.729 168.525C692.679 171.229 696.658 177.785 696.725 181.851C696.75 183.358 696.53 183.561 695.587 184.62C689.777 186.637 681.575 180.679 675.787 179.217L675.09 179.047C673.47 180.105 672.016 181.356 670.532 182.591C666.6 186.422 662.924 193.106 658.429 195.866C657.283 196.569 656.678 196.704 655.381 196.456C652.128 191.436 660.417 182.673 660.851 177.358C661.314 171.678 648.866 169.793 645.348 166.729L645.572 165.27C650.459 162.883 657.211 162.307 662.578 161.455C664.901 156.715 667.299 146.826 670.869 143.681Z" fill="#231F20"/>
<path d="M671.896 150.314C674.954 153.004 675.965 158.344 678.829 161.595C683.025 161.017 687.155 160.467 691.396 160.349C689.235 161.83 684.997 163.999 683.942 166.389C682.747 169.097 686.421 173.791 687.538 176.483L687.8 177.124C683.804 174.965 680.184 172.207 675.473 172.712C670.512 172.967 666.695 179.043 663.183 182.175C664.191 179.053 665.633 175.359 664.214 172.172C662.882 169.177 659.15 168.055 656.357 166.929C659.844 166.282 663.284 165.683 666.649 164.537C668.866 160.114 670.039 154.952 671.896 150.314Z" fill="#FABD1C"/>
<path d="M735.838 645.84C746.525 646.558 757.175 647.692 767.874 648.354C788.988 649.659 809.936 650.533 831.003 652.703C835.554 653.171 846.999 653.661 850.764 654.737C852.823 662.549 836.999 712.955 833.198 722.928C829.625 722.635 825.328 721.942 821.921 723.376C820.883 723.813 821.253 723.533 820.747 724.645C821.06 725.135 821.144 725.331 821.65 725.748C829.327 732.074 865.799 734.072 877.415 736.042C884.95 737.32 893.659 741.127 901.263 740.794C904.977 740.632 907.83 739.454 910.366 736.737L910.118 735.909C906.101 733.739 899.624 734.856 895.1 734.53C889.639 734.137 884.954 732.102 879.624 731.178C873.782 730.164 844.358 728.164 841.789 725.184C842.915 721.448 846.431 717.435 848.604 714.167C855.658 715.232 862.792 716.113 869.799 717.446C877.664 718.943 885.433 720.953 893.312 722.385C902.454 724.047 911.696 725.317 920.883 726.722C916.414 734.153 913.7 742.836 910.828 750.983C902.108 775.725 895.818 800.816 889.647 826.287C884.487 847.584 879.06 868.761 875.253 890.356C873.126 902.419 872.15 914.781 870.58 926.94C865.309 925.363 842.562 918.747 838.445 920.929C837.189 921.594 836.401 922.896 835.943 924.196C834.92 927.101 834.783 930.566 834.229 933.615C832.858 941.163 831.509 948.758 829.699 956.212C817.989 954.237 806.62 950.456 795.196 947.273C784.679 944.359 774.066 941.855 763.356 939.761C762.478 923.84 768.141 904.853 771.678 889.199C773.038 881.633 775.332 874.197 777.313 866.772L788.151 826.744C792.706 809.787 795.994 792.466 800.797 775.597C803.391 766.489 820.354 713.426 820.155 709.078C820.102 707.912 820.111 707.84 819.219 707.034C818.604 707.135 818.161 707.272 817.678 707.686C810.234 714.057 789.848 799.94 786.098 813.981L774.704 856.887C772.213 866.071 769.396 875.259 767.291 884.537C763.276 902.226 758.735 920.604 757.825 938.761C734.622 935.834 712.304 930.154 689.517 925.137C678.966 922.814 668.252 921.499 657.766 918.832C663.955 890.291 670.792 861.905 678.277 833.676C683.099 816.187 688.697 798.87 693.76 781.444C696.481 772.077 698.747 762.582 701.414 753.199C704.088 743.787 707.167 734.511 710.002 725.151C712.81 715.882 715.367 706.505 718.405 697.312C721.622 687.574 725.269 677.973 728.526 668.246C730.993 660.879 732.595 652.887 735.838 645.84Z" fill="#FEFEFE"/>
<path d="M865.544 904.067C865.929 904.268 866.823 904.9 867.091 905.202C867.959 906.181 867.867 906.912 867.803 908.097C866.426 910.832 857.01 915.394 853.952 917.18C852.72 916.649 852.182 915.636 851.456 914.57C851.36 913.498 851.295 913.086 851.854 912.105C854.024 908.301 861.409 905.039 865.544 904.067Z" fill="#231F20"/>
<path d="M798.176 912.567C802.13 913.068 817.95 917.476 821.088 919.187C821.684 920.646 821.057 921.985 820.636 923.419C814.079 922.599 806.746 920.948 800.622 918.486C798.739 917.729 797.565 917.181 796.765 915.263C796.963 913.939 797.241 913.518 798.176 912.567Z" fill="#231F20"/>
<path d="M857.57 888.914C858.757 888.856 859.214 888.959 860.228 889.581C860.477 890.209 860.818 890.597 860.568 891.283C859.366 894.573 852.831 897.478 850.202 899.968C843.398 906.416 839.034 916.4 830.153 920.183C829.735 920.138 829.141 920.096 828.757 919.944C827.598 919.483 827.387 919.049 826.975 917.99C827.107 917.607 827.128 917.164 827.373 916.842C829.196 914.451 832.644 912.296 834.855 910.09C840.024 904.934 844.387 899.109 849.909 894.276C852.266 892.212 854.919 890.57 857.57 888.914Z" fill="#231F20"/>
<path d="M823.453 787.668C834.613 788.979 845.555 792.4 856.504 794.88C861.663 796.049 867.474 796.609 872.467 798.117C874.104 798.612 876.482 799.709 877.671 800.931C878.453 801.733 878.434 801.959 878.417 803.003C877.161 803.735 876.281 803.608 874.9 803.497C867.756 801.671 860.4 800.516 853.205 798.856C846.5 797.31 839.913 795.219 833.191 793.758C828.993 792.845 823.485 792.899 819.587 791.437C818.411 790.996 818.3 790.78 817.823 789.725C817.897 789.611 817.956 789.487 818.043 789.383C819.387 787.793 821.55 787.746 823.453 787.668Z" fill="#231F20"/>
<path d="M819.437 771.307C827.345 771.096 835.403 774.324 843.147 775.641C855.794 777.79 871.051 775.756 881.966 783.763C882.558 785.157 881.993 785.919 881.55 787.335C877.165 787.654 871.294 783.108 866.63 782.385C859.489 781.278 852.126 781.104 844.939 780.253C840.231 779.696 835.535 778.645 830.898 777.667C827.787 777.01 824.256 776.473 821.356 775.165C821.128 775.062 820.646 774.827 820.444 774.65C819.229 773.585 819.49 772.785 819.437 771.307Z" fill="#231F20"/>
<path d="M821.538 755.995C828.833 756.253 836.327 758.66 843.506 760.033C855.613 762.349 879.017 764.211 888.664 771.715C889.159 773.326 888.782 773.933 888.328 775.526C884.208 774.96 876.043 770.92 870.766 769.68C857.745 766.619 844.477 764.932 831.422 761.906C828.273 761.176 825.047 760.867 821.997 759.755C821.299 758.416 821.504 757.488 821.538 755.995Z" fill="#231F20"/>
<path d="M822.176 740.173C829.468 740.908 836.812 743.559 843.993 745.098C851.764 746.763 889.533 752.647 893.505 755.789C893.773 757.174 893.24 757.609 892.608 758.809C891.731 759.021 890.984 759.241 890.065 759.177C886.279 758.912 882.007 757.411 878.221 756.702C864.879 754.205 833.707 749.419 822.24 743.811C821.467 742.372 821.872 741.743 822.176 740.173Z" fill="#231F20"/>
<path d="M740.121 667.474C750.709 667.346 767.099 671.061 778.007 672.637C791.48 674.583 805.358 675.485 818.686 678.219C821.207 678.736 824.671 679.412 826.598 681.141C828.347 686.434 823.772 694.847 821.824 699.845C817.74 701.884 745.515 686.696 735.79 684.713C737.109 678.936 738.553 673.189 740.121 667.474Z" fill="#231F20"/>
<path d="M759.933 676.868C765.104 677.409 788.202 680.661 790.869 683.071C791.791 683.904 792.019 684.634 792.195 685.822C791.733 686.885 791.496 687.572 790.521 688.243C781.529 687.659 766.587 684.09 757.764 681.509C758.408 679.926 759.184 678.403 759.933 676.868Z" fill="#FEFEFE"/>
<path d="M719.638 770.222C725.586 772.236 731.736 774.261 737.914 775.448C749.074 777.593 762.515 778.019 772.807 782.772C771.291 792.698 767.168 802.288 764.079 811.822C761.721 819.098 759.861 827.219 756.55 834.081C755.99 834.303 755.352 834.357 754.757 834.359C748.031 834.372 736.625 831 729.459 829.733C723.605 828.699 717.47 828.374 711.706 826.991C709.551 826.474 706.214 825.611 704.623 824.037C705.428 816.373 715.726 775.156 719.638 770.222Z" fill="#231F20"/>
<path d="M721.884 775.815C733.27 781.04 753.648 782.494 766.418 785.121C763.779 799.298 757.989 813.686 753.461 827.388C752.069 828.253 714.54 822.454 709.636 821.772C712.536 806.263 716.821 790.753 721.884 775.815Z" fill="#986C44"/>
<path d="M736.175 701.197C746.04 702.5 756.061 705.648 765.724 707.978C771.572 709.387 777.762 710.239 783.404 712.334C785.258 713.023 788.573 714.335 789.391 716.282C791.834 722.087 777.486 756.21 774.209 763.506C773.645 763.782 773.391 763.927 772.844 764.133C771.293 764.719 769.543 764.703 767.913 764.557C762.827 764.101 757.807 762.513 752.749 761.764C744.835 760.591 728.859 760.314 722.262 757.453C720.62 751.993 732.45 708.955 736.175 701.197Z" fill="#231F20"/>
<path d="M738.925 706.434L765.544 712.772C772.272 714.347 778.971 715.484 785.374 718.178C782.482 731.076 776.283 744.575 770.838 756.637L769.767 758.104C768.904 758.544 768.316 758.497 767.373 758.425C761.454 757.971 755.537 756.678 749.635 755.963C741.993 755.038 734.169 754.805 726.64 753.156C730.535 737.489 733.399 721.642 738.925 706.434Z" fill="#986C44"/>
<path d="M702.672 836.366C714.353 843.024 737.759 843.594 751.344 845.619C752.714 845.824 753.628 846.473 754.468 847.549C754.496 848.202 754.516 848.731 754.402 849.379C753.04 857.16 749.235 867.176 747.111 875.117C744.874 883.483 743.914 892.718 740.611 900.715C739.471 903.473 738.414 904.819 735.985 906.564C732.235 906.447 724.414 902.844 720.191 901.746C710.921 899.334 701.308 898.453 692.133 895.59C688.925 894.59 686.394 893.325 683.617 891.463C691.315 874.399 695.445 856.499 701.117 838.78C701.434 837.789 702 837.137 702.672 836.366Z" fill="#231F20"/>
<path d="M704.498 843.258C710.033 843.668 715.85 845.418 721.358 846.4C730.528 848.034 739.775 849.218 748.95 850.84C746.928 858.666 744.419 866.356 742.397 874.181C740.147 882.888 738.502 892.11 735.151 900.474C720.414 895.068 704.724 894.433 690.029 888.929C696.329 874.139 699.561 858.517 704.498 843.258Z" fill="#986C44"/>
<path d="M742.395 117.717L743.054 117.698C751.929 122.838 760.241 132.493 764.133 141.983C767.923 151.224 769.692 161.903 771.51 171.698C776.278 197.386 779.083 223.322 782.02 249.267L795.232 364.087C796.706 376.203 797.289 394.732 801.196 405.672C803.774 412.89 809.2 418.383 814.411 423.778C809.731 427.035 782.75 445.164 781.539 448.571C781.098 449.809 781.541 450.218 782.174 451.209C787.101 454.011 801.64 452.67 807.428 451.837C808.605 467.047 810.09 482.227 811.885 497.376C814.299 516.402 817.513 535.312 819.948 554.332C823.899 585.193 826.903 616.114 830.623 646.988C808.147 643.219 783.789 643.269 761.018 642.418C751.531 642.064 741.627 642.158 732.265 640.667C730.756 644.528 729.823 648.784 728.565 652.751C725.702 661.694 722.771 670.615 719.77 679.512C707.145 717.301 695.302 755.333 684.241 793.609C673.18 831.884 662.909 870.371 653.429 909.069C646.018 908.867 638.577 907.92 631.158 907.571C616.418 906.879 601.647 906.925 586.895 906.133C550.378 904.175 513.585 901.299 477.005 901.731C456.854 901.969 436.856 903.04 416.752 904.205C407.708 904.73 398.681 904.87 389.642 905.631C366.257 907.601 342.928 910.596 319.61 913.237C303.391 915.074 287.145 916.505 270.951 918.597C257.829 920.292 244.989 923.587 231.896 925.203C229.549 914.354 228.044 903.355 225.64 892.547C223.492 882.889 220.412 873.436 217.522 863.981C222.44 861.028 227.546 858.125 231.899 854.362C249.489 839.154 260.005 814.853 261.504 791.86C263.169 766.327 254.55 742.879 237.708 723.888C224.394 708.874 204.552 696.524 184.849 692.492C180.244 691.549 175.462 691.385 170.779 691.089C169.162 677.294 164.98 658.29 160.191 645.375C157.591 638.364 154.046 631.649 151.074 624.78C155.113 622.951 159.12 621.644 163.292 620.195C165.545 619.412 167.955 618.184 168.817 615.781C169.664 613.419 168.108 610.613 167.247 608.435C175.427 605.133 184.048 603.108 192.378 600.235C211.051 593.793 228.383 584.999 248.499 583.828C250.796 583.694 256.596 583.063 258.466 584.582C260.199 585.991 262.188 594.676 262.987 597.002C275.716 634.024 287.221 671.423 297.503 709.198C299.757 717.47 302.031 725.893 304.004 734.227C304.788 737.541 305.053 740.996 305.943 744.283C306.363 745.838 306.8 746.95 308.03 748.043C314.115 749.569 328.451 745.618 335.481 744.973C348.801 743.75 362.154 742.25 375.498 741.365C388.564 740.499 401.84 740.404 414.792 738.42C415.064 757.437 417.383 776.728 418.928 795.684C419.532 803.095 418.962 813.857 421.29 820.805C429.908 822.394 441.968 819.747 450.809 818.81C464.123 817.321 477.454 816 490.801 814.847L572.173 808.709C582.328 807.981 592.42 807.404 602.567 806.507C606.851 806.128 611.509 806.12 615.651 804.92C617.082 803.491 617.938 802.058 618.29 800.034C619.908 790.721 615.09 771.949 614.149 761.591C612.993 748.872 613.247 736.072 612.389 723.335C611.617 711.871 609.726 700.634 608.265 689.253C606.935 678.893 606.014 654.48 599.963 646.318C595.984 644.412 575.476 645.003 570.092 644.829C574.728 630.806 577.803 619.669 576.346 604.675C574.602 586.735 567.745 577.876 554.286 566.771C575.192 560.408 597.968 558.944 619.54 555.888C624.107 555.24 630.805 555.522 634.974 553.999C636.406 553.476 636.992 552.825 637.64 551.485C637.463 550.121 637.459 549.806 636.632 548.731C632.797 547.423 570.911 557.823 562.149 559.636C557.836 560.528 553.666 561.86 549.493 563.254C544.334 561.115 538.69 558.402 533 558.503C528.762 558.578 524.523 560.483 520.379 561.334C503.058 564.891 491.05 567.378 478.337 580.697C461.803 598.019 455.99 623.612 456.495 646.903C445.829 647.017 435.266 649.054 424.607 649.024C420.658 649.013 415.213 645.604 411.683 647.292C409.547 652.012 414.176 721.015 414.487 733.349C408.491 733.276 402.29 734.398 396.293 734.832C383.797 735.736 371.354 736.373 358.88 737.615C343.168 738.908 327.802 740.637 312.235 743.121C310.332 738.358 309.486 733.03 308.088 728.083L297.127 689.266C290.58 665.78 283.659 642.405 276.364 619.141C272.71 607.818 268.477 596.669 264.622 585.411C267.523 585.608 270.428 585.726 273.335 585.765C283.338 585.838 294.838 583.234 302.077 575.819C304.865 572.963 306.531 569.483 306.39 565.438C306.116 557.576 299.739 552.25 294.423 547.323C297.489 545.694 300.979 544.617 304.176 543.236C310.054 540.697 316.069 537.066 318.403 530.758C319.921 526.654 319.669 521.199 317.671 517.295C315.472 512.998 312.025 511.357 307.703 509.93L310.79 508.261C319.023 503.775 324.141 498.838 326.679 489.6C327.52 486.538 327.689 483.32 325.997 480.511C323.355 476.128 318.986 475.121 314.396 473.92C313.303 474.324 312.173 474.449 311.027 474.618C317.238 470.414 365.696 462.881 376.165 460.733C401.5 455.537 426.814 449.383 452.348 445.273C455.509 444.764 458.74 444.544 461.941 444.483L462.526 444.475C463.364 443.87 463.316 443.598 463.682 442.667C463.326 441.728 463.552 441.814 462.799 441.362C460.258 439.84 456.012 440.425 453.152 440.731C446.067 441.491 438.944 443.074 431.93 444.346C413.404 447.707 395.185 451.758 376.784 455.719C356 460.193 334.989 463.588 314.336 468.726C314.948 466.406 315.462 463.998 315.729 461.611C316.494 454.758 315.865 449.417 311.538 443.928C341.079 440.345 370.347 435.205 399.342 428.506C401.927 427.914 404.929 427.357 406.426 424.966C406.335 423.551 406.145 423.522 405.176 422.454C403.665 422.075 402.308 422.169 400.779 422.461C394.196 423.72 387.781 425.948 381.194 427.252C375.719 428.335 370.096 428.943 364.589 429.973C347.886 433.097 331.336 436.43 314.541 439.121C304.301 440.761 300.344 436.521 290.045 440.715C290.881 436.075 290.779 430.773 288.516 426.524C286.453 422.649 282.851 420.004 278.67 418.795C263.896 414.523 245.791 425.765 233.111 432.061C231.955 432.635 231.041 433.238 229.803 432.814C224.662 416.748 221.398 399.924 215.417 384.151C216.542 384.021 217.667 383.883 218.791 383.738C220.377 383.546 221.746 383.413 222.993 382.282C224.053 381.322 224.117 380.889 224.182 379.572C223.873 379.168 223.606 378.769 223.18 378.464C220.719 376.704 216.978 378.064 214.329 378.68C213.833 377.231 213.367 375.773 212.932 374.306C204.813 346.35 197.63 318.155 191.383 289.722C187.856 274.174 184.646 258.673 182.584 242.853C181.962 238.076 181.118 233.118 181.138 228.296C181.169 221.039 182.595 214.497 186.181 208.135C193.165 195.743 206.849 190.932 219.777 187.295C222.019 200.021 223.497 212.965 225.347 225.757C229.3 254.581 233.884 283.304 239.1 311.926C242.328 329.104 244.781 346.132 251.862 362.268C270.534 356.871 289.604 356.666 308.705 354.12C335.839 350.504 362.76 345.713 389.703 340.993C407.298 337.91 425.517 335.713 442.774 330.969C444.78 330.417 447.36 329.781 448.459 327.87C448.447 323.242 451.352 325.224 453.314 321.845C452.319 318.316 448.05 320.329 447.189 317.332C446.508 314.96 446.392 311.932 446.009 309.461C445.083 303.473 444.18 297.299 443.849 291.247C443.318 281.551 443.585 270.934 441.651 261.412C441.338 259.87 441.141 258.777 440.019 257.687C432.912 257.238 424.634 260.894 417.691 262.378C415.979 262.744 414.308 262.515 412.62 262.747C411.826 262.856 411.099 262.95 410.682 263.668C407.893 268.475 419.738 320.58 421.9 328.398C410.687 332.443 397.393 333.766 385.598 335.215C384.032 327.586 382.436 319.924 381.247 312.227C380.776 309.18 380.936 306.049 380.312 303.035C380.165 302.323 379.913 301.861 379.463 301.299C374.308 300.235 351.041 303.692 346.179 306.204C344.621 308.811 350.225 335.186 350.617 340.671L350.665 341.379C341.429 342.991 331.987 343.451 322.908 345.941C322.049 341.382 318.83 319.214 317.505 316.848C316.45 316.555 315.536 316.515 314.452 316.585C309.941 316.876 286.278 320.81 283.977 324.027C283.132 325.208 282.951 326.38 283.087 327.795C283.379 330.828 284.864 334.032 285.649 336.996C286.824 341.43 287.587 345.956 288.38 350.47C276.956 350.305 265.764 353.075 254.614 355.265C249.346 341.727 247.15 326.598 244.572 312.361C240.573 291.097 237.128 269.744 234.236 248.302C231.223 227.483 227.403 206.789 224.348 185.977C250.512 181.06 276.361 174.499 302.659 170.276C316.527 168.05 330.496 166.398 344.402 164.423L443.643 150.508C455.858 148.809 468.069 147.368 480.254 145.43C486.854 168.259 486.691 193.355 489.395 216.884C493.656 251.223 498.749 285.437 504.672 319.528C510.584 319.519 516.52 318.948 522.432 318.734C531.655 318.399 540.791 318.306 550.001 317.539C563.761 316.392 577.43 314.422 591.162 313.006L651.794 306.312C663.187 305.041 674.586 304.097 685.938 302.447C697.488 300.768 708.903 298.206 720.408 296.244C725.987 295.292 743.376 294.238 746.804 290.074C748.541 287.964 743.549 260.65 742.934 255.122C737.853 209.687 733.348 164.194 729.418 118.645C733.721 118.164 738.073 117.989 742.395 117.717Z" fill="#FEFEFE"/>
<path d="M383.044 578.207C384.203 578.004 385.77 577.817 386.934 577.926C388.173 578.042 388.79 578.805 389.568 579.676C389.87 581 389.946 580.953 389.272 582.118C386.554 583.728 374.373 584.202 370.194 584.818C357.19 586.734 344.442 589.519 331.627 592.392C330.264 592.761 328.39 593.567 327.085 592.782C326.123 592.204 325.68 591.665 325.361 590.589L325.907 589.659C333.877 584.131 371.945 579.294 383.044 578.207Z" fill="#231F20"/>
<path d="M604.882 524.185C606.662 523.878 609.391 523.339 610.87 524.698C611.881 525.628 611.862 526.175 611.952 527.443C611.23 528.479 610.736 529.064 609.448 529.366C605.07 530.396 600.203 530.532 595.717 531.217C582.18 533.283 567.302 535.549 554.321 539.989C552.825 540.791 551.843 541.321 550.074 540.993C548.742 540.747 548.338 540.407 547.579 539.329C547.637 538.691 547.553 537.781 547.941 537.247C551.216 532.727 596.897 525.377 604.882 524.185Z" fill="#231F20"/>
<path d="M662.225 495.692C664.681 495.244 668.804 494.844 671.079 495.927C671.871 496.304 671.792 496.616 672.088 497.371C671.906 498.016 671.733 498.482 671.287 498.996C670.145 500.314 669.341 500.406 667.682 500.671C662.077 501.566 656.179 501.636 650.514 502.225C638.022 503.564 625.541 504.999 613.071 506.531C592.146 509.116 571.126 513.221 550.121 514.775C547.528 515.105 544.817 515.813 542.318 514.843C541.409 513.755 541.432 513.754 541.418 512.332C542.456 511.01 543.267 510.987 544.928 510.663C553.975 508.899 563.657 508.667 572.836 507.38L662.225 495.692Z" fill="#231F20"/>
<path d="M629.962 395.64C631.381 395.45 632.503 395.37 633.939 395.619C634.968 396.415 635.499 396.881 636.025 398.081C635.776 399.234 635.598 399.44 634.616 400.157C633.076 401.282 630.457 401.771 628.591 402.095C614.989 404.459 601.004 405.41 587.288 407.024C572.942 408.712 558.678 411.005 544.276 412.224C538.758 412.692 532.888 413.218 527.378 412.664C525.45 412.65 523.798 412.661 522.12 411.604C520.929 410.853 520.257 410.577 519.949 409.175C520.607 408.265 521.615 407.678 522.713 407.413C525.927 406.639 530.373 407.292 533.727 407.26C538.211 407.218 542.763 406.974 547.225 406.572C560.396 405.387 573.614 403.337 586.741 401.708C601.147 399.921 615.727 398.517 629.962 395.64Z" fill="#231F20"/>
<path d="M462.88 524.854C463.284 524.839 463.876 524.804 464.264 524.858C465.621 525.046 465.744 525.371 466.495 526.415C466.8 528.254 466.548 529.484 466.083 531.275C463.487 533.804 447.671 535.611 443.155 536.429C403.208 543.59 363.623 552.377 324.399 562.792L322.5 562.941C321.441 562.164 321.39 561.907 320.894 560.669C321.366 559.174 321.809 558.69 323.259 558.044C327.738 556.047 333.551 555.392 338.353 554.062C358.677 548.43 379.302 544.605 399.939 540.366C412.811 537.722 425.59 534.608 438.458 531.927C445.144 530.534 452.602 530.008 459.008 527.691C460.59 527.118 461.709 526.021 462.88 524.854Z" fill="#231F20"/>
<path d="M687.538 358.657C688.285 358.881 688.891 359.045 689.451 359.622C690.325 360.523 690.388 360.695 690.406 361.875C689.076 363.432 687.29 363.856 685.356 364.289C680.687 365.333 675.789 365.68 671.046 366.293L648.209 369.333C632.848 371.309 617.592 373.883 602.174 375.467C587.607 376.963 572.923 377.549 558.399 379.442C545.976 381.061 533.897 383.635 521.671 386.311C520.415 386.157 520.461 385.991 519.551 385.21C519.184 383.857 519.187 383.673 519.589 382.33C521.759 379.933 528.786 379.348 532.05 378.733C543.67 376.45 555.367 374.676 567.141 373.411C578.976 372.22 590.872 371.728 602.709 370.39C618.253 368.633 633.729 365.99 649.259 364.029C660.456 362.615 676.96 361.479 687.538 358.657Z" fill="#231F20"/>
<path d="M374.059 265.117C374.601 265.167 375.149 265.447 375.659 265.638C378.49 268.651 380.231 284.079 380.23 288.645C378.412 290.331 349.271 293.926 344.295 294.58C342.638 293.402 341.546 291.94 340.304 290.356C339.947 287.35 336.8 276.671 338.645 274.604C341.195 271.746 345.056 273.378 348.343 273.064C357.185 272.22 365.235 266.376 374.059 265.117Z" fill="#231F20"/>
<path d="M370.495 271.504C371.207 271.603 370.775 271.478 371.664 272.178C372.864 276.401 372.724 281.416 373.185 285.811C364.162 287.203 355.077 288.182 346.08 289.719C343.98 287.346 343.8 281.501 343.299 278.327C352.846 277.537 361.56 274.782 370.495 271.504Z" fill="#4B6F4C"/>
<path d="M445.822 388.308C446.015 388.272 446.208 388.23 446.403 388.201C448.899 387.83 452.525 387.452 454.501 389.459C455.446 390.418 455.305 391.007 455.175 392.202C454.67 392.891 454.314 393.202 453.431 393.408C450.993 393.976 447.796 393.794 445.265 393.962C441.267 394.227 437.324 394.714 433.364 395.311C408.98 398.984 384.723 403.817 360.515 408.497C341.772 412.12 322.957 414.354 305.178 421.641L303.022 422.187C301.51 422.571 300.44 423.019 298.911 422.404C297.681 421.007 297.81 419.329 297.69 417.564C321.169 408.005 349.279 404.406 374.271 399.616C391.206 396.37 408.084 393.074 425.165 390.677C432.02 389.715 438.898 388.57 445.822 388.308Z" fill="#231F20"/>
<path d="M730.745 412.523C731.208 412.502 732.032 412.437 732.469 412.548C733.678 412.853 734.004 413.6 734.558 414.574C734.458 415.35 734.534 415.845 734.013 416.479C731.552 419.479 719.951 420.408 716.071 420.995C697.397 423.818 677.57 424.835 658.646 427.224C628.272 431.06 597.942 435.882 567.484 438.994C554.7 440.171 541.893 440.992 529.063 441.457L526.238 440.926C525.167 439.993 524.744 439.564 524.284 438.163C525.57 435.994 528.312 436.137 530.596 436.227C538.932 436.558 546.991 435.722 555.299 435.077C582.355 432.979 609.071 428.102 635.997 424.921C652.82 422.933 669.66 420.819 686.502 419.023C701.553 417.418 716.159 417.186 730.745 412.523Z" fill="#231F20"/>
<path d="M311.673 278.65C313.768 278.344 315.938 278.469 318.053 278.484C319.284 285.456 318.659 292.671 318.477 299.727C318.411 299.839 318.366 299.966 318.279 300.063C314.94 303.786 285.463 309.354 279.593 309.865C278.742 309.096 277.9 308.37 277.34 307.353C275.41 303.848 275.991 299.569 275.376 295.741C274.782 292.043 272.663 288.24 273.651 284.473C276.269 281.997 279.19 284.807 282.266 284.706C285.017 284.616 288.248 283.436 290.978 282.838C297.841 281.332 304.752 279.856 311.673 278.65Z" fill="#231F20"/>
<path d="M311.133 284.127L312.438 284.115C314.086 286.703 312.839 294.238 312.615 297.479C305.285 299.18 298.003 301.086 290.66 302.734C287.928 303.347 284.661 303.278 282.163 304.425C280.891 299.618 280.181 294.544 279.164 289.663C289.349 287.356 300.607 286.316 311.133 284.127Z" fill="#4B6F4C"/>
<path d="M412.75 208.059C413.585 207.971 414.881 207.726 415.673 208.031C419.636 209.557 422.943 219.015 425.235 222.568L425.607 223.134C428.707 222.134 432.495 220.463 435.743 220.355C437.418 220.3 438.411 220.662 439.624 221.865C441.061 225.669 437.585 226.45 436.962 229.644C436.637 231.31 438.552 234.235 437.873 235.668C437.093 237.311 435.177 237.119 435.1 239.511C434.968 243.581 439.118 247.089 438.661 251.488C438.087 252.132 437.984 252.509 437.079 252.674C432.892 253.436 426.695 248.213 423.277 245.922C416.825 243.106 413.604 253.049 407.914 253.796C407.106 253.902 406.958 253.545 406.368 253.089C404.728 249.017 406.744 242.696 407.408 238.428C403.665 237.406 397.536 237.931 394.403 235.897C393.893 234.697 393.902 234.097 394.092 232.814C396.645 229.555 406.298 227.321 410.465 225.757C410.504 219.723 411.29 213.912 412.75 208.059Z" fill="#231F20"/>
<path d="M414.547 217.378C418.865 220.492 421.103 228.049 422.197 228.466C425.139 229.586 430.068 226.902 432.847 225.811C429.044 231.456 425.615 235.203 419.735 238.695C417.191 239.433 413.738 243.09 411.62 244.817C412.25 242.978 413.05 241.016 413.324 239.089C413.488 237.939 413.362 236.707 412.559 235.816C410.844 233.912 407.804 233.945 405.416 233.669C408.562 232.054 411.514 230.146 414.498 228.254C414.469 224.629 414.486 221.003 414.547 217.378Z" fill="#FABD1C"/>
<path d="M267.589 200.306C268.558 200.35 269.679 200.329 270.579 200.754C274.974 202.826 277.712 211.73 279.721 215.96C283.307 214.54 287.616 212.418 291.494 212.18C293.134 212.08 294.153 212.357 295.39 213.501C295.95 217.735 290.345 220.281 289.941 224.222C290.421 225.713 291.453 226.198 292.613 227.109C293.626 227.905 294.222 228.108 294.408 229.469C293.153 230.945 291.386 231.604 289.671 232.422C290.425 236.078 291.824 240.519 290.31 244.143C289.82 245.315 288.948 246.271 287.708 246.657C283.487 247.97 276.97 243.706 273.343 241.892C272.221 241.422 270.749 240.652 269.511 240.782C264.916 241.262 262.093 248.312 259.146 251.184C258.014 252.287 257.142 252.43 255.612 252.423C254.841 251.986 254.326 251.908 253.952 251.051C252.307 247.274 257.479 237.903 258.791 234.024C254.784 232.279 249.481 230.048 247.439 225.983C247.441 225.097 247.276 224.558 247.786 223.785C250.567 219.568 260.593 217.883 265.287 217C266.158 211.61 265.81 205.425 267.589 200.306Z" fill="#231F20"/>
<path d="M269.65 209.33C272.714 211.988 274.947 217.73 277.069 221.277L286.179 218.996C284.447 221.701 280.638 225.038 279.757 227.977C278.877 230.913 284.031 237.35 285.563 240.086C281.995 238.269 278.415 236.476 274.822 234.708L269.958 232.103C267.115 234.631 264.256 237.14 261.381 239.631C261.772 237.202 264.575 230.957 263.488 229.015C262.131 226.59 257.025 225.692 254.511 224.886C256.847 224.695 258.87 224.277 261.118 223.636C263.617 222.923 266.357 222.303 268.138 220.248C270.759 217.223 269.903 212.991 269.65 209.33Z" fill="#FABD1C"/>
<path d="M733.699 470.206C745.221 468.412 760.226 471.513 769.814 478.221C781.315 486.267 788.343 500.964 790.702 514.486C793.595 531.066 790.743 558.39 780.745 572.411C771.641 585.179 751.909 589.491 737.398 591.856L735.684 592.031C735.089 592.096 734.494 592.167 733.898 592.227C722.249 593.385 708.207 587.922 699.328 580.573C687.221 570.552 679.1 553.613 677.653 538.075C675.949 519.773 680.617 504.712 692.377 490.701C703.302 477.686 716.967 471.643 733.699 470.206Z" fill="#231F20"/>
<path d="M734.643 475.214C746.554 475.332 757.657 476.239 767.585 483.57C778.163 491.381 783.534 504.285 785.284 517.015C787.036 529.763 783.156 548.047 775.255 558.319C766.73 569.402 749.842 574.668 736.55 576.31C736.084 576.36 735.618 576.404 735.151 576.442C722.996 577.422 711.171 574.549 701.805 566.449C692.166 558.113 685.71 544.432 684.915 531.759C684.006 517.256 687.642 504.455 697.372 493.477C707.198 482.391 719.863 476.1 734.643 475.214Z" fill="#FEFEFE"/>
<path d="M732.636 477.245C733.967 477.298 735.032 477.348 736.18 478.091C737.494 478.941 738.332 480.437 738.539 481.97C738.91 484.719 738.092 486.838 736.4 488.951C735.084 488.928 733.81 488.98 732.699 488.133C732.414 487.912 732.152 487.666 731.913 487.396C731.675 487.125 731.464 486.835 731.28 486.525C731.096 486.214 730.943 485.889 730.821 485.55C730.698 485.211 730.609 484.863 730.552 484.507C730.085 481.533 730.872 479.571 732.636 477.245Z" fill="#231F20"/>
<path d="M693.511 535.666C695.845 535.37 697.71 534.909 699.673 536.515C700.722 537.373 701.228 538.288 701.329 539.658C701.478 541.686 700.167 543.669 698.838 545.045C697.218 545.176 695.588 545.338 694.149 544.403C692.774 543.51 691.918 542.326 691.68 540.675C691.411 538.8 692.424 537.075 693.511 535.666Z" fill="#231F20"/>
<path d="M694.468 507.039C696.153 506.881 697.896 506.691 699.538 507.228C700.809 507.643 701.907 508.435 702.444 509.7C703.356 511.851 702.109 514.198 701.188 516.106C699.279 516.598 697.718 516.921 695.873 515.925C694.433 515.147 693.407 513.95 693.05 512.325C692.584 510.205 693.328 508.772 694.468 507.039Z" fill="#231F20"/>
<path d="M708.296 488.019C710.371 487.892 712.125 487.674 713.989 488.767C715.465 489.633 716.356 490.676 716.707 492.399C717.12 494.43 716.058 496.268 715.003 497.895C713.575 498.281 712.678 498.769 711.225 498.123C709.237 497.24 707.969 494.609 707.496 492.641C706.995 490.554 707.263 489.781 708.296 488.019Z" fill="#231F20"/>
<path d="M709.919 557.406C711.715 557.346 713.715 557.282 715.28 558.326C716.314 559.016 716.967 559.957 717.093 561.224C717.347 563.794 715.132 565.706 713.464 567.273C713.235 567.319 713.009 567.391 712.776 567.411C711.39 567.533 709.286 566.799 708.284 565.788C707.138 564.633 706.697 563.226 706.839 561.629C707.012 559.682 708.55 558.587 709.919 557.406Z" fill="#231F20"/>
<path d="M771.661 529.747C774.567 529.862 779.69 528.671 782.045 530.461C782.461 531.759 782.583 532.009 781.865 533.287C781.011 534.807 779.458 535.528 777.892 536.061C774.085 535.848 768.758 535.201 765.695 532.602C764.891 531.92 765.106 532.27 765.023 531.236C767.044 529.776 769.274 529.873 771.661 529.747Z" fill="#231F20"/>
<path d="M758.331 483.853C759.705 484.209 761.831 484.564 762.913 485.454C764.149 486.469 764.602 488.376 764.398 489.879C763.968 493.037 761.143 495.37 758.819 497.223C758.584 497.311 758.358 497.434 758.112 497.488C757.317 497.66 755.796 497.375 755.102 496.986C754.298 496.536 753.895 495.088 753.792 494.236C753.364 490.731 756.41 486.54 758.331 483.853Z" fill="#231F20"/>
<path d="M735.276 559.01C736.284 559.087 737.589 559.102 738.539 559.443C739.81 559.9 740.542 560.81 741.146 561.977C742.097 563.813 741.915 565.758 741.231 567.635C740.327 570.115 739.27 570.78 736.954 571.797C736.703 571.708 736.451 571.623 736.202 571.529C734.138 570.753 732.601 569.443 731.742 567.392C730.968 565.545 730.83 563.789 731.711 561.941C732.53 560.221 733.543 559.644 735.276 559.01Z" fill="#231F20"/>
<path d="M755.587 554.4C758.541 554.373 760.391 555.431 762.634 557.34C764.17 558.647 765.447 560.968 765.417 563.023C765.394 564.607 763.869 565.999 762.882 567.116C759.715 566.828 756.182 564.838 754.163 562.362C753.065 561.016 752.302 559.327 752.707 557.559C753.058 556.026 754.39 555.24 755.587 554.4Z" fill="#231F20"/>
<path d="M771.995 500.508C773.143 500.45 774.349 500.352 775.494 500.459C776.711 500.573 778.051 501.26 778.749 502.273C779.449 503.287 779.392 504.362 779.093 505.504C778.344 508.366 775.849 509.937 773.507 511.398L772.821 511.434C770.133 511.555 768.565 511.574 766.505 509.711C766.075 508.617 765.824 508.165 766.034 506.97C766.585 503.844 769.574 502.116 771.995 500.508Z" fill="#231F20"/>
<path d="M743.78 505.612C745.035 505.674 746.333 505.503 747.572 505.705C749.17 505.965 750.667 506.776 751.559 508.154C752.046 508.907 751.878 508.679 751.616 509.666C750.53 510.682 749.36 510.937 747.972 511.349L747.331 511.534C750.721 515.129 753.966 518.818 755.111 523.782C755.866 527.057 755.51 530.479 753.6 533.301C750.386 538.05 733.985 544.874 728.125 545.947C726.263 546.097 724.404 546.16 722.547 545.9C720.6 545.628 718.712 544.919 717.638 543.191C716.977 542.129 717.118 540.846 717.503 539.709C718.369 537.146 721.602 535.882 723.803 534.687C720.596 532.782 718.67 531.221 716.577 528.097C716.924 524.904 717.261 521.759 718.264 518.692C722.293 506.375 730.722 511.146 738.49 507.177C740.293 506.256 741.795 505.959 743.78 505.612Z" fill="#231F20"/>
<path d="M727.927 515.036L728.207 515.473C726.336 518.708 725.276 522.314 723.693 525.693C723.575 525.568 723.447 525.451 723.338 525.318C722.384 524.166 722.228 522.997 722.477 521.57C722.992 518.624 725.572 516.57 727.927 515.036Z" fill="#FEFEFE"/>
<path d="M734.993 515.329C736.162 515.371 737.471 515.275 738.494 515.914C739.114 516.302 738.975 516.748 739.071 517.4C738.205 519.258 736.739 520.536 735.309 521.965C734.301 522.649 733.687 523.047 732.466 523.195L731.829 522.403C731.929 519.631 733.207 517.383 734.993 515.329Z" fill="#FEFEFE"/>
<path d="M744.694 518.226C746.501 519.55 748.529 521.417 748.781 523.778C748.924 525.126 748.431 526.322 747.579 527.335C744.842 530.589 741.15 531.048 737.22 531.517C736.137 531.523 735.151 531.432 734.081 531.265L733.556 530.426C735.304 526.9 741.555 524.522 744.694 518.226Z" fill="#FEFEFE"/>
</g>
<defs>
<clipPath id="clip0_16_601">
<rect width="1024" height="1024" fill="white"/>
</clipPath>
</defs>
</svg>
