<svg width="145" height="146" viewBox="0 0 145 146" fill="none" xmlns="http://www.w3.org/2000/svg">
<path d="M51.8637 10.044C69.3294 -1.15719 74.0816 -1.73221 96 3.07521C112.5 11.9754 126.879 19.1975 137 35.0753C142.481 43.6766 145.853 55.6104 143.5 65.8895C139.627 82.8066 131.152 112.129 118.502 125.165C114.515 129.274 109.881 132.795 105.011 135.782C100.897 138.304 94.6176 141.914 89.7475 142.159C88.4347 143.93 82.9051 144.646 80.703 145C62.6444 147.907 44.8217 144.126 30.0057 133.394C29.3282 132.914 28.6606 132.421 28.0032 131.917C27.3418 131.412 26.6904 130.896 26.0492 130.369C25.4119 129.842 24.7807 129.303 24.1556 128.753C23.5345 128.203 22.9234 127.642 22.3225 127.07C21.7215 126.499 21.1307 125.916 20.5499 125.323C19.9691 124.731 19.3985 124.128 18.8378 123.515C18.2772 122.902 17.7287 122.279 17.1922 121.646C16.6518 121.014 16.1255 120.372 15.6132 119.721C15.097 119.07 14.5928 118.409 14.1008 117.74C13.6087 117.071 13.1308 116.393 12.667 115.707C12.1991 115.021 11.7434 114.326 11.2997 113.624C10.8561 112.922 10.4265 112.212 10.0111 111.494C9.59168 110.776 9.18633 110.051 8.79511 109.319C8.40389 108.587 8.02477 107.849 7.65775 107.103C7.29476 106.358 6.94388 105.606 6.60509 104.847C6.2663 104.089 5.93961 103.325 5.62502 102.556C5.31447 101.786 5.01805 101.011 4.73572 100.231C4.44936 99.4508 4.17916 98.6657 3.92507 97.8758C3.66694 97.0858 3.42491 96.2917 3.19905 95.4933C2.96916 94.6948 2.75544 93.8926 2.55781 93.0865C2.35615 92.2805 2.1706 91.4711 2.0012 90.6586C1.82777 89.8457 1.67046 89.0301 1.5293 88.2119C1.38814 87.3937 1.26109 86.5733 1.14816 85.7506C1.03523 84.928 0.936422 84.1036 0.851724 83.2773C0.77106 82.451 0.702517 81.6236 0.646052 80.7949C0.59362 79.9662 0.55534 79.1367 0.531141 78.3064C0.506942 77.4765 0.496829 76.6464 0.500863 75.8161C0.504896 74.9854 0.525047 74.1553 0.561346 73.3258C0.593611 72.4959 0.642004 71.667 0.706535 70.8392C0.771066 70.0109 0.849723 69.1842 0.942486 68.3592C1.03525 67.5341 1.14215 66.7109 1.26314 65.8895C1.38414 65.068 1.5213 64.249 1.67456 63.4324C2.30374 60.2011 6.19977 49.3838 5.78838 47.2543C5.76418 47.1593 5.88444 47.4333 5.78838 46.9687C7.85136 45.7105 17.035 30.0735 21.6026 25.6984C25.5833 21.8894 30.6349 18.8173 35.4445 16.192C37.7797 14.9156 41.337 13.8851 43.1519 11.9754C46.0921 11.5873 48.9961 10.7821 51.8637 10.044Z" fill="#231F20"/>
<path d="M63.3098 0.705809C64.4593 0.541928 65.6128 0.406493 66.7703 0.299527C67.9238 0.19256 69.0813 0.114065 70.2429 0.064013C71.4004 0.0143645 72.56 -0.00685202 73.7215 0.000413605C74.8831 0.00727559 76.0426 0.0429994 77.2001 0.107583C78.3617 0.171763 79.5193 0.264614 80.6728 0.386112C81.8263 0.507206 82.9777 0.656736 84.1272 0.834744C85.2726 1.01275 86.4141 1.21881 87.5514 1.45293C88.6888 1.68704 89.8181 1.94903 90.9393 2.23885C92.0645 2.52907 93.1817 2.84653 94.2908 3.19125C95.4 3.53596 96.499 3.90793 97.588 4.30714C98.681 4.70594 99.7619 5.13159 100.831 5.58408C101.899 6.03616 102.956 6.51425 104.001 7.01841C105.045 7.52297 106.078 8.05275 107.098 8.60776C108.119 9.16278 109.125 9.74261 110.117 10.3473C111.109 10.9519 112.085 11.5806 113.045 12.2333C114.005 12.8864 114.949 13.5625 115.877 14.2616C116.8 14.9608 117.708 15.6823 118.599 16.4262C119.494 17.1701 120.367 17.9356 121.218 18.7227C122.074 19.5098 122.908 20.3174 123.723 21.1452C124.538 21.9735 125.33 22.8212 126.101 23.6882C126.875 24.5552 127.627 25.4408 128.357 26.345C129.083 27.2492 129.789 28.1707 130.475 29.1096C131.156 30.0484 131.816 31.0035 132.453 31.9746C133.09 32.9462 133.703 33.9327 134.292 34.9342C134.881 35.936 135.444 36.9516 135.98 37.9809C136.52 39.0102 137.033 40.052 137.517 41.1063C138.005 42.161 138.467 43.2271 138.902 44.3044C139.338 45.3818 139.745 46.469 140.124 47.5661C140.507 48.6636 140.862 49.7698 141.189 50.8846C141.516 51.9991 141.814 53.1212 142.084 54.2511C142.354 55.3805 142.599 56.5159 142.816 57.6574C143.03 58.7989 143.218 59.9451 143.379 61.0959C143.54 62.2467 143.671 63.4007 143.772 64.558C143.873 65.7152 143.948 66.8741 143.996 68.0346C144.04 69.1955 144.057 70.3567 144.044 71.5184C144.032 72.6801 143.992 73.8408 143.923 75.0005C143.855 76.1602 143.758 77.3176 143.633 78.4728C143.508 79.6277 143.355 80.7787 143.173 81.9258C142.992 83.0734 142.782 84.2157 142.544 85.3528C142.306 86.4898 142.04 87.6203 141.745 88.744C141.451 89.8682 141.13 90.9843 140.784 92.0923C140.433 93.2003 140.058 94.2992 139.658 95.3891C139.255 96.4785 138.825 97.5574 138.37 98.6259C137.914 99.6943 137.432 100.751 136.924 101.796C136.416 102.841 135.883 103.872 135.327 104.891C134.766 105.909 134.181 106.913 133.572 107.903C132.967 108.893 132.336 109.867 131.679 110.825C131.025 111.784 130.346 112.726 129.64 113.652C128.938 114.577 128.214 115.484 127.468 116.374C126.722 117.263 125.953 118.134 125.163 118.985C124.377 119.837 123.568 120.669 122.737 121.481C121.906 122.293 121.055 123.084 120.184 123.854C119.317 124.624 118.43 125.372 117.522 126.098C116.619 126.825 115.695 127.528 114.751 128.208C113.812 128.889 112.856 129.547 111.884 130.181C110.912 130.814 109.924 131.424 108.919 132.008C107.919 132.594 106.903 133.154 105.87 133.689C104.842 134.223 103.799 134.733 102.742 135.216C101.686 135.7 100.619 136.157 99.5421 136.588C98.4652 137.019 97.3762 137.424 96.2752 137.802C95.1781 138.179 94.0731 138.529 92.9599 138.852C91.8427 139.175 90.7195 139.47 89.5902 139.738C88.4609 140.006 87.3255 140.246 86.1842 140.457C85.0428 140.669 83.8973 140.853 82.7478 141.008C81.6024 141.163 80.455 141.289 79.3055 141.388C78.152 141.486 76.9985 141.556 75.845 141.598C74.6915 141.64 73.536 141.654 72.3785 141.639C71.225 141.624 70.0715 141.581 68.918 141.509C67.7645 141.438 66.613 141.339 65.4635 141.211C64.3141 141.083 63.1687 140.927 62.0273 140.744C60.8899 140.559 59.7552 140.348 58.623 140.108C57.4929 139.869 56.3691 139.601 55.2515 139.307C54.1343 139.012 53.025 138.691 51.9235 138.342C50.8216 137.992 49.7292 137.617 48.6463 137.214C47.563 136.811 46.4902 136.383 45.4278 135.928C44.3659 135.472 43.3154 134.991 42.2765 134.485C41.2379 133.978 40.2123 133.446 39.1996 132.889C38.1872 132.332 37.1888 131.751 36.2043 131.145C35.2202 130.539 34.2514 129.909 33.298 129.256C32.3449 128.602 31.4082 127.926 30.4878 127.227C29.5675 126.528 28.6648 125.806 27.7799 125.062C26.8951 124.319 26.0289 123.554 25.1816 122.768C24.3338 121.982 23.506 121.176 22.6981 120.349C21.8903 119.523 21.103 118.677 20.3363 117.811C19.5696 116.946 18.8244 116.063 18.1009 115.161C17.3777 114.259 16.6769 113.34 15.9986 112.404C15.3202 111.468 14.665 110.516 14.033 109.548C13.4014 108.58 12.7936 107.596 12.2096 106.598C11.626 105.6 11.0672 104.589 10.5332 103.563C9.99877 102.538 9.48998 101.5 9.0068 100.45C8.52322 99.3993 8.06585 98.3377 7.6347 97.2648C7.20315 96.1919 6.79822 95.1091 6.41991 94.0164C6.04119 92.9238 5.68971 91.8226 5.36544 90.713C5.04077 89.603 4.74352 88.4859 4.4737 87.3617C4.20388 86.2372 3.96169 85.1068 3.74712 83.9705C3.53256 82.8342 3.34603 81.6933 3.18753 80.5478C3.02902 79.4022 2.89834 78.2537 2.79549 77.1021C2.69305 75.9501 2.61885 74.7965 2.57287 73.6412C2.52689 72.4856 2.50933 71.3295 2.52022 70.1731C2.5307 69.017 2.56943 67.8618 2.63638 66.7074C2.70374 65.5529 2.79914 64.4007 2.92255 63.2508C3.04597 62.1012 3.19759 60.9552 3.37747 59.8129C3.55695 58.6706 3.76426 57.5333 3.9994 56.4011C4.23453 55.2689 4.49728 54.1431 4.78767 53.0238C5.07806 51.9045 5.39568 50.793 5.74052 49.6895C6.08536 48.5855 6.45703 47.4908 6.85551 46.4054C7.25359 45.32 7.67807 44.2449 8.12898 43.1801C8.5803 42.1157 9.05703 41.0627 9.55916 40.0213C10.0617 38.9799 10.5894 37.9514 11.1424 36.9358C11.6954 35.9207 12.2727 34.9194 12.8744 33.9321C13.4762 32.9452 14.1017 31.9734 14.7511 31.0168C15.4008 30.0605 16.0734 29.1207 16.7687 28.1971C17.464 27.2736 18.1815 26.3676 18.9212 25.4792C19.6609 24.5907 20.422 23.7211 21.2044 22.8702C21.9869 22.0193 22.7895 21.188 23.6122 20.3763C24.4354 19.5645 25.2778 18.7736 26.1393 18.0034C27.0011 17.2329 27.8812 16.4839 28.7794 15.7565C29.678 15.0296 30.5937 14.3248 31.5266 13.6422C32.4595 12.9601 33.4085 12.3011 34.3736 11.6654C35.3388 11.0292 36.3189 10.4173 37.3138 9.8296C38.3088 9.2419 39.3177 8.67901 40.3406 8.14095C41.363 7.60249 42.3981 7.08946 43.4459 6.60185C44.4937 6.11425 45.5526 5.65269 46.6226 5.21715C47.6931 4.78162 48.7736 4.37231 49.8642 3.98925C50.9543 3.60659 52.0534 3.25097 53.1613 2.9224C54.2688 2.59343 55.3838 2.29193 56.5062 2.01786C57.6291 1.74378 58.7576 1.49735 59.8917 1.27857C61.025 1.0598 62.1644 0.868882 63.3098 0.705809Z" fill="#231F20"/>
<path d="M28.1682 22.5037C28.5965 22.102 29.0301 21.7063 29.4689 21.3163C29.9077 20.9264 30.3516 20.5426 30.8005 20.1648C31.2498 19.7865 31.7039 19.4144 32.1629 19.0483C32.6218 18.6822 33.0855 18.3223 33.5537 17.9687C34.0224 17.6151 34.4957 17.2678 34.9736 16.9267C35.4511 16.5856 35.9333 16.251 36.4201 15.9228C36.9065 15.5946 37.3974 15.2729 37.8926 14.9577C38.3879 14.6429 38.8872 14.3345 39.3906 14.0325C39.8943 13.7306 40.4017 13.4356 40.9127 13.1474C41.4241 12.8591 41.9392 12.5778 42.4578 12.3033C42.9765 12.0285 43.4988 11.7608 44.0247 11.5005C44.5506 11.2397 45.08 10.986 45.6128 10.7394C46.1452 10.4928 46.681 10.2534 47.2202 10.0213C47.7591 9.7888 48.3009 9.56377 48.8458 9.34621C49.3911 9.12824 49.939 8.91753 50.4895 8.7141C51.0401 8.51106 51.5932 8.31531 52.149 8.12681C52.7048 7.93831 53.263 7.75725 53.8236 7.58368C54.3842 7.41011 54.947 7.24401 55.5121 7.08538C56.0771 6.92675 56.6442 6.77561 57.2133 6.63191C57.7824 6.48861 58.3533 6.35277 58.926 6.22441C59.4971 6.09605 60.071 5.97538 60.6478 5.86236C61.2245 5.74934 61.8013 5.64397 62.378 5.54628C62.9588 5.4486 63.5396 5.35879 64.1204 5.27685C64.7011 5.1945 65.2839 5.12006 65.8688 5.05345C66.4495 4.98685 67.0323 4.92792 67.6171 4.87666C68.2019 4.8258 68.7868 4.78258 69.3716 4.74706C69.9604 4.71154 70.5472 4.68391 71.1321 4.66413C71.7169 4.64436 72.3037 4.63225 72.8926 4.62781C73.4774 4.62337 74.0642 4.627 74.653 4.63871C75.2379 4.65001 75.8247 4.66917 76.4136 4.69621C76.9984 4.72326 77.5832 4.75797 78.168 4.80035C78.7528 4.84314 79.3376 4.89359 79.9224 4.95172C80.6322 5.02276 81.3421 5.10511 82.0519 5.19876C82.7577 5.29281 83.4636 5.39815 84.1694 5.5148C84.8752 5.63186 85.579 5.76002 86.2807 5.89928C86.9785 6.03894 87.6763 6.18989 88.374 6.35216C89.0677 6.51443 89.7594 6.68802 90.4491 6.87289C91.1428 7.05776 91.8305 7.25351 92.5121 7.46018C93.1977 7.66725 93.8773 7.88542 94.5508 8.11469C95.2284 8.34355 95.9019 8.58354 96.5715 8.8346C97.241 9.08527 97.9065 9.34703 98.5679 9.6199C99.2294 9.89236 99.8848 10.1753 100.534 10.4688C101.183 10.7626 101.831 11.067 102.476 11.3818C103.117 11.6962 103.753 12.0212 104.382 12.3566C105.011 12.6921 105.636 13.0376 106.257 13.3932C106.878 13.7488 107.491 14.1145 108.096 14.4903C108.705 14.8657 109.308 15.251 109.905 15.6461C110.498 16.0409 111.087 16.4456 111.672 16.8601C112.253 17.2742 112.827 17.6976 113.396 18.1303C113.965 18.5631 114.527 19.0051 115.084 19.4563C115.636 19.9072 116.183 20.367 116.723 20.8356C117.264 21.3046 117.794 21.7822 118.314 22.2682C118.839 22.7541 119.355 23.2486 119.863 23.7515C120.371 24.2541 120.871 24.7649 121.364 25.284C121.856 25.8031 122.338 26.3298 122.809 26.8643C123.285 27.3991 123.751 27.9414 124.207 28.4911C124.667 29.0409 125.114 29.5978 125.55 30.1616C125.99 30.7259 126.419 31.2973 126.839 31.8757C127.258 32.4537 127.669 33.0386 128.073 33.6304C128.472 34.2217 128.863 34.8195 129.246 35.4238C129.63 36.028 130.003 36.6383 130.366 37.2547C130.725 37.8707 131.075 38.4927 131.418 39.1208C131.761 39.7484 132.094 40.3813 132.417 41.0195C132.735 41.6581 133.046 42.3017 133.348 42.9504C133.772 43.8654 134.175 44.79 134.558 45.724C134.941 46.6576 135.302 47.5995 135.641 48.5497C135.98 49.4999 136.296 50.4572 136.591 51.4215C136.885 52.3862 137.158 53.3572 137.408 54.3344C137.662 55.3116 137.892 56.2941 138.097 57.2818C138.303 58.2695 138.487 59.2613 138.648 60.2571C138.805 61.2533 138.942 62.2525 139.059 63.2548C139.172 64.2574 139.265 65.2619 139.338 66.2682C139.406 67.2749 139.45 68.2826 139.471 69.2913C139.495 70.3 139.495 71.3085 139.471 72.3168C139.45 73.3255 139.404 74.3332 139.331 75.3399C139.263 76.3466 139.172 77.3511 139.059 78.3533C138.942 79.3556 138.803 80.3548 138.642 81.351C138.484 82.3468 138.303 83.3386 138.097 84.3263C137.888 85.314 137.658 86.2965 137.408 87.2737C137.158 88.2505 136.885 89.2213 136.591 90.186C136.296 91.1507 135.98 92.1082 135.641 93.0584C135.298 94.0085 134.937 94.9504 134.558 95.8841C134.175 96.8177 133.772 97.7423 133.348 98.6577C132.925 99.5728 132.479 100.478 132.011 101.373C131.547 102.268 131.061 103.151 130.553 104.023C130.049 104.896 129.523 105.757 128.974 106.605C128.43 107.454 127.865 108.289 127.28 109.112C126.699 109.934 126.099 110.743 125.477 111.538C124.856 112.334 124.217 113.114 123.56 113.88C122.906 114.646 122.233 115.397 121.539 116.132C120.849 116.867 120.144 117.585 119.422 118.288C118.696 118.991 117.955 119.677 117.201 120.346C116.447 121.014 115.679 121.666 114.896 122.299C114.11 122.933 113.311 123.548 112.501 124.146C111.686 124.743 110.859 125.321 110.02 125.88C109.181 126.439 108.33 126.979 107.467 127.499C106.604 128.02 105.729 128.52 104.842 129C103.954 129.48 103.057 129.94 102.149 130.379C101.242 130.818 100.324 131.236 99.3967 131.633C98.4731 132.031 97.5374 132.406 96.5896 132.761C95.6459 133.115 94.6961 133.448 93.7402 133.759C92.7803 134.069 91.8143 134.358 90.8423 134.624C89.8703 134.891 88.8923 135.135 87.9082 135.357C86.9241 135.579 85.9359 135.778 84.9438 135.955C83.9516 136.132 82.9554 136.285 81.9552 136.416C80.955 136.547 79.9526 136.655 78.9484 136.741C77.9441 136.826 76.9378 136.888 75.9295 136.926C74.9212 136.966 73.9129 136.982 72.9046 136.975C71.8963 136.968 70.8901 136.937 69.8858 136.884C68.8775 136.831 67.8712 136.755 66.8669 136.656C65.8667 136.556 64.8665 136.434 63.8663 136.289C62.8701 136.145 61.8779 135.977 60.8897 135.786C59.8976 135.596 58.9114 135.383 57.9314 135.147C56.9509 134.912 55.9765 134.654 55.0081 134.374C54.0398 134.093 53.0782 133.791 52.1236 133.467C51.1689 133.143 50.2221 132.797 49.2832 132.429C48.3443 132.062 47.4142 131.673 46.493 131.263C45.5719 130.853 44.6606 130.422 43.7591 129.97C42.8577 129.518 41.9672 129.046 41.0875 128.553C40.2075 128.061 39.3394 127.548 38.4831 127.015C37.6269 126.483 36.7831 125.931 35.9519 125.361C35.1206 124.79 34.3029 124.2 33.4987 123.592C32.6944 122.983 31.9045 122.357 31.129 121.712C30.3534 121.068 29.5929 120.406 28.8476 119.726C28.1018 119.047 27.3723 118.351 26.6588 117.638C25.9453 116.925 25.2486 116.196 24.5686 115.452C23.8882 114.707 23.2253 113.947 22.58 113.172C21.9343 112.397 21.3067 111.608 20.6973 110.804C20.0863 109.998 19.494 109.179 18.9205 108.346C18.3469 107.513 17.793 106.667 17.2586 105.809C16.7238 104.95 16.209 104.08 15.7141 103.198C15.2192 102.316 14.7449 101.423 14.2912 100.519C13.837 99.6152 13.4041 98.7015 12.9923 97.778C12.5801 96.854 12.1893 95.9212 11.8198 94.9795C11.4508 94.0382 11.1033 93.0886 10.7774 92.1308C10.4515 91.1733 10.1479 90.2088 9.86634 89.2373C9.58482 88.2657 9.3257 87.2882 9.08895 86.305C8.8518 85.3213 8.63763 84.333 8.44646 83.34C8.25488 82.3466 8.08607 81.3494 7.94007 80.3483C7.79447 79.3473 7.67169 78.3434 7.57167 77.3367C7.47205 76.3305 7.39541 75.3222 7.34177 74.3118C7.28813 73.3015 7.25768 72.2906 7.25042 71.279C7.24275 70.2675 7.25849 69.2563 7.29761 68.2456C7.33673 67.2349 7.39883 66.2256 7.48393 65.2177C7.56944 64.2098 7.67772 63.2043 7.8088 62.2012C7.94028 61.1982 8.09456 60.1987 8.27162 59.2029C8.44908 58.2067 8.6489 57.2154 8.87113 56.2289C9.09376 55.242 9.33899 54.2607 9.60679 53.2851C9.87419 52.3099 10.1638 51.3411 10.4756 50.3789C10.7877 49.4166 11.1217 48.4619 11.4774 47.515C11.8331 46.5684 12.2102 45.6304 12.6087 44.7008C13.0072 43.7712 13.4269 42.8511 13.8677 41.9404C14.3085 41.0302 14.7701 40.1307 15.2525 39.2419C15.7345 38.3526 16.2366 37.4749 16.7589 36.6087C17.2808 35.7429 17.8224 34.8891 18.3838 34.0475C18.9453 33.2063 19.5257 32.3785 20.125 31.5639C20.7243 30.7493 21.342 29.9489 21.978 29.1626C22.6141 28.3767 23.2676 27.6056 23.9388 26.8491C24.6103 26.0931 25.2986 25.3526 26.0036 24.6276C26.709 23.9031 27.4305 23.1951 28.1682 22.5037Z" fill="#FEFEFE"/>
<path d="M67.375 44.0596C69.7042 39.5234 71.8639 34.9273 73.9814 30.29C76.4497 34.6537 79.1419 39.0082 81.1867 43.5831C84.3608 42.5377 87.543 41.5213 90.7332 40.534C90.824 40.7774 90.9994 41.2133 91.0478 41.4973C91.5681 44.5949 88.5795 64.6716 87.055 67.013C87.1639 66.9694 87.2728 66.9288 87.3817 66.8828C87.5632 66.8065 87.7386 66.7223 87.9201 66.6455C92.2578 64.7836 98.2592 59.553 100.413 55.325C102.561 57.6258 102.918 59.4682 102.893 62.5567C107.376 61.746 112.277 60.7869 116.439 58.9239C116.487 59.1225 116.572 59.4234 116.572 59.6426C116.614 62.5179 112.755 71.5255 110.891 73.6471C113.13 75.1559 116.245 77.137 117.649 79.4553C116.354 81.4025 99.9834 90.7231 96.2265 93.6499C97.2368 96.2765 98.2229 99.3202 97.4546 102.128C96.9767 101.929 96.5289 101.751 96.0268 101.607C91.8403 100.405 80.0614 97.3899 76.1351 99.5944C77.6597 103.75 78.0891 111.009 76.2319 115.1C75.766 116.13 75.3849 116.401 74.5016 117.071C73.4066 116.676 73.2191 116.696 72.6806 115.567C70.8354 111.696 71.5614 105.007 71.9607 100.744C71.9002 99.9941 71.5372 99.5636 71.1379 98.952C65.8565 97.2713 54.896 100.878 49.5746 102.156C50.1106 99.1779 50.8409 96.2123 51.4816 93.254C45.0167 87.6249 37.6856 82.7103 30.8408 77.5287C33.3388 75.7087 35.3606 73.6543 37.4611 71.4117L34.2366 57.8691L45.5691 61.3488C46.407 59.3895 47.3368 57.4647 48.2334 55.5315C52.1131 59.7927 56.2143 63.7368 60.8472 67.1667C59.8672 58.1344 58.1006 49.2019 57.0782 40.161C60.6234 41.2702 63.975 42.5593 67.375 44.0596Z" fill="#231F20"/>
</svg>
