<svg width="1024" height="1024" viewBox="0 0 1024 1024" fill="none" xmlns="http://www.w3.org/2000/svg">
<rect width="1024" height="1024" fill="white"/>
<path d="M26.6146 192.674C35.9464 191.543 45.6883 192.176 55.0811 192.179L104.533 192.212L265.323 192.195L787.766 192.217H926.107L970.08 192.209C977.838 192.199 985.906 191.676 993.612 192.341C996.339 192.576 998.911 193.387 1001.26 195.082C1001.66 195.373 1002.06 195.687 1002.44 196.025C1002.82 196.362 1003.19 196.722 1003.54 197.104C1003.9 197.486 1004.23 197.888 1004.55 198.31C1004.87 198.731 1005.16 199.17 1005.44 199.628C1005.72 200.085 1005.98 200.557 1006.22 201.045C1006.47 201.534 1006.68 202.036 1006.87 202.55C1007.07 203.064 1007.25 203.589 1007.4 204.124C1007.56 204.659 1007.69 205.202 1007.79 205.753C1009.99 216.899 1008.52 233.096 1008.49 244.745L1008.47 317.877L1008.48 637.723V755.049C1008.48 773.612 1009.54 793.51 1008.37 811.886C1008.12 815.759 1007.36 820.155 1005.51 823.44C1003.27 827.441 1000.26 829.557 996.39 830.495C990.151 832.605 957.943 831.228 948.801 831.228L823.583 831.208L224.345 831.221L90.5789 831.224C79.1894 831.223 31.5305 832.748 25.5837 830.222C22.5746 828.943 18.5554 825.157 17.1857 821.679C15.3542 817.029 15.412 809.603 15.3552 804.445C14.848 757.743 15.3552 710.95 15.3604 664.237L15.3924 383.067C15.3945 362.06 13.9886 212.273 16.4863 204.064C18.261 198.23 22.1212 195.249 26.6146 192.674Z" fill="black"/>
<path d="M609.888 339.544L996.538 339.524C996.954 340.179 997.285 340.812 997.468 341.572C999.281 349.17 997.909 382.404 997.909 393.134L997.836 464.344C997.811 474.39 998.387 484.629 997.946 494.638C997.824 497.333 997.799 498.39 996.305 500.648C984.783 502.298 971.166 500.932 959.411 500.923L879.11 500.868L609.908 500.805C609.217 447.085 609.796 393.273 609.888 339.544Z" fill="#FEFEFE"/>
<path d="M816.426 400.293C821.389 399.871 825.458 399.978 829.791 402.856C835.171 406.429 838.029 412.457 839.253 418.621C840.878 426.803 840.302 436.701 835.457 443.763C832.211 448.497 828.192 450.715 822.633 451.715C819.571 452.27 816.067 451.888 813.191 450.693C807.994 448.534 804.562 443.821 802.651 438.686C799.531 430.308 799.555 419.53 803.459 411.406C806.361 405.367 810.186 402.48 816.426 400.293Z" fill="black"/>
<path d="M816.455 408.71C818.455 408.399 820.726 407.88 822.654 408.709C825.6 409.977 827.505 412.823 828.645 415.719C831.176 422.153 831.032 430.939 828.276 437.277C826.995 440.222 825.554 441.945 822.534 443.148C821.915 443.334 821.285 443.514 820.641 443.599C818.736 443.851 816.194 443.047 814.771 441.737C811.588 438.804 810.909 433.202 810.593 429.119C809.983 421.217 811.302 414.777 816.455 408.71Z" fill="#FEFEFE"/>
<path d="M862.139 400.294C866.657 399.875 870.82 399.726 874.873 402.159C880.592 405.59 883.69 411.549 885 417.919C886.714 426.299 886.004 436.498 881.118 443.762C877.935 448.508 874.041 450.713 868.543 451.823C865.371 452.228 862.127 451.894 859.176 450.636C853.9 448.39 850.373 443.586 848.419 438.339C845.329 430.04 845.389 419.746 849.246 411.706C852.142 405.668 855.871 402.472 862.139 400.294Z" fill="black"/>
<path d="M862.665 408.71C864.526 408.388 866.669 407.866 868.493 408.586C871.702 409.862 873.71 413.014 874.836 416.145C877.138 422.571 877.004 432.078 873.844 438.212C872.485 440.849 870.991 442.207 868.2 443.148C867.416 443.386 866.571 443.628 865.738 443.602C864.049 443.549 862.04 442.766 860.828 441.58C857.574 438.402 857.02 432.5 856.802 428.205C856.419 420.669 857.598 414.413 862.665 408.71Z" fill="#FEFEFE"/>
<path d="M709.867 394.147C710.118 394.128 710.367 394.104 710.619 394.088C712.699 393.957 713.938 394.298 715.458 395.664C716.556 400.788 721.602 401.912 725.528 404.745C727.507 406.173 728.374 407.565 728.776 409.931C728.398 411.976 728.029 413.079 726.567 414.584C720.427 415.971 719.213 409.551 714.419 408.37C712.219 407.827 709.564 408.315 707.584 409.363C705.447 410.494 704.846 411.731 704.168 413.875C705.921 423.35 724.005 420.627 728.794 429.453C729.926 431.539 730.362 434.286 730.44 436.649C730.83 448.222 720.424 447.655 716.538 452.394C715.924 453.143 715.538 455.106 715.237 456.079C713.209 457.216 711.822 456.956 709.58 456.943C709.284 456.101 708.484 452.916 707.917 452.389C704.713 449.41 698.257 449.225 694.717 444.284C693.636 442.774 693.035 440.763 693.501 438.917C694.03 436.825 694.632 436.518 696.411 435.627C702.403 435.804 704.272 440.767 709.274 442.319C711.691 443.069 714.821 442.972 717.038 441.673C718.388 440.882 719.56 439.596 719.907 438.038C722.088 428.264 700.401 429.73 695.957 420.826C694.202 417.311 694.034 412.74 695.317 409.047C697.448 402.911 701.859 402.315 707.059 399.825C707.791 397.724 708.656 396.012 709.867 394.147Z" fill="black"/>
<path d="M753.823 399.525C757.789 399.046 761.597 399.115 765.473 400.164C768.96 401.107 772.117 403.085 773.81 406.38C775.883 410.413 775.668 415.288 774.248 419.49C771.273 428.304 762.102 437.727 753.895 441.788C761.222 441.797 768.55 441.846 775.877 441.934C776.264 442.676 776.508 443.198 776.715 443.995C777.429 446.741 776.761 448.78 775.403 451.175L749.582 451.171C747.088 451.23 744.759 451.578 742.56 450.214C742.113 449.501 741.272 448.554 741.262 447.717C741.18 440.358 754.09 431.248 759.049 426.099C761.704 423.343 766.451 417.835 766.135 413.743C765.995 411.918 765.122 410.217 763.665 409.102C761.833 407.701 759.296 407.227 757.047 407.637C752.372 408.492 752.695 411.372 750.213 414.296C749.02 415.703 747.861 415.617 746.197 415.718C744.337 415 743.725 414.443 742.642 412.781C742.239 411.043 742.127 409.706 742.838 408.021C744.696 403.621 749.684 401.236 753.823 399.525Z" fill="black"/>
<path d="M788.113 440.083C789.43 440.131 791.361 440.041 792.512 440.739C793.649 441.429 794.7 443.29 794.991 444.554C795.345 446.089 795.059 447.952 794.164 449.267C792.704 451.408 791.287 451.407 788.912 451.916C787.878 451.74 786.777 451.254 785.775 450.923C785.023 450.078 784.376 449.24 784.009 448.152C783.333 446.149 783.316 443.917 784.453 442.073C785.489 440.39 786.341 440.521 788.113 440.083Z" fill="black"/>
<path d="M224.118 339.518L599.447 339.526L599.512 500.891L224.104 500.826L224.118 339.518Z" fill="#FEFEFE"/>
<path d="M473.379 402.511C476.816 402.079 480.423 402.002 483.727 403.157C488.581 404.851 492.314 408.674 494.518 413.239C498.205 420.876 498.465 430.618 495.67 438.575C493.21 445.575 489.4 449.479 482.832 452.692C479.624 453.297 476.534 453.361 473.405 452.361C468.315 450.735 464.633 447.252 462.271 442.499C458.442 434.794 458.239 424.364 461.005 416.293C463.378 409.373 466.834 405.664 473.379 402.511Z" fill="#F7A342"/>
<path d="M475.525 409.931C476.134 409.936 476.742 409.954 477.35 409.985C480.222 410.136 482.273 410.954 484.163 413.231C487.7 417.49 488.25 423.923 487.858 429.224C487.359 435.971 485.857 440.356 480.631 444.824C480.019 444.944 479.403 445.057 478.777 445.084C476.639 445.176 474.352 444.01 472.821 442.576C469.383 439.354 468.878 433.615 468.806 429.173C468.676 421.261 469.973 415.695 475.525 409.931Z" fill="#FEFEFE"/>
<path d="M353.309 396.095C354.725 396.155 355.907 396.357 357.286 396.691C361.088 401.696 370.582 405.487 371.045 412.039C371.187 414.046 370.721 414.766 369.493 416.263C363.877 417.456 361.378 411.38 356.549 409.771C354.94 409.235 353.46 409.573 351.998 410.378C349.691 411.651 348.595 413.371 347.913 415.846C349.72 424.453 364.868 422.606 370.383 428.877C372.773 431.594 373.956 436.934 373.619 440.526C372.986 447.298 365.006 449.807 360.461 453.877C359.841 456.548 358.971 457.549 356.84 459.234L354.118 457.874C353.633 456.868 352.788 454.752 351.98 454.019C347.638 450.08 339.918 450.011 336.575 442.634C336.676 441.991 336.637 441.197 337.083 440.693C339.114 438.392 342.636 438.093 345.482 437.642C347.174 439.804 348.907 442.213 351.518 443.297C354.456 444.517 358.045 445.172 361.068 444.017C362.376 442.641 362.968 442.123 363.388 440.208C365.654 429.873 345.213 430.727 340.327 422.542C338.445 419.391 338.342 414.807 339.402 411.363C340.849 406.661 345.709 404.927 349.586 402.654C352.465 400.967 352.527 399.047 353.309 396.095Z" fill="#F7A342"/>
<path d="M423.739 401.856C430.281 401.945 437.098 400.996 443.571 401.489C446.555 401.715 448.619 402.227 450.586 404.55C451.039 406.252 451.239 406.733 450.801 408.488C446.072 411.635 436.499 410.153 430.983 410.004C430.879 413.146 430.921 416.012 431.406 419.125C434.695 420.938 441.293 418.831 445.594 420.674C449.424 422.315 451.908 425.777 453.304 429.6C453.5 430.131 453.669 430.67 453.81 431.218C453.95 431.766 454.062 432.32 454.145 432.879C454.23 433.439 454.284 434.002 454.31 434.567C454.335 435.133 454.332 435.698 454.3 436.263C454.267 436.828 454.205 437.389 454.115 437.948C454.024 438.506 453.905 439.058 453.757 439.604C453.61 440.151 453.435 440.689 453.232 441.217C453.03 441.745 452.8 442.261 452.544 442.766C449.698 448.473 445.54 450.939 439.649 452.855C436.113 453.184 432.955 453.117 429.673 451.597C425.511 449.671 421.408 446.323 419.761 441.974C420.057 440.481 419.909 439.901 421.267 439.026C426.915 435.388 431.828 444.234 437.129 444.763C438.712 444.921 440.185 444.248 441.342 443.204C443.281 441.455 444.718 439.466 444.841 436.804C444.955 434.323 444.263 430.825 442.388 429.049C437.889 424.786 430.316 429.107 425.052 428.948C423.372 428.897 423.145 428.517 422.011 427.412C420.664 420.062 423.078 409.363 423.739 401.856Z" fill="#F7A342"/>
<path d="M394.522 401.551C395.854 401.456 397.021 401.684 398.319 401.929C400.24 405.562 399.935 445.865 398.527 451.065C398.351 451.151 398.18 451.255 397.995 451.321C395.818 452.107 392.212 451.939 390.091 451.102C389.019 449.209 389.251 447.963 389.259 445.868C389.748 435.428 389.403 424.859 389.712 414.391C388.093 415.129 385.802 416.28 384.027 416.479C382.058 416.7 381.325 416.274 379.84 415.098L379.801 413.236C382.791 407.494 389.157 404.723 394.522 401.551Z" fill="#F7A342"/>
<path d="M321.379 455.835C323.139 455.773 324.634 456.818 326.149 457.612C326.671 458.721 327.019 458.878 326.686 460.14C325.25 465.586 306.659 474.249 301.237 477.265C301.18 477.267 301.124 477.28 301.068 477.273C298.724 477.035 298.36 476.451 296.691 474.833C296.363 473.74 295.955 473.089 296.315 471.952C298.134 466.2 315.788 458.768 321.379 455.835Z" fill="#F7A342"/>
<path d="M504.035 457.281C504.855 457.467 505.69 457.68 506.471 457.996C511.657 460.093 528.976 468.801 531.003 473.488C530.844 475.777 529.573 477.033 528.18 478.713C526.757 478.538 525.322 478.41 523.999 477.815C518.706 475.437 502.595 467.285 500.547 462.198C500.883 460.02 502.542 458.775 504.035 457.281Z" fill="#F7A342"/>
<path d="M278.736 418.663C286.03 418.638 294.237 418.867 301.444 419.924C304.783 420.414 307.354 420.916 309.399 423.722C309.525 425.893 309.11 427.064 308.202 429.022C301.79 429.639 294.449 429.058 288.064 428.244C284.7 427.817 280.265 427.008 278.091 424.21C277.604 422.052 278.06 420.735 278.736 418.663Z" fill="#F7A342"/>
<path d="M299.503 369.843C299.839 369.953 300.361 370.112 300.705 370.268C305.506 372.446 322.258 383.954 323.813 388.222C323.276 390.713 322.202 391.572 320.582 393.404C319.62 393.094 318.671 392.733 317.78 392.248C312.863 389.575 297.911 381.077 296.319 376.157C296.537 373.453 297.93 371.927 299.503 369.843Z" fill="#F7A342"/>
<path d="M523.396 373.168C524.898 373.261 526.05 373.955 527.398 374.581C528.183 375.785 528.505 375.992 528.193 377.484C527.075 382.835 511.025 391.688 506.18 394.959C504.866 394.698 503.301 394.181 502.365 393.183C501.101 391.838 501.369 391.345 501.44 389.679C504.924 382.983 516.92 377.089 523.396 373.168Z" fill="#F7A342"/>
<path d="M517.951 421.818C524.629 421.881 531.54 421.117 538.173 421.703C541.299 421.98 543.295 422.353 545.329 424.812C545.568 426.531 545.586 427.627 545.104 429.302L543.508 430.128C536.335 430.287 525.708 431.98 518.927 429.718C517.004 429.076 516.462 428.455 515.587 426.721C515.903 424.506 516.451 423.469 517.951 421.818Z" fill="#F7A342"/>
<path d="M465.704 360.707C466.454 360.749 467.341 360.758 468.055 360.998C469.722 361.559 470.104 362.731 470.812 364.156C471.067 370.653 464.313 381.338 460.182 386.26C459.077 386.178 457.934 386.143 456.952 385.577C455.672 384.841 455.032 384.022 454.777 382.559C453.857 377.26 462.397 364.799 465.704 360.707Z" fill="#F7A342"/>
<path d="M360.818 362.818L363.503 363.456C367.791 366.982 372.187 376.694 372.961 382.181C373.271 384.379 371.949 385.403 370.678 386.975C369.443 386.933 368.306 386.589 367.12 386.275C362.61 382.577 359.242 374.076 358.578 368.363C358.284 365.836 359.451 364.771 360.818 362.818Z" fill="#F7A342"/>
<path d="M409.224 354.836C410.315 354.755 411.548 354.59 412.633 354.728C413.861 354.885 414.806 355.616 415.359 356.703C417.788 361.481 416.096 373.286 414.36 378.097L410.538 378.045C409.442 377.353 408.701 377.098 408.143 375.882C405.798 370.771 407.134 359.963 409.224 354.836Z" fill="#F7A342"/>
<path d="M463.353 467.661C465.403 468.315 466.625 469.747 467.88 471.423C470.493 474.919 475.355 481.555 474.43 486.19C474.048 488.102 472.527 488.713 471.061 489.799C470.915 489.692 470.767 489.588 470.625 489.476C465.818 485.71 460.63 477.788 459.828 471.733C460.557 469.383 461.431 469.114 463.353 467.661Z" fill="#F7A342"/>
<path d="M365.402 469.378C367.011 469.596 368.01 470.134 369.377 470.935C370.026 472.13 370.503 472.64 370.364 474.039C369.83 479.373 363.749 486.624 359.758 490C357.362 489.175 356.275 488.831 355.115 486.546C355.507 480.269 361.682 474.164 365.402 469.378Z" fill="#F7A342"/>
<path d="M412.506 470.304C413.439 470.73 414.336 471.349 415.221 471.873C416.371 474 416.61 475.982 416.852 478.356C417.388 483.603 417.683 490.664 414.232 494.841C412.806 494.426 411.739 493.945 410.448 493.21C409.019 490.407 408.743 486.761 408.745 483.646C408.748 478.616 408.986 474.003 412.506 470.304Z" fill="#F7A342"/>
<path d="M408.224 441.868C408.444 441.77 408.669 441.687 408.899 441.618C409.129 441.55 409.363 441.498 409.6 441.461C409.838 441.425 410.077 441.405 410.318 441.4C410.558 441.396 410.798 441.408 411.037 441.436C411.275 441.463 411.511 441.507 411.743 441.567C411.976 441.626 412.204 441.701 412.427 441.792C412.649 441.883 412.865 441.988 413.074 442.107C413.283 442.226 413.482 442.359 413.673 442.505C413.864 442.651 414.044 442.809 414.213 442.98C414.383 443.15 414.54 443.332 414.685 443.523C414.83 443.714 414.962 443.915 415.08 444.125C415.198 444.334 415.301 444.55 415.39 444.774C415.479 444.997 415.552 445.225 415.61 445.458C415.668 445.692 415.711 445.928 415.738 446.166C415.764 446.405 415.774 446.645 415.768 446.885C415.763 447.125 415.74 447.363 415.702 447.601C415.665 447.839 415.611 448.072 415.542 448.301C415.472 448.532 415.388 448.756 415.288 448.975C415.188 449.194 415.074 449.405 414.947 449.608C414.818 449.811 414.677 450.005 414.523 450.19C414.369 450.374 414.203 450.548 414.026 450.71C413.849 450.872 413.661 451.021 413.464 451.158C413.266 451.294 413.06 451.417 412.845 451.527C412.632 451.636 412.411 451.73 412.184 451.81C412.023 451.866 411.86 451.914 411.694 451.955C411.529 451.996 411.361 452.029 411.192 452.054C411.023 452.079 410.854 452.095 410.683 452.103C410.512 452.112 410.342 452.113 410.171 452.106C410 452.098 409.831 452.082 409.662 452.058C409.493 452.034 409.325 452.001 409.16 451.961C408.993 451.922 408.829 451.874 408.669 451.818C408.507 451.763 408.349 451.7 408.194 451.63C408.038 451.559 407.886 451.481 407.738 451.396C407.59 451.31 407.447 451.218 407.308 451.119C407.169 451.02 407.034 450.915 406.905 450.803C406.776 450.691 406.653 450.574 406.536 450.45C406.418 450.326 406.306 450.197 406.2 450.063C406.095 449.929 405.996 449.79 405.904 449.646C405.812 449.502 405.727 449.354 405.649 449.203C405.571 449.051 405.5 448.896 405.437 448.737C405.374 448.579 405.319 448.418 405.271 448.254C405.223 448.09 405.184 447.924 405.152 447.756C405.119 447.588 405.095 447.419 405.08 447.25C405.064 447.08 405.057 446.91 405.058 446.739C405.058 446.568 405.066 446.398 405.083 446.228C405.1 446.059 405.125 445.89 405.158 445.721C405.191 445.554 405.232 445.389 405.281 445.225C405.33 445.061 405.386 444.901 405.45 444.743C405.514 444.585 405.586 444.43 405.665 444.278C405.743 444.127 405.829 443.98 405.922 443.837C406.015 443.693 406.115 443.555 406.222 443.422C406.328 443.288 406.441 443.16 406.559 443.037C406.677 442.914 406.801 442.797 406.931 442.686C407.061 442.575 407.196 442.47 407.335 442.372C407.475 442.274 407.619 442.183 407.767 442.099C407.916 442.014 408.068 441.937 408.224 441.868Z" fill="#F7A342"/>
<path d="M23.5278 339.436L213.531 339.442L213.562 501.139L23.5059 501.07C23.1658 447.246 23.3753 393.263 23.5278 339.436Z" fill="#FEFEFE"/>
<path d="M104.874 362.55C111.532 361.803 124.762 360.687 130.739 363.26C139.244 366.922 131.421 381.693 131.97 388.091C132.336 392.361 142.243 398.242 144.332 404.173C146.474 410.257 146.078 464.763 143.457 469.681C141.28 473.765 137.746 475.184 133.581 476.394C124.203 476.34 112.955 478.185 103.884 475.927C98.3748 474.556 96.0826 471.878 93.2662 467.274C92.5217 457.714 91.6965 410.855 94.056 403.913C95.6687 399.165 100.167 395.862 103.189 392.022C107.169 386.965 102.433 380.187 101.943 374.437C101.605 370.452 102.303 365.668 104.874 362.55Z" fill="black"/>
<path d="M112.841 384.656L123.756 384.688C123.813 401.064 133.219 395.832 136.033 406.529C137.926 413.725 137.883 461.585 134.892 467.257C128.242 470.026 111.617 468.113 103.969 467.959C103.852 467.841 103.734 467.727 103.621 467.606C98.9838 462.647 100.987 433.643 101.045 425.627C105.231 425.628 116.947 426.57 120.238 425.206C121.104 424.848 121.773 423.84 122.005 422.918C122.474 421.067 122.005 420.074 121.015 418.587C114.967 417.278 107.433 418.104 101.189 418.172C101.21 415.176 101.105 412.023 101.565 409.06C102.63 402.209 107.493 399.017 112.753 395.299C112.894 391.765 112.817 388.193 112.841 384.656Z" fill="#FEFEFE"/>
<path d="M109.175 369.317L127.286 369.356L127.148 377.567C121.778 377.626 115.123 379.307 110.281 376.72C108.721 374.161 109.16 372.278 109.175 369.317Z" fill="#FEFEFE"/>
<path d="M617.597 511.237L996.624 511.255C997.518 512.854 997.714 514.272 997.775 516.072C998.89 547.792 997.885 579.894 997.885 611.653C997.885 624.599 999.269 650.868 997.518 662.501C995.277 663.584 992.339 663.162 989.89 663.125L609.88 663.17L609.818 571.214C609.807 551.599 609.217 531.778 610.043 512.194C612.032 510.77 615.223 511.241 617.597 511.237Z" fill="#FEFEFE"/>
<path d="M859.37 564.809C863.044 564.244 866.51 564.314 870.22 564.482C871.677 565.044 873.195 565.617 874.53 566.44C879.502 569.494 882.55 575.29 883.861 580.818C885.857 589.226 885.232 600.076 880.444 607.491C877.726 611.693 874.224 614.159 869.326 615.22C866.877 616.421 861.44 616.011 858.821 615.161C854.804 613.854 851.894 609.97 849.982 606.382C845.61 598.181 844.738 587.682 847.542 578.83C849.704 572.01 853.119 568.136 859.37 564.809Z" fill="black"/>
<path d="M863.228 572.46C864.967 572.37 866.841 572.199 868.432 573.029C871.763 574.756 873.575 578.488 874.494 581.966C876.159 588.268 875.914 597.253 872.424 602.937C870.796 605.591 869.155 606.438 866.204 607.19C865.408 607.197 864.6 607.23 863.828 607.046C861.796 606.567 860.05 604.958 858.951 603.253C855.217 597.453 855.258 588.4 856.8 581.929C857.83 577.604 859.359 574.819 863.228 572.46Z" fill="#FEFEFE"/>
<path d="M815.253 564.809C817.943 564.419 820.718 564.168 823.426 564.555C828.177 565.233 833.129 568.125 835.928 572.026C837.557 574.295 838.418 576.866 837.812 579.649C837.03 583.239 834.028 586.292 831.036 588.197C832.125 588.717 833.236 589.25 834.241 589.923C837.043 591.799 839.096 595.066 839.554 598.407C840.065 602.13 838.774 605.801 836.554 608.757C833.109 613.344 828.788 614.984 823.262 615.736C822.816 615.856 822.728 615.891 822.204 615.957C816.567 616.676 810.475 615.556 806.074 611.785C805.708 611.478 805.359 611.152 805.027 610.808C804.695 610.465 804.381 610.105 804.085 609.728C803.791 609.352 803.516 608.962 803.261 608.558C803.006 608.153 802.772 607.736 802.561 607.307C802.349 606.879 802.159 606.44 801.993 605.992C801.826 605.544 801.684 605.089 801.564 604.626C801.444 604.163 801.349 603.695 801.278 603.223C801.206 602.75 801.159 602.275 801.137 601.797C800.855 595.54 803.942 592.986 807.993 588.705C807.87 585.812 804.77 582.859 803.661 580.012C802.828 577.878 802.477 575.28 803.55 573.162C805.741 568.835 810.921 566.332 815.253 564.809Z" fill="black"/>
<path d="M816.565 593.121C819.821 592.657 822.94 592.417 825.828 594.293C827.765 595.549 829.465 597.812 829.77 600.143C829.795 600.343 829.81 600.543 829.815 600.743C829.821 600.944 829.816 601.145 829.802 601.346C829.787 601.546 829.762 601.745 829.728 601.943C829.694 602.141 829.65 602.337 829.596 602.531C829.542 602.725 829.479 602.915 829.406 603.102C829.333 603.29 829.252 603.473 829.161 603.653C829.07 603.832 828.971 604.006 828.864 604.176C828.755 604.345 828.639 604.508 828.515 604.667C826.707 606.942 824.638 607.441 821.878 607.834C821.171 607.89 820.499 607.932 819.79 607.908C817.006 607.81 814.266 607.176 812.391 604.952C811.139 603.469 810.74 601.621 811.05 599.726C811.604 596.327 813.913 594.851 816.565 593.121Z" fill="#FEFEFE"/>
<path d="M817.523 572.459C819.621 572.26 821.695 572.032 823.648 572.995C825.36 573.838 827.256 575.467 827.775 577.383C828.239 579.097 827.898 580.738 826.765 582.105C825.292 583.88 823.086 584.113 820.945 584.352C820.072 584.386 819.248 584.391 818.381 584.251C816.506 583.948 814.735 583.087 813.658 581.461C812.82 580.196 812.672 578.672 813.045 577.225C813.669 574.812 815.562 573.717 817.523 572.459Z" fill="#FEFEFE"/>
<path d="M712.002 558.662C714.149 558.665 714.959 558.496 716.851 559.592C717.452 561.389 718.056 562.839 719.091 564.433C720.156 564.855 721.202 565.32 722.229 565.828C725.724 567.586 728.922 570.475 730.001 574.371C730.591 576.504 730.596 577.406 729.563 579.297C724.815 580.631 718.497 574.792 714.104 573.051C712.048 573.214 710.253 573.426 708.702 574.925C707.096 576.476 706.858 577.028 706.835 579.225C710.256 584.532 719.469 585.701 724.836 588.782C728.293 590.767 731.386 593.716 732.296 597.733C735.394 611.412 722.453 611.505 717.985 618.365C717.892 618.505 717.428 619.28 717.308 619.425C715.824 621.197 714.564 620.963 712.449 621.091C707.069 612.453 705.576 616.873 699.844 610.729C697.591 608.313 696.111 606.238 696.254 602.864C697.219 601.463 697.911 600.683 699.574 600.147C706.308 597.973 706.337 604.867 711.236 606.887C713.353 607.76 715.842 607.62 717.92 606.698C719.715 605.9 721.303 604.438 721.837 602.504C721.889 602.317 721.93 602.127 721.962 601.936C721.994 601.745 722.017 601.552 722.03 601.359C722.043 601.165 722.046 600.972 722.038 600.777C722.032 600.584 722.015 600.391 721.989 600.198C721.963 600.006 721.927 599.816 721.881 599.627C721.836 599.439 721.781 599.253 721.717 599.07C721.653 598.887 721.58 598.707 721.498 598.532C721.416 598.356 721.325 598.185 721.225 598.019C718.983 594.199 711.083 593.189 707.088 591.981C703.459 590.882 699.806 588.739 698.103 585.208C696.473 581.828 696.309 576.657 697.608 573.128C699.498 568.001 704.73 566.432 709.327 564.51C710.387 563.754 711.444 560.013 712.002 558.662Z" fill="black"/>
<path d="M755.43 564.042C758.778 563.877 761.946 563.819 765.22 564.653C768.962 565.607 772.301 567.459 774.218 570.947C776.362 574.851 776.138 579.712 774.808 583.848C771.999 592.586 762.79 602.207 754.652 606.316C760.559 606.417 768.383 604.919 773.961 606.692C776.108 607.374 776.503 607.892 777.554 609.727C777.297 611.268 777.347 612.232 776.16 613.409C772.008 617.519 753.31 615.466 747.286 615.492C746.598 615.515 746.271 615.553 745.541 615.434C743.465 615.097 742.974 614.402 741.899 612.789C741.705 604.924 758.981 591.989 764.228 585.221C765.956 582.993 767.541 581.063 766.957 578.077C766.568 576.096 765.131 574.458 763.441 573.434C761.359 572.173 758.629 571.67 756.28 572.414C752.975 573.462 751.89 576.942 750.311 579.696C748.628 580.697 748.483 580.829 746.422 580.698C745.003 579.907 743.98 579.184 743.377 577.611C742.664 575.752 742.999 573.711 743.912 571.986C746.012 568.018 751.266 565.212 755.43 564.042Z" fill="black"/>
<path d="M787.091 603.911C787.184 603.881 787.278 603.853 787.372 603.828C787.467 603.802 787.562 603.779 787.658 603.758C787.753 603.737 787.849 603.718 787.945 603.702C788.042 603.685 788.139 603.671 788.236 603.659C788.333 603.647 788.43 603.638 788.528 603.631C788.626 603.624 788.724 603.618 788.821 603.615C788.919 603.613 789.017 603.613 789.115 603.615C789.213 603.617 789.311 603.621 789.409 603.629C789.506 603.635 789.603 603.644 789.7 603.656C789.798 603.667 789.895 603.68 789.992 603.696C790.088 603.712 790.184 603.731 790.279 603.751C790.376 603.771 790.471 603.794 790.566 603.82C790.661 603.845 790.754 603.872 790.848 603.902C790.941 603.931 791.033 603.963 791.125 603.997C791.217 604.031 791.307 604.067 791.397 604.105C791.488 604.143 791.577 604.184 791.665 604.226C791.754 604.269 791.841 604.314 791.926 604.361C792.013 604.407 792.098 604.456 792.181 604.507C792.265 604.557 792.348 604.61 792.428 604.664C792.51 604.719 792.59 604.776 792.668 604.835C792.747 604.893 792.824 604.953 792.9 605.016C792.975 605.078 793.049 605.142 793.121 605.207C793.194 605.273 793.265 605.34 793.334 605.409C793.404 605.478 793.472 605.549 793.538 605.621C793.604 605.693 793.668 605.767 793.73 605.842C793.793 605.918 793.854 605.994 793.912 606.073C793.971 606.151 794.028 606.231 794.084 606.311C794.139 606.392 794.192 606.475 794.243 606.559C794.294 606.642 794.343 606.727 794.39 606.812C794.437 606.898 794.482 606.985 794.525 607.073C794.568 607.161 794.609 607.25 794.647 607.34C794.686 607.43 794.723 607.52 794.757 607.612C794.792 607.703 794.824 607.795 794.854 607.889C794.884 607.982 794.912 608.075 794.937 608.17C794.963 608.265 794.986 608.36 795.007 608.456C795.028 608.551 795.047 608.647 795.063 608.743C795.08 608.84 795.094 608.938 795.105 609.035C795.117 609.132 795.127 609.229 795.134 609.326C795.142 609.424 795.147 609.522 795.149 609.62C795.152 609.717 795.152 609.815 795.149 609.913C795.148 610.011 795.143 610.109 795.136 610.207C795.129 610.304 795.12 610.401 795.109 610.498C795.097 610.595 795.083 610.692 795.067 610.789C795.052 610.886 795.033 610.982 795.012 611.077C794.992 611.173 794.969 611.269 794.943 611.362C794.919 611.457 794.892 611.551 794.861 611.644C794.832 611.738 794.8 611.831 794.766 611.922C794.732 612.014 794.696 612.105 794.658 612.195C794.62 612.285 794.579 612.374 794.537 612.462C794.494 612.55 794.449 612.637 794.402 612.723C794.356 612.809 794.307 612.894 794.256 612.978C794.205 613.062 794.152 613.144 794.097 613.225C794.043 613.307 793.986 613.387 793.928 613.465C793.87 613.543 793.809 613.62 793.747 613.695C793.685 613.771 793.621 613.845 793.555 613.918C793.49 613.991 793.422 614.062 793.353 614.131C793.283 614.2 793.213 614.268 793.141 614.333C793.068 614.399 792.994 614.464 792.919 614.527C792.844 614.589 792.767 614.649 792.689 614.708C792.611 614.767 792.531 614.824 792.45 614.879C792.37 614.934 792.287 614.987 792.203 615.038C792.12 615.089 792.035 615.138 791.95 615.185C791.864 615.232 791.777 615.277 791.689 615.32C791.601 615.363 791.512 615.404 791.422 615.442C791.167 615.552 790.906 615.644 790.638 615.719C790.371 615.793 790.1 615.849 789.825 615.887C789.55 615.925 789.274 615.944 788.996 615.944C788.719 615.945 788.442 615.927 788.167 615.891C787.892 615.854 787.621 615.799 787.353 615.725C787.085 615.652 786.823 615.561 786.568 615.452C786.312 615.344 786.065 615.218 785.827 615.076C785.589 614.934 785.361 614.777 785.144 614.604C784.927 614.431 784.722 614.244 784.53 614.044C784.339 613.843 784.161 613.631 783.998 613.406C783.834 613.182 783.687 612.947 783.554 612.703C783.423 612.459 783.309 612.207 783.212 611.947C783.114 611.687 783.034 611.422 782.972 611.151C782.91 610.88 782.867 610.607 782.842 610.33C782.817 610.054 782.812 609.778 782.825 609.5C782.837 609.222 782.868 608.947 782.918 608.675C782.968 608.402 783.035 608.133 783.121 607.869C783.208 607.605 783.311 607.349 783.431 607.099C783.552 606.849 783.689 606.608 783.842 606.376C783.995 606.145 784.163 605.925 784.346 605.716C784.528 605.507 784.725 605.312 784.935 605.13C785.143 604.948 785.364 604.78 785.596 604.628C785.828 604.475 786.069 604.339 786.319 604.219C786.569 604.099 786.826 603.996 787.091 603.911Z" fill="black"/>
<path d="M609.858 673.24L996.611 673.28C997.358 674.473 997.689 675.586 997.775 676.988C998.313 686.539 997.873 696.376 997.885 705.956V761.806C997.885 774.816 999.256 801.977 997.53 813.643C997.138 816.23 995.534 817.351 993.55 818.854L993.232 819.557C991.052 821.499 988.934 821.655 986.13 821.809C973.224 822.517 959.987 821.764 947.044 821.765L864.391 821.805L609.849 821.788L609.858 673.24Z" fill="#FEFEFE"/>
<path d="M226.566 511.254L599.558 511.302C599.47 528.67 600.852 658.506 598.817 663.175L224.16 663.138L224.171 552.452C224.171 544.81 222.825 517.858 224.628 511.918L226.566 511.254Z" fill="#FEFEFE"/>
<path d="M27.2938 511.028C48.0791 510.202 68.9469 510.99 89.7422 510.99L213.307 511.02L213.346 610.689C213.352 627.52 213.927 645.212 213.176 661.951C212.334 663.098 211.526 662.796 210.526 662.831L23.4547 662.813L23.4334 570.334C23.4309 550.946 23.1123 531.322 23.5677 511.972C24.5828 510.617 26.1001 511.037 27.2938 511.028Z" fill="#FEFEFE"/>
<path d="M87.587 537.152C98.9098 536.7 141.855 535.446 150.42 537.852C154.263 541.92 151.339 552.596 152.477 557.966C153.271 561.708 156.034 565.036 157.236 568.695C159.203 574.694 159.201 628.751 156.838 633.66C154.816 635.182 154.073 635.247 151.531 635.613L107.475 635.635C99.5906 635.641 91.0437 636.398 83.289 635.088C81.4156 633.237 81.2686 629.609 81.0543 627.044C80.1862 616.693 80.7506 605.875 80.7568 595.477C80.7604 586.596 80.158 577.204 80.9968 568.389C81.3886 564.274 85.318 561.021 85.7906 556.98C86.42 551.597 84.0617 541.336 87.587 537.152Z" fill="black"/>
<path d="M93.8394 544.736L144.468 544.67L144.506 555.033C131.719 555.932 118.959 554.904 106.215 555.609C102.515 555.814 99.6631 555.778 97.1296 558.647C97.0892 559.764 96.7892 560.141 97.5998 561.013C101.238 564.93 132.591 563.58 138.975 563.622L139 587.575L138.975 627.926L88.3795 627.948C88.3244 609.707 86.959 590.39 88.7688 572.278C89.299 566.975 92.075 562.255 93.4023 557.166C94.377 553.429 93.8823 548.608 93.8394 544.736Z" fill="#FEFEFE"/>
<path d="M146.678 564.88C146.942 565.096 147.223 565.293 147.47 565.528C152.543 570.354 150.311 617.859 150.243 627.897C148.565 627.896 148.156 628.112 146.807 627.036C145.922 620.118 146.566 612.69 146.586 605.7L146.678 564.88Z" fill="#FEFEFE"/>
<path d="M224.155 673.297L599.483 673.208L599.571 821.816L224.097 821.74L224.155 673.297Z" fill="#FEFEFE"/>
<path d="M23.6193 673.585L213.551 673.543L213.562 821.774L88.9035 821.825L48.7853 821.866C42.0343 821.869 34.9634 822.679 28.2443 821.63C26.9451 821.427 25.919 820.044 25.0179 818.266C24.3374 816.924 24.0599 815.535 23.9268 813.685C22.8332 798.432 23.5581 781.351 23.5606 765.914L23.6193 673.585Z" fill="#FEFEFE"/>
<path d="M107.423 696.982C115.678 696.403 124.289 695.973 132.502 697.148C138.215 697.966 146.046 699.888 149.71 704.74C151.878 712.955 153.044 780.462 149.661 785.574C145.522 791.824 138.313 793.559 131.406 794.678C130.719 794.81 130.028 794.922 129.333 795.013C117.544 796.622 100.787 796.537 91.1719 788.82L90.3723 788.167C88.9813 787.046 88.4634 786.14 88.0115 784.433C85.9825 776.769 85.2809 709.74 88.1389 705.415C91.9703 699.613 101.188 698.142 107.423 696.982Z" fill="black"/>
<path d="M142.598 735.953L143.275 736.723C143.768 743.979 144.596 775.57 142.271 781.076C141.336 783.286 139.285 784.61 137.134 785.485C126.283 789.9 107.691 788.168 97.1655 783.915C96.0071 782.64 95.1414 781.47 94.8084 779.745C92.7133 768.904 94.4129 747.868 94.5549 735.995C109.579 741.56 127.569 741.367 142.598 735.953Z" fill="#FEFEFE"/>
<path d="M94.5703 719.369C105.385 722.698 117.802 724.564 129.111 722.818C133.728 722.104 138.235 720.689 142.875 720.189C143.835 722.292 143.326 724.467 143.086 726.696C138.418 729.477 134.137 730.662 128.762 731.429C118.886 732.837 103.679 733.51 95.3527 727.185C94.1209 725.018 94.5678 721.816 94.5703 719.369Z" fill="#FEFEFE"/>
<path d="M109.551 704.7C109.683 704.679 109.814 704.655 109.946 704.637C118.858 703.529 136.516 703.5 143.626 709.079L143.332 710.715C139.097 713.535 133.477 714.234 128.561 715.022C120.456 715.812 112.597 715.466 104.579 714.136C101.59 713.64 96.893 713.275 95.0073 710.642L95.4481 709.086C98.9134 705.749 104.961 705.409 109.551 704.7Z" fill="#FEFEFE"/>
<path d="M609.904 202.077L855.244 202.002L937.995 201.971C952.517 201.966 967.297 201.403 981.782 202.101C985.872 202.298 990.819 202.544 994.554 204.243C995.986 206.257 996.697 208.13 997.199 210.521C998.57 217.094 998.595 324.6 997.652 327.152C997.419 327.783 996.709 328.6 996.329 329.187C984.721 330.714 971.215 329.438 959.448 329.43L879.158 329.41L609.909 329.359L609.904 202.077Z" fill="#FEFEFE"/>
<path d="M737.706 247.953C738.159 247.84 738.615 247.743 739.074 247.662C739.533 247.579 739.995 247.512 740.459 247.461C740.922 247.409 741.387 247.372 741.853 247.352C742.319 247.331 742.786 247.325 743.253 247.336C743.719 247.346 744.184 247.371 744.649 247.412C745.114 247.453 745.577 247.509 746.039 247.581C746.499 247.652 746.957 247.738 747.413 247.84C747.868 247.942 748.319 248.06 748.767 248.192C749.214 248.323 749.657 248.47 750.095 248.631C750.533 248.792 750.965 248.968 751.391 249.158C751.818 249.347 752.237 249.551 752.65 249.769C753.063 249.986 753.468 250.217 753.866 250.462C754.262 250.706 754.651 250.963 755.031 251.233C755.412 251.504 755.783 251.786 756.144 252.081C756.506 252.375 756.858 252.682 757.2 253C757.541 253.319 757.871 253.648 758.19 253.987C758.51 254.327 758.818 254.677 759.114 255.038C759.41 255.398 759.694 255.768 759.966 256.147C760.238 256.526 760.497 256.914 760.744 257.311C760.989 257.707 761.222 258.111 761.441 258.523C761.661 258.934 761.867 259.353 762.059 259.778C762.25 260.204 762.427 260.635 762.59 261.072C762.753 261.51 762.902 261.952 763.036 262.398C763.169 262.846 763.288 263.297 763.392 263.751C763.496 264.206 763.584 264.664 763.658 265.125C763.731 265.586 763.789 266.048 763.832 266.513C763.875 266.977 763.902 267.443 763.914 267.91C763.926 268.376 763.923 268.842 763.904 269.308C763.885 269.774 763.851 270.239 763.801 270.703C763.751 271.166 763.686 271.628 763.605 272.088C763.525 272.547 763.43 273.004 763.319 273.458C763.208 273.911 763.083 274.36 762.943 274.805C762.802 275.25 762.647 275.689 762.477 276.124C762.308 276.559 762.125 276.987 761.926 277.409C761.729 277.832 761.517 278.248 761.292 278.656C761.067 279.065 760.828 279.466 760.576 279.858C760.324 280.251 760.059 280.635 759.781 281.009C759.503 281.385 759.214 281.75 758.913 282.106C758.611 282.462 758.298 282.808 757.974 283.142C757.649 283.478 757.313 283.802 756.967 284.115C756.621 284.427 756.265 284.728 755.899 285.018C755.534 285.307 755.159 285.584 754.774 285.848C754.39 286.113 753.997 286.365 753.596 286.604C753.195 286.842 752.786 287.067 752.37 287.279C751.954 287.49 751.532 287.687 751.103 287.87C750.674 288.054 750.239 288.223 749.799 288.377C749.359 288.532 748.914 288.672 748.464 288.797C748.015 288.922 747.562 289.032 747.105 289.128C746.77 289.197 746.435 289.259 746.097 289.312C745.76 289.366 745.422 289.41 745.082 289.447C744.743 289.485 744.403 289.514 744.062 289.534C743.721 289.554 743.38 289.566 743.039 289.57C742.697 289.574 742.355 289.57 742.014 289.557C741.673 289.544 741.332 289.523 740.991 289.494C740.651 289.465 740.312 289.428 739.974 289.382C739.635 289.337 739.298 289.283 738.962 289.221C738.626 289.159 738.292 289.088 737.96 289.01C737.627 288.932 737.297 288.846 736.969 288.752C736.641 288.658 736.315 288.556 735.992 288.446C735.669 288.335 735.348 288.217 735.029 288.092C734.712 287.966 734.398 287.833 734.087 287.692C733.775 287.551 733.468 287.403 733.164 287.248C732.86 287.092 732.56 286.929 732.264 286.758C731.968 286.588 731.676 286.411 731.389 286.227C731.102 286.042 730.819 285.851 730.54 285.652C730.262 285.455 729.989 285.25 729.721 285.039C729.453 284.828 729.19 284.61 728.933 284.385C728.675 284.161 728.422 283.931 728.176 283.695C727.929 283.458 727.689 283.216 727.455 282.968C727.22 282.72 726.991 282.466 726.769 282.207C726.546 281.948 726.33 281.684 726.12 281.415C725.91 281.144 725.707 280.87 725.511 280.59C725.315 280.311 725.125 280.027 724.943 279.738C724.76 279.45 724.585 279.157 724.417 278.86C724.249 278.563 724.088 278.262 723.934 277.957C723.78 277.652 723.633 277.344 723.495 277.032C723.356 276.719 723.225 276.404 723.102 276.086C722.978 275.767 722.863 275.446 722.755 275.122C722.647 274.798 722.547 274.472 722.455 274.144C722.363 273.815 722.279 273.484 722.203 273.15C722.127 272.817 722.059 272.483 722 272.146C721.94 271.811 721.888 271.474 721.844 271.135C721.801 270.796 721.766 270.457 721.739 270.116C721.712 269.776 721.693 269.435 721.684 269.094C721.673 268.753 721.671 268.411 721.676 268.069C721.683 267.728 721.698 267.387 721.72 267.046C721.743 266.705 721.774 266.365 721.813 266.026C721.853 265.687 721.9 265.348 721.955 265.011C722.011 264.675 722.075 264.34 722.147 264.006C722.218 263.672 722.298 263.34 722.386 263.011C722.475 262.681 722.571 262.353 722.674 262.027C722.778 261.702 722.889 261.38 723.009 261.06C723.129 260.74 723.256 260.423 723.391 260.11C723.525 259.795 723.668 259.485 723.818 259.178C723.968 258.872 724.125 258.569 724.289 258.269C724.454 257.971 724.626 257.675 724.805 257.384C724.984 257.093 725.17 256.807 725.363 256.526C725.556 256.244 725.756 255.967 725.962 255.694C726.168 255.422 726.38 255.155 726.6 254.893C726.819 254.631 727.044 254.375 727.276 254.124C727.508 253.874 727.745 253.629 727.989 253.389C728.233 253.149 728.482 252.916 728.737 252.689C728.991 252.462 729.251 252.24 729.517 252.026C729.783 251.811 730.053 251.603 730.329 251.401C730.604 251.2 730.885 251.006 731.171 250.817C731.456 250.629 731.745 250.449 732.039 250.275C732.333 250.101 732.631 249.934 732.933 249.775C733.235 249.615 733.541 249.463 733.85 249.318C734.16 249.174 734.472 249.037 734.788 248.907C735.104 248.778 735.423 248.656 735.744 248.542C736.067 248.429 736.391 248.322 736.718 248.224C737.045 248.126 737.375 248.035 737.706 247.953Z" fill="black"/>
<path d="M740.156 254.903C743.697 254.747 746.484 254.76 749.491 256.991C752.415 259.161 754.206 262.602 754.695 266.171C755.253 270.246 754.368 274.504 751.738 277.746C749.26 280.803 746.633 281.665 742.913 282.115C741.779 282.147 740.872 282.12 739.778 281.774C736.351 280.687 733.712 278.438 732.178 275.171C730.445 271.481 730.4 266.837 731.773 263.019C733.336 258.668 736.148 256.673 740.156 254.903Z" fill="#FEFEFE"/>
<path d="M861.906 248.02C864.661 247.709 867.489 247.775 870.257 247.777C876.465 247.78 883.91 247.824 888.465 252.699C893.791 258.404 887.84 260.768 887.253 266.083C886.836 269.833 893.155 272.952 892.824 277.835C892.64 280.425 891.281 282.425 889.371 284.059L888.857 285.382C882.942 291.068 868.836 289.207 860.963 289.126C864.22 283.352 861.673 256.433 861.906 248.02Z" fill="black"/>
<path d="M869.62 271.741C873.661 271.316 879.269 270.739 882.698 273.458C884.045 274.529 883.959 275.011 884.155 276.69C883.347 278.616 882.416 279.494 880.836 280.827C878.755 282.885 871.935 282.264 868.947 282.313C870.759 279.173 870.245 275.17 869.62 271.741Z" fill="#FEFEFE"/>
<path d="M869.497 255.67C873.207 255.107 878.375 254.726 881.558 257.271C882.832 258.293 882.746 258.71 882.869 260.219C881.815 261.95 880.934 262.734 879.244 263.829C877.15 265.417 871.664 265.07 869.007 265.177C870.685 262.351 870.207 258.728 869.497 255.67Z" fill="#FEFEFE"/>
<path d="M769.72 248.778C775.61 247.593 783.925 247.343 789.745 248.843C794.244 250.002 798.484 252.601 800.752 256.778C802.005 259.082 802.411 261.456 801.561 263.976C800.197 268.026 796.518 271.369 792.823 273.284C795.314 275.668 797.558 279.804 799.149 282.85C800.233 284.925 800.331 286.36 799.656 288.56C797.3 289.741 795.876 289.457 793.296 289.347C789.552 284.554 788.048 275.75 782.132 273.32C776.963 274.828 780.992 285.839 778.208 288.961C775.84 289.16 774.292 289.068 772.074 288.182C766.88 278.233 774.479 259.746 769.933 249.223C769.868 249.072 769.791 248.927 769.72 248.778Z" fill="black"/>
<path d="M778.577 255.668C782.653 255.161 787.085 254.785 790.751 257.078C792.529 258.189 792.632 259.104 792.92 260.984C792.235 262.994 791.435 264.04 789.892 265.486L789.343 266.453C785.91 267.878 781.827 267.605 778.161 267.671C779.746 263.556 779.751 259.883 778.577 255.668Z" fill="#FEFEFE"/>
<path d="M662.145 247.73C667.086 247.49 670.744 248.055 675.277 250.111C677.682 251.202 679.365 252.244 680.331 254.807C680.346 256.729 679.6 257.609 678.491 259.124C673.008 261.812 670.719 255.314 665.395 255.007C663.769 254.913 662.278 255.562 661.102 256.658C659.714 257.952 659.716 258.115 659.618 260.023C663.814 263.843 670.891 264.89 675.727 268.141C678.742 270.168 681.938 273.444 682.439 277.173C682.772 279.647 681.715 281.701 680.129 283.526C675.923 288.366 671.769 289.449 665.652 289.899C662.99 289.422 659.793 288.839 657.376 287.584C654.686 286.188 651.718 283.6 651.053 280.482C650.598 278.35 651.023 277.604 652.127 275.918C652.756 275.622 653.463 275.233 654.18 275.197C658.003 275.005 660.441 278.724 663.269 280.914C665.336 282.513 667.244 283.504 669.914 283.15C671.005 282.397 671.645 281.887 672.189 280.648C672.812 279.23 673.171 277.314 672.489 275.881C670.762 272.252 662.308 270.806 658.731 269.462C655.602 268.286 652.45 266.592 651.148 263.305C650.034 260.488 650.576 256.761 651.927 254.116C653.903 250.245 658.316 248.952 662.145 247.73Z" fill="black"/>
<path d="M810.047 248.022C816.279 247.853 827.943 245.764 833.09 249.599C834.007 251.427 834.181 251.658 833.944 253.79C830.277 256.951 821.129 255.656 816.471 255.577C816.717 256.087 816.78 256.178 816.958 256.674C817.964 259.45 817.783 262.391 816.516 265.037C820.342 265.063 824.188 264.571 828.008 264.686C830.139 264.749 831.226 265.299 832.716 266.77C833.393 268.617 833.473 269.461 832.989 271.365C829.596 273.415 823.769 271.331 819.732 272.708C817.671 273.411 817.339 275.261 816.491 277.096L817.898 280.599C820.862 283.15 825.701 282.4 829.307 282.198C832.078 282.044 833.736 281.808 835.871 283.723C836.055 285.846 836.33 286.057 835.001 287.833C828.111 291.138 815.874 289.297 808.212 289.102C813.038 280.052 805.232 255.73 810.047 248.022Z" fill="black"/>
<path d="M686.29 248.02C693.638 247.909 712.737 245.138 718.09 250.077C718.574 252.323 718.341 252.612 717.417 254.754C713.965 256.159 708.67 255.438 704.926 255.401C705.239 255.901 705.57 256.456 705.763 257.014C707.223 261.22 707.307 276.347 705.199 280.1C706.046 281.403 706.68 283.246 706.762 284.813C706.87 286.862 705.959 287.714 704.746 289.14C702.671 289.85 702.327 289.913 700.201 289.414C693.139 283.755 701.328 263.509 696.309 255.396C693.571 255.486 689.65 255.963 687.091 255.043C685.422 254.441 685.419 254.172 684.698 252.551C685.039 250.812 685.383 249.549 686.29 248.02Z" fill="black"/>
<path d="M224.18 202.048L599.497 202.05L599.374 329.414L224.097 329.365L224.18 202.048Z" fill="#FEFEFE"/>
<path d="M370.608 247.973C371.061 247.863 371.517 247.768 371.977 247.688C372.437 247.607 372.898 247.542 373.362 247.493C373.826 247.443 374.29 247.409 374.757 247.39C375.223 247.371 375.689 247.368 376.155 247.38C376.621 247.393 377.086 247.42 377.551 247.464C378.015 247.507 378.478 247.565 378.938 247.639C379.399 247.713 379.857 247.802 380.312 247.906C380.767 248.01 381.217 248.129 381.664 248.263C382.11 248.397 382.552 248.546 382.989 248.709C383.426 248.872 383.857 249.05 384.282 249.242C384.707 249.433 385.126 249.639 385.537 249.859C385.948 250.078 386.352 250.311 386.749 250.558C387.145 250.804 387.533 251.063 387.911 251.335C388.29 251.607 388.659 251.891 389.019 252.188C389.379 252.484 389.729 252.792 390.069 253.112C390.408 253.432 390.737 253.763 391.054 254.104C391.372 254.445 391.678 254.797 391.973 255.159C392.267 255.521 392.549 255.892 392.819 256.273C393.088 256.653 393.345 257.042 393.589 257.439C393.833 257.837 394.064 258.242 394.28 258.655C394.497 259.068 394.7 259.487 394.89 259.914C395.079 260.34 395.254 260.772 395.414 261.21C395.574 261.648 395.721 262.091 395.852 262.538C395.983 262.986 396.1 263.437 396.201 263.892C396.302 264.347 396.388 264.805 396.458 265.266C396.529 265.728 396.585 266.19 396.625 266.655C396.666 267.119 396.69 267.585 396.699 268.051C396.709 268.518 396.703 268.984 396.681 269.449C396.66 269.915 396.623 270.38 396.57 270.844C396.517 271.307 396.45 271.768 396.366 272.228C396.284 272.686 396.186 273.142 396.072 273.594C395.959 274.046 395.831 274.494 395.688 274.939C395.545 275.383 395.388 275.821 395.215 276.255C395.043 276.688 394.857 277.116 394.657 277.537C394.456 277.958 394.242 278.372 394.014 278.779C393.786 279.186 393.545 279.585 393.29 279.975C393.037 280.366 392.77 280.748 392.49 281.122C392.21 281.495 391.919 281.859 391.614 282.212C391.31 282.566 390.995 282.91 390.669 283.243C390.342 283.576 390.005 283.898 389.657 284.208C389.31 284.519 388.952 284.818 388.583 285.104C388.216 285.392 387.839 285.666 387.453 285.928C387.067 286.19 386.673 286.438 386.27 286.674C385.868 286.91 385.458 287.132 385.041 287.341C384.624 287.55 384.2 287.744 383.77 287.924C383.341 288.105 382.905 288.272 382.464 288.423C382.023 288.574 381.577 288.712 381.126 288.834C380.677 288.956 380.223 289.063 379.766 289.155C379.432 289.222 379.097 289.281 378.759 289.332C378.422 289.383 378.084 289.426 377.744 289.461C377.406 289.495 377.066 289.521 376.726 289.539C376.385 289.557 376.044 289.567 375.703 289.569C375.363 289.57 375.022 289.564 374.681 289.549C374.34 289.534 374 289.512 373.661 289.481C373.321 289.449 372.983 289.409 372.646 289.362C372.308 289.314 371.972 289.258 371.637 289.194C371.302 289.13 370.969 289.057 370.637 288.977C370.306 288.897 369.977 288.809 369.651 288.713C369.323 288.616 368.999 288.512 368.677 288.401C368.355 288.289 368.035 288.169 367.719 288.042C367.403 287.914 367.09 287.78 366.78 287.638C366.471 287.495 366.165 287.345 365.862 287.187C365.56 287.03 365.262 286.865 364.967 286.694C364.672 286.522 364.382 286.343 364.096 286.157C363.811 285.971 363.53 285.779 363.254 285.579C362.977 285.379 362.706 285.173 362.44 284.961C362.173 284.749 361.911 284.53 361.656 284.305C361.4 284.079 361.15 283.848 360.905 283.61C360.66 283.373 360.422 283.13 360.189 282.881C359.956 282.632 359.73 282.377 359.509 282.117C359.289 281.857 359.075 281.592 358.866 281.322C358.659 281.052 358.458 280.777 358.264 280.497C358.07 280.217 357.882 279.932 357.702 279.642C357.522 279.353 357.348 279.06 357.182 278.763C357.015 278.465 356.856 278.163 356.705 277.858C356.553 277.552 356.409 277.244 356.272 276.932C356.135 276.619 356.006 276.304 355.885 275.985C355.763 275.667 355.65 275.346 355.544 275.022C355.438 274.698 355.34 274.371 355.251 274.042C355.161 273.714 355.079 273.383 355.004 273.05C354.93 272.717 354.864 272.383 354.807 272.048C354.749 271.711 354.7 271.374 354.658 271.036C354.616 270.698 354.583 270.359 354.559 270.019C354.533 269.679 354.517 269.339 354.509 268.997C354.5 268.657 354.499 268.316 354.507 267.975C354.515 267.635 354.532 267.294 354.556 266.955C354.581 266.615 354.613 266.275 354.654 265.937C354.695 265.599 354.744 265.261 354.801 264.926C354.859 264.59 354.925 264.255 354.998 263.922C355.072 263.589 355.153 263.258 355.242 262.93C355.332 262.601 355.429 262.275 355.535 261.95C355.64 261.626 355.753 261.305 355.874 260.986C355.996 260.667 356.124 260.352 356.26 260.039C356.396 259.726 356.54 259.417 356.692 259.112C356.843 258.807 357.001 258.505 357.167 258.207C357.333 257.909 357.506 257.616 357.686 257.327C357.866 257.037 358.053 256.752 358.247 256.472C358.44 256.191 358.641 255.916 358.848 255.646C359.055 255.375 359.269 255.109 359.49 254.85C359.709 254.589 359.935 254.334 360.168 254.084C360.401 253.835 360.639 253.592 360.883 253.355C361.127 253.116 361.377 252.884 361.633 252.659C361.888 252.434 362.149 252.215 362.415 252.001C362.681 251.788 362.953 251.582 363.229 251.382C363.505 251.182 363.786 250.989 364.071 250.803C364.356 250.617 364.646 250.437 364.941 250.265C365.235 250.093 365.533 249.928 365.835 249.769C366.137 249.612 366.443 249.462 366.752 249.319C367.062 249.176 367.375 249.04 367.691 248.912C368.007 248.785 368.326 248.665 368.648 248.552C368.969 248.44 369.294 248.336 369.621 248.239C369.948 248.142 370.277 248.054 370.608 247.973Z" fill="black"/>
<path d="M373.785 254.715C375.834 254.905 378.315 254.981 380.233 255.781C383.256 257.044 385.837 260.263 386.938 263.276C388.327 267.074 387.941 271.163 386.235 274.787C384.268 278.967 381.193 280.779 377.107 282.388C375.433 282.291 373.6 282.054 372.028 281.47C368.303 280.087 365.722 276.891 364.364 273.256C364.191 272.78 364.044 272.297 363.92 271.806C363.797 271.316 363.699 270.82 363.625 270.32C363.552 269.819 363.505 269.316 363.483 268.811C363.461 268.306 363.464 267.801 363.493 267.295C363.522 266.79 363.577 266.287 363.657 265.788C363.737 265.289 363.842 264.795 363.973 264.306C364.103 263.817 364.257 263.336 364.436 262.863C364.615 262.39 364.817 261.927 365.043 261.474C366.962 257.665 369.863 255.877 373.785 254.715Z" fill="#FEFEFE"/>
<path d="M405.051 248.019C409.029 247.883 413.061 247.876 417.037 248.066C422.752 248.339 429.337 250.451 433.165 254.929C434.691 256.713 435.692 258.861 435.358 261.256C434.662 266.241 430.879 270.329 427.151 273.323C429.095 277.011 431.973 280.894 433.315 284.805C433.922 286.573 433.749 287.154 432.963 288.776C430.526 289.919 428.288 289.309 425.727 288.931C423.547 284.478 420.436 275.193 415.678 273.249C412.036 274.729 413.659 285.065 411.463 288.435C410.833 289.401 410.497 289.49 409.329 289.617C407.323 289.835 406.208 289.475 404.607 288.378C404.327 287.532 404.097 286.837 404.005 285.944C403.651 282.495 403.382 250.386 404.016 249.17C404.255 248.712 404.707 248.403 405.051 248.019Z" fill="black"/>
<path d="M412.545 255.167C415.5 255.109 419.289 254.751 422.06 255.934C423.731 256.648 424.729 257.389 425.426 259.057C426.414 261.421 425.098 263.887 424.144 266.044C420.361 267.478 416.808 267.55 412.799 267.653L412.545 255.167Z" fill="#FEFEFE"/>
<path d="M505.441 248.296L514.62 248.229C519.43 261.191 525.021 274.467 528.455 287.843L527.9 288.264L528.448 288.712C527.706 289.272 526.865 289.992 526.01 290.358C520.447 292.742 519.073 281.221 515.751 279.601L502.44 279.586C502.064 280.808 501.648 282.027 501.3 283.256C500.9 284.672 500.661 286.083 499.578 287.166C497.803 288.941 495.311 289.893 492.85 289.983L491.79 288.963C490.902 282.791 502.383 255.545 505.441 248.296Z" fill="black"/>
<path d="M509.52 258.822C510.987 261.123 512.191 264.126 513.118 266.69C513.755 268.455 514.067 270.211 513.225 271.936L510.616 272.639C508.614 272.423 507.401 272.594 505.809 271.315C505.19 267.643 508.225 262.369 509.52 258.822Z" fill="#FEFEFE"/>
<path d="M293.882 247.724C299.29 247.395 305.917 248.204 310.276 251.802C311.868 253.115 312.002 253.926 312.189 255.895C311.476 257.779 310.969 258.383 309.255 259.452C305.899 259.767 302.595 257.04 299.513 255.852C297.292 254.998 295.433 255.216 293.314 256.167C292.093 257.543 291.946 257.597 291.789 259.41C294.959 264.65 302.915 264.233 307.849 267.152C310.838 268.92 312.751 272.274 313.483 275.606C314.136 278.575 313.591 281.362 311.79 283.809C308.459 288.331 303.863 289.351 298.662 289.963C296.616 289.625 294.531 289.3 292.525 288.774C288.678 287.765 285.205 284.943 283.47 281.344C282.519 279.369 282.26 278.422 283.002 276.418L285.668 275.477C289.592 276.257 293.05 279.252 296.601 281.083C299.068 282.354 300.781 282.823 303.468 281.939C303.905 281.41 304.355 280.908 304.59 280.248C305.222 278.465 305.164 276.763 304.48 275.041C301.718 271.92 295.496 271.15 291.588 269.738C288.252 268.533 284.903 266.434 283.493 263.013C282.37 260.29 282.833 257.292 284.123 254.719C286.236 250.499 289.71 249.123 293.882 247.724Z" fill="black"/>
<path d="M442.945 247.738C449.125 247.657 463.406 246.187 468.245 249.54C468.915 251.237 468.909 251.101 468.197 252.784C463.697 256.968 457.048 255.582 451.359 255.433L451.398 264.855C455.71 264.601 461.242 263.607 465.32 265.155C466.929 266.78 466.88 266.887 467.076 269.183C464.21 275.345 457.259 270.703 452.045 272.613L451.455 274.33C451.336 276.471 451.13 278.366 451.915 280.42C457.457 284.953 462.866 280.551 468.646 281.955C470.255 282.345 470.292 282.968 470.972 284.326C470.819 286.102 471.051 287.137 469.834 288.482C461.492 290.247 451.517 289.229 443.016 289.099C442.814 275.313 442.79 261.525 442.945 247.738Z" fill="black"/>
<path d="M317.811 247.815C327.301 247.767 340.912 246.158 349.761 248.159L350.694 249.701C350.777 251.749 351.176 252.961 349.922 254.696C346.702 256.016 342.154 255.414 338.686 255.323L338.697 277.979C338.702 280.315 339.002 282.992 338.621 285.28C338.277 287.346 336.836 288.568 335.287 289.828C333.321 290.291 333.449 290.301 331.703 289.279C328.224 284.038 329.898 262.38 329.882 255.296C326.59 255.421 321.635 256.228 318.768 254.614C317.378 252.169 317.755 250.593 317.811 247.815Z" fill="black"/>
<path d="M28.2453 203.297C50.9035 201.997 73.7798 203.229 96.458 203.231L213.542 203.312L213.562 328.732L209.182 328.735L23.5583 328.726C23.5577 312.085 22.6777 214.478 24.3234 208.841C25.1965 205.851 26.5897 204.257 28.2453 203.297Z" fill="#FEFEFE"/>
<path d="M142.616 248.45C144.793 248.425 147.651 247.991 149.731 248.598C155.625 250.317 161.613 267.863 164.353 273.368C168.401 265.131 171.563 256.517 176.218 248.574L186.13 248.587C186.21 258.411 187.831 276.806 185.748 285.74C185.179 288.188 184.654 289.272 182.611 290.653C181.01 290.388 180.413 289.965 179.238 288.844C177.642 287.325 178.13 280.099 178.099 277.766C177.849 272.578 177.756 267.375 177.601 262.184C175.322 267.213 171.519 278.6 166.518 281.412C165.211 282.146 164.03 282.287 162.62 281.795C157.298 279.935 153.142 267.935 150.918 263.155C150.849 268.263 151.116 273.334 151.174 278.438C151.217 282.186 151.389 286.219 148.595 289.075C146.345 289.66 145.85 289.475 143.589 288.806C140.828 285.132 142.442 255.215 142.616 248.45Z" fill="black"/>
<path d="M107.873 247.716C112.621 247.725 128.078 246.688 131.596 248.652C133.054 249.467 133.054 249.75 133.48 251.347C133.183 251.963 132.913 252.576 132.431 253.075C128.902 256.732 120.89 255.507 116.259 255.364L116.291 265.007C119.799 264.89 124.161 264.217 127.606 264.669C129.737 264.948 130.381 265.695 131.642 267.228C132.033 269.006 132.179 269.897 131.47 271.599C128.127 273.64 121.913 271.141 117.547 272.857C115.735 274.825 116.131 276.498 115.955 279.091C116.122 280.402 116.357 280.882 117.223 281.88C121.673 282.948 126.087 281.892 130.586 281.961C132.618 281.991 133.473 282.588 134.816 284.008C135.171 285.738 135.213 286.629 134.621 288.306C127.092 290.847 115.818 289.389 107.777 289.232C107.684 275.393 107.716 261.554 107.873 247.716Z" fill="black"/>
<path d="M71.1682 248.046C75.3425 247.996 96.3277 246.816 98.784 247.889C99.3142 248.12 99.6179 248.691 100.034 249.093C100.332 251.189 100.525 252.733 99.9767 254.796C96.4404 255.934 91.7579 255.376 88.022 255.335L88.0404 281.935C88.0869 284.211 88.1016 286.297 87.6302 288.544L84.7771 289.959C83.2147 289.883 82.5976 290.063 81.4551 288.84C77.1449 284.224 79.4457 262.109 79.5412 255.513C75.3584 255.662 71.3494 256.462 67.7152 254.03C66.6621 252.116 66.6499 252 66.9964 249.841C68.6507 248.182 68.8086 248.266 71.1682 248.046Z" fill="black"/>
<path d="M52.5666 248.62L61.122 248.59C61.1857 261.971 62.0649 276.059 60.7106 289.347C58.138 289.473 56.0123 289.444 53.4739 288.818C50.9196 286.01 52.3927 254.27 52.5666 248.62Z" fill="black"/>
<path d="M856.643 727C860.08 726.568 863.686 726.491 866.991 727.646C871.845 729.34 875.577 733.163 877.781 737.728C881.468 745.365 881.729 755.107 878.934 763.064C876.474 770.064 872.664 773.968 866.096 777.181C862.888 777.786 859.797 777.849 856.669 776.85C851.579 775.224 847.897 771.74 845.534 766.988C841.706 759.283 841.502 748.852 844.268 740.782C846.641 733.862 850.098 730.153 856.643 727Z" fill="#F7A342"/>
<path d="M858.788 734.42C859.397 734.425 860.006 734.443 860.614 734.474C863.486 734.624 865.537 735.442 867.427 737.72C870.963 741.979 871.513 748.412 871.121 753.713C870.623 760.46 869.121 764.845 863.894 769.313C863.282 769.433 862.666 769.546 862.041 769.572C859.903 769.664 857.615 768.499 856.085 767.065C852.646 763.843 852.142 758.104 852.07 753.661C851.94 745.75 853.237 740.184 858.788 734.42Z" fill="#FEFEFE"/>
<path d="M736.571 720.584C737.988 720.644 739.17 720.846 740.548 721.18C744.35 726.185 753.845 729.976 754.308 736.528C754.45 738.535 753.983 739.255 752.755 740.752C747.14 741.945 744.641 735.869 739.811 734.26C738.202 733.724 736.723 734.062 735.261 734.868C732.954 736.14 731.858 737.86 731.176 740.335C732.982 748.942 748.13 747.095 753.645 753.366C756.036 756.083 757.219 761.423 756.882 765.016C756.249 771.787 748.269 774.296 743.723 778.366C743.104 781.037 742.233 782.038 740.103 783.723L737.381 782.363C736.896 781.358 736.051 779.242 735.243 778.508C730.901 774.569 723.18 774.501 719.837 767.123C719.939 766.48 719.9 765.687 720.346 765.182C722.377 762.881 725.899 762.583 728.744 762.131C730.437 764.293 732.169 766.702 734.781 767.787C737.719 769.006 741.308 769.661 744.331 768.507C745.639 767.13 746.231 766.612 746.651 764.697C748.916 754.363 728.476 755.216 723.589 747.032C721.707 743.88 721.604 739.297 722.665 735.852C724.112 731.15 728.972 729.416 732.849 727.144C735.728 725.456 735.79 723.536 736.571 720.584Z" fill="#F7A342"/>
<path d="M807.002 726.345C813.544 726.434 820.361 725.485 826.834 725.977C829.818 726.204 831.882 726.716 833.849 729.039C834.302 730.741 834.501 731.222 834.064 732.977C829.335 736.123 819.762 734.642 814.246 734.492C814.142 737.634 814.183 740.501 814.668 743.614C817.957 745.427 824.556 743.32 828.856 745.163C832.687 746.803 835.171 750.266 836.567 754.089C836.763 754.62 836.931 755.159 837.073 755.707C837.213 756.255 837.325 756.809 837.408 757.368C837.492 757.928 837.547 758.491 837.572 759.056C837.598 759.621 837.594 760.187 837.562 760.752C837.53 761.316 837.468 761.878 837.378 762.436C837.287 762.995 837.168 763.547 837.02 764.093C836.873 764.64 836.698 765.178 836.495 765.706C836.292 766.234 836.063 766.75 835.807 767.255C832.961 772.962 828.803 775.428 822.912 777.343C819.375 777.673 816.217 777.605 812.936 776.086C808.774 774.16 804.67 770.812 803.023 766.463C803.32 764.97 803.172 764.389 804.53 763.515C810.178 759.877 815.091 768.723 820.391 769.252C821.975 769.41 823.448 768.736 824.605 767.693C826.543 765.943 827.981 763.955 828.103 761.293C828.217 758.812 827.525 755.314 825.651 753.538C821.152 749.274 813.578 753.596 808.314 753.436C806.634 753.386 806.408 753.005 805.274 751.901C803.927 744.55 806.341 733.852 807.002 726.345Z" fill="#F7A342"/>
<path d="M777.785 726.039C779.117 725.945 780.284 726.173 781.582 726.418C783.504 730.051 783.199 770.353 781.791 775.554C781.614 775.64 781.444 775.744 781.259 775.81C779.082 776.596 775.476 776.428 773.355 775.591C772.282 773.698 772.515 772.452 772.522 770.357C773.012 759.917 772.667 749.347 772.975 738.879C771.357 739.618 769.066 740.769 767.29 740.968C765.321 741.189 764.589 740.763 763.104 739.587L763.064 737.725C766.055 731.983 772.421 729.212 777.785 726.039Z" fill="#F7A342"/>
<path d="M704.642 780.325C706.402 780.262 707.897 781.308 709.412 782.102C709.935 783.211 710.282 783.368 709.949 784.63C708.513 790.076 689.922 798.739 684.5 801.755C684.443 801.757 684.387 801.769 684.331 801.763C681.987 801.524 681.623 800.94 679.954 799.323C679.626 798.229 679.218 797.579 679.578 796.442C681.397 790.69 699.051 783.258 704.642 780.325Z" fill="#F7A342"/>
<path d="M887.299 781.77C888.119 781.956 888.954 782.169 889.736 782.485C894.921 784.582 912.24 793.289 914.267 797.977C914.108 800.265 912.837 801.522 911.444 803.202C910.022 803.027 908.587 802.899 907.263 802.304C901.971 799.926 885.859 791.774 883.812 786.687C884.147 784.509 885.806 783.263 887.299 781.77Z" fill="#F7A342"/>
<path d="M662 743.153C669.294 743.128 677.502 743.357 684.708 744.414C688.047 744.904 690.618 745.406 692.663 748.212C692.789 750.383 692.374 751.554 691.466 753.512C685.054 754.129 677.713 753.547 671.328 752.734C667.964 752.307 663.529 751.497 661.356 748.7C660.868 746.542 661.324 745.224 662 743.153Z" fill="#F7A342"/>
<path d="M682.766 694.332C683.102 694.442 683.624 694.601 683.968 694.756C688.769 696.935 705.522 708.442 707.077 712.711C706.539 715.202 705.465 716.061 703.845 717.893C702.883 717.583 701.934 717.222 701.044 716.737C696.126 714.064 681.174 705.566 679.582 700.646C679.8 697.941 681.193 696.416 682.766 694.332Z" fill="#F7A342"/>
<path d="M906.66 697.657C908.161 697.75 909.313 698.445 910.662 699.07C911.447 700.274 911.769 700.481 911.456 701.974C910.338 707.325 894.289 716.178 889.444 719.448C888.13 719.187 886.565 718.671 885.628 717.673C884.365 716.327 884.633 715.835 884.704 714.168C888.187 707.473 900.184 701.578 906.66 697.657Z" fill="#F7A342"/>
<path d="M901.213 746.308C907.892 746.37 914.803 745.606 921.436 746.193C924.562 746.469 926.558 746.843 928.592 749.302C928.83 751.021 928.849 752.117 928.366 753.792L926.771 754.617C919.598 754.776 908.97 756.47 902.189 754.207C900.267 753.565 899.724 752.944 898.85 751.21C899.166 748.995 899.713 747.958 901.213 746.308Z" fill="#F7A342"/>
<path d="M848.968 685.195C849.717 685.238 850.605 685.247 851.319 685.487C852.985 686.048 853.367 687.219 854.075 688.645C854.331 695.142 847.577 705.827 843.445 710.749C842.341 710.667 841.197 710.632 840.215 710.066C838.936 709.33 838.295 708.511 838.041 707.047C837.121 701.749 845.661 689.288 848.968 685.195Z" fill="#F7A342"/>
<path d="M744.081 687.308L746.766 687.946C751.055 691.471 755.451 701.184 756.224 706.671C756.534 708.869 755.213 709.893 753.942 711.465C752.706 711.423 751.57 711.079 750.384 710.764C745.874 707.066 742.505 698.566 741.842 692.853C741.548 690.325 742.715 689.261 744.081 687.308Z" fill="#F7A342"/>
<path d="M792.488 679.325C793.579 679.244 794.812 679.079 795.897 679.217C797.125 679.374 798.07 680.105 798.622 681.192C801.052 685.97 799.36 697.776 797.623 702.587L793.802 702.534C792.706 701.842 791.965 701.588 791.406 700.372C789.062 695.261 790.398 684.452 792.488 679.325Z" fill="#F7A342"/>
<path d="M846.617 792.151C848.667 792.805 849.889 794.238 851.144 795.914C853.757 799.41 858.619 806.046 857.694 810.68C857.312 812.593 855.791 813.204 854.325 814.29C854.18 814.182 854.031 814.078 853.889 813.967C849.082 810.2 843.894 802.279 843.092 796.224C843.822 793.874 844.695 793.605 846.617 792.151Z" fill="#F7A342"/>
<path d="M748.665 793.867C750.274 794.085 751.273 794.623 752.64 795.424C753.289 796.619 753.767 797.129 753.627 798.528C753.093 803.861 747.012 811.113 743.022 814.489C740.625 813.663 739.538 813.319 738.378 811.034C738.77 804.758 744.945 798.652 748.665 793.867Z" fill="#F7A342"/>
<path d="M795.768 794.792C796.701 795.218 797.598 795.838 798.484 796.362C799.633 798.489 799.872 800.47 800.115 802.844C800.65 808.091 800.945 815.153 797.494 819.329C796.068 818.914 795.001 818.433 793.711 817.698C792.282 814.896 792.005 811.249 792.007 808.134C792.01 803.104 792.249 798.491 795.768 794.792Z" fill="#F7A342"/>
<path d="M791.486 766.357C791.706 766.259 791.931 766.175 792.161 766.107C792.391 766.039 792.625 765.987 792.863 765.95C793.1 765.914 793.339 765.894 793.58 765.889C793.82 765.885 794.06 765.897 794.299 765.924C794.537 765.952 794.773 765.996 795.006 766.055C795.238 766.115 795.466 766.19 795.689 766.281C795.912 766.371 796.128 766.476 796.337 766.595C796.545 766.715 796.744 766.847 796.935 766.993C797.126 767.14 797.306 767.298 797.475 767.469C797.645 767.639 797.802 767.82 797.947 768.012C798.092 768.203 798.224 768.404 798.342 768.613C798.46 768.822 798.563 769.039 798.652 769.262C798.741 769.485 798.815 769.713 798.872 769.947C798.93 770.18 798.973 770.416 799 770.655C799.026 770.894 799.036 771.133 799.03 771.373C799.025 771.613 799.003 771.852 798.964 772.09C798.927 772.327 798.873 772.561 798.804 772.79C798.735 773.02 798.65 773.245 798.55 773.464C798.45 773.682 798.336 773.893 798.209 774.097C798.081 774.3 797.939 774.494 797.785 774.678C797.631 774.863 797.465 775.036 797.288 775.199C797.111 775.36 796.924 775.51 796.726 775.647C796.528 775.783 796.322 775.906 796.108 776.015C795.894 776.125 795.673 776.219 795.446 776.298C795.286 776.355 795.122 776.403 794.957 776.444C794.791 776.485 794.624 776.518 794.455 776.543C794.286 776.568 794.116 776.584 793.945 776.592C793.775 776.601 793.604 776.602 793.433 776.595C793.263 776.586 793.093 776.571 792.924 776.547C792.755 776.522 792.588 776.49 792.422 776.45C792.255 776.411 792.092 776.363 791.931 776.307C791.769 776.251 791.611 776.189 791.456 776.118C791.3 776.047 791.148 775.969 791 775.884C790.852 775.799 790.709 775.706 790.571 775.608C790.431 775.509 790.297 775.404 790.168 775.292C790.039 775.18 789.915 775.062 789.798 774.939C789.68 774.815 789.568 774.686 789.462 774.552C789.357 774.417 789.258 774.278 789.166 774.135C789.075 773.991 788.99 773.843 788.911 773.691C788.833 773.54 788.762 773.384 788.699 773.226C788.637 773.068 788.581 772.906 788.533 772.742C788.486 772.578 788.446 772.413 788.414 772.245C788.381 772.077 788.357 771.908 788.342 771.738C788.326 771.569 788.319 771.398 788.32 771.228C788.32 771.057 788.328 770.887 788.346 770.717C788.362 770.547 788.387 770.378 788.42 770.21C788.453 770.043 788.494 769.878 788.543 769.714C788.592 769.55 788.648 769.389 788.712 769.232C788.776 769.073 788.848 768.918 788.927 768.766C789.006 768.615 789.091 768.469 789.184 768.326C789.277 768.182 789.377 768.044 789.484 767.911C789.59 767.777 789.703 767.649 789.821 767.526C789.939 767.403 790.064 767.286 790.193 767.175C790.323 767.064 790.458 766.959 790.597 766.861C790.737 766.763 790.881 766.672 791.03 766.588C791.178 766.503 791.33 766.426 791.486 766.357Z" fill="#F7A342"/>
<path d="M480.197 564.809C483.872 564.244 487.337 564.314 491.047 564.482C492.504 565.044 494.023 565.617 495.357 566.44C500.329 569.494 503.378 575.29 504.688 580.818C506.684 589.226 506.059 600.076 501.272 607.491C498.553 611.693 495.051 614.159 490.153 615.22C487.704 616.421 482.268 616.011 479.648 615.161C475.631 613.854 472.721 609.97 470.809 606.382C466.437 598.181 465.565 587.682 468.37 578.83C470.531 572.01 473.946 568.136 480.197 564.809Z" fill="black"/>
<path d="M484.056 572.46C485.794 572.37 487.668 572.199 489.26 573.029C492.59 574.756 494.402 578.488 495.321 581.966C496.986 588.268 496.741 597.253 493.251 602.937C491.623 605.591 489.982 606.438 487.031 607.19C486.235 607.197 485.427 607.23 484.656 607.046C482.623 606.567 480.877 604.958 479.778 603.253C476.044 597.453 476.085 588.4 477.627 581.929C478.657 577.604 480.186 574.819 484.056 572.46Z" fill="#FEFEFE"/>
<path d="M436.08 564.809C438.771 564.419 441.545 564.168 444.254 564.555C449.005 565.233 453.957 568.125 456.756 572.026C458.384 574.295 459.245 576.866 458.639 579.649C457.858 583.239 454.855 586.292 451.864 588.197C452.953 588.717 454.063 589.25 455.069 589.923C457.87 591.799 459.924 595.066 460.382 598.407C460.892 602.13 459.602 605.801 457.382 608.757C453.937 613.344 449.616 614.984 444.09 615.736C443.644 615.856 443.556 615.891 443.032 615.957C437.394 616.676 431.303 615.556 426.902 611.785C426.536 611.478 426.187 611.152 425.855 610.808C425.523 610.465 425.209 610.105 424.913 609.728C424.618 609.352 424.344 608.962 424.089 608.558C423.834 608.153 423.6 607.736 423.389 607.307C423.176 606.879 422.987 606.44 422.821 605.992C422.654 605.544 422.511 605.089 422.392 604.626C422.272 604.163 422.176 603.695 422.105 603.223C422.034 602.75 421.987 602.275 421.965 601.797C421.683 595.54 424.77 592.986 428.821 588.705C428.698 585.812 425.598 582.859 424.488 580.012C423.656 577.878 423.304 575.28 424.378 573.162C426.569 568.835 431.748 566.332 436.08 564.809Z" fill="black"/>
<path d="M437.392 593.121C440.648 592.656 443.767 592.416 446.655 594.292C448.592 595.549 450.292 597.811 450.597 600.143C450.622 600.342 450.637 600.542 450.642 600.743C450.648 600.944 450.643 601.145 450.629 601.345C450.614 601.545 450.589 601.745 450.555 601.943C450.521 602.14 450.477 602.336 450.423 602.531C450.369 602.724 450.306 602.914 450.233 603.101C450.161 603.289 450.079 603.473 449.988 603.652C449.898 603.831 449.798 604.005 449.691 604.175C449.582 604.344 449.466 604.508 449.342 604.666C447.534 606.941 445.465 607.441 442.705 607.834C441.998 607.889 441.326 607.932 440.617 607.907C437.833 607.809 435.094 607.175 433.218 604.951C431.966 603.469 431.567 601.621 431.877 599.725C432.432 596.326 434.74 594.851 437.392 593.121Z" fill="#FEFEFE"/>
<path d="M438.35 572.459C440.448 572.26 442.522 572.032 444.475 572.995C446.187 573.838 448.082 575.467 448.601 577.383C449.066 579.097 448.725 580.738 447.591 582.105C446.118 583.88 443.913 584.113 441.771 584.352C440.898 584.386 440.074 584.391 439.207 584.251C437.333 583.948 435.562 583.087 434.484 581.461C433.647 580.196 433.499 578.672 433.872 577.225C434.495 574.812 436.388 573.717 438.35 572.459Z" fill="#FEFEFE"/>
<path d="M332.829 558.662C334.976 558.665 335.787 558.496 337.678 559.592C338.28 561.389 338.883 562.839 339.918 564.433C340.983 564.855 342.029 565.32 343.056 565.828C346.551 567.586 349.749 570.475 350.828 574.371C351.418 576.504 351.423 577.406 350.39 579.297C345.642 580.631 339.324 574.792 334.931 573.051C332.875 573.214 331.08 573.426 329.529 574.925C327.923 576.476 327.685 577.028 327.662 579.225C331.083 584.532 340.296 585.701 345.663 588.782C349.12 590.767 352.213 593.716 353.123 597.733C356.221 611.412 343.28 611.505 338.812 618.365C338.719 618.505 338.255 619.28 338.135 619.425C336.651 621.197 335.391 620.963 333.276 621.091C327.896 612.453 326.403 616.873 320.672 610.729C318.418 608.313 316.938 606.238 317.081 602.864C318.046 601.463 318.738 600.683 320.401 600.147C327.136 597.973 327.164 604.867 332.063 606.887C334.18 607.76 336.669 607.62 338.747 606.698C340.543 605.9 342.131 604.438 342.665 602.504C342.716 602.317 342.758 602.127 342.789 601.936C342.821 601.745 342.844 601.552 342.857 601.359C342.87 601.165 342.873 600.972 342.865 600.777C342.859 600.584 342.842 600.391 342.816 600.198C342.79 600.006 342.754 599.816 342.709 599.627C342.663 599.439 342.608 599.253 342.544 599.07C342.48 598.887 342.407 598.707 342.325 598.532C342.243 598.356 342.152 598.185 342.052 598.019C339.81 594.199 331.91 593.189 327.916 591.981C324.286 590.882 320.634 588.739 318.93 585.208C317.301 581.828 317.136 576.657 318.436 573.128C320.325 568.001 325.557 566.432 330.154 564.51C331.214 563.754 332.271 560.013 332.829 558.662Z" fill="black"/>
<path d="M376.258 564.042C379.605 563.877 382.773 563.819 386.047 564.653C389.789 565.607 393.129 567.459 395.045 570.947C397.189 574.851 396.965 579.712 395.635 583.848C392.826 592.586 383.617 602.207 375.479 606.316C381.386 606.417 389.21 604.919 394.788 606.692C396.935 607.374 397.33 607.892 398.382 609.727C398.124 611.268 398.175 612.232 396.987 613.409C392.835 617.519 374.137 615.466 368.113 615.492C367.425 615.515 367.098 615.553 366.369 615.434C364.292 615.097 363.801 614.402 362.726 612.789C362.532 604.924 379.809 591.989 385.055 585.221C386.783 582.993 388.368 581.063 387.784 578.077C387.395 576.096 385.958 574.458 384.268 573.434C382.186 572.173 379.456 571.67 377.107 572.414C373.802 573.462 372.718 576.942 371.138 579.696C369.456 580.697 369.31 580.829 367.249 580.698C365.83 579.907 364.807 579.184 364.204 577.611C363.491 575.752 363.827 573.711 364.739 571.986C366.839 568.018 372.093 565.212 376.258 564.042Z" fill="black"/>
<path d="M407.917 603.911C408.011 603.881 408.104 603.853 408.199 603.828C408.294 603.802 408.389 603.779 408.484 603.758C408.58 603.737 408.676 603.718 408.772 603.702C408.868 603.685 408.965 603.671 409.062 603.659C409.16 603.647 409.257 603.638 409.355 603.631C409.453 603.624 409.55 603.618 409.648 603.615C409.746 603.613 409.844 603.613 409.942 603.615C410.04 603.617 410.137 603.621 410.235 603.629C410.333 603.635 410.43 603.644 410.527 603.656C410.625 603.667 410.722 603.68 410.818 603.696C410.915 603.712 411.011 603.731 411.106 603.751C411.202 603.771 411.298 603.794 411.393 603.82C411.487 603.845 411.581 603.872 411.674 603.902C411.767 603.931 411.86 603.963 411.952 603.997C412.044 604.031 412.134 604.067 412.224 604.105C412.315 604.143 412.404 604.184 412.492 604.226C412.58 604.269 412.667 604.314 412.753 604.361C412.839 604.407 412.924 604.456 413.008 604.507C413.092 604.557 413.174 604.61 413.255 604.664C413.337 604.719 413.417 604.776 413.495 604.835C413.573 604.893 413.65 604.953 413.726 605.016C413.801 605.078 413.875 605.142 413.948 605.207C414.021 605.273 414.092 605.34 414.161 605.409C414.231 605.478 414.298 605.549 414.364 605.621C414.431 605.693 414.495 605.767 414.557 605.842C414.619 605.918 414.68 605.994 414.739 606.073C414.798 606.151 414.855 606.231 414.911 606.311C414.965 606.392 415.018 606.475 415.07 606.559C415.12 606.642 415.169 606.727 415.217 606.812C415.264 606.898 415.309 606.985 415.351 607.073C415.395 607.161 415.435 607.25 415.474 607.34C415.513 607.43 415.55 607.52 415.584 607.612C415.618 607.703 415.65 607.795 415.681 607.889C415.711 607.982 415.739 608.075 415.764 608.17C415.789 608.265 415.813 608.36 415.834 608.456C415.855 608.551 415.874 608.647 415.89 608.743C415.906 608.84 415.92 608.938 415.932 609.035C415.944 609.132 415.954 609.229 415.961 609.326C415.968 609.424 415.973 609.522 415.976 609.62C415.978 609.717 415.978 609.815 415.976 609.913C415.974 610.011 415.97 610.109 415.962 610.207C415.956 610.304 415.947 610.401 415.935 610.498C415.924 610.595 415.91 610.692 415.894 610.789C415.878 610.886 415.86 610.982 415.839 611.077C415.818 611.173 415.795 611.269 415.77 611.362C415.746 611.457 415.718 611.551 415.688 611.644C415.659 611.738 415.627 611.831 415.593 611.922C415.559 612.014 415.523 612.105 415.485 612.195C415.446 612.285 415.406 612.374 415.364 612.462C415.32 612.55 415.275 612.637 415.229 612.723C415.182 612.809 415.134 612.894 415.083 612.978C415.032 613.062 414.979 613.144 414.924 613.225C414.869 613.307 414.813 613.387 414.755 613.465C414.696 613.543 414.636 613.62 414.574 613.695C414.512 613.771 414.448 613.845 414.382 613.918C414.316 613.991 414.249 614.062 414.18 614.131C414.11 614.2 414.039 614.268 413.968 614.333C413.895 614.399 413.821 614.464 413.746 614.527C413.671 614.589 413.594 614.649 413.516 614.708C413.437 614.767 413.358 614.824 413.277 614.879C413.196 614.934 413.114 614.987 413.03 615.038C412.946 615.089 412.862 615.138 412.776 615.185C412.69 615.232 412.604 615.277 412.515 615.32C412.427 615.363 412.338 615.404 412.248 615.442C411.994 615.552 411.733 615.644 411.465 615.719C411.198 615.793 410.927 615.849 410.652 615.887C410.377 615.925 410.1 615.944 409.823 615.944C409.545 615.945 409.269 615.927 408.994 615.891C408.719 615.854 408.447 615.799 408.179 615.725C407.912 615.652 407.65 615.561 407.395 615.452C407.139 615.344 406.892 615.218 406.654 615.076C406.415 614.934 406.188 614.777 405.971 614.604C405.753 614.431 405.549 614.244 405.357 614.044C405.165 613.843 404.988 613.631 404.824 613.406C404.661 613.182 404.513 612.947 404.381 612.703C404.25 612.459 404.135 612.207 404.038 611.947C403.94 611.687 403.86 611.422 403.798 611.151C403.737 610.88 403.694 610.607 403.668 610.33C403.644 610.054 403.638 609.778 403.651 609.5C403.664 609.222 403.695 608.947 403.744 608.675C403.794 608.402 403.862 608.133 403.948 607.869C404.034 607.605 404.137 607.349 404.257 607.099C404.378 606.849 404.515 606.608 404.669 606.376C404.822 606.145 404.989 605.925 405.172 605.716C405.355 605.507 405.551 605.312 405.761 605.13C405.97 604.948 406.191 604.78 406.422 604.628C406.654 604.475 406.895 604.339 407.146 604.219C407.396 604.099 407.653 603.996 407.917 603.911Z" fill="black"/>
<path d="M477.563 724.006C482.435 723.652 487.101 724.367 491.044 727.454C496.542 731.755 499.174 738.573 499.848 745.359C500.668 753.639 499.346 763.161 493.823 769.713C490.284 773.903 486.415 775.292 481.162 775.773C477.862 776.054 474.416 775.472 471.518 773.82C466.178 770.777 463.173 765.285 461.655 759.5C459.407 750.936 459.927 740.737 464.625 733.05C467.792 727.866 471.716 725.367 477.563 724.006Z" fill="black"/>
<path d="M477.462 732.422C479.464 732.169 481.284 731.957 483.182 732.81C485.986 734.074 487.725 736.703 488.766 739.506C491.129 745.911 490.884 755.43 487.884 761.6C486.439 764.566 484.578 766.086 481.504 767.139C480.966 767.286 480.611 767.418 480.072 767.461C478.242 767.61 475.779 766.454 474.526 765.14C470.88 761.319 470.474 753.403 470.692 748.444C470.992 741.618 472.339 737.1 477.462 732.422Z" fill="#FEFEFE"/>
<path d="M338.67 718.628C340.682 718.327 341.352 718.111 343.301 718.835C347.549 724.437 357.183 728.597 358.167 736.068C357.687 737.026 357.698 737.552 356.657 737.997C353.41 739.388 347.738 736.212 344.64 735.164C341.186 733.997 338.22 732.955 334.79 734.674C333.896 736.319 333.907 737.494 334.24 739.341C335.295 745.179 348.953 745.942 353.576 749.413C355.849 751.119 357.994 752.771 359.519 755.228C360.817 757.319 361.355 759.758 360.761 762.165C358.927 769.611 352.659 773.313 346.565 777.019C346.311 778.47 346.073 779.389 345.327 780.694C343.177 781.929 341.645 781.672 339.272 781.434C336.78 774.425 331.403 775.752 326.766 770.827C324.844 768.786 323.134 765.619 323.195 762.753C323.964 761.68 324.518 761.241 325.789 760.808C334.142 757.965 334.106 765.236 340.191 767.711C341.792 768.361 343.344 768.227 344.886 767.494C346.657 766.653 348.639 765.066 349.279 763.152C349.772 761.683 349.615 759.813 348.885 758.446C346.92 754.774 339.498 753.742 335.808 752.648C331.621 751.407 327.328 749.533 325.293 745.366C323.673 742.048 323.514 736.711 324.901 733.27C327.411 727.038 330.753 727.45 335.788 724.706C337.822 723.597 338.069 720.692 338.67 718.628Z" fill="black"/>
<path d="M382.166 724.766C384.407 724.248 387.142 723.56 389.189 724.837C389.376 726.046 389.532 727.258 389.579 728.48C389.924 737.628 392 770.438 386.613 776.284C385.243 776.662 384.887 776.957 383.565 776.304C381.956 775.506 380.292 774.264 379.692 772.526C379.304 771.398 378.835 770.3 378.4 769.188C378.464 769.06 378.525 768.928 378.591 768.801C381.44 763.311 379.82 743.746 378.958 737.233C377.551 738.003 375.72 739.092 374.107 739.268C372.14 739.482 371.029 739.107 369.451 738.047C369.267 737.343 369.045 736.619 369.061 735.881C369.178 730.467 378.16 728.614 381.52 725.405C381.74 725.196 381.95 724.979 382.166 724.766Z" fill="black"/>
<path d="M402.16 764.557C403.544 764.45 405.302 764.227 406.656 764.59C408.163 764.992 409.64 766.526 410.289 767.903C411.05 769.521 411.139 771.434 410.311 773.051C409.238 775.148 407.783 775.304 405.711 775.917C405.622 775.953 405.536 776.002 405.443 776.023C403.696 776.418 402.572 775.998 401.06 775.174C400.01 773.617 399.504 772.315 399.525 770.403C399.556 767.718 400.38 766.334 402.16 764.557Z" fill="black"/>
<path d="M430.765 723.992C433.455 723.602 436.23 723.351 438.938 723.738C443.689 724.416 448.641 727.308 451.44 731.21C453.069 733.478 453.93 736.049 453.324 738.832C452.542 742.422 449.54 745.475 446.549 747.38C447.637 747.9 448.748 748.433 449.753 749.107C452.555 750.982 454.608 754.249 455.066 757.59C455.577 761.313 454.286 764.984 452.066 767.94C448.622 772.527 444.3 774.167 438.774 774.919C438.329 775.039 438.24 775.074 437.716 775.14C432.079 775.859 425.987 774.739 421.586 770.969C421.221 770.661 420.872 770.335 420.539 769.991C420.207 769.648 419.893 769.288 419.598 768.911C419.303 768.535 419.028 768.145 418.774 767.741C418.518 767.336 418.285 766.919 418.073 766.491C417.861 766.062 417.672 765.624 417.505 765.175C417.339 764.727 417.196 764.272 417.077 763.809C416.957 763.346 416.861 762.878 416.79 762.406C416.718 761.933 416.671 761.458 416.649 760.98C416.368 754.723 419.454 752.169 423.505 747.888C423.383 744.995 420.282 742.042 419.173 739.196C418.34 737.061 417.989 734.463 419.063 732.345C421.253 728.019 426.433 725.516 430.765 723.992Z" fill="black"/>
<path d="M432.078 752.304C435.333 751.84 438.452 751.6 441.341 753.476C443.278 754.732 444.977 756.995 445.282 759.327C445.308 759.526 445.323 759.726 445.328 759.926C445.333 760.127 445.329 760.328 445.314 760.529C445.3 760.729 445.275 760.928 445.241 761.126C445.206 761.324 445.162 761.52 445.109 761.714C445.055 761.908 444.991 762.098 444.919 762.285C444.846 762.473 444.764 762.656 444.674 762.836C444.583 763.015 444.484 763.189 444.376 763.359C444.268 763.528 444.151 763.691 444.027 763.85C442.22 766.125 440.151 766.624 437.391 767.018C436.684 767.073 436.012 767.115 435.303 767.091C432.518 766.993 429.779 766.359 427.903 764.135C426.652 762.652 426.253 760.804 426.562 758.909C427.117 755.51 429.425 754.034 432.078 752.304Z" fill="#FEFEFE"/>
<path d="M433.035 731.644C435.132 731.444 437.206 731.216 439.16 732.179C440.871 733.022 442.767 734.651 443.286 736.567C443.75 738.282 443.41 739.922 442.276 741.289C440.803 743.064 438.597 743.297 436.456 743.536C435.583 743.57 434.759 743.575 433.892 743.435C432.017 743.132 430.247 742.271 429.169 740.645C428.331 739.38 428.183 737.857 428.557 736.409C429.18 733.996 431.073 732.901 433.035 731.644Z" fill="#FEFEFE"/>
</svg>
