<svg width="1024" height="1024" viewBox="0 0 1024 1024" fill="none" xmlns="http://www.w3.org/2000/svg">
<g clip-path="url(#clip0_16_429)">
<path d="M0 0H1024V1024H0V0Z" fill="#FEFEFE"/>
<path d="M544.124 260.922C544.565 261.199 545.439 261.769 545.756 262.23C546.193 262.866 546.589 263.621 546.496 264.409C546.227 266.699 543.983 268.056 542.311 269.363C541.218 269.052 540.793 268.823 540.04 267.968C539.806 267.165 539.62 266.535 539.862 265.694C540.504 263.455 542.243 262.091 544.124 260.922Z" fill="#231F20"/>
<path d="M544.659 952.022C545.23 951.973 546.137 951.823 546.727 951.919C548.111 952.144 548.238 952.39 548.938 953.484C548.898 954.14 548.926 954.298 548.679 954.989C547.805 957.441 545.082 958.957 542.775 959.644C541.435 959.602 540.127 959.417 539.158 958.405C538.573 957.795 538.766 957.446 538.759 956.658C540.262 954.012 541.845 953.097 544.659 952.022Z" fill="#231F20"/>
<path d="M72.8109 403.268C73.4564 403.778 73.5448 403.62 73.6453 404.314C74.0811 407.324 69.7018 421.859 67.7649 424.092C67.1514 423.46 66.7116 422.885 66.2114 422.168C65.2434 416.042 69.7826 408.401 72.8109 403.268Z" fill="#231F20"/>
<path d="M108.294 525.814L109.616 526.961C110.164 530.39 106.216 539.196 105.118 543.129L104.055 543.633C102.944 542.47 101.645 541.022 101.51 539.345C101.131 534.646 105.344 529.16 108.294 525.814Z" fill="#231F20"/>
<path d="M141.142 572.849L141.593 573.431C142.083 579.654 140.861 587.927 138.478 593.705C137.61 595.81 136.834 596.752 134.72 597.594C134.123 596.466 133.662 595.587 133.649 594.27C133.602 589.727 139.749 578.749 141.142 572.849Z" fill="#231F20"/>
<path d="M128.863 545.145L130.062 545.858C130.614 549.233 125.63 564.923 124.554 569.205C124.11 570.971 123.728 571.383 122.164 572.313C121.333 571.712 120.206 571.021 119.913 570.002C118.318 564.458 126.398 550.254 128.863 545.145Z" fill="#231F20"/>
<path d="M352.685 707.52C353.502 707.485 354.319 707.47 355.136 707.473C357.308 707.496 359.702 708.208 361.155 709.942C362.1 711.071 362.415 711.98 362.274 713.452C362.066 715.636 360.335 716.999 358.8 718.323C356.215 718.752 354.139 718.95 351.93 717.305C350.62 716.329 349.791 714.938 349.697 713.288C349.552 710.733 351.024 709.178 352.685 707.52Z" fill="#231F20"/>
<path d="M94.5679 238.462C95.087 238.395 95.6009 238.365 96.1247 238.363C98.8337 238.358 101.033 239.496 102.871 241.49C103.916 242.624 104.67 244.079 104.473 245.668C104.235 247.595 102.833 248.488 101.342 249.426C100.022 249.745 98.5776 249.884 97.2224 249.702C95.4854 249.468 93.2825 248.161 92.2861 246.71C91.3813 245.392 91.0498 244.073 91.3456 242.51C91.7402 240.424 92.9368 239.629 94.5679 238.462Z" fill="#231F20"/>
<path d="M412.709 167.298C413.07 167.301 413.471 167.292 413.824 167.361C415.277 167.646 415.356 167.93 416.139 169.105C416.614 171.855 415.611 174.808 415.015 177.501C416.384 178.584 417.92 179.398 419.301 180.457C420.719 181.545 422 183.777 422.142 185.543C422.213 186.431 421.869 186.514 421.334 187.132C418.202 188.152 415.676 187.188 412.727 186.129C411.484 190.178 410.398 193.577 407.539 196.848C405.875 196.541 405.196 196.57 403.897 195.439C402.784 192.041 405.725 186.849 406.836 183.435C405.86 183.228 404.889 182.999 403.924 182.747C401.39 182.093 400.071 181.681 398.697 179.341C398.667 178.15 398.527 177.608 399.567 176.774C402.023 174.807 405.754 175.947 408.538 176.43L412.709 167.298Z" fill="#FABD1C"/>
<path d="M947.113 572.563C949.04 572.342 951.058 572.188 952.977 572.557C955.851 573.11 958.718 574.767 960.218 577.342C960.357 577.581 960.484 577.825 960.599 578.076C960.714 578.327 960.815 578.584 960.904 578.846C960.993 579.107 961.068 579.373 961.13 579.642C961.191 579.912 961.239 580.183 961.273 580.457C961.307 580.731 961.327 581.006 961.334 581.282C961.34 581.558 961.332 581.834 961.31 582.109C961.288 582.384 961.252 582.658 961.202 582.93C961.153 583.201 961.089 583.47 961.012 583.735C959.871 587.692 956.656 589.915 953.199 591.758C950.575 592.33 948.442 592.592 945.847 591.729C943.184 590.842 940.927 588.969 939.728 586.412C939.587 586.118 939.463 585.817 939.354 585.51C939.245 585.203 939.153 584.89 939.077 584.573C939.001 584.256 938.942 583.935 938.899 583.612C938.857 583.289 938.832 582.965 938.824 582.639C938.815 582.313 938.824 581.987 938.85 581.662C938.877 581.337 938.92 581.015 938.98 580.694C939.04 580.373 939.117 580.057 939.21 579.745C939.303 579.432 939.413 579.126 939.538 578.825C940.997 575.334 943.733 573.834 947.113 572.563Z" fill="#231F20"/>
<path d="M946.453 579.863C948.659 579.849 951.226 579.478 953.109 580.695C953.452 582.152 953.247 582.439 952.736 583.873C950.936 584.332 949.048 584.854 947.345 583.894C946.316 582.538 946.433 581.475 946.453 579.863Z" fill="#FEFEFE"/>
<path d="M185.078 207.465C187.09 207.335 189.475 207.665 191.382 208.323C194.524 209.406 197.201 211.788 198.488 214.869C199.513 217.323 199.672 220.219 198.564 222.674C196.677 226.859 192.901 228.191 188.884 229.615C185.779 230.009 181.934 230.226 179.037 228.842C175.649 227.225 174.594 224.61 173.465 221.257C173.844 219.909 174.257 218.571 174.703 217.244C176.415 212.303 180.641 209.667 185.078 207.465Z" fill="#231F20"/>
<path d="M185.503 215.008C186.529 214.969 187.55 214.981 188.56 215.2C189.972 215.505 191.595 216.446 192.205 217.809C192.708 218.934 192.572 220.072 191.959 221.124C191.083 222.63 189.254 223.127 187.719 223.661C186.173 223.843 184.448 224.127 182.942 223.579C181.687 223.121 181.154 222.399 180.562 221.268C180.461 220.363 180.39 219.697 180.795 218.836C181.73 216.85 183.612 215.883 185.503 215.008Z" fill="#FEFEFE"/>
<path d="M839.879 825.783L841.208 826.133C841.806 826.702 842.198 826.891 842.412 827.737C843.556 832.279 836.322 842.495 834.218 846.535C837.879 848.367 846.111 851.931 847.848 855.801C848.346 856.91 848.342 857.103 847.906 858.209C847.422 858.691 846.986 859.011 846.344 859.262C840.923 861.384 834.556 856.734 829.574 854.623C827.076 859.945 824.291 864.873 820.914 869.691C820.659 870.044 820.353 870.502 820.035 870.79C818.871 871.843 818.365 871.769 816.883 871.78C815.564 870.978 815.481 870.931 814.878 869.518C815.031 865.997 821.1 855.31 822.895 851.336C819.673 850.174 815.822 850.182 812.792 848.818C811.682 848.318 810.925 847.581 810.564 846.395C810.163 845.075 810.697 844.244 811.427 843.234C815.762 841.046 822.689 842.547 827.364 843.152C830.605 837.191 833.804 829.235 839.879 825.783Z" fill="#FABD1C"/>
<path d="M315.967 90.7612C317.786 90.9597 319.616 91.1991 320.677 92.9272C322.858 96.4802 318.695 104.697 317.864 108.709C322.049 107.925 326.835 106.57 331.028 107.808C332.519 108.248 333.446 108.849 334.215 110.243C334.079 110.958 334.106 111.324 333.618 111.912C330.755 115.36 325.14 115.623 321.05 116.247C323.011 118.232 327.117 121.496 327.577 124.369C327.794 125.721 327.555 127.182 326.698 128.277C326.188 128.93 325.689 128.8 324.926 128.917C320.81 127.498 317.599 122.179 314.566 119.078C311.566 123.752 310.396 129.357 307.597 134.041C306.911 135.189 305.805 136.195 304.419 136.354C303.259 136.487 303.079 136.365 302.278 135.567C300.926 131.179 305.312 123.661 307.212 119.62C304.641 119.697 301.986 119.826 299.607 118.682C298.104 117.96 297.372 117.154 296.805 115.615C297.077 114.592 297.426 113.97 298.291 113.318C301.858 110.63 306.05 111.464 310.164 111.834C311.015 105.531 311.487 95.4648 315.967 90.7612Z" fill="#FABD1C"/>
<path d="M241.142 817.245C242.695 817.791 244.358 818.242 245.21 819.782C246.022 821.248 239.297 834.973 238.429 837.965C233.472 855.045 238.279 875.593 246.834 890.799C253.354 902.386 263.817 914.478 276.674 919.133C279.432 920.132 282.558 920.084 285.417 920.88L285.813 921.668L284.977 922.544C282.538 922.622 279.822 923.025 277.426 922.862C269.117 922.296 258.801 913.36 253.478 907.513C239.121 891.738 229.327 867.189 230.469 845.727C230.989 835.97 233.614 824.078 241.142 817.245Z" fill="#231F20"/>
<path d="M907.364 221.401C908.244 222.161 908.352 222.38 908.76 223.477C907.788 228.941 898.457 240.497 895.574 246.492L895.277 247.118C902.238 247.259 911.786 244.735 918.199 245.975C919.599 246.246 920.728 247.233 921.381 248.47C921.812 249.286 921.53 249.442 921.255 250.242C917.104 253.242 903.522 253.139 897.982 253.497C900.518 258.829 904.715 263.507 907.06 268.807C907.671 270.186 907.593 272.536 907.007 273.916C906.673 274.703 906.346 274.564 905.604 274.779C900.368 272.59 896.045 264.432 892.943 259.79L891.832 258.554L891.07 258.574C887.264 262.041 888.043 269.797 885.179 273.972C884.341 275.193 883.207 275.647 881.823 275.943C880.963 275.505 880.976 275.732 880.691 274.927C878.894 269.853 883.509 258.075 885.355 252.926C881.041 251.136 876.174 249.913 872.099 247.652C870.339 246.675 869.327 245.752 868.786 243.766C869.033 242.352 869.05 242.12 869.997 241.063C870.502 240.961 870.998 240.737 871.514 240.759C872.875 240.816 876.301 242.77 877.752 243.33C881.285 244.694 885.038 245.561 888.703 246.497C892.746 237.96 898.517 225.525 907.364 221.401Z" fill="#FABD1C"/>
<path d="M728.578 48.757C737.905 49.1372 753.544 53.9259 761.931 57.6439C769.861 61.1595 776.912 66.1078 783.921 71.151C790.29 75.7332 796.561 80.3126 802.324 85.6619C819.313 101.431 834.533 123.339 842.842 145.046C846.799 155.381 849.497 162.092 843.542 172.396C841.703 175.58 839.64 178.66 838.158 182.032C838.086 182.197 838.018 182.363 837.947 182.529L837.193 182.786L835.217 181.5C834.094 177.236 844.197 168.664 841.857 157.53C837.282 135.77 818.176 108.154 802.68 92.4989C792.245 81.9555 776.779 70.1525 763.386 63.7733C758.626 61.5063 753.506 59.383 748.454 57.8664C742.461 56.0674 734.53 55.3574 729.243 52.0516C728.51 50.7019 728.554 50.3152 728.578 48.757Z" fill="#231F20"/>
<path d="M124.949 689.068C128.777 689.386 131.686 690.084 134.889 692.295C142.007 697.208 147.424 706.881 148.761 715.36C149.251 718.472 149.013 721.693 147.041 724.274C144.646 727.409 141.597 727.926 137.958 728.53C132.234 728.642 126.117 728.686 120.666 726.674C117.68 725.572 115.244 723.89 113.997 720.869C111.428 714.647 114.296 704.182 116.798 698.202C118.584 693.933 120.601 690.891 124.949 689.068Z" fill="#231F20"/>
<path d="M125.124 695.49C127.381 695.332 128.855 695.545 130.833 696.686C136.314 699.845 141.19 707.259 142.788 713.366C143.393 715.681 143.545 718.672 142.059 720.712C140.777 722.471 138.562 722.556 136.587 722.867C131.803 723.245 124.157 722.687 120.175 719.8C118.999 718.947 118.562 717.994 118.419 716.56C117.848 710.827 121.413 699.839 125.124 695.49Z" fill="#FEFEFE"/>
<path d="M724.816 79.4882C725.218 79.4594 725.621 79.4183 726.024 79.4535C729.141 79.7258 730.756 82.7493 732.593 84.9904C736.486 89.7394 740.925 93.2647 745.75 97.0056C747.841 98.6272 751.101 100.543 752.638 102.597C753.119 103.24 752.848 103.715 752.757 104.463C748.965 110.425 722.288 123.543 714.87 127.844C707.848 131.992 700.89 136.246 693.997 140.605C678.92 149.949 664.354 160.17 649.521 169.89C631.841 181.476 613.909 192.692 596.064 204.024C584.123 211.606 572.606 219.499 560.184 226.336C559.487 226.755 558.756 226.999 557.999 227.289C556.97 227.139 556.155 226.899 555.26 226.375C548.69 222.528 544.78 214.738 539.654 209.34C537.997 207.595 535.715 206.488 534.238 204.613C533.773 204.024 533.595 203.391 533.424 202.677C534.003 200.815 537.739 199.928 539.584 199.222C546.848 196.442 553.682 191.081 560.047 186.641C567.817 181.219 575.359 175.501 583.23 170.218C591.509 164.661 600.177 159.693 608.541 154.261C624.661 143.791 640.675 133.101 656.992 122.929C670.944 114.232 685.226 105.962 699.251 97.3588C708.147 91.9017 715.832 84.7461 724.816 79.4882Z" fill="#231F20"/>
<path d="M730.568 93.8809C731.112 94.0979 730.915 93.9648 731.361 94.3692C735.126 97.7789 738.825 100.835 743.03 103.703C737.105 106.633 731.561 110.497 725.787 113.739C699.051 128.75 673.594 145.294 647.997 162.157L557.443 221.259C554.071 217.412 550.9 213.361 547.66 209.401C545.911 207.461 544.079 205.583 542.287 203.682C550.047 199.901 557.349 194.404 564.587 189.667C560.933 194.147 556.72 197.548 553.713 202.61C557.376 201.004 560.582 198.601 564.011 196.568L586.029 183.442L627.611 158.271C639.263 151.277 651.108 144.568 662.64 137.379C670.054 132.757 677.19 127.72 684.568 123.048C699.015 113.901 717.834 104.771 730.568 93.8809Z" fill="#FEFEFE"/>
<path d="M768.157 126.524C769.953 126.377 772.161 126.017 773.562 127.389C775.457 129.242 777.169 132.32 778.882 134.442C782.596 139.042 791.679 146.498 792.186 152.412C789.439 157.619 746.896 182.742 738.77 187.929C722.506 198.311 706.573 209.208 690.252 219.499C672.178 230.896 653.684 241.741 635.785 253.402C624.058 261.042 611.132 270.039 599.963 278.504C599.073 278.79 598.101 279.156 597.15 279.117C594.797 279.021 592.538 276.957 590.989 275.38C586.018 270.318 576.738 258.439 576.665 251.536C577.543 249.294 591.709 242.64 594.891 240.862C599.831 238.101 604.408 234.373 609.01 231.086C614.193 227.384 619.522 223.895 624.713 220.206C641.998 207.78 659.75 196.062 677.969 185.052C688.374 178.632 699.064 172.665 709.35 166.049C723.03 157.248 735.691 146.808 749.175 137.688C755.292 133.55 761.819 130.283 768.157 126.524Z" fill="#231F20"/>
<path d="M771.647 137.237C772.048 137.309 772.597 137.628 772.974 137.798C775.622 142.815 780.018 147.009 783.843 151.153C768.488 161.023 752.775 170.363 737.479 180.299C724.179 188.938 711.327 198.257 697.907 206.731C671.461 223.432 644.312 238.685 618.721 256.711C611.531 261.775 603.686 266.362 598.088 273.24C595.102 268.643 591.741 264.252 588.531 259.809C586.418 257.423 584.363 254.988 582.368 252.503C591.828 248.714 600.139 243.779 608.979 238.826C605.663 242.113 601.995 245.025 598.699 248.341L599.646 248.634C606.279 247.18 616.583 239.639 622.86 235.97C647.806 221.485 672.339 206.33 696.458 190.507C714.02 179.134 731.4 167.788 748.176 155.253C755.99 149.414 764.577 143.97 771.647 137.237Z" fill="#FEFEFE"/>
<path d="M484.016 182.864C509.538 170.008 532.915 154.442 557.347 139.756L660.267 78.5342L698.316 55.6612C702.318 53.2783 706.168 50.5462 710.304 48.4041C711.919 47.5673 713.584 46.6254 715.449 47.0821C715.993 48.174 715.955 48.1873 715.691 49.3868C710.892 55.0623 692.062 64.8063 684.399 69.3707C672.446 76.4911 660.892 84.2175 648.876 91.2351C637.668 97.781 626.021 103.585 614.936 110.322C591.732 124.422 568.455 138.592 545.481 153.07C528.611 163.702 507.328 178.702 489.252 186.155C487.303 197.137 484.49 208.091 484.595 219.337C484.728 233.431 496.558 257.08 504.758 268.691C508.774 274.378 513.824 279.269 518.743 284.166C534.128 299.481 550.232 312.668 572.389 316.389C576.959 317.156 581.831 317.618 586.435 316.865C591.598 316.02 598.829 310.857 603.489 314.37C605.135 317.416 603.801 321.863 602.865 325.012C599.93 334.893 596.936 344.842 593.785 354.652C601.195 349.58 607.976 343.672 612.819 335.998C615.179 331.642 618.623 327.435 620.23 322.749C619.469 321.541 618.951 320.734 618.852 319.259C619.177 318.392 619.46 318.084 620.199 317.515C630.564 309.539 644.624 301.586 655.79 294.265L727.744 246.77L777.674 213.578C787.509 206.923 797.263 198.615 808.06 193.639C810.677 192.433 813.489 192.77 816.263 193.024C817.475 190.381 819.725 185.546 822.591 184.505C823.348 184.229 823.944 184.066 824.657 184.489C826.367 185.503 827.003 187.712 827.3 189.558C828.262 195.539 827.272 211.545 823.789 216.485C793.321 227.633 767.92 248.057 740.891 265.43C749.523 266.107 758.177 266.925 766.824 267.35C790.71 268.523 805.116 268.973 827.507 279.486C841.964 286.275 853.213 295.158 863.533 307.231C868.066 312.534 873.197 317.859 876.607 323.965C883.402 336.132 887.182 367.122 887.732 381.172C887.985 387.651 887.344 394.128 887.756 400.609C897.084 403.506 904.7 407.841 909.347 416.78C911.932 421.752 913.153 427.036 913.801 432.577C915.098 443.671 914.993 455.156 915.377 466.327L917.174 518.814L920.7 619.841C921.433 644.659 921.33 669.633 922.828 694.418C939.661 675.184 949.039 655.221 955.73 630.816C957.881 622.971 959.273 614.836 962.188 607.224C960.438 642.047 947.696 679.78 922.571 704.772C922.644 712.714 922.839 720.653 923.157 728.589C923.336 734.16 924.11 740.489 922.985 745.974C922.307 749.281 920.562 752.36 918.176 754.733C912.331 760.547 903.94 761.794 896.07 761.587C886.491 761.335 870.238 760.065 861.073 762.177C856.899 776.434 848.816 787.687 835.691 794.934C819.71 803.759 799.711 804.402 781.89 803.561C776.81 803.321 771.362 803.211 766.442 801.837C764.591 801.32 761.832 800.479 760.716 798.781C760.062 797.787 760.036 796.67 760.427 795.57C760.889 794.272 761.839 793.377 763.124 792.925C767.845 791.263 775.988 794.244 780.859 794.974C803.978 798.439 834.984 798.616 847.875 774.883C849.677 771.567 851.672 767.688 852.122 763.912L851.698 762.82C847.018 761.805 832.616 763.813 827.138 764.149C814.449 764.927 801.694 764.576 788.989 765.004C778.258 765.366 766.955 766.778 756.291 766.048C752.376 765.779 749.236 765.146 745.7 763.333C736.323 767.933 725.557 772.909 715.284 774.825C723.86 789.069 731.419 803.701 739.346 818.304C743.198 825.4 747.545 832.211 751.495 839.251C755.615 846.594 759.323 854.172 763.417 861.535L781.242 893.029C784.222 898.332 788.251 903.632 789.648 909.61C787.962 915.469 778.233 935.968 773.03 938.606C771.137 939.566 768.741 939.807 766.649 939.89C759.785 940.164 752.751 939.098 745.866 938.935C736.486 938.713 727.043 939.326 717.663 939.546C677.398 940.741 637.147 942.317 596.911 944.276C575.021 945.243 553.07 945.474 531.21 947.127C527.402 950.509 513.312 963.805 508.835 963.68C508.043 963.658 507.838 963.247 507.287 962.758C507.247 961.507 507.169 961.173 508.116 960.202C509.323 958.965 511.549 957.97 512.995 956.942C516.916 954.152 520.856 950.762 524.065 947.171C517.045 947.017 510.054 946.968 503.045 947.511C498.631 950.601 479.757 966.853 475.573 965.8C475.403 965.757 475.246 965.677 475.082 965.616C474.809 964.845 474.602 964.773 474.961 963.943C475.345 963.052 475.811 962.42 476.545 961.797C478.541 960.102 481.09 958.935 483.224 957.389C487.552 954.252 491.732 950.855 495.969 947.594C489.769 948.073 483.602 947.731 477.4 947.881C473.35 950.585 447.376 967.065 443.494 967.443C442.985 967.492 442.483 967.294 441.978 967.22C441.363 966.621 441.125 966.57 440.936 965.704C446.964 960.252 462.002 953.804 469.686 948.807C461.259 948.708 452.841 948.987 444.416 948.988C438.295 948.988 431.669 948.465 425.617 949.207C424.144 949.387 423.135 949.755 421.829 950.446C413.343 954.935 406.293 961.987 397.481 966.03C396.105 966.662 394.615 967.416 393.094 966.908L392.602 966.033C393.101 964.566 412.604 951.756 415.221 949.87C398.357 950.236 354.244 952.512 339.799 947.462C333.609 945.298 328.886 941.423 324.199 936.933C319.115 932.063 314.826 926.673 310.12 921.483C307.238 918.303 303.683 915.289 301.302 911.725C294.888 902.125 290.301 889.596 285.862 878.971C275.774 854.825 266.396 836.704 265.998 809.512C265.785 794.958 268.582 767.823 279.499 756.907C285.242 751.165 296.538 750.34 304.213 749.622C322.685 747.893 341.23 748.42 359.749 747.976L493.884 745.58L626.351 743.167C639.274 742.891 652.226 742.768 665.143 742.291C671.511 742.056 677.965 741.246 684.331 741.399C690.283 741.543 695.292 743.01 699.404 747.528C704.06 752.645 707.215 759.767 711.075 765.553C719.946 761.493 730.222 758.998 739.912 757.725C737.188 752.951 734.254 748.175 733.181 742.707C731.749 735.414 733.384 727.855 733.299 720.489C733.067 700.349 732.595 679.999 731.469 659.892C714.518 661.537 697.355 661.613 680.335 661.977C669.979 662.199 656.699 662.157 646.721 664.234C640.396 665.55 634.638 668.235 628.598 670.392C625.755 671.408 622.924 672.368 620.337 670.233C618.651 668.84 617.545 666.511 617.489 664.329C617.461 663.246 617.796 662.539 618.276 661.592C614.579 660.276 583.395 662.469 576.459 662.787L456.059 667.603C425.528 668.785 377.254 673.559 348.497 666.403C348.326 666.483 348.154 666.56 347.983 666.643C343.831 668.653 340.342 671.707 336.269 673.829C327.13 678.591 317.205 682.315 307.71 686.3C291.024 693.305 264.566 705.368 247.219 707.637C245.933 707.806 244.643 707.939 243.349 708.034C242.056 708.129 240.76 708.187 239.463 708.207C238.166 708.227 236.87 708.21 235.574 708.156C234.277 708.101 232.984 708.009 231.693 707.88C230.402 707.751 229.116 707.584 227.835 707.381C226.554 707.177 225.28 706.937 224.013 706.66C222.746 706.383 221.487 706.069 220.238 705.719C218.989 705.37 217.751 704.984 216.524 704.563C201.827 699.673 191.462 690.732 184.609 676.873C177.866 663.234 172.71 649.033 167.376 634.808C162.726 622.407 157.794 610.097 153.26 597.657C149.519 587.392 146.151 576.962 142.25 566.761C140.101 561.142 137.555 555.68 135.413 550.06C129.523 534.605 123.729 519.072 117.456 503.766C113.478 494.061 108.71 484.568 105.347 474.634C103.463 479.959 97.0537 501.751 94.1741 504.794L93.4521 504.865C92.4622 503.895 91.9004 502.651 91.9356 501.25C92.009 498.327 101.351 475.495 103.305 471.842C103.574 471.339 103.833 470.832 104.105 470.33C101.317 462.634 98.8697 454.271 95.3133 446.926C92.3604 458.073 88.3357 468.846 84.5421 479.726C83.3148 483.246 82.4262 487.562 80.8172 490.853C80.3287 491.853 79.701 492.437 78.7743 493.017L77.8844 492.786C76.8169 490.05 90.3493 451.786 92.5308 446.857C92.9906 445.81 93.5034 444.789 94.0692 443.795C91.7416 435.73 88.0588 428.127 85.3987 420.166C83.4831 424.403 73.3255 449.94 71.5609 451.891L70.7997 451.614C68.4978 444.982 81.0921 422.886 83.3762 415.388C76.6049 397.57 67.3096 376.184 75.8702 357.392C83.3457 340.983 101.264 335.537 116.657 329.269L143.122 318.193C147.312 316.427 152.906 314.812 156.577 312.261C157.837 311.384 158.298 305.008 158.842 302.979C161.997 291.221 166.511 278.988 173.005 268.687C186.756 246.875 211.414 230.8 235.352 222.124C248.219 217.461 277.106 210.574 289.747 216.387C293.142 217.948 296.718 220.75 297.951 224.407C298.314 225.486 298.329 226.232 298.02 227.312C296.952 228.246 296.706 228.171 295.27 228.321C291.169 226.767 288.906 222.257 284.477 220.787C282.004 219.965 278.832 220.364 276.235 220.412C274.246 220.442 272.258 220.521 270.272 220.65C268.287 220.779 266.306 220.957 264.329 221.184C262.352 221.411 260.383 221.688 258.42 222.014C256.457 222.339 254.503 222.713 252.559 223.136C250.614 223.559 248.682 224.03 246.761 224.549C244.84 225.068 242.934 225.634 241.041 226.248C239.148 226.862 237.272 227.523 235.412 228.23C233.552 228.937 231.711 229.69 229.889 230.489C206.085 241.121 184.89 257.355 175.371 282.499C172.121 291.083 170.047 299.819 168.901 308.914C181.15 304.162 210.838 294.553 223.002 294.635C227.793 294.667 232.892 295.954 237.26 297.888C245.383 301.486 252.54 308.423 257.933 315.348C258.128 305.047 259.582 296.05 267.321 288.515C280.513 275.671 302.066 276.463 319.192 276.298C326.648 276.226 334.11 275.993 341.563 275.985C338.901 271.302 337.764 265.639 336.502 260.432C330.563 235.925 331.516 211.806 338.171 187.537C341.028 177.121 344.82 166.415 349.518 156.684C361.817 131.208 388.844 92.1233 413.599 78.4538C415.793 77.2424 418.485 75.9759 421.029 76.005L421.284 76.6684C418.607 80.2535 412.64 82.5587 409.077 85.5666C402.85 90.8251 397.043 96.7598 391.348 102.589C370.223 124.211 348.895 162.263 342.534 191.595C339.335 206.349 338.89 222.612 341.067 237.571C342.075 244.496 343.402 251.407 346.528 257.732C349.705 264.162 353.981 269.988 355.986 276.959C397.562 275.75 439.085 273.004 480.676 272.457C471.564 244.462 477.054 210.827 484.016 182.864Z" fill="#231F20"/>
<path d="M564.976 321.459C566.185 321.922 565.619 321.601 566.663 322.441C567.091 325.144 566.551 327.744 566.121 330.411C564.979 329.981 564.835 329.96 564.138 328.975C563.707 326.428 564.452 323.951 564.976 321.459Z" fill="#FEFEFE"/>
<path d="M816.777 196.294L817.47 197.062C817.813 200.456 817.671 205.929 816.644 209.203C816.31 208.58 816.027 207.936 815.794 207.269C814.559 203.715 815.258 199.635 816.777 196.294Z" fill="#FEFEFE"/>
<path d="M532.035 305.716C532.806 306.135 533.456 306.583 534.165 307.096C535.969 311.021 534.002 316.473 532.926 320.417L532.406 321.07C532.516 316.028 532.881 310.695 532.035 305.716Z" fill="#FEFEFE"/>
<path d="M556.458 318.232C557.62 318.668 559.156 319.042 559.976 320.01C561.007 321.227 559.033 326.153 558.856 327.896L558.798 328.521L558.793 329.113L558.152 329.184C556.65 326.454 556.738 321.345 556.458 318.232Z" fill="#FEFEFE"/>
<path d="M522.288 296.423C523.248 297.052 524.468 297.744 525.14 298.691C527.122 301.484 525.48 306.637 524.873 309.686L524.592 309.727C523.104 308.114 522.511 299.014 522.288 296.423Z" fill="#FEFEFE"/>
<path d="M537.641 309.378L540.025 310.638C540.27 311.008 540.666 311.314 540.761 311.747C541.191 313.709 539.796 317.203 539.588 319.302C539.384 321.347 539.708 323.452 539.961 325.481C538.786 325.171 537.928 324.859 536.897 324.213C535.114 320.689 537.851 314.172 537.675 310.045L537.641 309.378Z" fill="#FEFEFE"/>
<path d="M544.938 313.715C547.481 314.347 549.698 315.582 551.838 317.055C552.11 321.028 552.574 324.912 553.251 328.835L551.201 328.455C548.659 326.84 546.123 316.771 544.938 313.715Z" fill="#FEFEFE"/>
<path d="M771.932 419.44C772.814 419.704 773.531 420.003 774.359 420.391C775.79 422.102 775.971 424.3 776.399 426.431C775.439 427.878 774.422 429.114 773.249 430.391C771.916 430.039 770.84 429.645 770.002 428.478C768.87 426.902 768.443 425.217 768.862 423.309C769.3 421.318 770.338 420.536 771.932 419.44Z" fill="#FEFEFE"/>
<path d="M516.53 291.413C516.692 291.545 516.866 291.665 517.018 291.809C520.884 295.481 521.153 310.834 521.612 316.54C520.566 316.13 519.515 315.632 518.767 314.756C516.361 311.942 516.393 295.636 516.53 291.413Z" fill="#FEFEFE"/>
<path d="M496.631 289.755C490.765 279.223 489.997 267.223 488.685 255.46L488.948 255.575C490.019 257.689 490.303 260.227 490.768 262.539C492.078 268.502 492.895 274.87 494.991 280.605C494.777 274.652 493.551 268.333 493.653 262.465C494.67 264.188 495.847 265.803 496.996 267.44C495.912 274.875 496.006 282.288 496.631 289.755Z" fill="#FEFEFE"/>
<path d="M634.304 314.01C630.668 318.045 623.441 326.531 623.25 332.217C623.205 333.562 624.508 333.382 623.478 334.572C620.846 337.612 615.485 339.638 611.877 341.47C612.699 339.973 613.531 338.482 614.372 336.997C617.231 333.581 619.971 329.071 622.21 325.238C623.133 323.659 623.489 322.855 623.035 321.072C623.97 318.433 627.703 317.109 630.107 315.966C631.5 315.303 632.899 314.651 634.304 314.01Z" fill="#FEFEFE"/>
<path d="M644.299 306.419C644.489 306.674 644.779 306.879 644.868 307.184C645.021 307.708 636.981 319.406 636.272 321.175C635.548 322.983 635.506 324.804 635.461 326.726C632.167 329.089 628.877 331.366 625.41 333.468L625.093 332.802C626.286 329.72 633.631 315.159 635.526 312.99C637.914 310.258 641.252 308.32 644.299 306.419Z" fill="#FEFEFE"/>
<path d="M617.168 919.804C619.074 919.647 621.719 918.904 623.39 919.95C624.075 921.087 624.114 921.135 623.988 922.451C622.069 923.973 591.9 924.12 586.644 924.066C585.467 924.29 584.135 924.622 582.931 924.653C581.671 924.685 581.034 923.94 580.204 923.131C579.977 922.096 579.956 922.087 580.424 921.142C583.208 919.283 611.211 920.135 617.168 919.804Z" fill="#FEFEFE"/>
<path d="M831.118 725.968C831.833 725.975 832.537 725.977 833.249 726.066C836.084 726.417 839.091 727.532 840.759 729.984C842.086 731.934 842.335 734.424 841.727 736.673C840.508 741.177 837.016 743.556 833.18 745.69C831.23 746.194 829.379 746.469 827.414 745.873C827.219 745.815 827.027 745.747 826.838 745.67C826.649 745.592 826.465 745.505 826.286 745.408C826.106 745.311 825.932 745.206 825.763 745.091C825.594 744.976 825.432 744.854 825.276 744.723C825.12 744.592 824.971 744.453 824.829 744.306C824.687 744.159 824.553 744.006 824.427 743.846C824.301 743.685 824.183 743.519 824.074 743.347C823.965 743.174 823.866 742.997 823.775 742.814C822.439 740.142 822.654 736.719 823.562 733.951C824.969 729.662 827.149 727.852 831.118 725.968Z" fill="#FEFEFE"/>
<path d="M833.648 729.436C834.469 729.603 835.467 729.744 836.228 730.09C837.478 730.659 838.411 731.737 838.94 732.99C839.679 734.742 839.451 736.538 838.662 738.225C837.597 740.504 836.064 740.984 833.83 741.727C832.149 741.451 829.649 741.075 828.667 739.549C828.046 738.584 827.87 737.445 828.076 736.326C828.648 733.229 831.155 731.051 833.648 729.436Z" fill="#231F20"/>
<path d="M804.854 422.269C811.213 422.038 835.914 420.85 840.018 424.121C840.949 424.863 840.945 425.009 841.037 426.12C840.62 426.683 840.546 426.838 839.964 427.341C837.133 429.79 831.467 429.151 828.034 429.116C820.116 429.247 812.169 429.64 804.256 429.66C800.296 429.67 796.544 429.125 793.656 426.231C793.52 425.268 793.23 425.076 794.083 424.268C796.64 421.842 801.625 422.295 804.854 422.269Z" fill="#FEFEFE"/>
<path d="M282.768 642.489C285.06 642.36 288.01 642.16 290.244 642.776C293.193 643.589 295.794 645.511 297.299 648.177C299.22 651.582 299.287 655.913 298.241 659.604C296.504 665.729 292.668 668.647 287.396 671.554C285.238 671.557 282.977 671.626 280.897 670.964C280.463 670.823 280.037 670.662 279.618 670.479C279.2 670.296 278.792 670.092 278.394 669.869C277.996 669.646 277.61 669.403 277.237 669.141C276.863 668.88 276.503 668.6 276.157 668.302C275.81 668.005 275.48 667.691 275.165 667.361C274.85 667.03 274.553 666.685 274.272 666.325C273.991 665.965 273.729 665.592 273.486 665.206C273.242 664.82 273.018 664.423 272.814 664.015C270.939 660.342 270.517 655.965 271.982 652.083C273.917 646.956 278.025 644.547 282.768 642.489Z" fill="#FEFEFE"/>
<path d="M282.445 649.105C284.975 648.817 286.852 648.766 289.004 650.325C289.241 650.499 289.469 650.684 289.689 650.881C289.908 651.077 290.117 651.283 290.317 651.5C290.516 651.717 290.704 651.944 290.882 652.179C291.058 652.414 291.224 652.658 291.377 652.909C291.53 653.16 291.671 653.419 291.799 653.684C291.926 653.949 292.041 654.22 292.143 654.496C292.244 654.773 292.332 655.053 292.406 655.338C292.479 655.623 292.539 655.911 292.585 656.202C292.944 658.585 292.349 660.658 290.906 662.566C289.513 664.409 288.283 664.532 286.136 664.823C285.572 664.839 284.979 664.773 284.42 664.68C282.068 664.288 279.728 662.984 278.424 660.954C277.17 658.999 276.957 656.463 277.548 654.242C278.241 651.636 280.292 650.452 282.445 649.105Z" fill="#231F20"/>
<path d="M774.756 913.246C776.09 913.175 776.302 912.88 777.394 913.745C777.014 918.479 770.857 925.281 768.028 929.055C725.911 931.191 683.62 930.948 641.467 932.599C597.875 934.702 554.274 936.577 510.664 938.225C483.35 939.118 456.058 939.11 428.751 939.741C407.478 940.233 386.236 940.961 364.947 941.003C366.335 939.268 367.633 937.452 368.962 935.671C371.006 932.728 372.195 929.345 373.402 926.003C381.86 925.987 390.336 926.146 398.788 925.792C413.703 925.167 428.579 923.827 443.502 923.224C473.976 922.115 504.459 921.42 534.952 921.141C547.712 920.952 560.427 920.153 573.213 920.169C573.294 923.189 572.787 928.454 574.64 930.956C575.272 931.809 576.814 931.743 577.795 931.843C583.548 932.429 626.66 931.809 628.899 930.01C630.917 926.73 630.254 922.268 630.115 918.582C637.165 918.535 644.206 917.99 651.253 917.771L703.973 916.005C710.699 915.775 717.425 915.999 724.151 915.83C741.039 915.356 757.907 914.495 774.756 913.246Z" fill="#FEFEFE"/>
<path d="M283.646 766.801C283.858 767.011 284.306 767.434 284.512 767.703C286.517 770.32 291.888 782.434 294.05 786.546L329.14 854.581C339.07 873.719 351.179 891.809 360.438 911.304C362.502 915.649 364.197 918.911 363.575 923.854C362.797 930.037 358.914 934.113 354.231 937.783C349.884 939.214 346.83 939.351 342.521 937.642C335.431 934.831 329.71 928.912 324.54 923.51C319.013 917.734 312.78 911.884 308.242 905.29C302.337 896.707 298.855 885.603 294.789 876.003C292.167 869.811 289.18 863.783 286.57 857.583C283.139 849.43 279.445 841.035 277.535 832.376C273.131 812.408 275.984 785.616 283.646 766.801Z" fill="#FEFEFE"/>
<path d="M300.779 825.741L301.45 825.694C306.064 829.239 323.87 866.527 327.257 873.381C328.563 876.025 331.465 880.576 330.227 883.53C328.549 887.536 322.688 890.673 318.898 892.4C318.639 892.398 318.377 892.431 318.121 892.395C316.686 892.194 315.941 891.558 315.094 890.444C312.621 887.19 310.954 882.813 309.224 879.106C303.633 867.124 297.966 850.329 289.66 840.223C289.308 837.722 288.807 835.567 290.143 833.239C291.627 830.653 296.589 828.131 299.405 827.363C299.638 827.299 299.874 827.245 300.109 827.186L300.779 825.741Z" fill="#231F20"/>
<path d="M222.594 303.313C223.621 303.391 223.612 303.295 224.526 303.93C225.362 312.032 214.164 328.845 212.776 338.555L213.136 338.993C218.324 333.244 225.805 313.247 228.621 304.979C231.103 305.955 233.589 306.937 235.954 308.175C247.058 313.991 258.212 324.206 261.982 336.378C256.436 336.106 250.965 336.388 245.531 337.578C233.698 340.169 221.538 345.489 210.352 350.153C202.357 353.487 194.304 356.61 186.45 360.275C161.389 371.97 136.47 385.425 110.355 394.622C102.802 397.534 96.3292 400.147 90.0191 405.366C87.3813 400.314 84.9758 394.994 83.4351 389.498C80.5115 379.069 80.489 368.039 85.9726 358.427C88.759 353.543 92.8453 349.904 97.6181 347.049C108.301 340.658 121.193 337.093 132.74 332.492C155.006 323.619 176.832 313.591 200.076 307.446C197.262 312.733 183.858 335.561 183.108 338.68C183.73 339.662 183.657 339.667 184.772 339.96C192.147 333.64 199.838 315.275 204.157 306.35C210.319 304.421 216.155 303.562 222.594 303.313Z" fill="#FEFEFE"/>
<path d="M893.538 440.274C896.988 440.085 900.442 440.136 903.895 440.152L908.029 565.461C908.483 577.461 915.424 703.668 913.561 706.376C911.634 709.174 903.145 710.401 899.853 710.827C886.543 712.549 872.235 712.073 858.794 712.448C835.339 713.104 811.918 713.91 788.448 714.032C774.734 714.104 755.417 712.618 742.609 715.219C742.655 711.508 743.011 707.827 742.989 704.103C742.941 695.69 742.105 687.266 741.749 678.859C741.217 664.784 740.802 650.706 740.505 636.625C740.492 622.62 739.561 608.586 739.086 594.59L736.903 521.31C736.22 495.519 736.866 469.507 737.077 443.704C744.955 443.389 752.852 443.473 760.735 443.47C757.34 447.075 747.004 456.954 746.107 461.295C750.347 459.763 761.848 447.376 765.159 443.452L783.49 443.46C772.269 454.669 758.825 464.716 749.092 477.273C754.978 473.922 760.104 468.646 765.182 464.191C770.336 459.669 775.587 455.253 780.697 450.681C782.748 448.846 785.533 445.231 787.893 444.128C789.816 443.229 882.884 440.506 893.538 440.274Z" fill="#FED496"/>
<path d="M783.863 479.138C788.798 478.847 791.41 480.035 795.37 482.994C801.235 487.377 806.2 493.246 810.212 499.335C816.249 508.497 820.963 518.562 826.15 528.22C832.028 539.167 838.401 549.907 844.634 560.657L864.054 594.004C867.083 599.292 869.839 604.75 872.958 609.982C876.948 616.673 882.153 622.797 885.722 629.698C888.374 634.827 890.894 641.157 891.605 646.914C892.593 654.914 889.923 663.18 884.957 669.448C878.197 677.979 864.676 682.998 854.104 684.189C852.098 684.626 848.967 684.064 846.985 683.521C842.1 682.184 837.557 678.523 834.266 674.744C829.074 668.784 826.575 661.257 822.37 654.683C817.132 646.493 810.679 639.07 805.466 630.806C799.472 621.303 794.173 611.224 788.789 601.369L770.79 568.567C767.031 561.594 763.792 554.346 760.164 547.305C756.378 539.959 750.818 531.792 748.705 523.845C747.558 519.531 747.069 505.976 748.51 501.887C751.454 493.533 775.388 482.861 783.863 479.138Z" fill="#231F20"/>
<path d="M867.18 666.606C867.306 666.534 867.436 666.472 867.57 666.419C867.705 666.366 867.843 666.322 867.984 666.288C868.125 666.255 868.267 666.231 868.411 666.218C868.555 666.205 868.7 666.202 868.844 666.21C868.989 666.217 869.132 666.235 869.274 666.262C869.416 666.29 869.556 666.328 869.692 666.375C869.829 666.423 869.962 666.48 870.09 666.547C870.218 666.614 870.341 666.689 870.459 666.773C870.577 666.857 870.689 666.949 870.793 667.049C870.898 667.149 870.995 667.256 871.084 667.37C871.174 667.484 871.254 667.604 871.326 667.729C871.399 667.854 871.462 667.984 871.515 668.119C871.569 668.253 871.613 668.39 871.647 668.531C871.682 668.672 871.706 668.815 871.719 668.959C871.733 669.103 871.737 669.247 871.73 669.392C871.724 669.537 871.707 669.68 871.679 669.822C871.652 669.964 871.615 670.104 871.568 670.241C871.521 670.378 871.464 670.51 871.398 670.639C871.332 670.768 871.257 670.891 871.173 671.009C871.09 671.128 870.998 671.239 870.898 671.344C870.799 671.449 870.693 671.547 870.579 671.636C870.465 671.726 870.346 671.807 870.221 671.88C870.096 671.953 869.966 672.017 869.832 672.071C869.698 672.126 869.561 672.17 869.42 672.205C869.332 672.227 869.243 672.245 869.153 672.259C869.063 672.272 868.973 672.282 868.882 672.288C868.792 672.294 868.701 672.296 868.609 672.293C868.519 672.291 868.428 672.285 868.338 672.274C868.248 672.263 868.158 672.249 868.068 672.23C867.98 672.212 867.892 672.19 867.804 672.163C867.718 672.136 867.632 672.106 867.547 672.072C867.463 672.038 867.381 672 867.3 671.959C867.219 671.918 867.14 671.873 867.063 671.824C866.987 671.775 866.912 671.723 866.839 671.668C866.767 671.613 866.698 671.554 866.63 671.493C866.564 671.432 866.5 671.367 866.438 671.3C866.377 671.233 866.319 671.163 866.264 671.091C866.209 671.018 866.157 670.943 866.109 670.866C866.061 670.789 866.016 670.71 865.974 670.629C865.934 670.548 865.896 670.466 865.862 670.381C865.828 670.296 865.798 670.211 865.772 670.124C865.746 670.037 865.724 669.948 865.706 669.859C865.688 669.77 865.674 669.681 865.663 669.59C865.653 669.5 865.647 669.409 865.645 669.318C865.643 669.227 865.645 669.137 865.651 669.046C865.657 668.955 865.668 668.865 865.682 668.775C865.696 668.685 865.714 668.596 865.736 668.508C865.758 668.419 865.784 668.332 865.814 668.247C865.844 668.161 865.878 668.077 865.916 667.994C865.954 667.911 865.995 667.83 866.039 667.751C866.084 667.672 866.132 667.595 866.184 667.52C866.236 667.445 866.291 667.373 866.349 667.303C866.407 667.233 866.468 667.166 866.532 667.101C866.597 667.037 866.664 666.976 866.733 666.917C866.803 666.858 866.876 666.803 866.95 666.752C867.025 666.7 867.102 666.651 867.18 666.606Z" fill="#FEFEFE"/>
<path d="M814.002 527.959C814.085 527.972 814.174 527.963 814.25 527.997C815.639 528.613 816.094 530.28 816.76 531.566L808.128 534.309C807.795 534.453 807.407 534.399 807.045 534.428L806.078 533.2L806.258 532.364C808.418 530.437 811.426 529.262 814.002 527.959Z" fill="#FEFEFE"/>
<path d="M850.096 671.305C850.832 671.275 851.586 671.256 852.313 671.408C853.533 671.664 854.709 672.458 855.248 673.613C856.038 675.307 855.474 676.927 854.852 678.533C853.754 678.611 852.864 678.583 851.78 678.387C850.986 677.834 850.191 677.364 849.776 676.442C849.016 674.754 849.475 672.932 850.096 671.305Z" fill="#FEFEFE"/>
<path d="M806.505 510.049C807.5 510.739 808.11 511.766 808.422 512.901C807.054 515.405 801.058 516.427 798.436 518.114C798.283 518.212 798.134 518.315 797.983 518.416L797.474 518.721C796.56 517.735 796.386 517.584 796.13 516.281C798.997 513.648 803.084 511.922 806.505 510.049Z" fill="#FEFEFE"/>
<path d="M809.941 519.266C811.279 520.211 812.127 521.73 813.053 523.058C809.784 524.544 806.758 526.076 803.705 527.975C802.528 526.767 801.744 526.067 801.687 524.362C803.571 521.86 807.169 520.648 809.941 519.266Z" fill="#FEFEFE"/>
<path d="M771.552 492.992C773.209 492.907 774.245 493.314 775.722 493.962C776.33 494.956 776.267 495.128 776.212 496.309C774.482 499.414 772.78 500.15 769.712 501.604L768.039 501.748C766.69 500.983 766.193 500.536 765.375 499.219C765.242 497.91 765.158 497.464 765.767 496.247C766.794 494.196 769.539 493.682 771.552 492.992Z" fill="#FEFEFE"/>
<path d="M796.315 493.884C796.555 493.958 796.808 493.998 797.035 494.104C799.794 495.397 801.372 499.207 802.666 501.789C799.043 503.346 795.361 504.635 791.629 505.907C790.694 506.203 790.258 506.218 789.304 505.985C787.519 504.595 786.823 502.58 785.892 500.578L796.315 493.884Z" fill="#FEFEFE"/>
<path d="M779.521 504.874C786.415 507.062 825.438 583.277 831.392 593.769C838.647 606.552 846.321 618.9 854.156 631.316C856.432 634.922 861.568 644.902 864.895 646.738C869.3 646.791 874.266 642.892 878.218 641.012C879.421 640.441 880.483 640.026 881.803 640.465C882.53 641.483 882.551 641.434 882.421 642.672C877.74 649.056 864.808 655.561 857.165 657.928C849.359 659.79 842.256 662.907 835.484 667.189C832.836 663.241 831.243 658.654 828.592 654.691C823.844 647.596 818.03 641.14 813.64 633.812C799.842 610.772 787.304 586.606 774.971 562.75C769.09 551.376 762.439 540.242 757.594 528.366C756.559 525.829 754.976 522.024 755.402 519.281C756.073 514.956 768.934 510.747 772.808 508.839C775.153 507.684 777.339 506.307 779.521 504.874Z" fill="#FEFEFE"/>
<path d="M254.107 346.867C254.076 347.128 254.05 347.39 254.013 347.649C252.98 354.945 240.999 373.147 241.904 378.529C245.605 376.602 255.655 352.609 256.588 347.853C256.651 347.532 256.654 347.201 256.687 346.875C259.829 347.106 262.451 347.879 265.362 349.026C261.907 356.215 260.606 364.273 257.569 371.611C254.921 378.008 247.689 387.18 247.199 393.725L247.584 394.488L248.261 394.514C250.017 392.828 250.922 390.652 252.099 388.561C254.845 383.684 257.489 378.863 259.762 373.742C262.606 367.335 264.783 360.282 268.779 354.486C270.344 360.654 273.535 366.25 275.032 372.486C272.433 379.13 270.042 386.031 266.588 392.289C265.314 394.597 259.838 401.166 259.606 403.075C259.459 404.289 259.877 405.911 260.725 406.725C265.253 404.974 273.567 383.009 276.401 377.874L276.691 377.359L279.995 385.873C277.391 395.475 272.18 404.171 270.152 413.829C275.754 407.554 278.902 400.246 282.388 392.692C287.27 407.873 293.191 422.941 298.745 437.887C303.412 450.448 307.749 463.135 312.485 475.669C314.585 481.23 317.052 486.647 319.1 492.226L346.585 569.239C349.656 578.034 352.363 586.957 355.582 595.699C333.296 603.353 311.845 613.115 290.229 622.425L240.559 643.278C229.939 647.829 199.616 661.815 189.929 663.08C186.832 655.462 183.511 647.94 180.588 640.25C171.868 617.311 164.069 594.007 155.506 571.01C149.295 554.328 142.367 537.81 135.771 521.269L101.613 436.726C98.8853 429.85 93.791 422.187 92.6499 414.969C92.8841 414.217 93.114 413.541 93.6185 412.919C97.5561 408.059 123.355 399.79 130.497 396.956C140.579 392.956 150.483 388.477 160.479 384.268C169.04 380.664 177.795 377.326 186.18 373.337C201.922 365.849 217.335 356.779 233.694 350.706C240.379 348.225 247.033 347.42 254.107 346.867Z" fill="#FED496"/>
<path d="M285.754 461.22C286.805 461.469 287.543 461.873 288.334 462.631C290.093 464.314 290.878 466.73 290.802 469.108C290.734 471.249 289.841 472.051 288.36 473.396C286.652 472.611 284.769 471.189 284.057 469.36C283.531 468.01 283.445 466.595 283.973 465.233C284.083 464.948 284.237 464.682 284.358 464.401C284.821 463.335 285.255 462.273 285.754 461.22Z" fill="#231F20"/>
<path d="M140.738 504.736C141.594 504.942 142.426 505.23 143.264 505.498C144.448 506.558 144.874 507.642 145.258 509.136C145.873 511.532 145.562 515.964 144.353 518.138C143.637 517.956 142.855 517.781 142.169 517.516C140.787 516.982 140.082 515.923 139.594 514.581C138.487 511.534 139.336 507.557 140.738 504.736Z" fill="#231F20"/>
<path d="M152.555 501.227C153.379 501.456 153.673 501.641 154.345 502.129C155.268 503.835 155.59 505.567 155.718 507.501C155.864 509.718 155.716 512.277 154.229 513.977L152.788 513.667L151.174 514.415L150.237 513.989C149.569 512.78 149.411 511.722 149.4 510.36C149.37 506.817 150.086 503.822 152.555 501.227Z" fill="#231F20"/>
<path d="M238.314 469.278L239.295 470.31C239.481 471.31 239.605 472.318 239.665 473.333C239.726 474.348 239.723 475.363 239.657 476.378C239.591 477.393 239.463 478.4 239.271 479.399C239.08 480.398 238.827 481.382 238.513 482.349C237.635 485.126 236.905 485.86 234.314 487.192C233.918 486.484 233.5 485.788 233.258 485.007C231.923 480.699 236.175 472.997 238.314 469.278Z" fill="#231F20"/>
<path d="M221.229 478.9C222.011 478.981 222.784 479.158 223.556 479.304C226.328 482.588 223.001 487.181 224.494 490.817C231.18 491.781 240.93 482.697 247.463 484.66C248.43 484.95 248.837 485.052 249.253 485.94C249.171 486.115 249.112 486.303 249.006 486.465C247.77 488.339 225.872 497.086 223.269 496.917C222.001 496.835 220.885 496.505 220.097 495.437C217.781 492.299 219.246 486.244 219.693 482.704C214.362 492.717 210.444 503.832 198.863 507.957C195.827 507.983 188.841 509.217 186.505 507.301C187.706 502.107 198.338 504.439 201.474 501.009C204.315 497.902 204.092 492.132 204.046 488.202C203.851 488.258 203.654 488.31 203.459 488.369C203.142 488.465 202.828 488.57 202.512 488.668C198.229 489.995 194.902 493.562 190.768 494.746C189.143 495.211 187.829 494.953 186.337 494.183L186.236 493.16C188.798 489.228 196.354 486.035 200.748 484.61C202.951 483.896 204.959 483.381 207.124 484.447C208.359 486.566 207.609 491.835 207.598 494.461C211.655 488.226 214.948 483.083 221.229 478.9Z" fill="#231F20"/>
<path d="M249.584 445.062L250.887 445.141C251.552 446.152 251.468 446.535 251.508 447.764C250.937 449.073 250.234 449.77 248.99 450.435C239.987 455.243 223.588 460.293 213.497 463.91C196.255 470.077 179.188 476.695 162.296 483.766C164.519 489.9 165.736 496.513 167.463 502.814C170.428 513.633 173.946 524.518 178.07 534.951C186.622 531.786 194.803 527.44 203.193 523.84C215.382 518.61 227.813 513.956 239.973 508.65C251.59 503.581 263.343 497.978 275.591 494.601C273.03 488.47 262.188 452.735 262.953 448.57L263.78 448.684C265.377 450.595 266.295 452.628 267.34 454.862C270.807 462.03 281.154 490.683 279.406 497.411C273.342 502.167 259.761 506.409 252.273 509.557C227.866 519.814 202.454 531.27 177.231 539.167C176.859 538.665 176.494 538.158 176.136 537.645C170.545 529.627 156.191 490.2 157.718 481.44C161.729 477.935 183.79 470.778 190.122 468.236C209.56 460.433 229.21 450.102 249.584 445.062Z" fill="#231F20"/>
<path d="M684.251 751.23C685.073 751.108 686.226 751.125 687.04 751.367C688.676 751.855 690.009 753.109 691.071 754.39C696.452 760.886 700.441 769.124 704.774 776.346C719.967 801.669 733.253 827.954 747.539 853.776C756.828 870.567 767.108 886.861 775.91 903.915C747.488 906.224 718.789 906.015 690.296 906.752L559.113 910.571C522.953 911.364 486.8 912.416 450.655 913.725C442.118 914.098 433.518 914.271 424.997 914.843C411.632 915.74 398.544 917.036 385.117 916.989L373.418 917.023C365.09 896.153 350.253 873.832 339.501 853.699C323.263 823.292 308.546 792.096 292 761.842C309.364 756.102 345.617 758.092 364.741 757.422C399.736 755.87 434.748 754.9 469.775 754.511L583.77 753.494L634.501 752.598C651.122 752.337 667.647 752.324 684.251 751.23Z" fill="white"/>
<path d="M705.503 883.381C707.084 883.432 708.211 883.384 709.568 884.325C709.961 885.068 710.271 885.296 710.118 886.176C709.576 889.298 705.925 891.995 703.479 893.664C702.29 893.921 700.733 893.831 699.678 893.18C699.058 892.796 699.103 892.18 698.928 891.52C699.578 887.874 702.836 885.63 705.503 883.381Z" fill="#231F20"/>
<path d="M681.957 880.39C682.845 880.38 683.673 880.53 684.553 880.654C685.754 881.596 685.757 881.509 685.999 883.007C684.671 887.224 677.708 894.77 673.908 897.115C673.277 897.058 672.375 897.045 671.753 896.851C670.322 896.406 670.192 896.232 669.597 894.968C670.381 889.744 678.161 883.952 681.957 880.39Z" fill="#231F20"/>
<path d="M665.554 866.812L666.517 866.888C667.54 867.753 667.672 867.742 667.924 869.037C667.097 870.805 638.308 896.286 634.959 898.646C633.829 898.608 633.682 898.504 632.761 897.937L632.625 896.976C635.978 892.18 647.183 883.314 651.966 879.07C656.527 875.024 660.842 870.682 665.554 866.812Z" fill="#231F20"/>
<path d="M652.455 849.765C653.529 850.329 653.667 850.449 654.299 851.483C654.151 852.451 653.92 853.068 653.26 853.812C647.526 860.271 640.312 866.052 634.04 872.047C624.582 881.088 615.4 891.53 604.915 899.318C603.649 898.852 603.166 898.975 602.514 897.708C603.813 894.986 646.274 855.635 652.455 849.765Z" fill="#231F20"/>
<path d="M728.844 273.997C741.154 275.268 753.879 276.302 766.252 276.895C773.63 277.248 780.959 276.958 788.329 277.77C810.875 280.253 832.792 290.986 849.057 306.729C856.435 313.871 864.708 323.14 869.037 332.541C875.78 347.183 877.59 384.006 877.9 400.991C868.988 402.354 859.35 401.264 850.302 401.681C814.439 403.334 778.426 402.917 742.605 405.602C740.274 406.911 738.299 408.69 736.521 410.671C731.581 416.172 727.915 423.797 726.921 431.14C726.002 437.933 727.265 444.848 727.455 451.661C727.805 464.28 727.719 476.935 727.831 489.559C727.962 504.243 727.731 518.963 728.027 533.639C728.232 543.846 729.005 554.036 729.046 564.25C729.083 573.361 728.86 582.463 729.018 591.575C729.203 602.245 729.815 612.905 730.04 623.572C730.229 632.496 729.895 641.427 730.385 650.343C724.947 651.179 719.31 651.239 713.819 651.533C702.669 652.132 691.643 652.581 680.477 652.562C666.31 652.539 652.064 652.133 638.217 655.592C640.645 650.971 645.007 647.534 646.467 642.387C646.954 640.669 647.187 638.538 646.131 636.973C644.092 633.952 637.34 633.72 634.023 633.422C627.927 632.873 609.389 631.023 605.1 634.618L605.038 635.539C605.731 636.512 606.689 637.277 607.908 637.471C610.923 637.949 614.246 637.625 617.33 637.969C622.613 638.559 627.886 639.88 633.08 640.996C631.258 644.262 629.522 647.573 627.87 650.928L459.002 657.517C424.868 658.78 390.515 663.097 356.48 658.518C360.547 654.285 364.256 649.87 366.823 644.544C378.278 620.776 366.39 591.309 357.533 568.802C352.63 556.343 347.445 544.014 343.064 531.356C334.357 509.492 327.516 486.867 319.333 464.791L297.128 404.028L282.154 363.418C280.097 357.809 277.709 352.321 275.806 346.657C271.259 333.124 264.506 315.526 271.664 301.846C275.749 294.04 282.649 290.039 290.782 287.647C287.971 291.87 277.537 302.933 277.952 307.779C282.936 305.606 292.912 291.111 296.533 286.123C304.1 285.984 308.43 285.362 316.394 286.165C312.515 290.181 297.828 305.22 297.594 309.75L298.317 309.839C302.587 307.518 317.504 290.774 320.977 286.186C328.511 286.33 336.044 286.4 343.578 286.397C337.652 295.37 323.587 304.426 319.958 313.497C320.172 314.769 320.134 314.746 321.128 315.561C321.469 315.503 321.838 315.533 322.151 315.386C322.255 315.338 340.643 295.982 341.963 294.482C344.226 291.911 346.296 289.15 348.356 286.417C354.06 285.79 359.885 285.79 365.62 285.587C362.706 289.449 347.084 306.449 346.568 307.98C346.916 309.323 347.032 309.339 348.13 310.214C352.772 309.307 367.071 289.899 371.375 285.383C386.547 284.251 401.724 284.848 416.903 284.194C433.331 283.485 449.752 282.348 466.196 282.226C472.122 282.182 478.218 281.865 484.1 282.576C492.23 299.922 504.145 315.274 521.615 323.993C538.871 332.607 556.524 338.446 576.01 333.902C582.256 332.445 588.478 329.949 594.578 327.92C593.312 335.539 591.567 344.317 588.169 351.337C586.266 355.27 583.554 359.019 582.156 363.161C581.548 364.961 581.391 366.397 581.601 368.274C582.166 368.863 582.372 369.332 583.227 369.467C585.217 369.779 587.363 368.572 588.976 367.521C591.875 365.633 594.545 363.395 597.434 361.488C619.767 346.743 641.405 330.988 663.649 316.113C677.979 306.529 692.734 297.936 707.265 288.707C714.599 284.049 721.695 278.936 728.844 273.997Z" fill="white"/>
<path d="M558.813 572.586C558.693 572.065 558.504 571.549 558.582 571.003C559.049 567.744 564.528 562.71 566.926 560.537C566.899 561.333 566.849 562.127 566.777 562.92C566.519 566.053 565.815 569.681 563.193 571.725C561.695 572.894 560.565 572.797 558.813 572.586Z" fill="#231F20"/>
<path d="M528.632 369.755L529.369 370.248C529.713 371.055 529.833 371.096 529.703 372.037C529.26 375.252 519.226 393.451 516.875 395.12C516.261 394.55 515.835 393.98 515.368 393.285C515.571 388.569 525.613 374.161 528.632 369.755Z" fill="#231F20"/>
<path d="M536.558 412.1C537.331 412.423 537.946 412.789 538.654 413.231L538.829 414.238C537.228 418.638 520.232 448.434 517.463 450.895C516.187 450.482 515.813 450.539 515.062 449.453C515.744 446.423 519.335 442.338 521.087 439.656C526.685 431.088 533.384 421.885 536.558 412.1Z" fill="#231F20"/>
<path d="M536.534 381.2C537.446 381.489 537.722 381.7 538.433 382.295C539.507 388.024 523.175 413.513 519.124 419.543C519.017 419.517 518.908 419.498 518.803 419.466C517.481 419.057 517.232 419.146 516.63 417.946C517.028 415.131 527.977 398.767 530.266 394.58C532.648 390.221 534.778 385.858 536.534 381.2Z" fill="#231F20"/>
<path d="M541.154 441.141C541.978 441.399 542.151 441.513 542.862 442.102C542.192 448.658 524.097 477.435 519.521 483.717C518.428 482.762 517.631 482.395 517.294 480.958C522.782 473.149 528.092 465.375 532.749 457.029C535.664 451.806 537.956 446.193 541.154 441.141Z" fill="#231F20"/>
<path d="M544.713 510.172C545.644 510.209 546.442 510.427 547.337 510.675C547.782 511.171 548.239 511.418 548.246 512.131C548.326 520.848 513.699 572.224 506.396 578.772C505.164 578.571 504.6 578.487 503.711 577.583C503.521 576.195 503.605 575.692 504.46 574.547C507.466 570.518 511.358 567.043 514.466 563.041C520.53 555.234 543.846 522.418 544.532 513.407C544.614 512.334 544.66 511.248 544.713 510.172Z" fill="#231F20"/>
<path d="M815.205 333.554C816.524 333.427 817.849 333.32 819.175 333.378C823.294 333.56 825.473 336.054 828.052 338.897C828.877 342.536 829.239 345.729 827.49 349.183C825.194 353.718 820.68 355.585 816.113 357.013C813.914 357.679 811.032 357.304 808.916 356.499C806.49 355.576 804.82 353.697 803.87 351.307C802.706 348.378 802.893 345.115 804.222 342.277C806.418 337.589 810.563 335.261 815.205 333.554Z" fill="#231F20"/>
<path d="M817.401 338.992C817.992 338.96 818.643 338.891 819.231 339.02C820.598 339.32 822.353 340.52 822.834 341.839C823.423 343.454 822.891 345.08 822.148 346.526C820.464 349.803 818.196 350.647 814.803 351.696C812.524 351.55 810.906 351.175 809.149 349.655C808.538 348.283 808.17 347.507 808.802 346C810.395 342.204 813.747 340.356 817.401 338.992Z" fill="#FEFEFE"/>
<path d="M352.751 347.226C353.537 347.489 353.878 347.655 354.485 348.259C357.034 350.801 354.66 361.152 354.586 364.812L354.577 365.492C359.065 367.023 370.293 369.674 372.592 373.822C372.403 374.476 372.444 374.845 371.853 375.273C368.311 377.84 358.949 374.14 354.777 373.718C349.172 373.152 351.128 385.326 345.376 390.353C341.039 385.509 343.468 378.144 343.523 372.119C338.007 370.854 330.549 369.755 325.845 366.441C324.621 365.578 324.25 364.89 324.025 363.439C324.643 362.123 324.802 361.891 325.979 361.047C331.726 359.982 339.503 362.631 345.149 363.81C347.228 358.531 348.012 350.549 352.751 347.226Z" fill="#FABD1C"/>
<path d="M547.15 468.065C543.802 490.314 507.083 547.472 492.334 566.366C489.315 570.233 486.129 574.954 482.143 577.813C480.922 578.689 479.894 579.217 478.428 579.521L477.563 579.04C477.203 577.354 478.336 574.58 477.562 573.427C464.458 577.38 448.723 577.872 436.305 571.304C427.149 566.461 422.381 557.916 419.532 548.256C417.905 542.741 417.172 537.021 416.958 531.287C416.754 525.803 416.641 520.241 416.784 514.755C417.215 498.215 418.788 481.667 419.178 465.088C419.257 461.716 418.675 450.133 419.992 447.732L420.75 447.378C422.877 450.628 422.091 458.493 422.291 462.452C423.205 480.535 423.48 498.624 424.476 516.699C424.904 524.483 424.88 532.371 426.466 540.033C427.657 545.785 429.844 552.259 433.495 556.932C437.48 562.032 447.108 565.751 453.292 567.043C461.371 568.73 471.472 567.475 478.486 562.984C488.481 556.584 493.987 543.273 496.211 532.109C498.002 523.125 498.085 514.004 498.286 504.883C498.726 484.913 497.642 465.116 497.186 445.172C497.011 437.538 498.122 420.679 495.658 414.213C493.705 412.369 491.032 412.698 488.525 412.763C484.806 412.86 476.335 414.495 473.542 411.474C472.672 410.534 472.555 409.398 472.707 408.183C473.504 401.773 492.699 381.094 497.337 375.309C500.831 370.951 503.872 366.377 506.826 361.645C509.928 356.673 513.225 347.837 518.15 344.629C519.747 343.589 521.52 343.177 523.395 343.652C528.245 344.878 532.903 351.599 536.366 355.163C540.801 359.729 545.721 363.835 550.073 368.475C557.755 376.667 564.613 385.986 571.321 394.975C574.125 398.732 577.385 402.464 579.697 406.546C580.766 408.434 581.842 410.738 581.137 412.929C580.775 414.051 579.808 414.735 578.757 415.173C573.392 417.413 559.582 413.215 554.461 410.724C554.81 431.292 557.267 451.863 558.435 472.392C559.56 492.16 557.983 513.448 563.019 532.763C565.132 540.868 568.892 548.368 574.96 554.236C584.516 563.479 596.298 565.44 609.159 565.14C622.892 564.819 642.208 562.626 652.374 552.16C654.876 549.584 656.225 546.648 656.98 543.17C658.575 535.824 657.72 527.741 657.855 520.27C658.103 506.552 658.519 493.02 658.017 479.281C657.806 473.501 657.277 467.744 657.538 461.957C654.865 465.975 645.445 482.065 641.595 483.309C640.056 483.806 638.417 483.309 637.123 482.449C635.977 481.687 635.25 480.701 635.052 479.319C634.759 477.268 635.605 475.086 636.493 473.284C639.552 467.074 644.235 461.442 647.846 455.505C650.976 450.36 652.878 444.145 656.802 439.542C658.127 437.988 660.265 436.315 662.388 436.248C663.592 436.21 664.543 436.484 665.351 437.382C670.462 443.058 673.975 450.686 678.449 456.921C681.505 461.179 685.72 465.229 688.378 469.668C688.872 470.494 689.088 471.229 688.96 472.203C688.737 473.888 687.411 475.257 685.992 476.071C684.787 476.763 683.173 477.248 681.781 476.956C677.473 476.051 672.9 469.859 669.946 466.659C669.342 477.597 669.562 488.552 669.357 499.5C669.235 506.01 668.652 512.499 668.49 519.007C668.245 528.808 669.228 539.577 666.76 549.108C665.53 553.857 663.487 557.415 659.76 560.701C645.97 572.861 618.414 576.553 600.808 575.073C587.654 573.967 576.531 569.788 566.926 560.537C562.995 555.189 559.118 550.498 556.149 544.493C553.846 549.765 541.278 572.808 536.601 573.919C535.252 574.24 534.893 573.946 533.929 573.162C533.795 569.806 536.852 567.631 538.907 565.233C545.301 557.776 549.679 549.376 554.701 541.057C554.698 533.361 552.741 525.305 552.295 517.528C551.499 503.656 552.827 489.846 552.4 475.994C552.137 467.431 550.769 459.013 549.896 450.506C549.008 441.851 548.627 433.111 547.952 424.433C547.611 420.039 544.965 405.817 547.625 402.423C547.772 402.235 547.947 402.073 548.108 401.898C550.845 400.64 553.386 401.715 556.042 402.695C558.721 403.683 564.103 406.593 566.797 405.855C567.277 405.338 567.318 405.496 567.298 404.813C567.206 401.781 564.346 398.002 562.621 395.57C550.747 378.828 537.072 369.363 523.359 355.113C517.725 363.764 512.307 372.867 505.923 380.979C499.601 389.011 492.197 396.229 485.596 404.046C491.061 403.94 496.276 403.608 501.593 405.172L502.225 405.353C504.996 408.396 505.761 410.973 506.39 414.961C508.82 430.382 506.543 445.918 506.739 461.384C506.921 475.836 508.636 490.081 507.937 504.583C507.293 517.948 506.574 532.181 501.671 544.774L502.153 544.019C505.933 538.15 510.504 532.763 514.742 527.222C520.489 519.708 525.807 512.011 530.489 503.782C533.757 498.037 536.766 491.888 539.295 485.783C541.781 479.781 543.482 473.495 547.15 468.065Z" fill="#231F20"/>
</g>
<defs>
<clipPath id="clip0_16_429">
<rect width="1024" height="1024" fill="white"/>
</clipPath>
</defs>
</svg>
