<?xml version="1.0" encoding="utf-8" ?>
<svg xmlns="http://www.w3.org/2000/svg" xmlns:xlink="http://www.w3.org/1999/xlink" width="1232" height="1024">
	<path fill="#FEFEFE" d="M0 0L1230.95 0C1233.04 3.6862 1232 11.9485 1232 16.2537L1232.01 821.016L1232 972.807C1232 979.622 1232.91 1018.87 1231.63 1022.68C1231.48 1023.12 1231.16 1023.62 1230.95 1024L0 1024L0 0Z"/>
	<defs>
		<linearGradient id="gradient_0" gradientUnits="userSpaceOnUse" x1="970.24097" y1="225.29636" x2="966.15887" y2="235.88573">
			<stop offset="0" stop-color="#6A7154"/>
			<stop offset="1" stop-color="#6B8354"/>
		</linearGradient>
	</defs>
	<path fill="url(#gradient_0)" d="M931.726 228.2C949.048 223.402 975.009 223.765 990.898 232.728C994.013 234.486 996.676 236.832 998.966 239.578C997.787 243.409 996.622 247.114 994.013 250.251C994.263 246.404 996.962 243.734 996.808 239.57C996.031 238.044 995.837 237.877 994.378 236.968L993.886 237.255L993.681 238.109C991.875 239.22 990.925 239.025 988.837 239.066L991.984 237.865L992.083 237.096C981.356 230.724 964.914 228.683 952.579 228.638C945.981 228.614 938.924 229.208 932.409 228.301L931.726 228.2Z"/>
	<path d="M421.806 733.245C422.807 733.556 424.111 734.081 424.908 734.783Q425.094 734.947 425.259 735.133Q425.424 735.318 425.566 735.522Q425.708 735.726 425.824 735.945Q425.941 736.164 426.031 736.396Q426.12 736.627 426.181 736.868Q426.243 737.108 426.275 737.354Q426.307 737.601 426.31 737.849Q426.313 738.097 426.286 738.344C425.88 741.819 403.775 764.036 399.374 767.262C397.391 766.512 396.012 766.06 394.67 764.37C394.408 763.321 394.219 762.602 394.482 761.519C395.715 756.433 416.878 736.656 421.806 733.245Z"/>
	<path d="M449.759 222.15C456.345 213.712 465.521 209.033 476.133 207.727C493.764 205.557 511.37 212.538 524.993 223.484C534.237 230.91 542.155 241.468 543.334 253.58C543.637 256.69 543.605 260.098 543.019 263.177C542.452 266.158 538.192 275.305 538.797 277.369L539.652 277.813C535.053 278.304 530.254 279.107 525.652 278.311C529.653 273.015 532.687 265.98 533.336 259.33C534.109 251.415 531.339 243.786 526.242 237.766C516.452 226.203 500.184 218.371 485.158 217.245C474.29 216.431 465.355 219.451 457.071 226.605C454.964 228.425 453.147 230.613 450.995 232.363C450.048 233.132 449.961 233.235 448.801 233.12C448.408 229.585 449.28 225.679 449.759 222.15Z"/>
	<path d="M470.453 726.047C472.292 726.011 473.165 726.161 474.754 727.109C475.492 728.316 475.829 728.634 475.635 730.103C475.342 732.329 473.346 734.697 471.899 736.369C463.604 745.953 454.109 754.759 445.244 763.831Q420 789.781 394.334 815.315Q385.302 824.19 376.436 833.23C372.504 837.227 368.652 841.66 364.209 845.086C363.522 845.135 362.824 845.205 362.134 845.139C360.526 844.985 359.678 844.45 358.629 843.274C358.386 842.409 358.162 841.652 358.34 840.748C358.941 837.7 361.861 834.499 363.954 832.281C371.224 824.578 379.265 817.543 386.747 810.037L448.154 748.726C455.53 741.492 461.989 731.973 470.453 726.047Z"/>
	<path fill="#81AD5B" d="M885.744 249.451C901.487 242.561 914.934 233.013 931.726 228.2L932.409 228.301C938.924 229.208 945.981 228.614 952.579 228.638C964.914 228.683 981.356 230.724 992.083 237.096L991.984 237.865L988.837 239.066C981.787 238.748 972.976 242.368 965.976 243.774C950.208 246.939 889.475 258.594 875.843 255.34C878.33 253.312 884.287 251.87 885.744 249.451Z"/>
	<path fill="#81AD5B" d="M851.364 240.909Q850.984 240.008 850.625 239.098C842.958 219.588 846.869 186.162 855.154 167.32C864.196 146.759 879.473 124.89 901.105 116.465C894.59 129.415 890.711 143.22 885.782 156.806C878.061 178.086 870.001 199.363 861.876 220.492C860.324 224.53 858.733 228.793 856.557 232.536C854.947 235.304 852.563 237.966 851.364 240.909Z"/>
	<path fill="#5C7E47" d="M901.105 116.465C903.653 116.914 905.232 117.665 906.74 119.843C913.326 129.357 910.598 152.315 908.213 162.959C904.32 180.336 896.101 198.613 885.159 212.662C874.918 222 863.749 231.936 854.704 242.43L851.364 240.909C852.563 237.966 854.947 235.304 856.557 232.536C858.733 228.793 860.324 224.53 861.876 220.492C870.001 199.363 878.061 178.086 885.782 156.806C890.711 143.22 894.59 129.415 901.105 116.465Z"/>
	<path fill="#5C7E47" d="M988.837 239.066C990.925 239.025 991.875 239.22 993.681 238.109L993.886 237.255L994.378 236.968C995.837 237.877 996.031 238.044 996.808 239.57C996.962 243.734 994.263 246.404 994.013 250.251C987.92 261.773 968.627 270.216 956.813 273.882C930.573 282.023 898.947 285.34 872.303 277.623C866.643 275.382 861.366 272.441 856.016 269.558C862.832 264.934 868.278 258.907 875.843 255.34C889.475 258.594 950.208 246.939 965.976 243.774C972.976 242.368 981.787 238.748 988.837 239.066Z"/>
	<path fill="#81AD5B" d="M885.159 212.662C885.382 212.594 885.608 212.533 885.83 212.459C888.429 211.595 891.674 208.318 893.856 206.608C904.831 198.006 914.632 188.379 924.911 178.995C932.727 171.859 940.907 165.114 948.924 158.207C955.157 152.837 961.649 146.255 968.771 142.145C971.363 140.649 975.417 138.96 978.358 140.432C979.295 140.901 979.353 141.345 979.856 142.219C979.894 145.9 978.002 148.53 975.507 151.082C968.871 157.868 960.473 163.396 953.45 169.964C943.123 179.623 932.56 189.061 922.345 198.832C912.838 207.925 903.77 217.295 893.78 225.883C907.913 218.45 995.275 171.941 1004.17 174.174C1006.36 174.723 1007.88 176.455 1008.92 178.374C1009.83 180.052 1009.67 182.09 1009.08 183.854C1008.08 186.878 1005.98 187.771 1003.27 188.996C994.591 192.922 985.387 195.744 976.673 199.652C962.755 205.894 892.123 241.276 885.744 249.451C884.287 251.87 878.33 253.312 875.843 255.34C868.278 258.907 862.832 264.934 856.016 269.558C850.369 265.798 844.211 262.852 838.559 259.094C843.641 253.315 850.037 248.482 854.704 242.43C863.749 231.936 874.918 222 885.159 212.662Z"/>
	<path fill="#DF7B39" d="M792.319 236.713C809.004 242.016 822.665 252.283 838.559 259.094C844.211 262.852 850.369 265.798 856.016 269.558C861.366 272.441 866.643 275.382 872.303 277.623C873.467 280.436 876.21 283.065 878.136 285.439C885.054 293.967 888.054 302.682 889.731 313.454C889.897 318.955 889.914 324.054 888.598 329.45C884.841 344.861 868.664 369.644 860.579 384.407C858.513 388.18 854.716 392.496 853.721 396.599C851.314 398.614 848.256 399.945 845.289 400.929C841.896 402.393 838.696 404.394 835.49 406.231C830.851 402.156 826.552 398.545 820.851 396.016C815.255 398.745 810.135 402.391 804.952 405.821C801.29 403.053 797.2 399.285 792.764 397.96C786.35 396.045 778.228 404.617 772.797 407.625L772.07 408.023C766.328 404.552 761.28 398.996 755.166 396.324C757.399 389.351 763.113 382.178 766.793 375.838C775.75 360.405 784.282 344.709 793.324 329.326C800.167 317.683 808.954 305.76 813.558 293.066C815.738 287.057 816.266 280.587 815.68 274.246C814.112 257.274 804.921 247.19 792.319 236.713Z"/>
	<path fill="#F2AF61" d="M696.564 315.763C700.332 311.214 703.169 305.343 706.169 300.265C711.777 290.77 717.715 281.464 723.402 272.015C728.5 263.543 733.361 253.608 740.118 246.348Q741.722 244.617 743.508 243.073Q745.293 241.53 747.239 240.194Q749.184 238.857 751.265 237.744Q753.346 236.63 755.537 235.754C766.827 231.216 781.164 231.904 792.319 236.713C804.921 247.19 814.112 257.274 815.68 274.246C816.266 280.587 815.738 287.057 813.558 293.066C808.954 305.76 800.167 317.683 793.324 329.326C784.282 344.709 775.75 360.405 766.793 375.838C763.113 382.178 757.399 389.351 755.166 396.324C754.074 396.604 752.989 396.903 751.89 397.151C746.232 398.426 739.638 404.843 734.849 408.318C729.262 404.367 720.995 396.828 713.768 397.934C707.841 398.841 701.288 404.528 696.713 408.316C691.285 403.96 684.153 396.656 676.635 397.412C670.025 398.076 663.665 404.531 658.716 408.606C654.748 405.051 651.349 401.528 646.711 398.796C657.049 379.984 669.556 360.098 680.893 341.789C685.453 334.425 693.7 323.358 696.564 315.763Z"/>
	<path fill="#81AD5B" d="M348.211 239.771C347.82 232.522 348.393 225.475 351.007 218.649C355.254 207.561 364.488 199.365 375.248 194.712C390.491 188.121 408.609 188.628 423.891 194.884C437.04 200.267 444.424 209.399 449.759 222.15C449.28 225.679 448.408 229.585 448.801 233.12C449.961 233.235 450.048 233.132 450.995 232.363C453.147 230.613 454.964 228.425 457.071 226.605C465.355 219.451 474.29 216.431 485.158 217.245C500.184 218.371 516.452 226.203 526.242 237.766C531.339 243.786 534.109 251.415 533.336 259.33C532.687 265.98 529.653 273.015 525.652 278.311C513.401 280.279 503.727 284.986 496.281 295.188C491.84 301.273 488.319 309.176 486.809 316.553C448.93 331.541 410.302 320.902 374.166 306.376C362.446 332.222 342.009 348.328 315.996 358.156C298.068 364.929 278.696 368.449 259.636 365.07C255.806 364.39 246.828 361.281 243.648 361.715C240.528 359.493 237.787 356.495 235.49 353.441C228.179 343.717 225.616 331.098 227.504 319.174C229.371 307.385 236.745 295.157 246.486 288.2C254.104 282.759 261.561 281.942 270.577 283.456C266.736 275.141 265.117 266.541 267.231 257.488C270.252 244.552 280.722 233.347 291.844 226.628C301.954 220.52 315.105 216.448 326.878 219.518C337.812 222.37 342.765 230.639 348.211 239.771Z"/>
	<path d="M570.303 299.817C574.48 288.817 581.468 280.638 592.325 275.767Q593.344 275.306 594.384 274.896Q595.425 274.486 596.484 274.128Q597.543 273.77 598.619 273.465Q599.695 273.16 600.784 272.908Q601.874 272.657 602.975 272.459Q604.075 272.262 605.184 272.119Q606.293 271.976 607.408 271.889Q608.523 271.801 609.641 271.768Q610.758 271.736 611.876 271.759Q612.994 271.782 614.11 271.86Q615.225 271.938 616.335 272.071Q617.446 272.204 618.548 272.392Q619.65 272.58 620.742 272.822Q621.834 273.065 622.912 273.36Q623.99 273.656 625.053 274.005Q626.115 274.354 627.159 274.755Q628.251 275.185 629.32 275.668Q630.389 276.152 631.433 276.689Q632.476 277.225 633.492 277.813Q634.507 278.401 635.492 279.038Q636.477 279.676 637.429 280.362Q638.381 281.048 639.298 281.781Q640.215 282.514 641.094 283.292Q641.972 284.069 642.811 284.89Q643.65 285.71 644.447 286.571Q645.244 287.433 645.997 288.332Q646.75 289.232 647.458 290.169Q648.165 291.105 648.825 292.076Q649.484 293.046 650.095 294.049Q650.705 295.051 651.265 296.082Q651.825 297.114 652.332 298.172Q652.84 299.23 653.294 300.312C656.364 307.49 656.556 313.624 656.28 321.322C664.811 314.615 673.724 310.364 684.858 311.769C689.041 312.297 692.95 313.577 696.564 315.763C693.7 323.358 685.453 334.425 680.893 341.789C669.556 360.098 657.049 379.984 646.711 398.796C651.349 401.528 654.748 405.051 658.716 408.606C663.665 404.531 670.025 398.076 676.635 397.412C684.153 396.656 691.285 403.96 696.713 408.316C701.288 404.528 707.841 398.841 713.768 397.934C720.995 396.828 729.262 404.367 734.849 408.318C739.638 404.843 746.232 398.426 751.89 397.151C752.989 396.903 754.074 396.604 755.166 396.324C761.28 398.996 766.328 404.552 772.07 408.023L772.797 407.625C778.228 404.617 786.35 396.045 792.764 397.96C797.2 399.285 801.29 403.053 804.952 405.821C810.135 402.391 815.255 398.745 820.851 396.016C826.552 398.545 830.851 402.156 835.49 406.231C838.696 404.394 841.896 402.393 845.289 400.929C848.256 399.945 851.314 398.614 853.721 396.599C858.478 398.815 861.818 401.918 865.514 405.587C869.343 402.184 875.648 394.992 881.157 395.447C886.074 395.853 892.213 401.829 896.115 404.847C899.009 402.295 903.269 397.557 907.352 397.638C910.031 397.691 911.729 399.538 913.361 401.414C914.139 402.309 914.893 403.201 915.53 404.204C916.303 405.898 916.543 407.336 916.63 409.173C917.359 424.574 916.495 440.387 916.4 455.825Q916.333 502.517 915.65 549.204L914.903 697.349Q914.067 754.209 914.222 811.073C914.175 825.745 913.679 840.448 913.884 855.113C914.305 856.877 914.79 858.893 913.723 860.519C911.987 863.165 907.014 863.572 904.15 864.211C895.162 864.889 876.884 869.986 867.317 872.052C837.501 878.49 807.32 885.555 777.208 890.307C777.181 874.732 778.073 858.977 778.463 843.383Q779.912 777.681 783.193 712.045L789.139 563.318C790.972 524.846 793.61 486.45 794.141 447.927C794.321 434.884 795.218 421.36 794.114 408.384C792.817 407.092 792.787 406.795 790.893 406.615C782.916 409.415 777.788 419.869 768.457 415.573C763.017 413.069 758.701 408.497 753.233 405.987L752.446 406.368C746.316 409.391 738.213 418.955 731.064 416.332C725.13 414.156 719.256 404.53 712.33 407.27C705.955 409.792 701.463 419.43 693.456 416.288C687.659 414.013 683.062 408.393 677.696 405.165L676.972 405.6C671.452 408.95 663.37 417.932 656.607 416.376C648.875 414.597 644.515 402.123 635.478 407.274C630.1 410.34 625.571 417.402 618.467 415.772C612.689 414.446 607.486 408.615 602.374 405.597L601.585 405.793C593.178 407.909 585.69 419.448 576.603 414.422C571.66 411.688 567.465 404.806 561.089 406.476C552.305 408.777 548.587 419.973 537.862 414.377C532.782 411.728 528.906 407.41 523.455 405.351L522.734 405.716C517.588 408.354 508.281 417.776 502.381 416.146C496.007 414.386 490.15 407.802 484.097 404.816C478.951 407.839 469.129 417.022 462.917 415.486C456.507 413.902 451.204 407.41 445.026 404.811L444.38 405.129C438.494 408.084 429.033 418.316 422.33 415.912C415.997 413.64 411.395 407.897 405.603 404.658L404.88 404.982C398.817 407.749 389.299 418.385 382.591 415.833C376.446 413.495 370.347 407.664 364.921 403.889L364.314 404.282C359.188 407.653 351.091 417.57 344.648 416.171C338.709 414.881 333.268 408.696 328.287 405.35L328.783 869.5Q460.426 874.116 592.118 876.965Q655.675 877.696 719.218 879.159C734.505 879.619 750.065 879.436 765.305 880.672C768.43 880.925 771.314 881.55 773.659 883.73C774.167 884.969 774.469 885.754 773.796 887.035C773.144 888.275 772.024 889.329 770.627 889.579C764.379 890.697 752.788 889.201 745.947 889.002L685.707 887.466C650.398 886.584 328.695 880.79 321.747 876.491C319.036 873.032 319.625 868.113 319.554 863.919Q319.196 804.739 319.456 745.562L319.398 547.638L319.408 450.825C319.429 435.541 318.113 415.234 320.439 400.51C321.609 398.751 322.95 397.423 325.105 396.984C332.416 395.494 340.857 404.562 346.349 408.342C351.369 404.593 356.509 398.522 362.938 397.246C370.496 395.745 379.422 404.288 385.408 408.229C388.974 404.648 392.899 401.891 397.235 399.322Q395.08 391.53 391.683 384.194C383.063 366.037 368.491 355.869 349.948 349.333C332.081 361.319 309.403 369.264 288.086 371.864C272.201 373.802 256.533 371.817 243.648 361.715C246.828 361.281 255.806 364.39 259.636 365.07C278.696 368.449 298.068 364.929 315.996 358.156C342.009 348.328 362.446 332.222 374.166 306.376C410.302 320.902 448.93 331.541 486.809 316.553C488.319 309.176 491.84 301.273 496.281 295.188C503.727 284.986 513.401 280.279 525.652 278.311C530.254 279.107 535.053 278.304 539.652 277.813Q540.538 277.897 541.419 278.024Q542.3 278.15 543.173 278.32Q544.047 278.49 544.911 278.702Q545.775 278.915 546.628 279.169Q547.481 279.423 548.32 279.719Q549.159 280.015 549.983 280.351Q550.807 280.688 551.614 281.064Q552.42 281.44 553.207 281.856Q553.994 282.271 554.76 282.724Q555.526 283.178 556.269 283.668Q557.012 284.158 557.729 284.684Q558.447 285.21 559.139 285.771Q559.83 286.331 560.493 286.925Q561.156 287.518 561.79 288.143Q562.423 288.769 563.025 289.424Q563.627 290.08 564.196 290.764C566.475 293.555 568.477 296.71 570.303 299.817Z"/>
	<path fill="#FEFEFE" d="M449.744 332.026C462.269 331.33 473.567 328.767 485.658 325.637L486.641 326.55C486.507 330.924 487.215 335.095 488.292 339.329C480.034 336.376 472.705 335.433 464.533 339.323C460.452 341.267 457.054 343.964 453.704 346.958Q451.764 339.481 449.744 332.026Z"/>
	<path fill="#FEFEFE" d="M374.05 321.056C377.339 323.471 380.058 327.747 382.419 331.043C395.087 348.723 407.062 374.179 410.941 395.736C410.437 396.658 410.528 396.357 410.284 397.208C410.235 397.378 410.195 397.551 410.15 397.723L410.07 397.726C407.778 396.325 405.908 390.13 404.819 387.582C393.262 364.467 379.712 353.244 356.342 342.996C363.402 336.508 368.653 328.903 374.05 321.056Z"/>
	<path fill="#FEFEFE" d="M384.296 318.246C404.066 326.054 423.394 331.126 444.752 331.753C447.173 347.57 453.442 365.203 451.364 381.337C450.902 384.919 449.29 388.557 448.316 392.051L447.072 396.423L446.587 396.948C437.079 396.84 433.432 405.77 424.865 407.864C424.517 407.749 424.056 407.801 423.821 407.52C422.368 405.785 421.054 391.629 420.334 388.243C414.667 361.572 401.187 339.221 384.296 318.246Z"/>
	<path fill="#43573A" d="M570.303 299.817C574.48 288.817 581.468 280.638 592.325 275.767Q593.344 275.306 594.384 274.896Q595.425 274.486 596.484 274.128Q597.543 273.77 598.619 273.465Q599.695 273.16 600.784 272.908Q601.874 272.657 602.975 272.459Q604.075 272.262 605.184 272.119Q606.293 271.976 607.408 271.889Q608.523 271.801 609.641 271.768Q610.758 271.736 611.876 271.759Q612.994 271.782 614.11 271.86Q615.225 271.938 616.335 272.071Q617.446 272.204 618.548 272.392Q619.65 272.58 620.742 272.822Q621.834 273.065 622.912 273.36Q623.99 273.656 625.053 274.005Q626.115 274.354 627.159 274.755Q628.251 275.185 629.32 275.668Q630.389 276.152 631.433 276.689Q632.476 277.225 633.492 277.813Q634.507 278.401 635.492 279.038Q636.477 279.676 637.429 280.362Q638.381 281.048 639.298 281.781Q640.215 282.514 641.094 283.292Q641.972 284.069 642.811 284.89Q643.65 285.71 644.447 286.571Q645.244 287.433 645.997 288.332Q646.75 289.232 647.458 290.169Q648.165 291.105 648.825 292.076Q649.484 293.046 650.095 294.049Q650.705 295.051 651.265 296.082Q651.825 297.114 652.332 298.172Q652.84 299.23 653.294 300.312C656.364 307.49 656.556 313.624 656.28 321.322C664.811 314.615 673.724 310.364 684.858 311.769C689.041 312.297 692.95 313.577 696.564 315.763C693.7 323.358 685.453 334.425 680.893 341.789C669.556 360.098 657.049 379.984 646.711 398.796C634.577 395.84 630.074 404.287 619.87 408.401C614.658 405.999 611.279 401.327 606.246 398.866C597.137 394.412 589.477 404.663 581.432 407.39L580.701 407.633C574.29 404.679 569.599 399.8 562.711 397.245C556.133 399.191 551.548 404.155 545.307 406.261C538.845 408.443 533.459 401.314 528.095 398.785C518.799 394.402 514.292 404.544 506.674 406.994C500.133 409.098 494.006 401.436 488.507 398.964C478.354 394.399 474.972 404.163 466.835 406.791C462.11 408.316 452.358 398.878 447.746 396.729L447.072 396.423L448.316 392.051C448.472 392.917 448.418 393.815 448.497 394.691C448.579 395.6 448.413 395.284 449.021 395.806C459.289 384.433 457.84 371.293 455.204 357.452C454.652 354.553 453.418 350.614 453.633 347.709C453.651 347.459 453.68 347.209 453.704 346.958C457.054 343.964 460.452 341.267 464.533 339.323C472.705 335.433 480.034 336.376 488.292 339.329C487.215 335.095 486.507 330.924 486.641 326.55C486.461 323.25 486.712 319.86 486.809 316.553C488.319 309.176 491.84 301.273 496.281 295.188C503.727 284.986 513.401 280.279 525.652 278.311C530.254 279.107 535.053 278.304 539.652 277.813Q540.538 277.897 541.419 278.024Q542.3 278.15 543.173 278.32Q544.047 278.49 544.911 278.702Q545.775 278.915 546.628 279.169Q547.481 279.423 548.32 279.719Q549.159 280.015 549.983 280.351Q550.807 280.688 551.614 281.064Q552.42 281.44 553.207 281.856Q553.994 282.271 554.76 282.724Q555.526 283.178 556.269 283.668Q557.012 284.158 557.729 284.684Q558.447 285.21 559.139 285.771Q559.83 286.331 560.493 286.925Q561.156 287.518 561.79 288.143Q562.423 288.769 563.025 289.424Q563.627 290.08 564.196 290.764C566.475 293.555 568.477 296.71 570.303 299.817Z"/>
	<path fill="#8C7255" d="M915.53 404.204C916.303 405.898 916.543 407.336 916.63 409.173C917.359 424.574 916.495 440.387 916.4 455.825Q916.333 502.517 915.65 549.204L914.903 697.349Q914.067 754.209 914.222 811.073C914.175 825.745 913.679 840.448 913.884 855.113L913.387 854.994C913.418 853.494 913.318 852.479 912.576 851.151C907.983 842.938 900.952 835.185 895.186 827.674C881.974 810.464 868.473 793.497 855.429 776.155Q855.177 727.019 855.548 677.885L855.334 542.449L855.375 456.034C855.402 440.399 854.582 424.226 856.023 408.674C859.054 411.474 862.303 415.397 866.709 415.542C871.696 415.707 878.026 407.457 881.303 404.168C885.979 408.779 890.483 413.337 896.293 416.53C902.124 413.637 906.431 407.454 912.514 405.298L915.53 404.204Z"/>
	<path fill="#B3B2B2" d="M820.184 405.357L820.964 405.871C825.639 408.979 832.105 416.985 838.058 415.943C841.227 415.388 843.665 412.309 845.889 410.167C846.753 424.948 846.346 439.902 846.358 454.708L846.425 529.327L846.326 775.616C837.827 786.973 830.784 799.257 822.847 810.995Q808.78 831.551 795.663 852.725C792.541 857.655 788.691 862.272 785.876 867.374C784.951 869.05 783.859 871.206 784.257 873.182C784.46 874.187 784.95 874.471 785.624 875.201C787.07 875.687 787.962 876.156 789.482 875.49C793.177 873.87 844.409 795.278 851.452 784.855C863.321 801.845 876.277 817.923 888.896 834.349C894.116 841.145 900.424 851.14 906.157 857.049C906.808 857.72 907.37 858.013 908.309 858.152C909.53 858.333 910.652 858.009 911.588 857.211C912.332 856.576 912.918 855.851 913.387 854.994L913.884 855.113C914.305 856.877 914.79 858.893 913.723 860.519C911.987 863.165 907.014 863.572 904.15 864.211C895.162 864.889 876.884 869.986 867.317 872.052C837.501 878.49 807.32 885.555 777.208 890.307C777.181 874.732 778.073 858.977 778.463 843.383Q779.912 777.681 783.193 712.045L789.139 563.318C790.972 524.846 793.61 486.45 794.141 447.927C794.321 434.884 795.218 421.36 794.114 408.384C797.774 411.46 801.651 416.094 806.648 416.582C811.117 415.514 816.089 408.23 820.184 405.357Z"/>
</svg>
