<svg width="200" height="200" viewBox="0 0 200 200" fill="none" xmlns="http://www.w3.org/2000/svg">
<rect width="200" height="200" fill="white"/>
<path d="M138.966 92.5455C137.457 91.1279 136.215 89.5521 135.832 87.4796C135.47 85.5178 135.471 82.8225 135.792 80.8607C136.146 78.7041 140.321 66.0607 141.515 64.3724C141.69 64.2436 141.797 64.1768 142.019 64.1512C144.262 63.8918 146.663 64.0464 148.929 64.0394L162.7 64.0663L181.687 64.172C185.284 64.1913 188.928 64.1012 192.519 64.2941C193.121 64.3264 193.639 64.3056 194.135 64.6846C195.399 66.9964 195.99 69.9396 196.848 72.4397C197.81 75.2423 199.26 78.164 199.744 81.0873C200.066 83.0362 200.028 85.4028 199.636 87.3386C198.993 90.5099 197.045 92.1879 194.447 93.8939C194.711 95.99 194.415 98.2687 194.406 100.388L194.348 121.872C194.347 124.986 194.171 128.21 194.318 131.309C194.34 131.762 194.321 131.992 194.602 132.368L194.928 132.389C196.212 132.812 197.701 132.323 198.973 132.78C199.49 132.966 199.788 133.24 199.999 133.736C200.009 134.333 199.976 134.949 199.506 135.388C198.495 136.337 193.556 135.9 192.108 135.898L60.3325 135.893L19.3028 135.879L7.60502 135.891C5.65322 135.895 3.54011 136.054 1.60436 135.83C1.08742 135.769 0.58101 135.517 0.279782 135.083C0.0370143 134.732 -0.00920079 134.313 0.100738 133.908C0.609186 132.038 2.98504 133.147 4.25487 132.393C4.28758 132.373 4.31903 132.35 4.3511 132.33C4.57036 125.199 4.42887 118.069 4.40372 110.936C4.3827 104.98 4.50299 99.0031 4.35126 93.0502C4.0979 92.8698 3.84853 92.6842 3.60315 92.4933C1.59818 90.924 0.399426 88.9078 0.121179 86.3932C-0.0462129 84.8803 -0.0623284 83.2795 0.214636 81.7784C0.598816 79.6957 5.03614 65.5614 5.87845 64.5139C6.56903 64.2737 7.24725 64.2037 7.97583 64.1752C11.0499 64.055 14.173 64.1741 17.2516 64.1804L35.9694 64.196L50.4201 64.163C52.9654 64.1499 57.2373 63.7612 59.5771 64.3531C60.8255 66.3175 62.9121 73.9612 63.8866 76.8116C64.411 78.346 65.2013 79.9393 65.5534 81.5045C65.8315 82.7417 65.6848 84.2555 65.6662 85.5286C65.6159 89.014 64.6968 90.4475 62.233 92.8136C62.2847 95.6388 62.1424 98.4971 62.1156 101.325L62.0691 117.671C62.0801 121.266 62.0567 124.862 61.9988 128.456C61.9851 129.509 62.1698 130.68 62.0137 131.703C61.9606 132.051 61.9396 132.348 61.9654 132.699C62.9229 132.873 71.9263 132.841 72.5457 132.543L72.5526 107.619C72.5668 102.96 72.8545 98.0957 72.4029 93.4588C70.3259 91.7179 68.5542 90.8312 67.8142 88.0157C67.345 86.2316 67.1621 83.7583 67.4841 81.933C67.8137 80.0651 72.7881 66.1379 73.8122 64.4294C77.0641 63.9314 80.7031 64.2067 83.994 64.1931L104.639 64.187L119.394 64.1836C122.022 64.1836 124.914 63.9448 127.501 64.3577C128.571 66.3451 128.993 68.934 129.691 71.088C130.765 74.4011 132.102 77.6949 133.002 81.051C133.152 81.6093 133.203 82.2013 133.232 82.7761C133.401 86.0661 133.323 89.5634 130.605 91.8703C129.782 92.5684 128.727 93.157 128.038 93.986C127.829 94.238 127.677 94.5359 127.65 94.8639C127.499 96.6682 127.658 98.6038 127.659 100.42C127.648 104.737 127.664 109.054 127.709 113.371L127.729 125.525C127.74 127.832 127.642 130.22 127.91 132.511C129.461 132.701 137.963 132.905 138.953 132.391C139.318 126.677 139.026 120.895 139.091 115.17C139.136 110.695 139.155 106.22 139.149 101.744C139.152 98.6914 139.261 95.5863 138.966 92.5455Z" fill="#231F20"/>
<path d="M20.8313 103.036C25.7732 102.914 30.7813 103.141 35.7327 103.138C39.8003 103.136 44.1276 102.826 48.1702 103.209C48.7326 103.262 49.1391 103.29 49.4829 103.775C49.7486 104.15 49.831 104.656 49.8625 105.102C50.166 109.385 49.8722 113.83 49.8734 118.136C49.8884 121.247 49.884 124.357 49.8602 127.468C49.8435 128.942 49.9236 130.51 49.7107 131.968C49.6581 132.243 49.5998 132.386 49.4317 132.611C47.3963 133.397 32.7012 132.752 29.4531 132.738C27.2552 132.731 25.0475 132.674 22.8506 132.681C21.6612 132.688 20.4823 132.792 19.2943 132.695C18.8679 130.857 18.8959 104.935 19.4367 103.959C19.7212 103.445 20.304 103.221 20.8313 103.036Z" fill="#FEFEFE"/>
<path d="M33.6356 110C33.7882 110.004 33.937 110.012 34.0879 110.04C35.3646 110.277 42.1694 116.229 42.8601 117.453C43.0433 117.777 43.025 117.949 42.9282 118.294C42.4791 118.778 41.5961 118.847 40.9719 118.972C40.174 120.635 41.0097 122.355 41.0515 124.048C41.0613 124.445 40.9477 124.788 40.6644 125.065C39.5293 126.175 36.8034 125.847 35.3747 125.831C33.3705 125.808 31.3708 126.021 29.3811 125.998C28.8191 125.994 28.2084 125.868 27.826 125.411C26.8657 124.259 27.3158 121.521 27.3341 120.118C27.3407 119.607 27.3129 119.256 26.9628 118.887C26.6776 118.925 26.3087 119.007 26.0238 118.974C25.6293 118.929 25.3236 118.63 25.1232 118.292C25.035 118.144 24.9755 117.913 25.0099 117.745C25.402 115.83 31.7557 111.222 33.6356 110Z" fill="#231F20"/>
<path d="M33.6338 113C33.8177 113.016 33.9689 113.047 34.129 113.151C35.7 114.173 37.2899 115.64 37.7257 117.593C37.9777 118.723 38.2452 121.656 37.5912 122.631C37.3678 122.964 37.2307 122.935 36.871 123C36.1486 122.586 36.7565 120.849 35.7608 119.753C35.7234 119.712 35.6845 119.672 35.6462 119.631C34.8931 119.613 34.1345 119.584 33.3815 119.598C30.835 119.648 32.1043 121.784 31.1264 122.846C30.673 122.833 30.4688 122.928 30.1464 122.578C30.2761 121.108 30.16 119.371 30.1563 117.877C30.1551 117.453 29.9699 117.014 30.0042 116.591C30.0723 115.753 32.9293 113.606 33.6338 113Z" fill="#FEFEFE"/>
<path d="M116.592 91C119.169 93.6447 121.213 94.3573 124.885 94.5245C125.239 107.195 124.637 119.909 124.914 132.579C123.701 133.249 119.099 132.887 117.571 132.726C117.477 132.484 117.568 109.259 117.545 106.639C117.527 104.656 117.449 102.916 115.901 101.458C115.452 101.036 114.945 100.751 114.343 100.6C111.564 99.9058 103.931 100.29 100.739 100.353C97.4591 100.371 89.5535 99.7339 86.9026 100.881C85.8321 101.344 85.0036 102.252 84.5857 103.317C84.4587 103.64 84.3554 103.971 84.2756 104.309C84.1958 104.646 84.1403 104.988 84.1091 105.333C83.7241 109.777 84.0222 114.446 84.0167 118.912C84.0116 122.874 83.7004 127.004 84.0179 130.945C84.0695 131.583 84.2208 132.117 84.4848 132.701C83.0655 133.011 77.6079 133.186 76.2535 132.685C75.8561 130.868 76.048 128.696 76.0354 126.829C75.9896 122.72 75.9984 118.61 76.0616 114.5C76.1171 107.904 75.9119 101.292 76.0715 94.701C76.7484 94.424 77.7793 94.6542 78.5262 94.6444C81.4139 94.6064 83.6188 93.1451 85.5464 91.1573C85.7218 91.3464 85.9024 91.5306 86.0882 91.7098C88.1457 93.7147 90.7036 94.5824 93.5789 94.5467C96.7415 94.5078 98.8655 93.2456 101.021 91.0772C101.264 91.4435 101.533 91.7811 101.85 92.0893C103.652 93.8439 106.391 94.4403 108.847 94.4197C112.047 94.3926 114.382 93.2184 116.592 91Z" fill="#FEFEFE"/>
<path d="M167.542 91.423C168.133 91.9307 168.744 92.4534 169.384 92.9019C171.624 94.4712 174.368 94.9723 177.062 94.5349C179.464 94.1448 181.42 92.9429 182.823 91C185.436 93.6513 187.222 94.6246 190.997 94.7877C191.012 103.356 190.971 111.924 190.876 120.492C190.847 124.505 191.078 128.6 190.784 132.601C189.612 132.913 184.74 133.023 183.625 132.552C183.331 129.59 183.509 126.448 183.519 123.468C183.556 118.271 183.558 113.073 183.523 107.876C183.525 105.81 183.607 103.615 182.002 102.053C181.676 101.735 181.223 101.3 180.793 101.134C178.219 100.143 172.462 100.571 169.57 100.557L159.578 100.551C157.647 100.557 155.392 100.37 153.517 100.79C152.683 100.977 151.796 101.395 151.195 101.999C150.399 102.798 150.025 103.899 149.863 104.984C149.444 107.799 149.739 111.069 149.732 113.924L149.717 132.662C149.599 132.737 149.476 132.82 149.341 132.861C148.46 133.129 142.934 132.992 142.165 132.599C142.062 132.04 142.077 131.417 142.063 130.846C141.979 127.519 141.942 95.4241 142.195 94.668C142.222 94.5849 142.317 94.5414 142.378 94.478C143.118 94.5055 143.865 94.5407 144.606 94.5197C147.52 94.4365 150.051 93.1324 152.022 91.065C152.364 91.3949 152.712 91.7197 153.064 92.0393C155.184 93.9429 157.821 94.7792 160.676 94.6226C160.838 94.6133 161 94.6001 161.161 94.5831C161.322 94.5663 161.483 94.5455 161.644 94.5209C161.804 94.4964 161.964 94.4681 162.123 94.4361C162.282 94.4039 162.44 94.368 162.597 94.3285C162.754 94.2889 162.91 94.2457 163.065 94.1988C163.221 94.1518 163.374 94.1013 163.527 94.0472C163.68 93.9929 163.831 93.9351 163.981 93.8739C164.131 93.8126 164.279 93.7477 164.426 93.6792C164.572 93.611 164.717 93.5392 164.86 93.464C165.003 93.3888 165.145 93.3103 165.284 93.2285C165.423 93.1466 165.561 93.0614 165.696 92.9732C165.831 92.8849 165.964 92.7934 166.095 92.6986C166.225 92.604 166.353 92.5064 166.479 92.4058C166.605 92.3051 166.729 92.2014 166.85 92.095C166.97 91.9885 167.089 91.8792 167.204 91.7672C167.32 91.6552 167.432 91.5404 167.542 91.423Z" fill="#FEFEFE"/>
<path d="M17.8103 91C18.0955 91.3385 18.3967 91.6624 18.7136 91.9718C20.6093 93.8072 23.9597 94.5696 26.5294 94.5079C29.4019 94.4389 31.4416 93.006 33.3639 91.0215C33.5623 91.2868 33.777 91.5385 34.0077 91.7765C35.9031 93.7411 38.7367 94.5081 41.3986 94.5285C44.7156 94.5538 46.8668 93.4135 49.1596 91.1403C51.1165 93.4936 53.2716 94.6101 56.3471 94.6013C57.1375 94.599 58.1125 94.5237 58.8472 94.8036C59.1635 96.9071 58.8966 99.2735 58.8597 101.404C58.8048 104.58 58.8301 107.761 58.8294 110.937L58.8831 124.355C58.8997 126.615 59.1339 129.122 58.8267 131.355C58.7591 131.848 58.6369 132.077 58.2158 132.36C56.8978 133.247 53.7047 133.054 52.2142 132.72C51.627 131.348 52.0296 128.436 52.0553 126.925L52.175 113.438C52.2073 110.704 52.4729 107.693 52.0985 104.985C51.9718 104.067 51.6891 103.188 51.1916 102.4C50.5368 101.363 49.6369 100.782 48.4334 100.537C46.3784 100.119 44.1755 100.299 42.0846 100.297L33.9964 100.271L24.896 100.314C23.4134 100.313 21.8902 100.179 20.4135 100.326C19.4276 100.424 18.395 100.666 17.5793 101.252C16.6523 101.918 16.094 103.031 15.8935 104.127C15.6623 104.745 15.6172 105.329 15.5903 105.983C15.3662 111.427 15.5526 116.967 15.5289 122.42C15.5212 124.212 15.2296 131.244 15.5837 132.48C15.4445 132.611 15.3398 132.686 15.1554 132.751C14.2225 133.082 8.96985 133.016 8.13002 132.579C7.91358 127.412 8.0317 122.222 8.03603 117.05L8.03512 94.4183C9.04905 94.5511 10.037 94.616 11.0592 94.5323C13.913 94.299 15.9736 93.1521 17.8103 91Z" fill="#FEFEFE"/>
<path d="M155.748 103.099C159.864 102.875 164.131 103.099 168.259 103.121C171.721 103.14 175.392 102.924 178.832 103.237C179.342 103.284 179.937 103.311 180.27 103.743C180.719 104.326 180.841 105.192 180.894 105.907C181.148 109.405 180.863 113.065 180.888 116.582C180.915 120.046 180.922 123.509 180.908 126.973C180.904 128.874 181.023 130.865 180.794 132.753C179.351 132.998 174.666 133.19 173.445 132.604C173.06 132.81 172.771 132.895 172.328 132.929C170.004 133.117 167.649 132.872 165.321 132.868C161.366 132.858 157.285 133.165 153.35 132.758C153.316 132.662 153.263 132.524 153.24 132.419C152.832 130.554 153.168 123.412 153.169 121.019C153.17 115.887 152.831 110.629 153.11 105.516C153.143 104.915 153.218 104.139 153.61 103.651C154.074 103.074 155.072 103.143 155.748 103.099Z" fill="#FEFEFE"/>
<path d="M175.247 112C175.581 112.087 175.947 112.229 176.234 112.42C176.674 112.713 176.904 113.033 177 113.542C176.693 115.081 165.71 125.773 163.897 127C163.271 126.913 162.846 126.826 162.39 126.348C162.033 125.973 161.996 125.641 162 125.144C162.743 123.34 173.227 113.213 175.247 112Z" fill="#231F20"/>
<path d="M167.182 110C167.903 110.147 168.378 110.236 168.848 110.772C168.962 111.062 169.048 111.326 168.97 111.634C168.478 113.581 161.961 118.819 159.992 120C159.397 119.907 158.81 119.818 158.36 119.429C157.995 119.113 157.985 118.758 158.007 118.336C158.823 116.661 165.305 111.09 167.182 110Z" fill="#231F20"/>
<path d="M88.2619 103.126C92.0572 102.895 95.9791 103.099 99.7908 103.094C103.557 103.089 107.489 102.863 111.236 103.131C111.942 103.181 113.04 103.216 113.591 103.701C114.28 106.317 113.873 115.134 113.879 118.42C113.886 122.23 114.119 126.137 113.92 129.937C113.889 130.52 113.861 131.4 113.54 131.906C113.29 132.303 113.121 132.353 112.68 132.442C112.659 132.467 112.64 132.492 112.617 132.512C112.413 132.706 112.235 132.818 111.955 132.843C108.54 133.173 104.859 132.882 101.413 132.872C97.51 132.863 93.4612 133.093 89.5705 132.834C88.7881 132.779 88.0443 132.603 87.5406 131.942C87.1299 131.405 87.1388 129.955 87.1079 129.301C86.9076 125.066 87.1536 120.704 87.1365 116.454C87.1256 113.731 86.7749 106.769 87.2424 104.366C87.3655 103.732 87.7552 103.473 88.2619 103.126Z" fill="#FEFEFE"/>
<path d="M105.112 115C105.652 115.002 106.299 114.964 106.702 115.397C106.932 115.644 107.031 115.883 106.991 116.232C106.8 117.922 100.545 123.655 99.0412 124.989C98.8454 124.998 98.6487 125.005 98.4526 124.996C97.8792 124.971 97.5008 124.759 97.127 124.328C97.0284 124.067 96.964 123.867 97.022 123.583C97.4116 121.682 103.411 116.257 105.112 115Z" fill="#231F20"/>
<path d="M21.0571 67.1211C24.5431 67.1135 29.7252 66.762 33 67.2929C32.5017 68.1689 32.7207 78.9547 32.7107 80.866L30.8993 80.9252C28.648 80.9743 26.3854 80.9335 24.133 80.9471C22.4795 80.957 20.6959 81.0988 19.0597 80.8725C18.6014 80.1301 20.9289 69.0075 21.0571 67.1211Z" fill="#FEFEFE"/>
<path d="M35.2142 67.0787C37.9598 67.0564 40.7674 66.9259 43.507 67.0591C44.1462 67.0902 45.0336 67.0852 45.4884 67.5792C46.0481 68.8813 48.2928 79.9493 47.9681 80.874L46.5773 81C42.7565 80.8882 38.9204 80.9235 35.0981 80.8924C34.8678 76.3392 35.1001 71.6398 35.2142 67.0787Z" fill="#FEFEFE"/>
<path d="M106.478 67L112.519 67.0685C113.582 71.6679 114.019 76.3844 115 80.9898L110.699 80.9669C107.903 81.0244 105.071 81.0084 102.277 80.908L102 67.0921C103.489 67.0248 104.987 67.0257 106.478 67Z" fill="#FEFEFE"/>
<path d="M156.03 67C158.416 67.1374 160.864 67.1287 163.256 67.1247C164.376 67.1229 165.567 66.9749 166.672 67.1562C166.689 67.3164 166.703 67.4767 166.715 67.6372C166.837 69.257 167.311 80.2481 166.678 80.9264L166.027 80.9653C164.224 80.9593 154.827 81.1675 154.003 80.6292C153.926 79.6197 155.573 68.0615 156.03 67Z" fill="#FEFEFE"/>
<path d="M89.7157 67.1262C93.0772 66.8638 96.6198 67.0871 100 67.1182C99.8154 71.6722 100.063 76.2507 99.9312 80.8098L97.285 80.8826C94.9714 80.8689 90.6631 81.163 88.6214 80.8684C88.2783 80.8189 88.2088 80.8495 88.0077 80.5771C87.8834 79.2842 89.2961 68.1269 89.7157 67.1262Z" fill="#FEFEFE"/>
<path d="M169 67.1827C170.735 66.9846 177.938 66.877 179.533 67.2363C180.029 68.0346 181.749 78.9404 182 80.6615C181.635 80.9648 181.481 80.9123 181.004 80.9419C179.313 80.9373 170.429 81.1916 169.472 80.671C168.692 78.2287 169.341 70.4654 169.014 67.3052L169 67.1827Z" fill="#FEFEFE"/>
<path d="M9.40449 67L19 67.0229C18.9018 69.2963 17.4082 79.2052 16.5056 80.6761C15.8124 80.7949 15.1006 80.7971 14.3989 80.8238C12.9452 80.8602 5.78516 81.267 5 80.7046C5.02797 80.4786 5.06242 80.2537 5.10335 80.0297C5.34206 78.769 8.34635 68.0186 8.97108 67.292C9.0583 67.1905 9.28629 67.0795 9.40449 67Z" fill="#FEFEFE"/>
<path d="M118.062 67.0292C120.501 66.9672 122.955 67.0254 125.396 67.0116C126.928 71.527 128.916 76.131 130 80.7475C129.545 81.0635 129.013 80.9705 128.452 80.9877C124.904 81.0141 121.356 80.998 117.808 80.9393C116.386 76.7421 116.098 71.5087 115 67.1037L118.062 67.0292Z" fill="#FEFEFE"/>
<path d="M182 67.0556C185.095 66.948 188.24 67.014 191.336 67.1063C192.487 69.7857 193.323 72.6334 194.238 75.4021C194.82 77.1631 195.543 78.9676 196 80.7592L195.701 80.8494C193.253 81.0221 186.803 81.1206 184.57 80.7212C183.656 80.0256 182.548 69.0719 182 67.0556Z" fill="#FEFEFE"/>
<path d="M76.0067 67.1396C78.413 67.0772 83.7971 66.8129 85.9596 67.232C85.9728 67.28 85.9877 67.3274 85.9994 67.3756C86.0351 67.5233 84.4275 78.4622 84.247 79.4009C84.1509 79.9012 84.056 80.3219 83.7556 80.7562C83.0124 81.0097 82.1751 80.9297 81.3948 80.9223C78.0446 80.9234 74.3029 81.1934 71 80.7203C72.9367 76.2727 74.2267 71.6277 76.0067 67.1396Z" fill="#FEFEFE"/>
<path d="M143.73 67.0353C146.82 66.988 149.91 66.9882 153 67.0359C152.093 71.6622 151.821 76.3635 150.991 80.9969L147.866 81L139 80.9962C139.45 78.5222 142.521 68.8525 143.73 67.0353Z" fill="#FEFEFE"/>
<path d="M50.9861 67C52.9576 67.3572 55.8586 67.0689 57.9213 67.0671C58.6024 68.814 59.1487 70.6203 59.8041 72.3785C60.8665 75.2279 62.0217 78.025 63 80.9052L60.6104 81C57.3252 80.8755 54.0318 81.0126 50.745 80.8535C50.5015 78.9114 50.026 76.9714 49.6743 75.0426C49.1962 72.4206 48.9089 69.5755 48 67.0664L50.9861 67Z" fill="#FEFEFE"/>
<path d="M36.0052 84.0276C39.9745 83.9867 43.9802 84.1546 47.9408 84C48.0901 86.4497 48.0814 88.2747 46.3697 90.2063C45.3258 91.0288 44.2798 91.595 42.9627 91.8559C41.1933 92.2065 39.2111 91.9253 37.6985 90.9257C36.2943 89.9977 35.4368 88.5317 35.1202 86.9116C34.9803 86.1962 34.871 84.8411 35.342 84.2393C35.5018 84.0352 35.7565 84.0651 36.0052 84.0276Z" fill="#FEFEFE"/>
<path d="M71.0385 84C74.257 84.537 80.3808 84.1491 83.9889 84.253C84.0209 86.0359 84.0432 87.5454 83.1533 89.1452C82.8852 89.55 82.6095 89.9236 82.255 90.2608C80.9886 91.4653 79.2089 92.0521 77.4573 91.9964C75.6192 91.9379 73.7657 91.1747 72.5267 89.8311C70.9494 88.1202 70.9295 86.1633 71.0385 84Z" fill="#FEFEFE"/>
<path d="M20 84.0293C23.9893 84.1342 28.0079 84.0057 32 84C31.7525 86.7182 32.3199 88.0591 30.4703 90.294C29.2428 91.3485 27.9344 91.9442 26.3189 91.9964C24.6292 92.0511 23.0135 91.4868 21.7929 90.2521C20.0232 88.4616 20.0139 86.4286 20 84.0293Z" fill="#FEFEFE"/>
<path d="M158.04 84.018C161.012 83.9669 164.031 84.0266 167 84.1734C166.966 85.5336 166.995 86.9665 166.561 88.2719C166.013 89.9223 164.877 90.8282 163.367 91.5898C162.431 91.8294 161.535 92.0068 160.565 91.9998C158.801 91.9874 157.099 91.3702 155.858 90.0993C154.203 88.4041 153.987 86.3465 154.001 84.1072C155.342 84.0247 156.696 84.038 158.04 84.018Z" fill="#FEFEFE"/>
<path d="M170.912 84C174.4 84.2762 178.043 83.9847 181.556 84.107L181.561 84.273L181.912 84.1943C182.044 84.7237 181.995 85.4014 181.973 85.9508C181.89 88.0349 180.975 89.4651 179.484 90.8283C179.009 91.1314 178.482 91.3798 177.954 91.5768C176.308 92.1912 174.29 92.1434 172.701 91.389C171.076 90.6173 169.938 89.1938 169.367 87.5192C168.991 86.416 168.79 85.3418 169.334 84.256C169.787 83.9642 170.386 84.0195 170.912 84Z" fill="#FEFEFE"/>
<path d="M4.66384 84.0643C8.24107 84.2986 12.172 83.6712 15.6977 84.2617C16.1178 84.7892 15.9935 86.0395 15.9432 86.6812C15.7919 88.6021 15.1971 89.5118 13.7489 90.7443C12.4267 91.6017 11.1365 92.1254 9.52479 91.9741C7.86658 91.8185 6.42664 90.9372 5.4013 89.6517C4.48093 88.4982 3.83388 86.9363 4.03766 85.4443C4.1338 84.7405 4.09528 84.4971 4.66384 84.0643Z" fill="#FEFEFE"/>
<path d="M118.056 84.0797C122.269 83.8664 126.593 84.1328 130.807 84.2791C130.875 84.6253 130.929 84.9735 130.968 85.3238C131.159 87.1469 130.487 88.7624 129.287 90.1445C129.214 90.2083 129.141 90.2714 129.067 90.3338C127.639 91.5311 125.676 92.1125 123.783 91.982C123.681 91.9754 123.579 91.9665 123.477 91.9552C123.376 91.9438 123.275 91.9301 123.174 91.9141C123.073 91.8981 122.973 91.8797 122.873 91.8589C122.773 91.8384 122.674 91.8154 122.575 91.7901C122.477 91.7648 122.379 91.7371 122.282 91.7071C122.184 91.6774 122.088 91.6453 121.992 91.6108C121.897 91.5765 121.802 91.54 121.709 91.5011C121.615 91.4624 121.522 91.4214 121.431 91.3783C121.339 91.3353 121.249 91.2901 121.159 91.2427C121.07 91.1954 120.982 91.1461 120.896 91.0948C120.809 91.0434 120.723 90.99 120.64 90.9345C120.556 90.8791 120.473 90.8219 120.392 90.7627C120.311 90.7034 120.232 90.6424 120.154 90.5796C120.076 90.5166 120 90.4519 119.925 90.3855C119.851 90.319 119.778 90.2509 119.707 90.181C119.636 90.1111 119.566 90.0396 119.499 89.9666C118.061 88.3824 117.878 86.0841 118.056 84.0797Z" fill="#FEFEFE"/>
<path d="M87.2177 84.0594C91.1198 84.0367 95.1047 83.8903 98.9986 84.164C99.016 86.3691 98.8839 87.5199 97.5817 89.4062C97.1259 89.826 96.5596 90.1612 95.9839 90.4164C94.3641 91.1345 92.3617 91.1857 90.6887 90.5931C89.2355 90.0782 88.0697 89.1147 87.4576 87.7696C87.0227 86.8145 86.8105 85.0286 87.2177 84.0594Z" fill="#FEFEFE"/>
<path d="M51.3825 84.0149C53.3665 84.0843 61.7896 83.8098 62.8842 84.303C63.0224 84.944 63.0096 85.5986 62.9831 86.2509C62.9072 88.1124 62.2517 89.4238 60.886 90.6633C59.9543 91.2284 59.0526 91.6959 57.9704 91.896C56.4326 92.1807 54.8713 91.8814 53.5804 90.9901C52.2504 90.0718 51.3972 88.5983 51.1246 87.0182C50.973 86.1394 50.8669 84.7513 51.3825 84.0149Z" fill="#FEFEFE"/>
<path d="M102 84C104.533 84.0791 107.067 84.113 109.602 84.1017C111.201 84.1013 112.933 83.9766 114.511 84.2184C114.867 84.5104 114.961 84.6367 114.991 85.0771C115.097 86.5889 114.209 88.1513 113.183 89.3053C112.023 90.3853 110.483 90.8938 108.815 90.9855C107.1 91.08 105.311 90.7204 104.009 89.6927C102.162 88.236 102.127 86.0152 102 84Z" fill="#FEFEFE"/>
<path d="M185.244 84.0618C186.948 84.0375 195.825 83.8351 196.805 84.3261C196.859 84.4623 196.907 84.5976 196.937 84.7422C197.272 86.3358 196.201 88.5953 195.357 89.865C194.899 90.4383 194.364 90.9651 193.723 91.3039C192.29 92.0608 190.502 92.2183 188.976 91.6883C187.526 91.1846 186.249 90.0458 185.593 88.5935C185.02 87.3238 184.782 85.3823 185.244 84.0618Z" fill="#FEFEFE"/>
<path d="M139.048 84.0971C142.096 84.1997 147.944 83.7048 150.576 84.296C150.806 84.5322 150.895 84.5797 150.948 84.9015C151.231 86.6152 150.309 88.7485 149.289 90.0983C149.07 90.3118 148.846 90.5195 148.616 90.7216C147.549 91.6525 146.161 92.086 144.743 91.9859C144.643 91.9781 144.543 91.968 144.444 91.9554C144.344 91.9428 144.245 91.9279 144.146 91.9106C144.047 91.8933 143.949 91.8735 143.851 91.8514C143.754 91.8292 143.656 91.8048 143.56 91.7781C143.463 91.7514 143.368 91.7224 143.273 91.691C143.177 91.6596 143.083 91.6259 142.99 91.5899C142.896 91.5541 142.804 91.516 142.712 91.4755C142.62 91.4351 142.53 91.3926 142.441 91.3478C142.351 91.3031 142.263 91.2563 142.176 91.2074C142.089 91.1584 142.003 91.1074 141.918 91.0543C141.834 91.001 141.75 90.9459 141.669 90.8889C141.587 90.8317 141.507 90.7726 141.428 90.7116C141.349 90.6506 141.271 90.5877 141.196 90.5229C141.12 90.4583 141.046 90.3919 140.973 90.3236C140.901 90.2552 140.83 90.1852 140.761 90.1136C140.692 90.0418 140.625 89.9685 140.559 89.8935C139.039 88.1564 138.893 86.28 139.048 84.0971Z" fill="#FEFEFE"/>
</svg>
