<?xml version="1.0" encoding="utf-8" ?>
<svg xmlns="http://www.w3.org/2000/svg" xmlns:xlink="http://www.w3.org/1999/xlink" width="1024" height="1024">
	<path fill="#FEFEFE" d="M0 0L1024 0L1024 1024L0 1024L0 0Z"/>
	<path fill="#231F20" d="M94.8928 629.018Q95.4692 629.037 96.0442 629.082C98.1143 629.253 100.052 629.78 101.433 631.412C101.626 632.334 101.793 632.65 101.535 633.595C100.206 638.458 92.2422 642.154 88.1531 644.553C87.4825 644.655 87.233 644.719 86.5039 644.698C84.7711 644.65 82.5401 643.673 81.4701 642.421C81.0293 640.694 81.3231 639.358 82.163 637.827C84.8459 632.936 89.8251 630.627 94.8928 629.018Z"/>
	<path fill="#231F20" d="M227.429 472.894C228.03 472.894 228.674 472.872 229.269 472.972C230.807 473.229 232.037 474.769 232.847 475.987C235.337 479.732 238.328 487.29 237.278 491.901C236.839 493.828 235.722 494.536 234.184 495.548C233.783 495.595 233.38 495.626 232.977 495.646C230.863 495.75 229.306 495.556 227.721 493.985C224.662 490.954 223.662 486.072 223.756 481.917C223.84 478.142 224.62 475.478 227.429 472.894Z"/>
	<path fill="#231F20" d="M309.207 481.972C309.709 482.022 310.086 482.045 310.565 482.138C312.137 482.446 313.083 483.295 313.941 484.623C314.062 485.361 314.126 485.991 313.915 486.725C312.322 492.257 298.956 501.785 293.767 504.421C293.5 504.456 293.234 504.542 292.965 504.528C291.872 504.469 290.838 503.99 290.008 503.312C289.58 502.138 289.722 501.012 290.106 499.84C292.475 492.607 302.639 485.1 309.207 481.972Z"/>
	<path fill="#231F20" d="M150.342 499.484C150.616 499.467 150.89 499.446 151.164 499.432C155.281 499.228 157.875 501.303 160.791 503.956C164.705 507.518 171.404 513.907 171.643 519.448C171.159 521.109 170.273 521.71 168.98 522.731C166.729 521.708 148.326 507.105 147.547 505.223C147.534 502.496 148.513 501.372 150.342 499.484Z"/>
	<path fill="#231F20" d="M375.538 607.582C379.052 607.271 383.229 607.214 386.17 609.45C386.713 610.694 386.91 611.271 386.476 612.602C384.906 617.418 378.695 619.952 374.583 621.961C373.687 622.441 372.786 622.931 371.852 623.331C370.213 624.035 368.28 624.182 366.684 623.26C365.449 622.547 364.857 621.422 364.524 620.081C363.997 617.953 364.864 615.29 365.987 613.494C368.332 609.745 371.412 608.579 375.538 607.582Z"/>
	<path fill="#231F20" d="M112.452 561.18C115.01 561.154 117.398 561.259 119.805 562.216C122.018 563.095 123.613 563.977 124.623 566.2C124.64 566.952 124.667 567.612 124.32 568.307C122.192 572.574 113.205 571.72 108.897 572.951L108.121 573.178C105.493 574.023 101.999 574.572 99.4206 573.274C98.2629 572.691 97.2944 571.685 96.9829 570.399C96.6226 568.911 97.1878 567.462 98.0828 566.292C101.289 562.1 107.637 561.765 112.452 561.18Z"/>
	<path fill="#231F20" d="M371.429 536.471C373.592 536.411 375.909 536.177 377.636 537.75C378.713 538.731 378.91 539.439 379.083 540.845C377.738 546.179 362.802 552.053 357.718 555.226C357.47 555.305 357.228 555.399 356.976 555.463C355.121 555.935 353.217 555.344 351.695 554.216C350.568 553.382 350.466 552.762 350.317 551.435C352.483 545.494 365.847 539.547 371.429 536.471Z"/>
	<path fill="#231F20" d="M559.496 562.617C560.026 562.53 560.939 562.303 561.503 562.359C562.812 562.489 563.978 563.594 564.599 564.73C565.289 565.993 565.034 566.362 564.562 567.587C558.865 572.834 537.877 572.64 529.62 573.317C529.471 573.337 529.323 573.366 529.173 573.377C527.405 573.511 526.452 573.241 525.075 572.144C524.399 570.741 524.37 570.589 524.576 569.047C525.542 567.605 526.516 566.865 528.175 566.367C530.969 565.528 534.354 565.743 537.259 565.536C544.25 565.039 551.737 564.426 558.568 562.837L559.496 562.617Z"/>
	<path fill="#231F20" d="M519.546 364.23C520.468 364.318 521.816 364.335 522.683 364.697C523.713 365.126 525.031 366.614 525.407 367.694C525.852 368.97 525.638 369.221 524.996 370.272C523.725 371.055 522.649 371.416 521.157 371.599C518.251 371.957 515.185 371.751 512.241 371.946C504.349 372.47 496.46 373.165 488.551 373.352C488.058 373.333 487.571 373.274 487.083 373.201C484.944 372.882 484.033 372.02 482.806 370.359C482.596 369.018 482.613 369.077 483.355 367.934C484.421 367.309 485.333 366.86 486.556 366.628C490.803 365.824 495.519 366.074 499.844 365.783C506.416 365.341 512.967 364.65 519.546 364.23Z"/>
	<path fill="#231F20" d="M562.718 631.686C565.643 631.39 567.014 631.383 569.484 633.074C570.038 634.121 570.093 634.121 569.863 635.272C565.814 640.762 543.608 641.302 536.122 643.062L535.369 643.244C534.111 643.633 532.332 644.387 531.014 644.212C529.465 644.006 528.243 642.758 527.459 641.529C527.456 640.286 527.414 639.938 528.227 638.913C531.655 634.587 556.402 632.54 562.718 631.686Z"/>
	<path fill="#231F20" d="M543.54 491.232C544.126 491.258 544.945 491.239 545.526 491.406C546.688 491.74 547.705 492.669 548.207 493.771C548.801 495.073 548.617 495.771 548.184 497.07C547.153 497.984 546.341 498.342 544.974 498.573C540.462 499.334 535.68 499.271 531.114 499.704C524.547 500.326 518.026 501.438 511.544 502.641C510.719 502.684 509.974 502.722 509.171 502.455C508.046 502.08 507.17 501.244 506.803 500.105Q506.736 499.896 506.696 499.68Q506.655 499.464 506.641 499.244Q506.627 499.025 506.64 498.806Q506.653 498.586 506.692 498.37Q506.732 498.154 506.798 497.944Q506.863 497.735 506.954 497.534Q507.045 497.334 507.159 497.147Q507.273 496.959 507.41 496.787C510.025 493.439 537.707 491.505 543.54 491.232Z"/>
	<path fill="#231F20" d="M705.956 176.007L707.978 176.062C708.962 176.77 710.146 177.966 710.479 179.195C710.795 180.361 710.589 181.207 709.799 182.128C704.324 188.511 673.96 187.072 665.376 187.23C663.88 187.075 663.225 187.156 661.997 186.246C661.402 184.968 661.198 184.388 661.419 182.984C661.718 182.607 661.918 182.122 662.318 181.854C664.913 180.112 690.014 180.237 695.229 179.353C698.807 178.747 702.515 177.189 705.956 176.007Z"/>
	<path fill="#231F20" d="M636.292 177.921C638.024 178.16 639.871 179.044 640.855 180.554C641.608 181.71 641.643 181.963 641.439 183.243C641.032 183.798 640.64 184.27 640.053 184.647C632.614 189.421 600.158 188.965 591.061 187.349C590.078 187.163 589.173 186.852 588.228 186.528C587.233 185.46 586.706 184.921 586.348 183.458C586.991 182.17 587.582 181.762 589.032 181.528C592.466 180.974 596.621 181.97 600.115 182.152C608.76 182.602 623.308 182.711 631.464 180.417C633.223 179.922 634.768 178.898 636.292 177.921Z"/>
	<path fill="#231F20" d="M544.267 427.188C545.328 427 546.306 426.854 547.295 427.423C548.568 428.156 549.052 429.06 549.532 430.407C549.404 431.239 549.498 431.828 548.869 432.455C545.76 435.559 509.72 438.214 502.908 438.57C501.799 438.459 500.583 438.388 499.581 437.857C498.481 437.273 497.608 436.175 497.356 434.962C497.18 434.118 497.536 433.912 497.953 433.226C501.215 431.384 537.574 428.102 544.267 427.188Z"/>
	<path fill="#231F20" d="M456.412 361.013C458.164 361.085 460.044 361.511 461.529 362.488C463.384 363.709 465.491 366.323 465.755 368.594C465.919 370.008 465.309 371.329 464.348 372.336C457.691 379.313 423.848 380.755 413.375 381.012C412.152 381.061 410.896 380.95 409.727 380.562C407.762 379.91 405.826 378.004 405.043 376.101C404.421 374.588 404.501 373.117 405.228 371.643C405.769 370.547 407.085 369.215 408.247 368.848C412.781 367.418 418.511 367.679 423.235 367.347C434.476 366.558 445.847 365.041 456.412 361.013Z"/>
	<path fill="#231F20" d="M493.872 629.199C493.962 629.178 494.05 629.15 494.141 629.138C498.202 628.611 501.823 629.236 505.089 631.842C506.362 632.858 507.105 634.243 507.146 635.889C507.182 637.308 506.545 638.598 505.586 639.605C499.369 646.13 470.656 646.985 461.563 647.157C458.511 647.387 454.226 648.324 451.494 646.783C449.511 645.664 448.41 642.855 447.906 640.756C447.543 639.239 447.68 637.621 448.614 636.323C450.08 634.286 452.735 633.379 455.081 632.868C459.769 631.848 464.875 632.743 469.663 632.35C477.713 631.69 485.851 630.229 493.872 629.199Z"/>
	<path fill="#231F20" d="M474.227 494.299C475.87 494.078 477.617 493.831 479.275 494.004C481.471 494.233 483.957 495.506 485.34 497.241C486.373 498.537 486.68 499.99 486.382 501.622C485.854 504.505 483.375 505.995 481.094 507.415C474.07 507.476 466.961 508.476 459.931 508.86C450.519 509.375 441.051 509.324 431.626 509.406L423.428 509.584C421.634 508.394 420.134 507.092 419.492 504.973C418.944 503.162 418.708 501.127 419.814 499.46C421.089 497.538 423.505 496.993 425.639 496.696C431.922 495.822 438.888 496.637 445.264 496.558C455.005 496.437 464.571 495.554 474.227 494.299Z"/>
	<path fill="#231F20" d="M468.415 428.589C470.438 428.284 472.864 428.012 474.606 429.368C476.184 430.596 478.325 433.512 478.4 435.609C478.458 437.254 477.861 438.433 476.711 439.554C469.686 446.397 431.517 446.244 421.222 445.767C419.228 445.766 417.201 445.945 415.207 446.038C413.874 444.724 412.556 443.555 411.875 441.762C411.308 440.268 411.215 438.872 412.033 437.431C413.397 435.031 417.547 433.798 420.038 433.345C424.436 432.544 429.438 433.012 433.924 432.912C445.854 432.647 456.881 431.923 468.415 428.589Z"/>
	<path fill="#231F20" d="M492.614 565.716C495.298 565.438 498.605 566.034 500.789 567.705C502.265 568.834 503.347 571.063 503.554 572.914C503.763 574.778 503.092 576.767 501.891 578.19C497.911 582.905 455.419 583.88 447.165 584.257C445.098 584.375 442.975 584.083 440.914 583.911C438.56 582.215 436.888 580.791 436.415 577.788C436.158 576.152 436.518 574.574 437.537 573.258C438.56 571.938 440.229 570.728 441.879 570.405C447.864 569.235 454.815 569.843 460.943 569.358C471.487 568.524 482.07 566.771 492.614 565.716Z"/>
	<path fill="#231F20" d="M480.164 159.88C481.773 160.002 483.643 160.441 485.056 161.251C486.433 162.04 487.279 163.206 487.599 164.751C488.14 167.361 486.305 170.646 484.928 172.705C479.354 181.044 468.987 188.816 461.916 196.239C457.492 200.883 453.698 206.283 449.001 210.645C447.625 211.923 445.75 213.46 443.799 213.654C438.757 214.154 436.125 206.798 432.752 203.996C432.577 203.851 432.398 203.712 432.221 203.57C429.167 200.61 424.619 196.11 423.402 191.945C422.935 190.345 423.247 189.426 424.026 188.015C424.897 187.456 425.556 187.135 426.592 187.092C432.248 186.858 437.703 191.954 441.574 195.534C448.71 187.668 456.413 180.796 464.182 173.58C469.156 168.96 474.168 163.144 480.164 159.88Z"/>
	<path fill="#231F20" d="M751.792 280.25C753.153 280.239 754.802 280.346 756.012 281.043C757.332 281.804 758.33 283.178 758.572 284.69C758.759 285.859 758.461 286.965 757.628 287.822C754.297 291.252 727.537 289.726 721.164 289.851Q549.653 293.833 378.441 304.715C376.088 305.035 373.18 305.583 371.063 304.2C369.982 303.494 369.571 302.55 369.392 301.285Q369.357 301.039 369.347 300.79Q369.337 300.542 369.352 300.294Q369.367 300.046 369.407 299.8Q369.447 299.555 369.511 299.315Q369.575 299.074 369.664 298.842Q369.752 298.609 369.863 298.387Q369.974 298.165 370.107 297.955Q370.24 297.745 370.394 297.549C371.068 296.676 372.089 296.412 373.133 296.209C380.802 294.717 389.805 295.189 397.65 294.698C417.901 293.432 438.09 292.082 458.364 291.159Q554.708 286.298 651.13 283.384L715.56 281.759C727.604 281.458 739.827 281.771 751.792 280.25Z"/>
	<path fill="#231F20" d="M273.976 101.345C275.086 101.305 276.142 101.427 277.243 101.54C278.909 103.01 279.259 106.104 279.777 108.235C282.578 119.736 285.416 131.314 287.358 142.994C288.989 152.804 289.887 162.709 291.433 172.529C294.291 190.694 297.541 208.824 299.965 227.054C303.526 253.836 305.608 280.622 308.196 307.496C309.685 322.951 311.743 338.341 313.092 353.818C314.048 364.786 314.586 375.782 315.615 386.745C317.532 407.156 320.783 427.417 322.93 447.808C324.721 464.813 325.462 481.831 326.279 498.903C326.602 505.647 328.737 520.505 325.413 525.963C323.878 526.462 322.634 526.755 321.016 526.805C320.193 526.474 319.378 526.188 318.804 525.462C317.405 523.691 317.178 520.597 316.975 518.404C316.03 508.196 316.375 497.878 315.888 487.642Q314.486 458.311 311.637 429.085L301.554 316.749L296.762 265.056C295.299 249.339 294.117 233.623 291.75 218.005L280.928 147.58C279.606 139.251 272.797 107.168 273.976 101.345Z"/>
	<path fill="#231F20" d="M775.657 297.292C777.613 297.09 779.973 296.634 781.891 297.252C783.864 297.888 785.934 299.432 786.694 301.417C787.095 302.465 786.94 303.603 786.297 304.52C783.175 308.969 767.213 308.457 762.064 308.701C735.374 309.962 708.696 310.305 681.993 310.954L573.192 313.361C555.278 313.616 537.335 313.142 519.429 313.651C472.914 314.973 426.753 318.484 380.38 322.128C378.659 322.296 376.882 322.598 375.224 321.964C373.695 321.379 371.991 319.486 371.519 317.936C371.182 316.831 371.375 315.575 372.066 314.644C372.888 313.537 374.359 312.754 375.682 312.449C381.478 311.113 390.652 311.322 396.91 310.854C413.355 309.624 429.78 308.098 446.248 307.198C495.169 304.528 544.187 304.621 593.165 304.199C617.902 303.986 642.568 303.204 667.29 302.541C703.385 301.573 739.676 300.45 775.657 297.292Z"/>
	<path fill="#231F20" d="M760.305 125.715C762.218 125.577 764.084 125.707 765.98 125.985C769.136 126.448 772.879 127.752 774.75 130.513C776.106 132.514 776.658 135.375 776.901 137.737C777.49 143.464 777.073 149.487 777.284 155.266Q777.873 173.497 779.855 191.629C780.748 200.009 783.923 218.096 782.234 225.196C781.552 228.065 779.872 230.996 777.246 232.487C775.014 233.754 772.14 234.286 769.606 234.44C759.309 235.065 748.837 234.884 738.509 235.239L671.241 237.925Q575.473 241.897 479.768 247.167L431.671 249.682C424.202 250.11 394.289 253.031 388.864 251.473C386.875 249.999 386.174 248.168 385.611 245.798C384.506 241.148 384.3 236.044 383.643 231.286C382.524 223.18 381.088 215.096 379.676 207.036C376.94 191.414 372.299 175.783 371.074 159.955C370.719 155.365 370.159 145.934 372.983 142.076C373.7 141.098 374.478 140.419 375.744 140.352C376.956 140.288 378.622 140.886 379.51 141.713C383.063 145.022 390.359 188.167 391.755 194.874C393.411 202.829 395.493 210.714 396.965 218.703C398.081 224.76 398.914 230.899 399.819 236.992Q446.078 233.735 492.397 231.496C534.562 229.1 576.67 226.452 618.875 224.705C668.264 223.228 717.617 220.172 767.031 219.179C763.309 195.52 761.971 165.403 762.004 141.569C752.158 141.807 742.327 142.72 732.462 142.846C698.48 143.28 664.487 142.482 630.502 143.626C605.955 144.453 581.474 146.627 556.955 147.983C539.093 148.971 521.222 149.109 503.364 149.987C484.873 150.897 400.411 157.194 388.32 150.767C386.85 149.986 385.326 148.682 385.133 146.916C385.011 145.803 385.364 144.779 386.231 144.055C387.261 143.195 388.864 142.849 390.154 142.647C394.126 142.025 398.324 142.286 402.341 141.877C422.914 139.778 443.61 138.982 464.235 137.523C495.988 135.276 527.729 133.825 559.497 131.93C585.863 130.356 612.13 128.369 638.552 127.583C679.1 126.377 719.831 128.325 760.305 125.715Z"/>
	<path fill="#231F20" d="M231.619 509.711C238.471 509.098 246.13 510.144 252.958 511.069C284.194 515.302 312.272 527.839 331.521 553.459C336.709 560.364 340.362 567.993 343.463 576.017C352.981 600.645 353.902 624.889 350.254 650.718C363.418 648.777 377.989 647.901 391.327 648.583C397.718 648.909 403.819 650.435 408.169 655.497C413.548 661.758 412.05 669.149 411.502 676.667C419.79 676.341 433.998 674.977 440.849 680.085C444.631 682.904 446.449 688.68 447.176 693.199C448.261 699.944 446.481 731.947 442.893 736.887C437.026 739.849 406.868 739.647 398.787 739.395C396.293 748.722 394.296 758.178 391.78 767.504Q387.711 783.126 382.677 798.465Q377.642 813.804 371.663 828.799C367.31 840.001 362.864 851.161 356.619 861.484C343.476 883.212 337.665 876.979 315.82 882.453C324.171 885.767 332.268 889.526 337.895 896.824C342.732 903.098 344.227 910.586 343.205 918.322C341.213 933.395 331.632 946.921 319.694 955.95C309.208 963.881 297.924 967.057 284.889 965.116C273.522 963.424 263.524 958.903 256.638 949.478C251.408 942.32 249.358 935.638 250.843 926.762C253.953 908.16 264.854 895.484 279.694 884.748L251.527 886.093Q233.719 887.127 215.887 887.584C222.096 891.294 227.917 895.929 232.576 901.487C239.184 909.369 241.671 918.642 240.769 928.82C239.778 940.003 233.055 948.184 224.681 955.118C212.583 965.135 196.141 973.071 180.065 971.51C171.984 970.726 154.783 960.286 149.462 953.791C143.969 947.086 142.107 938.518 142.963 930.036C143.909 920.67 148.186 907.95 155.504 901.606C161.287 896.593 168.467 892.982 174.497 888.107C169.012 888.355 163.949 887.899 159.217 884.761C144.242 874.831 125.187 806.618 119.698 787.417C116.582 776.521 113.042 765.522 110.786 754.417C98.0811 754.876 85.2959 756.752 72.6643 758.126C67.7382 758.662 61.7596 759.75 57.6792 756.238C56.0242 754.813 55.137 753.133 54.4637 751.082C51.7625 742.853 51.4916 733.64 50.2197 725.085C49.3069 718.946 47.822 712.841 47.2008 706.666C46.8969 703.645 47.0035 701.799 49.0625 699.424C54.7589 692.852 81.3246 691.562 90.2929 691.003C88.5403 685.988 86.6123 680.925 85.358 675.761C84.6494 672.844 83.8435 668.686 85.8191 666.073C86.695 664.914 87.9952 664.328 89.3821 664.061C92.0938 663.538 95.2183 663.924 97.9845 663.874C104.681 663.753 112.584 663.362 119.088 661.794C119.282 661.748 119.474 661.695 119.667 661.646C119.129 656.294 117.898 651.066 117.566 645.676C115.403 610.474 127.456 574.1 151.035 547.86C171.926 524.612 200.599 511.448 231.619 509.711Z"/>
	<path fill="#FEFEFE" d="M409.303 688.058C416.431 687.105 424.317 687.446 431.493 687.923C432.201 689.969 432.896 691.983 433.059 694.158C433.454 699.441 431.653 718.351 429.717 723.041C429.422 723.757 428.876 723.802 428.216 724.123L427.274 723.901C427.215 716.947 432.128 703.127 429.121 697.351L428.342 696.843C427.202 697.442 426.842 697.966 426.441 699.211C424.199 706.164 422.741 718.375 421.432 725.89C418.757 726.164 415.567 727.016 412.952 726.927C414.918 720.697 424.07 694.658 421.885 689.767C420.978 689.894 421.363 689.703 420.64 690.555C417.38 694.401 409.816 721.435 410.177 726.893C409.055 727.973 405.571 728.251 403.924 728.179C403 728.139 402.643 728.158 401.983 727.485C402.822 722.096 404.211 716.842 405.258 711.496C406.78 703.724 408.04 695.877 409.303 688.058Z"/>
	<path fill="#FEFEFE" d="M92.7355 702.722C93.2104 702.635 94.0975 702.724 94.5919 702.734C99.0397 707.183 106.725 736.004 108.387 744.201C96.9874 745.283 85.4085 745.114 73.9562 746.093C69.4278 746.513 64.8758 746.485 60.3317 746.529C60.2138 740.048 56.3224 712.261 58.3446 708.974C59.1206 707.712 60.5178 707.019 61.8964 706.629C64.7069 705.833 67.8964 705.841 70.7932 705.468Q81.751 703.988 92.7355 702.722Z"/>
	<path fill="#FEFEFE" d="M296.859 891.717C306.074 890.716 315.94 891.384 323.745 896.844C328.989 900.513 332.299 906.008 333.226 912.338C334.591 921.656 330.419 930.956 324.878 938.215C317.471 947.92 307.803 954.299 295.62 955.895C295.193 955.962 294.765 956.028 294.335 956.077C285.841 957.051 274.156 954.341 267.489 948.892C262.739 945.01 258.577 938.821 258.056 932.609C257.326 923.896 262.356 911.507 268.13 905.003C276.374 895.717 284.614 892.483 296.859 891.717Z"/>
	<path fill="#FEFEFE" d="M190.805 893.212Q192.343 893.078 193.886 893.062Q195.429 893.045 196.969 893.147Q198.509 893.249 200.037 893.468Q201.565 893.687 203.072 894.022Q204.578 894.357 206.055 894.806Q207.531 895.255 208.969 895.816Q210.407 896.377 211.798 897.046Q213.189 897.715 214.525 898.488C222.421 903.134 228.842 910.248 231.125 919.273C232.782 925.824 231.978 932.392 228.449 938.188C221.354 949.84 205.776 958.498 192.875 961.741Q191.595 962.039 190.294 962.224C179.596 963.687 167.987 958.078 159.515 951.713C154.444 947.903 151.315 942.356 150.557 936.062C149.46 926.954 153.357 915.061 159.153 908.026C166.495 899.113 179.604 894.204 190.805 893.212Z"/>
	<path fill="#FEFEFE" d="M230.103 518.696C243.001 517.999 255.636 519.834 268.086 523.143C293.36 529.859 315.217 543.325 328.412 566.339C343.164 592.071 342.594 623.962 335.073 651.82C314.739 653.334 294.37 653.228 274 653.564C260.129 653.793 246.246 654.339 232.375 654.694C198.286 654.903 163.613 657.744 129.656 660.738C128.697 656.728 128.133 652.51 127.766 648.407C124.801 615.286 134.689 580.888 156.271 555.436C169.156 540.24 189.495 527.22 208.726 521.977C215.77 520.057 222.855 519.277 230.103 518.696Z"/>
	<path fill="#231F20" d="M256.539 563.949C258.987 564.026 261.583 563.841 263.477 565.534C263.443 567.016 262.967 567.233 262.027 568.334C260.733 568.526 259.326 568.79 258.021 568.643C256.791 568.504 256.231 568.006 255.565 567.049C255.523 565.631 255.758 565.123 256.539 563.949Z"/>
	<path fill="#231F20" d="M170.494 581.187C170.846 581.217 171.254 581.232 171.585 581.362C172.628 581.769 173.277 582.336 173.457 583.485C174.012 587.021 170.151 593.63 167.747 596.079C167.628 596.058 167.507 596.048 167.39 596.016C166.006 595.64 165.825 595.621 165.074 594.459C164.745 590.342 168.658 584.824 170.494 581.187Z"/>
	<path fill="#231F20" d="M240.099 547.242C245.295 547.05 250.491 547.432 255.321 549.526L255.457 550.601C253.616 551.939 251.557 551.744 249.378 551.777C245.567 551.868 235.265 553.003 232.568 550.476L232.586 549.727C234.85 547.268 236.982 547.445 240.099 547.242Z"/>
	<path fill="#231F20" d="M152.504 584.152C153.314 584.245 153.928 584.311 154.672 584.68C155.347 585.015 155.282 584.961 155.456 585.915C155.561 586.49 147.061 616.375 146.166 618.814C145.782 619.863 145.164 620.767 144.493 621.65C142.943 621.373 142.339 621.403 141.126 620.354C139.901 613.833 149.515 590.722 152.504 584.152Z"/>
	<path fill="#FEFEFE" d="M384.813 664.73C387.738 664.519 390.786 664.667 393.726 664.647C391.179 675.273 387.618 685.805 384.467 696.271C375.679 725.454 365.902 754.33 356.939 783.455C354.095 792.699 352.048 802.224 349.766 811.62L343.017 838.255C342.565 825.808 345.33 812.956 347.119 800.665C347.491 798.11 348.84 791.259 347.304 789.205L345.735 789.093C344.255 790.149 344.032 791.91 343.577 793.633C341.406 801.86 340.267 810.532 338.737 818.909C336.67 830.227 334.332 841.428 331.976 852.687C331.241 856.201 330.73 863.32 328.674 866.003C327.241 866.117 326.08 866.207 324.667 865.825Q326.083 854.369 327.928 842.974C328.411 839.867 329.354 836.636 329.521 833.515C329.578 832.456 329.434 832.386 328.989 831.491C327.724 831.395 327.421 831.46 326.325 832.252C321.643 835.635 319.525 859.827 318.576 866.166C315.032 866.348 311.511 866.568 307.981 866.934C308.769 862.687 311.779 857.924 311.722 853.744C311.703 852.436 311.705 852.307 310.788 851.414C309.444 851.25 308.546 851.693 307.478 852.466C303.716 855.187 302.706 862.684 302.106 867.012L290.718 866.971C291.982 863.643 295.194 859.703 295.832 856.368C296.009 855.445 295.754 855.402 295.289 854.648L294.229 854.521C290.347 856.767 288.224 863.386 286.815 867.403C270.451 867.783 253.839 868.258 237.517 869.427C214.493 869.89 191.367 872.54 168.352 871.873C160.098 858.204 153.99 842.687 148.678 827.664Q140.507 804.765 133.902 781.367C129.582 765.97 126.022 750.378 121.507 735.019C115.855 715.798 108.21 697.245 103.092 677.877C110.795 676.612 118.761 676.265 126.545 675.706Q149.505 674.179 172.484 672.962Q207.753 670.83 243.065 669.579C276.969 668.648 310.847 668.619 344.747 667.254C358.09 666.717 371.473 665.525 384.813 664.73Z"/>
	<path fill="#231F20" d="M331.31 694.268L332.664 695.168C332.975 695.857 333.203 696.138 333.154 696.921C332.951 700.135 324.296 714.327 321.963 716.563C320.57 715.728 320.308 715.73 319.716 714.249C320.194 707.799 327.294 699.116 331.31 694.268Z"/>
	<path fill="#231F20" d="M347.228 693.847C348.107 694.321 348.225 694.418 348.829 695.29C348.876 696.118 348.847 696.823 348.65 697.636C348.136 699.753 342.222 715.31 341.286 716.153C340.801 716.59 340.152 716.803 339.584 717.128C339.533 717.097 339.479 717.07 339.43 717.036C338.207 716.187 337.668 715.818 337.421 714.303C336.512 708.718 344.18 698.219 347.228 693.847Z"/>
	<path fill="#231F20" d="M299.909 776.303C301.283 776.477 302.272 776.753 303.552 777.282C304.064 778.035 304.209 778.465 304.255 779.399C304.409 782.507 302.662 786.802 302.237 790.053C301.724 793.964 302.036 797.978 302.139 801.909C302.17 803.074 302.375 804.544 302.139 805.665C301.909 806.762 300.845 807.853 300.144 808.698L298.239 808.829C297.11 808.241 296.577 807.829 296.043 806.635C292.891 799.59 297.397 783.307 299.909 776.303Z"/>
	<path fill="#231F20" d="M162.28 740.699L163.994 741.253C170.713 747.152 175.648 779.078 178.142 788.589C180.736 798.479 186.734 806.548 190.825 815.758C191.659 817.636 190.909 818.621 190.203 820.351C189.275 820.524 188.706 820.475 187.781 820.373C183.124 817.621 179.595 808.987 177.475 804.262C171.181 790.229 169.705 774.8 166.163 759.968C164.869 754.547 162.382 748.805 161.696 743.348C161.552 742.2 161.878 741.755 162.28 740.699Z"/>
	<path fill="#231F20" d="M324.742 731.771C325.515 731.862 326.239 732.068 326.993 732.259C327.832 733.275 328.098 733.778 328.091 735.126C328.068 739.607 325.912 744.885 324.929 749.304C323.512 755.674 322.659 762.179 321.436 768.592C319.873 776.788 315.635 793.625 315.906 801.068C315.958 802.487 316.193 804.4 315.945 805.762C315.72 806.999 313.985 807.457 312.99 807.967C312.298 807.67 311.404 807.349 310.815 806.884C309.456 805.81 309.301 803.714 309.226 802.114C308.781 792.603 317.957 747.502 321.324 737.816C322.145 735.454 323.065 733.654 324.742 731.771Z"/>
	<path fill="#231F20" d="M243.957 723.922C245.688 723.892 246.863 723.956 248.27 725.053C248.476 725.507 248.826 725.92 248.888 726.415C248.996 727.268 248.387 729.232 248.237 730.144C247.099 737.073 246.447 744.044 245.959 751.046C244.918 765.992 245.148 780.562 247.798 795.352C248.648 800.095 251.86 807.121 251.901 811.485C251.916 813.109 251.017 813.683 250.017 814.821C249.12 814.806 248.428 814.643 247.57 814.383C246.365 813.22 245.678 812.052 244.966 810.534C236.309 792.074 238.446 757.592 241.338 737.639C241.997 733.096 242.414 728.262 243.957 723.922Z"/>
	<path fill="#231F20" d="M534.748 46.2286C553.285 45.6385 572.003 46.4011 590.546 46.7138L684.997 48.0466L790.457 48.5127C799.016 48.6292 807.896 47.6856 816.385 48.1539C816.665 48.1693 816.944 48.1966 817.224 48.2098C821.994 48.4353 830.151 54.9575 833.57 58.5008C843.493 68.7837 839.131 76.4035 841.265 87.9851Q845.09 107.869 847.9 127.922Q850.711 147.975 852.499 168.145Q854.287 188.315 855.049 208.549Q855.811 228.784 855.544 249.031C855.44 269.451 853.824 289.827 853.503 310.233C863.043 313.694 874.58 314.085 884.615 315.255Q908.213 317.986 931.854 320.318C941.261 321.207 952.135 321.694 961.055 324.858C966.187 326.678 971.642 330.974 973.845 336.053C974.979 338.669 975.43 341.59 975.576 344.423C976.337 359.228 973.878 378.561 972.509 393.624Q967.97 439.282 962.462 484.834C960.399 501.184 957.683 517.583 956.131 533.98C954.955 546.411 954.826 559.027 954.297 571.499Q953.151 598.394 951.346 625.253Q948.225 677.966 942.63 730.473Q937.034 782.981 928.977 835.167C924.632 863.064 919.2 900.631 908.536 926.276C903.427 938.565 895.22 952.525 883.03 958.947C879.862 960.616 876.151 961.21 872.823 962.596C872.892 964.071 873.098 965.366 872.334 966.7C869.545 968.056 836.291 966.146 830.029 966.035C800.611 965.513 771.185 966.669 741.774 967.249C691.671 968.238 641.512 972.32 591.48 975.112Q526.581 979.05 461.563 979.34Q438.788 979.576 416.012 979.465C407.162 979.432 394.37 979.952 385.926 978.163C381.912 977.312 378.543 973.494 376.454 970.154C368.711 957.777 370.669 939.224 373.85 925.748C380.571 897.276 392.465 875.531 410.705 852.895C413.515 849.409 416.953 843.887 420.736 841.64C420.856 841.569 420.979 841.505 421.101 841.437C438.099 835.828 459.726 835.721 477.536 834.402Q505.323 832.2 533.144 830.491C550.142 829.486 567.163 828.843 584.139 827.505C585.187 820.502 587.144 813.616 588.771 806.727Q591.698 793.992 594.217 781.171C599.012 757.01 602.144 732.258 604.668 707.764C608.697 668.673 610.486 629.625 611.711 590.372Q613.276 542.18 613.17 493.962C613.053 481.264 612.02 468.521 611.138 455.856C610.7 449.568 610.035 443.218 610.099 436.909C610.134 433.438 610.905 429.892 613.277 427.25C616.863 423.257 621.912 419.898 626.049 416.447C635.387 408.657 644.703 400.872 653.533 392.503Q660.761 385.725 667.175 378.172C672.417 371.92 677.32 365.187 683.151 359.477C685.755 356.927 688.59 355.384 692.24 354.859C696.695 354.218 701.789 354.891 706.315 354.914C712.812 354.946 719.273 354.552 725.749 354.07C749.766 352.282 773.712 349.221 797.748 347.81C812.614 346.937 827.536 347.08 842.42 347.22Q844.868 320.382 845.924 293.453Q846.98 266.524 846.64 239.577Q846.3 212.63 844.565 185.736Q842.831 158.843 839.706 132.075C838.28 119.681 836.924 101.455 833.507 89.7583L832.083 88.6164C826.726 84.3994 829.572 77.145 828.588 71.2021C828.047 67.9273 826.331 66.2642 823.696 64.4089C820.411 62.0954 815.315 58.5431 811.293 58.0578C805.636 57.3752 799.772 57.7532 794.086 57.8289Q780.203 58.0908 766.318 58.0192L653.967 56.5678C612.412 55.86 570.877 52.9591 529.343 52.2162C475.248 51.2486 421.375 52.7857 367.317 54.3847C352.934 54.8101 338.517 55.3725 324.13 55.5409C312.982 55.6714 301.345 54.8866 290.333 56.776C283.808 57.8954 276.759 60.3266 272.886 66.0538C266 76.2366 275.196 83.6696 276.949 93.2579C276.553 94.2374 276.36 94.6702 275.195 94.946C273.852 95.264 272.749 94.783 271.595 94.1817C268.568 90.5 264.782 79.595 264.463 74.8681C264.11 69.6365 266.138 64.4648 269.624 60.599C273.388 56.4244 279.019 53.5164 284.5 52.4207C293.746 50.5726 303.713 51.156 313.126 50.8766L351.602 49.478C380.19 48.6855 408.763 46.9676 437.369 46.6393C469.798 46.2672 502.341 47.2908 534.748 46.2286Z"/>
	<path fill="#FEFEFE" d="M918.805 406.714C921.369 407.915 931.706 415.691 932.656 417.777L931.624 418.029C926.67 418.308 921.723 418.748 916.767 419.029C917.544 414.931 918.249 410.849 918.805 406.714Z"/>
	<path fill="#FEFEFE" d="M878.077 370.748C881.227 372.666 884.789 377.421 886.779 380.521C884.894 392.1 881.455 403.272 881.451 415.125C881.823 416.278 882.096 417.043 881.979 418.273L880.965 418.521C880.809 418.411 880.627 418.331 880.499 418.191C879.218 416.785 878.674 413.463 878.465 411.574C878.046 407.796 878.406 403.72 878.445 399.902C878.543 390.259 878.91 380.348 878.077 370.748Z"/>
	<path fill="#FEFEFE" d="M444.239 872.403L444.697 872.941C446.934 883.552 441.523 892.032 438.452 901.777C437.114 906.025 436.402 910.441 435.646 914.822C437.412 912.781 438.987 910.588 440.598 908.425C436.686 920.458 430.667 930.731 423.767 941.23C422.66 942.956 421.623 945.052 419.877 946.187C419.779 943.774 422.503 942.365 423.067 940.131C423.539 938.262 422.255 936.387 422.753 934.378C423.394 931.794 424.9 929.36 425.933 926.904C427.4 923.417 428.672 919.81 429.894 916.231C434.854 901.701 439.071 886.855 444.239 872.403Z"/>
	<path fill="#FEFEFE" d="M892.118 384.806C899.003 390.007 905.848 395.72 912.043 401.726Q912.156 410.566 910.705 419.286C909.575 419.186 908.485 419.201 907.353 419.216C900.384 419.618 893.528 419.968 886.554 419.457C887.149 414.399 887.417 409.321 888.33 404.3C889.519 397.758 891.279 391.425 892.118 384.806Z"/>
	<path fill="#231F20" d="M897.791 397.966C898.087 397.963 898.384 397.957 898.681 397.957C900.226 397.958 901.392 398.193 902.471 399.354C904.491 401.526 905.131 404.953 904.996 407.814C904.835 411.241 904.334 412.723 901.769 414.998C900.631 415.333 899.982 415.412 898.81 415.213C895.957 413.32 895.999 407.602 895.176 404.329C895.852 402.037 896.437 399.977 897.791 397.966Z"/>
	<path fill="#FEFEFE" d="M438.767 860.894C439.369 861.996 439.071 862.747 438.8 863.959C436.898 872.468 433.685 880.797 431.425 889.229C428.496 900.155 426.226 911.231 423.161 922.136C421.667 927.451 416.313 942.796 416.575 947.126C417.043 947.601 417.411 947.958 418.006 948.279C418.15 948.357 418.3 948.423 418.447 948.496C418.332 948.732 418.23 948.974 418.102 949.203C414.843 955.078 401.638 966.636 394.861 967.972C392.026 968.53 389.218 968.013 386.896 966.251C382.001 962.536 380.315 954.604 379.641 948.788C377.025 926.21 392.089 890.982 406.352 873.145C403.662 881.782 388.048 911.488 391.886 918.643C392.444 919.684 392.838 919.803 393.931 919.944C396.328 916.772 399.121 903.181 401.231 897.949C405.364 887.701 410.7 876.961 416.756 867.758C416.25 870.995 415.354 874.163 414.544 877.334C412.962 883.453 409.688 889.349 406.949 895.028C403.358 902.474 399.823 910.015 397.081 917.823C395.382 922.661 390.69 935.982 393.62 940.764C394.383 942.01 395.049 942.4 396.396 942.866C396.645 942.668 396.956 942.528 397.144 942.271C397.899 941.242 398.268 935.904 398.592 934.252C399.916 927.478 401.938 920.83 404.244 914.327C409.679 898.998 417.284 883.876 426.779 870.67C425.62 875.316 424.435 879.896 422.753 884.39C419.129 894.069 396.129 946.765 399.046 952.879C399.845 954.555 400.913 955.271 402.655 955.828C405.762 953.916 406.575 940.326 407.791 935.966C413.175 916.656 422.852 894.574 431.367 876.354C433.674 871.418 435.672 866.253 438.396 861.53L438.767 860.894Z"/>
	<path fill="#FEFEFE" d="M905.475 328.848C910.186 328.056 919.166 330.077 924.299 330.27C932.386 330.574 940.573 329.24 948.568 329.647C951.749 329.809 955.271 330.399 958.383 331.067C961.792 331.798 964.068 333.335 965.88 336.31C967.242 338.546 967.927 340.544 968.035 343.167C968.36 351.109 967.092 359.379 966.406 367.296C964.919 384.463 963.041 401.522 961.231 418.65C960.1 429.352 959.254 447.898 956.714 457.456C955.965 445.457 957.86 433.194 956.934 421.302C956.883 420.65 956.781 418.727 956.441 418.168C954.86 415.568 946.459 411.478 943.592 409.463C935.94 404.084 928.56 398.004 921.25 392.159C912.208 384.904 903.186 378.076 894.842 369.991C887.194 362.582 881.392 352.128 872.265 346.509C865.534 346.127 858.549 346.751 851.803 347.013C851.97 341.014 852.683 335.029 853.495 329.088C867.09 332.87 881.346 334.171 895.333 335.855C905.688 337.102 916.018 338.62 926.395 339.661C932.616 340.286 939.1 340.371 945.256 341.286C947.531 341.624 949.01 341.48 951.136 340.525C952.847 339.757 953.776 338.961 954.427 337.196C953.803 335.744 953.007 335.145 951.447 334.786C947.436 333.861 941.849 334.862 937.592 334.651C933.495 334.448 907.886 330.275 905.837 329.11C905.708 329.036 905.596 328.935 905.475 328.848Z"/>
	<path fill="#FEFEFE" d="M720.29 835.233Q766.432 834.89 812.574 835.116C831.811 835.304 851.2 835.952 870.422 835.397C866.502 840.316 861.342 844.217 857.29 849.076C844.813 864.039 837.401 885.49 836.079 904.744C834.748 924.117 838.755 943.248 851.676 958.094Q785.009 957.465 718.364 959.28Q637.438 962.539 556.624 967.923Q523.197 969.718 489.729 970.39L410.003 972.632C418.013 964.788 425.336 956.692 431.798 947.516C445.989 927.366 461.524 898.246 456.908 872.942C454.902 861.941 449.275 854.739 440.267 848.462C451.184 846.877 462.279 846.27 473.276 845.439Q494.469 843.707 515.684 842.273Q571.675 838.661 627.75 836.786Q674.016 835.758 720.29 835.233Z"/>
	<path fill="#FEFEFE" d="M808.674 362.787C827.215 361.493 846.295 362.446 864.897 362.615C865.211 377.143 863.576 391.673 864.089 406.256C864.341 413.42 864.499 422.902 870.334 428.025C872.555 429.976 875.37 430.897 878.243 431.358C888.873 433.063 900.835 431.536 911.55 430.957L943.562 429.544C945.297 441.643 945.397 455.942 945.715 468.259C946.331 492.213 946.324 515.855 945.711 539.8Q944.303 606.222 939 672.448Q933.697 738.673 924.517 804.473C919.798 837.32 915.17 870.683 906.627 902.78C901.926 920.442 894.315 943.855 877.407 953.462C873.35 955.767 868.727 957.209 864.113 955.764C857.853 953.803 853.558 946.993 850.722 941.425C835.901 912.324 846.172 873.285 867.179 850.031C869.44 847.529 871.751 844.952 874.332 842.775C876.959 840.56 880.373 838.727 882.634 836.176C883.229 835.504 883.481 834.793 883.757 833.954L883.503 833.558C884.965 831.934 885.858 830.671 886.066 828.478C885.744 827.447 885.546 826.976 884.714 826.233C883.264 824.941 881.328 824.828 879.489 824.703C871.568 824.164 863.402 824.528 855.456 824.512L809.363 824.513C770.923 824.534 732.435 823.962 694.002 824.594C659.08 825.167 624.178 826.701 589.265 827.5C602.474 792.442 608.61 754.171 613.204 717.113C618.863 671.463 621.446 629.132 623.332 583.275C623.884 569.861 624.868 556.473 625.358 543.053C626.008 525.233 626.061 507.21 626.015 489.378C625.993 480.45 625.862 471.457 625.355 462.543C624.845 453.563 624 444.579 624.002 435.58C633.991 428.681 643.234 420.94 652.48 413.094C659.496 407.141 666.613 401.274 672.928 394.561C680.477 386.538 686.963 377.625 694.567 369.665C717.651 371.258 740.494 368.676 763.412 366.404Q785.996 364.01 808.674 362.787Z"/>
	<path fill="#231F20" d="M720.846 570.711C725.118 570.173 731.698 569.568 735.757 570.954C737.339 571.494 738.021 572.203 738.789 573.647C738.579 574.5 738.621 574.753 737.987 575.423C736.623 576.861 734.354 577.499 732.462 577.832C726.612 578.861 720.18 578.498 714.24 578.592C702.548 578.776 690.8 578.737 679.123 579.347C674.325 579.36 667.791 580.465 663.282 579.244C662.052 578.197 661.844 577.959 661.281 576.451C661.459 575.524 661.422 574.939 662.059 574.191C663.032 573.049 663.943 572.779 665.363 572.563C670.743 571.744 676.587 572.09 682.034 571.961C694.946 571.653 707.965 571.602 720.846 570.711Z"/>
	<path fill="#231F20" d="M729.371 516.715C731.653 516.562 735.018 515.923 737.21 516.443C739.069 516.884 740.096 517.719 741.092 519.299C741.228 520.511 741.434 521.067 740.552 522.066C739.433 523.335 736.607 523.672 735.033 523.894C728.372 524.836 721.319 524.559 714.579 524.814Q693.11 525.762 671.625 526.232C669.556 526.365 667.414 526.585 665.343 526.501C663.15 526.412 661.531 525.601 660.052 524.026C659.687 522.572 659.689 522.574 660.32 521.214C661.229 520.457 662.044 519.915 663.237 519.711C669.811 518.586 679.032 519.211 685.89 518.973Q707.645 518.117 729.371 516.715Z"/>
	<path fill="#231F20" d="M728.117 543.238C731.577 543.16 735.093 543.197 738.541 543.505C739.619 544.195 740.302 544.841 740.765 546.079C741.22 547.296 740.786 548.279 740.311 549.379C739.351 550.252 738.682 550.71 737.335 550.891C731.414 551.685 724.837 551.168 718.831 551.392L677.625 553.092C674.203 553.179 670.318 554.209 667.014 553.158C665.164 552.57 664.054 551.765 663.19 550.003C663.233 549.205 663.096 548.886 663.653 548.237C664.678 547.041 666.166 546.594 667.669 546.332C673.569 545.301 680.257 545.592 686.289 545.263Q707.19 543.975 728.117 543.238Z"/>
	<path fill="#231F20" d="M750.792 488.673C752.478 488.4 753.746 488.264 755.432 488.585C756.719 489.428 757.102 489.972 757.801 491.282C757.737 492.121 757.886 492.522 757.272 493.178C752.136 498.67 705.858 496.242 695.988 496.504C685.359 496.786 674.737 497.72 664.14 498.569C662.876 498.807 661.523 499.125 660.231 499.07C658.672 499.004 656.541 498.474 655.461 497.317L655.551 496.2C656.477 495.188 656.831 494.586 658.239 494.235C663.047 493.038 669.095 493.188 674.124 492.708C684.681 491.703 695.321 490.828 705.925 490.55C721.005 490.156 735.769 490.581 750.792 488.673Z"/>
	<path fill="#231F20" d="M812.366 633.714C816.54 633.201 822.214 632.958 826.381 633.376C829.141 633.652 831.289 634.475 833.102 636.594C833.39 637.67 833.582 637.936 832.872 638.907C831.921 640.209 828.865 640.669 827.412 640.851C818.905 641.913 809.994 641.733 801.429 642.016C784.927 642.559 768.321 643.039 751.878 644.591C746.802 644.638 741.769 646.09 736.658 645.105C735.063 644.798 734.023 644.333 733.057 642.965C732.843 641.768 732.805 640.373 733.584 639.329C734.34 638.316 734.918 638.142 736.127 637.938C741.613 637.015 747.708 637.267 753.306 636.852C773.008 635.391 792.66 634.839 812.366 633.714Z"/>
	<path fill="#231F20" d="M798.322 744.789C802.336 744.505 806.655 743.784 810.494 745.342C812.006 745.956 812.668 746.732 813.282 748.201C813.082 748.924 813.083 749.259 812.529 749.829C810.91 751.494 808.44 752.053 806.214 752.331C793.315 753.943 779.193 753.053 766.162 753.078L705 753.508C702.534 753.491 699.861 753.701 697.419 753.411C694.94 753.117 692.443 752.129 690.927 750.096C690.966 749.49 690.82 748.977 691.298 748.536C692.606 747.328 694.815 746.82 696.532 746.628C704.934 745.693 715.045 746.178 723.611 746.022C748.474 745.567 773.499 746.061 798.322 744.789Z"/>
	<path fill="#231F20" d="M772.074 717.709C782.054 717.014 792.256 717.471 802.26 717.479C809.148 717.484 817.031 716.746 823.817 718C825.737 718.355 827.348 718.91 828.523 720.536C828.64 721.7 828.723 722.351 828.006 723.395C827.107 724.702 825.495 725.212 823.999 725.339C816.379 725.987 808.217 725.013 800.522 725.012C782.137 725.009 763.206 725.264 744.92 727.134C732.265 727.7 719.619 729.079 706.969 729.874C703.147 730.114 698.017 730.97 694.292 730.296C692.721 730.012 691.749 729.394 690.845 728.059C690.641 726.936 690.709 726.083 691.377 725.098C692.094 724.04 693.511 723.949 694.667 723.755C703.873 722.208 713.955 721.999 723.298 721.27C739.551 720.002 755.796 718.558 772.074 717.709Z"/>
	<path fill="#231F20" d="M873.936 608.715C876.939 608.466 879.815 607.9 882.604 609.299C883.18 610.057 883.527 610.216 883.532 611.225C883.537 612.304 883.199 613.604 882.284 614.303C878.371 617.292 733.432 622.615 715.478 623.05Q705.175 623.251 694.875 622.912Q693.205 622.862 691.535 622.785C689.249 622.675 688.269 622.643 686.681 620.882C686.422 619.453 686.501 618.893 687.099 617.571C687.803 616.884 688.411 616.38 689.35 616.071C693.674 614.65 708.819 616.615 715.009 616.371Q794.524 613.621 873.936 608.715Z"/>
	<path fill="#231F20" d="M870.282 469.498C870.514 469.479 870.746 469.454 870.978 469.439C872.854 469.318 876.142 469.847 877.436 471.346C878.263 472.304 878.532 473.295 878.474 474.535C878.09 482.787 854.957 504.49 848.284 510.89C853.56 524.166 856.549 536.025 851.313 549.801C846.953 561.273 839.058 570.227 827.778 575.192C815.568 580.568 800.371 580.967 787.964 576.027Q787.038 575.658 786.132 575.242Q785.226 574.827 784.342 574.367Q783.457 573.908 782.597 573.404Q781.737 572.901 780.903 572.355Q780.069 571.809 779.263 571.222Q778.457 570.636 777.682 570.009Q776.906 569.383 776.163 568.719Q775.42 568.055 774.711 567.354Q774.001 566.654 773.328 565.919Q772.655 565.184 772.019 564.416Q771.384 563.648 770.787 562.85Q770.19 562.051 769.634 561.224Q769.078 560.397 768.564 559.543Q768.051 558.689 767.58 557.81Q767.109 556.931 766.683 556.03Q766.257 555.129 765.876 554.208C761.418 543.705 761.962 531.678 766.225 521.205C770.94 509.622 781.036 498.222 792.726 493.414C801.715 489.717 814.239 486.773 823.581 491.03C825.611 491.955 827.394 493.396 828.107 495.577C828.688 497.356 828.444 499.338 827.538 500.966C824.054 507.221 814.904 503.845 809.22 504.421C799.893 505.365 792.517 512.281 783.788 514.386C782.289 514.747 781.716 514.953 780.682 516.107C778.454 518.145 776.771 520.254 775.449 522.994C772.188 529.749 771.893 538.467 774.471 545.452C777.198 552.841 782.516 558.94 789.741 562.217C799.441 566.617 811.461 566.176 821.268 562.319C829.299 559.161 836.778 552.139 840.057 544.11C843.548 535.565 840.953 527.746 837.752 519.7C833.82 523.859 830.003 528.434 826.495 532.958C822.903 537.591 815.289 551.61 810.084 553.055C807.719 553.711 805.472 553.388 803.336 552.201C799.462 550.049 779.843 528.8 779.26 524.949C778.978 523.087 779.427 521.453 780.666 520.044C782.103 518.412 785.002 516.919 787.222 517.051C793.003 517.394 802.505 530.826 806.847 535.202C811.407 527.492 816.036 519.923 821.502 512.814C832.288 498.787 854.063 476.32 870.282 469.498Z"/>
	<path fill="#231F20" d="M728.462 682.24C755.698 681.878 782.942 682.494 810.181 682.495L841.574 682.47C847.146 682.469 852.938 682.13 858.472 682.723C860.558 682.946 862.906 684.1 864.139 685.845C866.336 688.954 866.664 693.747 866.831 697.469C867.431 710.807 865.245 724.394 864.691 737.725C864.352 745.879 864.178 754.048 863.957 762.207C863.847 766.257 864.063 770.639 863.442 774.636C862.761 779.021 859.579 785.361 855.684 787.729C850.643 790.794 837.004 786.001 831.132 785.683C825.59 785.381 819.616 786.014 814.032 786.191C774.128 787.454 734.379 790.249 694.43 790.546C685.804 790.61 673.214 791.97 665.051 790.216C659.426 789.008 653.814 786.522 650.689 781.565C655.923 763.614 656.933 739.417 656.818 720.815C656.778 714.303 655.734 707.418 656.192 700.978C656.376 698.391 657.612 695.834 658.141 693.294C658.567 691.245 658.348 689.174 658.949 687.132C659.185 686.333 659.641 685.173 660.256 684.584C661.192 683.687 661.502 683.744 662.7 683.798C663.277 684.164 663.764 684.506 664.165 685.073C666.047 687.73 665.292 690.515 664.889 693.501C666.92 702.112 667.092 710.883 667.382 719.691C667.765 731.306 667.95 742.856 667.609 754.474C667.378 762.33 666.709 770.173 666.592 778.028C716.449 778.062 766.153 774.686 815.985 773.654C826.806 773.429 837.6 772.984 848.428 773.117C848.971 761.719 848.969 750.357 849.316 738.964C849.746 724.829 850.492 710.681 851.054 696.548C824.204 698.834 796.68 697.238 769.773 696.633C740.067 695.966 710.236 695.823 680.626 693.24C678.163 693.025 676.227 692.564 674.593 690.614C674.235 689.145 674.158 688.993 674.686 687.594C676.158 686.168 677.614 685.526 679.611 685.056C684.474 683.913 690.072 683.931 695.05 683.628Q711.74 682.56 728.462 682.24Z"/>
</svg>
