<svg xmlns="http://www.w3.org/2000/svg" xmlns:xlink="http://www.w3.org/1999/xlink" viewBox="0 0 430 430" width="430" height="430" preserveAspectRatio="xMidYMid meet" style="width: 100%; height: 100%; transform: translate3d(0px, 0px, 0px); content-visibility: visible;"><defs><clipPath id="__lottie_element_286"><rect width="430" height="430" x="0" y="0"/></clipPath><clipPath id="__lottie_element_288"><path d="M0,0 L430,0 L430,430 L0,430z"/></clipPath><g id="__lottie_element_304"><g transform="matrix(0,1,-1,0,215,215)" opacity="1" style="display: block;"><g opacity="1" transform="matrix(1,0,0,1,0,0)"><path fill="rgb(8,168,138)" fill-opacity="1" d=" M25,-100 C26.035999298095703,-100 26.875,-99.16100311279297 26.875,-98.125 C26.875,-98.125 26.875,98.125 26.875,98.125 C26.875,99.16100311279297 26.035999298095703,100 25,100 C25,100 -24.375,100 -24.375,100 C-25.410999298095703,100 -26.25,99.16100311279297 -26.25,98.125 C-26.25,98.125 -26.25,-98.125 -26.25,-98.125 C-26.25,-99.16100311279297 -25.410999298095703,-100 -24.375,-100 C-24.375,-100 25,-100 25,-100z"/></g></g></g><mask id="__lottie_element_304_1" mask-type="alpha"><use xmlns:ns1="http://www.w3.org/1999/xlink" ns1:href="#__lottie_element_304"/></mask></defs><g clip-path="url(#__lottie_element_286)"><g clip-path="url(#__lottie_element_288)" transform="matrix(1,0,0,1,0,0)" opacity="1" style="display: block;"><g transform="matrix(-1,0,0,-1,215.5,214.5)" opacity="1" style="display: block;"><g opacity="1" transform="matrix(1,0,0,1,0,0)"><path class="secondary" fill="rgb(227,227,227)" fill-opacity="1" d=" M0,167.5 C92.50800323486328,167.5 167.5,92.50800323486328 167.5,0 C167.5,-92.50800323486328 92.50800323486328,-167.5 0,-167.5 C-92.50800323486328,-167.5 -167.5,-92.50800323486328 -167.5,0 C-167.5,92.50800323486328 -92.50800323486328,167.5 0,167.5z"/></g></g><g transform="matrix(1,0,0,1,176.72100830078125,219.86500549316406)" opacity="0.5" style="mix-blend-mode: multiply; display: block;"><g opacity="1" transform="matrix(1,0,0,1,0,0)"><path class="secondary" fill="rgb(227,227,227)" fill-opacity="1" d=" M63.92599868774414,161.03399658203125 C87.33899688720703,157.4149932861328 109.72000122070312,148.8820037841797 129.5989990234375,135.9949951171875 C90.84300231933594,149.79100036621094 48.37099838256836,148.87899780273438 10.244000434875488,133.4290008544922 C-27.882999420166016,117.97899627685547 -59.01100158691406,89.06900024414062 -77.23100280761719,52.185001373291016 C-95.45099639892578,15.300999641418457 -99.49400329589844,-26.988000869750977 -88.59400177001953,-66.65599822998047 C-77.69400024414062,-106.3239974975586 -52.60900115966797,-140.61000061035156 -18.10099983215332,-163.0050048828125 C-40.41600036621094,-155.0489959716797 -60.792999267578125,-142.45899963378906 -77.8949966430664,-126.06500244140625 C-94.99700164794922,-109.6709976196289 -108.43599700927734,-89.84300231933594 -117.3270034790039,-67.88400268554688 C-126.21800231933594,-45.92499923706055 -130.36099243164062,-22.332000732421875 -129.48399353027344,1.3420000076293945 C-128.60699462890625,25.016000747680664 -122.72899627685547,48.23699951171875 -112.23699951171875,69.47699737548828 C-101.74500274658203,90.71700286865234 -86.875,109.49600219726562 -68.60700225830078,124.58000183105469 C-50.3390007019043,139.66400146484375 -29.083999633789062,150.7100067138672 -6.242000102996826,156.9929962158203 C16.600000381469727,163.2760009765625 40.51300048828125,164.6529998779297 63.92599868774414,161.03399658203125z"/></g></g><g transform="matrix(0,1,-1,0,215,215)" opacity="1" style="display: block;"><g opacity="1" transform="matrix(1,0,0,1,0,0)"><path class="primary" fill="rgb(180,180,180)" fill-opacity="1" d=" M25,-100 C26.035999298095703,-100 26.875,-99.16100311279297 26.875,-98.125 C26.875,-98.125 26.875,98.125 26.875,98.125 C26.875,99.16100311279297 26.035999298095703,100 25,100 C25,100 -24.375,100 -24.375,100 C-25.410999298095703,100 -26.25,99.16100311279297 -26.25,98.125 C-26.25,98.125 -26.25,-98.125 -26.25,-98.125 C-26.25,-99.16100311279297 -25.410999298095703,-100 -24.375,-100 C-24.375,-100 25,-100 25,-100z"/></g></g><g mask="url(#__lottie_element_304_1)" style="display: block;"><g transform="matrix(1,0,0,1,215,215)" opacity="1"><g opacity="1" transform="matrix(1,0,0,1,-94.25,2.5)"><path class="primary" fill="rgb(180,180,180)" fill-opacity="1" d=" M92.75,-193 C92.75,-193 92.75,193 92.75,193 C92.75,193 -92.75,193 -92.75,193 C-92.75,193 -92.75,-193 -92.75,-193 C-92.75,-193 92.75,-193 92.75,-193z"/><path class="primary" fill="rgb(180,180,180)" fill-opacity="0.5" d=" M92.75,-193 C92.75,-193 92.75,193 92.75,193 C92.75,193 -92.75,193 -92.75,193 C-92.75,193 -92.75,-193 -92.75,-193 C-92.75,-193 92.75,-193 92.75,-193z" style="mix-blend-mode: multiply;"/></g></g></g></g></g></svg>