<svg width="160" height="147" viewBox="0 0 160 147" fill="none" xmlns="http://www.w3.org/2000/svg">
<path d="M56.3857 3.94238C64.5635 2.38925 71.8142 1.69508 80.0518 2.12793C81.2135 2.45806 82.4328 2.59382 83.5127 2.68848C84.5462 2.77906 85.4234 2.8333 86.251 2.94629L86.6035 2.99805C89.7136 3.50094 92.9034 4.25966 96.0254 5.09668L97.3584 5.45996C117.307 10.967 136.172 23.9648 146.56 41.9209L147.048 42.7803C149.36 46.9208 152.005 53.0993 153.984 59.46C155.978 65.8657 157.217 72.2081 156.903 76.7529L156.883 77.043L156.946 77.3271C157.24 78.6386 157.083 80.3092 157.012 82.2021L157.011 82.2217V82.2422C156.882 89.8206 156.127 96.873 153.526 103.783L153.269 104.451C150.66 111.068 145.3 117.504 138.801 123.063C132.726 128.26 125.78 132.585 119.476 135.487L118.224 136.049C98.8694 144.492 76.256 145.427 56.5771 137.675H56.5781C37.0133 129.966 19.2112 115.528 10.5127 96.3213L10.1055 95.4023C8.30928 91.2672 6.748 86.8757 5.92383 82.5449L5.76855 81.6797C4.56114 74.4695 4.78725 65.7417 6.36621 57.2324C7.89709 48.9825 10.674 41.0772 14.5186 35.0391L14.8936 34.4609C16.6591 31.7918 18.7752 29.0214 20.9502 26.6914L21.3857 26.2314C21.5945 26.0144 21.8903 25.7428 22.2773 25.3945C22.6447 25.064 23.0846 24.6726 23.5049 24.2754C23.9257 23.8777 24.3696 23.4343 24.7559 22.9746C25.1268 22.5331 25.5338 21.9734 25.7842 21.3389L26.2568 20.1426L26.2539 20.1396C26.3167 20.0942 26.3806 20.048 26.4453 20.001C26.6697 19.8379 26.9538 19.6309 27.1748 19.4375L27.1875 19.4258L27.2012 19.4131C28.1854 18.5206 29.0622 17.5166 29.8525 16.6191C30.568 15.8067 31.2222 15.0696 31.916 14.415L32.2158 14.1396C36.5289 10.2911 42.9249 6.83037 48.5 5.31934L49.0371 5.17871C50.1466 4.90049 51.3099 4.71437 52.5537 4.53516C53.4642 4.40397 54.4384 4.27436 55.4131 4.11426L56.3857 3.94238Z" fill="#A4A4A4" stroke="black" stroke-width="4"/>
<path d="M53.5723 6.9248C61.6549 5.38974 68.7971 4.70468 76.8945 5.12109C78.1186 5.45548 79.3719 5.59228 80.4248 5.68457C81.4949 5.77837 82.3267 5.82955 83.1104 5.93652L83.4434 5.98535C86.507 6.48073 89.6602 7.23024 92.7646 8.0625L94.0918 8.42383C113.831 13.873 132.458 26.7289 142.693 44.4219L143.175 45.2676C145.448 49.338 148.067 55.4508 150.029 61.7568C152.013 68.1305 153.206 74.3292 152.905 78.6846L152.876 79.1191L152.971 79.5449C153.227 80.6915 153.087 82.1662 153.013 84.1641L153.012 84.1953L153.011 84.2256C152.883 91.7513 152.132 98.6737 149.59 105.431L149.339 106.084C146.813 112.491 141.583 118.801 135.15 124.304C129.147 129.44 122.279 133.714 116.059 136.578L114.824 137.132C95.9957 145.346 74.0569 146.362 54.8564 139.097L53.9443 138.744C34.5609 131.107 16.9914 116.826 8.42383 97.9092L8.02246 97.0049V97.0039C6.24205 92.905 4.71128 88.5885 3.90625 84.3584L3.75488 83.5137C2.57024 76.439 2.78777 67.8308 4.34961 59.4141C5.86448 51.2506 8.60508 43.477 12.3613 37.5771L12.7275 37.0127C14.4692 34.3797 16.5518 31.6558 18.6807 29.375L19.1064 28.9248C19.2864 28.7377 19.556 28.4889 19.9463 28.1377C20.3068 27.8133 20.7606 27.4111 21.1924 27.0029C21.625 26.594 22.0996 26.1202 22.5215 25.6182C22.9132 25.1519 23.3874 24.5106 23.6963 23.748L23.6973 23.749C23.6671 23.822 23.6811 23.7733 23.8066 23.5703C23.9126 23.3989 24.0534 23.19 24.21 22.9727C24.3665 22.7554 24.523 22.5525 24.6572 22.3916C24.8102 22.2083 24.8676 22.1592 24.833 22.1895L24.8525 22.1719L24.873 22.1543C25.9067 21.217 26.8207 20.1681 27.6025 19.2803C28.3224 18.4628 28.9487 17.7597 29.6006 17.1445L29.8818 16.8857C34.0805 13.1393 40.3372 9.75496 45.7578 8.28516L46.2803 8.14844C47.3369 7.8835 48.4572 7.70296 49.6963 7.52441C50.5922 7.39533 51.5823 7.2642 52.5781 7.10059L53.5723 6.9248Z" stroke="black" stroke-width="6"/>
<path d="M27.8198 69.4487C28.8797 68.2528 29.9318 66.975 31.4158 66.3023C35.4803 64.4612 82.8762 64.5059 90.2229 63.7321C91.0055 55.8065 68.3663 30.1567 72.122 25.2967C73.7303 23.2162 76.0184 22.3394 78.5807 22.129C81.1162 21.9208 83.4492 22.4653 85.3481 24.2211C87.2217 25.9543 88.283 28.517 88.7814 30.9737C90.386 38.8717 89.6124 54.6449 90.2229 63.7321C99.9601 63.959 117.304 61.6189 125.838 63.9706C128.584 64.7268 130.969 66.215 132.287 68.8187C133.933 72.0691 132.695 75.753 131.461 78.878C130.239 79.9741 128.939 81.2008 127.373 81.7708C119.622 84.5954 80.5412 83.8268 71.2514 83.9494C71.604 91.5938 92.0705 108.582 91.1563 115.276C90.791 117.953 89.8687 120.479 88.1327 122.578C86.3536 124.727 83.6437 126.435 80.7898 126.5C78.9751 126.54 77.305 125.891 75.968 124.679C69.8851 119.162 71.2514 83.9494 71.2514 83.9494C63.8973 83.9212 33.729 86.4786 29.6726 81.8284C26.9921 78.7554 27.3124 73.1693 27.8198 69.4487Z" fill="#4E4D4D"/>
<ellipse cx="86.5" cy="41.5" rx="20.5" ry="22.5" fill="#A4A4A4"/>
<ellipse cx="73.5" cy="108" rx="20.5" ry="24" fill="#A4A4A4"/>
</svg>
