<svg width="1018" height="1018" viewBox="0 0 1018 1018" fill="none" xmlns="http://www.w3.org/2000/svg">
<path d="M338.694 189.317C319.687 165.027 318.598 140.826 317.977 111.302C317.807 103.226 317.006 94.468 318.037 86.454C321.17 62.1025 341.59 37.9401 360.659 23.5697C386.363 4.20061 406.307 -0.867577 438.124 0.115743C446.255 0.366995 454.308 0.283177 462.381 1.43518C474.735 3.19821 495.074 6.14317 505.124 13.8323C509.071 16.852 511.799 21.4155 515.621 24.6125C519.318 27.7045 524.587 29.7812 527.548 33.6039C529.01 35.4926 529.537 37.6736 529.094 40.0305C528.634 42.4766 526.77 44.181 525.095 45.8708C540.797 61.5822 545.949 76.8325 547.943 98.5078C549.903 99.7891 552.123 100.768 552.642 103.197C552.875 104.296 552.54 105.304 552.222 106.35C550.797 107.927 549.384 108.733 547.516 109.724C545.786 119.707 550.229 139.825 552.038 150.389C555.869 154.391 560.358 159.147 560.097 165.122C559.907 169.435 557.095 174.603 554.362 177.872C560.626 193.818 564.877 208.728 560.219 225.831C558.365 232.635 555.963 239.293 554.86 246.277C573.865 257.389 594.031 261.834 615.155 267.154C635.903 272.38 656.945 277.375 677.115 284.555C685.475 287.531 694.153 290.232 701.566 295.253C710.084 301.025 717.091 309.934 722.126 318.852C733.716 339.383 737.72 362.618 745.543 384.578C747.925 391.266 751.78 397.602 755.118 403.848C762.491 417.647 769.851 431.597 773.878 446.794C774.689 449.909 775.306 453.061 775.73 456.251C789.475 471.273 816.146 487.63 821.546 507.792C823.204 514.007 822.881 520.127 823.339 526.449C828.521 531.465 845.431 545.014 845.149 552.686C845.149 552.959 845.107 553.231 845.087 553.504C854.011 551.965 863.446 550.571 871.984 547.433C882.545 543.552 902.155 526.733 913.07 534.117C916.375 536.351 918.773 540.855 919.378 544.745C920.295 550.68 916.386 558.12 912.789 562.609C906.721 570.173 893.45 579.819 883.942 582.803C893.471 587.849 901.081 596.334 910.266 602.003C917.616 606.537 932.118 613.566 940.249 617.406C950.331 622.172 969.816 627.426 973.339 639.372C974.184 642.247 973.673 644.641 972.14 647.153C968.95 652.356 965.208 654.548 959.359 655.895L958.671 656.047C953.847 654.872 949.034 653.66 944.232 652.411C939.624 658.975 948.058 666.876 930.189 670.084C922.964 671.381 915.698 670.386 908.514 669.341C907.451 673.273 905.283 676.318 901.728 678.363C893.085 683.331 881.596 680.629 872.672 678.083C873.172 680.827 872.693 685.192 871.171 687.594C869.148 690.821 865.041 692.226 861.465 692.849C853.74 694.19 849.903 691.962 842.751 690.31C836.037 695.339 828.25 698.048 819.815 696.918C793.322 693.366 782.337 671.388 766.095 653.977C756.076 643.236 745.343 633.341 736.537 621.498C725.943 607.252 724.029 596.532 726.342 579.374C718.053 582.264 709.212 584.598 700.872 580.424C696.203 578.088 692.993 573.994 691.415 569.065C689.437 562.891 689.927 555.91 692.077 549.862C688.293 547.097 681.93 543.732 679.703 539.599C679.283 538.819 678.8 538.064 678.36 537.294L677.158 537.327C674.723 544.212 675.109 556.393 673.978 564.099C671.95 577.902 669.215 591.741 668.613 605.702C666.352 658.244 679.406 710.143 683.381 762.23C686.151 798.521 684.87 834.586 683.488 870.892C682.763 889.965 683.423 914.918 677.404 932.77C673.769 936.132 669.964 938.81 665.787 941.454C665.715 955.427 663.972 969.097 663.184 982.997C662.801 989.726 663.42 996.832 662.179 1003.45C661.726 1005.87 660.931 1008.6 659.119 1010.34C658.357 1011.08 657.468 1011.44 656.504 1011.82C654.913 1011.07 654.697 1010.93 654.045 1009.27C652.112 1004.34 652.964 996.677 652.942 991.388C652.836 991.662 652.733 991.939 652.622 992.21C649.807 999.046 642.218 1008.13 635.225 1010.91C633.541 1011.57 633.146 1011.56 631.397 1011.13C630.772 1009.96 630.452 1009.66 630.944 1008.31C632.043 1005.27 635.622 1001.81 637.744 999.355C637.214 998.167 637.507 998.694 636.901 997.754L639.812 994.695L638.863 994.356C627.782 1000.91 632.242 1010.03 614.164 1010.18L613.358 1009.61C615.149 1007.93 619.306 1004.88 620.079 1002.7C616.95 1004.37 614.568 1006.47 611.967 1008.86C611.13 1010.24 608.524 1011.9 606.919 1012.35C605.486 1012.75 605.045 1012.33 603.804 1011.7C603.632 1011.16 603.51 1010.87 603.444 1010.33C603.169 1008.07 604.433 1006.01 605.785 1004.32C606.987 1002.82 608.154 1001.3 609.339 999.79C607.796 999.477 607.658 999.222 606.352 1000.08C602.311 1002.73 600.534 1008.38 595.241 1008.16C594.783 1010.39 594.76 1011.09 593.223 1012.86C590.057 1012.26 587.825 1014.31 584.693 1013.39C584.252 1012.28 583.697 1011.44 583.891 1010.23C584.201 1008.29 587.883 1003.9 589.59 1002.88C590.549 1002.31 590.4 1002.09 590.762 1001.06L589.718 1000.47C583.516 1004.82 574.757 1014.89 566.65 1013.71C566.034 1013.62 565.709 1013.48 565.087 1013.27C564.486 1012.22 564.222 1012.32 564.618 1011.05C566.35 1005.47 584.367 990.984 589.557 986.719C576.721 992.631 566.748 1003.75 554.868 1011.44C553.032 1013.07 548.615 1015.51 546.174 1015.97C544.095 1016.36 542.833 1015.83 541.156 1014.67C540.693 1013.91 539.946 1013.04 539.864 1012.16C539.669 1010.03 540.096 1008.48 541.597 1006.9C543.85 1004.54 548.173 1003.33 551.31 1003.1C553.285 1000.74 555.28 998.932 557.703 997.051C559.965 995.273 562.192 993.452 564.384 991.589C560.128 992.805 554.588 996.182 552.147 999.964C550.8 1000.89 550.009 1001.2 548.393 1001.41C542.766 1002.12 539.54 1007.41 534.816 1009.49C533.367 1011.36 532.818 1012.64 530.453 1013.38C529.404 1012.89 528.37 1012.42 527.371 1011.82C524.736 1013.21 521.286 1014.77 518.26 1014.73C516.066 1014.7 515.414 1014.02 513.94 1012.62C513.959 1008.55 519.8 1007.89 520.452 1004.25C520.237 1004.33 520.02 1004.4 519.807 1004.48C513.123 1007.06 507.556 1016.56 499.88 1013.31C499.617 1013.2 499.359 1013.08 499.094 1012.98C496.704 1012.01 495.813 1012.32 493.328 1012.79C492.122 1013.54 490.448 1014.44 489.009 1014.61C487.056 1014.83 486.085 1014.23 484.55 1013.16C484.158 1012.28 483.789 1011.49 483.788 1010.51C483.782 1007.5 486.615 1004.9 488.632 1002.97L488.186 1002.17C483.023 1006.14 478.062 1015.24 470.255 1014.19C467.602 1013.82 465.726 1011.99 464.282 1009.86C460.828 1004.77 459.006 997.98 456.834 992.232C453.304 998.317 449.453 1010.68 443.907 1014.41C441.027 1013.93 440.473 1013.55 438.555 1011.35C430.844 1010.35 422.351 1018.35 415.691 1015.91C415.482 1014 416.073 1013.02 417.268 1011.5C418.912 1009.41 422.55 1006.49 422.984 1003.96L422.459 1004.46C420.929 1005.91 418.878 1008.08 416.64 1008.21C413.615 1010.81 410.692 1013.32 407.26 1015.38C404.683 1017.34 402.499 1018.56 399.151 1017.74C397.165 1017.27 396.479 1015.87 395.476 1014.3L396.254 1011.64C395.757 1012.09 395.805 1012.07 395.151 1012.55C390.427 1015.99 382.7 1018.1 377.194 1015.49C375.608 1014.74 373.082 1012.57 371.408 1012.45C367.413 1012.17 363.554 1016.68 359.216 1015.94C357.595 1014.71 357.24 1014.64 356.625 1012.62C357.095 1009.68 358.907 1007.81 360.723 1005.57C359.161 993.195 354.886 981.088 353.975 968.733C352.29 945.897 357.042 922.16 358.169 899.3C359.545 871.406 357.03 843.384 354.757 815.616C354.509 812.587 355.26 804.792 353.394 802.727C350.387 804.512 348.226 807.803 346.066 810.523L346.527 810.259C343.934 812.88 340.762 816.665 336.908 817.16C337.82 814.455 340.179 813.374 341.531 810.893C341.607 810.754 341.677 810.613 341.75 810.474L339.728 810.329C336.732 812.418 326.783 816.443 325.374 819.231C325.175 819.624 324.933 819.994 324.708 820.373L323.084 820.194C322.514 818.303 322.42 817.378 320.985 815.98L316.188 817.174C314.648 818.055 313.171 818.962 311.481 819.53L309.157 816.865C309.3 815.609 309.858 814.944 310.553 813.928L310.051 813.276C306.863 814.606 305.292 817.495 304.047 820.555C300.008 830.473 297.215 886.978 298.274 899.137C299.843 917.163 307.76 939.131 303.194 957.049C302.121 961.258 299.391 965.638 297.271 969.439C299.041 970.971 300.924 972.458 302.567 974.125C303.326 979.204 304.699 985.382 301.361 989.887C301.189 990.119 301.004 990.342 300.826 990.568C297.986 993.898 295.307 997.354 291.553 999.7C286.849 1003.41 282.51 1006.15 276.759 1007.9C273.422 1009.23 269.041 1011.1 265.523 1009.36C264.067 1008.65 263.225 1007.77 262.792 1006.21C261.839 1002.79 264.303 998.851 266.075 996.083C269.63 990.531 273.206 984.762 277.133 979.466C283.093 971.427 291.67 963.969 294.14 953.865C296.969 942.294 291.836 922.199 290.332 910.152C289.163 901.476 288.544 892.76 288.474 884.006C288.484 871.034 294.281 848.576 291.66 837.347C291.37 836.109 291.242 836.167 290.178 835.497C288.588 836.795 287.672 837.916 285.572 838.19C283.376 836.496 282.925 834.104 282.591 831.48C282.285 829.076 282.116 826.77 282.245 824.348C282.283 823.644 282.141 823.139 281.877 822.494C279.181 823.283 274.106 832.317 272.558 835.121C269.348 840.935 259.873 850.452 261.858 857.338L262.963 857.698C267.308 852.98 268.563 847.177 274.662 844.066L275.896 844.247C276.306 848.287 272.082 853.511 269.662 856.467C263.345 864.185 259.841 864.499 261.117 876.052C261.233 877.094 261.51 877.998 261.823 878.992L260.693 877.602L262.734 879.268L261.453 878.061L262.218 879.318L265.298 877.855L266.157 878.663L265.89 880.196C264.891 880.788 263.329 881.288 263.075 882.456C260.935 892.251 278.249 902.08 263.424 913.464C256.561 918.734 247.944 922.375 240.47 926.743C229.031 933.426 218.056 941.198 206.215 947.129C194.863 952.814 182.563 956.114 170.888 961.008C160.702 965.277 151.055 970.972 140.596 974.577C137.113 975.778 132.033 977.395 128.317 976.762C126.478 976.45 125.562 975.143 124.602 973.642C119.346 965.431 117.297 952.35 119.576 942.88C120.001 941.112 120.705 940.1 121.948 938.807C132.141 935.126 148.538 948.606 163.585 949.082C190.91 949.947 215.902 929.669 238.3 916.484C244.863 912.62 253.766 909.556 259.383 904.478C258.973 901.69 257.304 899.059 256.245 896.459C253.192 888.965 251.389 881.782 250.998 873.648C249.938 851.557 256.26 817.413 259.012 794.098C263.3 757.768 265.211 714.8 274.631 679.924C279 663.754 286.383 646.717 296.477 633.281C301.581 626.486 307.681 620.833 313.96 615.139C307.102 616.656 299.566 617.872 293.041 620.45C279.909 625.636 266.481 638.715 258.961 650.45C243.286 674.911 223.927 721.247 224.99 750.665C233.999 733.2 242.172 699.804 253.22 686.46L255.79 686.758L255.648 686.12L254.302 685.507L255.599 685.932C256.828 692.864 238.314 745.079 233.636 751.711C231.499 754.741 228.144 757.679 224.41 758.27C222.457 758.58 220.602 758.513 219.009 757.228C216.264 755.018 215.948 750.466 215.765 747.204C214.06 716.753 239.379 657.525 259.695 634.749C274.653 617.979 294.665 605.377 317.641 604.47C343.31 603.455 362.074 622.796 380.336 638.257C383.45 640.894 386.24 644.87 390.54 645.085C393.463 640.895 392.695 626.495 391.819 621.411C390.482 613.647 385.907 608.002 379.548 603.606C369.719 596.812 358.294 592.847 347.834 587.217C335.251 580.444 325.38 571.327 311.191 567.382C296.827 563.388 285.348 564.698 269.287 559.017C259.275 561.83 248.82 561.958 238.851 564.793C210.275 572.918 182.719 596.17 168.296 622.023C162.196 632.959 158.193 644.905 152.389 655.973C115.442 726.436 101.508 757.843 100.25 839.481C107.81 818.52 139.492 710.359 152.446 702.795C152.629 702.689 152.836 702.631 153.031 702.548C153.034 710.044 140.054 742.801 136.349 752.823C125.792 781.386 120.138 811.664 109.102 840.094C104.98 850.71 99.1236 861.692 93.5168 871.615C82.0979 891.821 55.5925 912.348 54.4895 936.226C53.6408 954.583 71.9509 974.775 84.2466 987.043C88.5783 991.365 93.3938 995.777 98.3166 999.411C102.013 1002.14 106.691 1004.46 109.908 1007.7C110.999 1008.81 111.427 1009.9 111.694 1011.41C111.073 1012.51 111.12 1012.81 109.887 1013.17C106.044 1014.27 101.021 1012.33 97.7276 1010.37C77.1219 998.151 52.2011 972.713 46.4348 948.858C43.4146 936.365 45.1223 924.276 51.9394 913.376C62.3533 896.726 79.6323 881.69 86.5537 863.3C90.5404 852.709 89.1674 839.394 89.82 828.137C90.4365 818.47 91.2142 808.815 92.1532 799.173C97.7547 742.004 112.762 709.234 138.927 659.087C141.389 654.366 145.039 650.352 147.481 645.651C144.346 642.43 142.798 641.24 142.887 636.456C143.028 628.989 145.347 621.231 147.132 614.002C136.904 603.006 128.48 594.257 128.979 578.28C129.442 563.398 139.544 546.428 148.327 534.652C145.488 526.754 146.237 518.841 147.606 510.705C150.814 491.645 157.228 472.471 162.935 454.022C168.016 437.595 172.81 421.054 177.673 404.559C183.442 384.994 186.614 364.269 195.288 345.685C198.716 338.342 203.257 331.309 209.321 325.869C225.815 311.071 271.881 292.372 293.556 282.745C300.355 279.724 307.57 277.398 313.918 273.482C305.26 267.012 300.99 258.908 299.487 248.203C297.785 236.09 302.596 224.83 309.941 215.416C318.096 204.965 329.621 198.719 338.694 189.317Z" fill="#151515"/>
<path d="M520.452 1004.25C520.475 999.558 524.96 995.335 528.206 992.138C529.595 990.768 530.602 990.163 532.524 990.198L536.192 994.418C537.557 994.661 537.767 994.717 539.04 994.205L537.08 992.243C537.319 990.824 539.641 990.378 540.694 989.164C540.813 987.224 540.769 985.596 541.839 983.922C542.239 983.929 542.639 983.936 543.04 983.96C545.6 984.111 547.693 984.658 549.399 986.632C549.826 988.742 549.757 989.41 548.635 991.299C547.424 993.337 545.669 994.952 543.37 995.545C542.386 995.065 541.935 994.789 540.818 994.77C540.994 994.863 541.178 994.941 541.347 995.047C542.71 995.906 543.621 996.848 544.086 998.408C542.624 999.845 539.199 1000.28 537.148 1001.05L539.818 1003.17C543.588 1002.37 543.706 997.11 547.498 995.665C548.714 996.606 548.682 996.959 549.146 998.454L552.147 999.964C550.8 1000.89 550.009 1001.2 548.393 1001.41C542.766 1002.12 539.54 1007.41 534.816 1009.49C533.367 1011.36 532.818 1012.64 530.453 1013.38C529.404 1012.89 528.37 1012.42 527.371 1011.82C524.736 1013.21 521.286 1014.77 518.26 1014.73C516.066 1014.7 515.414 1014.02 513.94 1012.62C513.959 1008.55 519.8 1007.89 520.452 1004.25Z" fill="#1A1A1A"/>
<path d="M527.371 1011.82C528.046 1010.08 528.472 1009.25 529.997 1008.14C532.238 1008.11 532.804 1008.43 534.816 1009.49C533.367 1011.36 532.818 1012.64 530.453 1013.38C529.404 1012.89 528.37 1012.42 527.371 1011.82Z" fill="#242424"/>
<path d="M279.431 1004.61C277.503 1003.69 278.831 1002.33 277.498 1000.82C276.476 1002 275.465 1003.7 273.939 1004C273.336 1003.14 272.747 1002.35 272.021 1001.59L271.356 1000.89L271.665 999.942L275.025 1000.14C275.242 997.157 281.503 991.938 283.401 989.132C284.463 987.565 284.788 985.985 285.548 984.319C286.432 982.381 287.11 982.059 289.072 981.47L290.133 982.261L290.174 984.933L291.295 985.314C292.005 984.883 292.742 984.407 293.51 984.084C295.176 983.387 295.718 983.479 297.338 984.19C297.807 985.081 298.253 986.003 298.887 986.789C299.89 988.03 300.327 989.05 300.826 990.568C297.986 993.898 295.307 997.354 291.553 999.701C286.849 1003.41 282.51 1006.15 276.759 1007.9C277.986 1006.44 279.155 1005.68 280.812 1004.73L281.432 1004.38L279.431 1004.61Z" fill="#1A1A1A"/>
<path d="M279.431 1004.61C279.282 1002.74 278.857 1001.98 280.036 1000.45C281.211 1000.64 282.204 1000.8 283.401 1000.72C283.661 999.933 283.893 999.303 284.309 998.586C285.911 995.824 290.018 990.781 293.17 990.037C294.024 991.963 292.082 997.459 291.553 999.7C286.849 1003.41 282.51 1006.15 276.759 1007.9C277.986 1006.44 279.155 1005.68 280.812 1004.73L281.432 1004.38L279.431 1004.61Z" fill="#242424"/>
<path d="M327.92 806.259C328.217 805.102 328.121 804.106 328.058 802.926C326.251 802.922 323.667 800.18 322.265 798.933C320.732 797.568 319.872 797.297 319.738 795.224C321.192 793.695 322.294 792.578 324.234 791.709C325.293 792.682 325.72 793.961 326.279 795.253L327.95 795.646C329.732 794.859 331.038 794.058 332.462 792.741C334.907 790.478 334.83 789.578 334.949 786.365C335.334 785.95 335.533 785.693 335.958 785.364C337.637 784.064 339.799 784.12 341.781 784.433L345.94 785.086C348.16 784.058 350.249 783.307 352.626 782.722L353.581 783.38C353.533 784.031 353.558 784.149 353.306 784.859C351.039 791.273 345.098 796.063 339.037 798.399C335.298 798.841 331.516 804.404 327.92 806.259Z" fill="#1A1A1A"/>
<path d="M554.868 1011.44C553.032 1013.07 548.615 1015.51 546.174 1015.97C544.095 1016.36 542.833 1015.83 541.156 1014.67C540.693 1013.91 539.945 1013.04 539.864 1012.16C539.669 1010.03 540.096 1008.48 541.597 1006.9C543.85 1004.54 548.173 1003.33 551.31 1003.1L551.289 1003.73C551.207 1005.65 550.974 1007.11 550.266 1008.88C551.77 1009.82 553.285 1010.64 554.868 1011.44Z" fill="#151515"/>
<path d="M407.636 1009.1C410.568 1007.56 413.567 1007.32 416.639 1008.21C413.615 1010.81 410.692 1013.32 407.26 1015.38C404.683 1017.34 402.499 1018.56 399.151 1017.74C397.165 1017.26 396.479 1015.87 395.476 1014.3L396.254 1011.64C397.002 1011.01 397.513 1010.78 398.401 1010.4L399.425 1011.99C400.816 1012.11 401.358 1011.94 402.595 1011.26C403.385 1010.82 403.877 1010.53 404.764 1010.32C405.836 1010.06 406.668 1009.61 407.636 1009.1Z" fill="#1A1A1A"/>
<path d="M327.92 806.259C331.516 804.404 335.298 798.841 339.037 798.399C335.534 806.165 325.988 810.185 323.435 819.325C323.35 819.627 323.201 819.905 323.084 820.195C322.514 818.304 322.42 817.379 320.985 815.981L316.188 817.174C319.406 814.816 321.867 811.447 325.068 809.206C326.4 808.274 327.025 807.594 327.92 806.259Z" fill="#EBEAEA"/>
<path d="M609.339 999.79C610.595 1000.63 611.135 1000.75 611.668 1002.2C611.575 1002.31 611.467 1002.41 611.387 1002.53C610.837 1003.38 610.808 1004.5 610.681 1005.48L611.036 1005.66C611.763 1006.95 611.353 1007.71 611.967 1008.86C611.13 1010.24 608.523 1011.9 606.919 1012.35C605.486 1012.75 605.045 1012.33 603.804 1011.7C603.632 1011.16 603.51 1010.87 603.444 1010.33C603.169 1008.07 604.433 1006.01 605.785 1004.32C606.987 1002.82 608.153 1001.3 609.339 999.79Z" fill="#1A1A1A"/>
<path d="M339.728 810.329C339.896 810.137 340.067 809.947 340.233 809.752C341.443 808.334 342.166 807.505 342.614 805.66C343.108 803.633 349.604 796.601 351.469 795.311C351.853 795.044 352.415 794.813 352.82 794.625L353.486 795.366C352.484 803.177 345.94 805.126 341.75 810.474L339.728 810.329Z" fill="#EBEAEA"/>
<path d="M564.384 991.59C565.874 990.203 567.173 988.649 569.264 988.315C569.955 989.331 570.171 989.377 569.958 990.591C569.595 992.672 567.993 995.528 566.138 996.65C564.218 997.811 561.346 998.028 559.14 998.143L557.703 997.051C559.965 995.273 562.191 993.452 564.384 991.59Z" fill="#1A1A1A"/>
<path d="M493.328 1012.79C492.122 1013.54 490.448 1014.44 489.009 1014.61C487.056 1014.83 486.085 1014.23 484.55 1013.16C484.158 1012.28 483.789 1011.49 483.788 1010.51C483.782 1007.5 486.615 1004.9 488.632 1002.97C488.304 1005.25 488.009 1007.52 487.747 1009.8C489.036 1011.35 489.519 1011.35 491.467 1011.84C492.308 1012.05 492.672 1012.26 493.328 1012.79Z" fill="#242424"/>
<path d="M526.557 273.531C537.696 270.056 546.769 263.619 552.749 253.639C555.729 256.182 558.826 259.097 562.255 261.008C571.166 265.975 581.712 268.508 591.492 271.209C602.969 274.424 614.486 277.491 626.043 280.409C651.058 286.579 694.146 294.387 708.899 317.733C722.828 339.774 727.624 366.863 736.695 390.947C742.131 405.377 751.81 418.507 758.112 432.638C761.944 441.23 762.819 450.966 766.689 459.371C775.971 479.528 810.276 489.65 812.57 516.123C812.726 517.953 813.008 520.018 812.434 521.785L808.89 522.928C808.389 524.024 808.254 524.062 808.681 525.206C812.236 534.599 835.975 547.211 835.766 557.587C835.527 557.813 835.287 558.046 835.036 558.267C832.388 560.606 828.26 560.816 825.612 563.258C821.64 566.926 819.252 572.298 815.353 576.123C811.308 580.092 806.388 583.024 802.265 586.881C790.484 597.909 783.412 614.743 781.971 630.625C781.034 640.942 782.781 653.263 786.794 662.891C774.17 644.788 745.787 622.033 737.835 603.561C732.748 591.744 739.816 576.064 737.621 570.37C737.141 569.125 735.484 568.359 734.3 568.107C725.91 566.321 710.546 578.884 703.719 569.882C700.034 565.024 702.44 547.782 702.021 541.008C694.527 537.269 683.986 532.627 681.23 523.97C679.838 519.601 679.844 514.557 679.248 510.023C677.941 500.08 676.503 490.987 677.846 480.893C680.565 460.45 688.983 434.518 695.958 414.917C699.329 405.441 703.86 395.434 706.105 385.677C706.885 382.286 707.263 378.486 705.959 375.204L704.652 374.772C694.015 382.273 675.171 449.224 671.376 464.166C665.235 426.584 676.963 382.356 685.645 345.787C688.312 334.556 692.047 322.697 692.944 311.211C690.645 311.434 689.301 312.372 687.802 314.188C681.837 321.414 679.14 336.378 676.614 345.289C664.739 387.176 660.575 427.191 663.236 470.564C664.033 483.572 668.087 500.757 667.464 512.999C667.278 516.662 665.306 519.91 665.047 523.507C664.449 531.771 665.258 539.987 664.392 548.368C662.612 565.581 658.919 582.602 657.356 599.825C654.645 629.698 657.774 668.98 662.038 698.713C663.396 708.183 664.221 717.966 665.989 727.347C667.402 734.849 670.328 742.198 671.009 749.816C675.193 796.61 673.796 844.733 671.368 891.584C670.936 899.908 672.033 919.442 667.012 926.062C655.642 941.052 587.632 955.178 568.019 957.083C548.4 958.988 528.559 961.342 512.331 947.807C508.946 944.984 506.12 941.582 503.382 938.148C507.12 932.624 510.218 929.224 515.944 925.793C517.706 922.136 521.103 920.78 522.839 917.326C522.919 917.192 522.996 917.058 523.08 916.926C535.154 898.184 561.784 901.346 555 867.887C552.205 854.103 544.598 840.023 539.495 826.907C529.671 801.659 519.959 776.558 509.322 751.641C505.224 742.042 501.5 732.157 496.681 722.896C492.209 714.301 486.63 703.068 478.518 697.49C483.651 686.611 502.78 637.598 499.103 627.632C498.625 626.333 497.994 625.579 496.736 624.937C489.844 621.418 471.796 623.529 463.585 623.723C497.265 565.824 528.896 506.826 558.479 446.729C566.357 430.585 576.963 413.421 581.951 396.185C574.638 383.051 562.628 375.093 553.234 363.662C565.896 357.57 582.465 353.077 589.89 340.271C587.865 330.477 573.32 272.864 567.506 268.757C566.813 268.267 566.02 268.038 565.225 267.781C563.75 268.341 563.341 268.329 562.722 269.913C560.65 275.213 577.931 328.467 580.658 338.66C573.934 342.583 545.884 355.131 544.077 361.625C543.345 364.255 544.539 366.754 545.943 368.925C552.707 379.385 564.294 386.997 572.392 396.441C563.305 420.154 550.794 442.712 538.996 465.167C530.925 480.529 523.477 496.122 515.078 511.34C494.788 548.101 473.316 583.912 454.78 621.661C454.636 618.755 454.323 615.362 454.835 612.481C456.172 604.957 459.731 597.29 461.911 589.906C465.106 579.082 467.363 567.818 469.989 556.833C489.838 473.834 513.118 391.547 522.31 306.487C523.486 295.606 526.426 284.428 526.557 273.531Z" fill="white"/>
<path d="M527.175 916.529C527.834 914.709 529.019 912.82 530.86 911.997C532.376 911.319 533.016 911.676 534.499 912.057C535.371 913.677 535.609 914.474 534.954 916.298C534.151 918.531 531.826 920.604 530.162 922.267C525.45 927.846 518.52 937.431 511.681 940.192L510.116 938.787C512.189 934.469 514.38 930.343 515.944 925.793C517.706 922.136 521.103 920.78 522.839 917.326C524.307 917.283 525.744 916.852 527.175 916.529Z" fill="#1A1A1A"/>
<path d="M770.804 506.41C775.708 505.919 782.956 505.159 787.607 506.762C789.089 507.273 789.261 507.471 789.887 508.852C787.732 513.198 776.273 514.22 771.468 516.442C757.657 522.827 742.714 530.225 731.858 541.05C729.644 542.707 727.48 544.418 724.788 545.219C722.478 545.907 720.958 546.035 718.917 544.838C718.605 543.208 718.719 542.224 719.421 540.701C726.602 525.139 755.405 511.878 770.804 506.41Z" fill="#151515"/>
<path d="M626.966 486.246C628.999 486.063 631.112 485.805 633.151 485.855C634.825 485.896 636.398 486.063 637.528 487.314C637.319 487.997 637.159 488.554 636.675 489.101C629.04 497.737 579.448 502.477 565.721 502.354C563.647 502.585 561.578 502.751 559.5 502.438C557.194 502.091 554.625 501.336 553.214 499.4L553.724 497.684C555.707 495.839 557.41 494.867 560.064 494.254C569.469 492.08 579.875 492.25 589.504 491.258C602.026 489.968 614.47 487.798 626.966 486.246Z" fill="#151515"/>
<path d="M720.915 399.367C722.05 399.763 722.678 400.388 723.524 401.201C724.136 401.789 724.003 402.498 723.987 403.303C723.788 413.705 700.066 474.069 693.722 485.355C692.172 488.112 689.961 490.313 687.721 492.512L686.17 492.882L685.319 491.675C685.24 481.767 714.774 413.429 720.915 399.367Z" fill="#1A1A1A"/>
<path d="M653.368 737.913C655.254 737.344 657.687 737.245 659.617 737.559L660.344 738.626C660.21 739.33 660.113 739.916 659.707 740.527C657.792 743.412 653.714 746.449 650.599 747.869C638.729 753.279 607.973 759.922 594.643 762.006C594.046 762.029 593.457 762.033 592.859 762.04C591.654 762.054 590.21 762.182 589.037 761.886C587.141 761.409 586.505 760.092 585.602 758.57L586.24 756.87C595.374 749.163 638.346 743.547 652.587 738.212L653.368 737.913Z" fill="#151515"/>
<path d="M630.317 473.736C630.479 473.693 630.638 473.631 630.804 473.604C633.161 473.216 636.492 473.061 638.409 474.457C638.172 475.048 637.999 475.522 637.555 475.997C629.233 484.904 577.893 489.239 564.235 490.586C560.821 490.307 556.497 489.712 553.687 487.662L554.641 488.311L553.609 486.156C556.117 483.398 561.349 482.239 564.869 481.532C572.374 480.025 580.326 480.056 587.945 479.223C602.097 477.612 616.221 475.783 630.317 473.736Z" fill="#151515"/>
<path d="M746.958 476.131C758.072 476.107 771.532 479.92 781.506 484.927C785.209 486.786 789.858 489.584 791.252 493.691L790.484 494.965C785.01 496.741 779.761 494.076 774.634 492.25C761.939 486.395 750.662 486.617 737.092 485.821C732.825 485.571 728.814 485.546 725.855 482.238C725.522 480.051 725.489 479.969 726.618 478.077C730.891 475.438 741.769 476.335 746.958 476.131Z" fill="#151515"/>
<path d="M652.509 726.939C654.423 726.702 655.804 726.634 657.686 727.093C658.905 728.627 658.9 728.655 658.91 730.617C657.167 733.125 654.435 734.242 651.662 735.297C645.192 737.76 638.013 738.788 631.285 740.449C619.906 743.258 608.543 746.626 597.015 748.746C596.44 748.816 595.866 748.902 595.288 748.93C593.318 749.026 591.817 748.798 590.392 747.477L590.858 745.925C600.691 736.588 637.742 731.368 652.509 726.939Z" fill="#151515"/>
<path d="M806.023 538.947C793.285 534.425 782.038 537.119 769.11 537.67L767.752 536.298L767.911 534.681C769.879 531.295 773.149 529.448 776.74 528.165C787.278 524.401 797.358 527.283 807.003 531.923C808.963 533.294 810.297 534.207 811.173 536.491L810.87 538.054C808.9 539.163 808.233 538.998 806.023 538.947Z" fill="#151515"/>
<path d="M807.003 531.922C808.963 533.293 810.297 534.207 811.173 536.491L810.87 538.054C808.9 539.163 808.233 538.998 806.023 538.947L807.003 531.922Z" fill="#242424"/>
<path d="M344.315 269.333L344.908 269.881C345.14 274.031 336.301 289.227 334.236 294.067C331.001 301.656 328.433 309.435 325.9 317.278C322.873 326.65 310.97 356.306 315.987 364.873C320.204 372.075 337.514 378.224 345.494 380.29C338.657 387.586 320.575 402.386 319.465 411.993C318.118 423.657 346.453 478.555 353.042 492.247C356.663 499.773 359.745 507.61 363.562 515.031C368.955 525.52 374.957 535.968 380.922 546.146C389.458 560.712 398.82 574.644 408.031 588.776C415.933 600.898 423.651 613.359 432.285 624.967C422.846 625.05 412.659 625.961 403.357 627.562C403.23 623.271 403.347 618.591 402.054 614.456C400.163 608.409 395.875 602.199 391.061 598.106C380.189 588.865 365.574 583.679 353.143 576.855C344.951 572.359 337.381 566.806 328.988 562.646C324.46 560.395 319.764 558.58 314.898 557.201C306.528 554.783 283.055 553.7 278.518 550.837C275.307 548.81 272.563 543.32 271.552 539.783C267.589 525.922 268.329 511.144 265.129 497.123C262.125 483.966 257.87 471.016 254.402 457.963C247.974 433.766 241.965 409.526 235.947 385.232C234.117 377.844 228.328 348.324 222.269 344.66C220.243 345.112 220.33 345.245 219.164 346.825C217.576 354.762 222.065 364.149 223.794 371.836C232.614 411.05 241.59 449.996 252.622 488.691C249.906 486.39 248.302 481.651 246.255 478.562C233.079 458.682 217.914 428.971 201.317 412.954C206.855 431.873 216.986 446.814 226.329 463.879C234.36 477.552 245.707 497.839 256.575 508.888C256.958 514.554 257.816 520.2 258.545 525.83C244.374 517.924 226.271 515.748 210.589 519.626C194.653 523.567 163.923 538.031 155.975 552.244C154.593 554.717 154.05 556.996 154.829 559.728C156.598 561.374 157.556 561.941 160.154 561.601C166.422 560.781 173.239 557.001 179.249 554.912C202.839 546.71 226.708 541.258 250.727 550.413C241.088 552.689 231.725 555.892 222.131 558.278C210.231 561.237 189.135 562.7 179.525 570.315C177.559 571.873 176.227 573.508 175.877 576.01L176.891 577.265C182.437 577.931 193.365 573.004 199.104 571.203C176.322 589.308 163.239 608.51 152.432 635.064C152.657 631.509 152.752 627.605 153.716 624.171C155.571 617.565 159.184 611.002 162.988 605.34C165.774 601.193 175.88 592.255 175.973 587.682C174.704 586.678 174 586.188 172.309 586.413C165.138 587.366 156.685 600.795 152.706 606.1C147.177 600.237 141.459 592.98 139.597 585.007C134.532 563.323 164.592 528.08 178.328 512.169C183.931 505.679 190.698 499.301 195.17 491.965C196.654 489.53 198.477 486.132 197.802 483.291C197.225 483.163 197.066 483.087 196.398 483.177C186.116 484.574 164.399 515.16 156.76 524.056C156.701 497.305 175.604 453.119 183.411 425.563C190.121 401.877 194.592 376.536 203.341 353.568C207.094 343.714 211.289 336.97 219.6 330.243C233.912 318.659 253.018 312.178 269.548 304.393C294.442 292.67 319.187 280.566 344.315 269.333Z" fill="white"/>
<path d="M515.121 46.9624C517.807 50.6303 521.258 53.6578 524.021 57.2941C533.911 70.3169 536.925 83.2704 540.332 98.7385C534.535 99.1107 524.996 97.9712 520.744 102.206C519.789 104.205 519.655 105.539 520.262 107.703C520.83 109.721 521.835 111.691 523.766 112.682C527.972 114.838 535.771 111.343 540.06 109.969C539.245 114.449 538.993 118.794 538.565 123.308C537.359 121.964 536.149 120.965 534.688 119.908C532.538 119.549 531.693 119.755 529.775 120.761C528.61 122.162 528.358 122.925 528.111 124.751C527.927 126.101 527.815 127.052 527.169 128.281C524.807 127.391 522.966 125.765 520.865 124.404C518.867 123.108 517.034 122.318 514.642 122.818C513.681 124.176 513.258 124.712 513.611 126.487C514.699 131.966 549.22 158.237 549.429 164.926C549.553 168.898 546.796 171.308 544.271 173.986C535.797 175.706 518.746 180.248 510.736 179.172C506.815 178.646 506.519 172.9 504.477 170.112L503.063 170.02C501.359 171.042 500.501 171.545 499.936 173.621C499.14 176.553 500.066 180.876 501.45 183.562C502.533 185.667 504.099 186.611 506.324 187.269C514.902 189.804 539.784 186.467 547.785 182.399C550.125 188.531 552.183 194.677 552.886 201.234C553.159 203.691 553.276 206.156 553.236 208.627C553.195 211.099 552.997 213.559 552.642 216.005C551.809 221.457 543.832 251.95 541.091 255.168C538.329 258.41 534.011 260.577 530.168 262.236C513.89 269.265 500.803 267.578 484.098 269.38C480.665 269.751 477.8 270.245 475.542 273.037C475.892 274.85 476.006 275.343 477.326 276.637C480.507 279.758 493.383 278.439 497.957 278.473C483.686 294.57 471.941 299.6 452.465 307.431C449.812 308.446 446.972 309.19 444.256 310.038C427.837 297.888 383.222 280.188 382.807 256.619C382.526 240.639 383.012 226.497 378.297 210.97C383.533 209.785 390.778 209.245 395.219 206.157C396.661 205.154 396.644 204.937 396.889 203.219C392.847 195.997 384.422 202.621 377.833 200.274C368.896 197.09 359.418 187.205 355.625 178.608C351.867 170.087 347.373 153.868 351.055 145.115C352.264 142.238 354.364 139.988 357.353 138.969C365.208 136.293 375.001 142.442 381.724 145.984C385.73 158.973 385.779 173.454 396.873 182.689C400.011 182.187 405.861 181.86 408.372 179.842C409.929 178.591 409.707 176.326 409.45 174.503C407.195 158.426 400.683 142.75 406.882 126.813C409.984 118.84 413.844 111.069 414.522 102.419C415.477 90.221 411.156 82.1956 413.462 67.82C430.548 47.8595 450.085 46.4233 474.551 51.7627C483.561 53.7289 493.369 56.5225 502.644 55.1251C508.502 54.2424 511.717 51.6722 515.121 46.9624Z" fill="white"/>
<path d="M479.741 109.014C484.342 109.273 489.002 108.847 493.619 109.078C496.901 109.243 500.006 109.539 502.28 112.075L502.009 113.947C496.104 121.161 483.045 120.692 474.618 122.607C468.688 123.954 462.797 125.758 456.948 127.426C452.943 128.389 448.872 129.489 444.803 130.117C442.364 130.495 440.165 130.559 438.117 129.025C437.712 127.619 437.456 127.16 437.853 125.759C441.92 111.4 469.861 114.41 478.903 109.478L479.741 109.014Z" fill="#151515"/>
<path d="M404.814 219.596C407.969 221.261 414.398 234.391 417.377 238.252C420.348 242.04 423.661 245.499 427.315 248.632C435.798 255.867 451.522 256.691 457.876 264.045C458.576 266.355 458.334 266.638 457.5 268.944C446.13 268.173 433.738 263.619 424.364 257.074C415.776 251.079 404.707 239.321 402.866 228.64C402.17 224.609 402.46 222.917 404.814 219.596Z" fill="#151515"/>
<path d="M536.086 211.565C536.345 211.544 536.603 211.515 536.863 211.503C540.53 211.338 546.34 211.715 549.16 214.23L549.156 215.606C548.814 215.965 548 217.059 547.608 217.234C543.622 219.014 537.808 219.598 533.488 220.8C526.144 222.842 519.028 225.522 511.902 228.213C507.915 229.123 503.37 230.66 499.531 228.653C498.399 226.69 498.397 226.349 498.518 224.07C502.721 219.054 529.083 213.203 536.086 211.565Z" fill="#151515"/>
<path d="M359.763 147.055C365.662 148.424 370.251 150.148 374.684 154.418C378.284 157.884 382.413 163.333 382.55 168.526L380.721 169.6L381.957 169.527C378.711 169.239 372.588 162.276 369.833 159.744C370.236 164.573 370.236 169.928 371.922 174.498C373.502 177.006 377.37 179.295 378.003 182.088C378.305 183.427 377.988 183.37 377.29 184.43C376.202 184.546 375.347 184.618 374.295 184.241C370.847 183.007 368.163 179.799 366.599 176.573C363.367 169.909 364.448 163.528 366.749 156.813C364.386 156.174 361.824 155.742 359.55 154.853C357.516 154.058 356.854 153.277 356.012 151.336C356.971 148.979 357.693 148.612 359.763 147.055Z" fill="#151515"/>
<path d="M478.736 126.11C479.881 126.096 481.024 126.145 482.164 126.259C484.914 126.548 487.221 127.678 488.871 129.951C489.055 130.201 489.226 130.459 489.384 130.726C489.542 130.993 489.687 131.267 489.818 131.548C489.95 131.829 490.067 132.116 490.17 132.409C490.272 132.701 490.36 132.998 490.433 133.3C490.507 133.601 490.565 133.905 490.608 134.212C490.652 134.519 490.68 134.828 490.693 135.138C490.706 135.448 490.704 135.758 490.686 136.068C490.668 136.377 490.635 136.685 490.587 136.992C489.867 141.33 487.916 143.704 484.413 146.045C483.809 146.105 483.212 146.14 482.609 146.188C481.62 146.266 480.569 146.407 479.585 146.215C477.551 145.818 475.624 143.939 474.528 142.272C472.698 139.484 472.379 136.219 473.124 133.012C473.949 129.463 475.844 127.964 478.736 126.11Z" fill="#151515"/>
<path d="M523.529 232.772C527.479 232.482 532.259 231.756 536.182 232.42C538.371 232.79 538.846 233.039 540.079 234.828L539.621 236.773C538.11 238.403 538.043 238.393 535.83 238.669C531.791 239.432 524.939 241.337 521.111 239.586C519.967 239.063 520.13 238.796 519.688 237.719C520.6 235.508 521.782 234.374 523.529 232.772Z" fill="#151515"/>
<path d="M501.866 79.2783C502.864 79.2095 503.957 79.1063 504.949 79.2564C506.686 79.5191 507.855 79.9455 508.932 81.281C505.905 84.9601 499.87 84.6359 496.141 88.1169C495.956 88.29 495.777 88.4693 495.596 88.6444C494.976 89.7756 494.289 90.7295 493.51 91.7512L492.008 91.6626L491.108 90.0623C491.203 89.174 491.334 88.2743 491.64 87.4299C493.36 82.679 497.593 81.0548 501.866 79.2783Z" fill="#151515"/>
<path d="M373.589 247.959C375.915 259.842 373.027 272.316 373.829 284.358C376.344 322.135 379.717 359.207 386.873 396.426C391.307 419.489 396.938 442.49 402.051 465.416C408.347 493.647 414.337 522.026 422.008 549.918C425.75 563.525 429.538 577.278 433.981 590.676C438.316 603.745 444.12 612.385 445.275 626.655C434.424 613.654 423.638 592.648 413.534 577.831C405.744 567.565 399.371 556.381 392.707 545.373C367.632 503.956 344.892 459.586 328.092 414.118C333.694 406.328 340.205 398.761 346.845 391.844C350.354 388.189 354.572 384.88 357.727 380.932C358.711 379.7 359.047 378.918 359.134 377.354C358.36 375.734 357.551 374.964 355.988 374.063C351.182 371.289 345.167 369.736 339.977 367.68C334.533 365.523 329.244 362.882 323.96 360.361C327.151 341.71 348.378 275.076 360.104 262.857C360.834 262.781 361.595 262.726 362.317 262.581C366.875 261.667 370.983 251.802 373.589 247.959Z" fill="white"/>
<path d="M477.065 704.114L477.353 705.109C479.698 713.047 485.311 719.991 488.715 727.65C505.098 764.338 520.177 801.554 533.951 839.299C537.49 849.056 542.543 859.22 544.786 869.318C545.947 874.55 546.675 880.244 544.131 885.174C538.588 895.918 520.567 903.106 509.455 906.324C499.666 909.16 490.139 910.515 479.939 910.379L475.008 896.956C495.699 898.375 518.161 891.316 534.069 877.577C534.716 877.018 535.114 876.439 535.599 875.743C535.542 873.752 535.134 873.73 533.787 872.358C529.078 873.307 523.841 876.753 519.477 878.919C504.007 886.6 489.537 890.491 472.109 890.281C467.317 877.325 438.439 796.146 441.795 788.893C444.472 783.109 448.565 774.734 452.064 769.527C453.987 766.664 466.269 752.221 466.462 749.914C466.517 749.274 466.173 748.663 466.027 748.038L466.526 749.74C466.291 747.976 465.117 745.879 463.758 744.737L463.39 747.649C456.277 754.875 450.536 764.002 445.521 772.796C443.323 776.651 441.464 782.163 438.43 785.319C437.79 784.237 436.98 780.767 436.971 779.444C436.936 774.63 455.968 747.232 459.664 743.254C459.66 743.03 459.623 742.802 459.652 742.579C460.348 737.313 468.867 732.312 468.702 726.415L467.349 724.896C463.383 725.422 460.846 729.41 458.545 732.417C454.3 737.965 450.085 744.916 444.743 749.401C442.44 751.955 442.533 755.004 440.246 757.515C438.074 759.898 436.099 764.347 433.31 765.569C431.99 763.967 431.943 761.651 431.646 759.657L433.791 757.429L433.467 756.366C434.215 755.878 435.327 755.353 435.839 754.633C433.086 754.565 430.616 754.713 428.164 753.287C427.532 752.007 427.062 751.455 427.596 749.983C427.675 749.763 447.725 726.059 448.882 725.107C449.365 724.709 450.589 724.381 451.205 724.119L451.302 721.012C459.53 716.008 469.201 727.215 477.065 704.114Z" fill="white"/>
<path d="M451.205 724.119C451.485 723.978 451.767 723.839 452.045 723.693C453.163 723.107 453.875 722.369 454.744 721.468C457.048 722.374 457.787 722.517 459.261 724.453C459.715 728.562 457.215 732 454.767 735.078C451.056 739.741 446.289 743.43 444.743 749.401C442.44 751.955 442.533 755.005 440.246 757.515C438.074 759.898 436.099 764.348 433.31 765.57C431.99 763.967 431.943 761.652 431.646 759.657L433.791 757.43L433.467 756.366C434.215 755.878 435.327 755.354 435.839 754.633C433.086 754.566 430.616 754.714 428.164 753.288C427.532 752.007 427.062 751.456 427.596 749.984C427.675 749.764 447.725 726.06 448.882 725.108C449.365 724.71 450.589 724.381 451.205 724.119Z" fill="#1A1A1A"/>
<path d="M903.104 541.852C905.356 541.606 906.617 541.494 908.681 542.518C909.526 544.141 909.849 544.724 909.672 546.628C908.275 562.073 891.5 565.915 881.513 574.009C877.895 576.939 876.06 580.085 875.591 584.773C877.666 589.968 884.943 594.291 889.269 597.607C896.369 603.033 903.437 609.83 911.204 614.159C921.525 619.912 955.251 633.552 961.162 638.59C962.726 639.931 962.893 640.799 963.112 642.766L961.778 644.207C958.587 645.252 955.085 645.215 951.821 644.483C947.265 643.459 942.793 641.115 938.425 639.45C923.412 633.738 907.816 626.323 892.386 622.134L891.615 621.931C888.539 625.79 883.567 627.604 880.825 631.803C879.136 634.391 878.448 638.234 879.104 641.223C880.105 642.649 880.46 643.714 882.138 644.288C884.161 642.538 883.869 639.772 884.88 637.435C885.714 635.481 886.882 634.45 888.769 633.646C898.235 637.67 907.941 641.125 917.376 645.156C921.932 647.104 930.314 649.739 931.846 654.844C932.482 656.948 932.284 657.929 931.21 659.729C916.459 669.22 884.599 640.792 866.73 643.016L865.927 643.121C865.437 643.474 864.968 643.84 864.488 644.209C864.04 644.554 863.581 644.89 863.154 645.257C860.954 647.112 858.806 650.562 858.744 653.485C858.692 655.676 859.786 656.929 861.246 658.412C863.289 657.868 864.248 654.909 866.041 653.596C867.449 652.557 868.658 652.602 870.326 652.89C876.112 653.887 895.107 660.333 898.047 665.417C898.892 666.89 898.589 667.394 898.214 668.945C896.431 671.091 894.232 671.919 891.74 673.003C877.624 670.829 872.224 664.871 860.13 660.013C854.49 657.748 847.13 657.13 841.469 659.689C838.675 660.955 834.797 663.954 833.712 666.922C835.245 669.642 852.051 666.925 859.056 669.888C865.833 672.753 862.632 674.338 864.551 679.254C863.623 680.646 862.684 682.147 861.214 683.014C859.067 684.277 856.575 683.996 854.25 683.449C847.391 681.837 841.844 677.053 835.777 673.697C825.32 667.909 814.092 665.319 807.357 654.298C801.606 644.878 803.541 632.835 806.137 622.7C808.639 612.943 813.518 603.581 818.022 594.628C834.609 561.672 838.122 568.121 869.815 558.13C881.419 554.473 892.647 548.004 903.104 541.852Z" fill="white"/>
<path d="M868.074 604.41C868.377 604.359 868.679 604.297 868.992 604.258C870.837 604.027 871.484 603.862 872.901 605.071C872.693 607.034 872.338 607.613 870.868 608.999C862.194 617.21 845.441 620.44 833.942 620.01C832.68 619.745 831.513 619.205 830.303 618.727L829.834 616.656C832.003 612.371 859.432 611.074 868.074 604.41Z" fill="#1A1A1A"/>
<path d="M508.699 334.727C511.641 344.414 481.208 465.565 476.466 486.142C471.969 505.663 468.581 525.452 463.929 544.937C459.23 564.623 453.637 584.069 449.053 603.81C446.082 598.042 444.365 591.772 442.45 585.597C441.928 580.502 440.151 576.294 437.98 571.697C440.061 562.837 438.914 553.382 439.046 544.323C439.298 526.978 439.531 509.57 440.033 492.232C441.335 447.277 444.088 402.611 447.36 357.771C455.569 356.388 459.347 354.742 465.403 348.816C471.665 352.057 481.142 361.735 488.601 360.028C495.809 358.378 505.103 341.155 508.699 334.727Z" fill="white"/>
<path d="M451.128 484.047C452.583 484.337 453.838 484.689 455.088 485.528C456.739 486.637 457.963 488.497 458.288 490.466C458.712 493.042 457.974 496.067 456.48 498.159C455.075 498.23 453.563 498.379 452.161 498.196C450.564 497.987 449.082 496.75 448.114 495.529C446.864 493.954 446.396 492.098 446.76 490.116C447.29 487.24 448.78 485.624 451.128 484.047Z" fill="#151515"/>
<path d="M454.505 396.53C455.795 396.957 457.796 397.714 458.472 398.94C459.691 401.15 460.047 403.382 459.23 405.817C458.198 408.895 456.512 410.51 453.627 411.849C453.011 411.305 452.417 410.783 451.888 410.153C450.237 408.189 448.463 405.552 448.873 402.85C449.34 399.77 452.139 398.11 454.505 396.53Z" fill="#151515"/>
<path d="M393.517 795.533C394.077 795.33 394.633 795.118 395.186 794.899C403.803 791.47 412.969 776.8 416.446 768.38C416.545 768.142 416.637 767.902 416.733 767.664L416.817 768.602L417.688 769.086C418.015 776.306 422.94 790.686 424.617 799.06C429.142 820.925 433.328 842.855 437.175 864.851C440.838 885.634 443.11 910.482 451.088 929.835L451.487 930.786C450.844 932.182 450.178 933.597 449.347 934.893C442.96 944.865 425.626 951.108 414.602 953.267C408.317 954.499 396.343 957.173 390.987 953.187C389.752 952.269 389.305 951.269 389.051 949.781C388.914 948.985 388.834 948.306 388.567 947.536C388.151 946.337 387.861 945.818 388.08 944.512C389.132 938.231 386.813 925.519 386.284 918.311C385.019 901.077 375.77 796.717 378.19 789.235C379.182 786.168 383.363 784.855 385.236 782.174C385.861 781.281 386.328 780.582 387.191 779.896C388.244 779.059 388.296 778.334 388.746 777.099L390.592 778.73C391.659 778.437 391.9 778.383 392.675 777.611L393.125 778.109C388.41 785.624 381.207 794.595 379.196 803.259L379.863 803.939C387.915 798.686 391.389 786.337 400.338 781.633L400.777 782.526C399.089 787.246 396.214 791.345 393.517 795.533Z" fill="white"/>
<path d="M362.231 651.49C366.065 651.585 370.201 651.49 373.96 652.265C383.003 654.129 391.231 658.604 400.036 661.194C415.357 665.701 426.996 665.522 441.744 673.373C440.525 676.312 439.392 679.31 437.868 682.106C426.34 682.284 414.174 681.442 402.785 679.642C394.888 678.394 386.473 676.148 378.514 675.936C375.548 675.855 373.051 675.97 370.609 677.833C369.763 679.962 369.947 679.995 370.642 682.051C376.575 688.461 407.805 692.332 417.382 692.664C424.752 692.92 435.657 689.872 442.133 693.541C443.453 695.084 443.9 695.811 444.016 697.856C442.381 700.542 440.302 701.356 437.284 702.071C422.786 705.505 405.68 705.657 390.818 705.714C384.152 705.739 377.106 705.283 370.506 706.148C367.846 706.497 364.909 706.959 363.098 709.096C363.146 710.374 362.844 710.621 363.871 711.537C370.5 717.448 407.519 714.858 416.498 713.727C423.261 712.876 430.575 710.46 437.322 710.688C435.817 713.928 422.636 719.645 419.165 720.933C409.909 724.368 399.48 726.835 389.666 727.867C385.557 728.3 380.917 727.771 376.93 728.7C374.972 729.158 373.372 730.113 371.871 731.427L371.526 732.715C372.976 734.644 374.971 735.051 377.262 735.403C389.884 737.343 405.305 733.479 417.323 729.999C412.287 737.886 406.476 741.458 397.32 743.52C379.873 747.449 353.325 745.001 338.351 735.108C333.278 731.756 330.034 726.951 328.856 720.976C328.682 720.083 328.529 719.185 328.396 718.283L329.236 717.334C328.958 719.824 330.352 721.163 331.831 723.141C332.321 723.796 332.794 724.064 333.547 724.343C335.677 719.596 329.452 703.331 331.672 695.469L331.765 695.131C334.466 692.449 332.042 687.84 332.557 684.611C332.913 682.371 334.538 681.773 336.255 680.689C338.861 670.848 353.793 656.735 362.231 651.49Z" fill="white"/>
<path d="M331.765 695.13C334.466 692.449 332.042 687.84 332.557 684.61C332.913 682.371 334.538 681.772 336.255 680.688C335.197 688.886 337.498 720.434 342.706 727.172C344.002 728.849 345.55 730.451 347.001 731.994C346.63 733.819 346.768 734.103 345.274 735.33C341.675 735.151 338.671 732.297 336.274 729.826C335.03 720.984 334.23 702.401 331.765 695.13Z" fill="url(#paint0_linear_75_4272)"/>
<path d="M388.067 333.358C392.919 340.67 399.453 348.806 406.337 354.28C408.361 355.889 411.555 358.119 414.271 357.558C418.387 356.707 425.738 347.881 427.731 344.238C431.64 350.179 434.621 353.141 441.159 356.062C430.366 409.487 429.657 465.059 430.573 519.374C430.27 528.566 430.906 537.77 430.579 546.992C428.34 532.347 423.78 517.581 420.583 503.068C416.685 485.369 413.385 467.551 409.477 449.852C404.79 428.62 399.554 407.625 395.505 386.246C392.296 369.306 388.23 350.608 388.067 333.358Z" fill="white"/>
<path d="M459.776 634.851C468.525 632.873 481.292 635.046 490.237 635.551C482.616 660.17 472.755 684.162 464.44 708.572C459.31 708.945 454.276 709.049 449.137 709.002C450.876 706.903 452.641 704.673 453.567 702.074C455.195 697.508 453.372 693.699 451.534 689.591C450.472 688.157 449.434 686.707 448.42 685.239C447.845 681.866 449.305 678.455 450.063 675.178C450.726 672.314 450.676 669.811 448.95 667.309C442.233 657.575 411.922 653.874 400.245 651.75C402.612 646.636 402.743 643.575 401.989 638.026C421.159 636.735 440.705 636.998 459.776 634.851Z" fill="white"/>
<path d="M515.034 275.727C516.153 275.665 517.05 275.804 518.16 275.953L518.716 277.386C510.536 316.765 514.826 318.011 486.339 350.697C480.787 346.886 478.128 340.925 470.944 340.41L469.826 340.546C468.721 331.042 464.01 322.667 456.888 316.545C468.212 311.89 479.597 307.5 489.526 300.149C494.94 296.142 509.887 276.78 510.803 276.357C511.702 275.943 513.984 275.883 515.034 275.727Z" fill="white"/>
<path d="M382.589 277.073C386.729 280.19 390.641 285.033 394.737 288.559C408.577 300.471 418.634 306.145 434.863 314.075C429.276 318.128 426.084 328.183 423.185 334.45C420.954 339.216 416.762 342.84 413.068 346.475C408.611 341.805 403.595 337.639 399.399 332.723C394.039 326.445 389.809 318.888 385.207 312.024C384.38 300.382 382.038 288.783 382.589 277.073Z" fill="white"/>
<path d="M300.319 675.177L300.841 675.785C288.35 702.581 290.158 736.232 285.334 764.915C281.654 786.804 274.148 807.15 265.889 827.648L265.583 827.68L265.715 825.944L264.671 825.371L265.259 824.366C265.241 823.403 265.251 822.441 265.289 821.479C265.803 809.668 268.272 797.531 269.58 785.747C271.819 765.587 275.118 716.288 281.786 699.456C285.591 689.853 292.857 682.098 300.319 675.177Z" fill="white"/>
<path d="M340.598 654.918L342.246 654.97C341.185 658.173 333.944 662.727 331.368 665.566C322.714 675.1 316.61 688.044 314.071 700.624C310.382 718.9 311.325 741.726 322.075 757.501C327.186 765 333.322 768.905 342.114 770.625C337.967 771.1 333.78 771.333 329.617 771.649C318.543 766.874 307.657 762.077 297.015 756.377C297.504 728.945 299.373 700.027 314.424 676.221C320.431 666.72 329.305 657.483 340.598 654.918Z" fill="white"/>
<path d="M326.967 630.024C328.537 629.913 330.105 629.789 331.679 629.721C345.495 629.123 356.608 633.46 366.621 642.594C363.908 641.906 361.148 641.181 358.375 640.786C341.378 638.368 314.227 652.374 300.896 662.146C295.061 666.157 291.452 670.499 287.375 676.178C289.259 671.049 291.188 665.954 293.536 661.015C297.431 652.825 305.75 636.083 314.503 632.95C312.564 635.398 308.482 639.46 307.901 642.42C314.514 640.035 320.291 633.323 326.967 630.024Z" fill="white"/>
<path d="M371.684 846.961L372.149 847.564C372.735 859.171 374.29 870.651 375.304 882.221C375.955 889.643 376.063 897.126 376.747 904.53C377.415 911.76 379.21 919.366 379.234 926.585C379.239 927.718 379.089 928.152 378.506 929.084L376.419 928.776C372.926 926.855 369.56 924.704 366.173 922.602C365.986 914.264 367.333 905.728 367.64 897.368C368.035 883.166 367.776 868.976 366.863 854.797C368.707 852.251 370.267 849.769 371.684 846.961Z" fill="white"/>
<path d="M416.954 9.91886C435.22 7.89363 466.155 9.611 482.884 17.1332C488.328 19.5811 492.786 23.9034 497.964 26.8247C499.493 27.6873 500.495 28.119 502.167 27.6076C502.811 25.2549 501.616 23.0004 500.826 20.7878C503.582 23.6899 505.373 26.579 507.231 30.1148C507.242 34.276 507.897 41.2184 504.816 44.429C503.127 46.1896 500.097 46.7604 497.764 46.8929C497.194 44.7673 496.695 42.6194 496.024 40.5221C493.866 33.7816 487.586 28.127 481.966 24.1964C448.766 0.976922 408.143 17.6985 402.465 14.7841C405.368 10.9447 412.436 10.6457 416.954 9.91886Z" fill="white"/>
<path d="M444.842 321.854C445.515 321.695 445.989 321.575 446.686 321.646C450.768 322.065 455.194 323.94 457.499 327.431C459.569 330.566 459.974 334.46 459.225 338.078C458.044 343.779 454.226 346.158 449.684 349.09C445.899 349.561 443.154 349.275 439.935 347.064C435.234 343.839 434.093 338.698 433.074 333.49C433.949 331.141 434.777 328.467 436.133 326.355C438.247 323.062 441.292 322.631 444.842 321.854Z" fill="white"/>
<path d="M445.387 327.999C445.49 327.988 445.593 327.979 445.696 327.973C445.8 327.966 445.903 327.962 446.007 327.96C446.11 327.959 446.213 327.959 446.316 327.962C446.42 327.966 446.523 327.971 446.626 327.979C446.73 327.987 446.832 327.998 446.935 328.01C447.037 328.023 447.14 328.038 447.242 328.056C447.344 328.073 447.445 328.093 447.547 328.116C447.647 328.138 447.748 328.162 447.848 328.189C447.947 328.216 448.046 328.245 448.145 328.276C448.244 328.308 448.341 328.342 448.438 328.378C448.535 328.414 448.631 328.452 448.727 328.493C448.821 328.533 448.915 328.576 449.009 328.62C449.102 328.665 449.194 328.713 449.286 328.762C449.377 328.811 449.466 328.862 449.554 328.915C449.643 328.969 449.731 329.024 449.816 329.081C449.902 329.139 449.987 329.198 450.071 329.259C450.154 329.32 450.236 329.384 450.316 329.449C450.396 329.514 450.475 329.581 450.552 329.65C450.629 329.719 450.705 329.789 450.779 329.862C450.853 329.934 450.925 330.008 450.996 330.084C451.066 330.16 451.135 330.237 451.202 330.315C451.269 330.394 451.334 330.474 451.398 330.556C451.46 330.638 451.521 330.722 451.581 330.806C451.64 330.891 451.698 330.977 451.753 331.065C451.808 331.152 451.861 331.24 451.913 331.331C451.964 331.42 452.013 331.511 452.061 331.604C452.107 331.696 452.152 331.789 452.194 331.883C452.237 331.977 452.278 332.072 452.316 332.169C452.354 332.265 452.39 332.361 452.424 332.459C452.458 332.557 452.489 332.655 452.518 332.755C452.548 332.854 452.574 332.954 452.599 333.054C452.623 333.155 452.645 333.256 452.665 333.357C452.686 333.459 452.703 333.561 452.718 333.663C452.733 333.765 452.746 333.868 452.756 333.971C452.767 334.074 452.775 334.177 452.78 334.28C452.786 334.384 452.789 334.487 452.789 334.591C452.79 334.694 452.788 334.797 452.784 334.9C452.78 335.004 452.773 335.107 452.764 335.21C452.755 335.313 452.744 335.416 452.731 335.519C452.717 335.621 452.701 335.724 452.683 335.825C452.664 335.927 452.643 336.028 452.621 336.128C452.598 336.23 452.572 336.33 452.544 336.43C452.517 336.529 452.487 336.628 452.455 336.727C452.422 336.825 452.387 336.922 452.351 337.019C452.314 337.115 452.274 337.211 452.233 337.306C452.192 337.401 452.148 337.495 452.102 337.588C452.057 337.68 452.01 337.772 451.96 337.862C451.91 337.953 451.857 338.043 451.803 338.131C451.749 338.219 451.693 338.305 451.635 338.391C451.577 338.477 451.517 338.561 451.455 338.644C451.393 338.727 451.329 338.808 451.263 338.887C451.197 338.967 451.129 339.045 451.06 339.123C450.99 339.199 450.919 339.274 450.847 339.347C450.774 339.42 450.699 339.492 450.623 339.563C450.547 339.632 450.469 339.7 450.39 339.766C450.31 339.833 450.229 339.897 450.147 339.96C450.065 340.022 449.981 340.083 449.895 340.141C449.81 340.2 449.723 340.256 449.636 340.311C449.548 340.365 449.459 340.418 449.369 340.469C449.279 340.519 449.187 340.567 449.095 340.613C449.002 340.659 448.909 340.703 448.814 340.746C448.72 340.788 448.624 340.827 448.528 340.865C448.431 340.902 448.334 340.937 448.236 340.97C448.138 341.003 448.039 341.033 447.94 341.062C447.792 341.103 447.642 341.14 447.492 341.172C447.342 341.204 447.191 341.231 447.039 341.253C446.887 341.273 446.735 341.289 446.581 341.3C446.428 341.311 446.275 341.316 446.121 341.317C445.968 341.317 445.815 341.312 445.662 341.302C445.508 341.291 445.355 341.275 445.203 341.255C445.051 341.234 444.9 341.208 444.749 341.176C444.599 341.145 444.45 341.109 444.302 341.067C444.154 341.025 444.008 340.979 443.863 340.927C443.719 340.875 443.576 340.818 443.436 340.757C443.295 340.695 443.156 340.629 443.021 340.558C442.885 340.487 442.751 340.412 442.619 340.331C442.489 340.25 442.361 340.165 442.236 340.077C442.111 339.988 441.989 339.894 441.871 339.797C441.752 339.699 441.637 339.597 441.525 339.492C441.414 339.387 441.306 339.278 441.202 339.164C441.097 339.052 440.997 338.935 440.901 338.815C440.806 338.696 440.714 338.573 440.626 338.446C440.539 338.32 440.456 338.191 440.377 338.059C440.298 337.927 440.224 337.793 440.155 337.656C440.085 337.519 440.021 337.379 439.961 337.238C439.901 337.096 439.846 336.953 439.796 336.808C439.747 336.663 439.702 336.516 439.662 336.367C439.622 336.219 439.588 336.07 439.559 335.919C439.529 335.768 439.505 335.617 439.486 335.464C439.467 335.311 439.453 335.159 439.445 335.006C439.437 334.852 439.434 334.698 439.436 334.545C439.438 334.391 439.445 334.238 439.458 334.085C439.47 333.932 439.488 333.78 439.512 333.627C439.535 333.476 439.563 333.325 439.597 333.175C439.631 333.025 439.669 332.876 439.713 332.73C439.757 332.582 439.806 332.437 439.86 332.293C439.914 332.149 439.973 332.007 440.036 331.868C440.1 331.728 440.169 331.591 440.242 331.456C440.314 331.32 440.392 331.188 440.475 331.059C440.557 330.929 440.644 330.802 440.735 330.678C440.826 330.554 440.921 330.434 441.02 330.317C441.12 330.201 441.223 330.087 441.33 329.976C441.437 329.867 441.548 329.761 441.662 329.658C441.777 329.556 441.895 329.458 442.016 329.363C442.138 329.269 442.262 329.179 442.389 329.093C442.516 329.008 442.647 328.927 442.78 328.85C442.913 328.774 443.048 328.702 443.187 328.635C443.325 328.567 443.465 328.505 443.607 328.447C443.749 328.389 443.893 328.337 444.039 328.29C444.185 328.242 444.333 328.199 444.481 328.161C444.631 328.124 444.781 328.092 444.932 328.064C445.083 328.037 445.235 328.015 445.387 327.999Z" fill="#1A1A1A"/>
<path d="M220.873 527.668C236.982 527.948 247.09 531.297 258.988 541.954C241.852 536.194 227.582 533.583 209.512 536.548C198.418 539.403 187.212 541.898 176.387 545.702C176.218 545.761 176.054 545.834 175.888 545.9C190.061 538.559 204.942 530.196 220.873 527.668Z" fill="white"/>
<path d="M381.575 21.4272C380.494 26.7329 365.925 35.971 361.292 40.1765C350.079 50.3551 341.851 61.1834 332.714 73.0503C332.721 72.7198 332.709 72.1735 332.779 71.8212C334.76 61.8462 353.334 41.6429 361.471 34.9833C367.724 29.8648 374.719 25.6715 381.575 21.4272Z" fill="white"/>
<path d="M315.702 223.72C317.48 229.824 312.179 242.195 314.728 250.969C316.15 255.865 323.197 263.97 322.229 268.73L319.302 270.458C315.48 264.19 311.806 256.621 310.073 249.492C307.63 239.435 310.497 232.254 315.702 223.72Z" fill="white"/>
<path d="M417.535 24.498C425.031 25.8725 434.305 22.0328 443.8 23.6C444.011 23.5194 444.222 23.431 444.437 23.3583C448.551 21.9667 458.352 25.2709 462.722 26.0108C453.87 26.0281 444.844 26.3361 436.028 26.1497C429.831 27.6037 423.352 27.3198 417.252 29.0768C417.184 29.1254 417.122 29.1875 417.046 29.2226C413.587 30.8157 408.326 33.1522 404.6 32.3085L404.059 31.0004C407.102 26.5183 412.628 25.7913 417.535 24.498Z" fill="white"/>
<path d="M809.15 591.588C809.119 595.413 798.089 615.405 796.146 621.999C793.434 631.193 793.641 640.876 793.585 650.362C791.777 645.705 791.872 638.957 791.844 633.969C791.754 617.771 797.757 603.058 809.15 591.588Z" fill="white"/>
<path d="M343.57 195.291C346.42 196.263 354.194 205.131 358.813 207.909L358.929 208.754L355.435 211.424C351.328 210.757 347.236 210.022 343.849 207.42C342.026 206.02 340.964 204.361 340.721 202.048C340.423 199.222 341.973 197.4 343.57 195.291Z" fill="white"/>
<path d="M388.746 777.098C394.847 771.66 399.36 764.939 405.144 759.18C405.123 758.997 405.097 758.815 405.08 758.631C404.873 756.402 405.278 753.51 406.702 751.694C407.639 750.502 409.167 750.677 410.566 750.498L412.061 751.413C412.374 754.109 411.415 756.274 409.773 758.39C404.464 765.226 400.048 772.78 393.125 778.108L392.675 777.611C391.9 778.382 391.659 778.436 390.592 778.729L388.746 777.098Z" fill="#EBEAEA"/>
<path d="M348.065 768.695C349.119 765.142 350.228 759.376 353.319 757.044L355.203 757.32C355.885 762.114 350.123 762.551 352.689 769.527C353.493 771.712 353.534 774.342 353.748 776.653L352.916 777.694C351.92 777.524 350.939 777.332 349.954 777.106C349.505 777.338 349.23 777.508 348.769 777.66C346.803 778.312 344.711 778.027 342.904 777.12C342.057 775.292 341.731 774.322 342.31 772.244C343.057 769.563 344.357 769.229 346.652 768L348.065 768.695Z" fill="#1A1A1A"/>
<path d="M349.954 777.107C349.505 777.338 349.23 777.508 348.769 777.66C346.803 778.312 344.711 778.027 342.904 777.12C342.057 775.293 341.731 774.322 342.31 772.244C343.057 769.563 344.357 769.229 346.652 768L348.065 768.695C348.356 771.829 351.493 774.259 349.954 777.107Z" fill="#242424"/>
<path d="M606.579 983.538L608.481 984.155C608.872 986.153 608.569 988.273 607.717 990.138C606.767 992.217 604.45 992.513 602.485 993.172C600.969 991.606 601.335 990.469 601.218 988.338C602.618 985.535 603.937 985.131 606.579 983.538Z" fill="#1A1A1A"/>
<path d="M538.665 126.725C539.504 131.163 542.213 138.152 541.434 142.44L539.8 141.975C538.165 139.492 535.227 136.915 534.911 134.025C536.516 131.649 537.591 129.366 538.665 126.725Z" fill="white"/>
<path d="M520.689 975.369C521.639 976.299 521.59 976.796 521.933 978.047C520.57 979.602 519.378 979.712 517.437 980.345L516.719 979.267L520.689 975.369Z" fill="#1A1A1A"/>
<path d="M300.766 574.591C300.976 574.559 301.185 574.518 301.395 574.496C312.382 573.317 323.717 580.905 331.876 587.597C322.44 585.661 312.918 583.992 303.247 584.807C278.421 586.899 246.356 601.762 229.623 620.388C186.766 668.093 168.915 780.9 160.562 843.4C158.849 856.223 156.923 891.854 149.252 900.377C146.35 903.602 142.637 905.346 138.3 905.538C133.198 905.763 127.947 904.369 124.135 900.865C117.439 894.707 117.044 884.507 116.799 876.012C117.084 872.924 117.41 869.84 117.775 866.761C119.282 854.468 123.451 846.585 133.195 838.992C127.57 859.716 126.602 863.417 126.841 885.795C128.112 887.899 129.411 889.941 131.032 891.795C133.168 894.238 135.267 895.832 138.6 896.05C145.98 893.146 148.554 862.861 149.618 854.331C157.705 789.434 177.693 667.756 219.038 617.627C237.807 594.87 271.577 577.54 300.766 574.591Z" fill="#151515"/>
<path d="M221.701 814.917C222.76 815.855 222.62 815.975 222.789 817.407C215.381 830.952 205.051 844.464 193.188 854.366L192.932 851.971C197.865 840.417 209.878 824.483 220.478 817.632C221.458 816.998 221.412 816.02 221.701 814.917Z" fill="#242424"/>
<path d="M367.197 607.659C373.285 608.31 378.289 610.033 383.24 613.674C385.894 615.626 388.616 618.399 388.952 621.849C389.169 624.086 388.845 626.016 387.517 627.781C380.848 611.261 374.362 616.284 365.657 610.249L367.197 607.659Z" fill="#151515"/>
<path d="M222.333 834.371C222.928 834.875 222.787 835.486 222.885 836.237C218.53 845.01 211.287 851.508 205.328 859.142L204.826 858.615C204.648 857.67 204.361 857.038 204.666 856.106C207.213 848.325 215.081 838.186 222.333 834.371Z" fill="#151515"/>
<defs>
<linearGradient id="paint0_linear_75_4272" x1="332.411" y1="708.016" x2="345.204" y2="708.09" gradientUnits="userSpaceOnUse">
<stop stop-color="#141413"/>
<stop offset="1" stop-color="#302E30"/>
</linearGradient>
</defs>
</svg>
