<svg width="430" height="430" viewBox="0 0 430 430" fill="none" xmlns="http://www.w3.org/2000/svg">
<g clip-path="url(#clip0_10_55)">
<mask id="mask0_10_55" style="mask-type:luminance" maskUnits="userSpaceOnUse" x="0" y="0" width="430" height="430">
<path d="M0 0H430V430H0V0Z" fill="white"/>
</mask>
<g mask="url(#mask0_10_55)">
<mask id="mask1_10_55" style="mask-type:luminance" maskUnits="userSpaceOnUse" x="0" y="0" width="430" height="430">
<path d="M0 0H430V430H0V0Z" fill="white"/>
</mask>
<g mask="url(#mask1_10_55)">
<path d="M215.5 52C305.799 52 379 125.201 379 215.5C379 305.799 305.799 379 215.5 379C125.201 379 52 305.799 52 215.5C52 125.201 125.201 52 215.5 52Z" stroke="black" stroke-width="8"/>
<g style="mix-blend-mode:multiply" opacity="0.5">
<path d="M240.647 380.898C264.059 377.278 286.441 368.745 306.32 355.859C277.394 366.156 246.199 368.324 216.127 362.127C186.055 355.93 158.259 341.605 135.761 320.71C113.264 299.815 96.9273 273.151 88.5287 243.618C80.1302 214.085 79.9912 182.814 88.1271 153.208C99.0277 113.54 124.112 79.2548 158.62 56.859C124.991 68.8495 96.0609 91.2487 76.031 120.803C56.001 150.358 45.9147 185.528 47.2371 221.206C48.114 244.88 53.9918 268.101 64.484 289.342C74.9762 310.582 89.8453 329.362 108.114 344.445C126.382 359.529 147.636 370.575 170.479 376.858C193.321 383.141 217.234 384.517 240.647 380.898Z" fill="#EBE6EE"/>
</g>
<path d="M115 190C115 188.964 115.839 188.125 116.875 188.125H188.75V116.875C188.75 115.839 189.589 115 190.625 115H240C240.246 115 240.49 115.048 240.718 115.142C240.945 115.237 241.152 115.375 241.326 115.549C241.5 115.723 241.638 115.93 241.733 116.157C241.827 116.385 241.875 116.629 241.875 116.875V188.125H313.125C313.371 188.125 313.615 188.173 313.843 188.267C314.07 188.362 314.277 188.5 314.451 188.674C314.625 188.848 314.763 189.055 314.858 189.282C314.952 189.51 315 189.754 315 190V239.375C315 239.621 314.952 239.865 314.858 240.093C314.763 240.32 314.625 240.527 314.451 240.701C314.277 240.875 314.07 241.013 313.843 241.108C313.615 241.202 313.371 241.25 313.125 241.25H241.875V313.125C241.875 313.371 241.827 313.615 241.733 313.843C241.638 314.07 241.5 314.277 241.326 314.451C241.152 314.625 240.945 314.763 240.718 314.858C240.49 314.952 240.246 315 240 315H190.625C189.589 315 188.75 314.161 188.75 313.125V241.25H116.875C115.839 241.25 115 240.411 115 239.375L115 190Z" fill="black"/>
</g>
</g>
</g>
<defs>
<clipPath id="clip0_10_55">
<rect width="430" height="430" fill="white"/>
</clipPath>
</defs>
</svg>
