<svg width="160" height="147" viewBox="0 0 160 147" fill="none" xmlns="http://www.w3.org/2000/svg">
<path d="M27.1744 19.4371L27.1878 19.4255L27.2009 19.4136C28.1516 18.5516 29.0018 17.5858 29.7708 16.7121C29.7981 16.6811 29.8253 16.6502 29.8524 16.6194C30.67 15.6909 31.4079 14.8611 32.216 14.14L32.216 14.14C36.6682 10.1673 43.3396 6.60712 49.0369 5.17893L49.037 5.17889C50.1466 4.90065 51.3094 4.71416 52.5533 4.53493C52.7868 4.50129 53.0244 4.46775 53.2652 4.43377C54.2765 4.29102 55.3429 4.1405 56.3857 3.94243C64.5588 2.39019 71.806 1.69444 80.0377 2.12575C81.2035 2.45871 82.4282 2.59383 83.5123 2.68886C83.7986 2.71396 84.0729 2.73622 84.3375 2.75769C85.1647 2.82481 85.8969 2.88422 86.6032 2.99848L86.6033 2.99851C90.1577 3.57322 93.8159 4.48217 97.3583 5.46013L97.8906 3.53225L97.3584 5.46013C117.624 11.0546 136.771 24.3797 147.047 42.7801L148.794 41.8048L147.047 42.7801C149.36 46.9206 152.005 53.0988 153.984 59.4596C155.978 65.8655 157.217 72.2081 156.903 76.753L156.883 77.0432L156.947 77.3271C157.187 78.3992 157.125 79.7112 157.056 81.1887C157.041 81.5184 157.025 81.8564 157.012 82.2017L157.011 82.2221L157.011 82.2425C156.878 90.0652 156.077 97.3271 153.269 104.451C150.661 111.068 145.3 117.504 138.8 123.063C132.321 128.607 124.85 133.158 118.224 136.048C98.8696 144.491 76.2566 145.427 56.5776 137.675C36.7022 129.844 18.6464 115.068 10.1053 95.4028L10.1053 95.4027C8.18924 90.9917 6.54095 86.2888 5.769 81.6792C4.56157 74.4689 4.78735 65.7414 6.36639 57.232C7.94664 48.716 10.8544 40.5676 14.8939 34.4607C16.777 31.6137 19.059 28.6519 21.3859 26.2318L19.9442 24.8456L21.3859 26.2318C21.5946 26.0147 21.8903 25.7428 22.2775 25.3944C22.3396 25.3385 22.4038 25.2809 22.4696 25.2218C22.7931 24.9315 23.156 24.6058 23.5052 24.2757C23.926 23.878 24.3693 23.4347 24.7555 22.975C25.1266 22.5334 25.5337 21.974 25.7842 21.3393L26.2567 20.1421L26.2544 20.1397C26.2584 20.1368 26.2625 20.1338 26.2666 20.1309C26.3253 20.0884 26.3847 20.0453 26.4452 20.0014C26.6696 19.8383 26.9533 19.6306 27.1744 19.4371Z" fill="#FEFEFE" stroke="black" stroke-width="4"/>
<path d="M24.8398 22.1837L24.8529 22.1722L24.8726 22.1544C25.866 21.2536 26.7493 20.2501 27.5106 19.3852C27.5416 19.35 27.5724 19.315 27.6029 19.2803C28.4256 18.346 29.1255 17.561 29.8818 16.8862L29.8818 16.8862C34.216 13.0188 40.7432 9.5369 46.28 8.14891L46.2803 8.14886C47.3369 7.8839 48.4567 7.70326 49.6959 7.52471C49.9233 7.49195 50.1567 7.45901 50.3948 7.42542C51.4075 7.28252 52.5037 7.12784 53.5723 6.92487C61.6484 5.39104 68.7856 4.70436 76.875 5.11866C78.105 5.45685 79.3666 5.59227 80.425 5.68504C80.7299 5.71177 81.0155 5.73496 81.2861 5.75695C82.1007 5.82311 82.7797 5.87827 83.4435 5.98565L83.4437 5.98569C86.9452 6.55186 90.5631 7.44978 94.0922 8.42407L94.8903 5.53321L94.0922 8.42408C114.145 13.9598 133.049 27.1387 143.174 45.2677L145.794 43.8048L143.174 45.2677C145.448 49.3381 148.067 55.4506 150.029 61.7567C152.013 68.1304 153.206 74.3288 152.906 78.6842L152.876 79.1195L152.971 79.5453C153.179 80.4747 153.126 81.6195 153.059 83.0839C153.043 83.4261 153.027 83.7858 153.013 84.1643L153.012 84.1949L153.011 84.2255C152.879 91.9941 152.084 99.1199 149.339 106.084C146.813 112.491 141.583 118.801 135.15 124.304C128.747 129.782 121.36 134.28 114.824 137.132C95.6966 145.476 73.3596 146.393 53.9442 138.744C34.253 130.986 16.4338 116.371 8.02254 97.0044L8.02249 97.0043C6.12338 92.6322 4.50859 88.0124 3.75527 83.5141C2.57054 76.4394 2.78773 67.8314 4.34961 59.4145C5.91331 50.9877 8.78312 42.9763 12.7279 37.0124C14.5856 34.2039 16.8307 31.2922 19.1067 28.9249L16.9442 26.8456L19.1067 28.9249C19.2867 28.7377 19.556 28.489 19.9463 28.1378C20.0067 28.0835 20.0697 28.0269 20.1348 27.9685C20.4582 27.6783 20.8326 27.3423 21.1921 27.0025C21.6247 26.5936 22.0993 26.1203 22.5211 25.6183C22.9076 25.1584 23.3756 24.5287 23.6848 23.7798C23.6911 23.7686 23.726 23.7017 23.8071 23.5705C23.9131 23.399 24.0533 23.1898 24.2099 22.9725C24.3664 22.7552 24.5226 22.5529 24.6568 22.392C24.7819 22.242 24.8434 22.1818 24.8428 22.1812C24.8428 22.1812 24.8418 22.182 24.8398 22.1837Z" stroke="black" stroke-width="6"/>
<path d="M27.8198 69.4487C28.8797 68.2528 29.9318 66.975 31.4158 66.3023C35.4803 64.4612 62.5219 64.5842 69.8685 63.8104C70.6511 55.8848 68.3663 30.1567 72.122 25.2967C73.7303 23.2162 76.0184 22.3394 78.5807 22.129C81.1162 21.9208 83.4492 22.4653 85.3481 24.2211C87.2217 25.9543 88.283 28.517 88.7814 30.9737C90.386 38.8717 89.6124 54.6449 90.2229 63.7321C99.9601 63.959 117.304 61.6189 125.838 63.9706C128.584 64.7268 130.969 66.215 132.287 68.8187C133.933 72.0691 132.695 75.753 131.461 78.878C130.239 79.9741 128.939 81.2008 127.373 81.7708C119.622 84.5954 99.3671 83.4723 90.0773 83.5948C90.4299 91.2393 92.0705 108.582 91.1563 115.276C90.791 117.953 89.8687 120.479 88.1327 122.578C86.3536 124.727 83.6437 126.435 80.7898 126.5C78.9751 126.54 77.305 125.891 75.968 124.679C69.8851 119.162 71.4246 92.8913 71.2514 83.9494C63.8973 83.9212 33.729 86.4786 29.6726 81.8284C26.9921 78.7554 27.3124 73.1693 27.8198 69.4487Z" fill="#231F20"/>
</svg>
