<svg width="115" height="115" viewBox="0 0 115 115" fill="none" xmlns="http://www.w3.org/2000/svg">
<path d="M5.34423 52.8883C6.40407 51.6923 7.45618 50.4145 8.94017 49.7419C13.0048 47.9008 40.0463 48.0238 47.393 47.25C48.1756 39.3244 45.8907 13.5963 49.6464 8.73624C51.2548 6.65574 53.5428 5.77894 56.1051 5.56861C58.6406 5.36038 60.9736 5.90492 62.8725 7.66072C64.7461 9.39383 65.8074 11.9566 66.3058 14.4133C67.9104 22.3112 67.1369 38.0844 67.7473 47.1717C77.4845 47.3986 94.8286 45.0585 103.362 47.4102C106.108 48.1664 108.493 49.6546 109.811 52.2583C111.458 55.5087 110.219 59.1926 108.985 62.3176C107.764 63.4136 106.464 64.6404 104.898 65.2104C97.1467 68.035 76.8915 66.9119 67.6017 67.0344C67.9543 74.6788 69.5949 92.0215 68.6808 98.7154C68.3154 101.393 67.3931 103.919 65.6572 106.017C63.878 108.167 61.1681 109.875 58.3142 109.939C56.4995 109.98 54.8294 109.33 53.4924 108.118C47.4096 102.601 48.949 76.3309 48.7758 67.3889C41.4217 67.3608 11.2534 69.9182 7.197 65.268C4.51652 62.195 4.83683 56.6089 5.34423 52.8883Z" fill="#231F20"/>
</svg>
