<?xml version="1.0" encoding="utf-8" ?>
<svg xmlns="http://www.w3.org/2000/svg" xmlns:xlink="http://www.w3.org/1999/xlink" width="1024" height="1024">
	<path fill="#FEFEFE" d="M0 0L1024 0L1024 1024L0 1024L0 0Z"/>
	<path fill="#231F20" d="M911.511 467.974C913.502 467.949 915.263 468.099 916.761 469.569C917.865 470.653 918.379 472.182 918.297 473.708C918.137 476.68 916.716 478.647 914.616 480.617C913.974 480.599 913.331 480.579 912.691 480.512C910.961 480.333 909.535 479.401 908.509 478.022C907.467 476.622 907.152 474.891 907.469 473.191C907.952 470.6 909.37 469.329 911.511 467.974Z"/>
	<path fill="#231F20" d="M506.264 354.436C509.432 354.344 512.97 355.179 515.363 357.371C516.347 358.271 517.029 359.358 516.975 360.743C516.888 362.968 515.357 364.022 513.738 365.227C512.453 365.499 511.072 365.823 509.759 365.848C508.204 365.879 506.091 364.789 504.977 363.751C503.804 362.658 503.355 361.4 503.331 359.823C503.296 357.542 504.805 355.984 506.264 354.436Z"/>
	<path fill="#231F20" d="M509.61 374.442C510.532 374.538 511.348 374.753 512.243 374.986C513.408 375.884 513.789 376.508 514.293 377.888C514.377 378.117 514.453 378.349 514.539 378.578C515.614 381.448 516.483 384.7 515.703 387.762C514.77 389.136 514.03 389.481 512.558 390.072C509.541 389.146 507.388 387.127 505.951 384.332C504.957 382.399 504.506 380.06 505.328 377.981C506.14 375.929 507.657 375.197 509.61 374.442Z"/>
	<path fill="#231F20" d="M535.014 475.157C537.134 475.027 539.465 474.741 541.502 475.502C543.257 476.157 545.84 477.944 546.376 479.84C546.676 480.9 546.479 481.753 545.834 482.624C544.839 483.969 543.094 484.586 541.547 484.964C539.393 485.071 536.821 485.434 534.74 484.809C533.138 484.329 530.84 482.812 530.18 481.211C529.686 480.014 529.639 479.042 530.282 477.883C531.382 475.902 532.969 475.572 535.014 475.157Z"/>
	<path fill="#231F20" d="M451.626 347.796C454.344 348.688 456.705 349.511 458.73 351.618C461.256 354.245 463.084 357.479 462.954 361.209C462.865 363.763 462.189 365.094 460.37 366.834C459.286 366.849 458.109 366.987 457.245 366.189C454.981 364.098 448.951 354.011 449.23 351.04C449.373 349.521 450.55 348.713 451.626 347.796Z"/>
	<path fill="#231F20" d="M567.342 625.205C569.769 624.867 572.125 624.886 574.249 626.287C575.607 627.182 576.672 628.615 576.984 630.227C577.282 631.771 576.923 633.321 575.949 634.565C574.321 636.644 571.876 636.788 569.462 637.166C566.444 637.221 563.819 637.237 561.313 635.335C559.858 634.23 558.555 632.653 558.46 630.748C558.403 629.578 558.825 628.529 559.57 627.643C561.556 625.28 564.524 625.425 567.342 625.205Z"/>
	<path fill="#231F20" d="M459.608 372.833C459.999 372.985 459.915 372.94 460.438 373.259C463.509 375.133 465.585 379.771 466.308 383.106C466.958 386.105 467.534 393.922 465.452 396.338C464.543 397.394 463.974 397.347 462.703 397.413C460.158 395.742 458.374 393.796 456.686 391.272C456.654 389.378 456.666 387.382 456.361 385.513C455.798 382.057 454 379.337 455.04 375.702C456.107 374.125 457.927 373.566 459.608 372.833Z"/>
	<path fill="#231F20" d="M508.154 561.27C509.18 561.236 510.489 561.335 511.487 561.56C512.821 561.86 513.285 562.514 513.998 563.592C513.971 564.954 514.069 565.367 513.092 566.42C509.338 570.462 487.911 570.272 481.875 570.463C481.029 570.421 480.127 570.403 479.295 570.239C477.865 569.957 476.519 568.95 475.889 567.594C475.295 566.314 475.569 566.01 476.101 564.824C481.132 561.003 501.097 561.573 508.154 561.27Z"/>
	<path fill="#231F20" d="M509.174 480.207C510.036 480.04 510.744 479.909 511.621 480.127C513.042 480.481 514.838 481.875 515.487 483.232C515.986 484.276 515.735 485.267 515.053 486.152C511.562 490.679 497.722 491.866 492.477 492.417C491.054 492.494 488.44 492.894 487.151 492.271C485.49 491.467 484.551 490.526 483.85 488.811C483.862 487.418 484.085 486.462 484.966 485.368C488.784 480.627 503.274 480.909 509.174 480.207Z"/>
	<path fill="#231F20" d="M477.826 641.707C479.518 641.545 482.179 641.181 483.746 641.942C485.162 642.629 486.67 644.25 486.991 645.843C487.237 647.061 487.04 648.067 486.237 649.031C481.736 654.431 468.87 654.537 462.381 655.12C460.44 655.332 458.053 655.506 456.304 654.441C454.953 653.619 454.416 652.03 454.179 650.553C453.92 648.939 454.237 647.537 455.272 646.237C458.772 641.846 472.45 642.283 477.826 641.707Z"/>
	<path fill="#231F20" d="M739.586 617.917C740.672 617.845 741.809 617.747 742.885 617.952C745.839 618.515 747.727 620.963 749.17 623.426C751.889 628.069 755.423 638.158 753.743 643.37C753.033 645.573 751.654 646.531 749.701 647.598C749.048 647.687 748.4 647.782 747.741 647.799C745.922 647.846 744.189 647.436 742.899 646.061C740.241 643.229 740.421 637.981 739.091 634.403C737.872 631.124 734.803 627.756 735.076 624.141C735.28 621.431 737.601 619.438 739.586 617.917Z"/>
	<path fill="#231F20" d="M538.251 630.663C539.373 630.47 540.918 630.495 542.009 630.866C543.12 631.243 544.091 631.979 544.455 633.142C544.84 634.368 544.657 635.241 544.047 636.337C541.217 641.418 513.824 646.357 507.104 647.44C505.71 647.517 504.246 647.76 502.941 647.144C501.973 646.688 501.389 646.003 501.071 644.959C500.427 642.84 500.82 640.925 501.852 639.03C507.159 635.119 530.704 631.891 538.251 630.663Z"/>
	<path fill="#231F20" d="M428.586 649.738C429.217 649.81 429.841 650.036 430.432 650.265C431.992 650.871 432.811 651.762 433.516 653.269C433.457 654.148 433.549 654.633 433.052 655.404C432.197 656.727 431.012 657.421 429.555 657.912C424.198 659.719 418.106 659.735 412.591 661.34C402.962 664.142 393.838 668.355 384.12 670.957C383.434 671.029 382.808 671.042 382.124 670.883C380.359 670.473 379.602 669.207 378.818 667.736C378.86 666.397 378.902 666.042 379.802 664.95C381.87 662.437 415.964 652.048 421.701 650.662C423.983 650.111 426.253 649.9 428.586 649.738Z"/>
	<path fill="#231F20" d="M443.386 280.208C444.127 280.506 444.873 280.798 445.588 281.156C447.898 282.314 449.011 284.131 449.783 286.523C452.624 295.319 458.836 333.687 455.022 341.225C454.017 341.869 453.354 342.234 452.168 342.418C451.224 342.038 450.758 341.403 450.252 340.55C446.585 334.37 442.506 293.848 442.541 285.399C442.548 283.623 442.954 281.921 443.386 280.208Z"/>
	<path fill="#231F20" d="M685.472 656.503C685.91 656.492 686.348 656.497 686.785 656.513C689.122 656.603 691.052 657.037 692.623 658.898C696.333 663.294 703.955 694.943 703.061 700.882C702.703 703.265 700.436 704.558 698.627 705.788C697.432 705.835 696.166 705.878 694.983 705.666C693.664 705.429 692.194 704.459 691.533 703.275C689.438 699.523 686.903 685.842 685.545 680.884C683.999 675.235 681.992 669.702 680.579 664.02C680.358 663.128 680.332 662.489 680.579 661.602C681.32 658.938 683.179 657.787 685.472 656.503Z"/>
	<path fill="#231F20" d="M453.375 565.692C454.412 565.426 455.419 565.504 456.483 565.511C457.893 566.338 458.87 567.042 459.939 568.286C460.066 568.939 460.301 569.349 459.986 569.979C458.987 571.975 455.782 573.021 453.799 573.606C448.916 575.044 443.752 575.447 438.786 576.531C434.087 577.557 429.45 578.915 424.741 579.938C405.758 584.064 387.351 587.576 369.212 594.858C368.249 594.968 367.283 595.106 366.316 594.926C364.442 594.577 363.556 593.502 362.636 591.987C362.494 590.633 362.328 589.96 363.213 588.781C367.401 583.2 443.342 567.338 453.375 565.692Z"/>
	<path fill="#231F20" d="M549.648 720.837C550.214 720.908 550.59 720.939 551.122 721.051C552.783 721.401 554.164 722.42 555.055 723.857C561.175 733.728 564.058 746.08 568.704 756.751C571.96 764.23 576.5 771.08 579.584 778.625C580.287 780.346 580.866 781.519 580.383 783.423C579.762 785.875 578.117 787.184 576.03 788.416C575.778 788.392 575.526 788.372 575.274 788.344C573.124 788.099 571.337 787.292 570.024 785.539C566.092 780.293 560.89 768.689 558.059 762.306C556.383 758.526 544.493 727.829 545.248 725.142C545.823 723.096 547.999 721.908 549.648 720.837Z"/>
	<path fill="#231F20" d="M903.179 447.555C910.518 447.204 929.768 447.089 935.396 451.556C936.969 452.804 937.89 454.512 938.047 456.515C938.137 457.667 937.986 458.771 937.704 459.888C936.653 464.055 934.654 467.918 933.389 472.02C931.301 478.792 930.066 485.873 927.495 492.49C926.814 494.241 926.009 495.667 924.832 497.126C923.15 497.799 921.213 498.427 919.38 497.983C918.064 497.665 917.247 497.076 916.555 495.912C915.603 494.311 915.692 491.932 915.963 490.165C916.633 485.8 918.933 481.131 920.336 476.904C922.185 471.337 923.75 465.684 925.339 460.039C918.581 459.054 909.34 460.321 903.263 457.156C901.939 456.466 900.712 455.46 900.42 453.907C899.994 451.643 901.785 449.164 903.179 447.555Z"/>
	<path fill="#231F20" d="M319.043 656.347C321.429 656.08 323.749 655.815 326.135 656.281C329.965 657.029 333.405 658.865 335.486 662.261C337.544 665.617 337.828 669.584 336.732 673.319C334.534 680.812 329.032 685.712 322.39 689.246C319.198 690.399 315.496 690.841 312.232 689.683C309.683 688.779 307.789 686.917 306.7 684.457C304.594 679.694 305.664 673.553 307.418 668.808C309.623 662.841 313.277 658.941 319.043 656.347Z"/>
	<path fill="#FEFEFE" d="M320.529 667.412C322.098 667.457 323.07 667.7 324.536 668.265C325.423 669.26 325.864 669.603 325.695 671.057C325.368 673.875 322.227 676.977 320.27 678.887C319.863 679.063 319.175 679.381 318.758 679.468C317.64 679.699 317.172 679.422 316.249 678.909C315.863 678.188 315.708 677.719 315.688 676.88C315.602 673.324 318.208 669.821 320.529 667.412Z"/>
	<path fill="#231F20" d="M308.641 578.486C311.438 578.028 314 578.801 316.367 580.358C319.38 582.338 321.177 586.29 321.795 589.734C322.889 595.834 320.711 604.098 317.152 609.106C314.458 612.896 311.071 615.091 306.492 615.848C304.721 616.009 303 616.169 301.255 615.726C297.893 614.872 294.829 613.173 293.175 610.018C291.159 606.174 291.784 601.693 293.14 597.745C295.871 589.798 301.03 582.277 308.641 578.486Z"/>
	<path fill="#FEFEFE" d="M309.182 591.285C309.914 591.955 310.249 592.489 310.757 593.328C310.944 595.218 310.766 596.946 310.208 598.772C309.435 601.301 308.061 604.208 305.655 605.483C304.978 604.867 303.552 603.776 303.411 602.857C302.864 599.279 307.322 594.078 309.182 591.285Z"/>
	<path fill="#231F20" d="M455.374 485.179Q456.373 485.04 457.378 484.959C458.888 484.847 459.896 485.096 461.012 486.18C462.231 487.364 462.57 488.549 462.585 490.227C462.213 491.007 462.087 491.547 461.383 492.091C458.946 493.974 440.082 495.246 435.511 496.016Q412.901 499.748 390.631 505.149C382.139 507.273 373.764 510.244 365.195 511.978C362.539 512.515 360.074 512.722 357.373 512.369C355.193 511.495 353.074 510.625 351.754 508.569C350.907 507.249 350.779 506.118 351.064 504.576C351.827 503.287 352.526 502.616 353.954 502.168C356.835 501.264 359.674 502.88 362.219 504.055C382.475 498.805 403.098 493.47 423.685 489.708C434.199 487.786 444.788 486.601 455.374 485.179Z"/>
	<path fill="#231F20" d="M896.435 675.558C898.252 675.449 899.97 675.572 901.767 675.861C911.967 677.501 935.821 679.448 941.867 688.343C942.879 689.832 943.316 691.483 943.467 693.262C943.796 697.115 942.703 701.124 942.52 704.985C942.367 708.209 942.932 711.553 942.304 714.737C941.737 717.608 939.915 719.082 937.586 720.63C935.219 720.608 933.108 720.473 931.376 718.602C927.479 714.391 930.143 700.67 930.25 694.7C922.947 691.55 914.757 690.545 906.883 689.861C903.711 689.585 900.273 689.541 897.178 688.76C895.471 688.329 893.479 687.528 892.408 686.044C891.321 684.537 891.071 682.995 891.498 681.217C892.189 678.338 893.977 676.961 896.435 675.558Z"/>
	<path fill="#231F20" d="M299.724 495.736C301.309 495.68 302.926 495.673 304.477 496.049C308.05 496.913 311.698 498.859 313.493 502.192C315.454 505.835 315.221 510.295 313.935 514.115C311.115 522.494 303.477 529.842 295.651 533.543C292.625 534.2 288.911 533.655 286.22 532.107C283.356 530.459 281.718 527.433 280.96 524.306C279.473 518.177 281.367 511.37 284.666 506.11C288.389 500.175 293.037 497.244 299.724 495.736Z"/>
	<path fill="#FEFEFE" d="M300 506.563C302.037 506.876 303.072 506.936 304.407 508.531C304.549 509.239 304.662 509.876 304.495 510.596C303.581 514.528 298.654 518.845 295.435 521.058C294.621 521.637 294.405 521.744 293.488 521.957L292.517 521.278C291.78 519.267 292.008 517.159 292.053 515.048C294.181 511.101 296.275 508.94 300 506.563Z"/>
	<path fill="#231F20" d="M506.068 302.524C506.598 302.528 507.129 302.525 507.659 302.554C510.384 302.706 511.409 304.051 513.14 305.97C514.912 314.085 525.676 332.519 523.922 338.723C523.004 339.863 522.496 340.258 521.114 340.747C515.865 340.422 512.43 333.392 509.179 329.736C508.618 334.664 508.936 339.758 508.236 344.631C507.923 346.804 507.484 348.974 505.656 350.37C504.506 350.548 503.578 350.603 502.563 349.883C501.277 348.971 500.914 347.452 500.47 346.029L500.444 344.959C499.297 343.881 495.628 344.534 493.785 343.935C493.047 343.207 492.728 343.064 492.427 342.026C491.115 337.503 496.563 332.351 498.533 328.566C499.256 327.178 499.591 326.072 499.095 324.526L498.373 324.169C494.374 325.471 490.806 328.531 487.697 331.282C485.346 330.074 483.052 328.97 481.66 326.637C481.522 325.639 481.567 324.963 481.966 324.046C484.118 319.108 500.941 304.567 506.068 302.524Z"/>
	<path fill="#231F20" d="M744.973 446.637C749.531 446.102 753.631 446.438 757.648 448.87C763.406 452.355 766.812 458.463 768.383 464.849C770.158 472.061 770.333 479.608 766.236 486.108C761.082 494.284 753.008 497.681 744.014 499.834C736.388 500.656 730.754 500.238 723.778 496.646C721.958 494.02 721.05 491.445 720.564 488.278C719.071 478.549 721.488 467.131 727.246 459.113C731.764 452.822 737.104 447.939 744.973 446.637Z"/>
	<path fill="#FEFEFE" d="M748.398 462.109L751.541 462.026C753.017 462.718 753.782 463.534 754.578 464.928C756.571 468.42 757.058 473.778 755.938 477.62C755.548 478.957 755.03 479.753 753.808 480.464C752.02 480.508 749.994 478.572 748.571 477.549C744.432 475 740.074 472.811 735.772 470.551C736.129 469.629 736.475 468.568 736.99 467.724C738.874 464.635 745.101 463.217 748.398 462.109Z"/>
	<path fill="#231F20" d="M408.603 222.674C412.867 222.433 417.217 222.681 421.311 223.993C423.516 224.7 425.894 225.846 426.94 228.041C427.757 229.755 427.704 232.35 426.944 234.064C425.804 236.634 423.155 238.924 420.545 239.911C420.308 240.001 420.067 240.08 419.828 240.164C420.105 243.799 422.062 247.547 423.112 251.049C423.836 253.467 424.418 256.417 423.045 258.72C421.884 260.667 419.43 261.587 417.306 261.991C415.491 262.336 413.744 262.242 412.264 260.972C410.313 259.297 409.607 256.271 409.279 253.836C409.006 251.815 408.601 250.634 407.586 248.819L407.253 248.238C397.87 260.285 387.703 274.692 379.263 287.369C374.612 294.355 370.292 301.594 365.543 308.507C364.696 309.739 363.318 312.014 361.974 312.631C360.083 313.499 358.494 313.202 356.674 312.385C355.147 311.699 353.63 311.151 352.043 310.623C345.797 308.746 328.129 306.876 324.209 302.332C322.761 300.654 321.951 298.267 322.292 296.054C322.543 294.427 323.386 293.23 324.769 292.33C329.048 289.548 348.356 296.246 353.791 297.754C357.766 292.531 361.126 286.839 365.139 281.632C375.678 267.956 387.462 254.493 396.717 239.917C394.54 238.385 392.335 236.669 391.78 233.9C391.459 232.298 391.905 230.801 392.853 229.505C396.096 225.073 403.41 223.31 408.603 222.674Z"/>
	<path fill="#231F20" d="M929.46 790.062C932.274 789.864 933.227 790.549 935.261 792.305C942.706 798.735 951.666 795.901 957.157 808.886C960.108 815.864 959.461 825.267 956.66 832.226C952.782 841.861 945.535 849.163 936.041 853.227C930.645 854.613 925.955 855.293 920.842 852.477C914.552 849.014 910.951 841.33 908.953 834.705C905.936 824.702 906.1 813.839 911.16 804.512C915.206 797.056 921.425 792.417 929.46 790.062Z"/>
	<path fill="#FEFEFE" d="M926.076 806.483C926.415 806.497 926.755 806.507 927.094 806.524C934.153 806.883 940.339 807.444 945.288 813.011C946.688 822.213 944.989 827.7 939.781 835.272C937.543 836.015 928.437 818.918 920.453 815.223C921.605 811.107 922.499 808.925 926.076 806.483Z"/>
	<path fill="#231F20" d="M390.703 280.695C391.938 281.339 392.132 281.887 392.776 283.108C392.919 283.379 393.12 283.812 393.282 284.069C393.804 284.905 394.329 285.5 394.603 286.49C395.825 290.912 395.94 296.263 396.722 300.859C400.143 320.965 402.27 341.077 405.063 361.252C407.025 375.427 409.635 394.867 413.909 408.261C419.089 407.186 424.485 406.692 429.728 405.97Q447.323 403.479 464.998 401.637C479.495 400.045 494.024 397.869 508.552 396.708C524.812 395.408 540.87 395.277 557.162 395.349C563.294 395.377 570.039 394.47 576.094 395.331C578.526 395.676 580.953 396.352 582.447 398.422C582.494 399.194 582.675 399.529 582.204 400.206C581.018 401.906 578.787 402.447 576.854 402.78C572.478 403.535 567.594 403.147 563.136 403.147L537.685 403.069C503.461 403.044 464.041 408.916 429.881 413.133C420.573 414.29 338.36 424.313 336.446 423.64C335.023 423.14 333.597 422.058 333.205 420.524C332.909 419.362 333.287 418.197 334.014 417.284C336.09 414.677 341.149 415.058 344.147 414.9C342.74 407.803 340.825 400.923 339.986 393.706C338.679 382.465 338.944 370.867 338.129 359.556C337.817 355.237 336.298 348.881 336.651 344.803C336.755 343.606 337.48 343.291 338.342 342.634C339.841 342.364 340.725 342.385 342.219 342.684C347.61 347.648 346.758 377.321 347.397 385.238C348.175 394.882 348.936 405.249 351.856 414.483C370.08 412.106 388.558 410.889 406.84 408.939C403.159 392.834 399.657 376.5 397.297 360.147C395.105 344.958 393.889 329.624 391.669 314.44C390.607 307.174 386.457 292.325 387.522 285.588C387.885 283.295 388.901 282.066 390.703 280.695Z"/>
	<path fill="#231F20" d="M267.543 383.606C278.935 382.553 290.848 386.744 299.745 393.895C312.518 404.161 319.407 422.675 321.086 438.519C322.208 449.113 320.388 458.109 313.566 466.502C305.372 476.584 293.814 481.439 281.119 482.75C281.089 482.758 281.06 482.768 281.03 482.772C270.336 484.419 259.996 481.445 250.869 475.921C240.259 469.498 231.383 459.164 228.494 446.898C225.473 434.065 228.215 417.383 235.293 406.248Q235.971 405.182 236.701 404.15Q237.431 403.118 238.211 402.124Q238.99 401.129 239.818 400.174Q240.645 399.218 241.518 398.305Q242.391 397.391 243.308 396.521Q244.225 395.651 245.183 394.828Q246.141 394.004 247.139 393.228Q248.136 392.452 249.171 391.726Q250.205 391 251.273 390.325Q252.342 389.65 253.442 389.029Q254.543 388.407 255.672 387.841Q256.802 387.274 257.958 386.763Q259.114 386.252 260.293 385.798Q261.473 385.345 262.673 384.949Q263.873 384.554 265.091 384.218Q266.31 383.882 267.543 383.606Z"/>
	<path fill="#FEFEFE" d="M284.639 445.819C285.316 446.545 285.725 447.482 285.637 448.501C285.294 452.481 281.644 456.705 279.044 459.523L278.699 458.789C280.292 454.254 281.545 449.591 284.639 445.819Z"/>
	<path fill="#FEFEFE" d="M267.324 441.894C267.38 441.951 267.448 441.999 267.491 442.066C269.135 444.595 266.321 459.1 265.704 462.787L260.559 461.431C259.903 461.082 259.446 460.701 258.881 460.225C258.271 454.585 263.995 446.207 267.324 441.894Z"/>
	<path fill="#FEFEFE" d="M272.456 396.695C275.545 397.154 278.646 397.418 281.653 398.314C290.213 400.866 297.421 407.804 301.53 415.624C305.982 424.095 310.189 438.179 307.101 447.557C305.023 453.87 300.927 455.728 295.356 458.509C298.104 453.807 302.863 448.187 303.761 442.778C304.023 441.2 303.825 439.811 302.79 438.526C299.076 433.912 294.414 441.661 290.031 441.343C288.56 439.913 289.204 437.374 288.469 435.473C288.018 434.307 287.211 433.635 286.044 433.235C283.132 432.238 279.238 434.16 276.641 435.361L274.72 429.735C273.896 428.513 273.105 427.306 271.87 426.461C270.257 425.359 268.62 424.909 266.685 425.373C261.779 426.549 255.639 438.889 252.988 443.225C254.283 436.015 261.544 424.365 261.268 418.65C261.2 417.244 260.732 416.461 259.731 415.49C258.636 415.052 257.78 414.804 256.583 414.98C250.099 415.934 246.228 429.983 242.737 434.784C242.638 434.92 242.534 435.053 242.433 435.188C243.016 430.51 243.953 426.827 246.002 422.561L245.278 416.64C246.542 414.483 247.954 412.455 249.479 410.475C255.358 402.841 262.806 397.914 272.456 396.695Z"/>
	<path fill="#231F20" d="M261.162 242.7C265.493 242.402 269.733 242.137 274.056 242.67C286.2 244.166 297.933 250.665 305.394 260.378C315.446 273.465 317.384 288.236 315.302 304.277Q315.116 305.798 314.854 307.308Q314.592 308.819 314.255 310.314Q313.918 311.809 313.507 313.285Q313.096 314.762 312.612 316.216Q312.127 317.67 311.571 319.098Q311.015 320.526 310.388 321.925Q309.761 323.324 309.065 324.689Q308.369 326.055 307.606 327.384Q306.843 328.713 306.014 330.002Q305.186 331.292 304.294 332.538Q303.402 333.785 302.449 334.985Q301.496 336.185 300.485 337.337Q299.473 338.488 298.405 339.587Q297.337 340.687 296.216 341.732Q295.094 342.776 293.922 343.764Q292.75 344.751 291.53 345.679C284.567 350.946 276.347 354.087 267.541 352.858C255.927 350.661 242.771 342.904 233.716 335.466C222.92 326.598 213.264 313.458 212.002 299.161C210.816 285.721 215.546 272.427 224.233 262.189C234.292 250.332 245.569 243.946 261.162 242.7Z"/>
	<path fill="#FEFEFE" d="M258.892 253.156C265.969 252.04 274.727 254.272 280.968 257.606C289.898 262.376 297.43 270.626 300.354 280.413C305.292 296.946 299.255 312.066 291.502 326.464C291.829 321.863 293.528 316.649 292.655 312.091C292.43 310.914 291.829 309.55 290.729 308.968C288.836 307.967 287.006 308.804 285.129 309.408L284.419 309.641C282.883 308.017 281.521 306.179 279.717 304.835C278.189 303.697 277.029 303.249 275.138 303.542C273.688 304.694 273.035 305.909 272.514 307.662C271.383 311.468 271.6 316.005 271.175 319.973C270.524 326.048 269.314 331.868 267.681 337.749C267.209 330.12 267.3 321.599 268.9 314.107C269.932 309.278 271.481 304.614 272.028 299.686C270.779 297.85 269.07 295.524 266.804 294.901C265.496 294.542 264.54 294.616 263.389 295.358C260.364 297.307 259.862 301.832 259.161 305.032C257.695 309.774 256.222 313.833 253.471 318.004C253.238 307.266 257.695 298.307 259.101 287.971C259.343 286.192 259.41 284.772 258.193 283.309C257.089 281.982 255.656 281.26 253.925 281.221C252.555 281.191 250.301 281.382 249.108 282.075C244.242 284.904 239.535 313.137 236.251 316.383C236.139 316.149 235.968 315.936 235.915 315.683C235.702 314.661 237.431 309.856 237.714 308.516C239.026 302.315 239.71 295.982 241.092 289.794C241.752 286.841 243.004 283.908 243.431 280.925C243.778 278.504 243.269 275.416 241.697 273.481C240.828 272.413 239.568 271.511 238.125 271.596C231.469 271.99 230.955 286.096 227.082 290.939L226.716 290.506C226.085 283.229 229.202 275.697 233.309 269.794C239.554 260.817 248.178 255.141 258.892 253.156Z"/>
	<path fill="#231F20" d="M777.295 91.4635C793.805 92.1362 811.341 111.113 825.926 118.124C828.506 119.363 832.086 119.743 834.887 120.658C844.614 133.049 862.979 146.218 875.07 157.22C888.535 169.471 900.534 182.984 912.678 196.499C916.239 200.463 921.726 203.495 924.377 208.077C928.165 214.625 921.564 231.321 919.53 238.489C920.88 239.707 922.362 240.942 923.373 242.466C924.574 244.277 925.232 246.475 924.651 248.627C923.403 253.251 917.817 255.96 914.075 258.224Q902.594 294.305 890.193 330.081C886.9 339.502 884.433 349.287 880.311 358.392C881.693 359.542 882.994 361.107 883.575 362.827C884.042 364.21 883.921 365.58 883.207 366.839C881.04 370.665 875.64 372.349 871.686 373.589C855.523 378.659 838.348 380.766 821.734 383.849C800.331 387.819 779.057 392.357 757.689 396.475C738.101 400.25 718.309 403.366 699.13 408.931C691.514 404.155 683.096 400.864 675.499 396.215C671.778 393.938 668.365 390.816 664.996 388.051C661.364 385.071 658.101 382.315 655.158 378.637C655.014 364.085 653.229 349.738 651.608 335.298Q648.081 304.973 642.842 274.896Q637.604 244.819 630.671 215.087C627.481 201.254 623.281 187.589 620.27 173.744C607.029 171.58 593.141 171.815 579.75 171.531Q547.509 170.815 515.26 170.884C462.517 170.84 410.178 170.879 357.491 173.888Q266.077 180.016 175.223 191.841C167.76 192.792 160.355 194.109 152.895 195.072C144.688 196.132 136.414 196.558 128.209 197.646C135.752 207.291 140.903 218.917 145.528 230.188C162.193 270.809 170.443 314.112 179.139 356.995C183.925 380.597 188.894 404.271 192.835 428.029C195.431 443.678 197.398 459.429 199.98 475.088L225.526 636.259L233.654 693.926C236.32 712.478 239.12 731.521 244.381 749.539C246.891 758.137 249.442 765.989 256.472 771.952C259.989 774.936 265.664 778.864 270.225 779.697C288.051 782.949 329.81 771.961 348.398 767.828C367.728 763.531 387.28 758.9 407.038 757.267C402.383 751.974 398.692 745.863 394.115 740.46C390.154 741.605 385.242 743.579 381.104 743.34C379.604 743.253 378.083 742.769 377.177 741.488C376.137 740.018 376.096 737.734 376.411 736.017C376.819 733.796 378.063 732.217 380.059 731.202C384.231 729.081 391.422 728.008 396.275 726.412C412.588 721.046 428.7 715.145 445.127 710.141C462.223 704.932 480.431 701.706 497.135 695.535C510.495 690.599 523.298 683.872 536.161 677.783L605.466 644.509C622.904 636.057 641.133 629.06 658.56 620.51Q693.976 602.802 728.4 583.237Q762.825 563.671 796.16 542.303C808.863 534.02 820.712 524.903 832.858 515.861C837.075 512.722 841.466 509.819 845.628 506.605C856.653 498.09 867.306 489.396 878.69 481.354C883.029 478.289 886.785 473.3 891.277 470.812C892.228 470.285 893.706 470.486 894.719 470.792C897.673 471.682 899.315 474.481 900.802 476.955Q900.559 477.72 900.293 478.478C897.232 487.089 878.351 496.946 870.749 502.784C860.002 511.037 849.734 519.948 838.992 528.224C829.692 535.389 819.627 542.221 809.92 548.84C798.55 556.592 786.716 563.753 774.988 570.94Q745.492 589.394 714.766 605.718C709.006 608.777 702.996 611.355 697.215 614.376C687.39 619.511 678.069 625.398 668.09 630.302C654.178 637.139 639.69 642.703 625.75 649.498C619.925 652.481 613.826 654.993 607.898 657.773C597.583 662.61 587.293 667.697 577.045 672.695C562.256 679.907 547.911 688.082 533.081 695.272C522.651 700.329 511.748 704.616 501.079 709.151C500.518 723.667 515.743 758.778 520.834 774.994C525 788.261 527.934 801.773 531.66 815.143C537.055 834.499 543.311 853.867 550.088 872.789C554.848 886.08 560.02 900.444 568.07 912.115C576.416 912.843 582.939 909.375 590.281 905.863C609.538 896.651 627.938 884.595 645.931 873.164C657.971 865.515 670.177 858.118 682.336 850.661C702.151 838.511 722.304 826.89 742.082 814.672Q783.202 788.706 823.842 761.997C835.537 754.227 847.416 746.536 858.949 738.543C873.187 728.676 891.983 713.593 907.974 707.871C906.295 706.98 904.463 706.157 903.528 704.407C902.768 702.984 902.103 700.765 902.799 699.225C903.574 697.51 905.421 696.716 907.135 696.298C909.9 695.622 913.424 695.762 915.856 697.385C917.098 698.214 917.803 699.35 917.944 700.834C918.115 702.643 917.024 704.784 915.85 706.086C915.194 706.813 914.67 707.483 914.103 708.276C915.039 709.47 916.026 710.636 916.04 712.246C916.06 714.615 914.332 716.557 912.677 718.04C906.114 723.922 897.329 727.957 890.034 732.947C871.734 745.464 853.435 757.853 834.9 770.033Q750.837 826.478 663.461 877.647C644.021 889.284 625.362 902.625 605.291 913.16C594.524 918.811 580.625 927.052 568.243 925.945C561.941 925.382 556.93 922.954 552.412 918.564C536.407 903.011 524.892 882.892 510.032 866.262C504.374 859.93 498.264 854.007 492.54 847.736C488.63 843.452 485.035 838.888 481.158 834.573C473.511 826.063 465.56 817.762 457.621 809.524C444.497 795.908 430.641 782.695 418.325 768.35C414.065 769.308 409.527 769.623 405.205 770.357Q388.403 773.201 371.68 776.48C364.37 777.947 357 779.3 349.745 781.01C341.361 782.984 333.037 785.348 324.589 787.026C309.609 790 294.505 791.881 279.394 793.994C271.039 795.163 263.027 797.302 254.522 796.857C232.764 795.719 187.032 782.298 167.786 771.901C162.627 769.113 157.918 765.648 154.018 761.253C143.499 749.398 140.177 730.664 137.391 715.451C132.854 690.673 130.522 665.397 128.064 640.35C127.232 631.877 126.016 623.455 125.213 614.976C122.109 582.201 119.35 549.517 114.409 516.937C111.634 498.639 108.902 480.058 105.557 461.862C101.748 441.149 97.0702 420.56 93.1958 399.848C90.7521 386.784 89.636 373.41 86.9732 360.413C84.4668 348.18 79.7193 336.142 76.4814 324.043C69.5654 298.2 63.2705 257.203 64.9255 230.707C65.7708 217.176 71.3195 203.235 81.6476 194.183C95.9171 181.676 107.309 185.289 124.348 184.464C132.155 184.086 140.119 182.66 147.872 181.652Q242.901 168.676 338.571 161.885C395.222 158.406 451.789 158.096 508.522 158.234C544.756 158.322 581.174 157.846 617.356 160.101C617.661 150.34 615.892 140.026 618.442 130.477C620.262 123.661 624.074 118.72 630.593 115.819C641.239 111.082 663.74 112.013 675.994 110.936C692.106 109.519 707.868 105.92 723.795 103.314C737.562 101.062 751.609 99.8191 765.143 96.3404C769.676 95.1752 773.243 93.8452 777.295 91.4635Z"/>
	<path fill="#FEFEFE" d="M107.179 197.605C108.836 198.177 110.27 199.72 111.613 200.845C109.508 201.945 107.705 203.158 105.84 204.626L105.323 204.767C103.601 203.843 102.212 200.761 101.173 199.09C103.138 198.484 105.177 198.073 107.179 197.605Z"/>
	<path fill="#FEFEFE" d="M132.763 237.673L132.857 236.711C135.02 239.258 139.234 249.787 140.136 253.156C138.359 251.29 137.224 249.877 134.467 249.819C133.125 249.791 131.754 249.978 130.42 250.12C131.23 246.033 132.338 241.811 132.763 237.673Z"/>
	<path fill="#FEFEFE" d="M104.292 333.394C104.678 333.769 104.445 333.486 104.711 334.412C103.346 338.09 100.88 346.523 98.4338 349.268L97.8506 348.816C96.9102 346.023 95.6633 343.116 95.3808 340.174C96.2277 338.744 97.1604 338.592 98.681 337.945C101.132 336.902 102.506 335.304 104.292 333.394Z"/>
	<path fill="#FEFEFE" d="M88.9393 267.061L89.0866 267.204C89.3195 271.794 83.6676 282.705 81.6803 287.433C82.3933 282.325 81.1336 276.747 81.4253 271.514C82.1683 270.929 81.8334 271.065 82.7313 270.846C85.6244 270.141 86.4708 269.837 88.4931 267.568L88.9393 267.061Z"/>
	<path fill="#FEFEFE" d="M99.7204 302.349C100.334 302.935 100.08 302.541 100.243 303.653C98.86 307.37 93.8133 319.04 90.4011 320.61L89.7839 319.422C89.3779 315.922 88.4826 312.536 88.1347 309.006C88.3897 309.055 88.6511 309.078 88.8998 309.152C90.294 309.571 91.107 310.038 92.5946 309.613C96.6848 308.444 97.7214 305.71 99.7204 302.349Z"/>
	<path fill="#FEFEFE" d="M217.088 680.32C219.251 682.808 219.851 694.226 219.761 697.729C218.264 697.373 216.842 697.112 215.306 696.999L214.872 696.97C213.862 697.608 212.957 697.99 211.846 698.395C211.115 694.547 215.429 684.122 217.088 680.32Z"/>
	<path fill="#FEFEFE" d="M690.066 360.813C691.864 362.295 693.37 364.284 694.917 366.032C693.871 372.603 693.269 379.26 692.646 385.882C692.078 386.585 691.959 386.426 691.107 386.567C689.194 384.515 690.137 365.262 690.066 360.813Z"/>
	<path fill="#FEFEFE" d="M105.634 392.896C108.507 393.561 113.06 393.324 115.481 394.473C115.852 396.541 112.927 401.971 112.103 404.11C111.296 406.525 110.132 408.665 108.924 410.892C107.587 404.946 107.026 398.845 105.634 392.896Z"/>
	<path fill="#FEFEFE" d="M164.467 355.339C165.61 356.326 168.036 370.85 168.222 373.313C167.415 374.081 161.763 374.146 158.06 376.933L157.558 377.318C156.353 378.603 155.007 379.761 153.702 380.944C157.558 372.531 160.583 363.757 164.467 355.339Z"/>
	<path fill="#FEFEFE" d="M516.072 811.308C516.214 811.561 516.443 811.952 516.571 812.233C517.61 814.508 521.063 824.634 519.91 826.404C518.652 828.335 517.243 829.102 516.428 831.464C514.699 836.477 512.839 841.513 510.651 846.343C508.739 844.581 507.206 842.691 505.625 840.644C508.623 831.079 511.673 820.28 516.072 811.308Z"/>
	<path fill="#FEFEFE" d="M429.97 729.022C430.2 729.347 430.24 729.817 430.331 730.202C428.594 737.628 425.152 745.856 421.111 752.358L416.618 747.33Q412.569 742.161 408.741 736.827C415.723 733.976 423.134 732.166 429.97 729.022Z"/>
	<path fill="#FEFEFE" d="M522.959 836.338C524.788 838.046 535.671 873.132 537.391 878.131C536.453 877.167 535.563 876.153 534.657 875.158C528.51 867.998 523.397 860.121 516.686 853.414C519.262 847.985 520.661 841.925 522.959 836.338Z"/>
	<path fill="#FEFEFE" d="M140.136 253.156C142.928 261.14 147.673 272.77 148.304 280.976C147.114 282.079 145.17 282.107 143.635 282.624C139.984 283.854 136.783 292.096 134.866 295.392C133.597 297.692 132.37 300.027 131.026 302.283C131.752 297.897 132.408 293.471 133.388 289.134C135.416 280.162 141.036 261.818 140.136 253.156Z"/>
	<path fill="#FEFEFE" d="M507.573 779.818C507.814 780.17 507.894 780.261 508.093 780.701C510.229 785.422 512.24 792.655 511.92 797.888C511.35 807.179 505.499 818.621 502.099 827.353C501.245 829.546 500.834 831.833 499.926 834.008L499.21 834.137C496.955 832.002 495.013 829.58 493.021 827.205C497.728 811.369 503.021 795.691 507.573 779.818Z"/>
	<path fill="#FEFEFE" d="M451.996 722.521L452.943 722.458C454.486 725.729 442.83 751.062 441.143 755.571C439.487 759.996 438.174 764.534 436.876 769.074L433.621 765.297C431.808 762.912 429.804 760.781 427.311 759.106C431.649 750.127 436.458 737.699 437.203 727.792Q444.547 725.009 451.996 722.521Z"/>
	<path fill="#FEFEFE" d="M898.806 258.469C899.29 258.57 898.948 258.474 899.741 258.981C893.758 276.113 889.524 294.234 881.956 310.775C882.597 306.105 888.739 274.472 888.417 273.473C887.376 270.247 883.502 268.989 880.698 267.875C877.996 270.026 874.657 271.52 872.068 273.765C870.267 275.327 869.437 277.778 867.552 279.206L863.605 278.642C862.654 278.226 861.434 277.582 860.373 277.678C855.151 278.149 841.695 296.685 837.201 301.202L836.729 301.668C838.392 298.442 841.035 294.956 842.026 291.508C842.702 289.155 841.574 287.939 840.456 285.949C847.938 277.863 886.773 262.62 898.806 258.469Z"/>
	<path fill="#FEFEFE" d="M213.26 726.875C214.022 733.356 206.232 754.43 206.077 763.373C206.03 766.105 206.662 768.728 208.689 770.674C210.247 772.169 212.818 773.377 215.006 773.293C221.4 773.047 221.29 764.849 224.475 761.287C225.641 762.35 229.643 775.956 230.999 778.941C213.925 775.019 197.721 770.285 181.473 763.688C176.099 761.305 170.135 759.351 166.219 754.792C176.149 750.982 180.777 741.244 186.33 732.818C184.436 740.285 178.228 750.315 179.905 758.013C180.322 759.925 181.265 761.67 182.964 762.721C184.881 763.906 187.573 764.323 189.764 763.786C198.546 761.631 208.545 735.046 212.857 727.567L213.26 726.875Z"/>
	<path fill="#FEFEFE" d="M497.455 749.755C500.341 753.472 502.88 764.531 504.192 769.354C501.214 776.483 488.455 818.039 486.862 819.973L486.158 819.529C483.417 816.767 480.656 814.049 478.227 811.001C481.794 801.89 483.96 791.734 486.896 782.365C490.307 771.48 494.671 760.825 497.455 749.755Z"/>
	<path fill="#FEFEFE" d="M209.17 628.304C210.738 630.088 211.04 635.073 211.355 637.461C211.757 640.511 213.933 652.554 212.188 654.818C211.49 653.354 210.619 650.931 209.271 649.972C207.416 648.652 204.375 649.343 202.263 649.58C193.177 656.777 159.856 723.306 157.629 734.463C157.324 735.992 158.457 737.406 159.205 738.673C158.605 739.155 158.184 739.396 157.501 739.718C157.362 739.646 157.213 739.592 157.085 739.502C153.564 737.038 150.714 714.598 149.773 709.121C152.197 710.045 154.203 710.692 156.814 710.003C158.691 709.507 160.278 708.488 161.393 706.896C167.316 698.443 171.847 687.847 177.241 678.881C187.506 661.814 198.677 645.244 209.17 628.304Z"/>
	<path fill="#FEFEFE" d="M873.825 330.437L874.234 331.204C872.954 341.786 870.24 352.611 867.042 362.776C858.591 364.206 850.243 366.305 841.809 367.866L773.629 380.392L729.531 388.853C721.683 390.324 713.753 391.454 705.944 393.117L707.836 379.141L708.618 379.512C709.718 380.042 711.172 380.949 712.427 380.892C715.341 380.759 717.516 377.426 719.316 375.395L720.092 375.42L720.223 376.085Q719.706 377.44 719.247 378.816C718.591 380.828 718.507 383.259 719.675 385.121C721.309 387.725 725.735 386.711 728.518 387.037C729.399 387.14 730.222 387.306 731.088 386.971C735.844 385.129 743.22 375.945 747.826 372.385C747.979 372.267 748.135 372.152 748.289 372.035C749.658 374.152 751.038 376.335 753.555 377.16C760.598 379.469 776.64 367.14 783.35 363.889C783.468 364.008 783.584 364.128 783.704 364.245C783.904 364.439 784.109 364.627 784.31 364.82C785.942 366.4 787.283 367.381 789.413 368.239C801.815 373.237 811.578 367.205 822.861 362.597C823.898 363.372 824.982 364.117 826.089 364.787C835.234 370.325 841.021 361.474 849.083 358.894C851.803 358.023 854.779 359.494 857.557 358.665C859.049 358.22 860.341 357.079 861.237 355.837C863.562 352.617 864.914 348.187 866.622 344.582C868.882 339.813 871.441 335.148 873.825 330.437Z"/>
	<path fill="#FEFEFE" d="M809.231 255.43C811.467 256.122 817.831 263.22 820.101 265.378C823.207 268.329 827.512 273.79 832.047 273.598C832.727 273.569 832.894 273.838 833.452 274.205Q801.46 292.2 770.923 312.567C769.325 313.479 767.785 314.58 766.235 315.578C761.35 308.29 754.972 301.766 749.174 295.192C769.549 282.512 788.851 268.114 809.231 255.43Z"/>
	<path fill="#FEFEFE" d="M480.704 714.068C482.298 713.833 483.477 713.725 485.059 714.067C489.354 717.756 492.221 733.777 493.771 739.749Q481.304 772.375 472.537 806.183C469.693 802.867 463.201 797.883 461.679 794.264C459.9 790.031 475.133 747.238 478.061 739.715C478.874 737.233 480.86 734.38 480.278 731.891L479.461 731.364L479.563 730.618L479.732 730.915L478.377 729.549C477.074 729.29 476.763 729.161 475.571 729.928C470.366 733.283 457.48 778.704 455.082 787.164C450.686 782.735 446.662 777.973 442.006 773.8C445.123 768.359 446.633 761.792 448.87 755.923C452.472 746.475 456.927 737.117 459.686 727.381C460.405 724.844 460.837 722.524 460.699 719.864C467.341 717.82 473.962 715.762 480.704 714.068Z"/>
	<path fill="#FEFEFE" d="M839.508 182.476C843.747 185.917 847.361 191.445 851.037 195.595C856.293 201.528 861.899 207.151 867.307 212.946C855.963 217.853 845.26 223.682 834.463 229.669C826.289 234.201 818.181 238.569 810.563 244.017C805.498 241.11 788.496 221.685 782.639 215.779C792.583 210.139 802.077 203.827 811.862 197.944C820.826 192.555 830.281 187.426 839.508 182.476Z"/>
	<path fill="#FEFEFE" d="M774.187 220.948C775.411 220.972 775.65 221.039 776.641 221.784C780.613 224.768 784.064 229.051 787.507 232.636Q795.199 240.52 802.98 248.318C791.956 254.836 781.662 262.245 771.098 269.454C761.927 275.713 752.521 281.675 743.235 287.767L742.504 287.907C737.698 285.587 719.74 267.436 714.73 262.354C721.523 256.508 728.883 251.332 736.138 246.086C748.57 237.098 760.786 228.485 774.187 220.948Z"/>
	<path fill="#FEFEFE" d="M779.94 106.046C785.581 105.454 802.918 119.435 809.032 123.048C801.345 125.267 792.997 125.9 785.075 126.849C772.209 128.39 759.26 129.712 746.471 131.802C726.368 135.087 706.481 139.21 686.484 143.046C676.626 144.937 666.701 146.453 656.849 148.363C648.597 149.963 640.409 151.872 632.131 153.334C631.735 153.393 631.28 153.245 630.887 153.172C630.813 152.98 630.722 152.795 630.666 152.597C629.668 149.105 630.486 135.291 632.376 131.94C633.734 129.532 635.986 128.23 638.576 127.457C646.934 124.965 656.642 125.891 665.278 125.316Q682.283 124.114 698.967 120.614C701.33 120.131 715.087 116.808 716.165 117.387C716.817 117.737 718.454 121.538 721.355 123.136C724.562 124.903 733.567 129.276 737.059 127.679C738.333 127.097 738.608 126.463 739.197 125.297C739.142 124.425 739.244 123.882 738.746 123.121C737.02 120.484 727.12 118.31 723.927 117.423L723.943 116.85C728.8 113.89 740.854 114.16 746.78 113.399Q754.369 112.379 761.895 110.963C768.102 109.792 773.958 108.027 779.94 106.046Z"/>
	<path fill="#231F20" d="M664.051 127.705C666.216 128.463 668.922 130.247 670.726 131.658C671.917 132.588 673.285 134.135 673.308 135.729C673.332 137.285 672.402 138.256 671.447 139.34C669.584 139.48 668.11 139.185 666.551 138.165C664.37 136.739 662.86 134.914 662.409 132.3C662.081 130.403 663.049 129.185 664.051 127.705Z"/>
	<path fill="#FEFEFE" d="M707.825 267.08C711.043 269.719 713.937 273.262 716.921 276.199C722.932 282.115 729.151 287.713 734.967 293.838C730.003 296.829 724.028 300.246 720.202 304.651C718.39 306.736 717.771 309.228 717.94 311.92C718.451 312.767 718.402 313.127 719.492 313.38C723.344 314.274 738.122 303.064 742.167 300.343C748.403 306.265 755.261 312.938 760.266 319.923C749.179 326.999 737.623 334.306 727.26 342.392C720.458 347.882 713.27 353.159 706.144 358.221C699.419 349.29 690.646 342.165 683.091 333.952C677.453 327.823 672.664 320.589 666.836 314.725C665.705 313.586 664.387 312.863 662.946 312.191C661.948 307.76 661.204 303.35 660.547 298.858C666.172 297.174 703.347 271.639 707.825 267.08Z"/>
	<path fill="#FEFEFE" d="M170.796 384.885C173.162 389.827 173.834 401.739 174.627 407.514C173.4 407.467 172.165 407.41 170.937 407.445C169.044 407.497 167.541 408.45 166.319 409.843C163.899 412.602 162.459 416.838 160.528 420.005C149.161 438.638 137.744 456.465 129.326 476.669C128.006 479.838 125.553 484.657 126.003 488.124Q126.051 488.478 126.134 488.826Q126.217 489.174 126.333 489.512Q126.449 489.85 126.597 490.175Q126.745 490.5 126.924 490.81Q127.103 491.119 127.311 491.409Q127.52 491.7 127.755 491.969Q127.99 492.238 128.251 492.483Q128.511 492.728 128.794 492.946C130.598 494.342 133.761 494.591 135.947 494.237C137.924 493.918 138.994 492.734 139.942 491.085C141.717 488 142.65 484.198 143.883 480.851C145.492 476.485 147.315 472.148 149.245 467.914C153.507 458.562 158.861 449.768 163.946 440.853C168.248 433.309 172.207 425.64 177.023 418.402C178.174 428.777 180.288 439.007 181.321 449.417C180.419 449.299 179.382 449.098 178.477 449.158C176.678 449.278 174.962 450.826 173.844 452.142C170.314 456.294 166.861 463.982 164.085 468.944Q153.297 487.792 143.489 507.167C140.952 512.152 138.035 517.214 135.89 522.368C135.055 524.375 134.282 526.76 134.51 528.965Q134.549 529.324 134.625 529.677Q134.701 530.029 134.813 530.373Q134.925 530.716 135.071 531.046Q135.217 531.376 135.397 531.689Q135.576 532.002 135.786 532.295Q135.997 532.588 136.236 532.858Q136.476 533.128 136.742 533.372Q137.008 533.616 137.297 533.832Q137.621 534.076 137.969 534.283Q138.318 534.49 138.687 534.658Q139.056 534.825 139.441 534.952Q139.826 535.079 140.222 535.162Q140.619 535.246 141.022 535.286Q141.426 535.326 141.831 535.322Q142.236 535.318 142.639 535.269Q143.041 535.221 143.436 535.129C145.432 534.663 146.909 533.379 148.032 531.712C152.28 525.407 155.111 516.185 158.572 509.215C162.244 501.82 166.57 494.708 170.558 487.477C175.054 479.328 179.304 471.047 184.088 463.06C184.778 470.783 186.134 478.724 187.732 486.315L181.645 486.636C174.983 495.066 138.164 555.606 137.94 563.393C137.876 565.627 138.625 567.824 140.251 569.388C141.869 570.944 144.371 571.893 146.618 571.684C148.043 571.551 149.448 571.044 150.283 569.827C153.194 565.585 154.864 559.562 157.23 554.887C164.288 540.942 172.449 527.012 180.705 513.749C183.325 509.54 185.918 504.579 189.263 500.946C189.379 500.82 189.5 500.698 189.619 500.574C192.73 509.25 193.785 519.751 195.046 528.884Q193.925 528.913 192.806 528.994C189.705 529.236 188.264 530.574 186.347 532.898C171.443 550.965 159.091 571.979 147.865 592.455C145.437 596.884 139.879 604.543 140.583 609.512Q140.642 609.919 140.743 610.318Q140.844 610.717 140.987 611.103Q141.13 611.489 141.312 611.857Q141.495 612.226 141.715 612.574Q141.935 612.921 142.19 613.244Q142.446 613.567 142.734 613.861Q143.022 614.155 143.339 614.417Q143.656 614.679 143.999 614.906Q144.31 615.111 144.641 615.282Q144.972 615.453 145.318 615.588Q145.665 615.723 146.025 615.821Q146.384 615.92 146.751 615.979Q147.119 616.039 147.491 616.06Q147.862 616.081 148.234 616.063Q148.606 616.045 148.974 615.988Q149.342 615.93 149.702 615.835C155.456 614.291 156.575 606.883 158.748 602.199C160.016 599.466 161.535 596.809 162.972 594.161C168.775 583.951 174.561 573.758 181.086 563.985C186.256 556.24 191.999 548.9 197.182 541.162C199.075 549.563 199.934 558.135 201.695 566.561Q199.751 568.034 198.06 569.792C194.517 573.542 191.793 578.278 188.915 582.548C176.673 600.708 166.625 620.218 155.512 639.051C152.993 643.32 149.041 647.18 146.923 651.563C146.458 652.525 146.369 653.778 146.435 654.837C146.575 657.08 147.634 659.359 149.381 660.798C150.843 662.004 152.772 662.453 154.64 662.216C156.814 661.94 159.221 660.466 160.522 658.711C164.235 653.702 167.058 647.371 170.246 641.93C181.337 623 191.285 603.22 204.272 585.51C204.597 588.801 208.528 612.27 207.4 613.355C206.102 614.604 202.831 614.401 201.148 616.157C197.614 619.845 194.553 625.558 191.609 629.803C175.761 652.654 162.227 676.408 148.202 700.366C144.943 681.295 143.613 661.964 141.485 642.757C140.343 632.451 138.906 622.167 137.895 611.848C135.243 584.804 133.144 557.769 129.642 530.805C128.063 518.655 125.742 506.554 123.796 494.453C122.34 485.396 121.225 476.285 119.672 467.246C118.585 460.927 109.61 418.936 110.559 416.517L111.468 416.34C114.385 418.694 112.877 422.579 114.875 425.631C116.137 427.561 118.111 428.643 120.366 428.964C123.312 429.384 124.499 428.674 126.75 426.873L127.297 426.426C125.41 432.477 120.807 438.551 120.158 444.769C119.946 446.798 120.222 449.02 121.723 450.541C123.534 452.377 126.629 452.712 129.067 452.529C130.945 452.389 132.34 451.613 133.507 450.111C135.267 447.846 135.825 444.093 137.256 441.494Q148.652 420.535 160.923 400.075C163.8 395.273 166.634 389.275 170.457 385.229C170.567 385.112 170.683 385 170.796 384.885Z"/>
	<path fill="#FEFEFE" d="M824.95 132.481C829.88 133.697 838.658 143.274 842.545 146.756C853.676 156.73 865.136 165.96 875.767 176.538C888.154 188.864 899.795 202.709 913.02 214.086C910.572 223.809 907.552 234.25 903.755 243.532C898.775 244.764 893.911 246.898 889.101 248.703C882.943 251.013 876.658 253.119 870.613 255.714C863.31 258.85 856.192 262.524 849.001 265.914C844.406 268.08 839.28 271.929 834.546 273.29C834.905 272.738 835.401 272.28 835.356 271.583C835.095 267.596 820.561 254.401 816.962 251.563L816.329 251.07C827.689 242.634 859.67 224.007 872.874 219.514C878.359 222.804 882.13 228.21 887.016 232.236C888.513 233.47 889.749 234.333 891.725 234.13C892.993 233.144 893.34 232.189 893.907 230.752C893.877 225.551 886.001 218.89 882.592 215.264C885.187 214.765 888.269 214.45 890.411 212.758C891.547 211.86 891.865 211.263 892.086 209.867C891.516 208.678 890.659 208.119 889.457 207.646C884.931 205.865 880.197 207.691 875.966 209.359C871.426 204.252 866.876 199.126 862.057 194.278C857.055 189.245 851.696 184.429 847.145 178.984C848.533 178.209 849.959 177.485 850.851 176.114C851.589 174.98 851.475 174.04 851.266 172.788C850.669 172.051 850.171 171.561 849.289 171.205C846.884 170.234 844.75 171.401 842.505 172.263C841.658 171.344 840.754 170.63 839.673 170.006C838.206 169.16 837.058 169.146 835.417 169.557C834.469 170.415 834.074 170.711 834.082 172.114C834.092 173.845 835.525 175.312 836.545 176.571C829.422 179.398 822.42 183.977 815.696 187.685C803.199 194.022 789.958 202.794 777.779 210.093C776.202 208.478 774.598 206.399 772.761 205.092C771.135 203.936 769.168 203.252 767.189 203.628C766.305 204.447 765.998 204.564 765.956 205.84C765.845 209.171 768.546 212.254 770.566 214.625C764.052 218.95 757.002 222.398 750.433 226.628C737.155 235.177 721.168 246.992 708.715 256.787L708.555 256.639C706.527 254.729 704.579 253.445 702.172 252.082C701.203 253.037 699.65 254.24 699.342 255.614C698.856 257.78 700.74 259.973 701.835 261.703C692.345 268.963 665.345 285.184 659.827 294.004C657.917 285.307 656.581 276.432 654.951 267.672Q651.193 247.354 646.647 227.198Q642.352 208.283 637.767 189.436C636.062 182.155 634.023 174.768 633.132 167.334C669.14 160.095 704.894 152.303 741.081 145.903C761.614 142.272 782.463 141.107 803.091 137.895C809.058 136.966 815.793 136.419 821.526 134.574C822.855 134.146 823.892 133.368 824.95 132.481Z"/>
</svg>
