<svg width="1024" height="1024" viewBox="0 0 1024 1024" fill="none" xmlns="http://www.w3.org/2000/svg">
<g clip-path="url(#clip0_114_1012)">
<rect width="1024" height="1024" fill="white"/>
<path d="M209.857 378.127C213.978 377.486 218.634 377.663 222.793 377.801C244.212 378.511 263.614 386.696 283.369 395.674C288.771 398.129 296.602 400.608 300.6 405.755C301.775 407.268 302.145 408.062 302.21 410.165C302.386 415.902 301.686 421.697 301.783 427.449C301.901 434.508 302.511 441.554 302.631 448.619C302.839 460.863 302.393 473.141 302.443 485.39C302.518 503.481 302.993 521.564 302.946 539.66C302.914 551.93 302.167 564.166 302.178 576.446L302.557 675.043C302.609 690.846 303.243 706.516 302.752 722.34C315.914 717.496 328.893 716.585 342.484 718.856C329.358 721.685 316.479 725.155 303.172 726.753L302.69 735.195C318.077 732.5 340.748 730.789 356.244 731.371C339.016 734.827 321.279 740.784 303.768 740.782C303.466 742.062 303.158 743.345 302.761 744.589C300.91 750.379 292.92 753.134 288.508 755.464C299.083 753.341 310.216 750.114 320.9 749.665C319.467 750.248 311.554 752.864 311.042 753.827L312.189 753.403L312.176 753.993C324.813 753.089 337.119 749.734 349.896 749.716C345.592 752.074 339.962 752.764 335.298 753.907C316.073 758.626 296.631 761.938 277.226 765.454C268.311 766.213 258.99 768.664 250.131 770.327C216.41 776.658 183.277 785.811 149.896 794.2C138.879 796.969 126.805 803.227 115.533 803.091C103.17 802.944 53.6633 761.82 44.147 750.037C42.1083 747.511 41.986 745.27 41.8172 741.977C41.1078 728.205 41.5688 714.165 41.431 700.359C41.0477 661.753 41.3456 623.074 41.4222 584.46L41.5901 459.48C41.6289 448.253 40.7789 437.034 41.0554 425.816C41.3271 414.79 41.8463 409.902 48.8348 402.096C55.0752 400.934 61.5183 401.122 67.814 399.964C114.908 391.294 162.304 382.412 209.857 378.127Z" fill="#211F20"/>
<path d="M287.374 414.623C288.75 414.444 290.014 414.586 291.387 414.751C293.264 417.578 290.708 555.04 290.721 569.234L292.245 743.265C283.892 744.284 275.642 746.895 267.405 748.81C239.642 755.266 212.157 763.734 184.65 771.653C178.006 773.565 161.047 780.069 155.506 780.184C154.359 780.207 153.227 780.351 152.085 780.473L151.216 782.708L150.342 782.976L148.69 781.156C144.118 781.047 138.688 783.639 134.328 785.346C133.782 786.381 133.856 786.335 134.071 787.544C130.468 787.202 127.547 787.5 124.029 788.478C121.706 789.176 119.784 790.811 117.786 792.317L118.585 536.866C118.638 514.515 119.699 492.211 119.53 469.836C119.47 461.905 119.943 452.962 118.381 445.23C131.417 441.656 145.189 440.138 158.447 437.951C201.367 430.875 245.285 427.051 287.374 414.623Z" fill="#FEFEFE"/>
<path d="M277.75 602.071C272.236 614.616 262.978 624.93 254.911 635.244C242.576 651.017 230.067 666.288 217.177 681.425C213.378 685.886 209.807 691.356 205.756 695.413C204.979 694.472 204.006 693.703 203.127 692.897C216.732 671.369 233.78 652.216 249.662 633.032C256.989 624.182 264.259 613.982 272.276 606.106C273.929 604.482 275.851 603.236 277.75 602.071Z" fill="#211F20"/>
<path d="M218.5 705.782C231.374 688.175 244.754 671.129 258.641 654.644C265.449 646.44 272.266 636.91 280.465 630.706C279.321 633.6 278.12 636.357 276.478 638.904C270.049 648.88 261.951 657.86 254.729 667.045C244.939 679.495 234.469 696.075 222.523 705.534L221.972 705.16C220.674 705.714 219.88 705.836 218.5 705.782Z" fill="url(#paint0_linear_114_1012)"/>
<path d="M200.725 663.734C204.353 656.812 235.115 617.089 240.814 611.476L243.76 614.029C236.325 623.656 228.774 633.145 221.454 642.894C215.583 650.711 209.324 660.437 202.445 666.964C202.285 665.968 202.495 666.374 201.797 665.756C199.158 669.747 196.249 673.073 193.117 676.498C195.48 672.304 198.168 668.719 201.043 665.028L200.725 663.734Z" fill="#211F20"/>
<path d="M283.181 658.891C277.237 675.377 247.795 703.532 236.022 719.149C235.677 717.787 235.073 716.449 234.576 715.151C237.494 709.34 277.588 663.339 283.181 658.891Z" fill="url(#paint1_linear_114_1012)"/>
<path d="M201.699 628.811L235.496 586.677C242.636 577.726 249.407 568.47 256.889 559.892C247.896 579.777 232.382 596.113 219.304 612.26C214.353 618.371 209.915 625.064 204.746 630.924C203.521 630.488 202.697 629.712 201.699 628.811Z" fill="#040404"/>
<path d="M283.302 687.179C283.466 688.099 283.512 687.912 283.389 688.792C282.73 693.569 243.313 741.533 237.618 746.29L237.559 745.344C240.13 737.347 275.718 694.287 283.302 687.179Z" fill="#040404"/>
<path d="M201.699 628.81C202.698 629.711 203.522 630.487 204.746 630.923C193.608 646.454 174.614 673.052 160.713 683.648C163.926 678.39 167.997 673.651 171.55 668.691C181.304 655.076 190.857 641.27 201.699 628.81Z" fill="#211F20"/>
<path d="M203.127 692.897C204.006 693.703 204.979 694.472 205.756 695.413C197.93 704.023 191.03 714.004 183.964 723.492C176.969 732.283 170.119 741.358 162.837 749.811C163.986 747.167 165.23 744.588 166.57 742.074C167.91 739.56 169.34 737.121 170.86 734.756C172.38 732.391 173.985 730.109 175.674 727.911C177.363 725.713 179.13 723.607 180.974 721.593C188.077 711.702 195.572 702.297 203.127 692.897Z" fill="#040404"/>
<path d="M200.725 663.733L201.043 665.028C198.169 668.719 195.48 672.304 193.117 676.498C196.249 673.073 199.158 669.747 201.798 665.756C202.495 666.374 202.285 665.968 202.445 666.964C200.549 670.337 197.629 673.46 195.312 676.462C188.835 684.853 182.1 692.852 175.515 701.1C168.612 709.745 162.708 719.566 154.598 726.729C162.391 711.462 174.289 698.036 184.349 684.854C189.705 677.835 194.795 670.063 200.725 663.733Z" fill="#040404"/>
<path d="M218.501 705.783C219.88 705.837 220.674 705.715 221.973 705.161L222.523 705.535C211.175 720.612 199.311 736.395 186.377 749.574C192.83 735.879 208.285 716.069 218.501 705.783Z" fill="#040404"/>
<path d="M206.798 752.706C215.584 739.549 225.263 727.722 234.575 715.152C235.073 716.45 235.676 717.788 236.022 719.15C228.304 729.211 216.127 745.521 206.798 752.706Z" fill="#040404"/>
<path d="M240.814 611.476C247.862 602.031 255.603 589.884 264.692 583.334C259.324 595.734 250.822 603.303 243.76 614.03L240.814 611.476Z" fill="#040404"/>
<path d="M49.999 414.136C55.565 417.834 59.9655 423.997 65.4432 427.96C79.3979 438.055 94.223 442.196 109.611 447.936C110.343 458.98 108.641 470.491 108.278 481.568C107.646 500.799 107.792 520.282 107.609 539.54C107.331 568.824 106.438 598.154 106.413 627.431C106.382 661.115 107.283 694.77 107.671 728.447C107.889 747.382 107.51 766.231 108.07 785.174L107.653 786.67L106.641 786.819C95.7193 778.449 85.3064 769.044 74.679 760.153C67.6003 754.231 59.3018 748.746 53.1856 741.512C52.6956 662.274 53.9969 583.047 52.9518 503.799C52.7441 488.032 52.5957 472.203 52.0028 456.452C51.7078 448.608 48.887 419.358 49.999 414.136Z" fill="#FEFEFE"/>
<path d="M57.2793 432.999C68.7984 440.733 78.6349 471.359 83.3004 485.733C87.7019 480.255 91.1797 473.891 95.1445 467.985C96.7679 465.568 100.137 460.528 102.839 460.169L103.431 461.301C103.032 464.609 101.441 467.474 100.106 470.359C97.877 476.465 88.9799 496.379 84.1902 499.253C84.0614 499.328 83.9301 499.396 83.7962 499.456C83.6617 499.515 83.5248 499.565 83.3857 499.607C83.2467 499.649 83.1063 499.682 82.9646 499.707C82.8223 499.732 82.6796 499.748 82.5367 499.755C82.3931 499.762 82.2498 499.76 82.1068 499.748C81.9639 499.738 81.8215 499.718 81.6799 499.69C81.5388 499.66 81.3991 499.623 81.2607 499.577C81.1229 499.531 80.9874 499.476 80.8541 499.413C70.2335 494.451 61.6449 446.643 57.4899 433.648L57.2793 432.999Z" fill="#211F20"/>
<path d="M217.685 388.913C238.666 385.866 264.2 401.053 284.005 407.776C257.372 410.184 230.678 414.379 204.191 418.465C176.813 422.689 149.321 426.726 122.513 434.776C118.892 436.245 116.312 436.893 112.507 436.306C102.751 434.802 65.7852 417.729 54.9463 412.303C74.7794 413.225 101.231 407.798 121.208 404.39L176.763 395.361C190.409 393.123 203.971 390.552 217.685 388.913Z" fill="#FEFEFE"/>
<path d="M604.618 739.202C606.624 727.289 610.678 714.565 610.783 702.428C610.84 695.724 609.328 688.793 608.495 682.175C607.819 677.055 607.362 671.909 607.122 666.736C606.882 661.562 606.862 656.387 607.06 651.211C608.097 624.723 614.957 598.475 617.199 572.028C619.512 544.735 616.792 517.411 620.861 490.251C624.52 465.825 637.792 428.58 646.619 405.54C649.182 398.851 654.203 392.498 655.712 385.418C658.44 372.617 648.197 351.557 652.757 341.982C653.868 339.649 655.639 338.555 657.786 337.998C665.9 335.892 676.342 337.985 684.687 338.065C709.965 338.307 735.399 338.314 760.567 341.478C780.342 343.965 799.904 348.914 819.738 350.857C828.53 351.717 852.344 348.212 858.419 353.316C859.758 354.434 860.689 356.036 860.903 357.979C861.475 363.204 858.36 369.166 857.138 374.102C855.304 381.478 854.857 389.318 852.878 396.664C852.529 397.975 852.063 399.009 851.287 400.047C851.199 400.164 851.102 400.274 851.005 400.387C851.325 400.779 851.655 401.209 851.898 401.663C853.518 404.638 854.363 409.12 855.362 412.536C862.766 437.843 867.753 464.304 869.025 491.079C869.258 495.974 869.879 501.883 868.889 506.667C867.948 507.957 867.598 508.547 866.172 509.056C864.959 509.486 863.562 509.278 862.504 508.422C858.506 505.184 859.777 494.022 858.991 488.891L858.865 488.094C857.933 491.809 849.045 502.944 846.435 505.58C844.892 507.149 843.407 508.428 841.284 508.224L840.775 507.169C845.096 496.981 854.741 491.82 858.331 484.593C858.467 484.312 858.593 484.025 858.729 483.74C857.856 478.904 856.895 474.084 856.08 469.236C849.026 479.299 838.155 505.038 826.776 508.856C825.375 508.668 825.236 508.81 824.224 507.538C823.855 500.688 853.169 473.513 854.547 466.259C854.595 466.004 854.634 465.745 854.673 465.489C854.857 464.962 854.954 464.727 855.061 464.127C855.857 459.591 850.85 438.238 848.511 434.582C848.288 442.83 831.065 462.199 827.323 470.38C824.937 475.592 825.995 483.463 822.834 488.014C827.379 484.19 833.485 471.445 837.392 465.813C841.703 459.597 848.084 453.477 851.5 446.669C851.558 447.815 851.607 448.989 851.452 450.127C850.947 453.827 829.691 488.395 826.933 492.263C825.368 494.455 823.77 496.185 821.68 497.64C822.471 500.302 821.97 503.444 821.342 506.111C820.666 508.989 819.865 511.18 817.583 512.691C816.235 512.615 815.749 512.669 814.628 511.678C806.026 504.063 819.305 456.958 822.938 446.515C827.293 433.996 833.196 422.274 837.261 409.616C840.557 399.348 842.225 388.598 844.64 378.017C845.532 374.071 847.881 367.353 847.298 363.404C813.497 365.396 782.845 355.807 749.7 352.905C720.5 350.348 691.01 352.866 661.999 348.127C665.467 358.801 669.121 375.221 667.226 386.695C665.572 396.716 658.569 407.119 654.88 416.372C651.614 424.56 648.953 433.279 646.074 441.676C642.339 452.57 638.287 463.452 635.478 474.744C626.725 509.942 631.062 540.711 627.614 575.978C625.104 601.631 618.232 629.865 617.534 654.972C617.045 672.526 620.956 689.992 620.08 707.435C619.682 715.349 614.857 730.994 615.462 736.961C619.164 740.734 665.146 744.395 672.089 745.11C684.02 746.34 695.673 749.261 707.424 751.892C730.89 757.146 753.979 762.632 777.917 763.693C778.879 761.699 778.779 759.227 778.845 756.981C779.186 745.268 778.859 733.426 778.882 721.699C779.054 698.119 779.106 674.54 779.036 650.961C779.058 622.349 780.063 593.651 779.868 565.049C779.818 557.619 775.446 553.102 778.021 545.133C780.836 536.42 788.38 530.991 795.224 527.387C827.19 510.557 920.57 506.217 952.941 521.144C962.392 525.503 974.522 532.13 978.733 543.798C981.44 551.323 977.724 554.439 976.928 561.321C975.56 573.138 976.627 591.541 976.637 603.924C976.647 622.352 978.015 772.288 975.744 778.769L984.497 777.258C984.701 777.431 984.895 777.609 985.108 777.775C986.011 778.494 986.826 778.466 987.864 778.448C987.311 778.904 986.768 779.311 986.195 779.719L986.418 780.202C983.595 781.983 978.714 781.824 975.511 782.129C975.735 782.697 975.919 783.153 975.939 783.792C976.055 787.24 974.755 792.761 972.804 795.275C979.199 793.191 985.826 792.599 992.367 791.478C1002.94 789.665 1013.36 787.06 1024.09 787.284C1017.83 792.943 979.791 799.407 969.272 802.649C966.866 803.39 954.076 813.147 949.089 815.703C949.875 815.785 950.661 815.796 951.456 815.812L951.437 815.174C954.27 815.513 958.326 814.053 961.286 813.654C972.756 812.11 999.644 806.648 1009.68 808.617C1009.18 808.946 1008.75 809.215 1008.21 809.456C1000.37 813.023 990.872 813.623 982.624 815.795C972.552 818.451 962.586 820.248 952.456 822.435C945.285 823.984 938.056 826.008 930.817 827.035C923.743 828.04 916.494 828.217 909.382 828.931C875.972 832.285 840.477 833.478 809.051 817.149C801.157 813.048 783.916 802.206 781.118 792.112C779.792 787.321 779.982 781.042 778.338 776.634C778.243 776.378 778.134 776.131 778.032 775.878C767.942 775.756 757.683 775.792 747.654 774.412C722.565 770.96 697.878 762.489 672.794 759.485C659.615 757.907 621.443 756.288 611.946 750.929C607.901 748.647 606.119 743.86 604.618 739.202Z" fill="#211F20"/>
<path d="M963.625 604.149C963.79 604.356 963.975 604.533 964.101 604.767C964.654 605.805 966.294 738.993 964.256 745.592C959.754 753.845 934.418 763.297 926.228 765.748C894.352 775.288 848.871 776.444 818.137 761.812C808.735 757.337 801.62 751.037 793.065 744.963C792.3 742.986 791.135 742.151 790.705 739.761C789.387 732.452 790.279 723.348 790.196 715.797C789.856 684.87 791.315 654.008 790.964 623.103C790.899 617.414 791.82 608.926 789.998 603.815C791.635 604.865 793.098 606.446 794.591 607.768C824.997 634.671 875.925 635.346 911.935 628.992C926.684 626.392 954.339 618.995 963.625 604.149Z" fill="#FEFEFE"/>
<path d="M953.883 647.328C954.805 647.168 955.31 647.193 956.202 647.536C955.678 649.535 954.514 650.835 953.233 652.205C939.833 666.555 922.696 670.888 905.181 669.912L904.337 669.06C909.033 664.929 918.562 664.849 924.287 663.051C932.254 660.547 947.654 653.384 953.883 647.328Z" fill="#211F20"/>
<path d="M953.406 689.068L954.93 689.546C954.707 691.531 952.766 693.439 951.524 694.695C939.453 706.951 920.055 713.702 904.297 712.101C904.025 711.846 903.831 711.326 903.646 710.979C907.441 707.028 924.635 704.656 930.865 702.066C938.764 698.778 946.099 693.863 953.406 689.068Z" fill="#211F20"/>
<path d="M956.415 625.738L957.298 626.156L957.308 627.086C956.813 627.872 956.279 628.622 955.668 629.285C941.86 644.225 924.636 648.94 906.481 648.193L906.073 647.482C909.431 643.896 919.59 643.113 924.17 641.744C935.436 638.381 946.052 631.811 956.415 625.738Z" fill="#211F20"/>
<path d="M953.368 709.218L954.678 709.716L954.765 710.748C953.814 711.961 952.818 713.115 951.777 714.212C938.473 727.958 921.036 733.37 903.695 731.923L902.793 731.538C904.287 729.108 912.448 727.893 915.175 727.179C929.526 723.42 940.53 717.667 953.368 709.218Z" fill="#211F20"/>
<path d="M953.632 668.197C954.185 668.369 954.524 668.646 955 668.996C954.65 669.892 954.359 670.436 953.738 671.117C940.648 685.416 925.491 690.571 908.054 689.566C907.772 689.423 907.54 689.06 907.316 688.805C910.179 685.598 919.009 685.108 923.017 683.795C934.011 680.192 943.666 674.696 953.632 668.197Z" fill="#211F20"/>
<path d="M952.98 727.929L954.629 727.983L954.94 729.391C954.532 730.124 954.183 730.744 953.668 731.383C947.516 739.041 936.736 747.229 928.08 749.689C922.452 751.288 916.349 751.447 910.585 751.806L909.779 751.004C913.661 746.891 922.569 745.957 927.585 743.941C935.872 740.61 946.42 734.893 952.98 727.929Z" fill="#211F20"/>
<path d="M889.442 525.706C909.712 525.049 941.492 527.493 959.589 538.38C963.218 540.565 967.332 544.261 968.632 549.035C968.099 550.895 967.216 552.493 966.042 553.871C952.592 569.632 913.526 576.55 895.274 578.024C885.619 578.803 875.789 578.451 866.095 578.467C859.147 578.586 851.608 577.249 844.679 576.318C830.329 574.39 802.417 568.692 791.713 556.703C789.989 554.771 789.195 551.877 787.696 549.712C787.532 549.476 787.364 549.245 787.198 549.011C792.038 544.469 796.811 540.515 802.547 537.666C826.195 525.924 863.805 526.015 889.442 525.706Z" fill="#FEFEFE"/>
<path d="M878.943 537.221C879.765 537.187 880.589 537.168 881.418 537.163C894.905 537.018 938.863 535.106 947.673 546.588C948.479 547.639 948.993 549.066 948.896 550.48C948.76 552.552 947.479 554.241 946.16 555.468C937.126 563.85 903.076 568.707 890.772 569.015C886.764 569.114 882.815 568.498 878.856 567.868C885.444 566.637 891.975 564.64 898.544 563.182C908.005 561.082 934.069 558.408 940.706 550.588C933.332 542.504 889.598 543.643 878.225 543.857C866.814 543.913 824.678 545.538 816.804 551.965C816 552.623 816.091 552.86 815.896 553.984C819.266 560.842 856.392 567.289 864.194 569.408C865.775 569.838 868.318 569.656 869.676 570.498C869.812 570.579 869.919 570.694 870.045 570.792C868.531 571.144 866.998 571.499 865.465 571.73C852.171 573.737 819.733 568.578 809.03 558.545C807.372 556.991 806.484 555.567 806.232 553.065C806.451 551.716 806.76 550.667 807.553 549.631C816.744 537.608 864.834 537.953 878.943 537.221Z" fill="#211F20"/>
<path d="M963.985 749.645C964.286 750.289 964.596 751.014 964.732 751.737C965.896 758.098 965.324 784.741 962.374 789.786C957.581 797.973 939.192 806.822 931.197 808.533C928.256 810.149 924.21 810.787 921.027 811.646C918.09 812.413 915.144 813.104 912.187 813.719C909.224 814.334 906.252 814.873 903.27 815.336C900.294 815.799 897.308 816.185 894.313 816.494C891.318 816.804 888.32 817.037 885.318 817.192C882.316 817.347 879.312 817.426 876.303 817.427C873.302 817.429 870.3 817.353 867.299 817.2C864.29 817.048 861.292 816.818 858.303 816.511C855.308 816.203 852.32 815.82 849.337 815.36C830.633 812.448 808.592 806.057 794.947 789.65C792.683 786.927 791.559 783.803 789.63 780.854L789.391 780.494C789.706 779.98 789.793 779.896 790.008 779.209C790.995 776.047 791.094 770.045 789.675 767.148C792.37 768.954 794.694 772.456 797.072 774.913C804.076 782.146 815.416 791.316 824.666 793.341C826.488 793.739 827.507 793.488 828.997 792.307L828.539 791.134C813.116 783.94 801.898 772.7 789.464 760.309C790.667 757.889 790.684 753.675 790.383 750.956C792.598 751.881 795.247 755.6 797.081 757.487C808.674 769.415 845.931 781.337 861.04 780.112C861.263 779.645 861.476 779.176 861.719 778.726C862.631 777.026 863.068 777.135 864.64 776.774L865.164 779.314C867.337 780.904 870.016 776.694 872.383 777.196C871.093 778.106 870.035 778.815 869.113 780.247C869.831 780.598 870.452 780.799 871.229 780.937C875.411 781.683 880.156 781.078 884.386 780.917C907.685 780.033 938.135 775.327 957.542 758.479C959.909 756.422 963.529 753.285 963.985 749.645Z" fill="#FEFEFE"/>
<path d="M954.795 775.427L956.667 775.314L957.114 776.063C956.405 777.912 955.134 779.066 953.776 780.231C940.55 791.569 918.513 799.358 902.162 796.068L900.843 795.106C903.851 791.633 914.816 791.357 919.124 790.365C930.293 787.796 945.256 782.808 954.795 775.427Z" fill="#211F20"/>
<path d="M963.684 571.045L964.489 572.49C964.683 579.618 966.245 591.447 964.12 598.145C964.033 598.536 964.023 598.716 963.781 599.072C959.026 606.187 936.193 614.926 928.266 617.277C896.894 626.59 847.804 626.672 817.12 613.714C807.223 609.535 799.245 603.623 790.33 597.266C790.483 596.944 790.635 596.665 790.736 596.317C791.845 592.526 790.853 586.708 789.32 583.291C792.527 585.296 795.407 589.108 798.422 591.678C800.417 593.376 802.643 594.539 804.578 596.337C808.189 597.858 815.575 601.586 819.134 599.868C818.4 598.8 792.979 582.2 789.924 580.479C790.088 580.096 790.213 579.698 790.325 579.289C791.03 576.693 790.793 574.164 789.771 571.76C795.183 573.947 800.348 577.022 805.731 579.359C815.964 583.802 826.744 586.42 837.494 588.375C873.334 594.891 914.846 593.995 949.07 578.934C953.902 576.805 959.501 574.686 963.684 571.045Z" fill="#FEFEFE"/>
<path d="M954.515 585.436L956.688 585.141L957.31 585.764C957.057 586.756 956.824 587.28 956.203 588.037C945.491 601.132 925.084 605.378 910.383 605.273L909.219 604.713C910.83 601.752 931.459 597.323 935.739 595.643C942.036 593.173 949.071 589.963 954.515 585.436Z" fill="#211F20"/>
<path d="M844.106 417.033L845.329 417.601C846.794 421.583 848.832 427.196 848.114 431.584C847.852 433.829 834.59 452.94 832.499 454.989C832.374 456.16 832.393 456.171 831.678 456.984C832.124 442.845 843.074 431.067 844.106 417.033Z" fill="#FEFEFE"/>
<path d="M440.033 390.677C437.206 387.517 435.427 384.071 434.172 379.725C431.523 370.548 430.424 345.391 434.324 336.871C436.431 332.265 440.877 330.073 444.947 328.832C459.931 324.26 489.45 323.782 502.841 333.082C505.576 341.603 506.916 351.652 506.863 360.708C506.804 370.544 506.625 379.679 500.389 386.945C501.122 400.614 500.834 414.622 504.103 427.882C510.47 453.705 530.462 474.474 536.192 503.679C540.541 525.849 538.462 551.084 538.319 573.732C538.166 597.717 538.372 621.939 537.287 645.886C536.616 660.693 534.793 675.616 535.098 690.447C535.361 703.296 538.09 714.883 540.019 727.392C541.824 739.091 542.289 750.361 541.68 762.209C552.579 759.393 566.664 757.257 577.2 762.204C565.332 763.208 554.039 766.357 542.023 766.523C541.486 770.276 541.001 773.89 539.825 777.449C538.344 779.664 537.974 781.934 537.492 784.633C536.649 787.738 535.243 790.482 533.892 793.304C541.456 792.415 549.064 792.075 556.638 791.295C567.768 790.148 577.052 788.516 588.401 789.434C569.094 792.688 547.377 800.333 528.314 801.126C525.356 803.664 522.337 806.118 518.957 807.807C509.24 812.66 500.174 811.317 490.661 806.798C485.344 811.013 479.961 814.377 473.646 815.935C460.206 819.251 450.64 814.871 439.61 806.265C435.336 806.753 430.975 807.403 426.677 807.153C417.708 806.633 408.717 802.424 402.708 794.299C395.915 785.114 394.127 771.893 393.446 760.092C392.803 748.976 393.669 737.171 395.471 726.223C397.001 716.93 399.088 708.411 399.274 698.841C399.533 685.606 398.28 672.285 397.811 659.063C397.232 642.718 397.875 626.313 397.527 609.947C396.739 572.914 393.165 535.392 400.879 499.036C410.304 454.613 437.52 444.507 440.033 390.677Z" fill="#211F20"/>
<path d="M408.328 529.988C434.454 540.218 458.817 542.245 486.085 539.773C500.442 538.473 512.802 536.568 526.552 531.16C526.662 544.053 526.272 651.836 524.305 656.323C519.719 658.979 514.988 661.199 510.111 662.983C478.324 674.758 438.757 669.985 409.358 651.806C408.686 639.863 409.801 627.833 409.593 615.863C409.096 587.146 407.787 558.738 408.328 529.988Z" fill="#F09350"/>
<path d="M520.39 586.582L520.696 586.798C519.635 591.871 515.123 597.646 512.19 601.327C505.923 609.193 481.305 634.973 474.229 640.456C473.948 639.87 473.797 639.105 473.614 638.464C476.742 627.201 510.808 595.366 520.39 586.582Z" fill="#211F20"/>
<path d="M518.704 541.141C519.111 541.682 519.159 542.001 519.054 542.732C517.696 552.143 481.943 589.833 474.117 596.001L473.541 595.244C475.158 584.709 510.845 549.053 518.704 541.141Z" fill="#211F20"/>
<path d="M517.451 566.211C517.959 566.744 517.881 566.989 518.022 567.752C511.76 579.591 484.632 607.238 474.82 614.949C474.38 614.44 474.199 613.819 473.935 613.17C475.835 604.163 509.149 572.989 517.451 566.211Z" fill="#211F20"/>
<path d="M517.541 616.022L517.982 616.646C517.882 616.947 517.788 617.252 517.681 617.551C514.488 626.455 483.602 656.273 475.381 659.922C475.066 659.33 474.981 658.769 474.834 658.097C478.325 648.473 509.181 622.329 517.541 616.022Z" fill="#211F20"/>
<path d="M495.918 543.168L496.419 543.338L496.685 544.381C494.01 551.315 485.14 563.198 479.834 567.653L479.141 567.258C479.08 566.669 479.027 566.188 479.159 565.605C481.03 557.282 490.264 547.969 495.918 543.168Z" fill="#211F20"/>
<path d="M517.823 634.762C517.907 636.083 517.401 637.102 516.782 638.188C513.937 643.176 507.706 652.957 502.767 654.049L502.688 652.186C505.964 645.396 512.799 639.794 517.823 634.762Z" fill="#040404"/>
<path d="M446.491 543.118C446.997 543.503 447.192 543.912 447.533 544.489L446.593 546.843C447.526 548.111 449.059 548.561 450.363 549.134L449.993 549.555L451.455 549.376C451.366 550.09 450.773 550.509 450.347 551.008C447.513 551.952 446.112 551.184 443.288 550.363L442.683 548.837C440.365 547.746 438.681 548.906 436.352 548.601L436.921 547.615C437.955 547.071 438.874 546.476 440.027 546.737C443.216 547.462 442.32 544.602 446.491 543.118Z" fill="#F9A064"/>
<path d="M410.613 666.326C429.711 680.499 464.076 686.62 486.25 682.854C483.34 685.657 479.679 688.78 477.537 692.421C476.991 693.347 476.944 693.187 477.101 694.35L478.63 695.116C486.002 694.367 491.153 685.421 497.575 682.09C500.897 680.367 505.097 679.594 508.619 678.464C513.83 676.792 518.601 674.597 523.489 671.899C522.734 683.875 522.884 695.75 524.357 707.648C525.327 715.478 527.198 723.134 528.49 730.895C531.016 746.08 531.209 764.17 526.868 778.803C526.094 780.766 525.2 782.649 524.187 784.452C519.151 793.368 510.395 797.781 501.525 795.299C497.402 794.145 492.024 790.874 487.808 791.833C482.902 792.948 477.013 800.76 468.912 802.449C458.302 804.662 450.834 797.958 442.67 791.061C438.056 791.061 433.394 792.206 428.765 792.456C422.644 792.786 417.383 790.838 412.875 785.771C401.86 773.392 404.407 745.95 407.055 729.744C408.418 721.401 410.635 713.122 411.344 704.649C412.395 692.066 410.959 678.957 410.613 666.326Z" fill="#FEFEFE"/>
<path d="M424.643 686.578C425.85 687.063 426.292 687.059 427.025 688.433C434.869 703.117 427.449 734.112 424.291 750.18C422.602 749.725 422.271 749.542 420.993 748.16C418.218 738.392 423.498 724.735 424.375 714.654C425.179 705.419 424.174 695.896 424.643 686.578Z" fill="#211F20"/>
<path d="M464.171 770.215C467.192 770.077 469.992 770.123 472.939 771.006C476.776 772.158 483.356 774.964 485.322 779.452C485.827 780.605 485.6 780.662 485.34 781.827C485.158 781.95 484.981 782.086 484.794 782.196C482.338 783.652 477.709 781.295 475.224 780.371C467.677 779.216 462.737 779.651 455.47 781.942C453.912 780.955 452.805 780.312 451.836 778.521C451.857 777.444 451.726 777.134 452.271 776.2C454.585 772.23 460.519 770.977 464.171 770.215Z" fill="#211F20"/>
<path d="M514.854 681.563L515.245 681.91C515.229 682.51 515.261 682.615 515.044 683.257C511.577 693.487 489.318 711.895 480.303 714.546C479.761 713.662 479.724 712.937 479.612 711.871C483.303 703.11 506.616 685.958 514.854 681.563Z" fill="#211F20"/>
<path d="M516.514 701.659L516.954 701.837L516.996 703.072C510.295 715.372 494.622 728.536 483.764 735.613C483.691 735.533 483.61 735.462 483.544 735.373C482.829 734.409 482.297 733.68 482.523 732.35C483.887 724.306 510.234 706.233 516.514 701.659Z" fill="#211F20"/>
<path d="M518.054 721.113C518.465 721.601 518.391 722.059 518.476 722.725C514.907 732.034 494.119 748.258 486.326 754.594C485.719 753.185 485.233 752.399 485.755 750.755C489.149 740.069 509.854 726.218 518.054 721.113Z" fill="#211F20"/>
<path d="M517.525 738.351L518.103 739.443C518.036 739.754 517.978 740.07 517.899 740.378C515.942 747.927 499.211 761.596 493.089 764.908L492.438 762.437C495.479 754.437 511.012 742.8 517.525 738.351Z" fill="#211F20"/>
<path d="M519.887 754.133C519.929 754.669 519.972 754.817 519.841 755.412C517.805 764.699 505.001 776.36 498.65 782.094C498.207 781.022 498.193 780.266 498.149 779.098C501.732 769.67 512.886 760.173 519.887 754.133Z" fill="#040404"/>
<path d="M423.529 769.723C428.3 771.805 433.107 776.912 435.808 782.028C436.959 784.208 436.935 785.611 436.456 788.068C432.382 785.438 427.847 780.098 424.978 775.806C423.472 773.553 423.23 772.52 423.529 769.723Z" fill="#040404"/>
<path d="M488.26 392.469L489.634 392.27C491.271 396.29 490.559 412.847 491.046 418.921C491.513 424.736 492.337 430.009 493.869 435.584C502.71 467.761 522.137 480.9 526.235 519.747C520.293 521.51 514.277 522.851 508.265 524.24C510.659 521.619 512.675 518.655 514.743 515.683C510.268 518.133 506.671 521.287 503.021 525.198C480.379 530.783 440.776 528.888 418.17 522.221C415.232 521.417 412.313 520.059 409.447 518.928C411.718 506.595 413.807 494.697 418.461 483.236C431.772 450.451 450.976 433.098 449.774 393.034C459.106 395.136 468.35 394.794 477.758 393.597C477.002 402.858 475.764 436.276 480.961 443.111C481.563 443.902 481.727 443.726 482.556 443.845C483.469 442.37 483.628 441.491 483.708 439.628C484.35 424.643 481.836 409.421 483.248 394.307C484.701 392.874 486.424 392.873 488.26 392.469Z" fill="#FEFEFE"/>
<path d="M447.573 452.328C448.573 453.395 448.925 454.382 449.008 455.945C449.599 466.995 438.391 484.251 433.767 493.913C432.211 497.165 430.557 500.807 429.675 504.407C428.516 509.139 429.084 517.192 426.322 520.752C425.577 519.256 425.159 517.841 424.806 516.167C420.798 497.195 432.824 483.84 440.441 469.234C443.235 463.877 444.833 457.759 447.573 452.328Z" fill="#211F20"/>
<path d="M510.799 487.292C511.166 487.996 511.145 487.7 511.051 488.542C510.187 496.24 485.196 515.945 478.999 521.177C478.965 521.128 478.924 521.083 478.897 521.027C478.433 520.104 478.041 519.491 478.322 518.433C480.214 511.312 504.497 491.602 510.799 487.292Z" fill="#211F20"/>
<path d="M506.398 474.935L507.088 475.613C504.773 482.659 488.531 495.078 482.701 499.327L481.966 497.946C482.046 497.36 482.038 497.22 482.199 496.703C484.484 489.347 500.318 478.447 506.398 474.935Z" fill="#211F20"/>
<path d="M513.751 502.98L514.274 503.671C514.185 504.153 514.154 504.444 514.001 504.883C511.555 511.939 498.306 523.075 492.372 525.846C492.094 525.29 491.933 524.562 491.745 523.952C494.262 516.312 507.785 506.943 513.751 502.98Z" fill="#211F20"/>
<path d="M499.196 464.079L500.153 464.226L500.164 465.382C495.872 471.369 489.66 475.759 484.241 480.174L483.146 479.095L483.071 477.666C485.893 471.767 494.157 467.096 499.196 464.079Z" fill="#040404"/>
<path d="M443.716 343.188C458.857 343.573 473.878 343.52 489.016 343.264C486.398 353.148 485.729 366.729 487.64 376.778C487.996 378.647 487.92 379.047 487.09 380.695C485.641 381.375 485.357 381.575 483.762 381.261C481.472 375.655 488.781 355.258 482.624 344.217L481.625 345.029C477.279 355.495 478.804 369.762 479.431 381.002C476.84 380.907 474.193 381.246 471.606 381.453C472.4 378.052 473.009 374.79 473.369 371.286C473.9 363.985 475.303 352.532 471.481 346.301L470.465 346.178C470.311 346.355 470.148 346.524 470.001 346.71C466.507 351.199 467.129 375.205 467.232 381.644L456.937 381.269C459.076 373.509 460.325 359.079 458.091 351.226C457.693 349.828 457.56 349.702 456.505 349.1C454.155 351.45 453.348 356.804 452.897 360.236C451.955 367.397 451.501 375.023 455.227 381.028C451.379 380.88 447.618 380.315 443.808 379.726C443.201 367.413 442.49 355.487 443.716 343.188Z" fill="#FEFEFE"/>
<path d="M492.586 342.14C493.507 342.462 493.94 342.964 494.627 343.743C497.499 353.286 495.87 366.223 495.507 376.196C494.402 376.426 493.953 376.426 492.929 375.864C492.016 370.221 493.041 363.553 493.233 357.803C493.41 352.48 493.143 347.423 492.586 342.14Z" fill="#FEFEFE"/>
<path d="M557.871 139.692C559.351 139.996 560.783 140.275 562.047 141.303C563.957 142.857 565.674 145.498 566.364 148.132C568.78 157.366 568.095 169.359 569.022 179.062C569.768 186.854 571.422 194.559 572.771 202.227C573.863 208.437 577.154 228.368 574.081 233.217C573.027 234.88 570.578 236.71 568.797 236.895C567.522 237.028 566.6 236.507 565.68 235.525C561.896 231.479 562.182 219.343 561.748 213.779C557.782 213.665 553.792 213.743 549.823 213.729L542.138 213.847C540.606 219.313 538.844 229.762 534.155 232.472C532.936 233.176 531.384 233.571 530.086 232.944C528.915 232.378 528.344 231.499 527.878 230.128C526.912 227.28 528.669 221.978 529.371 219.061C532.354 206.649 536.872 194.812 540.181 182.521C543.329 170.833 544.768 156.642 549.695 145.885C551.462 142.027 554.538 140.749 557.871 139.692Z" fill="#211F20"/>
<path d="M556.144 168.33L556.652 169.184C556.965 172.27 556.73 175.44 557.126 178.462C557.895 184.327 560.934 193.136 559.684 198.879C556.741 199.903 553.194 199.487 550.126 199.469C548.603 199.488 547.861 199.743 546.559 198.752C547.771 190.728 553.537 176.457 556.144 168.33Z" fill="#FEFEFE"/>
<path d="M378.119 154.246C383.619 153.397 389.94 154.248 394.787 157.623C399.391 160.829 402.317 166.329 403.534 172.416C405.01 179.795 403.645 186.94 400.309 193.316C394.972 203.517 387.262 208.76 377.622 211.487C378.239 219.593 379.816 227.553 379.914 235.712C379.929 237.605 380.193 240.344 379.455 242.048C378.948 243.22 377.779 244.217 376.687 244.511C375.268 244.892 372.517 244.81 371.305 243.798C369.588 242.365 369.155 238.082 368.743 235.73C367.18 226.794 356.881 163.598 358.782 160.452C361.798 155.461 373.176 155.053 378.119 154.246Z" fill="#211F20"/>
<path d="M381.226 167.816C381.908 167.882 382.566 167.948 383.236 168.116C386.109 168.837 388.977 170.655 390.504 173.737C391.788 176.327 391.911 179.347 391.29 182.211C390.163 187.405 387.213 190.432 383.512 193.072C380.934 194.463 378.056 195.177 375.322 196.034C373.868 187.668 373.379 178.726 373.172 170.19C375.809 169.247 378.546 168.579 381.226 167.816Z" fill="#FEFEFE"/>
<path d="M335.411 156.289C337.815 156.226 340.249 156.174 342.542 157.177C344.372 157.978 346.3 159.608 347.049 161.823C347.672 163.666 347.442 165.542 346.788 167.316C342.885 177.9 335.951 170.649 329.363 174.294C327.137 175.525 325.73 177.916 324.914 180.598C324.129 183.181 325.475 185.708 326.836 187.692C335.597 200.478 351.248 207.884 356.988 223.826C359.002 229.422 358.76 235.544 356.794 241.105C354.896 246.473 351.806 250.033 347.247 252.16C338.066 256.443 327.468 255.075 318.581 250.576C317.029 249.505 315.25 248.207 313.958 246.711C312.232 244.712 310.795 240.213 310.904 237.384C310.967 235.788 311.349 234.792 312.335 233.754C317.616 228.205 329.855 240.256 336.166 240.329C338.659 240.357 342.763 238.998 344.365 236.709C345.154 235.579 345.407 234.198 345.27 232.762C344.24 221.999 328.409 210.871 321.819 204.565C313.337 196.447 311.424 195.577 310.247 182.375C310.927 180.436 311.619 178.464 312.49 176.634C317.621 165.849 325.59 159.652 335.411 156.289Z" fill="#211F20"/>
<path d="M432.199 146.375C435.984 146.015 441.017 145.037 444.512 147.322C446.074 148.343 447.213 150.516 447.529 152.577C447.792 154.289 447.313 156.248 446.475 157.647C442.68 163.985 427.917 164.171 421.789 165.181C422.862 172.917 422.756 181.031 423.389 188.862C427.904 189.022 434.982 186.786 439.102 188.194C440.417 188.643 440.462 189.325 441.019 190.635C441.106 193.084 440.82 195.28 439.58 197.324C437.555 200.658 428.757 201.301 425.427 201.999C425.308 209.007 426.071 215.587 426.876 222.521C433.773 222.491 440.394 220.304 447.239 220.263C447.402 220.316 447.568 220.358 447.727 220.424C449.562 221.178 452.637 223.432 453.489 225.647C453.884 226.673 453.793 227.678 453.441 228.694C452.643 230.994 450.335 232.63 448.492 233.618C444.241 235.896 421.462 239.709 417.326 237.837C414.308 232.878 412.038 189.018 410.773 178.951C410.106 173.646 408.45 168.781 407.732 163.518C407.256 160.016 407.381 156.085 409.294 153.176C413.598 146.629 425.708 147.044 432.199 146.375Z" fill="#211F20"/>
<path d="M476.55 141.76C480.139 141.579 483.683 141.743 486.841 144.039C489.944 146.295 492.208 150.86 493.1 154.982C493.66 157.57 493.856 160.753 492.505 163.055C491.351 165.021 489.636 166.556 487.672 167.097C483.008 166.66 482.485 161.496 479.341 158.631C478.516 157.88 478.002 157.883 477.018 158.072C474.971 158.465 473.406 160.496 472.335 162.468C466.739 172.782 464.26 192.578 466.543 204.745C467.327 208.918 469.109 214.79 472.407 217.026C477.045 220.173 481.72 214.614 486.09 213.25C488.754 212.419 490.696 213.137 493.004 214.667L493.539 215.026C494.485 216.782 495.05 218.87 494.633 220.96C494.032 223.972 491.674 226.112 489.492 227.528C483.521 231.403 475.735 232.06 469.274 229.684C463.646 227.614 459.585 223.247 456.958 217.04C450.398 201.54 452.006 184.421 456.642 168.537C460.429 155.558 466.265 147.667 476.55 141.76Z" fill="#211F20"/>
<path d="M601.27 143.216C602.886 143.695 604.919 144.609 606.002 146.166C610.688 152.902 600.285 212.748 598.886 225.788C606.289 228.248 614.502 228.595 621.657 231.427C624.012 232.36 625.492 233.647 626.602 236.284C626.86 238.544 626.365 239.901 625.577 241.939C623.985 243.453 622.81 243.462 620.838 243.855C619.163 243.926 617.49 243.926 615.816 243.853C607.254 243.447 593.004 242.493 586.865 234.684C586.134 232.154 586.57 229.026 586.819 226.405C588.174 212.181 590.845 198.212 592.453 184.049C593.521 174.633 593.362 157.046 595.956 148.93C596.964 145.777 598.891 144.615 601.27 143.216Z" fill="#211F20"/>
<path d="M334.299 292.61C342.471 293.458 370.737 317.907 379.096 324.263C385.302 328.981 394.278 333.469 399.291 339.91C400.079 340.924 400.353 342.308 400.294 343.668C400.178 346.365 398.276 348.234 396.761 349.99C396.514 349.995 396.266 350.008 396.02 350.004C393.244 349.963 390.655 349.426 388.099 348.127C378.029 343.008 339.868 314.162 332.981 304.966C331.749 303.323 330.591 300.907 330.852 298.613C331.169 295.818 332.578 294.288 334.299 292.61Z" fill="#F09350"/>
<path d="M602.543 301.534C603.875 301.695 605.225 301.912 606.528 302.283C608.115 302.734 608.909 303.684 609.719 305.316C610.371 306.627 610.661 308.025 610.207 309.529C606.972 320.249 555.913 342.779 544.574 348.945C543.673 348.998 542.689 349.075 541.8 348.869C540.478 348.561 539.003 347.417 538.252 346.087C537.235 344.286 537.238 341.715 537.73 339.698C539.554 332.24 581.352 313.466 589.064 309.463C593.643 307.026 598.136 304.383 602.543 301.534Z" fill="#F09350"/>
<path d="M512.816 135.369C513.357 135.254 513.899 135.146 514.446 135.078C516.376 134.839 517.641 135.1 519.163 136.547C522.899 143.098 518.723 207.661 517.918 220.807C517.556 226.711 517.269 228.403 513.486 232.291C513.216 232.286 512.945 232.299 512.675 232.279C510.8 232.144 509.13 231.227 508.017 229.406C506.56 227.026 506.674 223.137 506.573 220.313C506.118 207.696 507.349 194.902 507.524 182.277C507.673 171.503 506.298 152.778 507.956 142.888C508.564 139.262 510.441 137.409 512.816 135.369Z" fill="#211F20"/>
<path d="M319.492 367.082C319.606 367.085 319.721 367.084 319.835 367.09C320.026 367.099 320.217 367.115 320.408 367.126C320.792 367.145 321.177 367.156 321.56 367.187C329.235 367.81 345.365 373.865 353.564 376.152C363.636 378.962 374.096 380.503 383.936 384.331C386.53 385.34 389.313 386.372 391.102 388.973C392.051 390.353 392.675 391.888 392.404 393.707C392.025 396.252 390.279 397.622 388.644 399.025C387.645 399.32 386.624 399.564 385.587 399.487C378.559 398.964 363.59 392.97 355.666 390.741C346.096 388.051 335.698 386.789 326.453 382.908C323.267 381.571 319.391 379.39 317.247 376.175C316.183 374.58 315.975 373.347 316.1 371.367C316.824 369.164 317.861 368.35 319.492 367.082Z" fill="#F09350"/>
<path d="M636.543 706.502C645.674 708.395 654.851 713.128 664.02 715.528C680.946 719.958 698.54 722.298 715.689 725.405C720.809 726.332 761.786 734.541 763.904 735.742L762.765 736.952C760.428 738.506 755.843 738.539 753.223 738.541C741.814 738.551 730.003 735.533 718.719 733.52C696.864 729.62 673.387 727.155 652.561 718.063C646.438 715.39 641.188 711.962 636.543 706.502Z" fill="#211F20"/>
<path d="M550.756 383.09C560.368 381.542 572.55 383.031 582.224 384.331C586.434 384.897 595.595 386.083 598.171 390.565C598.697 391.481 598.521 391.524 598.403 392.528C595.748 395.541 591.234 395.467 587.739 395.88C579.373 397.891 550.568 399.016 543.208 394.743C541.029 393.478 540.156 392.376 539.429 389.753C539.611 389.085 539.766 388.451 540.132 387.883C542.383 384.396 547.394 383.764 550.756 383.09Z" fill="#F09350"/>
<path d="M405.174 260.422C405.566 260.6 405.958 260.775 406.341 260.976C411.383 263.639 423.901 290.582 426.224 297.589C427.164 300.422 427.793 303.141 426.729 306.055C425.089 307.795 424.304 307.843 422.205 308.303C422.069 308.248 421.933 308.198 421.799 308.141C413.912 304.842 404.207 284.072 400.664 274.97C399.613 272.268 398.031 267.945 399.061 265.005C400.025 262.255 403.001 261.307 405.174 260.422Z" fill="#F09350"/>
<path d="M786.755 461.646C787.545 461.802 787.486 461.719 788.187 462.379C783.479 477.414 767.222 493.127 756.76 502.452C746.089 511.965 719.245 532.341 705.675 530.043L704.856 529.583C705.028 527.093 710.879 524.778 712.674 523.805C739.822 509.084 767.579 489.395 786.755 461.646Z" fill="#211F20"/>
<path d="M386.381 433.443C388.006 433.284 390.29 433.028 391.795 433.826C392.949 434.438 392.952 434.818 393.354 436.129C393.24 436.598 393.103 437.667 392.888 438.028C391.226 440.817 359.112 462.4 353.288 467.764C351.541 467.905 350.298 467.829 348.639 467.141C347.427 465.968 347.017 465.199 346.633 463.401C346.83 461.557 347.236 460.233 348.191 458.739C353.31 450.734 377.971 434.966 386.381 433.443Z" fill="#F09350"/>
<path d="M539.681 263.378C540.203 263.403 540.414 263.398 540.974 263.514C542.718 263.878 543.021 264.266 544.008 265.872C544.162 267.223 544.15 268.385 543.771 269.69C541.017 279.186 522.189 303.258 514.307 307.94C512.694 307.443 511.388 306.798 509.933 305.835C509.495 305.034 508.993 304.53 509.034 303.54C509.315 296.553 534.288 268.487 539.681 263.378Z" fill="#F09350"/>
<path d="M467.431 253.109C469.271 253.542 471.249 254.282 472.546 255.987C472.756 256.264 473.438 257.152 473.524 257.518C474.064 259.841 475.959 285.747 475.923 289.273C475.076 291.649 473.78 292.637 472.07 294.053C470.294 293.779 468.746 293.236 467.551 291.54C463.772 286.187 462.42 267.756 463.142 260.868C463.558 256.895 464.885 255.401 467.431 253.109Z" fill="#F09350"/>
<path d="M627.698 283.378C627.919 283.426 628.14 283.466 628.358 283.52C635.036 285.159 663.72 305.449 667.34 312.206C667.279 314.224 666.705 314.523 665.603 316.001C661.234 314.937 643.433 303.333 638.141 300.163C633.736 297.524 627.68 293.779 626.05 287.866C626.24 285.651 626.575 285.206 627.698 283.378Z" fill="#F09350"/>
<path d="M543.663 429.445C552.06 430.991 571.098 446.091 576.458 454.17C576.837 456.065 576.701 456.261 576.138 457.997C574.143 457.962 572.195 457.659 570.286 456.954C562.781 454.18 546.852 444.551 543.263 435.972C542.235 433.518 542.895 431.849 543.663 429.445Z" fill="#F09350"/>
<path d="M705.292 486.766L706.367 487.373C703.873 500.658 675.751 526.174 666.724 536.346C663.281 540.226 660.891 545.224 657.124 548.715C656.776 547.788 656.491 546.822 656.186 545.875C657.098 541.763 660.148 537.699 662.538 534.612C668.098 527.437 674.617 521.105 680.686 514.528C689.062 505.452 697.209 496.204 705.292 486.766Z" fill="#211F20"/>
<path d="M539.826 777.449C555.585 775.912 581.868 771.387 596.608 774.39C579.508 776.552 553.342 786.7 537.493 784.633C537.975 781.935 538.345 779.665 539.826 777.449Z" fill="#211F20"/>
<path d="M703.553 377.931C704.406 377.809 705.158 377.749 706.007 377.956C712.042 379.433 732.723 392.109 735.943 398.217L735.015 399.779C726.253 399.492 712.515 390.689 705.761 383.922C703.77 381.926 703.756 380.831 703.553 377.931Z" fill="#211F20"/>
<path d="M690.163 477.028C690.174 477.102 690.195 477.173 690.194 477.248C690.12 483.008 669.648 505.37 665.396 510.831C661.531 515.795 658.202 521.579 653.995 526.114C653.662 525.095 653.206 524.241 653.354 523.138C654.536 514.313 682.955 482.785 690.163 477.028Z" fill="#040404"/>
<path d="M791.488 397.146C797.52 398.044 819.944 404.647 823.221 409.575C810.978 410.921 799.251 407.543 787.285 404.89L788.05 403.53C789.431 403.449 790.135 403.061 791.31 402.219C791.79 400.326 791.73 399.092 791.488 397.146Z" fill="url(#paint2_linear_114_1012)"/>
<path d="M678.565 378.342C682.291 379.12 685.966 380.726 689.402 382.581C694.246 385.195 707.883 392.729 709.727 398.532L709.004 399.785C708.794 399.776 708.586 399.774 708.377 399.758C702.906 399.365 682.044 387.648 678.809 382.596C677.96 381.269 678.415 379.884 678.565 378.342Z" fill="#211F20"/>
<path d="M773.464 399.452C773.158 399.38 772.858 399.321 772.561 399.214C767.567 397.429 757.924 390.124 755.558 384.518C754.983 383.157 755.115 382.892 755.516 381.555C759.675 382.203 773.458 388.326 776.816 391.581C777.473 393.597 777.778 394.134 777.456 396.316C776.217 397.698 774.966 398.523 773.464 399.452Z" fill="#211F20"/>
<path d="M730.337 381.033C733.127 380.386 735.18 381.534 737.669 382.829C743.113 385.661 754.299 391.158 756.36 398.061C756.775 399.453 756.324 399.888 755.808 401.159C750.721 398.642 745.54 395.881 740.729 392.691C736.545 389.914 731.709 386.843 730.337 381.033Z" fill="#211F20"/>
<path d="M555.916 804.164C561.348 803.356 567.256 804.062 572.74 804.263C561.613 807.432 550.558 808.663 539.313 810.849C533.142 811.857 528.027 811.561 521.952 810.281C533.204 806.287 544.271 805.168 555.916 804.164Z" fill="#211F20"/>
<path d="M730.221 681.852L732.664 681.857C728.616 688.784 716.93 696.091 710.917 701.459C707.42 704.581 704.241 708.079 701.078 711.662C700.765 711.616 700.325 711.237 700.044 711.053C699.993 710.515 699.946 710.31 699.983 709.806C700.522 702.556 715.132 691.939 720.369 688.44C723.287 686.491 727.025 684.883 729.619 682.437C729.822 682.246 730.02 682.048 730.221 681.852Z" fill="#211F20"/>
<path d="M713.458 664.548L714.741 664.935C714.182 668.068 708.55 671.321 706.435 672.931C694.088 682.33 690.01 691.114 679.869 702.132L679.195 701.081C679.238 700.411 679.223 700.216 679.349 699.609C680.859 692.253 694.077 678.982 699.463 674.628C703.967 670.988 708.872 668.058 713.458 664.548Z" fill="#040404"/>
<path d="M776.816 391.58C779.939 392.453 786.644 394.123 788.988 396.48C789.811 396.666 790.711 396.774 791.487 397.147C791.73 399.092 791.789 400.327 791.31 402.22C790.135 403.062 789.43 403.45 788.049 403.531L787.285 404.891C784.638 403.569 781.677 403.034 778.874 402.335C777.262 400.939 775.323 400.263 773.465 399.452C774.967 398.522 776.218 397.698 777.457 396.316C777.779 394.133 777.473 393.597 776.816 391.58Z" fill="#3A3939"/>
<path d="M743.236 696.976L744.261 697.204L744.394 697.868C741.936 700.667 738.244 701.909 735.393 704.188C730.035 708.469 724.645 715.806 718.455 718.12L718.012 716.816C721.6 708.035 735.919 700.665 743.236 696.976Z" fill="#040404"/>
<path d="M984.497 777.259C990.833 775.941 997.316 775.945 1003.71 775.155C999.586 778.845 991.561 780.065 986.418 780.202L986.195 779.72C986.768 779.312 987.311 778.905 987.864 778.449C986.826 778.467 986.011 778.495 985.108 777.776C984.895 777.61 984.701 777.432 984.497 777.259Z" fill="#040404"/>
</g>
<defs>
<linearGradient id="paint0_linear_114_1012" x1="248.662" y1="634.691" x2="246.681" y2="706.01" gradientUnits="userSpaceOnUse">
<stop stop-color="#0B0A0E"/>
<stop offset="1" stop-color="#252522"/>
</linearGradient>
<linearGradient id="paint1_linear_114_1012" x1="258.569" y1="663.578" x2="252.675" y2="717.981" gradientUnits="userSpaceOnUse">
<stop stop-color="#000002"/>
<stop offset="1" stop-color="#2C2D29"/>
</linearGradient>
<linearGradient id="paint2_linear_114_1012" x1="819.725" y1="406.372" x2="791.607" y2="403.45" gradientUnits="userSpaceOnUse">
<stop stop-color="#1E1C1C"/>
<stop offset="1" stop-color="#3A393A"/>
</linearGradient>
<clipPath id="clip0_114_1012">
<rect width="1024" height="1024" fill="white"/>
</clipPath>
</defs>
</svg>
