<svg width="1024" height="1024" viewBox="0 0 1024 1024" fill="none" xmlns="http://www.w3.org/2000/svg">
<g clip-path="url(#clip0_81_122)">
<rect width="1024" height="1024" fill="#DF7B39"/>
<path d="M0 0H1024V138.15V143.816V155.311V164.979V220.229V230.102V344.514V359.141V374.519V383.95V402.965V438.907V451.605V456.988V472.115V476.23V489.301V491.573V1024H0V884.334V873.16V0Z" fill="#FEFEFE"/>
<path d="M0 0H1024V138.15C1007.61 133.066 991.35 128.588 974.566 124.919C960.495 121.844 946.33 119.548 932.374 115.933C903.589 108.475 875.513 99.0223 846.508 92.3331C833.894 89.424 821.131 86.6602 808.185 85.7977C793.233 84.8016 776.186 87.0407 762.781 94.0741C749.199 101.201 738.644 113.6 729.978 125.978C725.662 132.143 721.569 138.447 718.063 145.114C712.124 156.409 707.338 168.08 700.915 179.169L593.392 364.277C585.77 377.122 577.899 389.904 570.554 402.907C565.298 412.21 560.551 422.694 554.23 431.271C546.669 431.396 539.15 431.6 531.615 432.265C524.253 432.913 516.842 434.016 509.462 434.344C503.009 434.631 496.555 433.26 490.079 433.503C469.957 434.261 455.185 449.49 441.254 462.353C430.292 456.854 412.511 457.318 401.134 461.23C400.369 461.493 399.63 461.791 398.883 462.1C389.873 453.298 380.822 450.09 368.249 450.158C351.42 450.249 334.878 457.649 322.719 469.098C307.318 466.538 289.97 470.694 277.31 479.808C270.187 484.936 264.392 491.851 259.193 498.854C247.946 496.88 240.149 501.288 231.131 507.67C219.387 515.982 210.665 528.083 203.841 540.589C202.753 542.583 200.974 545.109 200.433 547.268C200.157 548.369 200.545 549.492 200.709 550.578C200.922 552.001 198.555 554.628 197.714 555.851C192.743 563.08 188.408 570.04 184.862 578.083C178.663 592.145 174.439 607.132 168.94 621.484C166.399 628.119 163.181 634.608 160.175 641.047C153.543 655.186 146.429 669.079 138.834 682.725C131.239 696.371 123.18 709.737 114.657 722.824C102.75 740.742 89.636 757.87 76.8512 775.154C63.9232 792.631 51.3569 810.437 37.7172 827.381C30.7145 836.146 23.591 844.811 16.3467 853.377C10.8495 859.803 4.66659 866.112 0 873.16V0Z" fill="#FEFEFE"/>
<path d="M461.287 129.708C468.823 128.5 479.326 128.784 485.849 132.987C486.126 133.164 486.397 133.349 486.664 133.54C486.931 133.732 487.192 133.93 487.449 134.135C487.706 134.34 487.957 134.551 488.203 134.769C488.449 134.987 488.689 135.211 488.923 135.441C489.158 135.672 489.386 135.908 489.608 136.15C489.83 136.392 490.046 136.64 490.255 136.893C490.464 137.146 490.667 137.404 490.863 137.668C491.059 137.931 491.248 138.2 491.43 138.473C491.612 138.746 491.787 139.024 491.955 139.307C492.123 139.589 492.283 139.875 492.436 140.166C492.589 140.457 492.735 140.751 492.873 141.049C493.011 141.348 493.141 141.649 493.263 141.954C493.386 142.259 493.5 142.566 493.606 142.877C493.713 143.188 493.811 143.501 493.902 143.817C493.992 144.133 494.074 144.451 494.148 144.771C494.222 145.091 494.288 145.413 494.345 145.736C495.174 150.414 494.392 155.523 491.458 159.357C488.106 163.736 482.865 165.566 477.606 166.375C474.593 166.863 471.542 166.959 468.498 167.119L468.552 175.58C463.392 176.184 458.189 176.602 453.017 177.107C453.224 161.616 452.894 146.124 453.215 130.634C455.868 130.156 458.604 129.98 461.287 129.708Z" fill="#FEFEFE"/>
<path d="M590.295 510.343C591.013 510.316 591.553 510.354 592.207 510.684C598.237 513.73 605.167 515.581 611.591 517.663C626.025 522.339 640.633 526.442 655.061 531.108C693.433 543.91 731.713 556.981 769.902 570.32C777.288 572.925 800.72 580.378 805.574 583.896C806.1 584.277 806.982 584.925 806.979 585.622C806.971 587.318 784.448 623.31 782.009 625.957C781.138 626.356 779.985 626.69 779.013 626.573C774.499 626.029 767.507 622.17 763.102 620.448C753.14 616.593 743.133 612.857 733.082 609.24C710.5 601.184 687.866 593.277 665.181 585.52C639.354 576.818 613.387 568.477 587.868 558.892C582.525 556.885 569.583 552.968 566.109 548.888C566.763 544.584 586.717 513.148 590.295 510.343Z" fill="#231F20"/>
<path d="M592.362 517.914C599.176 520.193 605.753 523.249 612.57 525.586L734.69 567.488C746.543 571.711 758.422 575.856 770.328 579.925C778.942 582.808 788.644 585.142 796.653 589.388C789.919 598.458 784.732 608.473 778.434 617.823C775.665 618.418 732.822 600.736 725.288 597.901C690.543 584.827 654.922 573.577 619.732 561.744C604.639 556.669 589.29 552.302 574.561 546.206C580.816 536.978 586.75 527.547 592.362 517.914Z" fill="#F2AF61"/>
<path d="M697.317 445.503C706.226 446.3 717.246 450.667 726.209 453.045C757.823 461.432 789.603 470.938 820.508 481.668C836.974 487.385 853.144 493.791 869.477 499.859C874.104 501.579 888.81 505.826 891.491 508.583C892.298 513.758 881.123 530.869 877.701 535.768C876.135 538.01 875.086 539.27 872.345 539.764C863.971 537.19 855.872 533.352 847.642 530.311C839.812 527.419 831.826 524.93 824.034 521.942C806.458 515.201 789.123 508.02 771.306 501.895C750.69 494.807 729.339 489.35 708.476 482.939C701.093 480.67 693.331 478.706 686.17 475.817C683.718 474.827 678.68 472.735 677.874 470.117C677.347 468.405 677.885 466.704 678.648 465.156C681.78 458.804 690.652 447.608 697.317 445.503Z" fill="#231F20"/>
<path d="M696.594 452.951C706.882 454.893 717.219 458.351 727.305 461.183C761.804 470.87 795.587 482.837 829.485 494.406C846.285 500.14 866.559 505.143 882.241 513.132C878.967 519.383 875.355 525.351 872.337 531.745C864.82 528.942 857.472 525.304 850.06 522.201C833.94 515.454 817.607 508.943 800.998 503.5C762.776 490.975 723.064 482.034 685.519 467.564C689.371 462.835 692.946 457.839 696.594 452.951Z" fill="#F2AF61"/>
<path d="M777.422 413.99C777.734 414.089 778.067 414.138 778.359 414.287C779.009 414.62 779.593 415.557 779.836 416.21C780.913 419.107 778.846 423.213 777.419 425.656C775.057 429.698 772.441 432.683 767.799 433.805C767.569 433.692 767.334 433.589 767.11 433.466C765.776 432.733 764.901 431.84 764.491 430.337C763.86 428.027 764.693 425.632 765.82 423.626C768.451 418.939 772.287 415.524 777.422 413.99Z" fill="#FEFEFE"/>
<path d="M876.56 464.016C877.514 463.959 877.716 463.978 878.652 464.35L878.797 465.461C877.974 466.943 877.32 467.642 875.992 468.699C874.611 467.886 873.414 467.201 872.906 465.662C874.04 464.476 874.997 464.44 876.56 464.016Z" fill="#FEFEFE"/>
<path d="M720.717 402.518C721.212 402.498 721.708 402.489 722.203 402.492C723.805 402.506 724.931 402.678 726.042 403.948C726.687 404.686 726.896 405.863 726.78 406.83C726.151 412.078 720.303 417.52 716.219 420.492C715.347 420.503 714.378 420.562 713.52 420.406C712.112 420.151 711.542 419.421 710.69 418.367C710.449 417.256 710.36 416.46 710.648 415.343C711.916 410.409 716.5 405.119 720.717 402.518Z" fill="#FEFEFE"/>
<path d="M753.952 679.021C755.134 678.955 755.692 679.006 756.748 679.552C757.505 680.733 757.562 680.851 757.535 682.248C754.55 688.101 736.535 694.806 730.344 698.244C726.689 700.273 724.756 703.27 723.702 707.331C721.279 716.671 725.632 723.645 732.253 729.8C734.207 731.616 736.754 733.6 738.029 735.99C738.486 736.846 738.613 737.818 738.265 738.737C737.669 740.31 736.247 740.976 734.874 741.744C734.116 741.632 733.418 741.537 732.711 741.217C726.276 738.308 720.099 730.748 717.492 724.305C714.562 717.062 714.974 707.629 718.051 700.469C723.133 688.643 742.881 683.357 753.952 679.021Z" fill="#231F20"/>
<path d="M676.008 653.436C677.064 653.409 677.031 653.504 677.891 653.987L678.012 655.082C675.102 663.131 663.929 668.375 657.207 672.734C653.515 675.127 649.915 677.68 646.315 680.209C648.385 690.013 653.27 698.247 656.846 707.451C657.455 709.019 658.143 710.58 657.16 712.176C656.089 713.915 654.146 714.447 652.276 714.78C649.339 712.454 647.484 708.989 645.8 705.693C642.102 698.46 635.817 684.699 638.874 676.457C641.799 668.573 667.535 657.612 676.008 653.436Z" fill="#231F20"/>
<path d="M711.03 667.519C711.386 667.665 711.889 667.845 712.182 668.088C713.184 668.918 713.15 669.507 713.229 670.691C710.254 676.006 688.783 684.515 682.242 687.658C680.916 689.879 679.769 692.178 679.624 694.81C679.032 705.548 688.824 713.907 695.03 721.334C696.383 722.952 696.884 723.81 696.704 725.927C695.767 727.376 695.099 727.854 693.543 728.579C692.846 728.378 692.17 728.155 691.521 727.825C683.896 723.945 676.189 713.513 673.597 705.411C671.768 699.693 671.242 692.891 674.248 687.485C678.293 680.214 702.825 669.995 711.03 667.519Z" fill="#231F20"/>
<path d="M789.405 698.429C790.257 698.379 791.148 698.455 792.003 698.475C793.273 699.231 793.542 699.317 794.194 700.619C793.172 706.621 773.101 714.002 768.312 719.843C767.192 721.208 766.571 722.746 766.774 724.529C767.586 731.643 781.953 743.956 787.513 748.201C786.93 749.948 786.167 751.622 785.436 753.31C784.2 753.631 783.067 753.874 781.78 753.718C776.593 753.088 766.363 739.775 763.687 735.443C760.818 730.8 759.443 725.69 760.852 720.3C763.674 709.51 780.549 703.372 789.405 698.429Z" fill="#231F20"/>
<path d="M634.03 643.345L635.244 643.384C636.284 643.996 636.66 644.344 637.205 645.424C636.672 649.236 621.559 658.156 617.88 660.965C614.998 663.166 612.383 665.499 609.953 668.19C611.623 674.791 614.58 681.006 617.62 687.068C618.933 689.687 620.8 692.661 621.612 695.468C621.96 696.671 621.64 697.323 621.32 698.5C619.974 699.634 619.015 699.647 617.312 699.995C614.679 698.374 613.05 695.751 611.473 693.156C607.349 686.368 600.701 674.014 602.962 665.789C605.379 656.997 625.985 647.901 634.03 643.345Z" fill="#231F20"/>
<path d="M887.923 296.955L888.853 296.978L889.285 297.628C887.54 300.433 843.336 332.2 837.237 335.663C837.06 335.572 836.865 335.511 836.707 335.39C835.603 334.54 835.703 334.149 835.686 332.87C841.331 321.181 875.37 302.499 887.923 296.955Z" fill="#231F20"/>
<path d="M904.836 301.961L905.492 302.179L905.849 302.939C900.897 310.381 862.306 335.039 852.694 340.526L851.952 339.74C851.75 338.745 851.644 338.346 852.052 337.364C855.451 329.185 895.134 306.193 904.836 301.961Z" fill="#231F20"/>
<path d="M854.445 302.338L856.283 302.504L856.909 303.287C856.863 303.953 856.9 303.971 856.632 304.7C854.513 310.477 821.75 335.706 815.688 338.695L814.472 338.478C813.438 337.623 813.475 337.612 813.225 336.287C813.853 334.252 814.947 333.081 816.437 331.587C822.643 325.362 830.769 320.194 837.85 315.001C843.463 310.884 848.838 306.464 854.445 302.338Z" fill="#231F20"/>
<path d="M554.23 431.271C560.551 422.694 565.298 412.21 570.554 402.907C577.899 389.904 585.77 377.122 593.392 364.277L700.915 179.169C707.338 168.08 712.124 156.409 718.063 145.114C721.569 138.447 725.662 132.143 729.978 125.978C738.644 113.6 749.199 101.201 762.781 94.0741C776.186 87.0407 793.233 84.8016 808.185 85.7977C821.131 86.6602 833.894 89.424 846.508 92.3331C875.513 99.0223 903.589 108.475 932.374 115.933C946.33 119.548 960.495 121.844 974.566 124.919C991.35 128.588 1007.61 133.066 1024 138.15V143.816V155.311V164.979V220.229V230.102C1011.35 226.197 998.534 223.294 985.759 219.902C974.801 216.992 963.979 213.474 952.916 210.98C936.003 207.168 918.792 204.328 901.989 200.092C889.848 197.032 877.92 193.204 865.82 189.999C840.116 183.394 814.3 177.26 788.373 171.597C771.894 168.076 755.434 164.489 738.737 162.135C727.336 182.934 715.595 203.541 703.516 223.954C697.82 233.63 691.745 243.079 686.123 252.799L657.723 302.007C653.795 308.825 650.108 315.83 646.025 322.553C641.312 330.314 635.432 337.376 630.533 345.024C619.149 362.793 609.081 381.603 598.554 399.897C592.509 410.401 585.467 420.775 579.968 431.524C588.626 431.547 597.267 431.617 605.838 430.178C619.444 427.894 637.511 417.4 649.515 429.916C653.86 434.446 654.51 439.953 654.214 445.918C653.62 457.92 649.044 469.227 640.032 477.337C635.488 481.426 630.294 484.037 624.534 485.991C613.277 489.81 600.848 491.094 589.211 493.671C571.908 497.504 553.616 503.498 536.036 505.156C526.653 522.881 516.113 539.91 506.454 557.48L485.516 595.756C481.461 603.253 477.733 610.913 473.387 618.251C495.884 604.152 531.055 581.37 558.282 587.584C566.222 589.396 572.618 593.815 576.943 600.722C577.262 601.225 577.567 601.736 577.86 602.255C578.153 602.774 578.433 603.299 578.7 603.831C578.967 604.364 579.22 604.903 579.461 605.448C579.701 605.993 579.927 606.543 580.14 607.1C580.353 607.656 580.552 608.217 580.737 608.783C580.922 609.35 581.092 609.92 581.249 610.495C581.405 611.07 581.547 611.648 581.675 612.229C581.803 612.811 581.916 613.396 582.015 613.983C582.114 614.57 582.198 615.16 582.267 615.751C582.336 616.343 582.391 616.936 582.431 617.53C582.471 618.124 582.496 618.719 582.506 619.315C582.517 619.91 582.512 620.506 582.493 621.101C582.474 621.696 582.44 622.291 582.391 622.884C582.342 623.478 582.279 624.07 582.2 624.66C582.122 625.251 582.029 625.839 581.922 626.425C581.815 627.01 581.693 627.593 581.556 628.173C574.994 656.148 511.321 698.446 487.611 715.493C478.841 721.8 470.557 729.102 461.469 734.906C460.136 746.99 452.83 754.869 443.619 762.246C439.739 765.354 435.55 767.941 431.281 770.47C461.663 784.018 491.889 797.906 521.959 812.133L712.395 900.925C720.823 890.056 729.29 879.022 736.731 867.444C746.088 852.885 754.067 837.121 762.408 821.948L803.115 748.304L931.418 517.281C936.498 507.979 941.107 498.429 946.125 489.1C951.387 479.316 956.99 469.745 962.049 459.848L974.13 436.22C976.207 432.19 978.102 427.809 980.684 424.094C948.849 410.455 914.946 402.298 882.01 391.86C859.158 384.618 836.599 376.597 813.61 369.764C784.733 361.18 755.556 354.004 726.476 346.19C709.969 341.754 693.718 336.1 677.024 332.339C673.149 331.467 662.549 330.738 660.761 327.265C660.323 326.414 660.307 325.72 660.304 324.795C660.934 323.442 660.971 323.394 662.28 322.68C665.061 322.603 667.74 323.454 670.474 323.885C690.103 326.981 709.512 332.665 728.7 337.757C754.984 344.732 781.436 351.429 807.556 358.996C821.498 363.036 835.266 367.802 849.127 372.123L913.216 391.663C937.695 399.204 962.451 405.754 986.745 413.886C993.534 400.701 1000.75 387.783 1007.67 374.679C1012.96 364.678 1017.85 354.016 1024 344.514V359.141V374.519V383.95V402.965V438.907V451.605V456.988V472.115V476.23V489.301V491.573C1014.56 496.626 991.405 505.782 985.119 512.496C982.309 515.499 980.53 520.032 978.694 523.706C985.902 519.515 1015.23 504.04 1022.2 505.364L1022.61 505.976C1021.68 507.239 1020.65 507.936 1019.3 508.723C1013.06 512.355 1005.93 514.868 999.357 517.821C991.631 521.291 984.01 525.193 976.517 529.134C973.193 534.373 969.806 539.57 966.356 544.726C980.963 537.058 996.755 529.582 1012.69 525.106C1003.48 532.084 992.872 537.117 982.686 542.519C975.675 546.236 968.822 550.227 961.829 553.969C959.9 558.338 958.017 562.691 956.347 567.168C962.308 564.707 990.692 550.371 994.71 551.348C994.582 552.278 994.135 552.486 993.428 553.048C989.887 555.861 985.132 557.874 981.133 560.004C973.752 563.935 954.776 573.245 949.88 579.111C946.191 583.531 943.88 589.428 941.426 594.599C953.797 588.952 965.563 582.108 978.8 578.588L978.079 579.127C969.006 585.851 958.013 590.978 948.127 596.454C944.174 598.644 939.268 600.703 936.1 603.958C932.63 607.524 929.933 613.277 927.578 617.682C939.623 613.677 950.29 606.241 962.447 602.315C956.177 609.371 940.46 617.51 932.003 622.451C928.386 624.564 924.223 626.504 921.4 629.659C917.741 633.748 915.127 639.905 912.462 644.721C918.311 641.696 940.929 629.268 945.736 630.091C942.705 634.449 913.12 651.463 906.637 654.573L898.959 669.016C905.195 665.926 918.812 657.472 925.188 657.483L925.377 658.07C923.395 660.569 920.115 662.293 917.421 663.968C910.51 668.264 897.866 674.192 893.114 680.619C890.638 683.968 888.858 688.231 886.968 691.948C894.196 688.304 907.722 680.748 915.424 679.548L915.836 679.818C911.246 687.587 889.733 692.743 882.879 700.775C879.211 705.073 877.12 711.491 874.503 716.506C886.157 710.189 899.421 701.579 912.535 699.402C902.324 707.78 874.24 719.207 867.859 726.802C864.958 730.254 863.151 734.897 860.799 738.748C871.451 733.29 889.937 724.221 901.505 721.592C895.305 728.822 876.024 736.311 866.565 741.052C863.119 742.78 858.939 744.528 856.14 747.253C852.69 750.612 850.089 756.006 848.133 760.388C856.434 756.274 888.787 739.556 894.806 739.737L895.404 740.525C893.369 743.791 850.925 763.687 844.688 766.83L840.395 775.328C854.212 768.2 868.847 761.438 883.891 757.362C877.926 763.93 866.355 767.701 858.503 771.611C851.007 775.343 843.429 779.105 836.253 783.423C834.065 789.813 830.742 795.097 826.879 800.6C842.032 794.804 856.079 785.382 871.742 780.985C863.717 789.83 843.534 798.254 832.385 803.983C828.594 805.931 823.921 807.824 820.907 810.887C817.296 814.556 815.359 820.258 812.342 824.492L838.354 812.158C844.227 809.369 850.563 805.88 856.827 804.133C849.745 811.889 819.944 827.516 809.293 831.824C805.569 838.251 801.934 844.747 797.736 850.88C809.533 844.068 821.714 836.894 834.953 833.326C825.643 844.228 801.926 851.562 792.995 861.6C789.23 865.832 787.011 872.033 784.052 876.897C795.547 871.269 809.327 862.155 821.467 859.02C814.913 865.039 787.744 881.943 779.27 885.552C776.368 891.137 772.939 896.282 769.571 901.585C776.318 897.546 790.464 887.828 798.185 887.683L798.588 888.116C796.648 892.747 772.303 904.229 766.954 909.553C763.561 912.93 761.092 918.333 758.669 922.441C769.241 916.379 780.797 909.008 792.487 905.458C786.344 912.258 762.311 926.637 753.473 930.899L747.767 940.457C751.891 937.892 758.545 933.272 763.605 933.43L764.513 934.072C763.777 936.333 756.841 940.085 754.669 941.5C749.539 944.845 743.767 947.803 739.598 952.36C735.808 956.5 733.023 961.539 729.33 965.781C734.474 962.642 742.898 956.052 748.726 955.373L749.365 955.839C748.341 959.403 714.165 981.573 708.512 984.678C686.823 996.593 664.18 999.419 640.509 992.427C622.213 987.023 603.731 977.54 587.315 967.888C576.121 961.306 565.277 954.241 553.704 948.305L452.881 896.844C436.344 888.216 418.769 880.281 403.404 869.657C380.874 876.762 358.547 884.751 336.151 892.285C319.13 898.012 301.898 903.23 284.932 909.105C270.529 914.242 256.211 919.605 241.977 925.194C234.454 928.009 226.913 930.771 219.352 933.481C215.063 935.041 210.251 936.448 206.278 938.713C202.783 940.705 200.245 946.337 197.989 949.655C221.552 940.423 247.073 931.838 271.294 924.331C286.147 919.728 301.118 915.549 315.927 910.782L356.044 897.592C370.72 892.644 385.078 887.65 400.23 884.341C393.351 888.997 373.866 894.908 364.958 898.11C333.401 909.273 301.741 920.138 269.978 930.703C251.135 936.904 232.514 943.021 213.961 950.076C207.469 952.544 200.744 954.808 194.44 957.717C191.461 959.091 188.609 960.351 186.502 962.94L183.367 966.741C197.347 962.118 211.474 958.212 225.613 954.128C238.599 950.377 251.605 945.248 265.225 944.806C258.454 948.166 250.871 950.443 243.757 953.003C229.455 958.101 215.116 963.093 200.741 967.98C192.441 970.825 180.701 974.342 173.399 979.126C169.53 981.66 166.678 986.525 163.05 989.646C176.28 983.61 189.752 978.95 203.594 974.563C209.504 972.69 215.525 970.557 221.602 969.323C209.951 977.203 195.688 982.365 182.848 988.043C174.863 991.575 167.018 995.664 158.97 999.003C156.403 1004.24 150.844 1016.85 145.134 1018.69C143.533 1019.2 142.397 1018.9 140.838 1018.41C139.85 1017.25 139.44 1016.27 139.505 1014.72C139.716 1009.67 144.257 1002.79 146.103 997.974C137.306 1000.25 128.591 1002.8 119.957 1005.63C111.474 1008.34 102.989 1011.4 94.213 1012.98C108.516 1004.72 131.631 998.07 147.741 994.68C149.595 990.512 151.31 986.557 154.277 983.031C144.294 986.084 133.809 987.842 123.585 989.905C111.301 992.385 99.1801 995.097 87.0747 998.361C80.7246 1000.07 74.3629 1001.98 68.2023 1004.29C60.4613 1007.19 52.6155 1011.25 44.3839 1012.35C43.7747 1012.43 43.1693 1012.52 42.5587 1012.59C50.4436 1006.96 59.4268 1003.7 68.486 1000.49C75.9644 997.776 83.5323 995.341 91.1898 993.184C98.8473 991.027 106.574 989.154 114.369 987.565C128.954 984.627 143.997 982.657 158.368 978.878C161.003 974.151 163.506 969.171 166.977 964.992C155.594 966.406 144.272 968.207 133.012 970.395C121.752 972.583 110.58 975.153 99.4958 978.105C86.6635 981.658 74.1482 987.311 61.0006 989.473C92.3808 973.631 135.823 963.098 170.908 961.413C174.515 957.456 178.121 953.378 181.474 949.202C152.042 953.58 122.617 957.703 93.3635 963.21C103.173 959.348 113.856 957.081 124.126 954.796C144.274 950.314 163.482 946.788 184.164 945.947C188.129 941.26 192.008 936.378 196.198 931.897C167.943 935.56 139.512 938.946 111.367 943.374C117.011 941.397 122.992 940.143 128.795 938.702C134.589 937.209 140.419 935.872 146.285 934.691C152.15 933.51 158.043 932.486 163.963 931.62C169.884 930.753 175.823 930.046 181.781 929.497C187.739 928.948 193.707 928.558 199.686 928.328L208.357 914.358C186.432 914.575 165.488 915.276 143.819 918.957C144.152 918.561 143.907 918.736 144.487 918.621C145.184 918.484 144.89 918.561 145.461 918.297C148.347 916.964 152.325 916.387 155.461 915.637C174.649 911.049 193.465 909.606 213.119 908.796C215.974 904.702 219.233 900.945 222.115 896.894C211.006 894.706 199.316 894.488 188.006 894.687C184.356 894.751 180.644 895.118 177.002 895.003C179.07 892.935 208.953 891.339 213.923 891.335C218.154 891.332 222.453 891.455 226.636 892.137C229.812 889.328 232.996 886.625 236.39 884.082C227.46 881.151 217.009 878.104 207.647 877.128C217.649 876.401 229.677 877.544 238.779 881.924L242.339 878.945C237.86 869.681 232.757 860.831 228.033 851.709C236.247 859.894 239.697 866.568 245.113 876.53C249.041 873.979 252.89 871.256 256.322 868.055C255.591 866.342 254.783 864.634 254.195 862.868C250.197 853.583 250.709 841.21 251.946 831.411C253.313 841.843 254.187 853.333 257.176 863.413C257.322 864.304 257.48 865.007 257.864 865.827C260.8 866.03 264.485 862.262 266.751 860.467C266.402 856.075 265.112 851.704 264.321 847.366C263.018 840.226 263.195 833.502 263.785 826.299C265.995 836.958 267.161 847.632 269.731 858.282L274.17 856.117C275.337 850.876 276.277 845.594 276.991 840.273C278.038 832.066 277.78 821.899 281.006 814.336C281.257 827.847 280.456 840.768 278.012 854.078C280.974 852.759 283.956 851.486 286.957 850.259C292.948 836.261 296.977 816.289 299.023 801.162C302.483 817.861 296.282 835.082 289.801 850.3C295.812 848.84 301.456 846.516 307.152 844.142C309.909 836.251 310.142 796.546 313.301 793.637C313.121 797.967 313.669 802.395 313.765 806.738C314.019 818.235 313.625 832.02 310.095 842.963C314.451 841.541 320.104 840.315 323.752 837.535C325.31 836.348 325.135 835.188 325.365 833.381C326.801 815.823 330.86 800.624 328.764 782.619C334.937 797.556 331.839 818.656 327.079 833.763L327.272 835.157C329.889 835.755 334.494 832.227 336.764 830.881C337.228 828.598 337.535 826.271 337.896 823.969C340.299 811.328 341.97 799.69 341.606 786.789C341.387 779.011 340.464 771.248 340.417 763.472C345.802 776.349 346.846 793.032 344.421 806.702C343.159 813.822 340.909 820.887 339.036 827.873C339.159 828.936 338.98 828.458 339.549 829.317C344.765 829.479 357.567 817.635 361.826 813.977C361.881 811.146 362.033 808.359 362.286 805.539C363.827 786.258 364.115 767.313 362.746 748.006C370.895 766.35 368.029 789.874 364.713 809.08C364.773 810.136 364.596 809.678 365.191 810.473C369.527 808.488 375.428 802.259 379.328 798.956L380.262 792.702C380.913 786.943 381.727 781.124 382.006 775.334C382.628 762.397 381.542 739.063 378.605 726.544C387.637 743.423 388.053 775.179 382.728 793.217C382.597 794.086 382.562 794.715 382.72 795.582C386.284 793.664 392.832 785.666 395.903 782.401L396.29 776.793C397.315 759.517 397.601 738.95 395.727 721.759C403.091 737.968 399.742 759.244 398.907 776.568C398.844 777.47 398.707 777.69 399.136 778.519C402.91 777.304 410.897 768.078 413.41 764.665C414.163 759.626 414.247 754.355 414.593 749.266C415.558 735.047 416.16 722.415 411.786 708.618C423.182 727.303 418.87 741.747 416.218 762.19C421.619 756.472 427.478 751.241 433.008 745.653C433.263 742.899 433.567 740.15 433.921 737.407C434.989 724.922 432.974 713.705 429.422 701.737C429.831 702.309 430.225 702.891 430.605 703.482C430.985 704.073 431.351 704.672 431.702 705.281C432.053 705.89 432.39 706.507 432.711 707.132C433.032 707.757 433.337 708.39 433.628 709.03C433.919 709.67 434.194 710.317 434.453 710.97C434.712 711.623 434.955 712.282 435.182 712.947C435.409 713.612 435.62 714.283 435.815 714.958C436.01 715.633 436.188 716.313 436.35 716.997C436.512 717.68 436.657 718.368 436.786 719.059C436.914 719.75 437.025 720.443 437.12 721.14C437.215 721.837 437.293 722.535 437.354 723.235C437.415 723.935 437.459 724.636 437.486 725.339C437.513 726.041 437.523 726.743 437.516 727.446C437.509 728.149 437.484 728.851 437.443 729.553C437.402 730.254 437.344 730.954 437.269 731.653C437.194 732.352 437.102 733.048 436.993 733.743C436.6 736.191 436.13 738.732 435.368 741.095C435.472 742.011 435.289 741.613 435.921 742.288C438.953 741.341 447.063 733.851 450.289 731.589C452.474 713.559 453.534 699.225 447.135 681.773C448.08 683.012 449.027 684.256 449.9 685.546C458.558 698.344 456.404 713.924 453.57 728.209C457.6 724.181 461.832 720.918 466.492 717.641C466.688 703.292 464.097 690.736 459.978 677.099C469.164 690.371 470.099 699.678 469.625 715.477C474.16 711.858 478.631 708.162 483.039 704.39C483.205 697.386 482.609 690.554 480.965 683.731C480.071 680.017 478.742 676.441 478.062 672.673L478.376 672.224C478.887 672.576 479.344 672.895 479.763 673.358C485.536 679.733 486.977 693.252 486.943 701.447C490.426 698.814 494.315 696.561 497.986 694.191C495.613 682.307 493.012 670.157 489.399 658.586C496.877 667.324 498.856 680.98 500.949 692.002C504.366 689.441 507.676 686.749 510.879 683.926C512.418 672.939 509.562 663.392 505.547 653.309C506.014 653.742 506.469 654.186 506.914 654.641C513.939 661.865 515.14 671.4 514.971 681.019C519.343 677.44 523.522 673.649 527.508 669.646C527.608 661.165 525.191 653.214 521.749 645.533L522.955 646.739C529.056 652.844 529.832 659.194 530.923 667.366C533.596 665.488 536.103 663.274 538.639 661.211C538.362 655.171 537.443 649.272 536.984 643.26C532.869 638.293 528.216 631.302 526.048 625.216C524.447 620.725 524.111 615.254 526.312 610.895C530.715 602.172 544.338 598.01 552.857 594.928C542.866 593.818 534.249 594.719 524.823 598.337C512.958 602.891 501.702 611.176 490.976 617.998C475.157 628.087 459.476 638.385 443.931 648.892C415.08 668.033 387.086 686.492 352.376 693.096C363.975 686.401 377.302 682.468 388.883 675.593C385.776 675.787 380.367 678.499 376.93 679.366C365.593 682.226 353.647 684.4 341.983 685.233C353.542 680.306 366.214 677.126 378.153 673.126C382.871 671.545 388.098 670.106 392.444 667.68C393.139 666.238 392.866 664.235 392.836 662.645C378.837 667.887 357.694 672.676 342.845 669.095C360.037 666.846 376.457 663.003 393.049 658.114C393.309 656.133 393.445 654.126 393.627 652.135C374.804 654.898 360.982 654.459 342.32 651.686C359.845 650.983 376.994 650.628 394.418 648.314C395.385 644.209 396.385 640.113 397.419 636.025C382.863 637.38 368.006 636.269 353.41 636.07C360.081 634.492 367.166 634.313 373.987 633.744C382.426 633.013 390.86 632.223 399.288 631.376C400.263 627.951 401.252 625 403.368 622.093C390.973 620.002 378.607 619.083 366.05 618.776C379.011 616.723 391.716 615.184 404.56 618.73C406.721 615.814 408.186 611.628 409.766 608.326C399.79 605.92 388.694 602.292 378.564 601.525C388.683 599.689 402.441 601.352 412.012 605.218C414.342 601.662 416.802 598.255 419.374 594.87C407.522 589.692 393.515 588.692 380.771 587.117C393.565 585.147 410.061 584.978 421.58 591.725C423.881 588.274 426.332 584.961 428.826 581.647C416.386 577.162 403.867 572.726 390.523 572.159C407.248 569.892 416.205 571.97 431.614 579.112C434.213 576.273 436.771 573.495 439.697 570.987C425.903 563.129 411.495 558.886 395.747 557.597C413.156 554.914 429.143 560.135 444.185 568.764L451.464 560.681C436.861 551.897 426.076 549.001 410.634 543.304C426.271 543.858 440.799 548.715 453.507 557.945L459.673 551.089C448.404 544.086 436.804 536.936 423.312 535.65C440.191 534.821 448.175 539.582 462.218 548.158C464.975 544.841 467.747 541.604 470.729 538.486C463.698 534.422 456.066 529.998 448.29 527.575C445.183 526.607 441.932 526.271 438.805 525.306L438.848 524.936C439.499 524.813 439.69 524.751 440.278 524.709C451.034 523.933 464.826 529.507 473.072 536.163C475.719 533.03 478.427 530.41 481.679 527.909C476.956 525.566 472.523 522.572 467.86 520.089C462.658 517.319 457.218 515.232 451.71 513.177C465.614 513.976 472.831 517.189 483.299 526.09C485.387 523.516 487.409 521.084 489.902 518.89C480.442 511.842 471.489 505.804 460.731 500.825C473.324 502.578 482.886 507.348 491.709 516.613C494.117 514.134 496.04 511.474 497.873 508.556C491.2 501.125 481.682 495.944 473.474 490.344C483.563 493.266 492.281 498.578 500.213 505.396C501.282 503.594 502.399 501.792 503.336 499.919C504.035 498.523 504.922 497.414 504.404 495.884C496.507 489.24 493.446 486.652 483.676 482.513C494.179 483.793 498.296 486.438 505.969 493.269L506.833 493.166C508.723 490.099 510.05 486.78 511.838 483.67C513.537 480.714 515.572 478.889 516.578 475.488L517.228 475.641C520.635 482.062 523.189 478.111 520.068 488.276C519.245 490.958 516.971 496.021 517.942 498.592C520.173 497.872 522.266 494.008 523.291 491.983C525.576 487.473 528.429 474.281 529.96 472.222C530.971 472.973 531.066 474.028 531.269 475.257C532.459 482.448 529.874 488.978 527.505 495.616C530.177 494.494 532.935 493.459 535.507 492.122C538.02 483.751 538.828 476.054 539.959 467.48C542.632 475.989 541.836 483.929 539.443 492.437C541.792 491.617 544.131 490.832 546.389 489.777C550.701 480.997 552.69 476.18 552.349 466.224C555.526 473.349 556.091 480.464 553.299 487.823C553.1 488.353 552.894 488.88 552.682 489.405C555.534 488.76 558.5 488.22 561.296 487.37C563.619 479.759 563.44 472.701 562.286 464.871C566.255 470.7 567.422 475.927 566.174 482.941C565.9 484.475 565.44 485.986 564.993 487.477L570.675 485.661L571.119 485.087C574.939 480.073 576.409 474.805 577.114 468.639C577.232 467.604 577.088 465.411 578.009 465.039C579.006 465.812 579.259 466.308 579.475 467.57C580.401 472.996 578.621 479.468 576.897 484.596C579.573 483.805 582.088 482.965 584.643 481.828C589.039 474.862 589.856 470.649 588.678 462.526C591.117 466.391 592.07 469.665 591.06 474.226C590.58 476.395 589.808 478.617 588.928 480.652C591.759 479.763 594.627 478.956 597.312 477.676C600.124 472.345 601.385 467.292 602.184 461.345C602.793 466.989 602.578 471.349 601.049 476.835C603.93 475.964 606.688 475.101 609.41 473.795C609.719 470.817 609.06 463.37 609.739 461.489C611.192 462.616 611.777 464.872 611.942 466.638C612.143 468.786 611.905 471.059 611.786 473.213C613.588 472.618 615.424 472.075 617.179 471.352L617.478 470.741C619.044 467.494 619.843 463.748 621.78 460.746L622.273 460.787C622.544 463.724 621.83 466.361 621.16 469.199C631.561 464.718 642.134 455.756 646.372 445.003C647.133 443.07 647.709 441.08 648.219 439.068C639.582 445.198 628.041 448.294 617.474 446.323C611.408 445.192 607.493 442.005 604.136 436.998C582.319 440.502 559.501 438.756 537.455 440.061C526.846 440.689 516.388 443.662 505.756 443.742C499.098 443.792 492.586 442.105 485.842 442.255C491.349 446.069 497.893 451.775 499.206 458.72C499.46 460.067 499.29 460.446 498.783 461.668C494.433 460.793 482.055 449.31 476.67 446.401C466.289 450.322 460.006 459.494 452.182 466.9C435.99 482.226 419.464 497.169 403.762 513.008C392.118 524.754 379.374 541.462 365.794 550.535C363.744 551.905 359.711 553.779 357.266 552.505C356.377 552.042 354.795 550.487 354.511 549.493C354.279 548.683 354.695 547.385 354.883 546.577C347.769 544.103 340.819 542.209 333.997 538.913C341.618 540.756 349.292 542.891 357.063 543.966C359.343 541.777 366.139 536.502 367.263 534.079C355.999 533.467 345.165 532.606 334.645 528.211C345.629 529.27 356.753 529.67 367.625 531.666C368.147 531.771 368.95 531.989 369.505 531.929C372.735 531.576 376.004 526.481 377.897 524.138C365.597 523.313 353.612 520.844 342.815 514.697C355.825 516.943 367.997 519.905 381.276 520.564L386.004 515.526C385.806 515.558 385.608 515.599 385.409 515.621C377.34 516.526 362.199 510.718 355.764 505.753C365.712 507.65 374.634 512.063 384.96 512.884C386.043 512.933 387.098 513.013 388.128 512.597C389.475 512.054 390.609 511.299 391.068 509.929C390.316 508.59 389.583 508.716 388.145 508.303C379.41 506.011 372.28 503.404 364.491 498.722C372.497 501.012 380.136 503.789 388.339 505.47C390.355 505.744 392.371 506.069 394.405 506.162C396.059 504.788 397.808 503.458 399.349 501.959C391.093 499.207 384.083 495.323 376.852 490.541C385.768 493.216 392.926 497.817 402.431 498.73C403.987 497.117 405.629 495.538 407.013 493.774C400.71 490.795 394.498 487.869 388.536 484.239C395.662 486.296 402.628 489.203 409.792 490.998C412.074 488.822 414.43 486.683 416.61 484.407C410.163 483.023 404.165 479.878 398.687 476.27C405.298 478.389 411.988 480.684 418.837 481.895C422.85 478.228 426.813 474.481 430.974 470.983C424.647 470.384 418.099 469.989 411.799 471.061C405.682 472.103 400.032 474.847 394.384 477.295C387.371 480.336 380.297 483.245 373.721 487.173C355.079 498.31 338.352 513.391 318.723 522.751C308.358 527.692 297.455 530.14 286.193 532.007C293.897 527.232 303.013 525.125 310.635 520.038C306.882 519.945 303.109 519.927 299.375 519.506C299.527 519.453 299.677 519.397 299.83 519.347C302.464 518.483 305.192 518.292 307.926 517.948C314.953 517.065 318.897 514.183 324.416 510.164C318.574 510.195 312.782 509.675 307.039 508.604L307.767 508.489C322.94 506.16 324.887 511.493 338.309 500.108C333.336 499.817 328.454 499.33 323.554 498.414C333.261 496.997 339.868 499.515 347.597 492.161C341.461 490.974 335.329 489.836 329.37 487.914C337.408 488.121 345.433 488.558 353.476 488.401C356.882 485.73 360.371 483.117 363.689 480.339C360.172 479.858 356.687 479.202 353.235 478.372C349.784 477.543 346.382 476.543 343.03 475.373C351.698 476.199 360.436 476.331 369.136 476.61L376.498 473.021C370.594 472.783 365.133 472.372 359.395 470.858C368.685 470.133 378.881 470.45 387.846 467.921C378.762 462.003 367.402 460.52 356.837 462.726C327.163 468.925 320.58 493.348 299.156 509.197C294.5 512.642 289.347 515.709 284.028 518.014C276.527 521.266 268.592 523.09 260.874 525.712C254.952 527.723 230.989 537.641 227.1 536.399L226.039 534.715C226.812 532.306 230.898 529.944 232.764 528.174C231.105 528.399 229.414 528.704 227.744 528.774C230.946 526.681 234.826 525.181 237.843 522.875C242.763 519.113 246.65 512.985 250.975 508.463C230.107 516.259 225.342 522.943 214.103 541.895C216.926 542.236 219.8 542.279 221.868 544.481C222.199 545.74 222.449 546.638 221.773 547.855C219.509 551.933 213.777 554.606 210.384 557.727C207.799 560.105 205.622 562.965 203.709 565.901C195.795 578.05 188.81 594.986 183.885 608.548C181.603 614.829 179.765 621.323 177.272 627.52C175.154 632.783 164.845 653.313 164.981 657.169L166.197 657.348C171.326 656.255 176.342 655.961 181.576 655.957C178.018 657.201 173.838 658.82 170.049 658.999C167.755 659.452 165.478 659.86 163.159 660.178C161.527 663.184 159.804 666.163 158.478 669.321C164.804 668.237 170.941 667.979 177.351 668.059C170.549 669.812 163.821 671.735 156.834 672.601C155.03 675.972 153.295 679.324 151.765 682.829C157.794 681.955 163.747 681.314 169.844 681.122C163.468 683.71 155.829 684.792 149.098 686.407C147.285 689.747 144.723 693.471 143.672 697.104L144.108 697.542L144.655 697.407C152.575 695.556 160.96 693.684 169.097 693.338C161.815 695.648 154.411 697.581 147.145 699.916C144.76 700.648 142.372 701.359 140.031 702.223L132.964 714.769C135.217 713.975 137.496 713.264 139.801 712.637C142.106 712.009 144.43 711.466 146.775 711.008C149.119 710.55 151.477 710.178 153.849 709.891C156.22 709.605 158.599 709.406 160.985 709.293C155.443 711.804 149.238 713.068 143.433 714.875C139.107 716.222 134.832 717.965 130.458 719.119C127.389 723.194 124.618 727.397 121.867 731.687C131.731 727.69 141.729 725.755 152.302 724.869C143.622 728.045 125.827 731.307 119.359 736.729C116.129 739.436 113.702 743.226 111.229 746.612C119.922 743.201 129.656 741.581 138.94 740.872C128.223 744.144 117.421 747.386 106.838 751.073C105.161 753.868 103.568 756.799 101.717 759.478C114.221 756.246 126.829 755.235 139.676 754.577C126.902 758.993 112.811 759.291 99.8403 763.201C96.721 767.373 93.8357 771.648 90.9835 776.003C101.342 772.155 114.578 770.606 125.587 771.091C121.324 772.824 116.504 773.49 112.006 774.421C103.87 776.106 95.8774 777.767 88.1041 780.797C85.3337 784.291 82.7593 787.924 80.3808 791.695C95.1661 787.758 110.162 784.98 125.539 785.941C111.193 788.642 88.6538 792.156 75.6684 797.208C72.1645 801.379 69.397 806.07 66.272 810.517C74.6199 807.85 94.4025 801.896 102.435 804.017C102.254 804.176 70.2221 809.156 62.8596 814.973C59.6288 817.526 57.0305 821.771 54.5941 825.071C59.8471 822.991 81.4822 813.187 85.4794 814.944C86.252 815.284 86.0256 815.294 86.2511 816.19C82.2251 820.118 68.4966 825.984 62.8833 829.125C53.5393 834.352 44.1077 840.1 35.4768 846.425C21.7299 856.498 12.0431 872.373 0 884.334V873.16C4.66659 866.112 10.8495 859.803 16.3467 853.377C23.591 844.811 30.7145 836.146 37.7172 827.381C51.3569 810.437 63.9232 792.631 76.8512 775.154C89.636 757.87 102.75 740.742 114.657 722.824C123.18 709.737 131.239 696.371 138.834 682.725C146.429 669.079 153.543 655.186 160.175 641.047C163.181 634.608 166.399 628.119 168.94 621.484C174.439 607.132 178.663 592.145 184.862 578.083C188.408 570.04 192.743 563.08 197.714 555.851C198.555 554.628 200.922 552.001 200.709 550.578C200.545 549.492 200.157 548.369 200.433 547.268C200.974 545.109 202.753 542.583 203.841 540.589C210.665 528.083 219.387 515.982 231.131 507.67C240.149 501.288 247.946 496.88 259.193 498.854C264.392 491.851 270.187 484.936 277.31 479.808C289.97 470.694 307.318 466.538 322.719 469.098C334.878 457.649 351.42 450.249 368.249 450.158C380.822 450.09 389.873 453.298 398.883 462.1C399.63 461.791 400.369 461.493 401.134 461.23C412.511 457.318 430.292 456.854 441.254 462.353C455.185 449.49 469.957 434.261 490.079 433.503C496.555 433.26 503.009 434.631 509.462 434.344C516.842 434.016 524.253 432.913 531.615 432.265C539.15 431.6 546.669 431.396 554.23 431.271Z" fill="#231F20"/>
<path d="M739.243 152.49C746.126 136.374 760.78 121.59 776.304 113.7C783.59 109.997 791.7 107.267 799.963 107.871C807.665 108.433 815.059 111.52 822.442 113.622C831.165 116.105 840.037 118.342 848.866 120.42C858.505 122.689 868.37 123.846 878.016 126.045C927.032 137.221 976.232 149.248 1024 164.979V220.229C1005.69 212.52 987.071 208.854 967.767 204.635C948.488 200.472 929.255 196.106 910.068 191.538C896.758 188.261 883.561 184.461 870.29 181.02C856.238 177.376 842.1 174.093 828.064 170.385C801.529 163.376 766.272 152.525 739.243 152.49Z" fill="#FEFEFE"/>
<path d="M892.019 151.16C897.105 151.216 938.362 161.453 943.115 163.854C946.707 165.669 947.635 168.908 948.681 172.469C948.116 174.64 947.445 176.59 946.083 178.404C943.605 181.706 940.255 183.112 936.27 183.736C926.205 181.357 889.437 171.05 881.497 165.864C880.067 164.931 879.373 163.83 879.138 162.107C878.875 160.176 879.825 157.755 880.976 156.243C883.619 152.774 887.894 151.593 892.019 151.16Z" fill="#231F20"/>
<path d="M890.981 158.056L891.414 158.086C899.74 158.71 916.495 164.436 925.415 166.733C929.563 167.802 934.879 168.317 938.702 169.984C939.108 170.161 939.265 170.396 939.526 170.702C939.72 171.915 939.727 172.9 939.083 174.009C938.464 175.073 937.495 175.27 936.388 175.523C920.092 169.734 903.552 165.183 886.761 161.084C888.045 159.893 889.516 159.003 890.981 158.056Z" fill="#FEFEFE"/>
<path d="M856.844 142.981C858.589 143.239 859.393 143.725 860.634 144.885C861.147 146.394 861.285 147.408 860.543 148.886C858.731 152.491 855.353 154.785 851.66 156.103C849.996 155.852 849.374 155.486 848.049 154.447C847.439 153.021 847.271 152.056 847.908 150.581C849.62 146.617 853.017 144.494 856.844 142.981Z" fill="#231F20"/>
<path d="M1024 359.141V374.519C1019.11 380.75 1016.05 389.322 1012.67 396.499L995.896 432.185C990.541 443.611 984.665 454.755 979.105 466.078C973.256 478.044 967.598 490.1 962.133 502.246C951.715 524.855 940.032 547.088 928.511 569.155C919.473 586.467 911.449 602.73 901.597 619.761C892.848 634.59 883.993 649.355 875.03 664.056C869.35 673.366 863.47 682.567 858.301 692.177L782.266 831.241L762.1 869.172C757.193 878.435 752.691 887.957 746.279 896.307C733.312 913.194 714.165 928.273 694.163 935.579C681.718 940.126 664.975 944.038 651.822 940.493C641.529 937.719 632.112 930.399 622.673 925.492L554.402 890.673C512.406 869.392 469.591 849.92 426.901 830.097C414.062 824.135 401.458 817.685 388.594 811.75L391.447 808.214C402.1 814.847 414.225 819.037 425.546 824.402C454.295 837.696 482.917 851.258 511.412 865.088C544.374 881.262 577.038 898.139 609.85 914.625C621.498 920.477 635.96 929.404 647.653 933.979C655.614 937.094 663.435 937.762 671.834 936.262C694.966 932.13 714.662 918.291 729.562 900.59C742.473 885.251 750.288 866.689 759.694 849.129C769.998 829.892 780.747 810.867 791.306 791.766L888.578 615.935L916.02 566.364C925.42 549.713 935.123 533.255 944.004 516.315C962.59 481.645 980.587 446.672 997.995 411.395C1006.59 394.204 1013.02 374.946 1024 359.141Z" fill="#FEFEFE"/>
<path d="M1024 155.311C1017.41 153.843 1010.9 151.356 1004.51 149.174C993.185 145.306 981.869 141.362 970.235 138.506C958.889 135.72 947.207 133.833 935.756 131.481C920.649 128.377 905.674 124.653 890.566 121.601C875.659 118.589 860.598 116.269 845.732 113.066C837.661 111.326 829.63 109.078 821.687 106.835C815.312 105.036 808.699 102.645 802.051 102.235C782.511 101.029 765.055 111.504 752.081 125.212C742.246 135.603 737.642 146.456 730.74 158.537L706.466 200.509L595.398 387.363C591.413 393.998 571.945 428.185 568.732 430.701C567.668 431.534 567.048 431.688 565.733 431.598L565.368 431.001C567.79 423.272 574.908 412.251 579.084 405.026L602.259 365.013L699.572 196.674C703.541 189.941 706.807 182.781 710.359 175.82C716.731 163.339 723.371 150.855 730.951 139.063C738.289 127.648 747.169 116.598 757.216 107.438C760.594 104.359 764.107 101.466 768.225 99.4314C782.674 92.2927 803.248 91.9976 818.884 94.2268C828.968 95.6645 838.775 98.4415 848.557 101.207C872.105 107.864 894.991 116.506 918.467 123.321C929.64 126.565 941.073 129.662 952.423 132.213C965.399 135.129 978.508 137.41 991.453 140.501C999.964 142.534 1014.94 147.871 1022.87 148.229L1023.5 147.591C1023.24 145.947 1023.34 145.346 1024 143.816V155.311Z" fill="#FEFEFE"/>
<path d="M1024 383.95V402.965C1008.87 429.848 994.53 457.086 979.872 484.216C975.499 492.309 968.983 500.31 965.642 508.791L964.074 510.102L963.163 509.92C964.257 499.661 986.085 459.67 991.835 448.018C1002.14 427.133 1012.46 404.039 1024 383.95Z" fill="#FEFEFE"/>
<path d="M990.052 501.822C992.16 498.182 994.184 494.154 997.015 491.016C1002.68 484.738 1016.16 479.946 1024 476.23V489.301C1017.11 488.016 997.077 498.655 990.052 501.822Z" fill="#FEFEFE"/>
<path d="M1024 456.988V472.115C1016.21 474.058 1008.97 478.187 1001.33 480.713C1004.7 475.253 1007.63 469.414 1010.76 463.805C1015.12 461.43 1019.53 459.158 1024 456.988Z" fill="#FEFEFE"/>
<path d="M1013.92 456.272C1016.9 450.27 1020.5 444.616 1024 438.907V451.605L1013.92 456.272Z" fill="#FEFEFE"/>
<path d="M421.407 778.946C428.399 782.362 436.315 784.934 443.528 787.987C457.078 793.721 470.488 799.908 483.928 805.902C497.368 811.895 510.539 818.525 523.865 824.773L586.702 853.769C603.414 861.509 619.75 869.94 636.288 878.028C647.533 883.528 658.928 888.669 670.236 894.03C682.146 899.675 693.817 905.45 706.036 910.442C697.678 915.707 689.714 920.908 680.28 924.067C673.005 926.477 663.158 927.945 655.739 925.562C645.909 922.406 636.686 916.444 627.608 911.592C612.686 903.617 597.671 895.6 582.542 888.031C559.999 876.747 537.358 865.663 514.619 854.778C489.983 843.321 465.27 832.031 440.481 820.909C432.574 817.294 424.754 813.5 417.021 809.526C411.007 806.425 405.085 803.029 398.872 800.351C406.606 793.493 413.401 785.444 421.407 778.946Z" fill="#FEFEFE"/>
<path d="M918.761 596.363C921.009 609.995 888.514 665.456 881.101 678.659C876.463 686.919 872.181 695.41 867.13 703.43C861.254 712.759 853.495 720.675 848.286 730.48C844.334 737.918 841.084 745.713 837.186 753.18C832.88 761.427 827.859 769.55 824.027 778.014C822.22 782.005 823.377 786.002 820.927 790.018C817.171 796.173 813.056 802.106 809.356 808.3C797.453 828.227 786.133 848.465 773.969 868.249C767.931 878.07 760.209 885.77 755.661 896.62C757.361 897.119 758.912 897.206 760.131 898.53C759.919 901.42 756.967 903.777 755.5 906.216C753.361 909.772 751.6 913.617 749.536 917.235C745.145 924.934 740.411 932.515 735.568 939.94C725.708 955.057 712.035 964.449 694.247 968.078C683.125 970.346 672.593 969.08 661.877 965.541C648.174 961.016 636.137 952.942 623.488 946.182C612.3 940.203 600.811 934.805 589.607 928.836C579.039 923.206 568.796 917.028 558.306 911.264C546.929 905.013 531.708 898.551 521.418 891.773C515.948 886.761 512.289 880.411 506.481 875.486C513.983 879.013 521.03 883.586 528.504 887.231C565.587 904.927 602.375 923.216 638.868 942.097C643.786 944.622 648.664 946.652 654.119 947.692C665.725 949.906 682.86 946.112 693.936 942.514C718.054 934.678 737.463 914.665 752.696 894.999C765.707 878.201 774.723 858.295 784.824 839.712L823.769 769.19L879.745 666.432C888.289 651.072 897.504 636.106 906.061 620.767C910.533 612.752 914.572 604.526 918.761 596.363Z" fill="#FEFEFE"/>
<path d="M388.104 858.564C392.351 860.851 396.621 864.278 400.368 867.311C363.664 876.952 327.903 889.7 291.891 901.599C270.379 908.707 248.499 914.969 226.869 921.744C223.112 923.037 219.308 924.216 215.528 925.445C218.943 921.764 222.318 918.049 225.655 914.298C238.337 913.436 249.736 907.844 261.489 903.569C281.5 896.291 301.298 888.259 321.41 881.3C342.057 874.155 369.167 868.109 388.104 858.564Z" fill="#FEFEFE"/>
<path d="M522.396 508.987C522.416 509.446 522.458 509.665 522.297 510.152C520.909 514.353 516.955 519.979 514.77 524.057L489.545 570.088C481.133 585.373 473.193 600.887 464.655 616.116C462.093 620.685 459.547 626.711 456.09 630.636C452.018 635.258 443.147 639.246 437.623 641.95C438.526 638.154 448.905 621.981 451.82 616.744L486.637 554.413C492.093 544.572 498.803 529.979 505.497 521.493C509.12 516.9 517.561 512.861 522.396 508.987Z" fill="#FEFEFE"/>
<path d="M382.541 818.321C393.22 822.013 403.622 828.375 413.914 833.132C437.104 843.849 460.016 855.255 483.31 865.728C488.818 868.204 494.496 870.256 500.025 872.676C498.892 872.814 497.463 872.025 496.387 871.625C492.848 870.686 489.369 869.761 485.675 869.765C480.221 869.772 474.634 871.592 469.231 870.189C459.405 867.639 449.987 861.227 440.848 856.828C419.237 846.426 396.98 837.219 376.665 824.285C378.517 822.209 380.57 820.285 382.541 818.321Z" fill="#FEFEFE"/>
<path d="M552.132 599.906C552.429 599.948 552.73 599.968 553.023 600.034C556.281 600.772 560.922 605.717 562.729 608.519C565.153 612.279 566.267 616.763 565.29 621.179C563.829 627.791 557.256 635.331 551.505 638.812C550.338 639.519 550.256 639.482 549.007 639.14C543.602 634.9 537.317 628.004 534.399 621.709C532.945 618.57 532.339 615.075 533.742 611.801C536.592 605.148 545.92 602.415 552.132 599.906Z" fill="#FEFEFE"/>
<path d="M377.138 851.036C379.549 851.228 384.236 855.737 386.359 857.353L309.879 877.233C302.984 878.985 295.923 880.057 288.997 881.683C278.832 884.07 268.51 887.108 258.623 890.457C256.216 891.238 253.877 892.325 251.541 893.301C253.847 890.616 256.394 886.883 259.681 885.412C263.865 883.539 268.86 882.582 273.286 881.359C280.745 879.322 288.183 877.206 295.598 875.013C306.443 871.844 317.404 869.045 328.225 865.815C344.563 860.939 360.699 855.605 377.138 851.036Z" fill="#FEFEFE"/>
<path d="M251.237 525.876C260.227 518.51 266.367 509.223 273.619 500.316C284.916 486.44 296.367 480.599 314.038 478.851C311.224 482.409 308.173 485.813 305.265 489.3L298.714 489.888L298.342 490.455C297.572 490.114 297.953 490.162 297.21 490.241L297.557 490.803C299.685 491.377 301.762 490.931 303.913 490.643C304.113 490.617 304.312 490.586 304.512 490.557C303.715 492.347 302.171 493.894 300.932 495.415C295.087 495.669 289.245 495.961 283.404 496.291C286.899 497.175 294.662 497.373 297.186 499.494C295.768 501.387 293.783 502.191 291.551 502.712C284.125 503.951 276.534 504.226 269.151 505.538C276.257 506.857 282.749 506.867 289.825 505.332C289.62 506.21 289.809 505.856 289.136 506.596C283.871 512.384 271.677 512.249 264.394 512.663C270.569 514.093 274.89 514.451 281.227 513.707C271.238 517.773 261.122 521.565 251.237 525.876Z" fill="#FEFEFE"/>
<path d="M366.918 839.085L367.499 839.208C369.553 842.217 371.832 844.672 374.506 847.12C354.98 848.861 331.581 857.042 311.884 861.337C309.115 861.893 306.312 862.259 303.519 862.665C324.523 854.188 345.023 845.122 366.918 839.085Z" fill="#FEFEFE"/>
<path d="M446.911 879.291C448.97 878.848 451.018 878.361 453.056 877.832C459.646 881.891 467.117 884.648 475.004 884.186C478.647 883.973 482.351 883.334 485.997 883.424C491.419 883.559 495.825 885.315 499.594 889.216C499.509 889.367 499.426 889.52 499.339 889.669C497.117 893.474 490.48 894.446 489.32 897.723C490.124 898.817 491.373 899.184 492.708 899.41C493.569 899.555 494.447 899.615 495.316 899.682C494.042 900.175 492.763 900.678 491.469 901.116C488.505 902.118 485.198 899.999 482.601 898.74C483.861 895.077 486.888 888.344 485.174 884.652L484.303 884.408C480.755 886.59 479.221 892.829 478.089 896.643C475.501 895.465 473.027 894.094 470.535 892.729C471.324 891.654 472.134 890.577 472.856 889.455C473.7 888.145 473.701 887.313 473.354 885.845L472.262 885.292C469.039 885.651 467.599 887.628 465.575 889.86L463.04 888.656C462.515 887.011 464.052 885.806 464.09 884.008C462.132 882.4 456.682 883.134 454.202 883.325C451.685 882.169 449.308 880.677 446.911 879.291Z" fill="#FEFEFE"/>
<path d="M968.496 514.998C971.795 507.489 976.42 500.193 981.497 493.739C978.258 500.348 975.12 507.004 972.083 513.708C969.582 519.242 967.251 525.597 963.852 530.642C962.626 532.461 960.86 533.537 958.975 534.557C958.043 535.061 957.125 535.54 956.46 536.392C953.347 540.386 950.903 545.997 948.371 550.45C944.638 557.016 940.646 563.431 937.045 570.074C933.012 577.514 929.378 585.26 924.976 592.484C927.073 581.295 945.686 549.069 951.993 538.685C954.526 534.514 958.613 531.055 959.812 526.343L960.976 525.386L961.161 529.018L961.021 529.019L960.98 528.213L962.098 528.318L968.496 514.998Z" fill="#FEFEFE"/>
<path d="M631.755 430.681C633.853 430.612 636.242 430.699 638.29 431.231C640.132 431.71 641.815 432.522 642.807 434.2L642.494 435.273C638.358 438.737 629.648 438.867 624.356 439.424C622.681 439.453 620.9 439.608 619.231 439.435C616.892 439.192 613.923 437.851 612.429 436.025L612.585 435.059C615.222 432.879 627.858 431.127 631.755 430.681Z" fill="#FEFEFE"/>
<path d="M442.417 609.597C441.664 613.456 438.141 618.588 436.274 622.164C430.139 621.099 423.67 621.514 417.464 621.601L417.121 621.528L416.8 620.939L418.405 616.922C426.479 614.71 434.483 612.268 442.417 609.597Z" fill="#FEFEFE"/>
<path d="M450.47 594.732L450.734 594.849L450.91 595.499C449.28 598.735 447.305 601.833 445.454 604.949C439.65 604.817 433.771 605.326 427.974 605.666L427.888 604.977C429.65 602.343 431.386 599.802 433.472 597.408C439.062 596.093 444.775 595.415 450.47 594.732Z" fill="#FEFEFE"/>
<path d="M430.517 631.361L430.734 631.718L427.971 636.876C421.863 639.282 415.64 640.672 409.17 641.684C408.157 639.54 409.813 635.125 410.374 632.856C416.986 631.865 423.84 631.741 430.517 631.361Z" fill="#FEFEFE"/>
<path d="M513.887 901.747C517.953 904.158 522.507 906.568 525.96 909.812C523.608 911.336 521.456 913.172 519.266 914.918C518.42 915.555 518.735 915.476 517.847 915.659C515.575 916.127 510.376 912.039 508.502 910.817C510.192 907.744 512.085 904.757 513.887 901.747Z" fill="#FEFEFE"/>
<path d="M501.008 890.157C503.101 890.635 509.671 898.846 512.055 900.98L511.84 900.443L511.896 901.395C511.704 901.368 511.514 901.319 511.319 901.313C509.571 901.255 507.293 902.481 506.089 903.717C504.791 905.047 503.65 906.641 502.505 908.107C499.725 907.096 497.955 905.805 496.268 903.361C496.353 901.913 497.394 901.815 497.576 900.282C498.49 898.677 500.229 897.604 501.662 896.452C501.602 894.336 501.286 892.254 501.008 890.157Z" fill="#FEFEFE"/>
<path d="M530.56 912.986C532.167 914.01 534.12 919.187 535.074 921.058L531.186 923.81L530.207 923.487L522.811 919.66C525.542 917.595 528.368 915.645 530.56 912.986Z" fill="#FEFEFE"/>
<path d="M537.66 644.28C541.184 647.207 544.867 649.656 548.855 651.902L545.606 655.26L541.666 658.915C541.625 653.206 540.34 649.207 537.66 644.28Z" fill="#FEFEFE"/>
<path d="M543.739 919.852C545.026 920.203 545.763 920.639 546.467 921.731C546.216 924.354 545.016 927.458 543.185 929.41L541.786 929.067C540.184 928.325 538.617 927.476 537.041 926.68L543.739 919.852Z" fill="#FEFEFE"/>
<path d="M552.867 925.261L560.982 929.314L557.234 931.589C555.844 932.692 554.747 933.56 553.04 934.091C552.385 933.95 551.795 934.065 551.48 933.391C550.475 931.238 552.174 927.415 552.867 925.261Z" fill="#FEFEFE"/>
<path d="M567.67 932.72C569.658 933.428 571.483 935.026 573.195 936.253L572.889 936.502C572.72 936.642 572.554 936.786 572.384 936.925C570.541 938.437 569.283 939.661 568.056 941.723L567.688 942.353C566.077 942.077 564.86 940.717 563.649 939.69C564.764 937.235 566.234 934.995 567.67 932.72Z" fill="#FEFEFE"/>
<path d="M598.09 948.85C599.64 949.543 601.125 950.437 602.615 951.251C600.053 953.4 597.802 955.489 595.715 958.108C594.466 958.117 592.851 956.584 591.794 955.83C594.006 953.64 596.025 951.183 598.09 948.85Z" fill="#FEFEFE"/>
<path d="M624.162 963.398C625.345 964.089 626.101 964.224 626.643 965.535C625.817 968.016 623.24 970.1 621.435 971.994L616.23 969.269L624.162 963.398Z" fill="#FEFEFE"/>
<path d="M633.279 967.368C634.453 967.952 635.693 968.398 636.459 969.511C634.826 970.861 633.393 972.113 632.06 973.773C631.159 974.894 630.803 975.776 629.341 975.948C627.951 975.324 626.56 974.851 625.547 973.664C626.359 972.295 631.414 969.232 633.279 967.368Z" fill="#FEFEFE"/>
<path d="M586.544 942.794C588.901 943.775 591.169 945.013 593.448 946.163L590.391 949.139C589.347 948.008 588.43 947.116 587.125 946.292L585.937 946.617C585.567 948.597 585.623 950.64 585.585 952.649L580.853 949.568C583.808 947.426 585.264 946.254 586.544 942.794Z" fill="#FEFEFE"/>
<path d="M455.513 586.248L455.794 586.435C455.741 587.958 454.24 589.662 453.386 590.921C449.436 590.555 445.458 590.505 441.493 590.393L441.049 590.332L441.11 589.995C445.896 588.14 450.404 586.861 455.513 586.248Z" fill="#FEFEFE"/>
<path d="M607.587 954.864L608.364 955.302C609.13 957.446 606.625 961.435 605.729 963.572L605.513 964.101L604.241 963.422C602.815 962.576 601.441 961.637 600.056 960.727C602.673 958.985 605.095 956.795 607.587 954.864Z" fill="#FEFEFE"/>
<path d="M578.89 940.284C579.951 940.777 580.129 940.864 580.782 941.824C580.993 944.229 580.895 946.411 579.447 948.447L578.324 948.325C576.869 947.527 575.477 946.604 574.072 945.72C575.55 943.802 577.247 942.06 578.89 940.284Z" fill="#FEFEFE"/>
<path d="M646.578 973.848C647.705 974.218 648.357 974.254 649.164 975.171C649.092 976.262 648.863 976.744 648.215 977.579C647.205 978.882 646.343 980.24 645.466 981.634L644.231 981.969L643.672 981.24C644.024 978.64 645.464 976.203 646.578 973.848Z" fill="#FEFEFE"/>
<path d="M614.408 957.169C615.772 957.891 617.078 958.471 618.083 959.684C617.622 961.175 616.171 962.096 615.013 963.134C614.03 963.718 614.019 964.001 612.846 963.778C612.528 961.684 613.744 959.157 614.408 957.169Z" fill="#FEFEFE"/>
<path d="M655.215 977.271C656.291 977.332 656.913 977.412 657.857 977.946C657.657 979.776 655.38 981.789 654.195 983.242C653.437 983.691 652.824 983.812 651.975 984.013L651.733 983.143C652.529 980.942 653.884 979.172 655.215 977.271Z" fill="#FEFEFE"/>
<path d="M689.044 979.15C689.497 979.153 689.901 979.367 690.323 979.524C690.057 979.776 689.78 980.02 689.531 980.289C687.781 982.178 686.229 982.627 683.706 982.893L683.164 983.04C683.554 982.262 683.949 981.388 684.471 980.692C685.5 979.321 687.47 979.344 689.044 979.15Z" fill="#FEFEFE"/>
<path d="M317.612 539.575C319.799 539.466 322.136 539.506 323.942 540.944C325.005 541.79 325.643 542.737 325.67 544.135C325.702 545.873 324.911 547.227 323.731 548.417C318.928 553.263 312.272 556.285 307.237 561.092C298.132 569.783 289.689 579.287 280.835 588.247C271.021 598.177 260.684 607.649 250.741 617.464L244.957 622.561C258.045 601.271 287.541 556.778 307.94 543.53C311.018 541.531 314.091 540.463 317.612 539.575Z" fill="#231F20"/>
<path d="M255.921 537.121C258.246 537.143 261.183 537.265 263.274 538.364C264.543 539.031 264.878 539.604 265.345 540.909C264.07 547.08 251.526 549.486 246.884 553.731C234.881 564.708 216.868 594.524 207.133 609.139C205.588 611.533 203.846 613.833 202.189 616.154C202.584 613.815 203.046 611.488 203.573 609.175C204.1 606.862 204.693 604.566 205.35 602.286C206.008 600.007 206.73 597.748 207.516 595.51C208.302 593.271 209.151 591.057 210.062 588.866C210.974 586.676 211.947 584.513 212.982 582.378C214.016 580.243 215.11 578.14 216.264 576.067C217.418 573.994 218.63 571.955 219.9 569.951C221.17 567.947 222.496 565.981 223.877 564.052C231.376 553.372 242.264 539.493 255.921 537.121Z" fill="#231F20"/>
<path d="M679.061 388.696C684.061 395.839 672.7 402.665 672.003 392.267C672.339 388.857 666.831 386.678 663.526 388.632C685.137 411.42 662.422 416.646 644.038 404.023C639.173 400.886 637.503 392.199 645.712 393.745C646.59 401.739 657.431 401.729 663.56 402.692C665.014 399.07 645.849 389.672 658.192 382.091C666.341 378.4 674.564 381.055 679.061 388.696ZM730.201 401.81C729.711 405.725 724.251 404.213 721.492 404.376C715.917 404.886 708.565 400.691 703.988 404.515C700.186 410.081 695.196 414.934 692.228 421.055C691.298 422.628 690.151 422.932 688.49 422.125C682.603 418.225 695.99 406.395 697.606 401.418C694.399 400.743 691.514 400.165 688.657 399.496C682.315 397.916 684.715 389.866 690.883 391.694C702.208 394.54 713.529 396.582 725.196 397.978C727.406 398.299 730.673 398.943 730.201 401.81ZM738.308 401.619C749.465 397.44 768.001 408.904 758.66 420.962C751.054 429.133 729.313 443.185 725.505 424.715C724.29 418.324 729.503 398.235 738.308 401.619ZM740.179 427.277C747.211 424.45 761.374 416.169 751.364 408.505C747.659 405.018 742.56 406.275 738.83 408.802C734.289 409.377 734.327 413.703 732.008 417.363C731.343 423.833 731.214 430.518 740.179 427.277ZM778.175 434.832C780.554 437.564 790.126 447.654 781.769 447.417C776.097 443.633 771.234 438.84 765.579 434.509C763.764 436.515 762.136 438.729 760.307 440.781C758.728 442.508 758.378 442.502 756.066 441.196C756.195 434.512 762.92 430.388 766.065 424.672C754.546 417.351 775.325 412.389 780.901 414.839C794.273 417.556 788.597 431.583 778.175 434.832ZM770.261 429.512C773.637 430.29 781.943 427.4 781.493 421.793C775.549 421.539 773.414 425.254 770.261 429.512ZM822.931 435.565C818.407 434.439 815.951 434.594 813.569 439.287C817.989 442.239 826.397 438.025 828.331 441.725C829.726 446.867 822.686 447.081 819.286 447.702C810.045 449.705 809.937 441.493 805.114 449.257C810.097 451.677 818.249 448.139 820.808 453.083C821.372 462.436 805.456 455.382 800.17 455.278C789.076 450.846 806.92 439.37 808.868 433.139C805 432.163 795.631 432.119 797.079 426.539C798.287 424.549 800.887 424.086 803.087 424.605C806.86 424.901 810.755 426.94 814.511 425.977C816.316 425.322 817.879 425.296 819.45 426.728C821.736 428.779 824.803 428.759 827.588 429.005C831.233 430.216 857.306 427.969 851.292 434.868C842.533 438.423 832.243 435.139 822.931 435.565ZM884.526 446.644C885.006 456.273 881.335 465.692 878.337 474.714C872.109 480.997 871.859 469.129 873.622 465.15C867.061 466.263 860.523 464.172 857.368 471.239C856.493 472.629 855.519 472.533 854.233 472.141C846.507 468.183 865.45 454.583 868.034 450.052C872.912 444.412 882.084 432.253 884.526 446.644ZM870.595 457.956C876.773 460.239 875.5 455.687 876.525 451.333C875.233 451.291 868.981 456.662 870.595 457.956Z" fill="black"/>
<path d="M652.061 492.696C657.061 499.839 645.7 506.665 645.003 496.267C645.339 492.857 639.831 490.678 636.526 492.632C658.137 515.42 635.422 520.646 617.038 508.023C612.173 504.886 610.503 496.199 618.712 497.745C619.59 505.739 630.431 505.729 636.56 506.692C638.014 503.07 618.849 493.672 631.192 486.091C639.341 482.4 647.564 485.055 652.061 492.696ZM703.201 505.81C702.711 509.725 697.251 508.213 694.492 508.376C688.917 508.886 681.565 504.691 676.988 508.515C673.186 514.081 668.196 518.934 665.228 525.055C664.298 526.628 663.151 526.932 661.49 526.125C655.603 522.225 668.99 510.395 670.606 505.418C667.399 504.743 664.514 504.165 661.657 503.496C655.315 501.916 657.715 493.866 663.883 495.694C675.208 498.54 686.529 500.582 698.196 501.978C700.406 502.299 703.673 502.943 703.201 505.81ZM711.308 505.619C722.465 501.44 741.001 512.904 731.66 524.962C724.054 533.133 702.313 547.185 698.505 528.715C697.29 522.324 702.503 502.235 711.308 505.619ZM713.179 531.277C720.211 528.45 734.374 520.169 724.364 512.505C720.659 509.018 715.56 510.275 711.83 512.802C707.289 513.377 707.327 517.703 705.008 521.363C704.343 527.833 704.214 534.518 713.179 531.277ZM751.175 538.832C753.554 541.564 763.126 551.654 754.769 551.417C749.097 547.633 744.234 542.84 738.579 538.509C736.764 540.515 735.136 542.729 733.307 544.781C731.728 546.508 731.378 546.502 729.066 545.196C729.195 538.512 735.92 534.388 739.065 528.672C727.546 521.351 748.325 516.389 753.901 518.839C767.273 521.556 761.597 535.583 751.175 538.832ZM743.261 533.512C746.637 534.29 754.943 531.4 754.493 525.793C748.549 525.539 746.414 529.254 743.261 533.512ZM795.931 539.565C791.407 538.439 788.951 538.594 786.569 543.287C790.989 546.239 799.397 542.025 801.331 545.725C802.726 550.867 795.686 551.081 792.286 551.702C783.045 553.705 782.937 545.493 778.114 553.257C783.097 555.677 791.249 552.139 793.808 557.083C794.372 566.436 778.456 559.382 773.17 559.278C762.076 554.846 779.92 543.37 781.868 537.139C778 536.163 768.631 536.119 770.079 530.539C771.287 528.549 773.887 528.086 776.087 528.605C779.86 528.901 783.755 530.94 787.511 529.977C789.316 529.322 790.879 529.296 792.45 530.728C794.736 532.779 797.803 532.759 800.588 533.005C804.233 534.216 830.306 531.969 824.292 538.868C815.533 542.423 805.243 539.139 795.931 539.565ZM856.534 562.635C876.164 576.44 855.769 579.813 842.6 580.219C836.748 579.992 828.704 581.858 825.252 575.89C823.502 573.4 826.505 572.106 828.352 571.314C833.843 564.155 840.415 557.074 843.572 548.352C847.114 535.732 899.12 548.507 856.534 562.635ZM862.996 551.958C858.115 550.522 850.53 551.374 849.838 556.281C854.606 556.278 858.751 554.529 862.996 551.958ZM836.323 573.641C838.899 573.422 856.722 572.727 854.433 569.371C851.271 566.903 848.066 564.572 844.876 562.196C840.354 566.338 836.318 571.682 836.323 573.641Z" fill="black"/>
<path d="M610.061 583.696C615.061 590.839 603.7 597.665 603.003 587.267C603.339 583.857 597.831 581.678 594.526 583.632C616.137 606.42 593.422 611.646 575.038 599.023C570.173 595.886 568.503 587.199 576.712 588.745C577.59 596.739 588.431 596.729 594.56 597.692C596.014 594.07 576.849 584.672 589.192 577.091C597.341 573.4 605.564 576.055 610.061 583.696ZM661.201 596.81C660.711 600.725 655.251 599.213 652.492 599.376C646.917 599.886 639.565 595.691 634.988 599.515C631.186 605.081 626.196 609.934 623.228 616.055C622.298 617.628 621.151 617.932 619.49 617.125C613.603 613.225 626.99 601.395 628.606 596.418C625.399 595.743 622.514 595.165 619.657 594.496C613.315 592.916 615.715 584.866 621.883 586.694C633.208 589.54 644.529 591.582 656.196 592.978C658.406 593.299 661.673 593.943 661.201 596.81ZM669.308 596.619C680.465 592.44 699.001 603.904 689.66 615.962C682.054 624.133 660.313 638.185 656.505 619.715C655.29 613.324 660.503 593.235 669.308 596.619ZM671.179 622.277C678.211 619.45 692.374 611.169 682.364 603.505C678.659 600.018 673.56 601.275 669.83 603.802C665.289 604.377 665.327 608.703 663.008 612.363C662.343 618.833 662.214 625.518 671.179 622.277ZM709.175 629.832C711.554 632.564 721.126 642.654 712.769 642.417C707.097 638.633 702.234 633.84 696.579 629.509C694.764 631.515 693.136 633.729 691.307 635.781C689.728 637.508 689.378 637.502 687.066 636.196C687.195 629.512 693.92 625.388 697.065 619.672C685.546 612.351 706.325 607.389 711.901 609.839C725.273 612.556 719.597 626.583 709.175 629.832ZM701.261 624.512C704.637 625.29 712.943 622.4 712.493 616.793C706.549 616.539 704.414 620.254 701.261 624.512ZM753.931 630.565C749.407 629.439 746.951 629.594 744.569 634.287C748.989 637.239 757.397 633.025 759.331 636.725C760.726 641.867 753.686 642.081 750.286 642.702C741.045 644.705 740.937 636.493 736.114 644.257C741.097 646.677 749.249 643.139 751.808 648.083C752.372 657.436 736.456 650.382 731.17 650.278C720.076 645.846 737.92 634.37 739.868 628.139C736 627.163 726.631 627.119 728.079 621.539C729.287 619.549 731.887 619.086 734.087 619.605C737.86 619.901 741.755 621.94 745.511 620.977C747.316 620.322 748.879 620.296 750.45 621.728C752.736 623.779 755.803 623.759 758.588 624.005C762.233 625.216 788.306 622.969 782.292 629.868C773.533 633.423 763.243 630.139 753.931 630.565ZM800.897 660.521C809.356 664.05 817.871 660.472 826.56 661.763C821.742 667.37 813.202 666.576 806.458 667.634C780.411 666.827 789.1 641.425 810.738 639.735C815.245 638.447 819.538 647.582 813.377 646.559C806.298 644.102 790.472 654.386 800.897 660.521Z" fill="black"/>
<path d="M26.5 867.5L176.541 640.51L227.404 672.337L81.8703 904.914L26.5 867.5Z" fill="white"/>
<path d="M31 1022.5L472.5 449.5L514 478L495.5 515L456 554.5L398.5 631L404 673.5L505.5 610.5L548 654L419.5 758.5L385.5 795L347 827L239.5 879L128 1022.5L31 1022.5Z" fill="white"/>
<path d="M399 476L421 480L357.542 554.575L326 533.5L340 516L360 497.5L399 476Z" fill="white"/>
<path d="M326 486.551L359.561 463L378.5 466L387 467.5L369.312 476.895L337 502L324.5 511L311 520L283.5 531.5L279 525.5L326 486.551Z" fill="white"/>
<path d="M270.5 504.5L290.5 487L306 487.5L304 491.5L301 495.5L294.5 503L286.5 509.5L282.5 513L277.5 515L268 518L265 516.5L263.5 513.5L270.5 504.5Z" fill="white"/>
<path d="M522.363 462.399L619.293 442.258L625 467.5L620 470.5L614 472.5L601.5 476.5L577.5 484.5L552.5 490.5L538 493.5L519.5 497.5L523.5 480L522.363 462.399Z" fill="#FFFEFE"/>
<path d="M1036.98 399L1126.5 447.332L817.02 1033L725 982L1036.98 399Z" fill="white"/>
</g>
<defs>
<clipPath id="clip0_81_122">
<rect width="1024" height="1024" fill="white"/>
</clipPath>
</defs>
</svg>
