<svg width="1024" height="1024" viewBox="0 0 1024 1024" fill="none" xmlns="http://www.w3.org/2000/svg">
<g clip-path="url(#clip0_28_1024)">
<path d="M0 0H1024V1024H0V0Z" fill="#FEFEFE"/>
<path d="M79.9177 397.323C80.1284 397.442 80.3501 397.543 80.5496 397.68C84.5176 400.4 89.6179 416.179 90.6168 421.034C89.1488 420.385 88.1645 419.864 87.2465 418.457C84.8678 414.813 79.1819 401.34 79.9177 397.323Z" fill="#231F20"/>
<path d="M212.069 374.707L213.949 375.096C219.362 380.529 224.155 384.547 231.737 386.2C233.626 386.612 236.416 386.861 238.046 387.847C238.909 388.369 238.595 388.05 238.887 389.184C238.154 389.339 237.421 389.51 236.684 389.644C230.858 390.697 224.151 387.712 219.431 384.413C216.09 382.078 212.733 378.873 212.069 374.707Z" fill="#231F20"/>
<path d="M406.11 219.172C409.259 220.662 417.061 224.233 418.307 227.501C418.223 229.049 417.73 229.541 416.795 230.696C413.731 230.411 409.388 229.249 406.77 227.536C405.219 226.521 404.437 225.373 404.001 223.555C404.232 221.698 405.033 220.667 406.11 219.172Z" fill="#231F20"/>
<path d="M431.384 233.344C431.461 233.344 431.538 233.346 431.615 233.344C433.557 233.299 435.091 233.646 436.955 234.178C440.564 235.209 445.962 236.486 447.913 240.011C448.139 241.489 447.733 242.309 447.15 243.616C442.585 243.337 434.151 240.501 430.996 237.167C430.491 235.467 430.848 234.995 431.384 233.344Z" fill="#231F20"/>
<path d="M187.308 436.308C188.845 436.698 189.052 436.657 190.053 437.856C190.669 442.882 179.41 455.022 176.334 459.759C175.158 460.113 175.153 460.089 174.01 459.626L173.768 458.539C175.162 453.558 183.591 439.622 187.308 436.308Z" fill="#231F20"/>
<path d="M310.413 212.225C311.695 212.61 312.533 213.153 313.218 214.345C315.277 217.928 319.89 243.957 318.509 247.835C318.221 247.787 317.932 247.754 317.647 247.692C316.405 247.419 315.69 247.337 315.082 246.137C313.42 242.861 309.68 218.684 309.681 215.093C309.682 214.07 310.054 213.165 310.413 212.225Z" fill="#231F20"/>
<path d="M565.91 130.942C568.711 131.201 570.995 131.995 573.47 133.327C578.161 135.85 584.184 140.166 585.603 145.528C586.111 147.445 585.642 148.623 584.653 150.255L582.751 150.04C579.966 148.362 578.444 144.325 575.972 142.119C572.83 139.315 565.783 138.549 564.274 134.513C564.442 132.983 565.056 132.157 565.91 130.942Z" fill="#231F20"/>
<path d="M328.325 265.396C329.013 265.561 329.694 265.75 330.368 265.963C334.782 267.338 357.62 277.299 359.26 280.568C358.983 282.348 357.966 283.384 356.866 284.728C352.392 284.134 332.673 274.688 328.367 271.884C326.789 270.857 326.331 270.382 325.95 268.526C326.307 267.044 327.241 266.368 328.325 265.396Z" fill="#231F20"/>
<path d="M898.659 489.832C902.345 490.223 905.424 491.972 908.475 493.981C918.178 500.369 926.602 512.452 928.727 523.918C929.2 526.472 928.861 527.202 927.431 529.245C926.562 529.118 925.447 528.851 924.793 528.218C921.869 525.387 917.547 511.014 913.269 505.86C908.947 500.652 902.032 498.152 897.912 493.064C897.628 491.506 897.974 491.216 898.659 489.832Z" fill="#231F20"/>
<path d="M633.766 208.376C634.471 208.364 635.339 208.305 636.022 208.478C638.599 209.129 647.431 218.491 649.451 221.059C649.716 222.422 649.48 223.038 648.77 224.242C646.839 227.517 642.431 233.598 638.744 234.69C637.226 234.64 636.613 234.053 635.509 233.131C636.161 230.68 637.241 228.39 638.245 226.067C635.668 226.102 632.47 226.506 629.973 225.836C628.294 225.386 626.694 224.708 625.83 223.135C625.982 222.275 625.885 222.202 626.534 221.509C629.547 218.296 635.329 218.869 639.292 218.89C637.714 216.794 635.585 215.146 634.139 212.943C633.03 211.252 633.33 210.189 633.766 208.376Z" fill="#231F20"/>
<path d="M297.899 227.612C298.411 227.523 299.447 227.256 300.006 227.322C301.205 227.463 301.511 228.233 302.187 229.114C302.25 229.754 302.442 230.2 302.081 230.78C301.221 232.163 299.174 232.867 297.687 233.344C291.578 235.306 284.709 236.044 278.421 237.479C268.592 239.721 258.847 242.494 249.105 245.092C248.805 245.163 248.512 245.27 248.205 245.304C247.029 245.434 245.934 245.07 245.144 244.28L245.242 243.098C245.961 242.08 246.683 241.189 247.822 240.617C251.051 238.995 255.473 238.317 259.001 237.348C271.877 233.747 284.843 230.501 297.899 227.612Z" fill="#231F20"/>
<path d="M385.596 192.966C386.871 193.047 387.891 193.239 388.761 194.216C388.634 194.634 388.585 194.889 388.324 195.276C385.572 199.37 333.419 216.565 325.618 218.429C324.546 218.441 324.092 218.273 323.11 217.901C322.531 216.686 322.762 216.73 323.092 215.502C324.738 213.29 339.244 209.768 342.639 208.632C357.08 203.802 371.276 198.151 385.596 192.966Z" fill="#231F20"/>
<path d="M181.245 168.576C181.959 168.53 182.788 168.43 183.506 168.555C184.74 168.771 185.623 169.546 186.298 170.552C186.033 173.427 183.98 173.287 181.616 174.007C166.207 178.701 152.213 185.824 142.679 199.168C141.494 199.789 140.724 200.036 139.389 200.139L138.743 199.337C138.618 196.587 139.641 194.91 141.064 192.649C149.367 179.459 166.635 171.907 181.245 168.576Z" fill="#231F20"/>
<path d="M88.8405 638.304C89.8449 638.609 90.5484 638.975 91.4213 639.556C92.6556 642.887 91.9838 658.894 92.2027 663.69C92.685 674.253 94.9434 684.45 95.894 694.931C96.0756 696.934 95.1624 697.813 93.9701 699.278C92.9423 699.168 92.2685 698.788 91.3671 698.303C88.6315 694.376 87.2818 670.832 86.9874 664.34C86.8033 660.282 85.9456 642.427 87.5198 639.748C87.8502 639.186 88.4002 638.785 88.8405 638.304Z" fill="#231F20"/>
<path d="M260.757 736.378L262.221 736.55C263.343 737.473 263.573 737.616 264.04 738.972C263.914 739.907 263.744 740.38 263.179 741.167C256.613 750.32 226.256 758.425 214.498 759.849C213.665 759.58 213.113 759.221 212.38 758.755C211.644 757.449 211.549 757.423 211.78 755.959C212.405 755.183 212.932 754.703 213.862 754.352C217.493 752.981 221.901 752.606 225.722 751.797C230.739 750.735 235.607 749.21 240.421 747.448C247.901 744.712 254.209 740.811 260.757 736.378Z" fill="#231F20"/>
<path d="M268.975 568.229C273.338 569.42 282.621 572.027 285.68 575.498C285.955 576.454 286.032 577.013 285.853 578.016C285.106 582.192 277.155 590.74 273.52 592.713C272.282 593.385 272.008 593.289 270.738 592.961C269.591 591.835 269.43 591.298 269.129 589.789C271.12 586.255 273.803 583.434 276.486 580.423C271.962 581.536 267.171 582.985 262.483 582.94C260.638 582.922 259.387 582.63 258.098 581.289C257.943 580.561 257.859 579.993 258.083 579.263C259.846 573.523 265.172 577.593 268.837 575.559C267.874 574.562 267.172 573.913 266.87 572.501C267.1 570.698 267.923 569.675 268.975 568.229Z" fill="#231F20"/>
<path d="M548.721 100.56C562.011 99.8404 586.45 110.416 596.539 119.15C601.817 123.718 607.739 130.907 607.961 138.215C608.036 140.721 607.148 142.143 605.423 143.86C602.506 143.011 602.63 141.121 601.82 138.515C600.35 133.788 597.964 129.305 594.616 125.635C586.243 116.455 567.969 110.103 556.119 107.338C553.524 106.733 549.068 107.249 547.03 105.633C546.427 105.155 546.562 104.628 546.474 103.921C547.048 102.525 547.731 101.66 548.721 100.56Z" fill="#231F20"/>
<path d="M177.288 134.687C180.092 134.413 183.711 134.501 186.386 135.392C187.671 135.821 188.174 136.215 188.819 137.376C188.756 137.843 188.758 138.063 188.525 138.523C187.044 141.442 180.071 139.697 177.042 140.166C156.448 143.352 129.608 160.585 117.462 177.277C116.481 178.897 115.387 180.64 114.012 181.956C112.88 183.039 112.316 183.304 110.776 183.246C110.671 182.964 110.515 182.697 110.46 182.401C109.696 178.289 113.677 172.889 116.12 169.819C129.551 152.939 155.858 136.976 177.288 134.687Z" fill="#231F20"/>
<path d="M877.656 453.552C888.91 453.044 901.146 454.744 911.284 459.841C935.926 472.232 950.737 498.939 959.009 524.235C960.464 528.685 963.794 537.052 961.554 541.474C960.164 541.346 958.912 541.367 958.044 540.15C956.04 537.342 955.624 530.886 954.467 527.394C949.067 511.101 941.1 495.101 929.869 482.044C919.61 470.118 908.433 462.468 892.612 460.369C889.458 459.951 886.294 460.044 883.136 459.758C880.754 459.542 878.898 459.451 877.312 457.53C876.988 456.028 877.282 454.992 877.656 453.552Z" fill="#231F20"/>
<path d="M288.528 743.745C290.288 744.322 290.891 744.687 291.947 746.173C292.081 747.13 292.072 747.621 291.692 748.541C288.427 756.449 268.214 766.447 260.288 769.804C232.44 781.602 195.407 788.715 166.725 777.026C165.948 776.684 165.317 776.149 164.632 775.649C164.092 774.255 164.024 773.969 164.231 772.496C166.891 770.107 170.369 772.013 173.321 773.068C185.29 777.346 197.215 777.508 209.78 776.529C231.069 774.87 260.7 766.605 278.164 753.879C282.176 750.956 285.305 747.499 288.528 743.745Z" fill="#231F20"/>
<path d="M401.452 160.711C402.047 160.967 402.647 161.212 403.201 161.549C405.154 162.737 405.571 166.061 406.102 168.127C432.492 175.905 458.288 185.64 483.84 195.797C493.623 199.686 503.22 204.064 513.067 207.778C514.233 206.977 515.412 206.159 516.714 205.593C517.775 205.131 518.806 204.824 519.969 205.014C524.318 205.725 544.183 214.759 550.19 217.252C554.026 218.844 558.196 218.049 561.802 219.666C564.214 222.774 563.705 287.704 565.096 299.06C566.613 299.081 568.243 298.885 569.575 299.707C570.039 300.937 570.025 301.184 569.818 302.49C566.767 306.756 558.11 310.244 553.547 312.865C539.72 320.808 525.968 328.843 511.733 336.052C487.995 348.073 463.376 358.447 439.032 369.171C422.066 376.646 405.248 384.546 388.342 392.172C379.935 395.945 371.561 399.789 363.22 403.704C356.487 406.888 349.744 410.498 342.641 412.774C315.761 404.57 285.29 380.975 265.023 361.848C260.69 370.411 255.248 378.59 250.436 386.915C242.9 399.953 235.676 413.784 229.414 427.476C227.101 432.532 224.045 438.523 222.928 443.936C221.683 449.971 222.166 456.592 221.932 462.739C221.408 476.522 220.005 490.8 215.777 503.971C210.299 521.032 200.083 534.439 183.991 542.649C189.402 559.202 193.878 576.078 198.989 592.726C201.843 602.019 205.172 611.196 208.367 620.378C215.261 640.193 222.604 659.847 229.774 679.564C232.95 688.299 236.521 696.998 239.319 705.855C240.235 708.754 240.845 711.582 239.79 714.515C238.716 715.456 238.718 715.351 237.272 715.321C233.81 712.964 234.808 708.563 233.385 704.978C229.997 696.446 225.926 688.164 222.453 679.657C216.526 665.14 211.239 650.291 206.032 635.503C201.834 623.449 197.753 611.356 193.788 599.224C191.493 592.27 189.468 584.985 186.621 578.238C184.877 574.105 180.586 571.041 178.217 567.189C175.079 562.084 173.573 555.773 171.1 550.306C168.841 545.31 165.7 542.543 160.598 540.562C159.382 540.09 157.79 539.858 156.673 539.243C155.509 538.602 155.449 538.24 155.151 537.065C157.481 534.658 170.051 536.883 174.296 535.887C182.601 533.94 189.232 528.033 194.378 521.518C207.65 504.716 211.704 485.162 213.408 464.337C214.064 456.309 214.34 448.642 216.77 440.89C224.185 417.225 236.265 394.345 249.062 373.199C247.293 373.809 245.503 374.406 243.641 374.648C239.169 375.228 234.074 374.377 230.452 371.589C230.08 371.304 229.725 371.001 229.386 370.679C229.046 370.357 228.724 370.018 228.42 369.663C228.115 369.308 227.83 368.938 227.564 368.553C227.298 368.168 227.052 367.77 226.828 367.36C226.603 366.949 226.4 366.528 226.22 366.097C226.038 365.666 225.88 365.226 225.745 364.778C225.609 364.33 225.498 363.876 225.41 363.417C225.321 362.957 225.257 362.494 225.217 362.028C224.673 355.164 229.676 347.317 234.17 342.415C247.66 327.702 255.457 340.169 262.611 339.877L262.999 339.103C262.328 336.548 260.37 333.788 258.306 332.153C255.527 329.953 252.146 329.37 248.698 329.934C223.843 333.999 193.087 379.407 179.231 399.559C181.812 399.173 184.524 398.563 186.992 399.634C187.782 400.72 187.941 400.907 188.056 402.23C185.883 405.084 180.594 404.771 177.282 406.012C170.941 408.389 167.472 411.634 162.488 416.032C158.07 419.931 148.81 427.608 142.675 427.226C141.487 426.567 141.392 426.374 140.721 425.178C140.658 419.393 154.524 416.042 158.227 410.844C158.328 410.702 158.425 410.558 158.524 410.415C147.865 399.663 132.915 384.138 125.824 370.89C124.416 371.155 122.957 371.474 121.523 371.528C120.14 371.581 118.74 371.173 117.777 370.145C117.202 369.532 117.411 369.085 117.416 368.302C118.81 365.843 120.569 365.122 123.199 364.306C128.787 352.133 137.693 318.354 131.402 306.154C129.279 302.036 123.576 300.171 123.425 295.082C123.934 294.075 124.023 293.69 125.239 293.432C129.923 292.442 138.738 296.92 142.155 299.78C150.914 297.251 158.754 293.234 166.497 288.468C180.109 280.088 199.668 267.886 203.213 251.058C203.852 248.029 204.319 242.532 202.651 239.872C199.389 238.531 194.2 243.655 190.833 244.73C189.31 245.216 188.269 245.286 186.84 244.582L186.523 243.281C188.101 239.243 193.928 238.988 196.856 235.706C196.622 234.492 196.511 234.579 195.485 233.85C185.106 234.995 171.492 244.885 162.447 250.277C152.243 256.214 142.201 262.337 131.767 267.874C123.602 272.208 114.712 275.817 107.019 280.916C103.427 283.296 100.744 289.673 99.028 293.538C93.387 306.246 89.9959 320.009 85.3201 333.098C80.0321 347.899 63.9877 380.077 64.5395 394.297C64.9054 403.726 69.233 413.694 71.7978 422.722C76.6328 440.41 81.8561 457.983 87.4676 475.44C91.8966 489.679 96.614 503.559 100.18 518.06C104.351 535.027 105.063 552.932 107.675 570.211C110.158 586.638 113.238 602.987 115.947 619.379C119.235 640.47 122.804 661.513 126.654 682.508C127.611 687.482 128.381 693.169 130.118 697.929C131.548 701.848 134.044 705.516 135.069 709.568C135.915 712.907 134.853 716.522 135.517 719.934C136.523 725.106 141.851 732.113 140.214 737.529C139.843 738.755 139.802 738.914 138.672 739.477C138.206 739.384 137.936 739.358 137.486 739.109C133.014 736.633 130.892 726.663 129.317 721.957C117.782 687.488 111.311 651.669 105.142 615.919C102.874 602.771 100.334 589.666 98.1962 576.497C94.6731 554.788 91.4551 533.008 86.6451 511.536C81.5727 488.892 74.4616 466.892 68.1123 444.603C64.7063 432.225 61.5566 419.782 58.6633 407.274C56.7466 399.039 56.5297 391.921 58.1689 383.585C62.3153 362.499 69.9823 351.15 76.8732 332.049C82.8296 315.538 85.7094 297.049 95.1594 282.051C97.8073 277.848 100.554 273.841 104.815 271.133C109.249 268.316 114.589 266.911 119.381 264.786C125.419 262.109 131.323 258.937 137.119 255.776C144.517 251.693 151.854 247.505 159.131 243.21C167.777 238.038 183.543 226.576 192.955 224.748C196.27 224.104 200.164 224.481 203.197 226.01C209.51 229.19 209.435 236.209 218.415 241.185C228.051 246.523 238.75 249.713 248.634 254.532C272.257 266.048 294.878 279.815 317.329 293.431C323.288 297.045 329.915 299.72 335.637 303.667C353.531 295.614 372.68 289.568 391.096 282.761C413.286 274.505 435.4 266.051 457.44 257.4C476.016 250.255 494.738 243.359 512.964 235.346C510.456 228.607 511.819 221.825 512.661 214.912C501.111 210.424 489.842 205.269 478.355 200.62C454.685 190.796 430.66 181.932 406.282 174.027C406.964 180.86 407.168 187.711 407.757 194.546C407.994 197.299 408.95 200.586 408.569 203.287C408.317 205.074 407.617 206.448 406.173 207.541C405.417 207.607 405.139 207.812 404.493 207.303C400.363 204.048 400.298 178.96 399.409 172.593C392.487 174.027 385.644 176.146 378.832 178.033C364.854 181.821 351.011 186.051 337.303 190.723C328.053 193.912 318.761 197.176 309.69 200.846C297.973 205.586 286.37 210.808 274.496 215.138C266.766 217.958 220.495 233.136 215.376 231.983L215.087 231.02C215.7 228.045 218.379 226.782 220.944 225.628C226.855 222.97 233.452 221.535 239.672 219.792C248.11 217.443 256.492 214.909 264.818 212.188C288.725 204.272 311.726 193.966 335.616 186.033C349.244 181.507 363.156 177.659 376.914 173.534C383.851 171.454 391.096 169.607 397.773 166.801C398.645 166.434 398.673 166.166 399.197 165.415C399.351 162.926 399.763 162.357 401.452 160.711Z" fill="#231F20"/>
<path d="M158.718 381.259C162.375 383.385 166.991 394.318 168.994 398.425L165.126 402.956C164.515 403.768 164.009 404.561 163.156 405.138C162.694 405.451 162.724 405.452 162.168 405.276C159.559 404.451 157.413 399.141 156.105 396.739C157.869 391.383 158.583 386.901 158.718 381.259Z" fill="#FEFEFE"/>
<path d="M274.533 344.542L275.817 343.792C276.109 341.471 275.198 339.79 274.312 337.708C274.02 337.021 274.061 337.311 274.121 336.68C274.423 336.711 274.723 336.764 275.026 336.772C275.238 336.778 275.448 336.738 275.659 336.72C276.804 337.482 277.454 337.918 277.837 339.303C278.601 342.061 276.675 345.882 279.036 347.945C280.381 347.847 280.466 347.809 281.514 346.958C282.076 345.328 282.093 343.899 282.112 342.184L282.723 341.447C285.162 341.67 285.439 344.504 287.658 344.726C290.105 344.971 293.764 347.324 295.844 348.665C296.373 352.896 296.177 356.874 295.988 361.115C292.034 360.317 282.451 352.971 279.062 350.381C277.101 348.881 274.871 347.125 274.533 344.542Z" fill="#FEFEFE"/>
<path d="M285.642 346.677C287.045 346.79 287.957 346.894 289.254 347.509C290.059 348.934 289.938 349.617 289.954 351.228C288.761 351.376 288.12 351.282 286.986 350.886C285.829 349.713 285.847 348.231 285.642 346.677Z" fill="#231F20"/>
<path d="M245.644 339.056C246.753 338.986 247.901 338.916 249.008 339.027C253.877 339.512 257.399 343.426 260.438 346.854C259.76 349.974 258.956 353.099 257.737 356.057C255.138 362.364 251.141 365.546 245.015 368.06C242.992 368.48 240.955 368.793 238.968 368.087C236.087 367.063 233.885 365.064 232.608 362.288C230.982 358.754 230.757 354.475 232.216 350.853C234.566 345.023 240.177 341.547 245.644 339.056Z" fill="#FEFEFE"/>
<path d="M175.192 348.224C182.135 353.015 188.245 360.225 193.682 366.617C189.201 373.861 183.654 380.374 179.276 387.715L176.528 392.021C173.473 383.459 168.667 376.462 163.542 369.041C169.55 363.335 172.775 356.024 175.192 348.224Z" fill="#FEFEFE"/>
<path d="M205.894 266.392C206.902 267.701 208.93 293.633 209.727 298.633C211.235 308.09 213.79 317.04 216.959 326.05C211.015 322.437 205.369 318.685 200.03 314.212C192.481 307.128 185.327 299.627 177.743 292.556C187.018 283.627 198.228 276.881 205.894 266.392Z" fill="#FEFEFE"/>
<path d="M141.565 328.427C149.333 328.677 157.936 332.786 165.542 334.78C167.817 337.519 169.577 340.378 171.307 343.483C166.01 351.656 163.889 357.575 156.525 364.685C151.062 364.132 140.401 360.19 135.677 362.64C134.875 363.84 134.866 363.9 134.934 365.344C136.539 367.801 139.981 368.577 142.617 369.499C145.442 370.426 149.119 371.23 150.978 373.723C153.034 376.48 152.913 382.318 152.248 385.608C151.975 386.959 151.587 388.056 150.415 388.82C146.313 386.713 135.097 371.002 131.541 366.643C139.19 354.002 138.323 342.551 141.457 328.881L141.565 328.427Z" fill="#FEFEFE"/>
<path d="M172.172 297.364C174.913 298.526 191.781 319.682 196.881 323.93C201.994 328.188 219.894 334.483 221.472 337.209C219.107 339.487 216.458 341.4 214.131 343.739C209.263 348.632 204.882 354.062 200.2 359.14C198.033 356.009 195.653 353.31 192.988 350.597C186.525 344.376 178.241 339.348 172.527 332.459C174.345 330.146 176.371 327.957 178.232 325.667C177.257 324.208 176.133 322.421 174.209 322.251C171.638 322.022 169.209 324.971 167.539 326.62C159.742 321.832 151.855 321.201 142.976 320.382L143.354 310.936C154.1 307.726 163.164 304.141 172.172 297.364Z" fill="#FEFEFE"/>
<path d="M214.518 245.535C230.463 254.401 247.674 260.287 263.682 268.968C281.175 278.453 298.129 288.961 315.468 298.731C320.778 301.723 326.075 305.183 331.563 307.806C328.584 318.641 336.517 390.552 338.873 405.68C326.801 399.695 314.12 393.153 302.969 385.599C294.705 380 287.069 373.511 279.464 367.064C275.188 363.44 270.649 359.904 266.692 355.935C267.269 353.495 267.768 351.006 268.556 348.624C273.345 352.092 291.783 364.885 296.468 365.58C297.315 364.87 298.224 364.141 298.895 363.257C301.163 360.268 301.065 352.607 300.483 348.969C300.057 346.304 297.377 344.742 295.291 343.358C291.593 340.906 275.311 330.273 271.765 331.019C271.082 332.131 270.903 332.135 271.147 333.394C271.956 334.317 272.662 335.147 273.291 336.209L271.79 336.587C271.146 337.477 271.089 337.721 271.034 338.791C270.931 340.778 271.139 342.964 272.497 344.483L271.61 345.188C270.502 344.606 270.144 344.091 269.771 342.871C267.594 335.755 267.94 330.362 260.751 325.702C256.306 322.82 251.135 321.962 245.988 323.133C238.868 324.754 231.819 329.065 226.222 333.637C221.343 320.294 216.973 306.812 215.256 292.651C213.93 281.713 214.076 269.807 211.323 259.159C213.149 254.469 214.398 250.608 214.518 245.535Z" fill="#FED496"/>
<path d="M255.805 285.733C260.985 286.721 291.435 301.665 293.938 305.498C295.486 307.869 294.293 323.558 293.431 327.004C292.808 327.096 292.436 327.173 291.774 327.158C288.012 327.072 258.224 310.445 254.505 307.075C254.474 300.839 253.056 291.288 255.805 285.733Z" fill="#231F20"/>
<path d="M259.014 291.922C268.278 295.859 281.849 302.626 290.329 307.96C290.404 312.798 290.167 317.623 289.964 322.455C284.921 320.635 280.214 317.108 275.572 314.442C270.258 311.389 264.736 308.66 259.598 305.312C259.43 300.847 259.235 296.384 259.014 291.922Z" fill="#FEFEFE"/>
<path d="M263.259 297.173C263.706 297.232 264.033 297.252 264.453 297.374C265.917 297.798 267.702 299.283 268.348 300.644C269.067 302.157 268.708 302.764 268.298 304.247C266.43 304.124 264.361 304.062 263.192 302.324C262.102 300.705 262.689 298.833 263.259 297.173Z" fill="#231F20"/>
<path d="M270.793 301.618C272.401 301.872 274.637 302.146 275.777 303.441C277.224 305.085 276.574 308.089 276.391 310.082C274.782 309.479 272.511 308.664 271.378 307.36C269.931 305.694 270.486 303.577 270.793 301.618Z" fill="#231F20"/>
<path d="M282.468 307.212C283.205 307.397 283.818 307.599 284.459 308.036C285.622 308.83 286.107 309.825 286.387 311.175C286.758 312.962 286.064 314.666 285.14 316.143C284.014 315.672 282.834 315.077 281.935 314.229C280.978 313.327 280.365 312.114 280.434 310.779C280.517 309.161 281.409 308.285 282.468 307.212Z" fill="#231F20"/>
<path d="M556.126 226.043C556.309 226.286 556.571 226.487 556.677 226.773C557.291 228.431 556.873 232.671 556.93 234.551C557.231 244.469 557.236 254.4 557.612 264.314C557.842 270.406 558.488 276.478 558.601 282.574C558.734 289.735 558.402 296.888 558.593 304.058C549.98 309.3 540.914 313.956 532.002 318.673C491.199 340.27 448.454 357.687 406.589 377.03L370.757 393.805C363.899 397.024 351.896 403.56 344.678 404.892C343.898 403.535 343.885 402.155 343.691 400.624C339.911 370.369 337.486 339.389 336.404 308.908C336.444 308.9 336.484 308.892 336.525 308.884C343.028 307.745 349.621 304.782 355.793 302.42C365.379 298.68 374.984 294.988 384.606 291.344C441.904 270.064 498.104 245.26 556.126 226.043Z" fill="#FED496"/>
<path d="M902.344 98.7082C904.628 98.2849 907.438 98.4082 909.715 98.6765C919.947 99.8816 931.055 105.155 937.498 113.339C941.467 118.381 943.545 124.383 944.568 130.662C947.381 147.933 948.015 168.009 949.23 185.59C951.078 212.587 952.648 239.601 953.939 266.631C954.639 283.785 954.802 300.946 955.419 318.101C956.008 334.489 959.755 351.007 957.612 367.406C956.325 377.248 952.861 386.126 944.678 392.281C938.437 396.975 930.373 398.878 922.775 399.935C908.896 401.867 894.564 401.906 880.573 402.571L793.132 405.899L745.371 407.94C736.114 408.305 726.171 409.322 716.992 408.086C713.216 412.27 709.933 415.038 704.98 417.767C701.828 419.267 698.686 420.683 695.349 421.727C687.79 424.091 678.333 424.902 671.194 420.905C668.169 419.211 662.908 414.421 662.475 410.761C662.308 409.349 662.671 408.225 663.768 407.277C665.616 405.68 668.357 404.681 670.544 403.617C676.535 400.702 681.464 397.166 685.724 391.963C688.217 388.92 690.195 385.403 690.837 381.482C692.018 374.268 691.523 366.511 691.544 359.209C691.656 345.078 691.518 330.95 691.129 316.825C690.509 289.834 690.564 262.79 689.331 235.819C688.357 214.517 686.301 193.24 684.361 172.01C682.891 155.92 680.789 140.005 692.008 126.746C695.575 122.531 699.615 119.776 704.933 118.208C710.429 116.588 716.514 116.204 722.195 115.486C733.621 114.052 745.061 112.75 756.517 111.58C792.561 107.689 828.65 104.264 864.782 101.305C877.294 100.291 889.835 99.7373 902.344 98.7082Z" fill="#231F20"/>
<path d="M902.535 104.724C903.016 104.732 903.497 104.751 903.977 104.78C904.457 104.81 904.937 104.851 905.415 104.902C905.893 104.953 906.37 105.015 906.845 105.088C907.321 105.161 907.795 105.244 908.266 105.338C908.738 105.433 909.208 105.538 909.674 105.653C910.142 105.768 910.606 105.894 911.068 106.031C911.529 106.167 911.987 106.314 912.441 106.471C912.896 106.628 913.347 106.796 913.794 106.973C914.241 107.15 914.684 107.338 915.122 107.536C915.561 107.733 915.995 107.941 916.424 108.158C916.854 108.375 917.278 108.601 917.698 108.838C918.116 109.074 918.53 109.32 918.938 109.575C919.345 109.83 919.747 110.094 920.143 110.367C920.539 110.64 920.929 110.922 921.312 111.213C921.696 111.504 922.072 111.803 922.441 112.111C922.811 112.419 923.174 112.735 923.529 113.059C927.689 116.91 929.812 120.843 930.878 126.323C932.483 134.566 932.456 143.126 932.719 151.499C932.971 162.274 933.391 173.043 933.98 183.806C934.786 197.487 936.191 211.137 936.832 224.825C938.212 254.272 938.501 283.757 939.579 313.212C940 324.726 941.231 336.21 941.505 347.726C941.741 357.66 942.175 368.441 934.602 376.081C930.201 380.522 924.147 383.557 918.049 384.811C908.809 386.712 899.126 386.932 889.737 387.667C861.665 389.862 833.645 390.129 805.542 391.46C773.244 392.991 740.716 397.146 708.38 396.733C704.458 399.285 700.805 402.388 696.943 405.07C690.547 408.656 683.084 410.501 675.802 411.071C673.985 411.213 672.803 411.281 671.396 410.067C673.265 407.753 677.71 406.171 680.284 404.428C683.563 402.208 686.592 399.356 689.141 396.333C692.535 392.309 695.899 387.164 696.93 381.928C698.062 376.169 697.535 370.013 697.665 364.167C698.009 348.679 697.877 333.475 697.488 317.99C696.219 267.439 694.641 217.103 690.167 166.711C689.059 154.231 687.667 141.37 696.389 131.122C699.424 127.556 703.233 124.8 707.794 123.6C714.12 121.934 721.341 121.724 727.844 120.95C744.677 118.949 761.536 117.2 778.422 115.702C819.756 111.63 861.127 107.971 902.535 104.724Z" fill="#FEFEFE"/>
<path d="M905.074 358.484C905.201 358.463 905.328 358.449 905.456 358.441C905.584 358.433 905.712 358.431 905.84 358.436C905.968 358.441 906.096 358.452 906.223 358.469C906.35 358.486 906.476 358.51 906.601 358.539C906.726 358.569 906.848 358.605 906.969 358.646C907.09 358.688 907.209 358.736 907.326 358.789C907.443 358.843 907.556 358.902 907.667 358.967C907.778 359.032 907.885 359.102 907.989 359.177C908.092 359.252 908.192 359.333 908.288 359.418C908.384 359.503 908.475 359.592 908.562 359.687C908.649 359.781 908.732 359.879 908.809 359.981C908.886 360.084 908.958 360.19 909.025 360.299C909.092 360.408 909.153 360.521 909.209 360.636C909.265 360.751 909.315 360.869 909.359 360.99C909.403 361.11 909.441 361.232 909.473 361.357C909.505 361.481 909.531 361.606 909.551 361.733C909.571 361.86 909.584 361.987 909.591 362.115C909.598 362.243 909.599 362.371 909.594 362.499C909.589 362.628 909.577 362.755 909.558 362.882C909.54 363.009 909.516 363.134 909.485 363.259C909.455 363.384 909.419 363.506 909.376 363.627C909.333 363.748 909.285 363.867 909.23 363.983C909.176 364.099 909.116 364.212 909.051 364.323C908.986 364.433 908.915 364.54 908.839 364.643C908.763 364.746 908.682 364.846 908.596 364.941C908.51 365.036 908.42 365.127 908.325 365.213C908.23 365.3 908.132 365.381 908.029 365.458C907.926 365.535 907.82 365.606 907.71 365.672C907.6 365.738 907.487 365.799 907.371 365.854C907.256 365.909 907.137 365.958 907.016 366.001C906.895 366.044 906.773 366.082 906.649 366.113C906.524 366.144 906.399 366.169 906.272 366.188C906.146 366.207 906.02 366.219 905.893 366.225C905.766 366.232 905.639 366.232 905.512 366.226C905.385 366.22 905.258 366.208 905.133 366.189C905.007 366.17 904.882 366.146 904.759 366.115C904.636 366.084 904.514 366.048 904.394 366.005C904.275 365.963 904.157 365.915 904.042 365.861C903.927 365.807 903.815 365.747 903.706 365.682C903.597 365.617 903.491 365.547 903.388 365.472C903.285 365.397 903.187 365.316 903.093 365.231C902.998 365.146 902.908 365.057 902.822 364.963C902.736 364.869 902.655 364.771 902.579 364.669C902.503 364.568 902.432 364.463 902.366 364.354C902.3 364.245 902.239 364.134 902.184 364.019C902.129 363.904 902.08 363.787 902.037 363.668C901.993 363.549 901.955 363.427 901.924 363.304C901.892 363.181 901.866 363.056 901.847 362.931C901.828 362.806 901.814 362.679 901.807 362.552C901.8 362.425 901.799 362.298 901.804 362.171C901.809 362.044 901.821 361.918 901.838 361.792C901.856 361.666 901.88 361.541 901.909 361.418C901.939 361.294 901.975 361.172 902.017 361.052C902.058 360.932 902.106 360.814 902.159 360.699C902.212 360.584 902.271 360.471 902.336 360.361C902.4 360.252 902.469 360.145 902.544 360.042C902.619 359.939 902.698 359.84 902.782 359.745C902.867 359.65 902.956 359.56 903.049 359.473C903.142 359.386 903.239 359.305 903.34 359.228C903.441 359.151 903.546 359.08 903.655 359.013C903.763 358.946 903.874 358.885 903.988 358.829C904.103 358.773 904.219 358.723 904.338 358.679C904.457 358.634 904.578 358.596 904.701 358.563C904.824 358.531 904.949 358.505 905.074 358.484Z" fill="#231F20"/>
<path d="M919.403 364.093L920.784 364.117L921.306 364.671C920.341 366.583 916.086 368.816 914.256 370.282C909.3 374.252 905.161 379.197 900.213 383.147C898.698 384.356 897.123 385.231 895.387 386.075C894.41 385.7 893.88 385.486 893.217 384.66C893.42 384.118 893.424 384.032 893.796 383.473C896.806 378.947 910.258 367.826 915.014 365.386C916.405 364.672 917.876 364.361 919.403 364.093Z" fill="#231F20"/>
<path d="M885.041 332.268C889.187 332.083 893.062 331.543 896.922 333.353L896.882 333.989C890.648 336.589 831.271 338.004 819.195 338.543C803.485 339.157 787.794 340.089 772.122 341.338C768.114 341.601 765.048 341.819 761.138 340.632L761.112 339.541L760.479 340.048L761.367 340.632L761.844 339.273C774.108 336.233 787.969 336.215 800.609 335.45C828.73 333.771 856.874 332.711 885.041 332.268Z" fill="#231F20"/>
<path d="M871.706 350.223C876.61 350.039 881.567 349.682 886.46 350.146C887.433 350.857 887.192 350.703 887.36 351.784L886.807 352.533C881.452 355.083 790.764 358.877 778.75 359.5C774.087 359.623 767.41 361.116 763.061 359.366L763.229 358.759C775.373 353.506 854.118 350.838 871.706 350.223Z" fill="#231F20"/>
<path d="M777.519 242.722C778.052 242.782 778.49 242.802 779.008 242.994C780.423 243.517 781.029 245.431 781.594 246.698C785.622 247.857 789.414 249.418 792.754 252.005C798.484 256.441 801.608 262.969 802.576 270.031C803.7 278.227 802.687 286.899 797.444 293.6C792.129 300.392 784.899 302.345 776.798 303.455C771.977 303.321 767.253 302.952 762.814 300.867C762.513 300.728 762.214 300.582 761.92 300.427C761.626 300.273 761.336 300.111 761.051 299.942C760.765 299.773 760.483 299.596 760.207 299.413C759.93 299.229 759.659 299.038 759.392 298.84C759.125 298.642 758.864 298.437 758.608 298.226C758.352 298.015 758.101 297.797 757.857 297.573C757.612 297.348 757.373 297.118 757.14 296.881C756.907 296.644 756.681 296.402 756.46 296.153C756.24 295.905 756.026 295.651 755.819 295.391C755.611 295.132 755.411 294.867 755.218 294.597C755.025 294.327 754.838 294.052 754.659 293.773C754.479 293.494 754.307 293.21 754.143 292.921C753.978 292.633 753.821 292.341 753.672 292.044C753.522 291.747 753.381 291.447 753.247 291.143C753.113 290.839 752.987 290.532 752.869 290.222C752.751 289.911 752.641 289.598 752.539 289.282C749.763 280.925 750.592 270.09 754.564 262.245C759.062 253.361 766.557 249.311 775.573 246.308C776.124 245.062 776.838 243.9 777.519 242.722Z" fill="#231F20"/>
<path d="M781.297 250.472C782.926 250.883 784.663 251.335 786.143 252.15C790.843 254.736 796.199 261.209 797.466 266.389C797.817 267.822 798.112 269.086 797.343 270.353C791.978 270.684 786.648 271.34 781.27 271.619L781.297 250.472Z" fill="#4B6F4C"/>
<path d="M774.482 250.987L775.08 251.249C776.841 254.715 775.913 267.922 775.375 272.034C773.053 272.021 770.531 271.558 768.237 271.756C766.085 271.942 763.437 272.862 762.109 274.607C762.163 275.416 761.995 275.384 762.51 275.882C765.417 278.69 771.851 277.423 775.515 277.103C775.476 281.392 775.108 286.006 775.619 290.256C775.881 292.436 776.332 294.741 778.111 296.18L779.046 295.806C782.613 291.016 781.536 282.449 781.5 276.716C787.316 276.301 793.096 275.679 798.925 275.406L798.122 281.315C797.504 283.333 796.936 285.446 796.055 287.369C793.817 292.255 790.039 295.912 784.923 297.648C778.792 299.728 770.538 299.766 764.764 296.741C760.771 294.65 758.08 291.188 756.809 286.881C754.692 279.71 755.651 269.509 759.246 262.948C759.447 262.586 759.657 262.229 759.877 261.877C760.096 261.526 760.324 261.18 760.561 260.84C760.797 260.499 761.042 260.165 761.296 259.837C761.548 259.509 761.809 259.187 762.079 258.872C762.348 258.557 762.625 258.248 762.909 257.947C763.193 257.646 763.485 257.351 763.784 257.064C764.083 256.777 764.389 256.498 764.702 256.226C765.015 255.954 765.335 255.69 765.661 255.435C765.987 255.179 766.319 254.931 766.657 254.692C766.995 254.452 767.339 254.221 767.689 253.999C768.039 253.776 768.394 253.563 768.754 253.358C769.114 253.153 769.48 252.958 769.85 252.771C770.22 252.585 770.594 252.408 770.973 252.24C771.351 252.072 771.734 251.913 772.122 251.764C772.508 251.615 772.898 251.476 773.292 251.346C773.686 251.217 774.082 251.097 774.482 250.987Z" fill="#4B6F4C"/>
<path d="M837.504 232.275C844.102 238.388 851.558 250.077 858.514 257.353C861.031 259.986 868.943 265.436 870.02 268.229C870.796 270.239 870.263 277.161 870.402 279.878C870.908 289.765 872.266 299.586 872.796 309.46C872.877 310.963 872.989 312.452 872.379 313.859C863.877 317.71 837.807 318.528 827.195 319.581C814.309 320.802 801.449 322.256 788.616 323.945C779.829 324.865 769.193 326.294 760.475 324.876C759.02 324.639 758.622 324.337 757.719 323.197L758.24 322.405C761.133 321.55 774.843 322.006 779.393 321.649C792.08 320.653 804.722 318.715 817.363 317.215C817.073 309.302 816.593 301.401 815.923 293.511C815.397 287.84 814.253 282.053 814.3 276.356C814.32 273.996 814.867 271.894 815.732 269.707C818.445 262.843 832.541 237.126 837.504 232.275Z" fill="#231F20"/>
<path d="M837.787 237.943C839.994 240.246 841.79 243.466 843.686 246.054C849.631 254.167 858.206 265.714 866.891 270.556C867.357 284.099 868.155 297.716 868.958 311.245C861.214 312.494 853.429 313.13 845.62 313.826C837.27 314.736 828.891 315.407 820.578 316.636C819.734 302.815 818.772 289.295 817.003 275.55C823.208 262.534 830.535 250.39 837.787 237.943Z" fill="#FEFEFE"/>
<path d="M843.547 274.623C845.257 274.539 846.541 274.448 848.007 275.474C848.528 276.761 848.537 276.723 848.091 278.034C847.012 279.23 846.058 279.498 844.573 279.95L843.999 280.118C841.929 282.424 844.407 295.976 843.77 300.148C843.585 301.355 843.339 301.809 842.344 302.469C840.804 302.367 840.315 301.881 839.169 300.944C837.814 294.576 838.449 287.264 838.471 280.774C837.059 281.061 835.422 281.51 833.989 281.251C832.827 281.041 831.842 280.233 831.151 279.331L831.418 278.528C834.694 276.321 839.738 275.556 843.547 274.623Z" fill="#231F20"/>
<path d="M890.5 163.211C895.887 162.909 901.377 162.99 905.666 166.796C908.415 169.236 909.898 172.859 910.162 176.482C910.78 184.95 912.81 198.339 906.602 205.163C904.408 207.573 901.744 208.731 898.565 209.254C893.69 210.055 888.46 209.964 883.51 210.217C874.348 210.65 865.196 211.243 856.054 211.996C817.947 215.35 779.876 219.294 741.676 221.426L741.21 221.438L740.432 221.445C736.7 221.506 733.989 221.096 730.956 218.737C725.118 214.196 724.56 206.531 722.78 199.956C721.944 196.867 720.677 193.564 720.462 190.376C720.285 187.749 720.736 184.824 722.559 182.807C725.344 179.726 729.758 178.505 733.714 177.804C740.902 176.529 748.433 176.489 755.712 175.989C765.762 175.214 775.803 174.34 785.835 173.367C820.701 170 855.56 165.734 890.5 163.211Z" fill="#231F20"/>
<path d="M871.06 180.989C871.859 181.048 872.632 181.184 873.403 181.4C875.163 181.892 876.312 182.859 877.154 184.484C878.027 186.168 878.05 188.078 877.351 189.83C876.402 192.209 875.04 193.186 872.749 194.163C871.803 194.15 870.809 194.107 869.878 193.924C868.348 193.623 866.858 192.546 866.12 191.164C865.463 189.93 865.43 188.489 865.784 187.165C866.603 184.106 868.471 182.601 871.06 180.989Z" fill="#FEFEFE"/>
<path d="M888.9 180.265C889.003 180.243 889.106 180.223 889.209 180.206C889.313 180.189 889.417 180.175 889.521 180.163C889.625 180.151 889.729 180.142 889.834 180.135C889.939 180.128 890.043 180.124 890.148 180.122C890.253 180.12 890.358 180.121 890.463 180.124C890.568 180.128 890.672 180.134 890.777 180.142C890.882 180.151 890.986 180.162 891.09 180.175C891.194 180.189 891.297 180.205 891.4 180.224C891.503 180.243 891.606 180.264 891.709 180.287C891.811 180.311 891.912 180.337 892.013 180.366C892.114 180.394 892.215 180.425 892.314 180.459C892.413 180.492 892.512 180.528 892.609 180.566C892.707 180.605 892.804 180.645 892.899 180.688C892.995 180.731 893.09 180.777 893.183 180.824C893.276 180.872 893.369 180.922 893.46 180.974C893.551 181.026 893.64 181.08 893.729 181.137C893.817 181.194 893.904 181.252 893.99 181.313C894.075 181.374 894.159 181.436 894.241 181.501C894.324 181.566 894.405 181.633 894.484 181.702C894.563 181.771 894.641 181.841 894.716 181.914C894.792 181.986 894.866 182.06 894.938 182.137C895.01 182.213 895.08 182.291 895.149 182.37C895.217 182.45 895.283 182.531 895.348 182.614C895.412 182.697 895.474 182.781 895.534 182.867C895.595 182.953 895.653 183.04 895.709 183.129C895.765 183.218 895.819 183.308 895.87 183.399C895.921 183.49 895.971 183.583 896.018 183.677C896.065 183.77 896.11 183.865 896.152 183.961C896.195 184.057 896.235 184.154 896.272 184.252C896.31 184.35 896.345 184.449 896.378 184.548C896.411 184.647 896.442 184.748 896.47 184.849C896.498 184.95 896.523 185.052 896.546 185.154C896.569 185.257 896.59 185.36 896.608 185.463C896.626 185.566 896.641 185.67 896.654 185.774C896.667 185.878 896.678 185.982 896.685 186.087C896.693 186.192 896.698 186.296 896.701 186.401C896.704 186.506 896.704 186.61 896.702 186.715C896.699 186.82 896.694 186.925 896.687 187.03C896.68 187.135 896.67 187.239 896.657 187.343C896.644 187.447 896.629 187.551 896.611 187.654C896.594 187.757 896.574 187.86 896.551 187.963C896.528 188.065 896.503 188.167 896.476 188.268C896.448 188.369 896.418 188.47 896.385 188.569C896.353 188.669 896.318 188.768 896.281 188.866C896.244 188.964 896.204 189.061 896.161 189.157C896.119 189.253 896.075 189.348 896.028 189.442C895.981 189.536 895.932 189.629 895.881 189.72C895.83 189.812 895.776 189.902 895.721 189.991C895.666 190.08 895.608 190.167 895.548 190.253C895.488 190.34 895.426 190.424 895.362 190.507C895.298 190.59 895.232 190.672 895.164 190.752C895.096 190.831 895.026 190.909 894.954 190.986C894.882 191.063 894.808 191.137 894.733 191.21C894.658 191.283 894.58 191.354 894.501 191.423C894.422 191.492 894.342 191.559 894.26 191.624C894.177 191.689 894.093 191.752 894.008 191.813C893.923 191.874 893.836 191.933 893.748 191.99C893.66 192.047 893.571 192.101 893.48 192.154C893.389 192.207 893.296 192.257 893.203 192.305C893.11 192.353 893.016 192.399 892.92 192.442C892.825 192.485 892.728 192.526 892.631 192.565C892.534 192.604 892.435 192.64 892.336 192.673C892.237 192.707 892.136 192.739 892.035 192.768C891.934 192.797 891.833 192.823 891.731 192.847C891.628 192.871 891.524 192.893 891.419 192.912C891.315 192.931 891.21 192.948 891.105 192.962C891 192.976 890.894 192.987 890.788 192.996C890.682 193.005 890.576 193.011 890.47 193.015C890.364 193.018 890.258 193.019 890.152 193.018C890.046 193.016 889.94 193.012 889.834 193.005C889.728 192.998 889.622 192.988 889.516 192.976C889.411 192.964 889.306 192.949 889.201 192.932C889.096 192.915 888.992 192.895 888.888 192.872C888.785 192.849 888.682 192.824 888.579 192.797C888.476 192.77 888.374 192.74 888.273 192.707C888.172 192.674 888.072 192.639 887.973 192.601C887.874 192.564 887.775 192.524 887.678 192.481C887.581 192.439 887.484 192.394 887.389 192.347C887.294 192.3 887.2 192.25 887.107 192.198C887.014 192.147 886.923 192.093 886.833 192.036C886.743 191.98 886.655 191.922 886.568 191.861C886.481 191.8 886.395 191.737 886.311 191.672C886.227 191.607 886.145 191.54 886.064 191.471C885.983 191.402 885.904 191.332 885.827 191.259C885.75 191.186 885.674 191.111 885.601 191.034C885.528 190.957 885.456 190.879 885.386 190.799C885.317 190.719 885.249 190.637 885.183 190.554C885.118 190.47 885.054 190.385 884.993 190.298C884.932 190.211 884.872 190.123 884.815 190.034C884.758 189.945 884.704 189.854 884.651 189.761C884.598 189.669 884.548 189.576 884.5 189.481C884.452 189.386 884.406 189.29 884.363 189.193C884.32 189.096 884.28 188.998 884.241 188.899C884.202 188.8 884.166 188.701 884.133 188.6C884.1 188.499 884.069 188.397 884.041 188.295C884.012 188.192 883.986 188.089 883.963 187.986C883.94 187.883 883.919 187.779 883.901 187.674C883.882 187.569 883.867 187.464 883.854 187.359C883.841 187.254 883.83 187.148 883.823 187.042C883.815 186.936 883.81 186.83 883.807 186.724C883.805 186.617 883.805 186.511 883.808 186.405C883.811 186.299 883.816 186.193 883.824 186.087C883.832 185.981 883.842 185.875 883.855 185.77C883.868 185.665 883.884 185.56 883.903 185.455C883.921 185.35 883.942 185.246 883.966 185.143C883.989 185.039 884.015 184.936 884.044 184.834C884.073 184.732 884.104 184.63 884.137 184.529C884.17 184.428 884.206 184.329 884.245 184.23C884.284 184.131 884.325 184.033 884.368 183.936C884.411 183.839 884.457 183.744 884.505 183.649C884.553 183.554 884.603 183.461 884.656 183.368C884.709 183.276 884.764 183.185 884.821 183.096C884.878 183.007 884.938 182.919 885 182.832C885.061 182.745 885.125 182.66 885.191 182.577C885.256 182.494 885.324 182.412 885.394 182.332C885.464 182.252 885.536 182.174 885.609 182.097C885.682 182.02 885.758 181.946 885.835 181.873C885.913 181.8 885.992 181.73 886.073 181.661C886.154 181.592 886.236 181.525 886.32 181.46C886.405 181.395 886.49 181.333 886.577 181.272C886.664 181.211 886.753 181.153 886.843 181.097C886.934 181.041 887.025 180.987 887.118 180.935C887.211 180.884 887.305 180.834 887.4 180.787C887.495 180.74 887.592 180.696 887.689 180.654C887.786 180.611 887.885 180.571 887.984 180.534C888.083 180.497 888.184 180.462 888.285 180.429C888.386 180.397 888.487 180.367 888.59 180.34C888.693 180.312 888.796 180.287 888.9 180.265Z" fill="#FEFEFE"/>
<path d="M786.784 194.73C787.843 194.675 787.937 194.707 788.827 195.155C789.133 196.616 789.186 196.752 788.616 198.117C787.457 198.965 786.469 199.376 785.04 199.604C780.576 200.318 775.684 200.221 771.146 200.546C761.232 201.295 751.314 201.989 741.392 202.626C740.37 202.345 740.022 201.929 739.334 201.144C739.303 200.526 739.078 200.084 739.586 199.625C742.77 196.746 780.441 195.127 786.784 194.73Z" fill="#FEFEFE"/>
<path d="M519.373 437.19C523.354 436.681 527.222 436.652 530.856 438.579C538.773 442.778 541.122 451.04 543.436 458.93C555.415 456.968 568.034 456.011 580.162 455.434C584.876 455.209 589.613 455.5 594.316 455.073L681.277 446.709C689.952 445.888 711.133 442.461 718.223 444.05C730.761 446.859 747.408 470.612 755.22 480.641C762.71 490.257 770.31 499.775 777.433 509.672C788.984 525.986 799.972 542.671 810.398 559.726C818.132 558.252 826.051 558.094 833.885 557.451L869.6 554.347C877.729 553.651 885.903 553.075 894.004 552.115C898.697 551.559 903.527 550.517 908.243 550.36C910.098 550.299 911.833 550.341 913.248 551.666C914.549 555.234 912.277 556.84 909.903 558.974C896.162 571.321 887.259 589.714 881.412 607.022C879.427 612.897 878.041 618.968 875.857 624.771C871.325 623.953 866.805 622.69 862.244 622.128C853.352 621.033 847.784 624.427 841.104 629.701C842.17 637.985 843.095 646.284 843.881 654.599C849.13 654.438 856.134 652.574 861.116 654.357C864.873 655.702 867.076 661.119 868.598 664.507C871.39 670.75 873.665 677.177 875.425 683.786C879.835 700.105 886.39 737.244 886.024 754.262C885.921 759.023 885.288 763.255 883.608 767.725C873.583 772.086 862.214 773.608 851.458 775.172C852.061 788.397 851.81 801.676 851.898 814.912C851.978 826.842 853.496 855.497 849.844 866.268C848.69 867.722 846.854 868.209 845.176 868.857C845.573 873.307 845.367 877.214 844.451 881.588C843.024 883.393 841.213 885.329 839.097 886.309C834.554 888.413 828.947 889.38 824.09 890.569C813.656 893.175 803.171 895.561 792.636 897.727C768.52 902.856 744.761 908.352 720.411 912.403C704.135 915.588 687.682 917.662 671.275 920.026C665.076 920.919 658.559 922.85 652.348 923.103C643.524 923.463 634.157 923.918 625.334 923.616C615.38 923.275 605.343 922.143 595.392 921.488L533.549 916.982C504.2 914.796 474.433 914.286 445.326 909.691C435.843 908.194 421.015 906.793 413.9 900.026C413.24 899.398 412.685 898.724 412.206 897.949C405.21 886.641 402.926 836.7 401.175 821.456C399.308 805.2 396.939 788.843 394.377 772.674L379.242 682.59C376.501 667.04 372.297 651.664 371.561 635.83C353.8 637.309 335.331 641.047 317.959 644.93C317.483 646.511 317.006 648.67 315.783 649.869C314.896 650.738 313.796 651.078 312.573 650.836C310.657 650.456 308.731 648.326 307.972 646.608C306.804 643.965 308.706 642.501 310.419 640.838C317.563 633.906 332.139 596.957 336.236 586.215C331.588 583.542 320.058 577.311 317.902 572.159C317.375 570.899 317.445 570.663 318.008 569.548C321.729 567.217 329.356 569.764 333.87 569.567C342.723 569.181 351.574 567.399 360.456 566.839C358.171 554.275 355.312 541.706 352.628 529.216C351.272 522.904 349.62 516.497 348.81 510.095C347.637 500.832 349.496 493.149 355.238 485.738C359.598 480.111 369.319 471.424 375.653 468.518C386.941 463.341 404.949 460.948 417.559 458.079C451.208 450.425 485.104 441.611 519.373 437.19Z" fill="#231F20"/>
<path d="M552.222 902.549C555.597 902.403 559.061 903.002 562.414 903.406L556.861 904.674C554.014 905.694 550.999 906.416 548.084 907.235C549.343 905.497 550.676 904.036 552.222 902.549Z" fill="#FEFEFE"/>
<path d="M392.144 710.291L392.723 710.801C394.524 716.144 393.532 722.69 392.663 728.139C391.01 723.343 390.68 715.069 392.144 710.291Z" fill="#FEFEFE"/>
<path d="M762.447 890.53L762.739 891.026C760.801 893.02 759.109 894.963 757.517 897.248C754.554 897.55 751.603 898.249 748.679 898.816L748.485 898.787L748.502 898.275C752.287 895.075 757.915 892.515 762.447 890.53Z" fill="#FEFEFE"/>
<path d="M712.296 893.643L712.787 893.661L712.903 894.132C707.252 897.077 701.917 900.459 696.271 903.364L695.849 903.324L695.791 902.609L695.941 903.273L696.128 902.277C698.472 900.11 700.783 898 703.524 896.339L704.391 895.822C706.818 894.357 709.54 894.085 712.296 893.643Z" fill="#FEFEFE"/>
<path d="M484.251 897.971C487.074 898.317 489.892 898.696 492.705 899.109C489.379 900.365 486.086 901.704 482.828 903.128C480.177 904.544 477.457 905.724 474.697 906.907C477.609 903.742 481.179 901.035 484.251 897.971Z" fill="#FEFEFE"/>
<path d="M392.532 683.316C393.625 685.776 394.143 688.405 394.765 691.015C392.838 694.545 391.453 698.037 390.243 701.866L389.834 702.42C388.241 697.697 391.359 688.258 392.532 683.316Z" fill="#FEFEFE"/>
<path d="M785.236 884.079L786.282 884.208C785.159 885.549 770.045 894.361 768.184 894.698C767.109 894.457 767.503 894.738 766.92 893.989C766.986 893.84 767.034 893.681 767.118 893.541C769.781 889.108 780.381 885.194 785.236 884.079Z" fill="#FEFEFE"/>
<path d="M329.744 575.619L343.746 575.423L341.519 580.641C341.156 581.145 340.803 582.045 340.13 582.086C337.29 582.258 331.795 577.486 329.744 575.619Z" fill="#FEFEFE"/>
<path d="M500.037 899.443C503.034 900.077 506.26 900.173 509.316 900.435L500.377 905.537C498.523 906.439 496.527 907.589 494.405 907.356C493.189 907.223 493.617 907.448 492.905 906.614C494.258 904.051 497.793 902.414 499.683 899.925C499.804 899.766 499.919 899.603 500.037 899.443Z" fill="#FEFEFE"/>
<path d="M398.662 734.889L399.169 735.327C401.881 744.53 403.213 762.54 399.784 771.642C398.222 762.056 399.61 755.705 399.44 746.509C399.376 743.031 397.707 738.045 398.662 734.889Z" fill="#FEFEFE"/>
<path d="M837.227 874.456L838.279 874.938C838.582 876.084 838.38 877.13 837.691 878.147C834.876 882.303 820.867 884.001 815.714 885.362C815.465 885.33 815.65 885.371 815.256 885.008C819.894 881.448 831.145 877.882 837.227 874.456Z" fill="#FEFEFE"/>
<path d="M820.202 565.285C822.599 565.07 825.028 565.008 827.432 564.877C824.722 568.234 822.056 571.624 819.434 575.048C816.71 573.764 814.819 568.116 813.551 565.469C815.775 565.475 817.981 565.396 820.202 565.285Z" fill="#FEFEFE"/>
<path d="M564.146 903.973C568.918 903.813 573.773 904.579 578.431 905.55C573.247 906.356 568.289 907.309 563.358 909.14C561.584 909.973 559.862 910.925 558.128 911.836L550.671 911.595C555.337 909.246 559.944 907.12 564.146 903.973Z" fill="#FEFEFE"/>
<path d="M833.95 564.079L841.146 563.941C836.048 569.583 831.419 575.518 826.874 581.607C826.037 582.885 825.884 583.667 824.38 584.09L823.529 583.443C823.304 582.448 823.095 581.446 823.54 580.47C826.026 575.011 831.755 572.572 833.95 564.079Z" fill="#FEFEFE"/>
<path d="M578.751 906.033C584.291 906.42 589.828 906.835 595.364 907.278C591.592 908.509 587.775 909.643 584.227 911.444L583.297 912.879C579.549 914.579 573.091 913.218 569.008 912.793C573.195 910.914 575.997 909.951 578.751 906.033Z" fill="#FEFEFE"/>
<path d="M464.061 894.397C468.061 895.306 472.091 895.807 476.155 896.325C470.325 898.716 464.421 900.801 458.641 903.344C455.222 905.086 452.706 904.435 449.135 903.744C454.454 901.001 459.438 898.23 464.061 894.397Z" fill="#FEFEFE"/>
<path d="M529.426 901.993C534.134 901.969 538.847 902.053 543.555 902.09C540.069 904.036 536.09 905.874 533.74 909.213L534.555 910.168C531.972 911.418 526.058 909.935 523.252 909.497C524.899 906.556 527 904.281 529.426 901.993Z" fill="#FEFEFE"/>
<path d="M661.214 905.001L661.729 905.164L661.445 905.854C657.106 908.808 653.158 911.011 648.032 912.279C642.454 913.657 636.565 915.004 630.841 915.46C627.048 915.762 597.216 914.658 595.266 913.469L596.019 912.525C600.449 910.038 604.348 908.743 609.467 908.552C611.38 908.481 612.558 908.492 613.989 909.814C613.723 910.577 613.625 910.921 613.639 911.75C614.235 912.195 614.768 912.484 615.493 912.671C626.848 915.594 651.143 910.633 661.214 905.001Z" fill="#FEFEFE"/>
<path d="M376.349 592.947C377.751 594.91 378.542 604.043 379.163 606.876C374.836 611.476 371.059 617.938 368.267 623.605C367.592 624.975 367.217 625.927 367.721 627.389C373.455 628.306 375.468 615.61 380.227 614.557C380.947 615.786 380.912 616.843 380.949 618.219C379.098 620.069 378.169 622.388 376.556 624.398C372.591 629.341 366.414 628.968 360.635 629.757C368.465 619.113 372.553 605.462 376.349 592.947Z" fill="#FEFEFE"/>
<path d="M359.192 492.812C360.638 497.18 360.818 502.493 361.912 507.079L371.291 545.367C372.727 551.267 375.162 558.285 375.388 564.332C374.415 565.33 372.945 565.404 371.631 565.665L366.57 566.416C364.307 554.68 361.975 542.958 359.573 531.25C357.835 522.521 354.994 512.554 355.582 503.664C355.866 499.364 356.937 496.451 359.192 492.812Z" fill="#FEFEFE"/>
<path d="M370.625 572.588C371.834 572.544 372.299 572.354 373.389 572.941C374.148 576.201 373.969 579.593 374.635 582.944C369.381 595.444 364.698 608.215 359.544 620.77C358.518 623.268 357.486 627.761 355.963 629.842C354.76 631.486 325.144 636.311 321.318 637.049C325.76 626.402 331.062 615.482 336.416 605.257C335.505 610.544 334.113 616.165 334.872 621.531L335.48 621.868C340.217 615.697 340.283 606.38 342 599.103C343.169 594.145 347.444 582.107 350.126 577.825C351.326 575.908 352.635 574.365 354.906 573.837L355.75 574.462C355.951 575.808 355.833 576.834 355.379 578.128C354.214 581.45 352.3 584.651 350.841 587.876C348.311 593.473 346.043 599.165 343.789 604.877C340.879 612.627 337.393 619.946 334.111 627.507C333.193 629.622 332.327 631.774 333.225 633.998C334.329 634.446 334.569 634.419 335.739 634.072C337.258 633.621 338.973 632.639 339.89 631.35C343.781 625.881 355.087 594.905 357.725 586.885C358.707 583.9 360.33 576.525 361.873 574.35C362.663 573.237 363.753 573.46 365 573.315C365.483 575.043 355.26 603.737 353.582 608.033C351.509 613.338 346.432 622.437 346.229 627.932C346.18 629.256 346.309 629.877 347.189 630.847C348.239 630.836 348.864 630.511 349.677 629.846C357.413 623.528 368.259 585.074 369.681 574.005C369.805 573.042 369.922 573.181 370.625 572.588Z" fill="#FEFEFE"/>
<path d="M406.685 779.375C408.308 788.051 408.849 796.897 410.063 805.638C411.877 818.703 414.277 831.691 416.17 844.748C417.454 853.604 417.966 870.568 422.097 877.822C429.397 890.637 446.885 891.058 459.494 894.318L460.099 894.479L453.563 896.293C448.599 897.904 443.821 899.519 439.069 901.709C438.971 901.702 438.872 901.693 438.774 901.687C437.792 901.624 436.815 901.559 435.837 901.446C430.971 900.884 420.375 898.647 417.413 894.436C411.849 886.527 407.645 819.681 407.042 805.874C406.864 801.792 407.125 797.713 407.006 793.635C406.878 789.246 405.557 783.603 406.685 779.375Z" fill="#FEFEFE"/>
<path d="M902.977 557.211L903.288 557.383C902.804 560.242 845.58 607.155 838.753 612.719L838.212 612.145C838.184 611.635 837.902 609.799 838.064 609.431C838.629 608.149 841.717 605.712 842.817 604.599C850.036 597.299 875.254 574.6 878.605 567.422C879.157 566.24 879.579 565.149 879.147 563.863L878.157 563.512C871.061 564.951 855.027 583.465 849.278 589.474C845.809 592.989 840.376 600.103 835.781 601.737L835.253 601.216C835.911 597.572 851.747 579.993 854.958 576.372C857.088 573.971 860.407 570.98 861.84 568.139C862.361 567.106 862.563 565.855 862.001 564.774C861.373 563.567 860.929 563.399 859.747 562.955C858.544 563.223 857.775 563.71 856.902 564.554C854.926 566.464 853.35 568.887 851.525 570.954C844.549 578.859 837.899 587.09 830.619 594.716L827.712 590.13C835.156 582.096 843.007 573.02 847.982 563.243C866.254 560.724 884.75 559.988 902.977 557.211Z" fill="#FEFEFE"/>
<path d="M858.219 661.228C859.077 661.31 859.204 661.154 859.842 661.817C867.582 669.859 880.241 741.899 879.664 754.885C879.582 756.718 879.41 758.177 878.045 759.461C873.524 760.704 868.64 760.929 863.996 761.547C856.441 762.626 848.899 763.786 841.37 765.028C818.436 768.854 795.628 773.625 772.839 778.228C768.435 779.118 755.249 782.686 751.376 781.588L750.874 780.062C749.536 773.27 747.331 766.549 745.463 759.883C742.773 750.243 740.262 740.557 737.93 730.824C733.402 711.892 730.577 692.662 725.602 673.845C739.014 670.614 753.814 669.996 767.529 668.532C797.766 665.306 827.814 662.338 858.219 661.228Z" fill="#FEFEFE"/>
<path d="M844.958 732.702C848.059 732.309 854.569 731.542 857.325 733.192L857.272 734.025C852.499 738.505 831.084 741.623 823.492 743.556C819.074 744.681 814.844 746.056 810.621 747.778C810.125 748.003 809.632 748.235 809.126 748.435C806.572 749.446 803.515 749.711 800.99 748.424C799.866 747.851 799.576 747.296 799.191 746.151C799.359 745.211 799.653 744.559 800.281 743.825C806.331 736.765 835.235 733.673 844.958 732.702Z" fill="#231F20"/>
<path d="M848.365 695.718C849.108 695.661 850.103 695.498 850.828 695.638C852.193 695.902 852.509 696.442 853.337 697.449L852.972 698.205C848.12 700.523 837.562 701.797 831.808 703.137C819.29 706.053 806.925 710.405 794.12 711.833C793.191 711.932 792.106 711.948 791.234 711.56C790.001 711.011 789.466 710.039 788.955 708.873C789.028 707.685 789.152 706.811 790.047 705.921C795.075 700.928 839.156 696.31 848.365 695.718Z" fill="#231F20"/>
<path d="M782.422 734.237C783.629 734.807 784.103 734.931 784.864 736.001C784.308 740.891 778.254 756.274 775.956 761.173C774.867 763.496 773.124 767.221 770.624 768.145C766.871 767.393 763.444 763.085 760.75 760.45C758.14 758.072 755.412 755.674 754.032 752.34C753.134 750.171 752.39 747.004 753.579 744.787C754.195 743.639 755.07 743.06 756.326 742.752C759.465 741.983 762.546 744.017 765.004 745.645C774.105 743.189 775.1 739.376 781.938 734.568C782.098 734.456 782.261 734.347 782.422 734.237Z" fill="#231F20"/>
<path d="M751.732 684.107C757.968 684.441 771.818 689.04 776.523 693.458L779.431 696.156C777.326 700.664 774.455 704.9 772.007 709.237C769.894 712.982 768.09 716.89 766.029 720.661C765.27 722.05 764.169 724.237 762.507 724.579C759.449 725.209 756.861 723.365 754.326 721.935C753.151 721.08 751.932 720.223 750.905 719.19C749.079 717.353 747.163 714.286 747.369 711.581C747.468 710.271 748.158 709.144 749.204 708.371C751.366 706.771 754.243 707.592 756.709 707.907C762.222 703.575 768.021 699.539 773.673 695.387C767.39 693.156 760.836 691.934 754.52 689.843C752.761 689.26 751.063 688.723 750.17 686.971C750.43 685.433 750.662 685.275 751.732 684.107Z" fill="#231F20"/>
<path d="M517.917 443.683C520.593 443.333 523.147 443.443 525.828 443.573C528.781 445.397 531.547 447.536 533.208 450.661C535.541 455.05 536.98 460.265 538.683 464.955C541.742 473.381 544.864 481.834 548.444 490.052C568.134 534.855 587.25 579.901 605.792 625.19C599.396 626.098 587.416 630.898 581.621 629.209C576.728 624.46 569.914 603.633 567.179 596.274L545.688 538.342C540.611 524.309 536.647 510.106 529.467 496.913C526.974 492.331 522.941 485.667 517.632 484.201C512.536 482.793 506.434 483.81 501.296 484.569C486.479 486.757 471.967 491.16 457.287 494.179C448.886 495.957 440.457 497.59 432 499.078C419.153 501.258 392.581 504.012 381.704 510.257C381.176 511.071 381.049 511.265 380.996 512.24C380.619 519.18 384.563 527.586 386.185 534.436C387.926 541.788 389.343 549.222 390.953 556.603C398.858 594.296 405.24 632.245 410.099 670.45C413.117 693.371 415.538 716.392 418.788 739.278C420.762 753.183 423.28 766.947 425.588 780.795C427.983 795.169 430.134 809.544 433.159 823.808C435.334 834.056 437.672 845.408 444.986 853.324C449.715 854.323 454.876 854.099 459.698 854.114C472.714 854.154 485.738 853.062 498.756 853.544C516.645 854.318 534.514 855.402 552.365 856.797C565.137 857.891 578.002 859.495 590.796 860.085C594.81 860.27 605.76 861.173 608.476 857.912C610.123 855.935 610.095 852.16 610.069 849.707C609.982 841.281 608.409 832.675 607.208 824.338C604.936 808.557 602.217 792.867 600.144 777.054C596.075 750.226 592.596 723.322 589.709 696.341C587.464 676.615 584.227 656.088 585.509 636.228C593.688 635.95 601.87 635.826 610.055 635.855C611.057 644.009 611.442 652.303 612.073 660.497L616.343 718.932C618.553 745.618 621.837 772.161 624.198 798.824C625.953 821.168 627.408 843.532 628.565 865.914C629.063 874.693 631.541 893.45 629.068 901.065C620.681 904.07 567.577 896.763 555.39 895.843C543.682 894.958 531.82 895.009 520.079 894.419C506.053 893.695 492.097 892.283 478.21 890.184C467.676 888.653 434.675 885.166 428.914 876.28C425.66 871.261 421.939 839.331 420.67 831.024C417.108 809.16 413.722 787.268 410.513 765.348C407.465 743.527 405.101 721.62 402.075 699.801C400.003 684.982 397.72 670.195 395.226 655.44C394.088 648.78 393.652 641.805 392.358 635.237C391.58 631.29 389.764 627.528 388.781 623.614C386.777 615.639 379.512 580.217 380.692 574.212C381.209 571.582 382.431 570.784 384.554 569.392C381.282 560.997 379.536 552.149 377.494 543.397C375.454 534.653 373.284 525.913 371.476 517.119C369.062 505.373 364.514 489.883 371.925 479.208C373.745 476.586 375.967 475.14 378.917 474.012C392.658 468.755 413.557 465.605 428.365 462.345C458.206 455.778 487.678 448.382 517.917 443.683Z" fill="#FEFEFE"/>
<path d="M523.812 456.19C524.783 456.341 525.295 456.683 526.096 457.239C526.734 458.397 526.916 459.275 526.889 460.577C526.828 463.465 525.72 466.386 523.629 468.355C522.75 468.145 522.097 467.89 521.28 467.525C520.583 466.563 520.14 465.797 520.07 464.577C519.887 461.398 521.879 458.496 523.812 456.19Z" fill="#231F20"/>
<path d="M509.502 455.262C510.348 455.328 511.065 455.396 511.836 455.798C512.852 456.329 513.428 457.109 513.775 458.187C514.88 461.608 513.568 466.553 511.864 469.588C511.172 469.803 510.416 469.897 509.704 470.031C508.997 469.63 508.666 469.606 508.299 468.834C506.788 465.655 508.221 458.361 509.502 455.262Z" fill="#231F20"/>
<path d="M716.601 450.213L718.755 450.342C726.265 454.69 738.982 472.632 744.568 479.887C757.936 497.249 771.572 514.248 784.172 532.197C789.006 539.084 793.169 546.473 797.655 553.595C807.616 569.408 817.679 585.342 826.097 602.047C815.477 603.122 804.886 604.423 794.323 605.949C785.727 588.047 776.036 571.19 765.988 554.083C755.809 536.753 745.704 519.469 734.717 502.628C731.226 497.278 727.38 492.236 723.817 486.962C722.055 484.354 721.585 481.047 719.819 478.379C719.087 478.02 718.465 477.827 717.647 477.771C713.479 477.486 702.552 478.423 699.463 481.138C699.351 481.617 699.72 481.924 699.97 482.329C704.247 484.728 709.151 484.537 713.865 484.024C717.369 492.051 728.031 505.969 733.167 514.105C743.025 529.799 752.603 545.662 761.902 561.694C769.775 575.042 777.922 588.173 784.173 602.383C769.789 602.823 755.346 605.352 741.135 607.455C724.749 609.857 708.341 612.103 691.912 614.193C675.276 616.372 658.615 618.333 641.928 620.076C632.077 621.135 622.148 622.474 612.238 622.713C609.753 617.768 607.855 612.418 605.776 607.283C601.697 597.205 597.74 587.054 593.511 577.039C585.424 557.888 576.103 539.197 568.549 519.811C570.727 519.588 572.904 519.349 575.079 519.094C578.324 518.708 583.407 518.178 585.524 515.492C585.322 514.619 585.537 514.717 584.828 514.307C580.263 511.663 571.044 513.909 566.073 514.884C564.539 511.289 563.295 507.576 562 503.89C573.001 502.118 584.143 501.082 595.206 499.75C612.444 497.597 629.704 495.643 646.987 493.89C655.419 493.13 663.854 492.414 672.294 491.741C677.189 491.344 682.356 491.207 687.178 490.291C690.042 489.747 692.515 488.971 694.68 486.946C696.813 484.952 698.516 482.061 698.571 479.076C698.608 477.074 697.816 475.463 696.361 474.125C694.967 472.843 693.557 472.323 691.692 472.2C682.072 471.563 671.238 473.929 661.601 474.93C644.432 476.545 627.294 478.436 610.187 480.603C592.446 483.009 572.372 486.608 554.632 487.141C551.339 479.76 548.114 472.193 545.387 464.587C560.747 462.999 576.294 462.9 591.688 461.576L716.601 450.213Z" fill="#FEFEFE"/>
<path d="M700.242 505.033C700.455 505.234 700.7 505.404 700.882 505.634C701.721 506.699 701.586 507.171 701.353 508.384C699.516 510.658 697.138 511.37 694.359 511.94C694.121 511.668 693.849 511.377 693.665 511.068C692.979 509.917 693.027 509.668 693.3 508.429C695.05 506.613 697.918 505.913 700.242 505.033Z" fill="#231F20"/>
<path d="M673.814 521.561C674.652 521.484 675.47 521.509 676.276 521.81C677.515 522.272 677.801 522.599 678.261 523.724L677.766 524.881C674.516 527.429 670.58 527.461 666.623 527.925C665.343 528.045 664.014 528.215 662.73 528.212C661.371 528.209 660.869 527.964 659.935 527.026L659.955 525.456C662.875 523.311 670.052 522.461 673.814 521.561Z" fill="#231F20"/>
<path d="M691.439 499.708C694.029 499.419 696.781 499.06 699.161 500.388C700.237 500.988 700.667 501.327 700.98 502.558C700.898 502.672 700.831 502.799 700.733 502.9C698.609 505.078 687.351 505.677 684.123 505.86C680.798 506.103 677.9 506.877 675.12 504.642C674.978 503.942 674.709 503.656 675.189 503.034C677.787 499.669 687.459 499.988 691.439 499.708Z" fill="#231F20"/>
<path d="M736.8 564.201C738.489 563.904 740.432 563.845 741.927 564.635C742.261 565.693 742.338 566.159 742.031 567.232C736.479 571.153 709.437 573.576 701.784 573.517C699.836 573.488 697.656 573.675 695.828 572.945C695.291 571.858 695.159 571.34 695.275 570.13C696.202 569.023 696.767 568.597 698.228 568.336C701.819 567.692 705.793 567.699 709.45 567.295L736.8 564.201Z" fill="#C62D2D"/>
<path d="M720.043 541.715C723.45 541.427 726.364 541.4 729.338 543.271L729.478 544.063C725.59 547.495 694.647 549.618 688.124 549.982C684.829 550.15 681.71 550.273 678.432 549.826C677.487 549.137 677.454 549.044 677.062 547.935L677.63 546.894C683.003 543.175 711.435 542.203 720.043 541.715Z" fill="#C62D2D"/>
<path d="M642.261 549.686C643.143 549.508 644.677 549.341 645.552 549.482C646.609 549.653 647.043 550.597 647.404 551.501C647.87 552.67 647.689 553.581 647.222 554.675C642.656 556.125 636.996 556.162 632.22 556.74C623.259 557.776 614.32 558.972 605.403 560.328C604.149 560.576 602.993 560.572 601.725 560.554C600.732 560.011 600.052 559.63 599.642 558.462C599.218 557.255 599.686 556.69 600.28 555.726C603.706 553.906 635.871 550.564 642.261 549.686Z" fill="#C62D2D"/>
<path d="M651.998 571.708C652.38 571.721 652.762 571.739 653.144 571.762C655.241 571.893 655.998 572.221 657.409 573.809C657.731 575.209 657.742 575.231 657.133 576.53C652.74 579.288 621.782 582.062 615.125 582.464L613.25 582.546C612.4 582.587 611.339 582.744 610.504 582.578C609.103 582.299 608.528 581.656 607.739 580.542C607.695 579.832 607.426 579.153 607.936 578.585C610.247 576.01 645.768 572.213 651.998 571.708Z" fill="#C62D2D"/>
<path d="M750.997 582.705C753.138 582.391 755.928 582.217 758.064 582.507C759.759 582.737 761.992 583.26 763.083 584.644L762.58 585.599C756.771 589.397 721.932 592.484 712.539 593.659C710.678 593.959 708.525 594.462 706.645 594.315C704.773 594.169 702.306 593.127 701.14 591.671L701.571 590.401C706.479 586.281 742.461 583.437 750.997 582.705Z" fill="#C62D2D"/>
<path d="M666.37 591.652C667.824 591.447 669.641 591.029 671.034 591.635C672.297 592.185 672.822 592.929 673.422 594.11C673.373 595.011 673.518 595.503 672.934 596.252C671.825 597.674 670.317 598.111 668.64 598.528C662.984 599.933 656.572 600.115 650.76 600.913C641.419 602.256 632.126 603.871 622.88 605.759C621.158 606.063 618.997 606.604 617.254 606.417C615.94 606.276 615.408 605.705 614.592 604.758C614.46 603.972 614.056 603.23 614.603 602.564C617.953 598.487 658.652 592.983 666.37 591.652Z" fill="#C62D2D"/>
<path d="M644.27 505.209C645.565 505.083 646.908 504.863 648.143 505.417C649.257 505.917 649.64 506.594 649.932 507.7L649.13 508.928C645.214 511.062 641.69 510.607 637.353 510.485C637.544 513.304 637.6 515.796 636.975 518.575C636.928 518.783 636.877 518.99 636.828 519.198C638.438 519.411 640.438 519.521 641.938 520.145C644.712 521.3 648.217 526.386 650.231 528.681C661.228 541.212 674.816 555.421 680.234 571.544C681.563 575.5 683.089 582.362 680.723 586.099C679.961 587.303 679.657 587.299 678.355 587.57C676.744 587.096 675.451 586.262 674.396 584.943C672.196 582.193 670.739 578.033 669.102 574.86C666.847 570.487 664.379 566.331 661.678 562.221C656.74 555.658 651.288 549.534 646.074 543.197C641.69 537.868 637.566 532.315 632.938 527.193C627.246 528.451 619.969 530.28 614.703 526.872C610.734 524.302 609.716 520.038 608.761 515.705L608.579 514.857C608.197 514.688 607.554 514.411 607.204 514.223C606.568 513.882 606.078 513.74 605.953 512.999C605.929 512.855 605.913 512.71 605.905 512.564C605.897 512.418 605.896 512.272 605.904 512.126C605.912 511.981 605.928 511.836 605.951 511.691C605.975 511.547 606.007 511.405 606.046 511.264C606.086 511.123 606.134 510.985 606.188 510.85C606.243 510.715 606.305 510.583 606.373 510.454C606.443 510.325 606.519 510.201 606.601 510.08C606.685 509.96 606.774 509.845 606.869 509.734C608.129 508.297 611.531 507.82 613.394 507.587C614.796 507.412 615.316 507.534 616.381 508.42C616.929 511.265 613.9 513.918 614.274 516.952C614.471 518.553 616.035 520.483 617.279 521.416C617.499 521.58 617.727 521.732 617.963 521.872C618.199 522.012 618.442 522.139 618.691 522.254C618.941 522.369 619.195 522.47 619.454 522.557C619.714 522.645 619.978 522.719 620.246 522.779C620.514 522.838 620.785 522.884 621.057 522.915C621.329 522.946 621.603 522.963 621.877 522.966C622.151 522.969 622.425 522.957 622.698 522.931C622.972 522.904 623.243 522.864 623.511 522.809C625.911 522.345 627.882 521.05 629.244 519.02C630.82 516.67 631.276 513.994 630.789 511.237L630.477 509.449C630.278 508.316 630.454 508.268 630.885 507.255C634.159 505.202 640.383 505.483 644.27 505.209Z" fill="#231F20"/>
<path d="M830.163 610.744L831.09 610.938C832.228 614.046 832.575 617.723 833.151 620.998C835.166 632.44 836.299 643.886 837.678 655.407C813.626 657.324 789.612 659.635 765.636 662.341C749.437 664.072 733.333 665.178 717.407 668.796C716.844 669.307 716.31 669.804 715.796 670.365C711.891 674.621 711.32 681.544 711.565 687.092C711.876 694.151 713.662 701.221 715.101 708.123C717.908 721.582 721.205 734.919 724.167 748.343C726.386 758.396 727.591 769.102 730.834 778.847C732.109 782.676 734.008 786.58 737.109 789.256C739.028 790.912 741.697 791.995 744.236 792.112C752.385 792.488 763.301 789.489 771.474 788.048C788.702 784.859 805.961 781.844 823.249 779.004C830.422 777.858 837.623 776.445 844.857 775.796C845.054 786.896 844.839 798.004 845.011 809.106C845.281 826.511 845.825 843.651 844.788 861.046C813.988 865.917 783.25 871.151 752.574 876.748C731.181 880.259 709.926 884.709 688.659 888.894C671.371 892.296 653.99 895.295 636.847 899.386C637.129 881.719 635.194 863.684 634.116 846.045C630.73 790.696 624.272 735.691 620.441 680.377C619.403 665.385 617.491 650.395 617.407 635.363C688.206 626.118 759.125 617.912 830.163 610.744Z" fill="#FED496"/>
<path d="M802.353 633.151C802.803 633.226 803.097 633.255 803.543 633.428C804.906 633.957 805.963 635.305 806.476 636.646C807.425 639.124 806.874 641.393 805.884 643.738C804.143 642.865 802.9 642.051 802.048 640.247C800.919 637.857 801.393 635.489 802.353 633.151Z" fill="#231F20"/>
<path d="M814.715 838.252C815.685 838.31 816.927 838.298 817.757 838.863C818.721 839.517 819.34 841.107 819.573 842.228C820.064 844.592 819.707 848.319 818.327 850.306L818.066 850.258C817.399 850.14 816.477 850.045 815.882 849.721C814.651 849.051 813.98 847.858 813.589 846.564C812.804 843.969 813.454 840.588 814.715 838.252Z" fill="#231F20"/>
<path d="M654.986 867.212C656.468 867.731 657.118 867.907 658.059 869.248C659 873.116 656.131 878.069 654.626 881.647C653.912 881.62 653.248 881.458 652.549 881.317C651.941 880.577 651.642 880.138 651.478 879.166C650.91 875.792 653.172 870.017 654.986 867.212Z" fill="#231F20"/>
<path d="M826.655 837.745C827.714 837.981 828.503 837.938 829.045 839.025C830.187 841.316 829.677 844.539 828.976 846.855C828.35 848.924 827.599 849.257 825.804 850.233C825.136 849.783 824.218 849.25 823.705 848.633C822.705 847.433 822.473 845.455 822.721 843.945C823.159 841.28 824.569 839.362 826.655 837.745Z" fill="#231F20"/>
<path d="M816.778 626.665C817.526 626.771 818.302 626.861 818.984 627.216C820.246 627.873 820.919 629.228 821.373 630.511C822.503 633.697 822.125 637.306 820.669 640.3C819.725 640.426 819.278 640.411 818.37 640.265C817.907 639.775 817.829 639.741 817.449 639.056C815.599 635.716 815.569 630.177 816.778 626.665Z" fill="#231F20"/>
<path d="M649.121 656.405C650.402 656.312 651.054 656.215 652.23 656.839C652.83 657.744 653.13 658.592 653.366 659.642C654.127 663.031 653.852 667.349 652.004 670.338C651.334 670.207 650.642 670.078 650.048 669.716C648.815 668.964 648.121 667.515 647.736 666.175C646.787 662.872 647.4 659.316 649.121 656.405Z" fill="#231F20"/>
<path d="M635.63 656.834C636.21 656.832 637.21 656.748 637.804 656.896C638.936 657.178 639.533 657.909 640.044 658.91C641.899 662.541 640.793 667.676 639.404 671.248C637.747 671.568 637.295 671.467 635.946 670.592C633.875 666.773 635.222 661.039 635.63 656.834Z" fill="#231F20"/>
<path d="M670.334 866.921C670.978 867.064 671.945 867.194 672.505 867.527C673.603 868.182 673.965 868.966 674.114 870.208C674.553 873.873 668.631 880.078 666.189 882.579C665.11 882.65 664.543 882.607 663.551 882.167C662.888 881.263 662.624 881.006 662.641 879.833C662.7 875.753 667.383 869.627 670.334 866.921Z" fill="#231F20"/>
<path d="M512.851 490.113C513.171 489.959 513.144 489.955 513.656 489.885C524.671 488.379 539.179 539.965 542.281 548.909C546.625 561.432 551.655 573.671 556.316 586.074C560.36 596.834 569.042 623.937 575.274 632.248C576.531 633.924 578.814 635.19 580.549 636.343C578.086 642.191 578.841 651.954 579.135 658.236C579.806 672.555 581.953 686.936 583.543 701.188C586.895 731.992 590.876 762.714 595.486 793.355C598.368 812.791 603.426 833.124 603.084 852.843C586.64 855.138 563.595 850.867 546.596 849.449C526.68 847.787 506.32 846.95 486.341 846.943C473.591 846.979 460.401 848.254 447.714 847.005C438.964 830.264 435.966 803.08 432.824 784.226C431.04 773.518 428.886 762.852 427.274 752.119C423.901 729.669 421.401 707.108 418.382 684.613C412.741 642.571 407.076 600.67 398.114 559.184C394.865 544.146 391.678 529.493 387.138 514.777C394.541 513.492 401.845 511.517 409.237 510.13L483.658 496.045C490.498 494.738 508.179 492.993 512.851 490.113Z" fill="#FED496"/>
<path d="M540.558 655.616C541.71 655.517 542.864 655.437 544.02 655.376C552.346 654.956 561.208 658.214 567.316 663.925C571.335 667.683 573.245 672.768 573.39 678.215C573.586 685.563 570.273 690.517 565.495 695.645C567.174 705.747 572.808 736.236 571.554 744.283C571.196 746.582 569.617 747.558 567.86 748.812C566.87 749.06 565.936 749.244 564.916 749.333C561.077 749.671 557.043 749.473 554.01 746.813C549.41 742.778 546.842 703.896 546.259 696.191C544.393 695.858 542.476 695.552 540.656 695.015C536.482 693.783 532.808 690.643 530.889 686.746C527.907 680.69 529.13 672.601 531.289 666.419C533.127 661.156 535.538 657.99 540.558 655.616Z" fill="#231F20"/>
<path d="M555.053 695.594C556.557 695.637 557.678 695.484 558.899 696.445C560.366 702.257 565.886 737.231 564.688 741.528C564.488 742.245 563.295 742.724 562.674 743.112L560.015 742.892C559.258 742.365 558.887 742.266 558.491 741.398C556.953 738.024 552.075 698.95 553.144 696.217L555.053 695.594Z" fill="#FEFEFE"/>
<path d="M542.01 661.495C545.736 661.364 549.078 662.099 552.683 662.922C551.782 665.61 551.082 668.348 550.582 671.138C550.083 673.928 549.789 676.74 549.701 679.572C549.637 681.963 550.86 689.023 549.745 690.415L547.883 690.402C544.408 689.923 541.086 689.163 538.477 686.648C536.165 684.421 535.206 681.575 535.191 678.408C535.186 678.018 535.191 677.628 535.206 677.238C535.221 676.849 535.246 676.46 535.28 676.071C535.314 675.683 535.357 675.295 535.41 674.909C535.463 674.523 535.526 674.138 535.598 673.754C535.67 673.371 535.752 672.99 535.843 672.61C535.934 672.231 536.034 671.854 536.143 671.479C536.253 671.105 536.371 670.734 536.499 670.365C536.627 669.997 536.764 669.632 536.91 669.27C537.056 668.908 537.211 668.55 537.374 668.196C537.538 667.842 537.71 667.492 537.89 667.146C538.071 666.801 538.26 666.46 538.458 666.124C538.656 665.788 538.861 665.456 539.075 665.13C539.289 664.804 539.511 664.484 539.741 664.168C539.971 663.853 540.208 663.544 540.453 663.24C540.698 662.937 540.95 662.64 541.21 662.348C541.47 662.058 541.736 661.773 542.01 661.495Z" fill="#FEFEFE"/>
</g>
<defs>
<clipPath id="clip0_28_1024">
<rect width="1024" height="1024" fill="white"/>
</clipPath>
</defs>
</svg>
