<svg width="1024" height="1024" viewBox="0 0 1024 1024" fill="none" xmlns="http://www.w3.org/2000/svg">
<g clip-path="url(#clip0_28_946)">
<path d="M0 0H1024V1024H0V0Z" fill="#FEFEFE"/>
<path d="M114.596 318.308C115.223 319.184 115.801 320.43 115.629 321.549C115.475 322.557 115.241 323.013 114.529 323.712C112.975 325.239 111.323 325.286 109.273 325.29C108.715 324.666 108.286 324.054 107.82 323.361L108.155 322.571C109.425 322.323 111.425 322.162 112.568 321.603C114.127 320.84 114.111 319.823 114.596 318.308Z" fill="#231F20"/>
<path d="M474.399 231.258C475.134 231.334 475.724 231.501 476.429 231.71C476.957 234.341 473.189 239.66 471.91 242.265C471.36 242.311 470.943 242.046 470.441 241.841L469.949 240.645C470.35 237.251 472.617 234.1 474.399 231.258Z" fill="#231F20"/>
<path d="M820.926 344.636C821.077 344.667 821.231 344.686 821.378 344.729C822.029 344.92 822.8 345.005 823.07 345.685C824.222 348.581 821.891 353.704 820.879 356.564L819.275 356.505C819.194 356.374 819.094 356.253 819.032 356.112C817.868 353.473 819.874 347.224 820.926 344.636Z" fill="#231F20"/>
<path d="M819.853 209.134C820.66 209.539 821.078 209.727 821.564 210.522C823.104 213.045 825.368 221.442 824.357 224.265C823.974 224.106 823.67 224.001 823.324 223.748C821.792 222.626 820.653 216.645 820.157 214.785C819.577 212.615 818.965 211.29 819.853 209.134Z" fill="#231F20"/>
<path d="M525.888 260.647L527.105 260.933L527.348 261.845C524.243 264.418 517.104 265.448 513.11 266.491C512.281 266.389 512.039 266.08 511.373 265.604L511.561 264.943C515.327 262.287 521.402 261.621 525.888 260.647Z" fill="#231F20"/>
<path d="M826.451 238.236C827.212 238.588 827.549 238.722 827.913 239.52C829.805 243.667 829.921 254.007 828.823 258.204L827.75 257.645C826.501 254.35 825.665 241.434 826.451 238.236Z" fill="#231F20"/>
<path d="M582.553 402.149C583.582 402.466 583.796 402.633 584.564 403.324L584.389 404.177C581.531 406.532 577.158 407.153 573.621 407.892C572.694 407.976 571.877 407.855 570.95 407.76L570.723 407.133C570.889 406.899 571.078 406.68 571.221 406.431C571.372 406.167 571.473 405.877 571.599 405.6C574.997 403.081 578.482 402.668 582.553 402.149Z" fill="#231F20"/>
<path d="M468.08 421.245C468.96 421.197 469.871 421.121 470.751 421.172C471.991 421.245 472.543 421.308 473.373 422.294L472.95 423.252C469.917 425.437 465.463 424.865 461.889 424.909L457.994 424.588C457.008 423.865 457.093 423.921 456.904 422.705C458.737 420.742 465.362 421.429 468.08 421.245Z" fill="#231F20"/>
<path d="M559.869 250.627C560.315 250.553 560.761 250.466 561.211 250.422C562.676 250.278 563.528 250.588 564.661 251.485L564.471 252.232C561.995 254.412 557.358 255.037 554.231 255.803C553.025 256.061 552.174 256.248 550.933 256.074C550.275 255.125 550.183 254.626 550.138 253.479C551.977 250.779 556.752 251.234 559.869 250.627Z" fill="#231F20"/>
<path d="M826.399 281.081C827.396 281.409 827.41 281.33 828.191 282.16C829.258 287.408 828.806 297.541 826.966 302.638L825.691 301.405C824.158 297.67 825.565 285.389 826.399 281.081Z" fill="#231F20"/>
<path d="M823.67 319.278C824.371 319.621 824.641 319.764 824.982 320.506C826.781 324.421 825.095 337.472 823.229 341.223L822.084 340.703C821.051 338.189 822.7 322.26 823.67 319.278Z" fill="#231F20"/>
<path d="M552.958 410.149C554.379 409.962 555.196 409.963 556.617 410.346L556.787 411.142C553.786 414.211 548.602 415.098 544.605 416.087C544.137 416.29 543.526 416.339 543.022 416.433C541.976 415.96 541.233 415.757 540.637 414.721L541.172 413.699C544.644 411.599 549.021 410.923 552.958 410.149Z" fill="#231F20"/>
<path d="M510.699 416.703C511.803 416.694 511.651 416.79 512.452 417.436L512.501 418.505C510.042 421.269 501.577 420.757 497.704 421.497L497.073 421.621C495.919 421.126 495.482 421.154 494.766 420.08L495.095 419.38C498.533 416.611 506.272 417.017 510.699 416.703Z" fill="#231F20"/>
<path d="M433.023 423.718C433.303 423.687 433.582 423.635 433.863 423.625C435.216 423.578 435.399 423.605 436.282 424.526L436.019 425.658C433.185 428.303 426.917 427.487 423.115 427.858C422.122 428.092 421.645 428.024 420.673 427.726C419.791 426.726 419.682 426.792 419.721 425.48C422.267 422.99 429.445 423.903 433.023 423.718Z" fill="#231F20"/>
<path d="M904.846 933.916C905.975 934.03 905.739 934.016 906.46 934.74L906.432 935.867C904.371 938.04 889.575 944.311 885.57 946.61L884.415 946.339L884.293 945.301C887.825 940.989 899.449 936.416 904.846 933.916Z" fill="#231F20"/>
<path d="M628.552 230.66C629.843 230.456 630.785 230.6 631.964 231.143C632.468 232.281 632.278 232.203 631.957 233.328C630.43 234.833 628.771 236.036 626.605 236.392C624.337 236.765 622.123 237.365 619.894 237.92C618.741 237.789 618.04 237.521 617.018 236.975C616.322 235.691 616.196 235.624 616.416 234.2C618.814 231.506 625.039 231.246 628.552 230.66Z" fill="#231F20"/>
<path d="M593.287 240.651C594.078 240.542 593.892 240.537 594.608 240.537C596.471 240.537 598.376 240.498 599.758 241.916C599.907 242.708 599.659 243.018 599.387 243.758C596.355 246.635 593.629 246.737 589.632 247.288C587.655 247.543 585.959 247.776 584.258 246.542C583.624 245.197 583.522 245.137 583.829 243.7C586.01 241.325 590.258 241.165 593.287 240.651Z" fill="#231F20"/>
<path d="M891.194 929.389C892.278 929.92 892.222 929.856 892.63 930.991C891.778 932.634 858.374 950.889 853.732 953.325C852.646 952.836 853.069 953.2 852.431 952.274C854.474 948.458 885.434 932.065 891.194 929.389Z" fill="#231F20"/>
<path d="M878.529 921.978C879.218 922.366 879.346 922.659 879.76 923.312C877.821 928.011 847.101 943.673 841.043 947.063C835.439 950.198 830.094 953.666 824.377 956.615C823.565 956.485 823.526 956.356 822.91 955.869L823.011 955.047C827.102 949.576 847.068 940.454 853.801 936.606C862.113 931.846 870.355 926.97 878.529 921.978Z" fill="#231F20"/>
<path d="M130.313 241.953C131.523 236.89 137.147 223.451 141.287 220.596C141.808 220.237 141.841 220.236 142.455 220.393C144.891 221.02 146.648 224.415 147.984 226.394C150.598 228.904 155.717 234.618 156.19 238.282L155.748 238.691C151.186 235.312 148.286 230.041 144.443 225.928C144.348 235.504 146.306 245.092 146.751 254.679C146.865 257.142 147.351 261.337 145.601 263.255L144.687 263.076C143.186 260.447 142.237 229.536 141.905 224.375C137.916 230.231 135.517 236.965 130.313 241.953Z" fill="#231F20"/>
<path d="M862.784 917.944L863.687 918.636L863.787 919.625C861.002 923.215 846.004 930.822 841.378 933.484C830.119 939.964 819.52 947.487 808.454 954.287C805.259 956.25 802.15 958.59 798.758 960.176L797.952 959.568L797.883 958.534C801.854 953.12 854.233 921.584 862.784 917.944Z" fill="#231F20"/>
<path d="M771.523 904.972C772.163 905.436 772.174 905.713 772.486 906.417C771.878 907.581 771.113 908.042 770.028 908.703C765.429 911.503 760.374 913.748 755.667 916.399C744.69 922.719 733.83 929.234 723.087 935.944C713.087 942.311 703.816 949.926 693.733 956.108C692.84 955.143 693.08 955.703 692.962 954.452C695.097 951.838 698.885 949.83 701.66 947.823C712.871 939.716 722.935 933.379 734.556 926.091C746.581 918.55 758.674 911.044 771.523 904.972Z" fill="#231F20"/>
<path d="M109.553 311.103C113.557 310.984 118.252 310.438 121.551 313.201C123.617 314.932 123.935 318.018 124.222 320.554C125.099 328.303 125.726 372.225 121.228 376.625C118.224 379.564 112.149 378.571 108.382 378.383C106.201 376.638 104.431 374.948 103.153 372.419C101.709 369.56 100.247 364.938 101.35 361.785L101.896 361.793L102.636 364.377C103.059 365.85 103.432 367.265 104.576 368.371C106.593 370.321 111.832 371.294 114.551 370.979C116.703 370.73 117.939 369.609 119.29 368.022C121.039 359.792 119.159 345.517 119 336.703C118.904 331.398 119.432 326.004 118.903 320.719C118.789 319.577 118.861 318.389 117.885 317.678C115.998 316.302 109.664 316.699 107.361 317.088C106.187 317.286 106.062 317.401 105.397 318.305C105.782 320.474 106.351 322.844 105.19 324.857L104.284 324.918L103.713 323.978C103.879 320.823 103.707 316.551 105.309 313.767C106.327 311.998 107.733 311.631 109.553 311.103Z" fill="#231F20"/>
<path d="M928.058 162.292C929.285 164.216 929.201 167.429 929.31 169.71C929.847 180.979 929.682 192.325 929.801 203.607L930.39 262.832L931.422 434.53C931.474 443.627 929.506 451.428 922.844 458.053C920.056 460.825 916.497 463.437 912.705 464.551C906.226 466.455 863.946 466.485 854.375 466.421L853.126 466.295C852.178 465.521 851.557 465.246 851.13 464.059C853.35 460.387 903.071 463.32 911.263 461.184C914.812 460.259 918.045 458.244 920.673 455.712C924.535 451.991 927.365 446.946 928.104 441.606C929.08 434.548 928.384 426.684 928.327 419.53C928.209 404.575 927.946 389.609 928.005 374.655C928.284 303.888 926.147 233.052 928.058 162.292Z" fill="#231F20"/>
<path d="M855.95 80.9366C856.679 80.8521 857.41 80.7856 858.142 80.737C858.874 80.6884 859.608 80.6579 860.342 80.6453C861.076 80.6327 861.809 80.6381 862.543 80.6616C863.276 80.685 864.009 80.7265 864.741 80.7859C865.472 80.8453 866.202 80.9227 866.93 81.018C867.658 81.1132 868.383 81.2263 869.105 81.3572C869.827 81.488 870.545 81.6366 871.261 81.8028C871.975 81.9689 872.686 82.1525 873.392 82.3536C874.098 82.5546 874.798 82.7728 875.494 83.0083C876.188 83.2437 876.877 83.4961 877.561 83.7654C878.243 84.0347 878.919 84.3206 879.588 84.6231C880.256 84.9255 880.917 85.2442 881.571 85.5792C882.224 85.9141 882.868 86.2648 883.504 86.6314C884.14 86.998 884.766 87.3799 885.384 87.7773C886.001 88.1747 886.608 88.5869 887.205 89.0141C887.801 89.4413 888.387 89.8828 888.963 90.3388C889.538 90.7947 890.102 91.2645 890.654 91.7481C891.206 92.2317 891.746 92.7285 892.274 93.2387C892.802 93.7489 893.317 94.2717 893.819 94.8071C894.321 95.3425 894.809 95.8899 895.284 96.4493C895.759 97.0087 896.22 97.5795 896.668 98.1616C897.115 98.7436 897.548 99.3363 897.966 99.9396C898.384 100.543 898.787 101.156 899.175 101.779C899.563 102.402 899.935 103.034 900.292 103.676C900.648 104.317 900.989 104.967 901.315 105.625C901.639 106.283 901.948 106.949 902.241 107.623C902.533 108.296 902.808 108.976 903.067 109.663C903.326 110.349 903.568 111.042 903.793 111.741C904.017 112.439 904.225 113.143 904.416 113.852C904.606 114.561 904.778 115.274 904.934 115.992C905.089 116.709 905.227 117.43 905.347 118.154C905.467 118.878 905.569 119.604 905.653 120.334C905.737 121.063 905.803 121.794 905.852 122.526C905.9 123.258 905.93 123.992 905.943 124.726C905.955 125.46 905.949 126.193 905.926 126.927C905.902 127.66 905.86 128.393 905.801 129.125C905.741 129.856 905.663 130.586 905.568 131.314C905.472 132.041 905.359 132.766 905.228 133.489C905.096 134.211 904.947 134.929 904.781 135.644C904.615 136.359 904.431 137.069 904.23 137.775C904.028 138.481 903.81 139.181 903.574 139.877C903.338 140.572 903.086 141.261 902.817 141.944C902.547 142.626 902.26 143.302 901.958 143.971C901.655 144.639 901.336 145.3 901.001 145.953C900.666 146.606 900.315 147.25 899.948 147.886C899.581 148.522 899.199 149.148 898.802 149.765C898.404 150.382 897.992 150.989 897.564 151.586C897.136 152.182 896.695 152.768 896.239 153.344C895.783 153.918 895.313 154.482 894.829 155.034C894.345 155.586 893.848 156.126 893.338 156.654C892.828 157.181 892.305 157.696 891.769 158.198C891.233 158.7 890.686 159.188 890.126 159.663C889.566 160.137 888.996 160.598 888.414 161.046C887.831 161.492 887.238 161.925 886.635 162.343C886.031 162.761 885.418 163.163 884.795 163.551C884.171 163.939 883.539 164.311 882.898 164.668C882.256 165.024 881.606 165.365 880.948 165.69C880.29 166.014 879.624 166.323 878.951 166.615C878.277 166.907 877.597 167.182 876.91 167.441C876.223 167.699 875.53 167.941 874.832 168.166C874.133 168.39 873.429 168.598 872.72 168.788C872.011 168.978 871.298 169.15 870.581 169.306C869.863 169.46 869.142 169.598 868.418 169.718C867.694 169.837 866.967 169.939 866.238 170.023C865.509 170.107 864.779 170.173 864.047 170.221C863.314 170.269 862.581 170.299 861.848 170.311C861.114 170.323 860.381 170.317 859.648 170.293C858.914 170.269 858.182 170.227 857.451 170.168C856.719 170.108 855.99 170.03 855.263 169.934C854.535 169.838 853.811 169.725 853.089 169.594C852.367 169.462 851.649 169.313 850.935 169.147C850.22 168.981 849.51 168.797 848.805 168.596C848.099 168.394 847.399 168.176 846.704 167.94C846.009 167.704 845.321 167.452 844.639 167.182C843.956 166.912 843.281 166.626 842.613 166.324C841.944 166.021 841.283 165.702 840.631 165.367C839.978 165.032 839.334 164.681 838.699 164.315C838.063 163.948 837.437 163.566 836.821 163.169C836.204 162.771 835.597 162.359 835.001 161.932C834.404 161.504 833.818 161.063 833.244 160.607C832.669 160.151 832.106 159.681 831.555 159.198C831.003 158.714 830.463 158.217 829.936 157.707C829.408 157.197 828.894 156.674 828.392 156.139C827.89 155.603 827.402 155.056 826.928 154.497C826.452 153.937 825.991 153.367 825.545 152.785C825.098 152.203 824.666 151.611 824.248 151.008C823.83 150.404 823.428 149.791 823.04 149.169C822.652 148.546 822.28 147.914 821.924 147.273C821.567 146.631 821.226 145.982 820.902 145.324C820.577 144.666 820.269 144 819.977 143.328C819.685 142.654 819.409 141.975 819.151 141.289C818.892 140.602 818.65 139.909 818.426 139.211C818.201 138.513 817.993 137.809 817.803 137.101C817.613 136.392 817.44 135.679 817.285 134.962C817.13 134.245 816.993 133.525 816.873 132.801C816.753 132.077 816.651 131.35 816.567 130.622C816.483 129.893 816.416 129.163 816.368 128.431C816.32 127.699 816.289 126.966 816.277 126.232C816.265 125.498 816.27 124.765 816.294 124.032C816.318 123.298 816.359 122.566 816.419 121.835C816.479 121.103 816.556 120.374 816.652 119.647C816.747 118.919 816.86 118.195 816.991 117.473C817.122 116.751 817.271 116.033 817.437 115.319C817.603 114.604 817.786 113.894 817.988 113.188C818.189 112.482 818.407 111.782 818.643 111.088C818.878 110.393 819.13 109.704 819.4 109.022C819.669 108.339 819.955 107.663 820.257 106.995C820.559 106.327 820.878 105.666 821.213 105.014C821.547 104.36 821.898 103.716 822.265 103.081C822.631 102.445 823.013 101.819 823.411 101.202C823.807 100.585 824.219 99.9785 824.647 99.3821C825.073 98.7855 825.515 98.1997 825.971 97.6248C826.427 97.0498 826.896 96.4863 827.38 95.9345C827.863 95.3826 828.36 94.8429 828.87 94.3154C829.379 93.7878 829.901 93.2731 830.437 92.7713C830.972 92.2694 831.519 91.781 832.078 91.306C832.637 90.8309 833.208 90.3699 833.79 89.9229C834.371 89.4759 834.963 89.0434 835.567 88.6255C836.169 88.2075 836.782 87.8046 837.405 87.4168C838.028 87.0289 838.66 86.6566 839.301 86.2998C839.942 85.9429 840.591 85.602 841.249 85.2771C841.907 84.9521 842.572 84.6434 843.245 84.3512C843.918 84.0588 844.598 83.7832 845.284 83.5243C845.97 83.2653 846.663 83.0234 847.362 82.7985C848.06 82.5735 848.763 82.3658 849.472 82.1754C850.18 81.985 850.893 81.812 851.61 81.6566C852.327 81.5012 853.047 81.3634 853.771 81.2434C854.495 81.1232 855.221 81.021 855.95 80.9366Z" fill="#231F20"/>
<path d="M859.349 83.2256C868.834 83.3829 876.91 85.2947 884.677 90.9928C885.261 91.414 885.833 91.8496 886.394 92.2997C886.955 92.7497 887.505 93.2136 888.042 93.6913C888.58 94.169 889.106 94.66 889.619 95.1642C890.133 95.6684 890.633 96.1852 891.119 96.7146C891.607 97.244 892.08 97.7853 892.54 98.3385C892.999 98.8918 893.445 99.4563 893.876 100.032C894.308 100.607 894.725 101.193 895.126 101.79C895.528 102.387 895.915 102.993 896.286 103.61C896.658 104.226 897.013 104.851 897.353 105.485C897.693 106.119 898.017 106.761 898.324 107.412C898.631 108.062 898.923 108.72 899.197 109.385C899.471 110.05 899.728 110.721 899.969 111.399C900.21 112.077 900.433 112.761 900.639 113.45C900.845 114.139 901.034 114.833 901.205 115.532C901.377 116.231 901.53 116.933 901.665 117.64C901.801 118.346 901.919 119.055 902.019 119.768C903.224 128.201 901.415 137.33 896.103 144.133C889.732 152.292 878.821 156.154 868.875 157.262C857.201 157.858 846.951 155.472 837.848 147.694C830.455 141.378 825.234 131.71 824.586 121.947C823.98 112.808 827.485 102.516 833.597 95.6896C840.554 87.9188 848.999 83.8326 859.349 83.2256Z" fill="#4B6F4C"/>
<path d="M868.773 102.913C869.7 103.021 870.357 103.036 871.143 103.597C871.778 104.05 871.689 104.465 871.853 105.179C870.369 110.057 863.997 115.493 860.087 118.593C863.91 120.205 867.021 121.721 869.969 124.736C873.068 121.266 878.853 115.056 883.658 114.563C884.657 114.46 884.267 114.385 885.063 115.032C885.064 115.224 885.086 115.418 885.066 115.609C884.641 119.811 874.041 128.783 870.626 132.111C865.805 137.034 861.043 142.193 855.493 146.297C850.955 140.929 847.229 133.938 844.515 127.474C853.173 120.218 860.753 110.929 868.773 102.913Z" fill="#231F20"/>
<path d="M403.703 682.704C396.048 637.002 391.48 590.432 387.401 544.283C386.405 533.263 385.524 522.234 384.757 511.196C384.495 507.464 383.68 503.234 383.881 499.541C383.959 498.102 384.327 496.931 384.934 495.639L385.546 495.541C387.832 501.419 388.666 524.981 389.323 532.503L394.925 591.833C397.978 622.469 401.992 653.075 405.78 683.621C406.263 686.29 406.776 688.954 407.318 691.612L471.019 697.633C477.527 698.299 485.068 698.046 491.386 699.633L490.996 700.325C480.581 701.5 469.206 700.137 458.802 699.313C441.787 697.952 424.802 696.279 407.849 694.292C408.975 703.403 412.887 717.108 411.366 725.775C410.501 730.706 408.104 733.579 404.152 736.41C424.808 733.558 445.955 733.781 466.512 730.019C470.178 729.348 474.331 728.628 477.705 726.996C480.251 725.764 483.983 722.536 486.735 722.571L487.308 723.339C487.254 723.528 487.219 723.723 487.147 723.905C485.928 726.982 481.868 728.879 478.964 729.93C466.057 734.599 440.729 736.199 426.189 737.576C396.97 740.343 367.95 743.043 338.607 744.313C308.585 745.613 184.705 746.598 162.697 735.641C160.278 734.436 157.146 732.459 156.504 729.606C156.078 727.715 156.929 725.719 158.049 724.228C169.585 708.877 250.599 692.742 271.023 690.046C271.128 672.632 270.334 655.191 270.455 637.757C270.561 622.364 271.497 607.044 272.334 591.68C273.334 573.325 274.319 555.031 276.554 536.775C278.138 523.832 279.597 510.027 283.64 497.601C284.024 504.587 282.556 511.602 281.654 518.509C280.377 528.126 279.232 537.758 278.217 547.406C275.464 576.274 274.215 605.723 274.051 634.723C273.924 657.262 273.677 680.327 275.916 702.768C276.634 709.959 277.797 717.331 279.162 724.424C280.163 729.622 282.578 736.193 282.232 741.449C304.795 741.876 327.34 741.417 349.867 740.074C363.003 739.377 376.494 738.801 389.521 736.98C395.903 736.088 403.085 734.553 407.051 728.955C408.599 726.77 409.28 724.202 409.469 721.556C410.092 712.84 405.425 692.163 403.703 682.704Z" fill="#231F20"/>
<path d="M270.556 693.631C271.459 694.077 271.386 694.274 271.61 695.223C272.678 699.74 272.651 705.192 273.12 709.873C274.201 720.657 276.162 731.282 279.863 741.491C246.88 741.605 207.106 740.744 174.75 735.941C171.101 735.238 167.192 734.163 163.78 732.688C161.908 731.879 160.581 731.181 159.812 729.178C159.828 728.15 159.871 727.537 160.39 726.614C162.002 723.75 166.974 721.767 169.814 720.373C201.268 704.937 236.93 701.738 270.556 693.631Z" fill="#FEFEFE"/>
<path d="M347.974 166.721C355.463 166.621 384.181 164.973 389.392 167.639C392.256 169.105 393.935 171.896 394.896 174.869C397.524 182.998 396.404 192.708 396.638 201.164C397.07 212.903 397.372 224.645 397.543 236.391L398.76 400.94C398.76 415.298 400.03 429.819 399.638 444.153C399.593 445.782 399.398 447.054 398.627 448.492C397.185 449.047 375.237 449.37 371.396 449.546L231.171 455.715C222.943 456.05 214.721 456.502 206.506 457.072C201.284 457.467 195.777 458.306 190.546 458.098C188.665 458.023 186.689 457.88 185.091 456.81C184.095 454.259 183.868 451.303 183.65 448.587C182.586 435.328 183.411 421.608 183.279 408.292L182.464 321.044C182.249 294.644 182.556 268.164 182.045 241.782C181.886 231.506 181.658 221.232 181.359 210.959C181.113 203.514 180.55 195.991 180.833 188.543C181.003 184.042 180.977 177.876 184.196 174.365C187.401 170.868 192.4 169.293 196.994 168.846C203.626 168.201 210.766 169.122 217.428 169.414C228.072 169.925 238.722 170.178 249.378 170.173C273.336 170.217 297.345 168.932 321.269 167.748C330.168 167.308 339.074 167.215 347.974 166.721Z" fill="#231F20"/>
<path d="M328.735 170.711C329.316 170.667 329.892 170.625 330.474 170.609C341.153 170.31 351.88 170.401 362.563 170.363C368.992 170.34 376.05 169.763 382.418 170.693C384.924 171.058 387.755 171.617 389.577 173.514C392.809 176.877 392.509 184.117 392.428 188.454C375.761 188.878 359.102 189.96 342.422 190.339C309.621 191.085 277.003 191.273 244.244 193.437C233.239 193.539 222.235 194.669 211.246 195.241C202.355 195.703 193.425 195.674 184.524 196.063C184.267 190.908 184.443 185.722 184.505 180.562C185.141 179.489 185.784 178.402 186.614 177.465C189.407 174.315 192.924 173.002 197.041 172.626C201.451 172.222 205.929 172.809 210.335 173.094C219.381 173.68 228.636 174.467 237.696 174.43C268.011 174.308 298.469 172.334 328.735 170.711Z" fill="#FEFEFE"/>
<path d="M193.87 178.977C195.049 179.048 196.198 179.202 197.326 179.563C198.752 180.02 199.653 181.059 200.311 182.355C200.94 183.594 200.968 184.794 200.509 186.101C199.888 187.875 198.986 188.744 197.36 189.599C196.24 189.681 194.902 189.862 193.804 189.589C192.725 189.32 191.794 188.442 191.174 187.546C190.281 186.254 189.996 184.836 190.332 183.292C190.814 181.082 192.023 180.128 193.87 178.977Z" fill="#231F20"/>
<path d="M207.409 178.85C207.497 178.819 207.586 178.79 207.674 178.763C207.764 178.736 207.854 178.712 207.944 178.69C208.034 178.667 208.125 178.647 208.216 178.629C208.308 178.611 208.4 178.595 208.492 178.582C208.584 178.569 208.677 178.558 208.769 178.549C208.862 178.54 208.955 178.534 209.047 178.529C209.141 178.525 209.234 178.523 209.327 178.523C209.42 178.524 209.513 178.526 209.606 178.531C209.699 178.536 209.792 178.543 209.884 178.552C209.977 178.561 210.069 178.573 210.161 178.587C210.253 178.601 210.345 178.617 210.436 178.636C210.528 178.654 210.619 178.675 210.709 178.698C210.799 178.721 210.889 178.746 210.978 178.773C211.067 178.8 211.155 178.83 211.242 178.861C211.33 178.892 211.417 178.926 211.503 178.962C211.589 178.998 211.674 179.036 211.758 179.076C211.842 179.116 211.925 179.158 212.007 179.202C212.089 179.246 212.17 179.292 212.249 179.34C212.329 179.389 212.408 179.439 212.485 179.49C212.563 179.542 212.639 179.596 212.713 179.652C212.788 179.707 212.861 179.765 212.933 179.824C213.005 179.883 213.075 179.944 213.144 180.007C213.213 180.07 213.28 180.134 213.346 180.2C213.412 180.266 213.476 180.334 213.538 180.403C213.6 180.472 213.661 180.542 213.72 180.614C213.779 180.687 213.836 180.76 213.891 180.835C213.947 180.91 214 180.986 214.051 181.064C214.103 181.141 214.153 181.22 214.2 181.3C214.248 181.38 214.294 181.461 214.337 181.543C214.381 181.625 214.423 181.708 214.462 181.793C214.502 181.877 214.54 181.962 214.575 182.048C214.611 182.134 214.644 182.221 214.675 182.309C214.707 182.397 214.736 182.485 214.762 182.574C214.789 182.663 214.814 182.753 214.836 182.844C214.859 182.934 214.879 183.025 214.897 183.116C214.915 183.207 214.931 183.299 214.944 183.391C214.958 183.484 214.969 183.576 214.978 183.669C214.987 183.762 214.994 183.854 214.998 183.947C215.003 184.04 215.005 184.133 215.005 184.226C215.005 184.319 215.002 184.412 214.997 184.505C214.993 184.598 214.986 184.691 214.976 184.784C214.967 184.877 214.956 184.969 214.942 185.061C214.928 185.153 214.912 185.245 214.894 185.336C214.876 185.427 214.855 185.518 214.832 185.609C214.81 185.699 214.785 185.789 214.757 185.878C214.731 185.967 214.701 186.055 214.669 186.143C214.638 186.23 214.605 186.317 214.569 186.403C214.533 186.489 214.495 186.574 214.455 186.658C214.415 186.742 214.373 186.825 214.329 186.908C214.285 186.99 214.239 187.071 214.191 187.15C214.143 187.23 214.094 187.309 214.042 187.386C213.99 187.463 213.937 187.539 213.881 187.614C213.825 187.689 213.768 187.762 213.709 187.834C213.65 187.906 213.589 187.977 213.526 188.046C213.464 188.115 213.399 188.182 213.333 188.248C213.267 188.313 213.2 188.377 213.131 188.44C213.062 188.503 212.991 188.563 212.919 188.622C212.847 188.681 212.774 188.739 212.699 188.794C212.625 188.849 212.549 188.903 212.471 188.955C212.393 189.006 212.315 189.056 212.235 189.104C212.155 189.151 212.074 189.197 211.991 189.241C211.909 189.285 211.826 189.327 211.742 189.367C211.658 189.406 211.573 189.444 211.487 189.48C211.401 189.515 211.314 189.549 211.226 189.58C211.138 189.611 211.05 189.641 210.96 189.668C210.871 189.695 210.781 189.719 210.691 189.742C210.601 189.765 210.51 189.785 210.418 189.803C210.327 189.821 210.235 189.837 210.142 189.851C210.05 189.864 209.958 189.876 209.865 189.885C209.772 189.894 209.679 189.9 209.586 189.905C209.493 189.91 209.4 189.912 209.306 189.912C209.213 189.912 209.12 189.91 209.026 189.905C208.934 189.9 208.841 189.893 208.747 189.884C208.655 189.875 208.562 189.863 208.47 189.849C208.378 189.836 208.286 189.82 208.194 189.801C208.103 189.783 208.012 189.763 207.921 189.74C207.831 189.717 207.742 189.692 207.652 189.665C207.563 189.638 207.474 189.608 207.386 189.577C207.299 189.546 207.212 189.512 207.126 189.476C207.04 189.44 206.954 189.402 206.87 189.362C206.786 189.322 206.703 189.28 206.62 189.236C206.538 189.192 206.457 189.146 206.377 189.098C206.297 189.05 206.219 189 206.141 188.948C206.064 188.896 205.988 188.842 205.913 188.787C205.838 188.731 205.764 188.673 205.692 188.614C205.62 188.555 205.55 188.494 205.481 188.431C205.412 188.368 205.344 188.304 205.278 188.238C205.213 188.172 205.149 188.104 205.086 188.035C205.024 187.966 204.963 187.895 204.903 187.823C204.845 187.751 204.788 187.677 204.732 187.602C204.677 187.527 204.623 187.451 204.571 187.373C204.52 187.296 204.47 187.217 204.422 187.137C204.374 187.057 204.328 186.976 204.284 186.893C204.241 186.811 204.199 186.728 204.159 186.643C204.119 186.559 204.082 186.474 204.046 186.387C204.011 186.301 203.978 186.214 203.946 186.126C203.915 186.038 203.886 185.949 203.859 185.86C203.832 185.771 203.807 185.681 203.785 185.591C203.763 185.5 203.742 185.409 203.724 185.317C203.706 185.226 203.691 185.134 203.677 185.042C203.663 184.949 203.652 184.857 203.643 184.764C203.634 184.671 203.627 184.578 203.623 184.485C203.619 184.392 203.616 184.298 203.616 184.205C203.617 184.112 203.62 184.019 203.624 183.926C203.629 183.833 203.636 183.74 203.645 183.647C203.655 183.554 203.666 183.462 203.68 183.369C203.694 183.277 203.71 183.185 203.728 183.094C203.747 183.003 203.768 182.912 203.79 182.821C203.814 182.73 203.839 182.641 203.865 182.552C203.893 182.463 203.922 182.374 203.954 182.286C203.986 182.199 204.019 182.112 204.055 182.026C204.091 181.939 204.129 181.854 204.169 181.77C204.209 181.686 204.251 181.603 204.295 181.521C204.34 181.438 204.386 181.357 204.434 181.277C204.482 181.198 204.532 181.119 204.584 181.042C204.636 180.964 204.69 180.888 204.746 180.813C204.802 180.738 204.859 180.665 204.919 180.593C204.979 180.521 205.04 180.451 205.102 180.382C205.165 180.313 205.229 180.245 205.295 180.18C205.361 180.114 205.429 180.05 205.498 179.988C205.568 179.925 205.639 179.864 205.711 179.805C205.783 179.746 205.857 179.689 205.932 179.634C206.007 179.579 206.083 179.525 206.161 179.474C206.239 179.422 206.318 179.372 206.398 179.325C206.478 179.277 206.559 179.231 206.641 179.187C206.724 179.144 206.808 179.102 206.892 179.062C206.976 179.023 207.062 178.985 207.148 178.95C207.234 178.915 207.321 178.881 207.409 178.85Z" fill="#231F20"/>
<path d="M223.125 177.533C223.993 177.461 224.883 177.388 225.754 177.468C227.321 177.613 228.564 178.386 229.486 179.658C230.651 181.267 230.924 183.215 230.495 185.129C229.907 187.752 228.783 188.974 226.575 190.405C225.599 190.336 224.61 190.261 223.644 190.096C221.69 189.762 220.158 188.656 219.077 186.998C218.187 185.632 217.951 184.044 218.394 182.474C219.15 179.794 220.776 178.79 223.125 177.533Z" fill="#231F20"/>
<path d="M385.232 192.295C387.801 192.008 390.403 192.03 392.986 191.976C393.841 225.911 394.369 259.852 394.57 293.797L395.934 391.313C395.987 397.262 395.619 403.213 395.593 409.162C395.541 421.08 395.831 433.027 396.073 444.943C362.259 445.662 328.457 447.805 294.674 449.339C261.752 450.833 228.914 451.673 196.009 453.856C194.078 453.952 190.405 454.568 188.748 453.479C187.603 452.728 187.098 451.656 186.921 450.337C186.49 447.127 186.724 443.496 186.658 440.226C186.557 430.585 186.51 420.943 186.517 411.302L185.596 267.514C185.578 253.005 185.442 238.496 185.186 223.989C185.084 216.208 185.35 208.228 184.489 200.494C196.79 200.437 209.161 199.4 221.436 198.62C236.69 197.652 251.953 196.836 267.225 196.171C288.953 195.232 310.748 194.186 332.485 193.611C350.094 193.144 367.628 193.16 385.232 192.295Z" fill="#FEFEFE"/>
<path d="M360.86 288.568C363.529 288.445 365.744 288.379 368.159 289.66L366.974 290.399C365.286 290.68 363.053 291.304 361.364 290.998C360.402 290.824 360.803 290.998 360.137 290.03L360.86 288.568Z" fill="#231F20"/>
<path d="M283.636 247.256C285.813 247.091 288.968 246.459 290.783 247.973C292.558 249.454 292.867 252.265 292.787 254.405C292.604 259.29 292.062 264.564 291.08 269.353C282.321 269.488 273.562 269.543 264.802 269.518C260.529 269.523 255.846 269.935 251.633 269.278C250.296 269.069 249.382 268.627 248.402 267.679C248.183 267.468 247.973 267.247 247.759 267.031C245.102 261.602 246.148 254.78 246.84 249.001L247.103 248.397C250.997 247.145 277.548 247.42 283.636 247.256Z" fill="#231F20"/>
<path d="M263.051 258.938C260.945 259.139 257.917 259.336 255.993 258.395L255.859 257.817C255.964 257.697 256.057 257.566 256.174 257.459C260.039 253.918 265.956 255.994 270.458 255.948L270.928 255.939C273.868 256.166 278.032 255.787 280.529 257.414C274.831 258.246 268.598 257.493 263.051 258.938Z" fill="#FEFEFE"/>
<path d="M285.594 250.171L287.968 250.431C289.072 252.065 288.898 253.15 288.545 255.013C288.348 256.052 288.163 257.103 287.861 258.116L287.031 257.303C286.555 255.993 286.735 254.576 286.775 253.204C280.654 252.432 273.564 253.521 267.316 253.56C266.389 253.846 265.157 253.955 264.611 254.765C266.783 254.955 268.933 254.981 270.928 255.939L270.458 255.948C265.956 255.994 260.039 253.918 256.174 257.459C256.057 257.566 255.964 257.697 255.859 257.817L255.993 258.395C257.917 259.336 260.945 259.139 263.051 258.938L263.187 259.366L264.675 259.543L270.83 259.463L285.306 259.549C286.752 259.521 287.509 259.291 288.743 260.089C289.192 261.697 289.085 263.247 289.043 264.897C286.143 266.781 264.3 266.389 259.394 266.492C256.279 266.804 251.9 267.868 249.162 266.09C247.849 261.178 248.221 255.238 248.041 250.153C260.56 251.347 273.044 250.415 285.594 250.171Z" fill="#FEFEFE"/>
<path d="M254.142 260.084C254.013 257.541 253.511 253.961 254.777 251.681C255.173 250.967 255.152 251.175 256.036 250.918C257.548 251.724 257.581 251.842 258.345 253.389C260.015 254.35 265.159 253.596 267.316 253.56C266.389 253.846 265.157 253.955 264.611 254.765C266.783 254.955 268.933 254.981 270.928 255.939L270.458 255.948C265.956 255.994 260.039 253.918 256.174 257.459C256.057 257.566 255.964 257.697 255.859 257.817L255.993 258.395C257.917 259.336 260.945 259.139 263.051 258.938L263.187 259.366C260.183 259.725 257.161 259.888 254.142 260.084Z" fill="#564746"/>
<path d="M270.83 259.463L285.306 259.549C283.887 259.989 283.228 260.045 282.206 261.155C283.296 261.984 284.644 261.973 285.96 262.128L288.185 263.832C279.591 265.839 264.053 264.014 254.712 264.275C254.874 263.834 255.154 263.433 255.392 263.028C258.467 262.422 261.716 262.7 264.839 262.756C267.114 262.756 269.055 263.091 270.831 261.528L270.83 259.463Z" fill="#B3B2B2"/>
<path d="M334.405 276.627C341.577 278.251 346.031 280.571 349.991 286.953C350.907 288.429 351.603 289.823 351.797 291.556C351.365 292.628 351.424 292.611 350.387 293.109C349.153 292.068 348.967 290.485 348.542 288.943C347.527 285.262 344.036 282.759 340.838 280.997C339.455 280.236 338.026 279.616 336.555 279.047C333.895 279.379 331.383 279.594 328.936 280.786C326.417 282.337 323.42 284.22 322.466 287.18C327.823 284.436 332.838 280.463 339.245 282.519C342.966 283.713 346.875 286.984 348.487 290.572C350.063 294.081 349.936 298.182 348.451 301.697C348.259 302.148 348.045 302.588 347.808 303.017C347.571 303.446 347.314 303.862 347.036 304.265C346.757 304.668 346.459 305.056 346.142 305.429C345.824 305.802 345.488 306.159 345.135 306.498C344.782 306.837 344.412 307.157 344.026 307.459C343.641 307.761 343.241 308.043 342.827 308.305C342.412 308.567 341.986 308.807 341.548 309.026C341.109 309.245 340.661 309.441 340.203 309.614C335.896 311.256 330.738 310.933 326.625 308.879C320.932 306.036 322.181 302.738 318.851 298.931C318.019 300.806 316.748 304.087 317.41 306.091C317.568 306.571 317.702 306.771 317.935 307.186C316.161 309.532 312.75 310.352 310.712 312.685L310.942 313.384C314.933 313.696 317.321 309.224 320.934 308.65C321.338 309.364 321.538 309.826 321.768 310.59C326.58 313.032 331.819 313.856 337.167 313.859L337.851 313.674C340.586 312.902 344.462 311.713 346.589 309.786C348.206 308.321 349.349 303.989 351.864 305.211C352.61 306.61 353.158 307.472 352.617 309.095C352.21 310.315 351.814 311.26 350.822 312.12C349.766 312.086 348.999 311.828 348.012 311.464C344.022 313.437 341.393 315.462 336.727 315.586C330.801 315.542 325.849 314.162 320.342 312.124C317.394 315.158 312.683 318.123 308.561 319.26C307.042 319.679 305.773 319.767 304.359 318.961C303.843 318.324 303.626 317.927 303.504 317.082C302.678 311.364 310.252 310.036 313.267 306.456C315.143 304.228 315.77 300.771 317.708 298.266C319.422 295.886 319.454 293.594 319.937 290.821C320.82 285.746 322.317 282.805 326.617 279.733C329.078 278.105 331.588 277.401 334.405 276.627Z" fill="#231F20"/>
<path d="M224.797 324.527C229.326 312.015 236.039 297.704 248.857 291.777C253.769 289.506 259.278 289.166 264.375 291.046C274.682 294.849 282.707 308.604 286.867 318.128C289.006 323.025 291.739 332.263 289.468 337.378C289.026 338.372 288.44 338.678 287.447 339.056C277.749 339.792 235.651 341.859 228.6 339.729C226.843 339.198 225.699 338.054 224.891 336.436C223.09 332.828 223.649 328.225 224.797 324.527Z" fill="#231F20"/>
<path d="M226.605 326.425C229.38 315.158 237.576 301.351 247.852 295.346C252.336 292.726 257.491 291.608 262.548 293.139C271.99 296 279.151 308.692 283.247 316.943C286.415 323.325 287.815 328.715 287.388 335.901C286.964 335.96 286.539 336.012 286.113 336.058C276.616 337.128 266.664 336.994 257.101 337.335C248.792 337.63 239.537 338.594 231.289 337.774C229.505 337.597 228.638 337.558 227.245 336.455C225.68 333.27 226.309 329.84 226.605 326.425Z" fill="#C62D2D"/>
<path d="M241.157 319.502C242.824 315.353 244.766 309.308 249.089 307.264C251.705 307.054 254.101 310.43 256.314 308.385C257.825 306.988 258.825 306.27 260.988 306.356C262.839 306.43 264.695 307.215 265.81 308.735C267.553 311.114 267.338 314.417 266.638 317.113C266.198 318.808 265.668 321.031 264.745 322.506C266.016 323.791 267.248 325.338 269.016 325.878C272.994 325.166 273.472 320.109 277.158 319.863C277.659 320.7 277.616 320.307 277.402 321.306C276.884 323.718 274.322 326.708 272.216 327.952C270.846 328.761 268.866 329.279 267.3 328.831C265.945 328.443 264.6 327.377 263.445 326.583C256.694 329.965 257.61 326.755 252.912 327.763C249.105 328.58 247.403 332.062 243.01 330.464C242.351 330.224 241.741 329.842 241.138 329.491C241.018 329.294 240.888 329.102 240.778 328.899C239.102 325.792 240.207 322.63 241.157 319.502Z" fill="#231F20"/>
<path d="M256.139 316.952C257.159 314.678 258.405 310.666 260.936 309.743C261.629 309.491 261.91 309.815 262.524 310.095C263.959 311.871 264.174 313.632 264.802 315.763C263.566 318.536 262.6 322.566 260.696 324.804C259.319 325.317 258.947 325.574 257.499 325.041C256.645 324.727 255.772 324.133 254.982 323.676C251.286 323.525 248.955 327.263 242.757 327.014C242.375 325.221 242.543 323.521 242.657 321.703C243.732 318.092 245.88 312.259 249.483 310.53C250.584 310.002 251.723 309.889 252.855 310.435C255.115 311.524 255.614 314.798 256.139 316.952Z" fill="#FEFEFE"/>
<path d="M357.895 209.258C358 209.251 358.105 209.237 358.211 209.237C360.593 209.229 362.758 209.842 364.487 211.541C366.318 213.341 366.989 215.573 367.01 218.086C367.034 221.001 366.453 224.453 364.272 226.577C362.974 227.84 362.031 228.071 360.304 228.25C352.916 229.017 345.302 228.972 337.881 229.192C320.894 229.698 303.948 229.783 286.964 230.129C278.578 230.3 270.177 231.139 261.794 231.553C246.327 232.233 230.854 232.719 215.375 233.011C212.925 233.005 211.333 232.576 209.468 230.917C207.719 229.362 206.808 227.189 206.697 224.868C206.549 221.761 207.834 218.855 209.928 216.607C211.606 214.807 213.721 214.691 216.034 214.407C230.766 212.604 246.321 213.068 261.172 212.466C293.406 211.185 325.647 210.116 357.895 209.258Z" fill="#231F20"/>
<path d="M296.739 218.691C296.854 218.679 296.97 218.674 297.086 218.674C297.202 218.674 297.317 218.679 297.433 218.69C297.548 218.701 297.663 218.717 297.777 218.739C297.891 218.761 298.003 218.788 298.115 218.82C298.226 218.853 298.335 218.89 298.443 218.933C298.551 218.976 298.656 219.024 298.76 219.077C298.862 219.129 298.963 219.187 299.061 219.25C299.158 219.312 299.252 219.38 299.344 219.451C299.435 219.522 299.523 219.598 299.607 219.678C299.691 219.758 299.771 219.841 299.848 219.929C299.924 220.016 299.995 220.107 300.063 220.202C300.13 220.296 300.193 220.393 300.252 220.493C300.31 220.593 300.363 220.697 300.411 220.802C300.459 220.907 300.503 221.014 300.541 221.124C300.579 221.233 300.612 221.344 300.64 221.457C300.668 221.569 300.69 221.683 300.707 221.798C300.723 221.913 300.735 222.028 300.741 222.144C300.747 222.26 300.747 222.375 300.742 222.491C300.736 222.607 300.726 222.722 300.71 222.837C300.694 222.952 300.672 223.065 300.645 223.179C300.618 223.291 300.586 223.402 300.549 223.512C300.511 223.622 300.468 223.73 300.421 223.835C300.373 223.941 300.32 224.044 300.262 224.145C300.204 224.246 300.142 224.343 300.076 224.438C300.008 224.533 299.937 224.624 299.862 224.712C299.786 224.799 299.706 224.883 299.623 224.964C299.539 225.044 299.451 225.12 299.361 225.193C299.27 225.265 299.176 225.332 299.079 225.395C298.981 225.458 298.881 225.517 298.779 225.57C298.675 225.623 298.57 225.672 298.463 225.716C298.355 225.759 298.246 225.797 298.135 225.831C298.024 225.863 297.912 225.891 297.798 225.914C297.636 225.946 297.473 225.967 297.309 225.977C297.144 225.986 296.98 225.985 296.816 225.973C296.652 225.96 296.489 225.936 296.328 225.902C296.166 225.868 296.008 225.823 295.854 225.767C295.698 225.711 295.548 225.646 295.402 225.57C295.256 225.493 295.116 225.408 294.982 225.313C294.847 225.218 294.719 225.114 294.599 225.002C294.478 224.889 294.366 224.769 294.262 224.642C294.158 224.514 294.062 224.381 293.976 224.24C293.89 224.1 293.813 223.954 293.747 223.804C293.681 223.653 293.625 223.498 293.579 223.34C293.533 223.182 293.499 223.021 293.475 222.858C293.451 222.695 293.438 222.532 293.437 222.367C293.435 222.202 293.444 222.038 293.465 221.875C293.485 221.711 293.516 221.55 293.559 221.391C293.601 221.232 293.653 221.076 293.717 220.924C293.78 220.772 293.853 220.625 293.937 220.483C294.019 220.341 294.112 220.205 294.214 220.075C294.315 219.945 294.425 219.823 294.543 219.708C294.661 219.593 294.786 219.487 294.919 219.389C295.051 219.292 295.19 219.203 295.334 219.124C295.478 219.044 295.628 218.976 295.782 218.917C295.935 218.858 296.092 218.809 296.253 218.771C296.413 218.733 296.575 218.707 296.739 218.691Z" fill="#FEFEFE"/>
<path d="M278.977 219.695C279.144 219.651 279.313 219.618 279.484 219.597C279.655 219.576 279.827 219.565 279.999 219.566C280.172 219.567 280.343 219.58 280.514 219.604C280.685 219.628 280.853 219.663 281.02 219.709C281.186 219.755 281.348 219.812 281.507 219.879C281.666 219.946 281.819 220.024 281.968 220.112C282.116 220.199 282.258 220.296 282.394 220.403C282.529 220.51 282.657 220.625 282.778 220.748C282.899 220.871 283.01 221.002 283.113 221.14C283.216 221.279 283.31 221.423 283.394 221.573C283.479 221.724 283.553 221.879 283.616 222.04C283.68 222.2 283.733 222.364 283.775 222.531C283.817 222.698 283.848 222.868 283.867 223.039C283.887 223.21 283.895 223.382 283.892 223.554C283.889 223.727 283.875 223.898 283.849 224.069C283.824 224.239 283.787 224.407 283.739 224.573C283.691 224.739 283.633 224.901 283.564 225.059C283.495 225.216 283.415 225.369 283.326 225.517C283.237 225.664 283.138 225.805 283.03 225.94C282.922 226.074 282.806 226.201 282.681 226.32C282.556 226.439 282.424 226.55 282.285 226.651C282.146 226.753 282 226.845 281.849 226.928C281.698 227.011 281.542 227.083 281.381 227.145C281.22 227.207 281.056 227.258 280.888 227.298C280.764 227.328 280.639 227.352 280.513 227.369C280.386 227.386 280.259 227.398 280.132 227.403C280.005 227.408 279.877 227.407 279.75 227.4C279.623 227.393 279.496 227.379 279.37 227.36C279.244 227.34 279.119 227.314 278.995 227.283C278.872 227.251 278.75 227.213 278.63 227.169C278.511 227.126 278.393 227.076 278.278 227.021C278.163 226.966 278.051 226.905 277.942 226.839C277.833 226.773 277.728 226.702 277.625 226.626C277.523 226.549 277.425 226.468 277.331 226.382C277.236 226.296 277.146 226.206 277.061 226.111C276.976 226.016 276.895 225.918 276.82 225.815C276.744 225.712 276.673 225.606 276.608 225.497C276.543 225.388 276.483 225.275 276.428 225.16C276.373 225.045 276.325 224.927 276.282 224.807C276.239 224.687 276.202 224.565 276.171 224.441C276.14 224.317 276.115 224.192 276.096 224.066C276.077 223.94 276.065 223.813 276.058 223.686C276.051 223.559 276.051 223.431 276.057 223.304C276.063 223.177 276.075 223.05 276.094 222.924C276.112 222.798 276.136 222.673 276.167 222.549C276.197 222.425 276.233 222.303 276.276 222.183C276.319 222.063 276.367 221.945 276.42 221.829C276.474 221.714 276.534 221.601 276.599 221.491C276.664 221.382 276.734 221.275 276.809 221.172C276.884 221.069 276.964 220.97 277.049 220.875C277.134 220.78 277.224 220.69 277.317 220.603C277.411 220.517 277.509 220.435 277.61 220.358C277.712 220.281 277.817 220.21 277.926 220.143C278.035 220.076 278.146 220.015 278.261 219.96C278.376 219.904 278.493 219.854 278.613 219.81C278.732 219.766 278.854 219.728 278.977 219.695Z" fill="#FEFEFE"/>
<path d="M314.493 217.232C314.613 217.175 314.734 217.123 314.858 217.077C314.982 217.031 315.108 216.991 315.236 216.957C315.364 216.924 315.494 216.896 315.624 216.875C315.755 216.854 315.886 216.839 316.018 216.831C316.15 216.822 316.283 216.82 316.415 216.824C316.547 216.829 316.679 216.839 316.81 216.856C316.942 216.873 317.072 216.897 317.2 216.926C317.33 216.956 317.457 216.992 317.582 217.034C317.708 217.076 317.832 217.124 317.952 217.177C318.073 217.231 318.191 217.291 318.306 217.356C318.422 217.421 318.533 217.492 318.641 217.568C318.75 217.644 318.854 217.725 318.954 217.811C319.055 217.898 319.151 217.989 319.243 218.084C319.335 218.179 319.421 218.279 319.503 218.383C319.585 218.487 319.662 218.595 319.734 218.706C319.806 218.817 319.872 218.931 319.932 219.049C319.993 219.167 320.048 219.287 320.096 219.41C320.146 219.533 320.189 219.658 320.225 219.785C320.262 219.912 320.293 220.041 320.317 220.171C320.341 220.301 320.359 220.432 320.371 220.564C320.383 220.696 320.388 220.828 320.387 220.96C320.386 221.093 320.379 221.225 320.365 221.356C320.351 221.487 320.331 221.618 320.304 221.748C320.278 221.877 320.246 222.005 320.206 222.132C320.168 222.259 320.123 222.383 320.072 222.505C320.022 222.628 319.965 222.747 319.902 222.864C319.84 222.981 319.772 223.094 319.698 223.204C319.625 223.314 319.547 223.42 319.463 223.523C319.379 223.626 319.291 223.724 319.198 223.818C319.105 223.912 319.007 224.001 318.905 224.086C318.804 224.171 318.698 224.25 318.588 224.324C318.479 224.399 318.366 224.468 318.25 224.531C318.09 224.618 317.925 224.695 317.755 224.76C317.585 224.825 317.412 224.879 317.234 224.922C317.057 224.964 316.878 224.994 316.696 225.013C316.515 225.031 316.333 225.037 316.151 225.032C315.969 225.026 315.788 225.008 315.608 224.978C315.429 224.948 315.252 224.906 315.077 224.853C314.903 224.8 314.733 224.735 314.567 224.659C314.402 224.583 314.242 224.496 314.088 224.399C313.934 224.302 313.787 224.195 313.647 224.078C313.508 223.961 313.377 223.835 313.253 223.7C313.13 223.566 313.016 223.424 312.912 223.275C312.808 223.125 312.715 222.969 312.631 222.807C312.548 222.645 312.476 222.478 312.414 222.306C312.353 222.135 312.303 221.96 312.265 221.782C312.227 221.603 312.201 221.423 312.187 221.242C312.174 221.06 312.172 220.878 312.182 220.696C312.192 220.514 312.215 220.334 312.249 220.155C312.283 219.976 312.329 219.8 312.387 219.627C312.445 219.454 312.514 219.286 312.594 219.122C312.674 218.959 312.765 218.801 312.866 218.649C312.968 218.498 313.078 218.354 313.198 218.217C313.319 218.08 313.448 217.951 313.585 217.832C313.723 217.712 313.867 217.602 314.019 217.502C314.171 217.401 314.329 217.311 314.493 217.232Z" fill="#FEFEFE"/>
<path d="M357.317 365.715C361.528 365.408 366.944 365.217 371.013 366.231C372.577 366.621 374.078 367.328 374.817 368.861C375.64 370.567 375.091 373.185 374.352 374.843C373.662 376.391 372.205 376.771 370.735 377.324C369.08 386.829 368.351 396.828 367.792 406.464C367.524 411.102 367.674 416.028 366.995 420.607C366.749 422.262 366.224 423.646 365.08 424.883C363.847 426.217 361.722 426.812 359.995 427.098C355.222 427.889 349.9 427.416 345.047 427.453C338.531 427.544 332.018 427.713 325.508 427.961C324.208 427.744 322.924 427.5 321.686 427.035C320.21 426.481 319.142 425.726 318.423 424.27C316.798 420.976 316.765 416.602 316.35 413.006C315.552 406.081 313.621 382.476 311.64 378.017C310.476 377.938 309.432 377.779 308.297 377.51C307.356 376.623 307.135 375.554 306.987 374.313C306.729 372.158 306.515 368.802 307.932 367.005C313.788 366.44 319.672 366.859 325.547 366.779C336.143 366.612 346.733 366.257 357.317 365.715Z" fill="#231F20"/>
<path d="M326.552 368.231L328.871 368.183C335.216 368.059 366.504 367.017 370.021 370.397L369.629 370.979C365.457 373.199 359.526 372.598 354.89 372.596C348.068 373.846 318.805 374.126 312.027 373.101L311.353 372.139C311.299 370.852 311.438 370.373 312.127 369.285C314.479 367.565 323.297 368.294 326.552 368.231Z" fill="#FEFEFE"/>
<path d="M318.208 394.663C317.999 391.278 315.959 380.013 317.342 377.683C320.467 376.182 359.855 377.275 366.174 377.133C365.404 383.161 363.945 420.609 362.165 422.471C354.778 423.736 330.373 424.557 323.493 423.362C321.172 421.159 321.591 416.819 321.006 413.828C323.136 413.724 325.78 413.896 327.743 413.041L327.751 412.574C325.615 412.418 323.233 413.417 321.307 412.486C320.868 411.84 320.558 411.405 320.33 410.649C325.967 410.175 332.729 411.002 338.068 409.085L337.927 408.519C333.399 407.444 325.777 407.591 321.4 408.896L319.266 406.734C319.362 405.685 319.157 404.499 319.08 403.443C319.146 402.997 319.368 402.527 319.52 402.102L320.694 401.76C320.588 401.654 320.479 401.55 320.375 401.442C320.224 401.287 320.081 401.126 319.93 400.973C318.877 399.905 318.686 399.133 318.352 397.715C318.311 397.542 318.274 397.369 318.235 397.196C322.939 396.704 327.946 397.415 332.553 396.729C333.915 396.526 334.42 396.022 335.288 395.017L334.801 394.527C329.758 393.53 323.407 394.498 318.208 394.663Z" fill="#FED496"/>
<path d="M319.08 403.443C319.257 403.52 319.425 403.621 319.61 403.676C323.049 404.684 327.893 402.292 332.249 403.552L332.71 404.304C328.904 406.063 323.061 404.226 319.266 406.734C319.362 405.685 319.157 404.499 319.08 403.443Z" fill="#564746"/>
<path d="M261.105 365.284C263.937 365.094 266.796 364.843 269.634 364.848C271.53 364.851 273.448 364.87 274.857 366.285C275.851 369.04 275.891 372.095 275.468 374.977C275.231 376.593 274.902 377.999 273.559 379.034C272.386 379.208 271.234 379.411 270.074 379.655C267.491 384.508 269.043 419.698 265.437 430.321C251.656 432.945 236.7 431.839 222.675 433.063C221.573 432.945 220.556 432.671 219.484 432.4C215.107 428.858 215.346 400.991 215.463 394.43C215.539 390.11 216.32 385.29 215.598 381.046C214.675 380.202 214.002 380.562 212.858 380.462C211.386 380.333 211.388 380.375 210.489 379.268C209.623 375.826 209.994 371.178 210.746 367.704C212.873 365.776 254.845 365.532 261.105 365.284Z" fill="#231F20"/>
<path d="M260.554 368.246C263.495 368.173 268.259 367.603 270.841 369.031C271.031 369.646 271.182 370.043 271.245 370.71C271.366 371.995 270.835 372.814 270.055 373.73C265.555 374.856 260.225 374.498 255.559 374.667C245.336 375.136 235.108 375.404 224.875 375.471C221.296 375.529 217.719 375.489 214.142 375.351C213.786 373.123 213.71 370.923 213.622 368.674C229.171 367.871 244.969 368.44 260.554 368.246Z" fill="#FEFEFE"/>
<path d="M223.615 379.734C237.039 379.975 251.408 381.105 264.749 379.585C264.74 395.273 263.628 410.92 262.474 426.559C255.233 427.415 247.906 427.586 240.625 427.902C233.997 428.173 227.499 428.472 220.861 428.242C220.263 422.365 219.784 416.477 219.426 410.58C225.864 410.488 230.87 409.545 236.725 406.738C231.256 406.819 225.288 409.354 220.001 408.671L219.367 407.66C219.878 403.362 223.16 406.535 224.858 404.572C222.969 403.746 221.124 403.957 219.119 404.035C218.894 396.457 218.028 387.839 219.19 380.386C220.464 379.62 222.166 379.788 223.615 379.734Z" fill="#FED496"/>
<path d="M226.828 385.989C227.96 386.227 228.536 386.491 229.45 387.199L229.566 388.218C228.484 389.511 227.814 389.609 226.259 390.181C225.904 390.096 225.555 390.026 225.219 389.869C224.043 389.321 223.847 389.166 223.46 388.009C224.559 386.621 225.192 386.571 226.828 385.989Z" fill="#231F20"/>
<path d="M408.392 114.535L407.677 113.4C405.828 110.437 403.43 107.242 404.267 103.606C405.277 102.319 407.163 101.571 408.623 100.872C417.691 96.5331 427.203 93.0648 436.32 88.7887C452.225 81.3288 467.842 73.167 483.953 66.1646C504.104 80.3982 522.23 97.5157 542.567 111.567C566.052 109.958 589.782 109.91 613.323 109.241L703.929 106.333C737.222 105.506 770.58 103.036 803.894 103.425C804.783 103.436 805.254 103.48 805.991 104.035C802.433 107.141 569.903 113.648 546.343 114.079C550.27 117.237 554.374 120.144 558.656 122.799C564.622 126.569 582.986 135.72 584.858 142.431C585.361 144.233 585.075 146.078 584.023 147.626C579.538 154.222 560.648 166.892 553.384 172.391C547.217 177.058 541.17 181.941 535.111 186.748C529.718 191.026 524.722 195.994 519.221 200.091C517.965 201.026 516.861 201.658 515.314 201.914C509.146 198.689 498.198 189.38 491.908 184.895C478.132 175.073 463.666 165.807 450.296 155.466C443.141 149.952 436.29 144.084 429.742 137.861C423.194 131.638 416.985 125.094 411.114 118.229C398.105 119.641 384.58 119.587 371.498 119.935L328.388 121.445C269.628 122.918 210.885 124.897 152.159 127.38C142.666 127.839 114.2 127.383 107.324 129.906C98.6372 133.093 94.639 141.528 91.1567 149.39C90.9067 158.07 91.4862 166.831 91.7999 175.51C92.3282 188.761 92.7129 202.015 92.9539 215.274C93.7363 268.619 95.2286 321.945 97.431 375.251C98.3265 397.051 98.144 418.884 99.069 440.671C99.3764 447.911 99.2516 455.424 100.229 462.591C101.317 470.566 103.412 478.641 109.11 484.617C115.997 491.839 125.02 494.904 134.82 495.012C148.751 495.165 162.995 493.301 176.927 492.532C207.399 491.122 237.857 489.453 268.301 487.524L510.499 476.037L589.336 472.302C606.785 471.326 624.411 469.583 641.882 469.486C643.28 449.693 648.18 420.323 655.229 402.041C621.267 402.744 594.098 397.383 563.56 382.64C552.954 377.519 542.397 371.109 531.383 367.018C529.981 369.607 528.727 372.659 525.748 373.733C524.417 374.212 523.059 373.955 521.836 373.315C518.06 371.34 514.855 364.346 513.729 360.43C514.303 357.935 514.84 355.466 515.698 353.05C510.893 347.192 504.536 342.862 498.68 338.137C492.819 337.26 486.969 336.356 481.062 335.842C465.771 334.513 460.67 333.946 448.031 324.46C444.234 321.61 439.586 318.059 436.71 314.251C436.147 313.505 435.802 312.775 435.458 311.913C435.435 311.834 435.421 311.752 435.39 311.676C434.923 310.52 434.409 309.735 434.413 308.439C434.43 301.723 424.434 293.116 425.217 286.081C425.386 284.561 425.737 284.281 426.759 283.249C428.462 282.636 429.299 282.634 431.057 283.033C431.107 282.844 431.166 282.657 431.208 282.466C431.573 280.802 431.441 279.088 431.793 277.408C433.472 269.414 437.29 263.163 444.132 258.593C450.052 254.64 457.665 253.62 464.549 255.161C473.114 257.079 479.72 261.904 484.362 269.312C489.162 276.974 490.865 286.866 488.759 295.683C488.244 297.836 487.461 300.044 486.614 302.084C492.095 303.94 498.59 305.796 503.038 309.637C507.865 312.904 509.137 319.204 510.231 324.524C515.221 328.131 520.336 331.47 525.531 334.772C527.508 332.52 529.742 330.169 532.368 328.688C534.687 327.38 537.62 326.348 540.276 327.201C541.852 327.707 543.02 328.834 543.713 330.323C545.765 334.732 543.65 339.142 542.063 343.284C584.233 362.099 622.155 368.975 668.064 364.032C671.003 357.98 673.924 351.776 678.087 346.449C683.642 339.339 695.727 330.259 704.3 327.341C708.445 325.929 712.836 325.441 717.159 324.885C718.669 316.915 720.128 308.936 721.537 300.947C716.309 300.935 711.256 300.849 706.152 299.614C692.294 296.262 685.075 288.135 677.928 276.396C673.017 276.763 668.443 277.176 664.171 274.189C660.712 271.769 658.772 267.728 658.271 263.611C658.002 261.402 658.202 257.754 659.84 256.041C660.796 255.041 661.54 254.859 662.873 254.729C664.745 254.352 666.55 254.084 668.456 253.956C670.42 253.741 672.366 253.56 674.34 253.475C674.269 245.578 674.082 234.266 680.042 228.187C685.193 222.932 696.118 220.384 703.243 219.594C693.244 214.719 679.746 209.508 675.842 198.087C674.241 193.402 674.687 187.114 676.913 182.694C679.956 176.654 686.007 172.87 692.303 170.913C707.109 166.31 724.279 171 737.549 178.059C763.376 191.796 787.445 222.852 802.597 247.403C789.244 267.518 772.107 286.126 749.339 295.47C751.158 303.475 754.333 316.352 757.81 323.545C765.225 325.7 773.003 327.214 779.649 331.364C784.001 334.082 787.383 338.577 790.7 342.419C802.578 356.178 812.6 370.289 821.382 386.216C831.077 403.799 839.164 423.16 844.577 442.503C846.837 450.582 848.405 458.887 850.249 467.072C853.263 480.458 856.053 493.8 857.788 507.427C858.4 512.235 860.721 538.776 862.535 541.262C862.775 541.592 863.2 541.735 863.532 541.971C865.315 541.877 866.325 541.522 867.48 540.176C868.284 539.238 868.947 538.391 869.189 537.157C867.849 536.437 866.528 536.818 865.329 536.145C866.485 535.488 867.766 535.142 869.081 535.588C870.568 536.091 871.566 537.384 872.122 538.792C874.416 544.602 872.709 553.072 870.383 558.556C872.064 564.866 871.831 572.276 873.704 577.999C875.764 584.292 895.014 602.472 899.772 610.353C901.39 612.38 903.941 615.067 903.83 617.812C903.778 619.087 903.192 620.417 902.185 621.222C901.152 622.05 899.959 622.75 898.836 623.45C899.968 627.223 903.157 635.009 901.012 638.531C900.489 639.391 900.04 639.438 899.171 639.87C897.635 639.796 895.908 639.713 894.495 639.035C892.341 632.511 887.91 626.569 884 620.987L883.416 620.864C882.671 624.365 888.192 636.411 887.241 642.924C886.997 644.597 886.416 645.559 885.015 646.547C883.7 646.862 882.764 646.964 881.438 646.614C873.523 644.522 872.62 631.903 869.025 625.739C866.171 620.845 863.205 619.545 858.015 618.115C854.266 622.434 853.096 628.993 846.882 631.142C845.357 631.669 844.125 631.525 842.708 630.799C842.022 630.448 840.111 628.814 839.874 628.13C838.852 625.172 845.337 610.288 846.221 605.983C850.325 586.007 845.566 584.898 841.063 567.686C838.2 567.281 836.014 567.201 834.167 564.664C831.627 561.174 829.286 554.596 830.196 550.299C830.509 548.821 831.252 547.719 832.559 546.917C833.635 546.258 836.669 545.557 837.85 545.913C839.503 546.41 838.347 549.328 841.76 549.642C842.413 548.757 842.462 548.626 842.307 547.474C841.471 541.263 838.527 534.55 836.788 528.485C825.559 489.309 806.402 440.727 778.223 410.736C774.713 407.001 770.988 402.84 766.751 399.949C765.991 399.43 765.287 399.124 764.418 398.846L763.361 399.12C763.102 400.307 763.129 400.272 763.814 401.223C766.587 405.07 771.139 408.515 774.485 411.959C779.218 416.832 783.498 422.344 787.507 427.827C807.459 455.111 822.744 492.189 833.035 524.383C834.92 530.279 835.801 536.469 837.651 542.364L823.457 548.823C821.114 565.995 819.489 583.21 816.821 600.362C815.984 605.744 815.489 611.879 813.982 617.065C813.298 628 811.866 638.897 811.543 649.854C811.412 655.697 811.38 661.54 811.446 667.384C811.511 673.228 811.675 679.069 811.937 684.908C812.198 690.747 812.558 696.579 813.015 702.405C813.472 708.232 814.027 714.049 814.68 719.857C815.333 725.664 816.083 731.459 816.93 737.242C817.777 743.025 818.72 748.792 819.761 754.543C820.802 760.294 821.938 766.025 823.171 771.738C824.404 777.451 825.732 783.142 827.156 788.81C830.526 802.417 834.856 815.737 838.94 829.14C840.639 834.718 842.949 840.299 844.04 846.027C840.701 850.934 836.181 853.548 831.071 856.271C834.759 868.32 839.213 883.851 841.853 896.069C843.53 903.836 844.013 911.777 845.847 919.567C847.591 918.633 849.05 917.654 851.088 917.739L851.955 918.302C851.496 919.413 851.082 919.983 849.947 920.507C848.93 920.976 847.778 921.275 846.708 921.604C846.345 923.354 846.172 925.493 844.644 926.612C840.658 929.53 833.668 929.025 828.913 929.633C819.111 937.463 807.332 943.887 796.648 950.491C791.104 953.918 785.732 957.926 780.025 961.051C778.835 961.702 778.05 962.19 776.66 962.104C776.485 960.911 776.755 960.278 777.489 959.336C780.079 956.015 818.089 933.76 824.34 930.089C818.039 930.525 811.704 930.519 805.419 931.117L800.14 934.555C792.516 940.205 784.186 945.136 776.204 950.266C771.506 953.285 766.82 956.871 761.941 959.531C760.378 960.383 758.726 961.084 756.946 960.587L756.861 959.725C759.794 956.288 783.832 941.996 789.925 938.298C792.755 936.579 796.421 934.916 798.789 932.684C798.981 932.503 799.166 932.316 799.355 932.133L799.61 931.717C797.652 931.24 795.327 932.062 793.303 932.198C790.262 932.403 786.098 932.035 783.259 932.999C773.116 936.444 745.579 958.587 739.108 959.035L738.591 958.421C739.673 954.607 770.279 936.951 775.717 933.426C770.653 933.607 764.278 933.125 759.454 934.567C750.315 937.299 732.158 956.503 722.74 959.062L722.025 958.571C722.11 958.228 722.074 957.831 722.278 957.544C723.7 955.544 752.623 934.846 755.596 933.044L755.799 926.933C753.72 928.077 751.641 929.196 749.511 930.244C747.1 932.502 743.533 934.302 740.746 936.147C733.379 941.022 725.853 945.822 718.781 951.113C716.597 952.747 712.178 957.289 709.482 957.484L708.97 956.763C710.004 952.86 742.418 931.802 747.467 928.676C748.418 927.53 761.409 918.235 762.989 917.672C766.181 916.535 769.944 916.293 772.978 914.87C775.86 913.518 778.317 911.048 781.457 910.24C782.648 909.933 782.813 910.018 783.822 910.592L783.327 911.267L783.356 911.252C781.178 912.867 778.693 914.242 776.388 915.68C788.138 913.179 801.947 910.107 813.231 906.112C819.211 903.995 822.058 898.678 824.611 893.285C820.931 882.428 817.983 870.811 813.523 860.313C810.001 860.767 802.261 862.32 799.138 860.49C794.3 857.655 791.332 843.76 789.418 838.462C778.071 807.06 767.009 774.741 760.032 742.059C752.572 707.116 749.183 670.535 736.557 636.905C730.533 685.593 726.288 735.119 728.707 784.209C729.331 797.328 730.432 810.406 732.01 823.445C732.88 830.782 734.346 838.177 734.686 845.549L734.717 846.3C729.986 852.923 725.064 854.779 717.304 856.414C719.211 865.332 719.367 874.917 720.392 883.992C721.319 892.196 721.664 887.553 726.207 891.501C729.23 894.127 728.64 905.628 728.936 909.673C732.327 908.422 740.063 903.834 743.084 903.993L743.152 904.611C739.309 907.867 733.984 910.084 729.433 912.207C729.446 914.595 729.653 916.82 729.994 919.181C734.408 916.234 750.587 906.482 755.106 905.619L755.811 906.053C755.421 907.126 754.77 907.687 753.844 908.309C750.634 910.463 746.828 912.004 743.451 913.921C739.524 916.149 735.622 918.898 731.591 920.877C731.296 921.022 730.986 921.134 730.684 921.262C730.68 923.38 730.916 925.541 729.363 927.218C726.84 929.942 720.896 929.001 717.451 929.306C715.086 931.527 712.765 933.815 710.198 935.805C702.52 941.226 695.108 948.281 686.952 952.84C685.697 953.541 683.587 954.869 682.172 954.468C685.513 949.507 703.204 937.98 709.016 934.322C711.075 932.948 712.833 931.312 714.649 929.643C712.366 929.439 710.122 929.479 707.835 929.527C698.54 935.365 689.353 941.367 680.273 947.534C677.366 949.545 674.799 952.375 671.891 954.198L670.83 953.848L670.704 953.037C675.853 946.859 696.186 934.623 703.89 929.749C701.603 929.748 698.896 929.525 696.672 930.043C686.758 932.35 670.846 948.719 660.476 954.223C665.556 946.773 674.007 942.31 681.363 937.358C683.392 935.992 685.735 934.605 687.398 932.806C688.262 931.872 688.638 931.417 688.522 930.107C686.98 929.467 685.744 929.639 684.19 930.226C679.514 931.989 663.433 943.313 658.582 946.594C656.707 947.862 654.317 950.032 652.223 950.664C651.538 950.871 651.277 950.501 650.699 950.174L650.758 949.301C660.108 941.775 671.178 936.377 681.348 930.026C676.14 929.771 670.93 929.581 665.717 929.456C659.662 935.47 645.219 944.928 637.283 948.108C642.103 942.997 649.838 938.083 655.875 934.314C657.684 933.185 659.817 932.413 661.502 931.121C662.283 930.522 662.667 930.326 662.822 929.326C659.89 928.464 656.371 930.475 653.378 929.765C651.895 929.412 650.322 928.854 648.772 929.181C644.252 930.133 629.936 943.303 626.259 943.619L626.146 942.998C629.924 936.978 639.576 932.665 645.522 929.144C641.695 929.022 638.504 928.53 634.954 926.994C628.64 931.309 622.821 935.72 617.047 940.719L616.286 940.437C616.231 939.771 616.06 939.216 616.366 938.588C618.077 935.079 630.573 926.981 634.251 925.59C633.227 923.265 632.226 921.113 631.87 918.569C628.65 921.967 611.494 933.401 607.427 935.217C612.326 927.701 623.699 920.224 632.163 917.203C632.121 916.814 632.107 916.424 632.121 916.033C632.135 915.642 632.176 915.253 632.245 914.868C632.314 914.483 632.409 914.105 632.532 913.733C632.655 913.362 632.803 913.001 632.977 912.65C633.846 910.904 635.114 909.975 636.942 909.4C641.599 907.933 647.152 907.845 652.025 907.319L679.02 904.503C686.87 903.691 694.67 903.188 702.281 900.98C702.344 900.224 702.425 899.485 702.512 898.733C702.875 895.567 705.481 893.579 705.823 890.701C706.828 882.227 703.394 866.39 702.155 857.552C698.751 857.491 694.849 857.725 691.538 856.958C689.411 856.465 687.384 855.541 686.328 853.522C684.563 850.145 685.886 846.189 686.927 842.813C682.352 832.662 680.559 815.064 678.794 803.861C675.172 780.873 671.696 757.954 669.616 734.766C666.847 703.888 665.979 672.814 664.638 641.852C663.693 620.032 662.221 598.192 660.951 576.386C660.343 570.915 660.24 565.316 659.949 559.815C656.092 558.455 651.789 557.204 648.792 554.296C639.814 545.585 640.942 514.551 640.967 501.757L641.102 493.311C640.89 488.262 642.733 479.54 641.109 475.167C631.158 476.289 620.793 476.338 610.773 476.869C589.534 478.034 568.29 479.069 547.039 479.975L363.35 488.691C317.163 490.748 270.99 493.08 224.831 495.686L167.151 499.315C154.989 500.052 142.593 501.111 130.406 500.937C120.043 500.789 110.595 497.025 103.408 489.459C102.73 488.752 102.08 488.019 101.459 487.261C100.838 486.504 100.247 485.723 99.687 484.919C99.1268 484.115 98.5987 483.29 98.1027 482.445C97.6067 481.6 97.1443 480.737 96.7156 479.856C96.2868 478.975 95.893 478.078 95.5342 477.167C95.1753 476.255 94.8525 475.331 94.5657 474.394C94.2788 473.457 94.0288 472.51 93.8158 471.554C93.6027 470.597 93.4272 469.634 93.2892 468.664C92.0348 459.384 92.7868 449.711 92.6372 440.359C92.2515 416.248 92.4525 392.102 91.9584 368L90.52 254.746C89.9143 219.856 88.4323 184.84 89.4379 149.949C88.998 145.116 92.3942 138.73 95.2717 134.92C98.3127 130.894 102.522 127.197 107.571 126.138C114.965 124.589 123.419 125.643 131.001 125.404C145.41 124.951 159.806 123.957 174.217 123.454L335.212 117.995C351.302 117.354 367.392 117.019 383.479 116.25C391.776 115.853 400.152 115.621 408.392 114.535Z" fill="#231F20"/>
<path d="M697.743 225.135C697.927 225.202 698.116 225.256 698.296 225.336C699.418 225.834 700.019 226.077 700.405 227.299C699.749 227.981 698.819 228.783 698.339 229.588C697.747 230.582 697.809 230.831 698.206 231.852C698.795 231.114 699.176 230.691 699.955 230.128C700.062 230.247 700.185 230.353 700.276 230.485C702.139 233.209 701.455 239.687 700.68 242.762L700.048 244.085L700.173 243.828L699.174 244.731C698.365 244.811 698.078 244.496 697.373 244.128C694.514 240.372 694.442 235.023 694.442 230.482C695.418 228.567 696.47 226.866 697.743 225.135Z" fill="#FEFEFE"/>
<path d="M452.034 307.216C448.533 305.638 445.071 303.729 442.21 301.136C440.143 299.262 437.416 295.56 437.226 292.675C439.275 295.2 441.927 299.305 444.988 300.596L445.794 300.258C445.895 299.125 445.852 298.095 445.755 296.962L446.342 296.253C449.369 296.368 452.915 301.248 456.782 302.246C459.109 302.846 461.171 303.556 463.61 303.507L464.358 303.026C462.147 301.279 459.369 301.79 457.172 299.191C457.108 297.899 456.911 296.772 457.632 295.625L458.238 295.843C459.969 300.042 465.114 299.918 468.828 303.362C468.867 303.398 468.912 303.43 468.953 303.464L469.656 304.595C467.418 307.092 461.118 307.437 457.772 307.611C455.863 307.711 453.917 307.533 452.034 307.216Z" fill="#FEFEFE"/>
<path d="M709.328 857.12C711.099 857.08 712.672 857.087 714.434 857.35C714.651 863.052 717.908 887.624 716.921 890.341C716.698 890.953 715.398 891.175 714.795 891.389C713.362 891.531 712.267 891.575 710.839 891.236C709.74 886.998 709.625 882.21 709.097 877.83C708.571 873.46 707.735 869.27 706.886 864.961C706.541 863.213 705.346 859.067 706.016 857.642L709.328 857.12Z" fill="#FEFEFE"/>
<path d="M437.498 305.3C435.056 300.28 431.709 295.664 429.233 290.638C428.393 288.932 427.145 286.764 427.799 284.848C428.96 284.148 428.732 284.339 429.941 284.615C432.011 286.762 433.346 288.763 434.618 291.45C435.814 291.73 436.549 291.589 437.226 292.675C437.416 295.56 440.143 299.262 442.21 301.136C445.071 303.729 448.533 305.638 452.034 307.216L450.447 308.914C458.148 310.228 464.507 308.596 471.832 306.28C473.085 307.427 474.322 308.589 475.545 309.768C468.751 313.392 459.97 315.643 452.245 314.626C445.658 313.758 444.767 309.917 440.753 305.947C439.647 304.853 438.917 305.178 437.498 305.3Z" fill="#FEFEFE"/>
<path d="M434.618 291.45C435.814 291.73 436.549 291.589 437.226 292.675C437.416 295.56 440.143 299.262 442.21 301.136C445.071 303.729 448.533 305.638 452.034 307.216L450.447 308.914C447.698 308.018 445.009 306.95 442.312 305.911C439.418 301.163 436.522 296.698 434.618 291.45Z" fill="#564746"/>
<path d="M827.335 857.643C828.203 858.467 835.507 887.596 836.491 891.48C834.323 891.861 830.453 893.059 828.46 892.391C824.994 881.409 821.267 870.516 817.277 859.713C820.661 859.325 824.016 858.411 827.335 857.643Z" fill="#FEFEFE"/>
<path d="M688.699 176.958L689.178 177.216C688.311 178.846 687.194 180.372 686.48 182.071C684.442 186.921 683.291 191.529 685.475 196.599C692.629 213.205 735.287 227.574 752.381 232.792C759.297 234.904 768.657 236.903 775.077 239.413C775.956 240.48 776.003 240.394 775.912 241.76C774.825 242.607 774.749 242.429 773.352 242.294C753.405 237.355 691.507 216.056 681.657 198.899C679.539 195.209 679.079 191.525 680.207 187.439C681.597 182.402 684.192 179.453 688.699 176.958Z" fill="#FEFEFE"/>
<path d="M455.391 260.216C459.87 260.241 464.068 260.751 468.131 262.774C474.061 265.725 477.833 271.261 479.832 277.43C481.45 282.424 483.069 294.756 480.776 299.185C479.728 299.827 479.646 299.829 478.379 299.538C477.992 299.449 477.055 299.094 476.886 298.708C475.865 296.37 480.327 283.216 473.792 272.661C471.041 268.217 466.936 265.374 461.88 264.166C461.684 264.12 461.487 264.077 461.29 264.032L460.811 264.213L460.685 265.138C460.867 265.25 461.055 265.354 461.233 265.474C462.367 266.245 462.699 267.009 463.007 268.306L462.617 268.702C461.752 268.86 460.987 269.095 460.124 268.799C459.916 268.727 459.724 268.615 459.521 268.53C459.244 268.414 458.963 268.307 458.685 268.194C457.657 267.773 457.421 268.104 456.4 268.442C454.373 272.434 464.884 278.312 465.619 282.932C465.102 284.601 464.537 285.968 463.245 287.194C460.692 289.619 456.829 290.216 453.446 289.952C451.63 289.81 449.432 289.554 448.177 288.106L448.512 287.293C450.528 286.163 452.764 286.327 455.019 286.248C454.884 284.74 454.824 282.745 454.231 281.348C453.385 279.358 450.358 279.164 448.644 278.209C447.091 277.344 445.747 274.827 445.309 273.177C444.687 270.832 445.105 268.331 446.321 266.249C448.284 262.888 451.7 261.079 455.391 260.216Z" fill="#FBBE1D"/>
<path d="M458.394 278.606C459.886 279.141 461.759 279.892 462.743 281.213C463.58 282.337 463.58 282.617 463.314 283.877L462.315 284.527C460.885 285.142 460.131 285.744 458.58 285.441C457.328 283.318 458.007 280.964 458.394 278.606Z" fill="#231F20"/>
<path d="M453.371 264.446L453.769 264.739C452.044 267.41 454.429 270.27 454.361 273.178C454.33 274.494 454.018 275.373 453.025 276.151C452.312 275.458 451.574 274.758 450.949 273.984C449.917 272.705 449.263 270.909 449.518 269.259C449.877 266.944 451.551 265.671 453.371 264.446Z" fill="#231F20"/>
<path d="M818.821 550.636C818.845 550.659 818.877 550.676 818.892 550.705C820.023 552.904 815.113 582.908 814.47 587.92C806.69 587.243 798.778 587.163 793.095 580.994C792.511 580.249 791.954 579.484 791.426 578.7C790.897 577.915 790.397 577.112 789.926 576.292C789.455 575.472 789.014 574.635 788.604 573.783C788.193 572.931 787.813 572.065 787.465 571.185C787.116 570.305 786.8 569.414 786.516 568.512C786.232 567.609 785.98 566.697 785.762 565.777C785.543 564.856 785.358 563.929 785.206 562.996C785.054 562.062 784.936 561.123 784.852 560.181C790.722 558.615 796.71 557.485 802.551 555.791C808.019 554.204 813.26 551.896 818.821 550.636Z" fill="#FEFEFE"/>
<path d="M470.581 302.073C469.498 300.88 468.34 299.814 467.815 298.255L468.137 297.21C470.677 296.565 473.901 299.083 476.054 300.376C485.108 305.81 495.935 305.257 503.684 312.964C506.336 317.159 507.964 321.095 508.36 326.068C513.535 329.412 519.218 332.806 523.817 336.896C520.966 340.825 519.54 345.639 516.94 349.752C511.255 345.07 505.772 337.822 499.112 334.721C495 332.806 489.412 332.675 484.945 332.504C459.475 331.524 456.133 327.064 436.388 310.995L437.123 307.945C441.475 309.972 444.44 315.651 448.975 318.202C449.835 318.508 450.709 318.773 451.595 318.997C461.002 321.357 473.717 321.003 482.123 315.882C480.97 313.356 479.881 310.527 478.109 308.371C477.959 308.187 477.798 308.012 477.645 307.83C475.635 305.446 473.13 303.824 470.581 302.073Z" fill="#FEFEFE"/>
<path d="M644.963 475.328C646.209 459.4 648.345 443.592 651.372 427.905C655.498 407.346 669.301 357.41 684.971 343.875C687.211 341.94 691.908 337.771 694.868 337.547C695.032 338.895 694.72 339.475 694.238 340.724C692.326 345.679 689.73 350.559 687.47 355.377C682.003 367.029 676.379 378.562 671.813 390.609C669.437 396.928 667.286 403.321 665.358 409.79C663.431 416.259 661.732 422.788 660.262 429.377C658.793 435.965 657.556 442.597 656.551 449.272C655.547 455.947 654.777 462.649 654.242 469.378C653.798 475.73 653.92 500.68 653.013 503.561C651.391 504.455 646.261 503.079 644.403 502.46C644.093 502.357 643.799 502.21 643.497 502.085C642.66 497.984 643.385 492.998 643.526 488.809C644.231 484.376 644.504 479.798 644.963 475.328Z" fill="#FEFEFE"/>
<path d="M843.115 568.34C851.79 566.268 860.431 564.425 868.133 559.734C869.264 566.432 869.12 573.279 870.543 579.899C870.591 580.123 870.622 580.349 870.67 580.572C870.919 581.734 871.465 582.549 872.217 583.456C875.23 587.093 878.877 590.183 881.932 593.794C886.523 599.22 893.329 609.067 898.338 613.412C898.441 613.501 898.573 613.549 898.691 613.618C899.361 615.254 899.799 615.804 899.462 617.573C898.523 618.505 898.48 618.432 897.146 618.546C892.41 616.501 889.625 606.345 884.735 606.557C884.331 607.282 884.147 607.202 884.363 607.876C884.973 609.78 887.932 612.083 889.275 613.65C893.927 619.082 900.03 628.823 898.323 636.196C897.782 636.907 897.453 637.387 896.697 637.881C893.757 631.765 890.534 624.441 886.024 619.354C885.228 618.232 884.338 616.73 883.266 615.886C882.429 615.227 882.221 615.305 881.256 615.484C877.595 621.597 886.111 633.493 883.445 640.464C882.953 641.751 882.751 641.925 881.591 642.466C876.642 641.218 872.823 622.811 864.895 616.927C862.757 615.34 860.325 614.473 857.659 615.02C852.646 616.049 851.679 622.318 848.907 626.072C848.775 626.251 848.638 626.427 848.503 626.604L843.2 625.868C845.031 622.229 846.486 618.661 847.566 614.727C851.846 599.14 851.325 582.592 843.115 568.34Z" fill="#FEFEFE"/>
<path d="M710.07 222.997C722.372 232.014 718.559 236.423 723.418 248.334C723.721 249.075 724.396 251.187 725.326 250.986C728.515 250.295 730.72 245.953 734.605 248.071C736.762 249.248 737.916 252.072 738.296 254.372C738.713 256.898 738.432 259.868 736.865 261.983C735.757 263.478 733.897 264.494 732.021 264.538C729.303 264.601 726.931 262.379 724.204 262.525L723.643 263.149C723.77 264.692 725.421 266.187 726.411 267.35C729.723 267.802 732.794 268.062 736.116 267.406C746.826 285.485 750.221 311.714 757.195 331.938C744.404 335.251 727.74 336.102 715.483 330.891C713.493 330.045 712.713 329.088 711.18 331.138C711.15 331.91 710.932 332.422 711.452 333.064C714.373 336.67 728.474 337.16 732.985 337.304C739.319 337.506 759.985 337.49 764.408 332.804C765.006 332.171 764.825 332.293 764.971 331.325C764.22 330.258 763.659 330.025 762.456 329.562C761.304 329.908 761.021 330.214 760.165 331.013L759.445 330.757C758.889 329.583 758.51 328.914 758.597 327.579C765.194 327.41 775.134 331.144 780.255 335.276C775.605 342.263 768.483 344.685 760.573 346.235C747.04 348.887 716.607 350.207 704.975 342.389C702.539 340.752 699.184 337.952 698.473 334.973C699.043 333.132 700.604 332.022 702.302 331.146C706.667 328.893 713.54 328.371 718.239 329.958C720.883 327.969 724.483 302.467 726.176 296.98C714.748 299.055 703.248 297.362 693.533 290.675C686.741 286 682.649 279.542 679.026 272.291C675.041 273.607 670.784 274.139 666.923 272.128C663.984 270.598 661.721 267.605 660.893 264.41C660.387 262.456 660.485 260.347 661.559 258.596C662.278 257.424 663.298 256.613 664.662 256.331C665.529 256.152 666.582 256.256 667.467 256.269L669.292 256.295C671.842 256.379 674.068 256.189 676.58 255.794C676.394 248.218 676.482 240.725 678.337 233.319C680.527 243.053 680.897 251.744 690.271 257.751C694.007 260.145 698.574 261.294 702.96 260.298C706.889 259.405 710.201 256.909 712.308 253.499C715.626 248.131 716.935 239.293 715.427 233.185C714.452 229.236 712.365 226.265 710.07 222.997Z" fill="#FEFEFE"/>
<path d="M482.294 69.9746C482.94 70.048 483.459 70.145 484.045 70.4439C488.352 72.6428 492.852 77.3367 496.627 80.4485C503.941 86.5041 511.33 92.4656 518.796 98.3331C536.154 111.982 553.865 124.233 572.469 136.086C575.363 137.93 580.47 140.979 581.469 144.385C576.095 151.854 546.261 172.693 537.016 179.793C529.955 185.215 523.239 190.948 516.476 196.728L510.195 192.726C502.276 187.455 494.645 181.777 486.809 176.388C459.826 157.831 426.607 135.603 408.535 107.771C407.816 106.663 407.503 105.998 407.82 104.72C413.652 100.998 425.237 97.6825 432.131 94.5781C449.159 86.9099 465.694 78.4919 482.294 69.9746Z" fill="#FEFEFE"/>
<path d="M663.57 576.18C662.582 570.853 662.239 565.428 661.215 560.126C695.958 570.015 746.133 566.89 781.656 560.821C782.804 569.802 786.009 580.051 793.373 585.89C799.021 590.367 806.791 591.286 813.715 592.132C813.105 598.418 812.112 604.664 811.2 610.912C808.962 620.156 808.679 630.708 808.044 640.182C803.702 704.931 816.66 774.33 836.559 835.872C826.581 842.14 814.708 847.959 802.546 847.079C801.385 846.995 800.335 846.945 799.17 847.039C799.017 847.051 798.126 847.156 797.931 847.102C795.669 846.48 792.681 835.499 791.719 832.901C779.49 799.899 769.435 766.697 762.297 732.208C756.451 703.965 752.459 675.334 744.016 647.682C742.44 642.519 740.997 637.181 738.943 632.192L738.683 631.569C722.35 620.365 717.097 610.096 708.552 593.193L708.686 592.77C708.146 592.631 708.468 592.669 707.714 592.774L707.294 593.73C708.146 607.079 723.718 623.554 732.87 632.451C731.516 646.697 729.75 660.888 728.508 675.148C724.889 716.718 723.37 757.867 726.588 799.499C727.627 812.944 728.498 827.244 731.775 840.348C717.672 844.427 703.902 843.859 689.503 842.338C685.867 828.573 683.607 814.317 681.28 800.277C677.15 776.467 674.127 752.517 672.212 728.427C671.256 715.118 671.149 701.803 670.391 688.505L665.622 602.36C671.016 595.679 674.352 589.429 674.96 580.777C675.19 577.493 675.354 570.504 673.215 568.016C672.32 568.672 672.277 568.705 672.028 569.739C670.645 575.479 671.472 581.78 669.981 587.717C669.089 591.267 667.537 594.219 665.679 597.33C665.357 590.203 665.255 583.148 663.57 576.18Z" fill="#FEFEFE"/>
</g>
<defs>
<clipPath id="clip0_28_946">
<rect width="1024" height="1024" fill="white"/>
</clipPath>
</defs>
</svg>
