<svg width="1024" height="1024" viewBox="0 0 1024 1024" fill="none" xmlns="http://www.w3.org/2000/svg">
<g clip-path="url(#clip0_28_853)">
<path d="M0 0H1024V1024H0V0Z" fill="#FEFEFE"/>
<path d="M115.516 420.016C116.14 419.966 116.881 419.866 117.515 419.925C118.776 420.043 119.494 421.082 120.262 421.978L120.789 422.604C122.735 424.877 123.715 426.754 123.957 429.766C123.466 431.265 122.281 431.801 121.026 432.602C120.856 432.59 120.684 432.593 120.515 432.568C118.203 432.216 115.566 429.929 114.211 428.11C113.15 426.686 112.319 424.593 112.701 422.81C113.011 421.362 114.358 420.725 115.516 420.016Z" fill="#231F20"/>
<path d="M140.351 428.44C141.581 428.441 143.342 428.877 144.377 429.585C145.477 430.338 145.384 430.772 145.505 431.983C144.091 436.234 139.346 438.462 135.642 440.392C133.923 440.481 132.878 440.254 131.276 439.642C130.499 438.672 130.256 438.367 130.552 437.028C131.367 433.334 137.143 429.95 140.351 428.44Z" fill="#231F20"/>
<path d="M126.927 450.347C128.444 450.423 129.219 450.519 130.588 451.276C132.603 453.699 133.142 457.084 133.019 460.156C132.887 463.462 132.775 465.185 130.223 467.553C128.666 467.539 127.463 467.642 126.113 466.735C123.94 464.066 123.677 460.424 123.935 457.123C124.183 453.948 124.403 452.517 126.927 450.347Z" fill="#231F20"/>
<path d="M887.298 555.106C888.863 554.994 890.747 555.037 892.053 556.037C892.648 556.492 893.063 557.16 893.169 557.893C893.39 559.423 892.753 560.602 891.845 561.771C889.591 564.673 886.582 565.078 883.124 565.502C881.471 565.573 879.878 565.65 878.271 565.179C876.463 564.648 875.332 563.995 874.421 562.333C874.559 561.329 874.703 560.808 875.314 559.964C877.868 556.439 883.395 555.866 887.298 555.106Z" fill="#231F20"/>
<path d="M862.287 573.89C863.709 574.181 865.174 574.389 866.213 575.51C868.014 577.453 868.486 581.079 868.465 583.614C868.438 587.036 868.315 591.46 865.738 593.947C865.255 594.009 864.772 594.081 864.286 594.12C862.926 594.231 861.659 594.129 860.72 593.032C859.463 591.564 859.149 588.926 859.071 587.082C858.892 582.874 859.317 577.048 862.287 573.89Z" fill="#231F20"/>
<path d="M116.702 441.512C117.106 441.513 117.607 441.487 117.992 441.622C119.246 442.063 119.603 442.7 120.235 443.757C120.374 445.12 120.29 445.837 119.54 447.019C117.015 450.998 109.578 454.367 105.162 455.539C103.3 455.016 102.287 454.045 101.228 452.515C101.136 451.338 101.029 450.865 101.637 449.797C103.986 445.677 112.343 442.758 116.702 441.512Z" fill="#231F20"/>
<path d="M851.245 562.649C852.276 562.51 853.084 562.34 854.111 562.587C855.105 562.825 856.024 563.83 856.386 564.761C856.822 565.881 856.741 567.241 856.213 568.315C854.387 572.032 847.109 572.852 843.381 573.753C842.626 573.703 841.715 573.694 840.993 573.471C839.713 573.076 838.628 571.923 838.019 570.746C837.355 569.461 837.528 568.785 837.879 567.439C840.873 563.831 846.895 563.378 851.245 562.649Z" fill="#231F20"/>
<path d="M868.859 534.87C870.383 534.939 872.049 535.015 873.176 536.213C874.457 537.576 874.565 539.783 874.631 541.544C874.809 546.315 873.821 554.867 870.489 558.336C868.996 558.49 867.953 558.695 866.581 557.921C864.437 555.395 864.539 552.082 864.752 548.929C865.065 544.275 865.148 538.132 868.859 534.87Z" fill="#231F20"/>
<path d="M785.018 460.177C787.577 460.129 790.029 460.67 792.248 461.993C796.949 464.798 798.592 469.715 799.862 474.697C798.408 479.657 797.111 484.026 793.352 487.84C788.678 492.584 782.769 494.083 776.306 494.01C772.375 493.374 768.576 492.611 765.34 490.102C762.871 488.187 761.306 485.493 760.949 482.381C760.455 478.079 762.241 473.942 764.906 470.65C769.765 464.648 777.433 460.988 785.018 460.177Z" fill="#231F20"/>
<path d="M782.84 470.074C783.881 470.016 785.006 469.91 786.033 470.126C787.361 470.404 788.754 471.202 789.371 472.457C790.189 474.119 789.631 476.172 788.822 477.722C786.658 481.866 783.429 483.878 779.054 485.171C778.13 485.086 777.193 485.004 776.283 484.819C774.502 484.456 772.578 483.68 771.715 481.96C771.04 480.613 771.317 479.203 771.929 477.905C774.089 473.328 778.367 471.555 782.84 470.074Z" fill="#FEFEFE"/>
<path d="M284.771 889.586C289.657 889.014 294.678 889.542 298.699 892.647C299.085 892.943 299.453 893.258 299.805 893.593C300.157 893.928 300.491 894.28 300.807 894.649C301.123 895.018 301.418 895.403 301.694 895.803C301.97 896.203 302.224 896.616 302.456 897.043C302.689 897.469 302.899 897.906 303.086 898.355C303.273 898.803 303.436 899.26 303.576 899.725C303.716 900.19 303.831 900.662 303.921 901.139C304.012 901.616 304.078 902.097 304.118 902.581C304.603 907.777 302.613 913.554 299.178 917.46C295.254 921.923 288.954 924.13 283.121 924.508C279.037 924.988 274.857 924.928 270.944 923.512C267.692 922.336 265.077 920.177 263.771 916.927C262.347 913.384 262.811 909.477 264.41 906.078C268.285 897.845 276.423 892.444 284.771 889.586Z" fill="#231F20"/>
<path d="M289.479 898.58C290.711 898.656 292.098 899.63 293.04 900.408C294.306 901.454 294.712 902.906 294.693 904.487C294.66 907.17 293.174 909.81 291.298 911.651C287.417 915.462 282.555 915.59 277.473 915.485C276.866 915.402 276.258 915.317 275.657 915.196C274.074 914.878 273.294 914.343 272.426 913.007C272.25 911.665 272.444 910.807 273.153 909.668C276.617 904.106 283.325 900.186 289.479 898.58Z" fill="#FEFEFE"/>
<path d="M700.262 89.2199C712.485 88.4403 724.912 89.4653 737.153 89.6187C747.883 89.7531 759.014 88.8543 769.636 90.4506C772.924 90.9448 776.243 91.8168 778.889 93.928C781.609 96.0977 783.283 99.2232 784.331 102.488C785.786 107.021 785.812 111.767 786.44 116.447C788.004 128.116 789.547 139.653 790.72 151.375C792.4 150.701 794.073 150.098 795.888 149.923C798.682 149.654 801.525 149.87 804.272 150.428C808.494 151.286 812.573 152.975 816.7 154.216C825.115 156.747 834.037 158.743 842.076 162.3C844.199 163.237 846.249 164.314 848.225 165.53C850.201 166.746 852.086 168.091 853.88 169.564C876.847 188.289 893.087 249.938 901.276 278.864C901.956 281.264 907.357 297.997 907.349 299.244C907.339 300.907 906.671 302.064 905.419 303.087C904.046 304.208 903.079 304.321 901.418 304.178C899.352 303.253 898.698 301.317 897.893 299.334C894.074 289.927 891.528 279.794 888.684 270.053C882.515 248.921 876.604 227.045 867.723 206.874C865.173 201.084 862.082 195.67 858.748 190.306C849.252 175.024 842.304 171.94 825.884 165.523C827.367 167.141 829.005 168.597 830.586 170.118C836.103 175.422 853.337 192.42 852.936 199.45C852.856 200.862 852.086 201.529 851.138 202.445C848.787 203.117 847.192 202.759 845.317 201.209C841.203 197.808 838.094 192.287 834.665 188.152C821.938 172.806 809.576 163.241 790.38 157.824C793.805 161.915 798.376 165.296 802.101 169.187C807.403 174.725 825.258 197.223 826.351 203.466C826.598 204.878 826.294 206.235 825.407 207.367C824.432 208.611 823.062 209.163 821.512 209.222C820.933 209.244 819.737 209.144 819.252 208.839C817.506 207.74 812.014 197.836 810.371 195.528C799.135 179.751 789.201 169.524 775.05 156.561C764.132 146.56 751.455 136.859 735.849 137.847C734.148 137.954 732.869 138.168 731.703 139.523C729.805 147.147 750.892 154.538 756.021 158.673C764.619 165.605 769.187 175.109 774.757 184.385C778.547 190.696 782.462 196.912 786.163 203.28C791.738 213.933 805.135 244.029 801.294 255.11C800.234 258.167 797.445 261.03 794.543 262.408C778.594 269.984 753.423 233.782 742.996 224.905C737.467 220.198 729.566 216.242 722.749 213.907L721.993 213.652C725.885 224.946 733.128 234.249 739.61 244.125C747.64 256.361 756.37 268.924 766.453 279.548C789.391 303.719 820.545 318.326 848.448 335.744C867.091 347.38 884.966 360.026 903.473 371.829C907.531 374.417 924.527 383.718 926.11 386.4C926.744 387.474 926.799 389.152 926.547 390.355C926.279 391.639 925.633 392.739 924.414 393.339C923.202 393.934 921.724 393.825 920.463 393.444C915.504 391.948 910.64 387.248 906.313 384.407L869.196 360.216C855.838 351.55 842.329 343.128 828.667 334.95C806.484 321.923 783.535 309.642 764.879 291.61C754.625 281.699 746.502 270.736 738.214 259.213C730.383 248.326 722.152 236.711 716.022 224.769C708.917 224.47 687.72 222.113 682.661 217.422C677.636 212.761 669.124 121.001 668.358 108.953C668.153 105.744 667.522 98.6057 669.782 96.1571C676.197 89.207 691.414 89.7641 700.262 89.2199Z" fill="#231F20"/>
<path d="M781.041 217.434L781.561 217.524C782.515 218.103 782.897 218.826 783.369 219.804C786.373 226.026 793.795 245.08 791.444 251.612C790.473 252.553 790.281 252.866 788.848 252.887C784.553 252.95 777.486 246.614 774.365 243.903C767.472 237.649 760.671 230.311 754.619 223.245C764.369 222.973 772.177 221.646 781.041 217.434Z" fill="#FEFEFE"/>
<path d="M700.523 97.7868C709.462 96.7832 765.153 98.0818 771.811 100.844C773.669 101.615 774.991 103.625 775.757 105.381C775.644 106.825 775.636 106.793 774.616 107.827C770.856 109.157 756.164 107.44 750.821 107.427C742.796 107.048 734.751 107.126 726.721 106.848C718.083 106.549 709.393 105.882 700.751 105.995C694.15 106.081 687.504 107.246 680.954 107.21C679.397 107.202 677.936 107.058 676.789 105.919C676.693 104.708 676.738 104.484 677.587 103.486C682.187 98.0788 693.894 98.3789 700.523 97.7868Z" fill="#FEFEFE"/>
<path d="M695.599 114.723C701.297 113.822 714.983 115.119 721.239 115.374C731.311 115.785 741.402 115.705 751.466 116.172C759.687 116.553 767.919 117.413 776.116 118.144C779.858 125.66 780.542 140.495 781.747 149.266C770.242 139.673 759.384 131.472 744.362 128.456C738.018 127.183 731.635 127.116 726.122 130.983C723.357 132.922 721.211 135.736 720.757 139.147C720.403 141.809 721.111 144.465 722.169 146.891C727.19 158.397 738.626 158.85 747.966 164.812C752.519 167.718 755.668 171.359 758.995 175.553C748.595 174.727 697.858 168.44 691.013 172.762C690.038 174.146 690.046 175.299 689.952 176.922C690.27 177.303 690.587 177.685 690.932 178.041C691.189 178.306 692.099 179.18 692.353 179.289C694.664 180.281 709.384 179.664 713.073 179.817C729.529 180.504 745.985 183.254 762.46 183.075C768.385 190.686 773.856 200.162 778.093 208.85C770.75 210.235 747.394 214.171 741.077 211.854C735.97 209.981 731.742 206.06 726.607 204.183C723.505 203.048 718.605 202.209 715.534 203.849C713.577 204.895 712.744 206.885 712.179 208.92C712.11 209.167 712.05 209.416 711.984 209.664C711.324 212.139 711.837 214.448 712.229 216.927C704.845 215.43 697.23 214.035 690.099 211.566C684.886 179.778 679.581 148.311 677.938 116.063C683.824 115.758 689.721 115.177 695.599 114.723Z" fill="#FEFEFE"/>
<path d="M750.565 183.785C751.377 184.117 752.248 184.44 752.934 185.005C756.494 187.941 758.926 199.102 758.657 203.674C758.522 205.971 757.341 206.949 755.718 208.331C755.536 208.36 755.355 208.39 755.173 208.416C753.314 208.685 752.179 208.851 750.64 207.558C748.049 205.381 747.662 200.5 747.489 197.339C747.214 192.328 747.05 187.719 750.565 183.785Z" fill="#231F20"/>
<path d="M695.804 137.23C698.555 136.239 710.953 136.744 713.57 137.935C715.065 138.616 715.635 139.445 716.226 140.927C715.924 142.205 715.699 143.027 714.572 143.83C712.287 145.46 708.788 145.705 706.112 145.186C700.555 144.731 692.122 146.201 687.119 143.864C685.815 143.254 685.518 142.805 685.009 141.496C685.275 140.353 685.623 139.592 686.454 138.769C688.594 136.646 692.998 137.251 695.804 137.23Z" fill="#231F20"/>
<path d="M699.565 153.14C704.071 152.571 717.973 153.023 722.441 153.922C724.479 154.332 726.924 154.991 728.109 156.829L727.822 157.791C725.133 160.543 723.108 160.336 719.58 160.969C713.069 160.882 700.361 162.06 694.993 160.936C693.508 160.626 692.74 160.113 691.876 158.894C691.737 157.429 692.277 156.206 693.276 155.118C694.868 153.385 697.39 153.358 699.565 153.14Z" fill="#231F20"/>
<path d="M504.759 111.257C506.339 110.705 509.357 111.086 511.079 111.131C523.505 111.452 536.098 112.72 547.494 118.072C558.927 123.442 566.711 132.178 572.871 143.021C582.451 159.883 588.925 178.28 596.189 196.189C600.676 207.253 605.825 218.117 610.687 229.024C617.555 244.431 625.682 259.267 633.162 274.381C641.314 290.852 648.836 307.531 656.277 324.329C660.209 333.206 663.681 342.285 667.412 351.247C673.794 366.58 680.314 381.884 686.527 397.281C691.178 408.809 695.53 420.523 700.572 431.884C707.517 447.532 715.82 462.599 723.655 477.809C731.587 493.207 739.197 508.981 746.396 524.739C751.991 536.986 756.874 549.569 762.115 561.971C776.29 596.429 790.772 630.757 805.561 664.956L830.536 721.914C835.401 733.011 840.746 744.125 844.78 755.552C847.009 761.864 848.782 768.64 848.955 775.364C849.421 793.524 839.552 828.116 831.499 844.784C823.395 861.556 808.303 871.003 791.158 876.944C749.01 891.105 706.398 903.696 663.322 914.717C642.61 920.173 621.784 925.173 601.148 930.928L543.639 947.265C523.391 953.229 502.665 960.632 481.517 962.263C466.356 963.432 452.419 959.425 438.928 952.846C426.597 946.831 415.036 937.449 406.915 926.354C394.946 910.004 387.15 889.486 379.691 870.788C373.19 854.657 366.986 838.412 361.08 822.054C351.806 796.625 342.666 771.149 333.66 745.626C329.153 733.82 325.194 721.922 320.963 710.031C312.812 687.552 304.897 664.991 297.219 642.346C290.918 623.972 284.841 605.356 277.727 587.284C267.082 591.031 256.711 596.461 246.365 601.04C250.009 609.503 253.266 618.112 256.136 626.868C261.151 642.556 264.908 658.934 273.666 673.083C277.724 679.64 282.952 685.81 288.289 691.363C291.124 694.312 294.64 697.165 296.91 700.553C298.554 703.008 299.497 705.312 298.977 708.263C298.449 709.092 297.985 709.697 297.132 710.194C294.944 711.469 292.198 711.467 289.764 711.115C285.344 710.477 280.797 708.616 276.509 707.305C270.859 705.562 265.164 703.985 259.424 702.573C258.534 704.012 257.517 705.355 256.372 706.6C248.173 715.665 213.928 730.418 201.547 736.757C187.564 743.916 174.031 751.933 159.393 757.746C156.01 759.089 152.015 760.361 148.361 760.426C141.697 760.542 134.309 756.739 129.492 752.272C123.576 746.785 119.549 739.349 115.795 732.304C96.2431 695.611 83.9993 645.443 76.7002 604.68C75.4295 597.584 73.4733 590.165 73.1582 582.977C73.255 582.757 73.3487 582.536 73.4485 582.318C75.8243 577.126 79.8688 572.377 84.4462 568.993C90.6431 564.413 98.46 561.466 105.458 558.257C123.646 549.872 142.185 542.354 161.077 535.703C169.543 532.794 178.334 530.865 186.749 527.83C190.431 521.493 191.891 514.423 194.918 507.826C203.246 489.675 213.835 474.929 227.256 460.308C223.69 453.965 221.229 447.101 218.559 440.35C214.757 430.868 211.077 421.339 207.519 411.762C195.025 378.521 183.122 345.069 171.811 311.407C168.988 303.254 162.443 289.638 161.508 281.686C160.071 269.461 165.284 257.609 166.888 245.754C167.405 241.928 166.622 237.446 166.465 233.56C165.558 211.104 174.897 186.232 190.202 169.803C198.649 160.737 208.522 154.806 220.356 151.282C236.778 146.392 253.902 145.569 270.756 142.963C315.393 136.061 360.074 130.264 404.864 124.459C421.563 122.295 438.367 120.08 454.994 117.462C471.749 114.824 487.746 111.893 504.759 111.257Z" fill="#231F20"/>
<path d="M170.922 590.002C171.491 591.02 171.544 592.18 171.318 593.347C170.966 595.162 169.913 595.787 168.567 596.822L167.804 593.581C168.334 591.738 169.471 591.21 170.922 590.002Z" fill="#FEFEFE"/>
<path d="M185.952 584.956C186.67 584.904 186.99 585.03 187.659 585.256L187.79 586.162C186.528 588.429 184.373 590.232 182.548 592.057C181.839 591.559 181.219 591.015 180.581 590.43L180.57 589.348C181.629 587.32 184.071 586.169 185.952 584.956Z" fill="#FEFEFE"/>
<path d="M188.026 599.19C190.927 595.614 194.135 592.672 197.799 589.901C198.362 590.104 198.816 590.271 199.327 590.591L200.226 592.128C199.031 595.104 192.016 597.535 189.139 598.784C188.494 599.064 188.732 598.968 188.026 599.19Z" fill="#FEFEFE"/>
<path d="M176.507 598.798C180.413 599.216 184.098 599.436 188.026 599.19C184.983 601.355 177.019 605.735 173.294 605.218C174.047 602.928 175.324 600.888 176.507 598.798Z" fill="#FEFEFE"/>
<path d="M317.549 462.564C318.334 464.628 316.408 469.487 315.627 471.622C313.898 473.06 312.089 474.748 310.113 475.824C305.259 478.467 299.59 478.108 294.492 476.488C293.558 475.999 293.364 476.141 292.973 475.108C295.575 470.885 312.205 464.638 317.549 462.564Z" fill="#FEFEFE"/>
<path d="M256.117 556.947C256.251 556.991 256.397 557.007 256.519 557.079C259.514 558.849 260.677 564.712 261.675 567.882C247.155 571.293 235.673 581.191 222.768 588.026C221.519 587.665 221.246 586.736 220.541 585.688C219.115 583.567 215.562 579.271 215.424 576.765C216.366 575.533 216.43 575.21 217.891 574.782C219.737 575.382 221.047 577.496 222.626 578.689C223.63 578.492 223.415 578.689 224.098 578.023C225.636 576.525 225.374 574.717 225.358 572.749L225.347 571.982C227.649 568.272 251.296 558.909 256.117 556.947Z" fill="#FEFEFE"/>
<path d="M248.874 503.021C252.103 507.845 258.551 528.902 261.025 535.563C243.8 541.471 226.689 548.147 211.233 557.879C208.254 559.919 205.209 561.761 202.082 563.564C206.687 556.714 208.68 548.563 212.166 541.134C218.092 528.503 236.838 510.134 248.874 503.021Z" fill="#FEFEFE"/>
<path d="M298.292 425.183C304.225 424.327 311.337 425.361 316.919 427.508C325.551 430.829 333.153 437.04 336.868 445.646C338.154 448.626 339.02 451.123 337.766 454.231C335.671 454.511 332.347 452.562 330.217 451.97C324.988 450.516 317.837 453.046 312.956 454.996C299.898 460.214 288.555 467.321 276.493 474.348C271.925 477.009 267.004 479.024 262.471 481.761C257.299 484.884 252.818 489.089 247.881 492.561C224.86 508.75 210.92 519.967 199.491 546.637C195.338 555.381 194.141 566.842 188.283 574.595C187.319 575.871 186.507 576.525 184.931 576.774L184.293 576.189C185.253 568.255 186.013 560.229 187.941 552.458C189.693 545.398 192.597 538.906 195.237 532.169C202.512 513.603 209.626 496.672 222.134 480.816C228.058 473.306 234.317 465.11 240.988 458.304C254.869 444.143 278.278 427.488 298.292 425.183Z" fill="#FEFEFE"/>
<path d="M180.158 203.142C182.788 222.615 193.794 236.609 201.002 254.277C210.54 277.656 219.035 301.025 226.975 324.992C228.789 330.465 231.013 335.874 232.67 341.383C238.321 357.93 245.407 373.774 251.847 390.006C256.676 402.175 260.775 414.672 265.41 426.929C260.302 431.787 253.588 436.137 247.424 439.514C242.118 425.222 235.8 411.352 230.069 397.233C222.438 378.275 215.085 359.21 208.011 340.037C204.504 330.6 199.528 321.239 197.253 311.421C192.247 304.997 177.913 256.406 176.389 246.983C175.067 238.809 174.808 231.286 175.818 223.043C176.645 216.293 178.295 209.674 180.158 203.142Z" fill="#FEFEFE"/>
<path d="M197.253 311.421C197.224 311.243 197.202 311.064 197.164 310.887C195.379 302.498 183.27 277.594 187.101 270.861C187.699 269.809 188.34 269.321 189.38 268.753C191.04 268.55 192.107 268.983 193.395 269.981C195.869 271.899 196.438 273.95 197.202 276.891C199.825 285.029 201.907 293.414 204.742 301.463C205.899 304.75 208.115 307.708 208.866 311.074C209.359 313.281 209.53 316.166 208.364 318.212C207.756 319.28 207.281 319.701 206.155 320.146C204.428 320.214 202.832 319.564 201.542 318.406C199.6 316.665 198.643 313.619 197.253 311.421Z" fill="#231F20"/>
<path d="M217.19 327.523L219.756 327.536C221.801 328.944 223.365 336.259 224.273 338.841C231.162 358.423 238.399 377.971 246.994 396.879C245.837 398.878 244.688 400.611 243.137 402.326C242.195 402.187 241.269 401.994 240.336 401.806C239.673 401.325 239.223 400.879 238.827 400.152C233.976 391.247 211.782 335.285 213.223 330.15C214.277 328.639 215.531 328.223 217.19 327.523Z" fill="#231F20"/>
<path d="M281.892 481.615C282.969 481.482 283.922 481.37 285.013 481.42C285.968 481.464 286.279 481.652 286.946 482.386C290.766 486.583 298.159 508.215 300.452 514.469C304.171 524.609 308.216 534.631 311.642 544.877C319.427 568.161 326.107 591.847 334.074 615.062C349.478 659.254 365.644 703.166 382.57 746.798L396.638 783.433C406.99 811.046 417.172 842.066 437.534 864.16C452.509 880.407 474.152 887.685 495.834 888.441C516.399 889.157 537.145 882.791 557.05 878.417C583.226 872.738 609.364 866.889 635.464 860.871L728.931 839.335C747.182 835.17 765.825 832.003 783.76 826.596C799.486 821.854 821.008 816.241 833.161 804.881C831.062 817.036 826.011 831.758 817.344 840.859C812.671 843.764 807.448 845.687 802.271 847.479C792.059 851.013 781.675 853.281 771.265 856.11C751.326 861.529 731.419 867.259 711.352 872.191C701.794 874.54 692.06 876.042 682.525 878.524C670.23 881.725 658.079 885.468 645.797 888.712C619.936 895.542 593.848 901.854 567.876 908.281C541.7 914.758 515.018 921.898 488.152 924.703C473.813 926.199 456.279 926.453 443.047 919.905C437.042 916.934 430.943 912.309 427.363 906.566C415.965 888.287 408.164 868.744 400.636 848.675C395.451 835.256 390.427 821.776 385.565 808.236C382.13 798.371 379.167 788.354 375.523 778.557L327.534 645.758C319.374 623.129 310.063 600.847 302.479 578.025C303.499 573.904 304.763 569.749 304.41 565.454C303.982 560.251 296.49 542.507 294.142 536.795C291.724 530.913 289.5 529.069 283.715 526.659C281.554 522.14 280.037 517.197 278.326 512.488C275.421 504.345 272.402 496.244 269.269 488.187C273.523 486.081 277.596 483.662 281.892 481.615Z" fill="#FEFEFE"/>
<path d="M595.611 879.86C595.744 879.877 595.876 879.897 596.009 879.913C598.057 880.16 599.145 881.224 600.714 882.494L600.578 883.058C599.634 886.933 599.18 889.444 595.617 891.611C595.292 891.518 594.966 891.431 594.643 891.331C592.167 890.569 591.512 889.014 590.388 886.86C591.74 883.579 592.574 881.806 595.611 879.86Z" fill="#231F20"/>
<path d="M526.541 899.106C527.087 899.073 527.942 898.96 528.502 899.082C529.737 899.35 530.345 900.075 531.116 901.003C531.492 902.132 531.589 902.895 531.243 904.063C530.347 907.085 528.166 908.72 525.478 910.091C523.738 909.26 521.608 908.339 520.632 906.57C520.04 905.498 519.885 904.302 520.37 903.158C521.32 900.921 524.383 899.717 526.541 899.106Z" fill="#231F20"/>
<path d="M559.8 890.446C560.425 890.447 560.569 890.418 561.243 890.574C562.484 890.861 563.837 891.925 564.412 893.029C565.161 894.469 565.001 896.041 564.472 897.511C563.541 900.096 561.829 900.834 559.482 901.929C558.645 901.998 557.559 902.171 556.738 902.02C555.586 901.809 554.603 900.924 554.117 899.873C553.508 898.555 553.684 897.117 554.158 895.8C555.269 892.712 556.906 891.756 559.8 890.446Z" fill="#231F20"/>
<path d="M734.522 845.496C734.678 845.484 734.833 845.458 734.99 845.461C736.738 845.497 738.427 846.18 739.596 847.468C739.911 848.615 740.055 849.043 739.703 850.224C738.775 853.338 736.006 855.071 733.358 856.598C731.829 856.739 730.824 856.792 729.342 856.231C727.75 854.862 727.342 852.743 726.701 850.808C729.188 847.759 730.728 846.61 734.522 845.496Z" fill="#231F20"/>
<path d="M693.698 853.592C694.625 853.51 695.558 853.419 696.489 853.389C698.357 853.329 699.276 853.606 700.702 854.894C701.183 856.164 701.348 856.795 700.9 858.118C699.846 861.228 697.047 862.535 694.372 863.987C693.372 864.351 692.467 864.524 691.404 864.488C689.737 864.433 688.983 863.785 687.9 862.602C687.39 860.933 687.432 859.752 688.079 858.111C689.108 855.499 691.281 854.67 693.698 853.592Z" fill="#231F20"/>
<path d="M676.57 858.317C677.149 858.575 677.995 858.887 678.513 859.289C679.629 860.157 680.047 861.57 680.196 862.924C680.222 863.165 680.235 863.406 680.237 863.648C680.238 863.89 680.227 864.131 680.203 864.372C680.179 864.613 680.142 864.852 680.094 865.089C680.044 865.326 679.983 865.56 679.91 865.791C679.836 866.022 679.751 866.248 679.655 866.47C679.557 866.691 679.449 866.907 679.33 867.118C679.21 867.329 679.08 867.533 678.94 867.73C678.799 867.927 678.648 868.116 678.488 868.297C677.691 869.216 676.813 869.924 675.666 870.351C672.589 871.496 669.101 872.127 665.929 873.062C656.015 875.985 634.806 883.228 625.514 883.54C623.483 882.465 622.268 881.531 621.513 879.273C621.815 877.982 622.004 877.461 623.112 876.67C625.717 874.809 629.856 874.067 632.916 873.168C642.503 870.349 665.129 865.541 672.988 861.278C674.321 860.555 675.491 859.361 676.57 858.317Z" fill="#231F20"/>
<path d="M507.544 120.257C518.088 120.49 528.709 121.092 538.755 124.596C556.32 130.721 562.885 143.246 570.523 159.154C564.198 160.398 558.118 163.444 551.988 165.459C541.076 169.001 529.994 171.89 518.741 174.127C505.006 176.861 491.135 178.006 477.257 179.7C459.2 181.904 440.995 184.414 423.043 187.369C407.179 189.981 391.49 193.306 375.684 196.174C333.336 204.261 290.814 211.299 248.118 217.289C231.141 219.403 214.14 221.306 197.116 222.999C193.752 215.948 191.315 208.794 191.033 200.929C190.666 190.675 192.51 180.843 199.814 173.189C206.85 165.817 215.42 162.317 225.11 159.751C240.557 155.66 256.118 154.533 271.823 152.065C312.978 145.73 354.221 140.036 395.553 134.985C414.857 132.436 434.278 130.046 453.525 127.138C471.586 124.411 489.23 120.781 507.544 120.257Z" fill="#FEFEFE"/>
<path d="M444.421 140.166C446.227 140.064 448.343 139.846 450.108 140.306C453.171 141.102 456.193 144.055 457.594 146.821C458.733 149.069 459.126 151.771 458.179 154.16C456.954 157.25 454.468 158.626 451.566 159.885C448.818 160.086 446.666 159.95 444.163 158.69C441.082 157.138 438.537 154.339 437.58 150.994C436.92 148.687 436.94 146.418 438.144 144.293C439.514 141.874 441.857 140.855 444.421 140.166Z" fill="#231F20"/>
<path d="M304.012 159.55C306.424 159.364 308.987 159.266 311.372 159.727C315.977 160.619 320.385 163.428 322.844 167.458C324.207 169.691 324.969 172.332 324.274 174.922C323.315 178.492 320.672 180.602 317.624 182.368C316.87 182.482 316.114 182.583 315.357 182.671C310.952 183.175 306.29 182.197 302.85 179.275C298.786 175.821 298.349 171.114 297.878 166.174C299.562 163.434 301.472 161.493 304.012 159.55Z" fill="#231F20"/>
<path d="M306.093 167.761C306.268 167.763 306.442 167.756 306.617 167.767C309.038 167.914 313.251 169.013 314.739 171.074C315.59 172.251 315.502 172.65 315.399 174.02C314.439 174.207 313.459 174.41 312.483 174.486C310.793 174.617 308.737 174.097 307.54 172.841C306.148 171.379 306.046 169.661 306.093 167.761Z" fill="#FEFEFE"/>
<path d="M411.357 147.574C413.168 147.355 415.406 147.155 417.097 147.842C418.261 148.904 419.116 149.682 419.452 151.287C419.778 152.845 419.343 154.537 418.441 155.832C417.31 157.458 415.827 158.249 413.933 158.711C405.168 160.852 395.496 161.051 386.533 162.742C372.986 165.297 359.761 169.391 346.116 171.363C344.485 171.48 342.565 171.753 340.982 171.332C339.641 170.975 338.666 170.205 337.993 168.986C337.243 167.627 337.039 164.694 337.685 163.264C338.224 162.071 338.935 161.742 340.156 161.463C345.643 160.209 351.552 159.948 357.136 158.875C367.33 156.914 377.429 154.41 387.589 152.277C395.494 150.618 403.479 149.358 411.357 147.574Z" fill="#231F20"/>
<path d="M181.302 537.97C182.163 537.978 181.75 537.848 182.501 538.468C176.603 553.073 177.574 566.745 173.655 581.444C170.812 582.535 167.973 583.637 165.243 584.991C158.397 588.387 154.301 592.919 151.875 600.185C152.801 605.153 155.471 613.179 159.58 616.432C161.35 617.833 164.197 617.603 166.313 617.33C173.383 616.417 206.718 600.381 209.982 595.649C213.85 590.043 200.178 582.117 199.186 576.333C199.53 575.444 199.488 574.784 200.388 574.377C207.852 579.609 214.211 594.369 218.725 596.85C220.537 597.846 222.511 597.485 224.217 596.464C226.173 595.295 227.349 592.121 229.604 590.568C237.382 585.21 245.608 579.828 254.389 576.304C257.781 574.942 261.379 574.069 264.841 572.88C265.648 570.719 266.135 568.376 266.727 566.145C265.476 561.678 263.952 555.668 260.901 552.099C260.424 551.542 259.476 550.699 258.781 550.459C251.457 547.931 213.582 572.084 209.191 571.876C208.412 571.032 208.251 570.93 208.07 569.812C210.468 567.584 214.097 566.179 216.981 564.615C224.78 560.386 232.502 556.358 240.743 553.016C247.806 550.151 255.102 547.876 262.201 545.078C267.205 556.207 271.556 567.585 275.254 579.213C269.818 581.168 264.525 583.74 259.212 586.019L226.879 599.991C194.68 613.886 162.132 626.932 130.918 642.982C125.633 645.699 118.611 648.474 114.299 652.639C113.376 653.531 112.88 654.551 113.006 655.871C113.146 657.344 113.565 657.57 114.699 658.262C121.075 658.711 133.496 650.717 139.577 647.532C153.579 640.566 167.881 634.595 182.17 628.273C200.599 620.119 219.522 611.505 238.598 604.99C241.098 610.458 243.024 616.388 244.945 622.085C255.808 654.307 257.259 673.911 283.329 699.274C276.023 697.463 263.268 691.753 256.133 693.202C252.346 693.97 249.017 700.532 246.087 703.156C244.042 704.986 241.05 706.243 238.612 707.539C220.781 717.023 202.525 725.551 184.45 734.531C178.286 737.593 172.532 741.39 166.292 744.344C158.808 747.887 150.056 752.012 141.757 748.841C130.676 744.609 123.01 726.283 118.191 715.961C114.828 708.757 111.756 701.261 109.282 693.706C104.391 678.773 79.4352 590.016 83.3591 581.538C84.5351 578.998 87.5615 577.177 89.9081 575.807C95.7831 572.378 102.215 569.816 108.447 567.102C118.527 562.615 128.701 558.357 138.971 554.326C153.08 548.727 166.884 542.774 181.302 537.97Z" fill="#FEFEFE"/>
<path d="M124.147 571.087C126.111 570.855 127.13 570.739 128.924 571.546C131.444 574.854 128.276 577.316 128.692 580.848C129.734 589.698 135.999 604.079 134.818 612.245C134.489 614.522 133.21 615.461 131.438 616.667C130.357 616.957 129.808 617.019 128.719 616.743C126.872 613.538 119.105 576.682 119.743 575.086C120.643 572.834 122.097 572.119 124.147 571.087Z" fill="#231F20"/>
<path d="M98.04 589.247C99.1766 589.611 100.118 590.082 100.938 590.988C103.739 594.082 103.007 602.143 104.028 606.348C105.199 611.17 113.97 639.884 113.45 642.266C113.159 643.6 111.726 644.377 110.68 645.107C109.42 644.691 107.445 644.048 106.53 643.056C101.314 637.404 94.9328 605.131 95.2633 597.019C95.3933 593.828 95.609 591.464 98.04 589.247Z" fill="#231F20"/>
<path d="M111.012 577.495C111.677 577.668 112.592 577.832 113.178 578.181C114.314 578.856 114.765 579.462 115.062 580.733C116.079 585.083 116.027 589.86 116.892 594.297C118.489 602.484 120.806 610.55 122.572 618.707C123.152 621.389 125.051 628.404 123.125 630.595C122.104 631.756 120.326 631.999 118.899 632.28C118.268 631.62 117.642 630.942 117.125 630.187C115.505 627.82 106.556 593.486 105.84 588.843C105.619 587.403 105.706 585.906 105.963 584.476C106.57 581.102 108.26 579.358 111.012 577.495Z" fill="#231F20"/>
<path d="M226.22 683.051C227.126 682.976 228.406 682.813 229.279 683.049C230.408 683.353 231.598 684.453 232.067 685.535C232.371 686.235 232.403 687.028 232.123 687.727C230.701 691.277 223.974 692.837 220.681 694.093C204.367 700.314 190.356 709.926 174.74 717.464C173.773 717.506 172.956 717.494 172 717.284C170.709 717 169.441 716.027 168.847 714.845C168.38 713.917 168.273 712.561 168.773 711.616C170.123 709.068 175.834 706.88 178.397 705.429C193.451 696.908 209.29 687.261 226.22 683.051Z" fill="#231F20"/>
<path d="M205.273 654.501C205.761 654.483 206.879 654.538 207.378 654.737C208.771 655.29 209.026 655.799 209.732 657.021C209.833 658.082 209.872 658.737 209.464 659.754C208.87 661.235 207.384 662.223 206.034 662.941C200.429 665.92 193.965 667.542 188.172 670.232C174.202 676.72 160.627 683.963 146.713 690.532C146.068 690.584 145.426 690.472 144.784 690.406C143.543 689.625 142.546 688.952 141.985 687.522C141.493 686.27 141.659 685.077 142.246 683.906C145.305 677.8 195.694 657.6 205.273 654.501Z" fill="#231F20"/>
<path d="M221.343 667.865C221.703 667.958 222.056 668.077 222.407 668.198C223.628 668.62 224.68 669.341 225.122 670.622C225.879 672.815 224.595 674.941 223.619 676.823C210.145 682.923 195.815 686.929 182.376 693.212C171.257 698.41 161.297 706.38 149.862 710.615C148.271 709.794 146.584 708.856 145.947 707.107C146.048 704.96 147.506 703.202 148.625 701.432C162.454 693.298 176.872 685.687 191.724 679.594C201.657 675.519 211.679 672.715 221.343 667.865Z" fill="#231F20"/>
<path d="M213.784 630.69C213.955 630.693 214.129 630.669 214.298 630.699C215.728 630.953 216.751 631.417 217.559 632.665C218.341 633.873 218.394 634.73 218.268 636.12C216.492 639.145 210.792 639.634 207.458 640.502C196.707 643.298 187.025 648.191 176.741 652.209C166.756 656.11 156.413 659.423 146.596 663.701C141.422 665.955 137.044 669.47 131.701 671.452C130.774 671.5 129.615 671.637 128.744 671.26C127.265 670.62 126.623 669.27 126.242 667.832C126.394 667.098 126.564 666.472 127.008 665.851C133.483 656.816 158.309 650.25 169.049 646.058C183.601 640.377 198.176 632.943 213.784 630.69Z" fill="#231F20"/>
<path d="M572.628 164.013C572.713 164.049 572.808 164.068 572.883 164.122C573.923 164.87 599.738 227.692 603.255 235.688C605.343 240.331 607.596 244.894 610.012 249.375C614.619 258.082 619.441 266.713 623.811 275.541C637.801 303.798 650.253 333.03 662.253 362.184C673.382 389.223 683.496 416.648 695.723 443.238C703.954 461.139 713.67 478.422 722.555 496.007C726.91 504.625 730.8 513.529 734.777 522.326C754.102 565.068 770.71 608.95 789.693 651.829L817.988 715.627C822.717 726.415 828.526 737.879 831.964 749.12C836.375 763.545 839.085 777.767 831.405 791.693C829.269 795.565 826.215 799.112 822.597 801.668C813.276 808.255 796.199 813.09 784.992 816.316C765.807 821.84 745.956 825.649 726.503 830.174L619.658 854.876L555.84 869.171C537.616 873.254 518.742 878.539 499.995 879.074C484.721 879.509 470.554 875.441 457.275 868.109C437.234 855.649 427.01 833.13 417.89 812.356C440.186 809.711 462.376 806.358 484.458 802.296C506.54 798.233 528.47 793.47 550.248 788.006C580.87 780.085 610.973 769.996 641.529 761.694C663.228 755.798 684.964 749.764 706.786 744.349C723.407 740.224 740.236 736.809 756.747 732.257C765.487 729.757 774.194 727.143 782.867 724.416C788.284 722.742 794.232 721.336 799.342 718.867C801.285 717.928 803.843 716.58 804.821 714.538C805.867 712.356 803.551 707.913 802.544 705.884C792.318 685.266 781.907 664.877 772.95 643.651C763.398 621.019 755.317 597.678 746.03 574.91C733.158 543.351 719.465 512.036 706.19 480.638C692.849 449.082 678.609 417.876 665.029 386.419C652.867 358.247 641.372 329.786 628.792 301.793C617.504 276.678 605.136 252.062 593.921 226.931C585.036 207.022 577.168 186.658 568.222 166.762L572.628 164.013Z" fill="#FEFEFE"/>
<path d="M637.416 775.678C637.623 775.647 637.829 775.61 638.036 775.585C648.831 774.274 658.184 776.29 666.77 783.088C673.7 788.575 679.669 796.51 680.583 805.543C681.267 812.302 678.878 819.338 674.545 824.52C668.909 831.26 660.746 834.036 652.278 834.823C643.326 836.462 633.785 834.254 626.305 829.172C617.995 823.527 611.906 814.665 610.143 804.704C609.022 798.376 610.367 792.215 614.204 787.024C619.955 779.243 628.349 776.875 637.416 775.678Z" fill="#231F20"/>
<path d="M640.872 784.698C647.555 784.387 653.375 785.585 658.954 789.507C664.002 793.055 669.437 799.578 670.325 805.793C670.937 810.073 669.582 814.586 666.842 817.911C662.827 822.785 656.657 824.511 650.622 825.082C642.638 825.697 634.666 824.033 628.46 818.66C621.899 812.981 619.805 805.578 619.315 797.267C620.149 795.868 621.073 794.531 622.086 793.255C626.876 787.128 633.581 785.545 640.872 784.698Z" fill="#FEFEFE"/>
<path d="M560.627 170.47L561.573 170.709C564.672 176.611 566.679 183.767 569.172 190.008C574.72 203.815 580.431 217.554 586.307 231.224C594.805 250.5 604.715 269.175 613.342 288.397C627.947 320.94 641.245 354.036 655.208 386.847C669.009 419.276 683.734 451.326 697.806 483.638C703.539 496.804 708.55 510.192 714.039 523.439C718.003 533.007 722.451 542.377 726.435 551.941C733.835 569.881 741.114 587.87 748.274 605.907C754.783 622.651 761.005 639.444 768.08 655.969C775.93 674.302 786.888 691.242 794.57 709.563C784.349 714.993 771.863 717.951 760.71 720.935C747.148 724.579 733.53 728.006 719.858 731.215C701.46 735.617 683.072 740.5 664.791 745.38C611.781 759.528 559.549 777.017 505.908 788.659C490.692 791.961 475.101 794.65 459.735 797.196C447.787 799.177 425.306 799.745 415.284 805.69C411.993 795.706 407.799 785.89 403.991 776.086C396.609 755.322 388.19 734.97 380.341 714.388L342.866 613.256C331.683 582.483 322.82 550.974 311.182 520.325C306.909 509.071 302.367 495.623 295.405 485.772C296.057 486.02 296.713 486.254 297.374 486.473C298.036 486.692 298.703 486.896 299.373 487.086C300.044 487.276 300.718 487.451 301.396 487.612C302.075 487.772 302.757 487.917 303.441 488.048C304.126 488.178 304.813 488.293 305.502 488.394C306.192 488.494 306.884 488.579 307.577 488.649C308.271 488.719 308.965 488.774 309.661 488.813C310.357 488.852 311.054 488.876 311.75 488.885C312.447 488.894 313.144 488.888 313.84 488.866C314.537 488.845 315.233 488.808 315.928 488.755C316.623 488.703 317.316 488.636 318.008 488.553C318.701 488.47 319.391 488.373 320.078 488.26C320.766 488.147 321.451 488.019 322.133 487.876C322.815 487.733 323.494 487.575 324.169 487.402C324.845 487.229 325.516 487.042 326.182 486.839C326.85 486.637 327.512 486.42 328.169 486.189C335.152 483.679 340.728 479.069 343.838 472.224C347.841 463.411 348.23 451.889 344.747 442.864C340.599 432.115 331.659 424.647 321.267 420.181C304.56 413 289.135 416.86 273.02 423.244C271.619 416.885 269.042 410.604 266.888 404.47C263.292 393.993 259.398 383.628 255.205 373.375C251.391 364.107 247.208 354.979 243.699 345.586C233.841 319.193 226.185 292.078 216.081 265.73C211.65 254.176 207.242 242.18 200.402 231.814C224.202 227.426 248.734 226.588 272.633 222.768C279.938 221.6 287.197 220.152 294.51 219.042C302.905 217.766 311.375 216.818 319.733 215.326C360.571 208.036 401.258 199.982 442.23 193.44C472.175 188.658 503.132 187.677 532.544 180.12C542.199 177.639 551.355 174.072 560.627 170.47Z" fill="#FEFEFE"/>
<path d="M289.007 313.179C290.226 312.973 291.319 312.968 292.409 313.518C292.541 314.479 292.696 314.222 292.193 314.917C290.745 316.915 288.997 317.01 286.705 317.407C285.462 317.502 284.8 317.556 283.679 316.974L283.46 316.017C283.734 315.516 283.823 315.304 284.215 314.832C285.447 313.355 287.221 313.384 289.007 313.179Z" fill="#231F20"/>
<path d="M537.972 269.657C538.08 269.646 538.189 269.641 538.298 269.64C538.406 269.639 538.515 269.644 538.624 269.653C538.732 269.663 538.839 269.678 538.947 269.698C539.053 269.718 539.159 269.743 539.264 269.773C539.368 269.804 539.471 269.839 539.573 269.878C539.674 269.918 539.773 269.963 539.871 270.013C539.967 270.062 540.062 270.116 540.154 270.174C540.246 270.233 540.334 270.295 540.42 270.362C540.506 270.429 540.588 270.5 540.668 270.575C540.747 270.65 540.822 270.728 540.894 270.81C540.966 270.892 541.033 270.977 541.097 271.066C541.16 271.154 541.219 271.245 541.274 271.339C541.328 271.433 541.379 271.53 541.425 271.629C541.47 271.728 541.511 271.828 541.547 271.931C541.583 272.034 541.614 272.138 541.64 272.244C541.666 272.349 541.687 272.456 541.703 272.564C541.719 272.672 541.729 272.78 541.735 272.889C541.74 272.998 541.74 273.106 541.736 273.215C541.731 273.324 541.721 273.432 541.706 273.54C541.69 273.648 541.67 273.755 541.645 273.86C541.619 273.966 541.589 274.071 541.554 274.174C541.518 274.277 541.478 274.378 541.433 274.477C541.388 274.576 541.338 274.673 541.284 274.767C541.23 274.862 541.171 274.953 541.108 275.042C541.045 275.131 540.978 275.216 540.907 275.299C540.835 275.381 540.76 275.46 540.682 275.535C540.603 275.61 540.521 275.682 540.436 275.749C540.35 275.816 540.262 275.88 540.17 275.939C540.078 275.998 539.984 276.052 539.888 276.102C539.791 276.152 539.692 276.197 539.591 276.238C539.49 276.279 539.387 276.314 539.283 276.345C539.178 276.376 539.072 276.401 538.966 276.422C538.814 276.451 538.662 276.47 538.509 276.479C538.355 276.488 538.202 276.486 538.049 276.473C537.895 276.461 537.743 276.439 537.593 276.407C537.443 276.374 537.295 276.332 537.151 276.279C537.006 276.227 536.866 276.165 536.73 276.094C536.593 276.023 536.462 275.942 536.337 275.853C536.211 275.764 536.092 275.667 535.98 275.562C535.868 275.457 535.763 275.345 535.666 275.226C535.568 275.107 535.479 274.981 535.399 274.85C535.319 274.719 535.248 274.584 535.186 274.443C535.124 274.302 535.071 274.157 535.029 274.01C534.986 273.862 534.953 273.712 534.931 273.56C534.908 273.407 534.896 273.254 534.895 273.1C534.893 272.947 534.901 272.794 534.921 272.641C534.939 272.488 534.968 272.337 535.008 272.188C535.047 272.039 535.096 271.894 535.155 271.752C535.213 271.61 535.281 271.472 535.359 271.339C535.437 271.206 535.523 271.079 535.617 270.958C535.711 270.837 535.814 270.722 535.924 270.615C536.034 270.507 536.15 270.407 536.274 270.316C536.398 270.224 536.527 270.141 536.661 270.067C536.795 269.992 536.935 269.927 537.079 269.871C537.222 269.816 537.368 269.77 537.518 269.734C537.667 269.698 537.818 269.672 537.972 269.657Z" fill="#231F20"/>
<path d="M620.019 570.433C621.032 570.627 621.821 570.918 622.775 571.294C623.754 572.537 623.786 572.588 623.83 574.167C623.129 575.809 622.439 576.477 621.03 577.553C619.822 577.34 618.25 577.18 617.413 576.176C616.562 575.156 616.617 574.655 616.72 573.438C617.622 571.849 618.438 571.313 620.019 570.433Z" fill="#231F20"/>
<path d="M560.159 264.745C560.281 264.647 560.41 264.558 560.545 264.478C560.68 264.397 560.82 264.326 560.965 264.265C561.109 264.204 561.258 264.152 561.41 264.111C561.561 264.07 561.715 264.039 561.871 264.018C562.026 263.998 562.182 263.988 562.34 263.988C562.496 263.989 562.652 264 562.808 264.022C562.964 264.044 563.117 264.076 563.269 264.118C563.42 264.161 563.568 264.213 563.712 264.276C563.856 264.339 563.995 264.411 564.13 264.492C564.264 264.573 564.392 264.663 564.514 264.762C564.636 264.861 564.752 264.967 564.86 265.081C564.968 265.196 565.067 265.317 565.159 265.445C565.25 265.572 565.332 265.706 565.406 265.845C565.479 265.984 565.543 266.127 565.597 266.274C565.651 266.422 565.695 266.573 565.729 266.726C565.762 266.879 565.785 267.034 565.798 267.191C565.81 267.348 565.812 267.504 565.803 267.661C565.795 267.818 565.776 267.973 565.746 268.128C565.716 268.282 565.676 268.434 565.626 268.583C565.576 268.732 565.516 268.876 565.446 269.017C565.376 269.158 565.297 269.293 565.209 269.423C565.121 269.553 565.025 269.677 564.92 269.794C564.815 269.911 564.703 270.02 564.584 270.122C564.464 270.224 564.338 270.317 564.206 270.402C564.113 270.461 564.017 270.516 563.919 270.567C563.821 270.618 563.72 270.663 563.618 270.704C563.516 270.745 563.412 270.781 563.306 270.812C563.2 270.843 563.093 270.869 562.985 270.89C562.876 270.911 562.767 270.926 562.657 270.937C562.547 270.948 562.437 270.953 562.327 270.953C562.216 270.953 562.106 270.948 561.996 270.937C561.886 270.926 561.777 270.911 561.669 270.89C561.56 270.869 561.453 270.843 561.347 270.812C561.241 270.781 561.137 270.745 561.035 270.704C560.932 270.663 560.831 270.618 560.733 270.567C560.635 270.517 560.54 270.462 560.446 270.402C560.354 270.343 560.264 270.279 560.178 270.211C560.091 270.143 560.007 270.071 559.927 269.995C559.847 269.918 559.771 269.839 559.699 269.756C559.626 269.673 559.557 269.586 559.493 269.496C559.429 269.406 559.37 269.313 559.315 269.218C559.259 269.123 559.208 269.025 559.162 268.925C559.116 268.824 559.075 268.722 559.039 268.618C559.002 268.514 558.97 268.408 558.944 268.301C558.918 268.194 558.897 268.086 558.881 267.977C558.865 267.868 558.854 267.758 558.849 267.648C558.843 267.537 558.842 267.427 558.847 267.317C558.852 267.207 558.862 267.097 558.878 266.988C558.893 266.879 558.913 266.77 558.939 266.663C558.965 266.556 558.995 266.45 559.031 266.345C559.066 266.241 559.106 266.139 559.152 266.038C559.198 265.937 559.248 265.839 559.303 265.743C559.357 265.647 559.416 265.554 559.48 265.464C559.544 265.374 559.611 265.287 559.683 265.203C559.755 265.12 559.83 265.04 559.91 264.963C559.989 264.886 560.072 264.814 560.159 264.745Z" fill="#231F20"/>
<path d="M667.015 559.589C667.156 559.577 667.298 559.545 667.439 559.553C668.618 559.625 669.509 559.919 670.38 560.668C670.398 561.561 670.538 561.913 670.065 562.717C668.842 564.794 667.119 564.907 664.936 565.43C663.765 565.507 662.681 565.1 661.657 564.584C661.456 563.406 661.403 563.166 662.083 562.098C663.221 560.308 665.084 560.088 667.015 559.589Z" fill="#231F20"/>
<path d="M544.432 558.958C545.92 558.964 547.597 558.914 548.899 559.768C550.144 560.584 550.217 561.069 550.432 562.411C549.585 564.194 548.936 564.464 547.341 565.559C545.921 565.582 544.67 565.607 543.433 564.744C542.189 563.876 542.124 563.373 541.866 561.994C542.342 560.395 543.152 559.889 544.432 558.958Z" fill="#231F20"/>
<path d="M390.573 294.264C390.698 294.229 390.824 294.2 390.951 294.177C391.078 294.154 391.206 294.137 391.335 294.127C391.464 294.116 391.594 294.112 391.723 294.115C391.852 294.118 391.981 294.126 392.11 294.141C392.238 294.156 392.365 294.178 392.492 294.205C392.618 294.233 392.743 294.267 392.866 294.307C392.989 294.347 393.11 294.393 393.229 294.444C393.348 294.496 393.463 294.554 393.576 294.617C393.689 294.68 393.798 294.748 393.905 294.822C394.011 294.896 394.113 294.975 394.211 295.059C394.31 295.143 394.404 295.232 394.494 295.325C394.583 295.418 394.668 295.516 394.748 295.617C394.828 295.719 394.903 295.824 394.973 295.933C395.043 296.042 395.107 296.155 395.166 296.27C395.225 296.385 395.278 296.503 395.325 296.623C395.372 296.744 395.413 296.866 395.448 296.991C395.483 297.116 395.512 297.242 395.535 297.369C395.558 297.496 395.574 297.624 395.584 297.753C395.594 297.882 395.598 298.012 395.595 298.141C395.592 298.27 395.583 298.399 395.568 298.527C395.553 298.656 395.531 298.783 395.503 298.91C395.476 299.036 395.442 299.161 395.401 299.284C395.361 299.407 395.315 299.527 395.263 299.646C395.211 299.764 395.154 299.88 395.091 299.993C395.027 300.106 394.958 300.215 394.884 300.321C394.81 300.427 394.731 300.529 394.647 300.627C394.563 300.726 394.474 300.82 394.381 300.909C394.288 300.998 394.19 301.083 394.088 301.163C393.987 301.243 393.881 301.318 393.772 301.388C393.663 301.457 393.55 301.521 393.435 301.58C393.32 301.639 393.202 301.691 393.082 301.738C392.961 301.785 392.839 301.826 392.714 301.861C392.589 301.896 392.464 301.924 392.337 301.947C392.21 301.97 392.082 301.986 391.953 301.996C391.824 302.006 391.695 302.01 391.566 302.007C391.437 302.004 391.308 301.995 391.18 301.98C391.052 301.965 390.925 301.943 390.798 301.915C390.672 301.887 390.548 301.853 390.425 301.813C390.302 301.773 390.182 301.727 390.064 301.675C389.945 301.623 389.83 301.565 389.717 301.502C389.604 301.439 389.495 301.371 389.389 301.297C389.284 301.223 389.182 301.144 389.083 301.06C388.985 300.976 388.891 300.887 388.802 300.794C388.713 300.701 388.628 300.603 388.548 300.502C388.468 300.401 388.393 300.296 388.324 300.187C388.254 300.078 388.19 299.966 388.132 299.851C388.073 299.736 388.02 299.618 387.973 299.498C387.926 299.378 387.885 299.256 387.85 299.131C387.815 299.007 387.787 298.881 387.764 298.754C387.741 298.627 387.725 298.499 387.714 298.37C387.704 298.241 387.7 298.112 387.703 297.983C387.706 297.854 387.715 297.726 387.73 297.597C387.745 297.469 387.766 297.342 387.794 297.216C387.821 297.09 387.855 296.965 387.895 296.842C387.935 296.719 387.981 296.599 388.033 296.481C388.084 296.362 388.142 296.247 388.205 296.134C388.268 296.021 388.336 295.912 388.41 295.806C388.484 295.7 388.563 295.598 388.646 295.5C388.73 295.402 388.819 295.308 388.912 295.218C389.005 295.129 389.102 295.044 389.203 294.964C389.304 294.884 389.409 294.809 389.518 294.739C389.627 294.67 389.739 294.606 389.854 294.547C389.969 294.488 390.086 294.435 390.206 294.388C390.327 294.341 390.449 294.299 390.573 294.264Z" fill="#231F20"/>
<path d="M595.751 578.108C595.894 578.084 596.036 578.034 596.181 578.038C597.264 578.069 598.099 578.289 598.934 578.966C599.213 580.384 599.258 580.641 598.597 581.997C597.754 583.724 596.161 584.044 594.473 584.591C593.684 584.616 592.789 584.687 592.012 584.539C590.7 584.289 590.135 583.592 589.363 582.596C589.429 581.567 589.321 581.417 589.945 580.515C591.373 578.457 593.461 578.441 595.751 578.108Z" fill="#231F20"/>
<path d="M385.934 592.083L387.018 592.166C387.864 593.161 387.982 593.368 388.226 594.647C387.993 595.083 387.87 595.392 387.461 595.736C384.387 598.332 376.479 598.438 372.551 598.455C371.078 597.971 370.474 597.707 369.68 596.4L370.046 595.627C373.297 593.028 380.96 593.477 385.187 592.295L385.934 592.083Z" fill="#231F20"/>
<path d="M418.423 286.451C418.821 286.477 419.219 286.503 419.616 286.548C421.567 286.773 423.927 287.9 425.025 289.625C425.861 290.939 425.813 291.748 425.63 293.198C424.776 294.821 423.776 295.447 422.255 296.425C422.12 296.419 421.984 296.417 421.849 296.405C419.516 296.202 417.206 295.665 415.75 293.65C414.98 292.585 414.546 291.519 414.84 290.188C415.274 288.221 416.833 287.38 418.423 286.451Z" fill="#231F20"/>
<path d="M506.742 567.867C508.006 568.08 507.762 568.092 508.52 568.99C508.752 570.32 508.94 570.644 508.033 571.778C504.941 575.646 492.603 577.623 487.874 577.567C487.198 577.431 486.796 577.145 486.211 576.792C485.58 575.565 485.425 575.46 485.644 574.12C487.382 572.427 495.606 572.162 498.533 571.325C501.377 570.511 504.077 569.133 506.742 567.867Z" fill="#231F20"/>
<path d="M445.232 581.154C445.768 581.19 445.997 581.469 446.431 581.77C446.495 583.287 446.53 583.472 445.754 584.76C440.92 588.145 428.717 588.4 422.647 588.959C422.302 588.863 421.705 588.721 421.411 588.532C420.488 587.937 420.55 587.378 420.492 586.413C422.571 584.118 440.797 582.031 445.232 581.154Z" fill="#231F20"/>
<path d="M570.218 243.683C571.362 243.451 572.462 243.442 573.629 243.495C575.454 243.578 576.503 244.225 577.763 245.545C578.016 246.631 578.193 247.1 577.536 248.128C576.518 249.723 574.558 250.765 572.813 251.331C565.101 253.83 556.296 254.298 548.331 256.076C529.955 260.178 511.688 264.897 493.38 269.291C491.685 269.665 490.243 269.933 488.504 269.848C487.099 269.159 486.576 268.806 485.696 267.437C485.556 266.316 485.363 265.72 486.1 264.738C489.166 260.648 559.816 244.871 570.218 243.683Z" fill="#231F20"/>
<path d="M544.795 320.804C546.387 320.599 548.148 320.256 549.743 320.496C551.911 320.822 553.697 321.789 554.938 323.582C555.052 324.707 555.105 325.06 554.525 326.092C553.273 328.317 549.903 329.229 547.583 329.674C543.788 330.402 539.729 330.512 535.875 330.951C526.961 331.966 518.052 333.032 509.149 334.149C492.108 336.387 474.991 339.578 458.138 342.958C445.884 345.416 433.647 347.808 421.623 351.254C421.564 351.275 421.506 351.302 421.445 351.317C419.248 351.874 417.528 351.731 415.558 350.53C414.106 349.645 413.645 348.563 413.283 346.976C413.503 345.996 413.691 345.496 414.371 344.718C415.663 343.237 417.993 342.382 419.809 341.809C429.063 338.886 439.117 337.595 448.631 335.692C466.764 332.064 484.866 328.297 503.177 325.627C516.97 323.615 530.921 322.126 544.795 320.804Z" fill="#231F20"/>
<path d="M599.607 348.665C601.715 348.347 604.999 348.132 607.045 348.679C608.482 349.064 609.712 350.087 610.248 351.494C610.673 352.609 610.529 353.718 609.903 354.712C609.411 355.492 608.847 355.878 607.987 356.183C604.359 357.47 600.067 357.882 596.279 358.609C590.065 359.85 583.86 361.134 577.665 362.462C552.833 367.666 527.776 371.692 502.987 377.131C481.682 381.807 460.761 387.878 439.3 391.865C436.713 392.335 432.472 393.124 430.24 391.208C429.574 390.637 429.088 390.133 428.96 389.254C428.797 388.134 429.069 386.491 429.911 385.645C433.482 382.058 455.679 379.185 461.828 377.774C479.144 373.801 496.221 369.005 513.608 365.268C528.535 362.06 543.673 359.886 558.647 356.892C572.254 354.171 585.869 350.582 599.607 348.665Z" fill="#231F20"/>
<path d="M410.387 234.701C414.874 234.078 420.619 233.799 424.616 236.233C430.83 240.017 433.553 249.953 435.293 256.571C426.074 264.965 405.517 266.754 393.12 268.829C389.335 269.605 386.206 269.432 382.445 268.823C378.494 264.754 370.702 253.005 369.523 247.58C369.174 245.975 369.202 243.114 370.422 241.835C373.209 238.915 404.533 235.295 410.387 234.701Z" fill="#4B6F4C"/>
<path d="M526.218 209.692C530.698 208.924 536.268 209.087 540.079 211.804C546.046 216.057 547.606 224.625 548.784 231.37C548.338 232.445 547.9 233.51 547.227 234.468C543.204 240.197 513.774 245.424 506.261 246.525C503.915 246.581 501.858 246.51 499.803 245.24C493.989 241.647 485.093 231.914 483.703 225.153C483.334 223.359 483.527 221.623 484.678 220.143C488.612 215.083 518.206 210.571 526.218 209.692Z" fill="#4B6F4C"/>
<path d="M296.621 251.197C300.354 250.867 307.484 250.802 310.794 252.646C315.07 255.028 318.454 267.241 319.773 271.961C320.224 273.576 320.484 274.754 319.551 276.249C318.501 277.932 316.296 278.891 314.493 279.498C310.038 280.997 305.15 281.22 300.53 282.041C292.425 283.46 284.358 285.067 276.328 286.861C273.08 287.385 266.89 289.066 263.871 287.707C261.055 286.438 258.698 282.063 257.353 279.348C255.265 275.129 252.749 269.098 254.285 264.456C259.074 258.784 288.585 252.04 296.621 251.197Z" fill="#4B6F4C"/>
<path d="M463.184 266.648C464.121 266.496 465.052 266.395 466.002 266.391C468.028 266.382 469.138 267.06 470.551 268.453C470.884 269.625 471.12 270.082 470.316 271.176C465.016 278.394 390.336 287.353 375.743 289.54C365.385 291.092 355.09 293.179 344.702 294.513C329.097 296.518 313.391 297.725 297.797 299.847C285.494 301.522 273.494 304.533 261.116 305.864C258.695 306.141 256.311 306.312 254.037 305.343C253.488 304.829 253.071 304.4 252.822 303.671C252.368 302.342 252.172 300.829 253.039 299.611C253.624 298.79 254.517 298.292 255.428 297.923C259.727 296.183 268.194 295.825 273.16 295.046C279.044 294.122 284.916 292.751 290.802 291.97C310.119 289.406 329.551 287.879 348.859 285.236C360.955 283.58 373.007 281.563 385.106 279.882C398.41 278.034 411.817 276.496 425.048 274.201C437.812 271.988 450.413 268.885 463.184 266.648Z" fill="#231F20"/>
<path d="M602.24 403.657C603.816 403.855 605.668 403.97 607.082 404.739C608.697 405.617 609.628 406.623 610.084 408.424C609.915 409.323 609.776 410.134 609.165 410.864C606.422 414.135 581.482 418.244 576.446 419.173C551.039 423.864 525.451 427.81 499.999 432.285C479.785 435.839 459.544 439.872 439.419 443.899C426.232 446.584 413.103 449.532 400.033 452.741C390.017 455.187 379.9 458.212 369.619 459.235C368.432 459.472 367.382 459.545 366.248 459.072C364.734 458.44 363.257 457.316 362.695 455.715C362.266 454.492 362.163 453.418 362.873 452.267C363.597 451.094 364.7 450.566 365.955 450.161C371.425 448.399 377.564 448.014 383.205 446.858C393.2 444.809 403.143 442.359 413.116 440.183C475.866 426.489 539.574 417.662 602.24 403.657Z" fill="#231F20"/>
<path d="M617.972 419.936C619.328 420.09 620.687 420.264 622.023 420.549C628.331 421.892 659.6 434.134 661.932 438.498C662.893 440.296 662.852 442.35 662.376 444.288C660.48 452.007 650.213 464.267 643.127 468.162C640.892 469.391 638.129 470.365 635.607 469.436C630.438 467.531 628.49 458.869 626.477 454.219C595.138 460.111 563.65 465.216 532.454 471.872C492.953 480.299 453.747 490.464 414.392 499.589C406.577 501.236 378.045 507.949 372.015 506.562C370.477 506.208 368.885 505.414 368.161 503.925C367.628 502.827 367.789 501.905 368.132 500.801C369.822 498.76 371.685 497.843 374.241 497.174C378.83 495.975 383.797 495.606 388.488 494.836C397.093 493.424 405.789 491.772 414.298 489.864C440.836 483.892 467.31 477.652 493.721 471.143C506.101 468.166 518.444 464.808 530.913 462.239C553.497 457.567 576.136 453.183 598.831 449.088C607.05 447.561 615.362 446.636 623.524 444.802C621.206 439.133 618.548 433.227 617.355 427.198C616.833 424.559 616.402 422.248 617.972 419.936Z" fill="#231F20"/>
<path d="M384.913 316.943C385.678 316.94 386.485 316.925 387.24 317.065C388.472 317.293 389.693 318.062 390.189 319.246C391.385 322.104 390.756 331.677 391.314 335.546C393.819 352.925 403.484 373.95 394.132 390.672C389.474 399.001 379.599 405.727 370.468 408.13C357.816 411.459 347.339 410.43 336.097 403.872C330.537 399.841 325.518 395.409 321.888 389.505C316.764 381.172 313.764 369.293 316.294 359.647C317.551 354.852 320.114 350.863 323.765 347.535C336.861 335.597 368.548 326.85 384.913 316.943Z" fill="#231F20"/>
<path d="M370.561 333.527C370.899 333.857 370.685 333.599 370.874 334.481C367.354 339.926 364.264 349.073 361.674 355.251C358.937 361.777 355.889 368.168 353.215 374.718C349.233 370.895 343.247 365.214 338.275 362.906C336.221 361.953 333.217 361.331 331.094 362.343C330.263 362.74 330.531 362.632 330.17 363.625C330.303 364.511 330.597 365.129 331.095 365.861C334.537 370.917 341.792 374.905 346.496 378.868C348.371 380.448 349.964 382.403 351.914 383.879C353.02 384.717 353.994 385.111 355.345 385.361C364.261 383.368 373.841 342.851 380.153 336.907C380.733 336.361 380.641 336.567 381.575 336.622C383.673 338.894 384.184 345.716 384.779 348.877C387.204 358.911 391.4 370.479 388.271 380.745C386.077 387.945 381.195 393.45 374.584 396.882C366.099 401.286 355.202 403.032 346.005 399.978C338.217 397.392 331.653 392.059 328.042 384.623C324.502 377.332 322.651 368.066 325.532 360.287C326.458 357.789 327.847 355.68 329.911 353.984C336.404 348.647 361.377 337.979 370.561 333.527Z" fill="#FBBE1D"/>
<path d="M664.592 474.68C668.52 474.4 673.245 473.568 677.119 474.1C679.435 474.419 681.071 475.502 682.41 477.408C686.135 482.709 689.041 489.1 692.25 494.762C695.961 501.308 700.501 507.815 703.448 514.736C704.381 516.925 705.647 520.316 705.092 522.744C704.606 524.87 703.001 526.55 701.127 527.579C697.14 529.768 674.411 534.81 668.704 536.126C661.159 537.866 653.469 538.97 645.875 540.484C638.707 541.914 631.62 543.745 624.471 545.268C615.969 547.079 607.399 548.593 598.918 550.502C593.82 551.65 577.466 557.13 573.814 556.759C573.547 556.732 573.29 556.638 573.035 556.555C569.787 555.491 557.001 539.118 554.518 535.563C552.68 532.931 551.101 530.052 549.519 527.261C527.446 531.327 505.472 535.87 483.597 540.889C465.49 545.165 447.594 550.023 429.385 553.904C421.722 555.593 376.925 564.957 372.106 563.495C370.645 563.052 369.091 561.464 368.683 559.997C368.354 558.817 368.483 557.766 369.243 556.792C370.679 554.95 373.771 554.119 375.925 553.627C381.857 552.273 388.182 551.895 394.208 550.849C408.162 548.428 422.203 545.72 436.029 542.642C459.837 537.341 483.502 531.401 507.349 526.249C520.139 523.487 532.846 520.634 545.842 519.03C545.519 517.251 545.196 515.466 544.979 513.67C544.53 509.948 545.266 505.428 547.782 502.519C549.282 500.784 551.557 500.229 553.686 499.622C568.83 495.304 584.695 493.08 600.031 489.438C621.549 484.329 642.499 476.963 664.592 474.68Z" fill="#231F20"/>
<path d="M669.695 482.754L676.962 482.553C680.678 490.337 695.872 511.998 695.587 519.317C687.96 525.193 620.162 536.74 605.753 539.833C597.106 541.72 588.561 543.993 580.12 546.652L575.607 547.82C573.388 543.837 570.353 540.399 567.506 536.864C560.212 527.806 556.235 519.795 553.672 508.425C559.876 506.573 566.547 505.776 572.923 504.631C580.797 503.206 588.628 501.575 596.416 499.736C621.472 493.849 643.759 485.098 669.695 482.754Z" fill="#FEFEFE"/>
<path d="M570.571 514.505C570.812 514.494 571.053 514.475 571.295 514.47C573.493 514.427 575.887 515.024 577.422 516.738C578.591 518.043 579.218 519.686 578.928 521.445C578.476 524.181 576.736 525.508 574.599 527.012C573.586 527.1 572.775 527.123 571.77 526.895C570.198 526.538 568.601 525.057 567.806 523.707C566.837 522.062 566.537 520.018 567.096 518.181C567.708 516.172 568.778 515.466 570.571 514.505Z" fill="#231F20"/>
<path d="M643.904 499.709C646.414 499.626 649.727 499.294 651.957 500.592C653.208 501.32 654.205 502.29 654.634 503.685C651.231 509.947 628.209 505.853 623.766 512.018C623.308 512.654 623.346 513.486 623.619 514.216C626.078 520.797 664.852 506.692 676.065 512.789C677.718 513.688 677.931 514.597 678.391 516.282C672.196 517.211 665.899 517.395 659.684 518.361C646.805 520.363 633.393 525.134 620.29 523.47C617.771 521.272 615.678 519.056 615.343 515.583C615.034 512.37 615.455 509.131 617.624 506.613C622.616 500.817 636.808 500.057 643.904 499.709Z" fill="#231F20"/>
<path d="M689.885 583.584C691.935 583.398 693.853 583.146 695.732 584.2C700.936 587.119 705.657 593.165 709.177 597.871C716.942 608.253 722.082 620.19 729.269 630.934C733.554 637.342 745.614 650.022 747.267 656.53C747.585 657.781 747.342 658.818 746.666 659.909C745.532 661.742 743.45 662.87 741.484 663.591C733.814 666.401 720.685 667.975 712.109 670.036C713.935 676.075 718.351 684.623 716.668 690.897C715.346 692.676 712.961 693.518 710.919 694.202C704.483 696.355 697.24 697.37 690.591 698.788C675.72 701.982 660.819 705.03 645.887 707.933C639.992 709.153 630.286 712.344 624.544 710.388C616.083 702.428 605.838 659.408 601.798 647.256C598.649 637.781 593.807 628.323 591.639 618.66L591.876 618.653L591.606 617.93C591.769 617.262 591.664 617.353 592.17 616.803C595.975 612.677 621.702 611.742 628.092 611.568C627.225 610.356 625.895 608.779 625.529 607.323C625.203 606.032 625.198 604.912 625.959 603.767C628.519 599.913 643.542 598.183 648.541 597.061L648.943 596.172C649.255 595.47 649.553 594.765 649.909 594.083C656.233 581.96 668.432 589.673 678.272 588.106C681.549 587.584 686.371 584.724 689.885 583.584Z" fill="#231F20"/>
<path d="M661.563 596.12C666.593 595.687 671.782 597.003 676.728 597.892C676.769 602.267 676.386 606.628 675.899 610.971C670.065 610.898 665.412 610.195 660.184 607.327C658.686 606.328 657.819 605.331 656.748 603.893L658.205 603.543C660.243 604.86 661.83 606.371 663.527 608.076C664.659 608.279 664.612 608.274 665.486 607.6C666.988 606.443 671.223 602.173 671.41 600.421C668.641 596.639 663.641 600.466 660.47 598.592C660.494 597.217 660.778 597.182 661.563 596.12Z" fill="#FEFEFE"/>
<path d="M690.252 593.157L692.143 593.27C702.792 600.217 729.542 642.905 737.461 655.318C725.392 657.546 713.122 659.992 701.509 664.02C689.019 668.352 677.016 674.108 664.451 678.205C658.565 671.585 653.265 663.443 648.51 655.952C645.141 650.645 631.273 624.12 626.638 622.133C625.372 621.59 623.812 621.797 622.602 622.339C619.679 623.649 618.69 627.681 617.804 630.434C616.798 628.979 615.634 626.905 613.999 626.073C612.759 625.442 612.4 625.559 611.259 626.09C608.249 631.77 614.544 649.429 615.655 656.561C613.23 650.917 611.413 644.975 609.206 639.235C606.894 633.218 604.272 627.312 601.915 621.307C609.772 622.151 623.975 620.399 631.095 617.268C632.38 619.72 633.681 622.164 634.997 624.599C639.765 633.401 659.351 666.833 668.601 669.182C668.798 669.232 668.997 669.273 669.198 669.307C674.549 670.22 681.932 663.83 687.182 662.087C698.603 658.297 708.582 661.18 720.82 653.375C723.222 651.843 728.299 648.361 728.429 645.299C728.492 643.807 727.433 642.126 726.365 641.209C722.013 640.746 716.477 645.857 712.275 647.411C704.892 650.142 696.708 650.923 689.142 653.19C682.678 655.127 676.905 658.431 670.63 660.812C667.64 655.216 663.618 650.087 659.921 644.95C651.516 633.273 641.948 620.892 635.806 607.882L645.633 605.975C647.434 609.54 649.643 612.47 652.828 614.93C658.562 619.358 668.701 623.093 675.889 622.031C689.765 619.981 683.693 598.317 687.058 593.665L690.252 593.157Z" fill="#E45752"/>
<path d="M481.524 601.05C483.314 600.984 485.168 601.027 486.925 601.4C495.39 603.197 500.273 609.489 504.744 616.272C512.166 615.224 525.563 610.681 532.009 611.204C535.071 612.915 539.008 626.517 540.83 630.273C545.566 640.034 550.696 650.117 556.024 659.578C559.347 665.48 563.136 671.123 566.379 677.071C567.643 679.39 568.987 681.848 568.175 684.536C564.988 687.862 545.567 692.988 539.742 695.268C542.373 700.608 545.964 706.209 547.902 711.806C548.344 713.085 548.957 714.971 548.042 716.157C546.724 717.865 543.652 718.823 541.673 719.363C535.901 720.939 529.496 721.444 523.582 722.397L489.057 728.14C478.326 730.238 467.447 731.854 456.764 734.149C448.363 735.954 439.888 738.984 431.277 739.415C428.58 739.55 426.672 739.055 424.2 737.996C414.616 725.703 407.602 683.432 404.915 667.041C404 661.466 402.592 655.519 402.621 649.877C402.628 648.486 402.742 646.79 403.796 645.784C407.551 642.204 422.298 642.556 427.497 642.709C427.412 640.041 426.825 635.997 428.213 633.642C429.944 630.707 438.831 631.986 441.918 631.82C444.523 631.679 447.165 631.283 449.726 630.795C457.496 629.316 464.858 626.157 472.644 624.642C472.054 622.936 471.429 621.211 471.01 619.454C470.023 615.317 470.261 610.319 472.583 606.646C474.732 603.244 477.728 601.891 481.524 601.05Z" fill="#231F20"/>
<path d="M497.852 628.564L499.239 628.467C500.09 629.331 500.084 629.693 500.363 630.894C499.953 632.212 499.781 632.387 498.756 633.325C497.292 633.712 496.133 633.411 494.691 633.123C493.05 632.486 491.48 631.511 489.932 630.67L497.852 628.564Z" fill="#FEFEFE"/>
<path d="M483.675 610.338C483.928 610.369 484.181 610.398 484.434 610.432C489.882 611.183 492.034 614.511 495.129 618.628L489.635 620.293C487.131 621.038 484.703 621.421 482.125 621.758C480.952 619.582 479.296 616.473 480.132 613.935C480.814 611.867 481.831 611.201 483.675 610.338Z" fill="#FEFEFE"/>
<path d="M425.048 649.261L429.705 649.641C431.513 655.394 449.714 708.514 449.713 709.014C449.712 709.321 449.635 709.622 449.596 709.927C450.271 710.382 450.073 710.158 450.244 710.947C444.002 702.853 437.37 677.502 434.071 666.628C432.977 663.181 431.036 656.946 427.565 655.283C426.257 654.656 424.736 655.445 423.481 655.9C422.287 656.333 420.668 653.922 419.152 653.484C418.43 653.872 418.187 653.867 417.775 654.624C414.214 661.168 417.61 685.352 419.72 692.573C419.994 693.51 420.052 693.683 419.99 694.714C418.695 691.395 418.188 687.868 417.363 684.413C414.667 673.12 411.944 661.671 411.304 650.043C415.954 650.05 420.42 649.782 425.048 649.261Z" fill="#FEFEFE"/>
<path d="M526.617 619.563C528.457 620.319 531.462 630.395 532.492 632.736C534.535 637.381 537.111 641.846 539.374 646.39C542.184 652.036 544.809 657.851 547.917 663.339C551.006 668.795 555.152 673.762 557.601 679.546C540.652 684.028 524.716 691.521 507.929 696.202C500.155 698.37 492.023 699.15 484.075 700.467C483.498 698.085 482.748 695.655 481.776 693.402C480.084 689.477 477.714 685.946 475.799 682.14C471.82 674.233 457.899 642.754 452.833 639.016C451.345 638.71 451.272 638.746 449.884 639.377C448.996 640.696 448.825 641.699 448.91 643.256C449.016 645.186 449.589 647.13 450.311 648.915C455.246 661.127 463.098 674.782 469.228 686.606C471.732 691.437 473.42 696.702 476.037 701.472C476.946 703.129 478.017 704.631 479.478 705.85C484.191 709.781 490.535 708.472 496.119 707.907C507.991 708.131 521.871 701.763 532.822 697.488C533.935 702.246 535.782 706.511 537.906 710.893C530.835 712.493 523.612 713.341 516.469 714.564C499.46 717.477 482.246 720.343 465.393 724.004C463.964 720.181 462.87 716.238 461.426 712.42C458.465 704.588 455.048 696.928 452.105 689.087C448.65 679.885 445.722 670.46 442.676 661.114C440.359 654.005 437.736 646.873 435.953 639.612C441.526 638.577 447.287 638.576 452.887 637.583C460.245 636.278 467.553 633.426 474.64 631.065C479.53 635.509 484.83 639.19 490.993 641.67C495.009 643.286 499.467 644.502 503.61 642.612C506.392 641.342 508.416 638.758 509.38 635.897C510.78 631.741 509.993 628.369 508.112 624.545C514.359 623.062 520.474 621.427 526.617 619.563Z" fill="#E45752"/>
<path d="M514.805 646.369C516.131 646.516 517.324 647.09 518.119 648.211C518.926 649.349 518.646 650.535 518.201 651.745C516.902 655.278 513.687 659.642 510.207 661.23C507.969 661.087 506.312 661.302 504.16 661.956C503.939 662.023 503.72 662.095 503.5 662.164C501.121 660.774 498.803 659.675 496.244 658.662C495.166 658.124 493.528 657.377 492.692 656.481C491.864 655.594 491.265 654.288 491.434 653.045C491.451 652.923 491.475 652.803 491.507 652.684C491.539 652.565 491.578 652.449 491.624 652.335C491.671 652.221 491.724 652.11 491.784 652.003C491.843 651.896 491.909 651.792 491.982 651.693C492.055 651.594 492.133 651.499 492.218 651.41C492.302 651.32 492.391 651.236 492.486 651.157C492.581 651.079 492.68 651.007 492.783 650.94C492.887 650.874 492.994 650.814 493.105 650.761C496.555 649.091 504.823 652.972 508.528 654.134C510.188 650.526 511.328 648.584 514.805 646.369Z" fill="#231F20"/>
</g>
<defs>
<clipPath id="clip0_28_853">
<rect width="1024" height="1024" fill="white"/>
</clipPath>
</defs>
</svg>
