<svg width="1024" height="1024" viewBox="0 0 1024 1024" fill="none" xmlns="http://www.w3.org/2000/svg">
<g clip-path="url(#clip0_112_346)">
<rect width="1024" height="1024" fill="white"/>
<path d="M-105 -473H1129.31V1377.85C1128.31 1378.48 1127.33 1378.91 1126.16 1379.18C1118.7 1380.86 1087.28 1379.43 1077.69 1379.43L938.754 1379.44H366.813L54.6778 1379.43H-47.6189C-65.0272 1379.43 -82.6918 1380.11 -100.067 1379.31C-101.976 1379.23 -103.38 1378.88 -105 1377.85V-473Z" fill="#FEFEFE"/>
<path d="M330.522 211.934C344.651 210.072 358.656 214.926 369.894 223.325C398.385 244.619 408.422 285.837 417.115 318.44C426.216 352.571 432.533 385.994 437.824 420.909C441.407 420.209 445.052 419.831 448.671 419.374C447.319 414.554 446.271 409.748 445.779 404.756C443.45 381.125 452.623 364.573 467.028 346.934C460.578 338.502 429.609 299.755 429.374 292.483C429.17 286.171 469.484 248.336 475.977 242.503C478.913 239.867 482.31 236.278 486.146 235.128C494.194 232.714 520.907 232.152 531.271 231.29C551.787 229.583 578.399 224.818 598.34 225.942C598.758 226.421 598.969 226.6 599.261 227.127C604.983 237.385 589.513 308.773 586.157 323.824C585.174 328.229 583.978 333.796 581.381 337.576C572.567 350.4 525.22 386.319 511.761 394.887C496.632 388.295 485.825 371.854 475.94 359.184C469.391 365.502 464.793 374.936 462.355 383.603C460.211 391.233 458.042 406.736 462.51 413.807C463.552 415.46 464.965 416.291 466.856 416.707C472.996 418.058 480.851 416.996 487.212 416.99C495.919 416.981 504.757 417.56 513.343 419.059C526.067 421.279 535.033 425.184 542.525 435.874C541.777 468.515 552.124 501.171 555.927 533.547C567.108 494.2 573.846 431.351 593.087 397.513C607.487 372.191 626.965 361.587 644.134 340.703C654.234 328.418 660.69 314.101 666.119 299.282C663.995 297.601 661.148 295.691 659.899 293.239C655.25 284.114 666.079 256.234 669.309 246.033C670.803 241.314 672.542 237.749 677.188 235.413C690.446 228.75 713.544 233.777 726.777 238.357C735.799 241.48 750.197 245.891 754.329 255.421C758.566 265.192 749.736 295.139 745.249 304.89C742.467 310.935 739.293 313.534 733.061 315.732C723.779 355.727 736.842 376.04 749.088 411.938C758.737 404.014 790.736 378.395 801.368 376.558C811.919 374.735 889.374 378.177 896.94 383.402C900.524 389.471 909.143 451.612 910.956 464.234C911.308 466.672 912.693 472.842 911.11 474.858C904.12 483.759 817.485 528.975 803.498 534.749C800.923 535.811 797.485 537.172 794.745 536.417C779.982 532.35 748.08 501.186 737.205 502.496C731.776 508.208 722.826 554.375 717.708 566.634C732.127 566.215 769.645 563.29 781.131 570.339C785.34 572.921 787.888 577.52 788.823 582.313C789.703 586.828 788.618 590.848 787.483 595.197C784.859 605.248 781.06 615.049 777.962 624.974C770.305 650.063 762.413 675.079 754.285 700.021L737.097 755.184C732.495 770.413 726.942 797.977 718.019 810.791C711.641 819.951 703.476 825.508 692.536 827.487C677.39 830.228 660.991 828.996 645.62 829L578.722 829.244L441.141 829.673C419.796 829.732 398.1 830.756 376.795 829.997C374.154 829.903 371.911 829.722 369.666 828.151C362.225 846.05 339.47 866.465 334.599 884.603C333.558 888.478 333.441 892.523 335.608 896.059C338.045 900.034 343.026 904.021 347.634 904.958C355.673 906.592 365.795 905.557 374.019 905.547L428.474 905.439L544.715 905.382C564.092 905.374 583.611 905.867 602.973 905.265C605.363 905.191 606.985 905.028 609.046 903.733C618.452 909.619 680.924 901.126 696.299 906.08C699.527 907.12 702.051 910.247 703.505 913.198C704.562 915.342 704.726 917.776 703.896 920.025C702.695 923.28 699.795 925.735 696.745 927.21C690.555 930.208 682.26 930.28 675.811 928.015C676.88 930.532 678.887 932.818 680.399 935.099C687.766 946.218 691.265 959.502 688.481 972.729C687.319 978.238 683.346 986.165 678.654 989.29C688.874 992.357 711.965 981.102 727.259 983.272L727.314 983.937C721.145 990.765 670.647 1002.01 659.292 1004.68C649.802 1006.92 642.789 1005.46 633.732 1006.53C619.89 1008.18 596.179 1018.96 583.748 1011.24C585.998 1010.96 619.506 1000.05 621.611 998.78C621.296 998.736 620.973 998.722 620.665 998.65C616.793 997.651 613.564 993.196 611.356 990.086C608.024 993.066 602.883 994.006 598.65 995.149C582.032 999.619 526.388 1014.87 511.817 1013.65C509.831 1013.49 507.887 1012.33 506.19 1011.37C509.244 1010.87 512.814 1008.86 515.81 1007.79C524.192 1004.78 532.592 1001.69 541.223 999.474C556.823 995.481 593.382 988.986 606.004 983.402C604.652 981.767 604.114 979.351 603.479 977.37C599.307 964.273 602.682 951.175 609.847 939.727C612.181 935.999 615.002 932.767 617.016 928.823C617.133 928.596 617.243 928.366 617.355 928.138C616.384 928.686 615.542 929.153 614.436 929.385C605.143 931.317 573.639 929.975 561.771 930.091L469.009 930.805C454.991 930.808 440.601 931.39 426.622 930.572C424.968 930.476 423.753 930.039 422.326 929.2C423.737 932.689 426.029 935.874 427.78 939.216C433.561 950.242 436.888 962.111 432.913 974.361C431.302 979.323 426.955 989.348 422.102 991.85C432.631 994.657 468.628 979.554 487.122 981.666L487.754 982.65L486.537 981.536L487.403 983.04C478.106 989.55 416.495 1004.42 402.497 1006.04C392.701 1007.17 382.498 1005.2 372.864 1006.71C358.428 1008.95 346.015 1014.71 330.899 1013.03L330.098 1011.79C339.651 1005.04 353.912 1006.1 363.604 999.966C363.782 999.85 363.954 999.734 364.129 999.619C363.944 999.575 363.755 999.575 363.577 999.503C360.751 998.548 357.651 993.76 356.107 991.315C355.257 992.067 354.64 992.603 353.61 993.08C342.647 998.259 272.28 1016.01 262.562 1012.83C262.664 1012.42 263.007 1010.54 263.208 1010.34C264.661 1008.94 268.88 1007.76 270.825 1007.01C282.466 1002.57 345.977 987.38 349.872 984.429C350.03 984.299 350.177 984.169 350.329 984.053C350.135 983.793 349.919 983.561 349.749 983.286C341.953 970.754 347.294 953.39 353.643 941.625C355.627 937.947 358.463 934.755 359.906 930.81C359.969 930.638 360.024 930.464 360.083 930.29C354.008 931.838 346.11 930.486 340.255 928.398C328.548 924.223 316.615 913.745 311.36 902.425C297.541 872.657 331.367 849.496 340.287 824.494C340.373 824.254 340.448 824.011 340.527 823.769C336.331 817.382 330.446 793.346 327.488 784.48L291.359 675.6C284.966 656.362 279.382 635.915 271.32 617.34C271.421 626.917 270.614 634.177 266.844 643.115C264.074 649.684 200.07 760.009 197.324 762.552C196.655 763.171 196.078 763.423 195.226 763.24C182.384 760.485 101.235 710.255 87.888 700.684C84.5494 698.289 81.0415 695.696 78.7686 692.215C78.8944 689.643 79.8327 687.576 80.949 685.307C89.0259 668.871 99.4048 652.814 108.477 636.852C115.582 624.348 124.334 605.447 133.08 594.935C139.953 586.674 195.184 556.858 206.205 554.257C219.184 551.194 233.952 552.645 247.353 551.348C240.111 531.316 233.535 511.046 226.238 491.042L144.528 500.173C134.564 501.248 124.348 503.416 114.408 503.927C111.15 504.095 107.784 503.863 104.665 502.858C100.327 501.458 96.5028 498.443 94.5841 494.252C92.5873 489.889 92.6249 484.299 94.4467 479.851C95.9433 476.199 98.1093 473.824 101.811 472.396C110.491 469.046 209.256 458.277 222.397 458.147C226.734 458.103 231.231 458.753 235.203 460.567C240.64 463.051 244.869 467.764 247.959 472.777C256.688 486.939 264.548 516.041 270.581 532.619C278.762 527.707 286.727 525.177 295.85 522.756C287.494 498.988 282.725 472.972 277.355 448.346C265.558 394.256 247.225 294.605 278.679 246.279C291.126 227.154 308.62 216.659 330.522 211.934Z" fill="#1C1C1C"/>
<path d="M332.265 231.7C340.506 230.866 351.174 231.954 357.924 236.972C394.201 263.94 413.31 380.825 420.272 425.156C409.819 427.448 399.271 430.621 389.597 435.236C376.772 441.353 365.965 449.781 361.078 463.411C364.427 476.127 366.085 489.298 368.293 502.249C371.894 523.79 375.728 545.29 379.793 566.749L329.363 566.824C318.312 542.778 312.091 517.925 305.627 492.403C315.12 477.801 322.983 463.02 335.37 450.501C341.226 444.581 370.155 422.219 371.366 417.902C371.762 416.491 371.35 414.727 370.454 413.553C370.324 413.38 370.185 413.214 370.038 413.057C369.89 412.898 369.735 412.747 369.573 412.604C369.41 412.461 369.24 412.326 369.064 412.201C368.888 412.075 368.707 411.959 368.519 411.851C368.33 411.743 368.137 411.646 367.938 411.558C367.741 411.47 367.539 411.392 367.334 411.324C367.127 411.257 366.918 411.2 366.707 411.153C366.495 411.107 366.281 411.071 366.066 411.046C354.744 409.72 334.518 427.911 326.257 434.819C315.595 445.101 307.369 457.445 300.807 470.639C296.532 455.117 293.525 439.24 290.23 423.486C299.065 410.742 305.388 397.561 316.107 386.043C322.445 379.233 358.782 349.083 359.83 344.42C359.223 342.117 358.844 341.138 356.952 339.645C355.374 339.426 354.154 339.419 352.621 339.873C323.275 348.584 300.954 375.468 287.157 401.297C284.444 387.781 280.084 370.652 282.409 356.957C285.618 338.057 311.143 313.094 325.564 301.269C330.93 296.868 337.281 293.496 342.245 288.658C344.086 286.862 345.14 285.207 345.636 282.687C344.979 280.345 344.758 280.146 343.042 278.602C340.053 278.145 337.53 278.718 334.72 279.691C309.012 288.606 291.27 310.248 279.818 333.867C278.319 306.465 279.876 273.03 297.758 250.716C306.77 239.472 318.012 233.238 332.265 231.7Z" fill="#FEFEFE"/>
<path d="M243.98 565.293L245.514 565.556C245.225 568.362 241.388 572.314 239.597 574.562C229.245 587.557 233.272 580.093 223.55 581.641C219.101 582.349 215.15 584.445 212.483 588.113C210.326 591.082 209.294 594.653 209.989 598.289C210.859 602.846 214.221 606.828 218.011 609.375C222.197 612.187 227.708 613.729 232.717 612.62C235.672 611.966 238.134 610.386 239.695 607.776C242.702 602.746 241.889 596.305 240.331 590.975L240.003 589.871C245.017 585.516 248.433 581.862 251.251 575.826C251.703 574.854 252.011 574.353 252.93 573.716L254.266 574.565C256.629 579.886 257.04 628.127 255.501 634.599C254.641 638.208 252.737 641.842 250.915 645.043C245.399 654.733 239.031 664.025 233.198 673.543C223.819 689.092 214.544 704.702 205.373 720.373C202.408 725.423 194.942 741.836 190.656 744.468L188.861 743.794C174.771 734.686 159.545 726.772 145.032 718.324C128.692 708.813 111.792 697.285 94.0828 690.531C100.886 676.673 134.916 613.481 142.857 604.591C148.692 598.059 199.952 570.38 209.14 568.05C219.708 565.37 232.979 565.917 243.98 565.293Z" fill="#FEFEFE"/>
<path d="M190.868 608.172C192.577 608.233 194.815 608.095 196.461 608.557C198.754 609.201 199.253 610.259 200.271 612.174C200.502 615.715 198.789 619.003 197.474 622.206C199.493 624.488 201.85 627.199 203.129 629.979C204.666 633.32 204.743 636.897 203.366 640.279C201.833 641.493 201.435 642.129 199.299 642.002C195.07 641.753 192.033 637.09 189.503 634.139C186.481 639.55 183.379 644.914 180.197 650.23C184.071 654.27 187.115 658.535 189.03 663.841C191.474 670.607 192.093 678.707 188.711 685.283C179.868 702.465 164.122 690.44 155.585 692.572C151.319 693.638 150.559 698.694 146.116 700.048C143.313 700.148 141.756 699.319 139.374 697.92C139.105 692.742 141.782 689.661 144.553 685.569C140.372 682.058 135.868 678.086 134.452 672.558C133.366 668.315 133.814 662.429 136.386 658.694C137.89 656.506 139.262 656.197 141.644 655.722C149.145 658.92 145.852 668.348 151.578 672.901C156.132 671.904 161.981 658.569 165.105 653.974C162.937 651.382 160.623 648.748 158.902 645.828C155.671 640.342 154.034 633.097 155.847 626.856C157.218 622.138 160.016 618.309 164.394 615.998C172.01 611.977 179.96 614.137 187.639 616.615L190.868 608.172Z" fill="#1C1C1C"/>
<path d="M172.867 661.771C174.908 663.268 176.344 665.046 177.305 667.575C178.625 671.051 178.665 674.664 177.304 678.119C175.735 682.099 173.201 683.338 169.754 684.742C167.049 683.231 165.639 683.058 164.527 679.826C165.286 673.207 169.659 667.308 172.867 661.771Z" fill="#FEFEFE"/>
<path d="M169.482 626.777C172.233 626.672 175.637 626.273 178.305 626.866C180.292 627.306 180.447 627.742 181.373 629.204C180.78 632.687 177.929 635.679 175.764 638.568L174 640.331L171.869 640.198C169.888 638.529 168.892 636.985 168.119 634.646C167.046 631.396 167.658 629.681 169.482 626.777Z" fill="#FEFEFE"/>
<path d="M605.394 410.62C647.425 429.243 688.468 439.336 734.21 443.104C727.148 478.971 715.727 514.119 706.868 549.585C669.397 552.333 608.281 540.581 578.007 516.802C579.241 505.126 582.929 493.165 585.545 481.714C591.031 457.687 595.214 433.163 605.394 410.62Z" fill="#EE9440"/>
<path d="M805.216 390.713C830.433 393.957 856.364 395.84 881.769 396.827C886.8 420.751 889.351 445.454 893.476 469.581C868.163 483.39 842.345 496.366 817.319 510.689C810.221 514.857 802.427 519.53 794.734 522.414C777.145 510.897 758.94 495.997 738.804 489.647C745.558 468.907 749.394 448.88 750.901 427.187C769.103 415.233 786.606 402.009 805.216 390.713Z" fill="#FEFEFE"/>
<path d="M808.962 416.881C809.928 416.806 810.892 416.741 811.862 416.747C817.544 416.786 823.315 419.32 827.29 423.247C835.346 431.205 836.989 443.866 836.8 454.539C836.627 464.33 835.217 479.873 827.123 486.896C824.269 489.371 821.918 488.728 818.508 488.384C817.924 487.836 817.38 487.316 816.878 486.695C812.706 481.53 820.318 466.246 821.26 458.309C817.911 458.013 814.508 457.751 811.189 457.21C806.471 456.441 801.261 452.747 798.603 448.899C795.52 444.438 794.799 438.981 796.048 433.788C797.68 427.011 802.966 420.454 808.962 416.881Z" fill="#1C1C1C"/>
<path d="M812.108 430.529C814.505 430.872 816.174 431.984 817.858 433.723C820.393 436.342 821.478 438.39 821.5 442.095C820.212 444.877 819.689 444.687 817.018 445.843C814.334 445.714 811.669 445.619 809.724 443.447C808.03 441.555 807.551 439.603 807.765 437.07C808.012 434.152 810.111 432.352 812.108 430.529Z" fill="#FEFEFE"/>
<path d="M776.216 438.539C781.141 437.889 785.147 437.903 789.403 440.625C799.032 446.784 802.001 460.808 803.616 470.906C805.199 480.828 805.878 493.829 798.791 502.199C797.222 504.05 795.134 505.363 792.571 505.54C788.996 505.788 786.836 504.356 784.3 502.201C784.649 494.352 790.708 490.424 790.416 476.704C785.103 478.175 779.829 479.469 774.315 478.123C773.686 477.972 773.067 477.792 772.46 477.581C771.851 477.369 771.255 477.128 770.673 476.858C770.092 476.589 769.527 476.291 768.978 475.966C768.43 475.639 767.901 475.288 767.391 474.911C766.882 474.533 766.395 474.131 765.931 473.705C765.466 473.281 765.027 472.833 764.612 472.364C764.197 471.895 763.81 471.407 763.45 470.901C763.09 470.394 762.758 469.871 762.456 469.332C759.757 464.451 759.641 458.567 761.493 453.414C764.089 446.194 769.164 441.896 776.216 438.539Z" fill="#1C1C1C"/>
<path d="M778.524 448.905C778.759 448.91 778.993 448.902 779.228 448.917C781.109 449.042 782.213 449.434 783.447 451.067C785.798 454.176 786.624 457.388 786.149 461.444C785.82 464.249 783.661 465.597 781.886 467.274C780.072 467.338 778.069 467.043 776.528 465.867C775.192 464.848 774.347 463.356 774.12 461.553C773.502 456.66 776.056 452.565 778.524 448.905Z" fill="#FEFEFE"/>
<path d="M856.408 432.073C857.111 432.061 857.822 432.048 858.525 432.086C861.147 432.228 863.318 432.969 864.934 435.095C866.511 437.169 866.798 438.337 866.556 440.836C864.32 443.534 860.071 443.427 857.002 445.01C854.918 446.084 853.015 448.233 852.561 450.56C852.197 452.424 852.768 454.581 854.156 455.941C860.136 461.796 863.116 452.035 869.117 451.629C871.445 453.089 872.135 454.105 873.171 456.67C874.25 459.34 872.894 461.966 871.873 464.435C869.796 466.467 867.707 468.629 865.099 469.99C861.427 471.906 857.091 472.479 853.122 471.169C848.821 469.751 845.41 466.252 843.498 462.26C843.192 461.619 842.918 460.965 842.676 460.298C842.435 459.63 842.228 458.953 842.054 458.265C841.881 457.577 841.742 456.882 841.638 456.181C841.534 455.48 841.465 454.776 841.432 454.067C841.398 453.36 841.4 452.652 841.438 451.943C841.475 451.236 841.548 450.532 841.656 449.831C841.764 449.13 841.907 448.436 842.085 447.749C842.262 447.062 842.473 446.386 842.719 445.72C845.224 438.845 849.935 435.16 856.408 432.073Z" fill="#1C1C1C"/>
<path d="M575.033 244.212C578.303 243.84 581.458 243.696 584.747 243.698C585.042 244.131 585.497 244.491 585.632 244.997C586.319 247.575 575.611 306.911 574.441 313.283C573.407 318.904 572.242 325.268 569.099 330.161C560.765 343.136 523.346 370.481 509.471 379.993C500.073 371.611 492.412 360.663 485.278 350.398C474.58 333.492 451.895 312.319 444.774 295.386L492.185 250.698C519.559 250.967 547.766 246.502 575.033 244.212Z" fill="#FEFEFE"/>
<path d="M488.225 285.045C490.121 285.694 491.798 287.191 493.8 287.522C496.874 288.035 499.636 285.227 503.174 285.984C505.559 286.492 506.252 286.94 507.578 288.936C507.216 292.293 503.923 295.184 502.338 298.191C503.107 302.301 506.13 305.861 508.457 309.244C514.087 308.681 519.578 307.745 524.947 310.12C537.696 315.759 529.26 329.45 530.077 336.71C530.198 337.784 531.216 339.56 531.641 340.622C531.135 343.043 530.704 343.175 528.952 344.78C525.332 345.419 524.188 343.633 520.82 343.299C520.593 343.277 520.364 343.294 520.135 343.291C518.211 344.467 516.181 345.818 514.067 346.611C510.703 347.872 505.201 348.539 501.939 346.689C499.595 345.359 499.297 344.116 498.484 341.714C500.072 333.057 505.385 338.948 510.133 334.881C509.693 331.636 505.599 327.023 503.671 324.252C496.473 323.327 487.604 322.143 482.801 315.928C475.835 306.914 483.925 300.458 484.864 292.033C485.232 288.734 486.145 287.458 488.225 285.045Z" fill="#1C1C1C"/>
<path d="M515.294 318.736C516.18 318.757 517.153 318.731 518.02 319.005C519.803 319.565 520.347 320.332 521.328 322.415C521.469 325.365 520.71 326.985 519.709 329.456C518.539 328.528 517.522 327.007 516.685 325.532C515.385 323.241 515.048 321.545 515.294 318.736Z" fill="#FEFEFE"/>
<path d="M529.28 256C538.023 255.417 544.536 259.822 551.572 264.513C553.997 269.145 555.775 274.209 554.73 279.513C553.419 286.158 548.558 289.951 543.317 293.424C540.68 294.026 538.279 294.392 535.573 294.166C528.413 293.565 524.484 289.664 520.06 284.461C519.029 278.933 517.376 272.822 518.896 267.253C520.417 261.678 524.666 258.764 529.28 256Z" fill="#1C1C1C"/>
<path d="M530.966 269.732C532.559 269.835 534.13 270.101 535.677 270.53C538.628 271.369 539.749 272.616 541.234 275.288C541.413 278.165 540.285 279.678 538.89 281.983C537.217 281.962 535.182 281.985 533.581 281.485C531.182 280.739 530.388 279.39 529.105 277.287C528.705 274.074 529.494 272.471 530.966 269.732Z" fill="#FEFEFE"/>
<path d="M531.588 493.316C535.356 496.21 544.483 558.329 545.847 567.359C496.31 569.224 446.262 567.893 396.657 567.919C393.486 550.502 390.127 533.119 386.581 515.773C392.441 516.941 398.339 517.864 404.275 518.54C441.235 522.655 501.748 516.976 531.588 493.316Z" fill="#FEFEFE"/>
<path d="M680.315 308.017C692.236 310.688 704.334 312.584 716.372 314.644C704.611 363.966 721.954 382.225 734.21 427.466C715.871 425.687 697.98 423.377 679.872 419.945C656.339 414.805 633.987 407.727 611.698 398.69C629.475 376.521 654.291 361.148 668.323 335.997C673.214 327.23 676.416 317.271 680.315 308.017Z" fill="#FEFEFE"/>
<path d="M543.107 586.833C581.796 586.621 620.485 586.742 659.171 587.196L645.543 640.174L643.338 649.313C609.312 649.196 575.285 649.265 541.259 649.52C541.161 628.635 542.366 607.705 543.107 586.833Z" fill="#FEFEFE"/>
<path d="M540.739 661.806L639.263 661.771C634.638 682.227 629.439 702.542 624.901 723.027L622.714 733.278C595.049 731.579 565.921 732.906 538.19 733.747L540.739 661.806Z" fill="#FEFEFE"/>
<path d="M651.286 661.771C682.479 662.208 713.73 661.839 744.929 661.856C739.037 684.632 730.884 706.88 724.341 729.497C724.137 729.799 723.975 730.132 723.731 730.405C721.377 733.019 643.803 732.06 634.668 731.969L651.286 661.771Z" fill="#FEFEFE"/>
<path d="M670.009 586.909C703.151 587.268 736.292 587.209 769.433 586.732L750.415 646.214L749.633 647.763C744.812 650.828 666.422 648.96 654.577 648.914C659.499 628.193 665.241 607.66 670.009 586.909Z" fill="#FEFEFE"/>
<path d="M633.482 747.583L720.428 747.53C715.755 760.708 712.071 774.175 707.676 787.436C706.334 791.483 704.404 799.748 700.424 801.738C698.327 804.589 695.819 805.806 692.456 806.734C684.514 808.923 625.206 809.947 619.355 806.785C622.212 802.125 630.948 757.347 633.482 747.583Z" fill="#FEFEFE"/>
<path d="M538.816 747.595L619.355 747.53C615.541 764.747 612.25 782.291 607.567 799.277C607.092 802.586 606.466 805.664 605.53 808.876C598.976 810.736 541.225 810.958 536.659 808.581C537.357 788.26 537.677 767.895 538.816 747.595Z" fill="#FEFEFE"/>
<path d="M368.204 586.876L445.174 586.732C448.051 607.473 448.28 628.58 450.9 649.377L382.205 649.52C377.165 628.741 372.18 607.876 368.204 586.876Z" fill="#FEFEFE"/>
<path d="M457.026 587.003C481.436 587.242 506.201 585.962 530.533 587.512C530.237 608.088 529.11 628.729 528.398 649.302C506.556 649.543 484.714 649.584 462.872 649.424C459.721 629.093 458.825 607.55 457.026 587.003Z" fill="#FEFEFE"/>
<path d="M385.049 662.1C406.64 661.453 428.357 661.954 449.962 661.975C452.459 685.786 454.814 709.612 457.025 733.453C438.516 733.192 419.698 732.75 401.22 733.747C394.374 710.618 390.039 685.758 385.049 662.1Z" fill="#FEFEFE"/>
<path d="M287.802 587.27C310.027 586.194 332.606 587.078 354.878 586.994C356.791 595.328 369.986 646.371 368.002 649.593L365.167 649.922C345.821 650.115 325.721 648.537 306.511 651.051C302.916 641.748 284.76 594.431 285.532 588.07L287.802 587.27Z" fill="#FEFEFE"/>
<path d="M464.683 661.771L527.47 661.825L524.93 733.655C507.144 733.918 489.341 733.508 471.548 733.734C469.387 709.763 466.202 685.778 464.683 661.771Z" fill="#FEFEFE"/>
<path d="M310.011 662.153C330.119 661.429 350.386 661.954 370.512 661.962C375.443 685.689 380.12 709.932 386.581 733.26C368.935 734.159 350.988 733.531 333.307 733.564C326.727 709.453 316.995 686.18 310.011 662.153Z" fill="#FEFEFE"/>
<path d="M462.15 434.339C474.136 432.859 510.125 433.443 520.385 437.291C523.817 438.578 525.945 439.792 527.47 443.112C527.307 444.615 526.946 445.486 525.965 446.685C514.243 461.015 462.409 469.464 443.689 471.834C429.78 473.077 415.967 474.217 402.033 472.633C395.707 471.914 384.914 470.991 380.662 465.758C380.303 463.445 380.272 462.596 381.738 460.639C393.652 444.744 443.102 436.084 462.15 434.339Z" fill="#FEFEFE"/>
<path d="M475.487 443.122C481.005 442.767 495.66 441.995 499.905 445.247L499.301 446.862C488.366 455.084 461.626 455.864 447.803 458.335C439.247 459.866 430.744 461.915 422.265 463.869C417.602 464.885 412.938 466.093 408.257 466.968C405.77 467.432 403.98 467.579 401.895 465.996C402.187 464.615 402.232 463.969 403.12 462.908C412.878 451.243 460.224 443.863 475.487 443.122Z" fill="#1C1C1C"/>
<path d="M403.426 747.794C421.915 747.3 440.503 747.655 459.003 747.629C460.548 756.538 466.131 802.307 464.328 808.193C464.161 808.291 464.002 808.402 463.83 808.487C459.032 810.887 423.361 810.89 417.384 808.711C414.184 802.856 404.814 756.862 403.426 747.794Z" fill="#FEFEFE"/>
<path d="M472.34 747.635C490.197 747.414 508.079 747.61 525.939 747.606C525.875 767.36 525.091 787.376 524.034 807.105L522.744 808.911C517.176 811.01 484.003 810.66 477.873 808.524C475.852 788.244 474.008 767.947 472.34 747.635Z" fill="#FEFEFE"/>
<path d="M339.107 747.819C356.09 747.278 373.194 747.665 390.189 747.646C395.064 767.769 399.721 788.099 403.426 808.47C403.208 808.587 402.997 808.721 402.77 808.819C397.534 811.1 363.587 810.588 358.936 808.55C355.951 803.221 340.226 754.807 339.107 747.819Z" fill="#FEFEFE"/>
<path d="M526.073 464.22C528.282 467.106 528.472 477.123 529.001 481.055C523.94 485.079 518.762 488.486 513.046 491.464C479.897 508.734 421.769 516.122 386.148 504.628C384.415 498.779 383.225 492.824 381.987 486.854C388.674 489.07 395.042 490.763 402.066 491.611C437.104 495.837 497.97 486.765 526.073 464.22Z" fill="#FEFEFE"/>
<path d="M573.158 530.07C578.915 532.089 584.275 536.548 589.701 539.415C596.297 542.9 604.109 545.469 611.223 547.8C633.298 555.038 655.446 558.32 678.521 560.595C684.973 561.231 692.589 560.43 698.75 561.547C700.724 561.905 700.909 561.849 702.05 563.445C701.891 563.967 701.869 564.166 701.497 564.664C699.741 567.018 698.221 566.718 695.503 566.824L562.693 566.808C566.243 554.54 570.075 542.479 573.158 530.07Z" fill="#FEFEFE"/>
<path d="M684.443 251.382C703.722 250.943 719.557 255.928 737.273 262.719C736.505 272.478 734.547 284.51 730.169 293.362C728.669 296.397 727.374 297.76 724.198 298.829L722.982 297.792C722.063 290.492 726.116 281.971 726.692 274.471C726.921 271.506 726.691 270.209 724.704 268.003L722.557 267.91C717.384 272.418 717.287 279.964 716.193 286.197C715.61 289.521 714.589 293.695 711.299 295.535C708.37 297.174 705.014 295.825 701.918 295.246C703.872 285.911 709.173 274.694 705.978 265.144C699.99 265.536 696.693 287.823 692.586 292.245C688.174 290.087 696.627 269.478 692.516 263.781C685.289 262.869 685.379 284.465 678.384 288.449L676.751 287.903C673.429 281.762 682.331 258.993 684.443 251.382Z" fill="#FEFEFE"/>
<path d="M389.438 945.081C394.962 947.261 400.411 947.116 403.813 952.655C406.836 957.578 407.128 964.305 405.538 969.75C404.509 973.274 402.473 976.839 399.046 978.534C396.325 979.878 393.572 980.258 390.709 979.294C389.54 979.849 388.388 980.331 387.064 980.302C383.294 980.244 379.489 978.242 377.134 975.364C373.77 971.277 372.159 965.577 373.033 960.352C374.492 951.641 383.003 949.346 389.438 945.081Z" fill="#FEFEFE"/>
<path d="M641.449 945.081C647.337 945.619 652.394 945.893 656.91 950.266C660.438 953.682 662.328 958.055 662.23 963.001C662.136 967.675 660.172 972.632 656.748 975.857C654.234 978.23 652.038 978.879 648.761 978.672C646.387 980.338 645.118 980.544 642.188 980.102C637.902 979.468 634.106 977.449 631.546 973.872C628.884 970.154 628.077 965.768 628.788 961.293C630.052 953.334 635.218 949.426 641.449 945.081Z" fill="#FEFEFE"/>
<path d="M297.173 539.26C297.842 539.262 297.483 539.207 298.343 539.594C300.55 540.586 308.52 564.445 310.011 568.355C303.102 567.715 296.102 567.841 289.167 567.775L284.24 567.621C281.804 566.304 280.592 563.802 279.303 561.484C277.744 558.683 275.421 553.556 276.68 550.45C279.176 544.299 291.343 541.291 297.173 539.26Z" fill="#FEFEFE"/>
<path d="M65.2984 223.789C75.3256 224.553 167.213 283.581 180.105 293.326C183.805 296.123 191.371 301.468 192.093 306.258C190.424 309.005 187.323 309.865 184.529 311.079C167.662 307.947 69.5732 253.429 59.0704 239.881C58.8989 239.659 58.7389 239.429 58.5904 239.19C58.442 238.951 58.3057 238.705 58.1813 238.451C58.058 238.198 57.9471 237.939 57.8488 237.673C57.7515 237.409 57.6676 237.139 57.5973 236.865C57.526 236.591 57.4691 236.314 57.4267 236.034C57.3843 235.754 57.3554 235.473 57.3399 235.189C57.3255 234.906 57.3255 234.622 57.3399 234.339C57.3534 234.056 57.3814 233.775 57.4238 233.494C58.1134 229.193 62.1425 226.215 65.2984 223.789Z" fill="#EE9440"/>
<path d="M936.967 222.441C938.964 222.209 941.37 222.118 943.31 222.656C945.968 223.396 948.134 225.208 949.254 227.734C950.281 230.052 950.538 233.267 949.35 235.576C943.318 247.288 849.299 296.851 833.91 302.369C830.741 303.404 825.957 304.018 822.889 302.556C821.758 300.918 821.187 300.125 821.675 298.078C822.727 293.669 827.669 288.697 831.1 285.92C841.371 277.603 853.64 271.22 864.898 264.375C888.681 249.912 912.495 235.737 936.967 222.441Z" fill="#EE9440"/>
<path d="M19.3347 378.489C39.6039 377.705 117.621 394.09 138.437 401.187C142.485 402.569 150.179 405.133 151.96 409.367C152.572 410.825 152.191 410.94 151.681 412.323C149.377 414.149 147.377 414.628 144.51 415.191C125.319 415.845 28.7786 403.43 15.2645 393.668C12.5468 391.706 11.9814 390.391 11.3862 387.324C12.5767 383.02 15.7232 380.813 19.3347 378.489Z" fill="#EE9440"/>
<path d="M826.003 116.93C826.619 116.804 826.809 116.754 827.492 116.674C830.996 116.262 835.719 117.402 838.441 119.614C839.73 121.794 840.157 123.525 839.698 126.054C838.879 130.568 836.401 134.799 833.659 138.424C822.313 153.419 772.744 201.066 756.908 212.062C755.948 212.542 754.982 213.011 753.985 213.417C751.495 214.431 748.257 215.132 745.723 214.074C744.773 212.015 744.752 211.078 745.261 208.822C746.266 204.365 749.699 199.617 752.394 196.027C761.843 183.447 814.248 124.554 826.003 116.93Z" fill="#EE9440"/>
<path d="M506.283 52.435C508.949 52.2953 511.98 51.9668 514.505 52.9998C516.395 53.7734 518.109 55.5612 518.669 57.5421C522.439 70.8623 516.179 164.33 510.256 175.447C508.636 175.885 506.944 176.379 505.251 176.31C503.427 176.237 501.747 175.836 500.537 174.409C493.954 166.646 497.854 85.3408 499.44 69.7228C500.157 62.6665 500.541 57.1517 506.283 52.435Z" fill="#EE9440"/>
<path d="M181.623 128.856C182.999 128.833 184.396 128.816 185.764 128.984C198.369 130.531 252.99 192.393 261.35 203.933C264.124 207.763 266.227 211.04 265.429 215.95C263.956 218.487 261.638 219.405 259.133 220.726C245.052 217.062 195.54 164.504 182.747 150.686C179.814 147.518 174.793 142.797 175.28 138.084C175.692 134.113 178.851 131.362 181.623 128.856Z" fill="#EE9440"/>
<path d="M329.87 73.7119C333.656 73.9427 337.931 74.8325 340.681 77.6131C347.059 84.0685 380.262 170.139 380.456 179.686C379.671 182.93 377.155 184.857 374.799 187.036C371.587 186.802 369.611 185.8 367.425 183.425C358.905 174.16 323.327 92.1002 323.798 81.2086C324.924 77.916 327.366 75.9805 329.87 73.7119Z" fill="#EE9440"/>
<path d="M664.282 75.2427C667.47 75.4596 670.195 75.7276 672.774 77.8025C674.754 79.394 675.866 81.7878 676.005 84.2982C676.692 96.6896 645.95 160.358 638.415 173.195C636.239 176.905 633.736 179.971 630.746 183.055C629.307 183.502 627.755 184.085 626.23 183.954C624.545 183.808 623.303 183.243 622.322 181.836C620.294 178.932 620.841 174.316 621.399 170.997C623.657 157.528 650.674 93.6449 658.365 81.0714C659.895 78.5699 661.927 76.923 664.282 75.2427Z" fill="#EE9440"/>
<path d="M840.933 634.214C843.806 634.157 846.485 634.393 849.224 635.254C862.791 639.514 928.673 668.691 937.207 676.584C938.713 677.978 939.491 679.755 939.413 681.785C939.268 685.558 936.405 688.094 933.784 690.483C933.59 690.546 933.4 690.622 933.202 690.673C921.838 693.608 867.352 662.563 853.983 655.047C848.095 651.736 838.643 647.319 836.814 640.656C837.383 637.674 838.881 636.329 840.933 634.214Z" fill="#EE9440"/>
<path d="M117.64 539.363C120.945 539.169 124.65 539.223 127.917 539.71C130.513 540.096 134.987 541.857 136.462 544.098C137.278 545.335 136.899 545.688 136.68 547.062C126.936 557.801 68.8198 564.054 52.6908 565.993C47.2917 566.483 38.4478 568.18 33.8481 564.59C31.6706 562.89 29.9293 560.557 29.7679 557.778C29.6841 556.337 30.729 554.678 31.7343 553.69C41.0843 544.504 101.768 539.995 117.64 539.363Z" fill="#EE9440"/>
<path d="M795.627 741.404C796.474 741.566 797.318 741.734 798.157 741.943C810.788 745.093 869.415 791.214 875.345 801.866C876.89 804.642 876.903 806.906 876.117 809.899C874.416 811.674 873.897 812.486 871.491 813.216C870.627 813.953 869.74 814.382 868.739 814.911C865.012 814.612 861.914 812.676 858.892 810.643C849.861 804.567 842.019 796.564 833.628 789.646C820.94 779.184 807.259 769.428 795.635 757.789C793.125 755.275 790.675 753.071 790.884 749.257C791.075 745.789 793.293 743.672 795.627 741.404Z" fill="#EE9440"/>
<path d="M893.848 525.929C903.402 525.073 913.152 525.542 922.681 526.42C935.752 527.623 988.431 530.882 994.927 540.331C995.916 541.77 996.34 543.214 995.916 544.939C995.043 548.492 992.226 551.136 989.298 552.976C974.965 553.959 900.041 543.746 890.84 535.528C888.986 533.872 888.929 533.016 888.881 530.604C890.195 528.278 891.642 527.341 893.848 525.929Z" fill="#EE9440"/>
<path d="M245.165 762.844C248.195 762.977 251.262 762.986 253.763 764.996C255.255 766.197 256.265 767.884 256.39 769.833C256.843 776.874 249.939 784.017 245.503 788.647C238.28 796.187 201.428 834.239 194.43 834.33C193.21 835.549 192.562 835.955 190.891 836.352C188.634 835.559 186.571 834.762 184.84 833.025C183.45 831.631 182.817 829.933 182.914 827.952C183.132 823.491 186.205 819.036 188.917 815.71C195.15 808.06 203.477 801.607 210.665 794.856C222.152 784.066 233.136 773.074 245.165 762.844Z" fill="#EE9440"/>
<path d="M990.734 368.029C993.581 367.549 996.645 367.547 999.201 368.995C1001.43 370.259 1003.25 372.857 1003.66 375.256C1003.96 377.049 1003.39 378.493 1002.21 379.911C995.578 387.888 957.98 390.881 946.273 392.104C945.016 392.231 943.787 392.262 942.524 392.235C939.24 392.167 935.916 391.58 933.572 389.306C933.118 387.018 933.068 385.768 934.599 383.83C943.5 372.568 976.339 370.206 990.734 368.029Z" fill="#EE9440"/>
<path d="M537.741 983.367C540.247 984.042 542.447 983.803 544.88 985.012C545.647 985.392 545.596 986.053 545.847 986.812C541.437 990.876 532.898 992.662 527.034 994.209C514.762 997.429 440.948 1017.29 432.492 1012.56L429.671 1013.99C427.398 1013.95 426.879 1014.01 424.866 1012.83C428.532 1008.27 501.248 991.481 510.431 989.442C517.593 987.867 532.114 986.714 537.741 983.367Z" fill="#1C1C1C"/>
<path d="M767.535 986.429C772.979 988.206 779.004 986.051 784.424 988.486L784.746 989.927C784.041 990.501 783.818 990.739 783.083 991.186C777.368 994.671 711.588 1011.2 706.581 1009.88C705.915 1010.45 705.478 1010.83 704.645 1011.17C700.982 1012.6 694.822 1013.11 691.33 1011.31L691.445 1009.81C700.435 1001.72 737.982 994.503 751.141 991.27C756.277 990.011 763.054 989.185 767.535 986.429Z" fill="#1C1C1C"/>
<path d="M302.603 981.834C304.955 982.48 307.593 982.69 310.01 983.181L309.935 984.009C309.221 984.528 308.502 984.991 307.735 985.426C298.446 990.799 223.849 1009.86 215.567 1007.93C215.24 1008.15 214.936 1008.42 214.588 1008.62C212.713 1009.71 211.219 1009.46 209.182 1009.06L208.938 1007.91C213.428 1000.07 271.045 988.793 282.891 986.338C288.668 985.131 297.595 984.724 302.603 981.834Z" fill="#1C1C1C"/>
<path d="M244.126 980.303C245.661 980.834 246.227 981.218 247.223 982.517L245.955 983.977C234.673 988.345 180.692 1003.84 171.633 1000.99C170.366 1001.57 169.343 1001.62 167.983 1001.74L167.59 1000.92C180.253 991.945 211.224 987.607 226.991 984.523C232.355 983.476 239.338 982.974 244.126 980.303Z" fill="#1C1C1C"/>
<path d="M793.378 998.681C796.499 1000.16 803.344 999.543 807.093 999.822L807.717 1000.53C807.196 1001.03 806.778 1001.42 806.109 1001.76C799.11 1005.26 769.319 1011.76 762.243 1010.18C761.777 1010.41 761.3 1010.63 760.813 1010.84C760.326 1011.04 759.83 1011.23 759.326 1011.4C758.821 1011.56 758.31 1011.7 757.791 1011.83C757.273 1011.95 756.75 1012.06 756.222 1012.16C755.692 1012.25 755.16 1012.32 754.625 1012.36C754.09 1012.41 753.553 1012.44 753.016 1012.46C752.478 1012.47 751.94 1012.46 751.403 1012.43C750.865 1012.4 750.33 1012.35 749.798 1012.28L749.524 1011.41C761.251 1001.58 782.956 1003.8 793.378 998.681Z" fill="#1C1C1C"/>
</g>
<defs>
<clipPath id="clip0_112_346">
<rect width="1024" height="1024" fill="white"/>
</clipPath>
</defs>
</svg>
