<svg width="1024" height="1024" viewBox="0 0 1024 1024" fill="none" xmlns="http://www.w3.org/2000/svg">
<g clip-path="url(#clip0_124_42)">
<rect width="1024" height="1024" fill="white"/>
<path d="M117 15H907V1082.79C906.36 1083.15 905.727 1083.4 904.986 1083.55C900.211 1084.53 880.099 1083.7 873.957 1083.7L785.036 1083.7H418.975H219.199L153.726 1083.7C142.584 1083.7 131.278 1084.09 120.157 1083.64C118.935 1083.59 118.037 1083.38 117 1082.79V15Z" fill="#FEFEFE"/>
<path d="M603.152 396.854C603.539 396.82 603.926 396.792 604.314 396.77C619.045 395.872 636.111 399.968 647.13 408.897C654.637 414.981 658.65 422.988 659.088 432.038C660.146 453.902 644.435 473.205 628.752 488.452C637.624 488.254 647.2 488.229 655.926 486.809C660.704 486.03 667.029 482.571 671.753 483.113C674.188 483.393 676.636 484.801 678.077 486.569C682.467 491.952 687.528 515.127 689.603 522.88C699.475 559.763 705.369 598.022 701.523 635.963C695.985 690.591 677.742 738.154 687.594 793.985C688.102 796.928 688.681 799.859 689.329 802.778C689.978 805.702 690.696 808.61 691.485 811.502C692.273 814.394 693.131 817.269 694.058 820.128C694.985 822.987 695.981 825.828 697.044 828.65C698.108 831.472 699.239 834.271 700.437 837.047C701.635 839.823 702.899 842.576 704.23 845.305C705.561 848.035 706.956 850.736 708.417 853.41C709.877 856.084 711.402 858.728 712.989 861.341C716.978 867.827 721.661 874.076 726.06 880.346C730.467 886.623 739.298 894.755 741.674 901.498C742 902.429 742.005 903.159 741.82 904.105C741.771 904.355 741.709 904.603 741.632 904.848C741.555 905.094 741.465 905.335 741.36 905.571C741.256 905.808 741.139 906.039 741.009 906.266C740.879 906.493 740.736 906.714 740.581 906.927C740.426 907.14 740.259 907.344 740.08 907.538C739.902 907.738 739.713 907.928 739.513 908.108C739.313 908.289 739.104 908.461 738.885 908.623C738.665 908.785 738.438 908.936 738.202 909.075C737.871 909.297 737.758 909.394 737.419 909.561C733.214 911.674 702.639 915.699 694.638 917.221L428.736 966.463C417.927 968.458 366.689 978.76 359.928 977.161C359.79 977.133 359.654 977.091 359.516 977.056C359.003 977.077 358.939 977.112 358.366 976.966C354.485 975.965 350.285 970.369 347.828 967.631C333.917 952.095 322.788 936.671 313.5 918.521C306.191 904.237 301.045 889.32 296.937 874.069C288.467 842.615 288.266 811.509 293.712 779.631C295.81 767.355 299.136 755.135 302.064 742.999C310.797 706.804 320.39 669.84 319.847 632.57C319.707 625.358 319.34 618.155 318.748 610.961C318.155 603.768 317.337 596.595 316.294 589.442C315.251 582.29 313.985 575.17 312.496 568.082C311.006 560.994 309.295 553.949 307.364 546.948C306.095 542.288 298.443 523.692 300.049 520.449C300.944 518.641 302.829 516.917 304.932 516.278C311.322 514.337 340.75 513.244 349.589 512.544C371.924 510.773 394.719 507.553 417.128 507.261C419.886 507.225 423.471 507.414 425.876 508.768C427.216 509.522 428.607 511.354 428.823 512.753C428.969 513.696 428.703 514.61 428.033 515.358C426.36 517.23 423.27 518.054 420.75 518.532C409.615 520.645 397.357 520.717 386.015 521.609L318.845 527.027C318.072 527.032 317.751 527.211 317.068 527.506C316.289 532.653 322.163 546.484 323.783 552.154C325.395 557.791 326.919 563.612 327.995 569.351C328.477 571.919 328.505 574.541 328.941 577.12C332.502 598.142 335.613 619.669 334.555 641.009C334.067 651.571 333.153 662.104 331.814 672.608C330.475 683.111 328.714 693.557 326.53 703.945C317.517 745.946 303.45 787.18 304.849 830.395C305.244 842.601 307.655 854.654 310.188 866.624C316.525 896.577 332.641 929.247 353.551 953.284C356.361 956.509 360.658 962 364.313 964.232C364.723 964.343 365.173 964.454 365.604 964.468C370.1 964.656 382.895 960.992 388.168 959.985L442.7 950.024L584.424 923.922C601.851 920.683 619.32 917.722 636.693 914.232C646.607 912.237 717.203 900.268 720.555 897.911C720.394 897.821 720.23 897.737 720.071 897.64C715.369 894.783 700.446 868.299 697.35 862.467C673.705 817.89 665.166 773.709 671.893 724.585C674.389 706.36 678.552 688.13 681.566 669.936C684.638 651.389 687.969 632.39 688.082 613.623C688.321 573.776 677.699 535.24 668.386 496.588C658.174 500.62 626.366 502.39 614.35 502.205C585.174 526.853 540.943 553.763 500.224 557.004C487.53 558.014 472.926 555.362 463.016 547.755C454.408 541.145 451.051 532.235 450.123 522.361C447.958 499.335 465.826 478.539 481.442 461.935C505.22 436.654 540.953 409.998 576.645 400.634C585.444 398.325 594.062 397.54 603.152 396.854Z" fill="#292A28"/>
<path d="M599.897 409.509C610.396 407.886 624.106 409.879 632.971 415.258C638.524 418.627 642.529 423.606 643.674 429.598C645.762 440.541 638.698 453.107 631.74 461.837C604.734 495.719 553.782 533.771 506.728 540.616C496.583 542.092 483.995 541.506 475.43 535.819C470.146 532.311 467.759 526.643 466.825 520.965C464.155 504.725 476.965 489.39 487.227 477.022L490.787 473.087C511.51 472.717 520.805 469.746 540.921 478.039C546.579 480.371 552.433 484.341 558.524 485.537C559.066 485.187 559.728 484.797 560.143 484.324C560.937 483.42 561.07 482.46 560.909 481.363C560.256 476.912 550.736 470.425 546.957 467.637C535.36 459.078 519.885 456.85 505.331 458.078C514.977 449.653 524.861 442.034 535.676 434.847C549.785 434.867 563.037 435.53 576.221 440.64C580.976 442.483 599.092 453.138 600.803 453.345C601.446 453.424 602.401 453.241 603.069 453.198C603.532 452.841 604.092 452.603 604.216 452.039C604.619 450.216 602.838 447.756 601.721 446.294C591.685 433.162 574.233 425.178 557.237 422.252C570.36 415.012 584.681 411.099 599.897 409.509Z" fill="#FEFEFE"/>
<path d="M333.593 94.0625C334.637 94.0139 335.805 93.9193 336.833 94.1188C339.636 94.6632 342.193 98.3798 343.479 100.486C347.635 107.286 354.187 124.698 354.738 132.257C354.911 134.614 354.397 136.693 353.671 138.94C363.598 158.646 369.114 169.406 387.16 184.132C396.138 191.458 405.253 198.385 413.155 206.728C429.005 223.462 437.418 253.593 445.565 274.491C449.377 284.271 453.815 293.812 457.735 303.545C461.871 313.811 465.468 324.317 469.879 334.484C474.937 346.143 483.142 356.616 487.39 368.562C489.622 374.841 490.843 381.34 490.202 387.944C489.47 395.477 486.336 403.907 479.61 408.826C472.667 413.904 463.671 412.695 455.439 411.827C455.108 413.217 454.733 414.582 454.183 415.917C452.216 420.691 448.241 424.285 443.087 426.328C434.761 429.629 426.357 428.456 418.183 425.596C417.347 425.361 416.333 424.912 415.499 425.435C414.66 425.961 413.658 427.435 412.902 428.155C409.462 431.431 405.214 434.173 400.427 435.562C392.527 437.852 384.354 436.353 377.136 432.975C369.967 429.62 364.681 424.289 361.466 417.619C353.484 401.06 352.391 377.501 346.333 359.503C342.484 348.068 336.789 336.817 332.039 325.63C324.483 308.084 317.535 290.345 311.194 272.413C308.656 265.37 306.145 258.239 304.89 250.901C302.243 235.416 305.784 220.838 306.963 205.484C308.136 190.206 304.574 174.85 299.376 160.402C297.408 159.648 295.392 158.903 293.544 157.929C292.993 157.645 292.462 157.335 291.949 156.998C291.437 156.662 290.947 156.3 290.479 155.915C290.011 155.529 289.567 155.121 289.149 154.692C288.731 154.262 288.34 153.813 287.977 153.344C285.872 150.653 284.652 147.22 282.993 144.282C279.849 138.709 275.06 133.344 273.374 127.213C272.757 124.97 272.675 122.641 274.096 120.623C280.011 112.229 321.714 96.7551 333.593 94.0625Z" fill="#292A28"/>
<path d="M445.984 314.573C446.082 314.651 446.192 314.717 446.279 314.805C448.008 316.552 452.358 330.562 453.583 333.666C456.346 340.665 459.379 347.789 462.862 354.519C466.436 361.424 470.576 368.13 473.34 375.364C474.781 379.136 475.814 383.246 475.525 387.26C475.011 394.374 470.514 398.503 464.896 402.91C461.826 403.235 458.771 403.696 455.716 404.123C455.681 400.592 456.19 395.969 454.961 392.618C454.4 391.086 452.89 388.726 451.202 388.058C450.278 387.693 450.009 387.984 449.101 388.252C445.592 391.625 445.187 397.571 443.881 401.913C442.575 406.256 440.045 413.034 435.318 415.265C426.009 419.657 414.828 403.547 406.425 401.791C404.944 401.482 404.464 401.604 403.24 402.343C402.27 405.261 403.589 408.086 404.82 410.764L408.362 416.438C405.822 419.13 402.793 421.303 399.082 422.492C398.82 422.573 398.555 422.65 398.288 422.72C398.022 422.79 397.753 422.854 397.483 422.912C397.213 422.97 396.942 423.022 396.669 423.068C396.396 423.114 396.122 423.153 395.847 423.187C395.571 423.22 395.296 423.248 395.019 423.269C394.742 423.29 394.465 423.305 394.188 423.313C393.91 423.322 393.633 423.325 393.356 423.321C393.078 423.317 392.801 423.306 392.524 423.29C392.246 423.274 391.97 423.251 391.695 423.223C391.418 423.194 391.144 423.159 390.87 423.118C390.596 423.077 390.323 423.029 390.052 422.976C389.781 422.923 389.511 422.863 389.243 422.798C388.975 422.732 388.709 422.661 388.444 422.583C388.18 422.505 387.919 422.422 387.659 422.333C387.399 422.243 387.142 422.148 386.887 422.047C386.633 421.947 386.381 421.84 386.132 421.728C382.096 419.934 379.122 416.934 377.078 413.33C370.75 402.172 369.172 388.532 366.097 376.399C363.306 365.389 360.028 354.849 356.049 344.147C364.761 343.573 373.453 342.926 382.004 341.234C399.972 337.678 432.746 326.027 445.984 314.573Z" fill="#FEFEFE"/>
<path d="M414.31 234.551C416.948 237.392 438.209 294.423 441.425 302.848C436.194 305.745 431.486 309.359 426.199 312.174C399.587 326.345 381.426 328.522 351.687 334.067C347.828 328.227 345.653 321.264 342.968 314.917C336.166 298.835 329.628 282.832 324.177 266.323C354.151 263.193 391.657 253.176 414.31 234.551Z" fill="#FE8F2B"/>
<path d="M340.536 146.32L341.078 146.622L341.339 146.409C344.508 149.18 347.008 158.653 349.074 162.679C351.61 167.62 354.92 173.344 358.666 177.621C373.686 194.769 395.48 205.439 409.551 223.328C398.269 232.494 382.485 240.627 368.117 245.221C366.35 245.833 364.268 246.033 362.431 246.556C354.667 248.761 347.538 250.775 339.44 252.012C333.024 252.993 326.417 253.455 320.155 255.07C315.847 238.198 318.798 223.963 319.826 207.159C319.963 205.026 320.045 202.892 320.074 200.755C320.103 198.619 320.078 196.484 319.999 194.349C319.92 192.214 319.787 190.082 319.6 187.952C319.413 185.822 319.172 183.697 318.877 181.577C318.582 179.457 318.234 177.344 317.833 175.238C317.431 173.132 316.976 171.035 316.469 168.947C315.961 166.859 315.4 164.783 314.787 162.717C314.174 160.652 313.51 158.6 312.793 156.561C322.209 153.51 331.457 150.096 340.536 146.32Z" fill="#FEFEFE"/>
<path d="M329.688 111.438L331.041 111.443C334.347 113.906 339.906 124.177 342.389 127.948C331.693 137.325 314.014 141.714 299.925 145.204C299 145.408 298.519 145.24 297.633 144.971C291.986 140.243 290.044 132.508 287.75 126.18C301.607 120.392 315.013 115.449 329.688 111.438Z" fill="#FEFEFE"/>
<path d="M699.745 157.808C726.15 156.122 752.232 165.191 774.683 176.909C788.33 184.032 805.176 196.575 809.24 210.774C810.707 215.898 810.631 220.771 808.555 225.729C806.552 230.516 801.922 233.056 799.458 237.488C795.43 244.736 791.895 252.231 787.958 259.526C780.403 273.326 772.695 287.057 764.833 300.718C761.385 306.763 758.391 313.294 754.545 319.116C750.383 325.419 744.343 327.979 736.777 329.706C735.116 330.246 733.423 330.687 731.697 331.029C709.449 335.338 678.687 324.766 660.191 313.953C646.367 305.871 631.141 294.486 627.695 279.206C626.366 273.315 626.881 267.702 629.114 262.048C633.642 250.581 641.403 239.399 647.727 228.611C653.963 217.97 659.642 207.024 665.44 196.183C667.825 191.725 670.263 187.276 672.308 182.68C674.411 177.951 675.751 170.75 678.986 166.771C683.39 161.352 692.743 158.669 699.745 157.808Z" fill="#292A28"/>
<path d="M679.585 194.539C685.478 202.415 693.499 209.602 701.857 215.339C722.987 229.841 755.738 243.286 782.922 239.887L779.473 246.102C774.137 248.386 749.907 253.808 748.3 255.023C747.922 255.309 747.677 255.712 747.365 256.056C747.249 257.107 747.049 257.288 747.784 258.154C753.816 261.051 767.165 257.653 773.67 256.183C772.507 258.265 771.347 260.725 769.713 262.532C760.889 272.293 736.929 274.404 735.644 276.222C734.62 277.672 735.123 280.547 735.522 282.094C735.637 282.039 735.752 281.984 735.866 281.931C736.059 281.842 736.256 281.763 736.444 281.666C739.309 280.187 743.116 280.893 746.396 280.375C751.593 279.556 756.79 277.903 761.824 276.488C759.355 281.015 756.783 285.493 754.107 289.922C750.168 291.551 746.022 292.373 741.812 293.183C737.347 293.801 714.667 295.092 712.525 296.376C712.891 297.984 714.636 299.518 715.757 300.789C725.971 304.518 737.718 302.018 748.258 300.578C745.95 304.906 743.92 309.353 741.835 313.771C740.337 314.685 738.824 315.601 737.14 316.213C723.297 321.247 702.261 317.818 688.808 312.655C673.806 306.897 647.826 292.802 641.63 278.323C639.87 274.211 640.693 270.229 642.118 266.132C645.46 256.519 652.214 247.005 657.182 237.944C665.01 223.628 672.478 209.16 679.585 194.539Z" fill="#FEFEFE"/>
<path d="M701.195 169.95C723.139 169.383 744.337 175.893 763.378 185.951C776.607 192.939 790.003 202.262 794.306 216.619C793.866 218.239 793.412 219.94 792.589 221.43C790.668 224.906 787.432 225.718 783.766 226.79C763.949 229.758 738.484 220.806 721.751 211.159C711.288 205.126 693.707 191.908 690.982 180.461C690.473 178.325 690.647 176.223 691.971 174.376C694.078 171.433 697.77 170.669 701.195 169.95Z" fill="#FEFEFE"/>
<path d="M711.582 178.124C731.854 180.722 759.677 190.532 775.753 201.987C777.583 203.291 779.26 204.81 779.508 206.977C779.088 208.491 778.24 208.993 776.895 209.928C771.129 208.294 765.623 205.323 760.28 202.816C752.916 199.361 745.518 195.999 737.776 193.251C730.985 190.841 713.833 188.515 709.456 184.811C708.111 183.672 707.855 182.844 707.793 181.298C708.54 179.613 709.933 179.01 711.582 178.124Z" fill="#292A28"/>
<path d="M434.064 561.032C435.81 560.829 437.488 560.703 439.243 560.888C442.017 561.183 444.791 562.453 446.454 564.511C447.94 566.35 448.492 569.206 448.86 571.409C450.068 578.634 449.934 586.372 450.71 593.703C451.616 602.267 453.463 610.871 453.887 619.453C454.068 623.112 453.817 626.551 453.301 630.175C451.775 632.197 449.994 634.043 448.256 635.918C433.326 639.512 403.975 641.528 388.064 641.847C384.435 641.629 380.537 641.491 377.451 639.537C374.608 637.737 374.61 635.444 374.098 632.583C372.451 623.37 372.728 613.823 371.601 604.528C370.432 594.876 367.279 584.337 367.438 574.696C367.479 572.271 368.556 569.846 370.225 567.961C371.598 566.41 374.312 566.182 376.369 565.898C385.82 564.594 395.736 564.924 405.285 564.225C414.907 563.519 424.442 561.864 434.064 561.032Z" fill="#292A28"/>
<path d="M431.478 574.327C432.687 574.093 433.316 574.015 434.522 574.436C434.898 575.713 434.984 575.758 434.371 577.042C431.981 578.022 430.362 579.126 428.668 580.937C425.045 584.809 422.543 589.68 419.494 593.936C415.987 598.833 411.969 603.375 408.002 607.97C403.822 603.04 399.193 594.572 391.991 593.119C391.49 593.226 390.857 593.246 390.475 593.584C389.486 594.461 389.112 596.075 389.037 597.274C388.615 604.1 394.336 610.458 398.984 615.365C401.283 617.794 404.231 620.437 408.011 620.525C419.185 620.788 428.504 598.158 435.528 592.199L436.303 592.563C435.933 600.757 438.104 615.849 440.285 623.831C422.578 626.887 403.792 628.45 385.812 629.536C384.906 612.331 383.32 595.39 379.953 578.414C385.973 577.75 392.081 577.824 398.125 577.388C409.251 576.587 420.376 575.389 431.478 574.327Z" fill="#FEFEFE"/>
<path d="M439.247 666.732C439.894 666.668 440.542 666.611 441.191 666.56C444.61 666.293 447.897 666.51 450.574 668.726C452.892 670.644 453.749 672.964 453.92 675.708C454.417 683.716 447.496 721.444 444.664 729.888C443.867 732.26 442.852 734.591 441.002 736.461C436.801 738.441 384.609 744.486 380.127 743.42C379.45 743.867 378.888 744.121 378.063 744.259C375.146 744.74 371.976 744.3 369.66 742.553C367.567 740.972 366.685 738.483 366.423 736.11C365.478 727.536 369.977 718.109 371.363 709.659C372.95 699.976 373.405 689.846 375.451 680.286C375.767 678.808 376.216 677.277 377.341 676.12C385.087 668.152 426.367 667.557 439.247 666.732Z" fill="#292A28"/>
<path d="M428.804 680.028C430.159 679.951 431.523 679.857 432.882 679.836C434.273 679.815 435.369 679.634 436.392 680.508C434.924 682.068 432.941 681.89 431.354 683.631C427.492 687.868 424.801 693.014 421.306 697.495C418.208 701.466 414.364 704.792 411.011 708.575C407.235 705.311 402.124 698.805 396.154 698.988C394.697 699.033 394.234 699.492 393.32 700.411C392.382 702.991 393.244 705.388 394.605 707.699C398.585 714.452 403.553 719.655 411.842 721.901C424.012 717.408 431.858 701.812 439.147 692.745C439.001 695.32 438.562 697.892 438.203 700.449C436.516 709.094 434.326 717.587 432.054 726.125C421.288 726.58 384.211 732.576 377.678 730.763C380.937 724.251 386.024 692.669 386.674 684.013C400.179 681.191 414.948 681.027 428.804 680.028Z" fill="#FEFEFE"/>
<path d="M429.457 767.012L430.238 767.192C432.581 767.745 436.231 768.382 437.465 770.417C438.513 772.148 439.134 774.397 439.146 776.342C439.204 785.735 436.949 795.156 436.526 804.563C436.224 811.284 438.769 824.968 436.41 830.561C435.446 832.838 433.748 834.735 431.195 835.711C426.41 837.545 370.329 844.689 366.897 843.463C365.442 844.107 364.057 844.038 362.479 843.727C360.87 843.408 359.639 842.425 358.811 841.193C354.568 834.887 355.939 793.599 358.109 785.445C359.035 781.956 361.273 777.616 364.933 775.747C368.612 773.871 374.889 773.871 379.118 773.387C385.53 772.66 425.647 769.254 429.184 767.185C429.277 767.129 429.366 767.067 429.457 767.012Z" fill="#292A28"/>
<path d="M421.071 780.349C422.372 780.817 423.977 780.894 425.358 781.083C425.941 784.067 424.383 789.058 424.011 792.225C422.832 802.256 421.831 813.405 424.011 823.373C423.774 823.513 423.4 823.75 423.122 823.862C419.714 825.267 382.898 830.915 377.502 830.964C376.41 830.971 375.494 830.712 374.506 830.314C374.099 830.601 373.999 830.692 373.481 830.936C372.223 831.53 371.424 831.866 370.092 831.481C369.261 827.539 370.021 822.478 370.156 818.431C370.523 807.491 371.052 796.684 371.757 785.773C372.298 786.039 372.745 786.276 373.37 786.339C377.669 786.773 419.109 781.586 421.071 780.349Z" fill="#FEFEFE"/>
<path d="M434.043 863.449C438.754 865.224 442.553 865.041 445.613 869.403C449.872 875.478 451.018 883.972 454.141 890.636C457.682 898.188 462.605 905.029 466.359 912.418C467.232 914.132 468.016 915.703 467.364 917.6C466.601 919.828 464.746 921.291 462.44 922.314C458.146 924.231 409.373 932.324 405.334 931.173C403.051 931.999 401.025 932.501 398.555 931.966C395.337 931.275 393.105 929.222 391.442 926.838C386.174 919.273 369.995 885.15 372.189 877.808C372.594 876.453 373.168 875.268 374.52 874.435C378.194 872.173 384.255 872.227 388.562 871.455C399.157 869.558 409.458 867.574 420.183 866.125C423.7 865.65 430.528 865.447 433.41 863.835C433.626 863.713 433.832 863.578 434.043 863.449Z" fill="#292A28"/>
<path d="M430.363 874.735C431.445 875.034 433.615 875.034 434.415 875.415C434.417 875.422 445.08 905.299 450.53 911.217C450.149 911.502 449.757 911.759 449.329 911.988C446.541 913.479 407.953 919.481 405.218 918.898C404.68 919.28 404.024 919.564 403.431 919.877L402.054 919.53C396.614 914.839 387.341 889.313 385.646 881.944C386.15 882.18 386.128 882.201 386.771 882.34C387.414 882.479 424.352 876.532 428.092 875.727C429.021 875.526 429.594 875.228 430.363 874.735Z" fill="#FEFEFE"/>
<path d="M621.779 673.048C626.376 672.536 631.878 672.08 636.08 674.276C637.655 675.098 639.103 676.356 639.426 678.044C639.67 679.317 639.213 680.618 638.373 681.642C637.178 683.097 635.59 683.77 633.705 684.192C628.242 685.416 622.17 685.548 616.562 686.065C610.261 686.646 603.988 687.468 597.691 688.094L532.293 694.976C521.545 696.078 510.696 696.407 500.008 697.951C495.064 698.223 489.559 699.019 485.2 696.323C483.907 695.524 482.74 694.367 482.469 692.923C482.218 691.592 482.693 690.391 483.593 689.35C485.067 687.645 487.343 686.655 489.634 686.199C501.378 683.861 514.082 683.856 526.044 682.605C557.926 679.174 589.838 675.989 621.779 673.048Z" fill="#292A28"/>
<path d="M620.52 764.96C621.027 765.207 621.376 765.297 621.955 765.358C623.243 765.482 624.557 765.544 625.766 765.997C627.207 766.54 628.529 767.741 629.023 769.067C629.595 770.599 628.996 772.261 628.061 773.579C626.463 775.832 623.563 777.817 620.596 778.332C613.116 779.623 605.138 780.063 597.558 780.942C579.584 783.112 561.586 785.111 543.564 786.937L504.251 791.34C497.742 792.095 490.987 793.318 484.446 793.654C483.342 793.709 482.477 793.455 481.574 792.899C480.054 793.606 478.88 793.895 477.169 793.524C475.367 793.126 473.738 792.274 472.807 790.811C472.08 789.671 471.957 788.394 472.468 787.164C473.607 784.417 476.624 783.373 479.509 782.576C485.748 780.859 492.105 780.64 498.543 779.987L527.01 777.068C547.9 774.809 568.679 771.752 589.589 769.486C596.119 768.772 615.609 767.192 620.52 764.96Z" fill="#292A28"/>
<path d="M626.398 578.725C629.98 578.387 635.919 577.537 639.006 579.424C640.396 580.275 641.535 581.73 641.73 583.234C641.931 584.796 641.36 586.46 640.165 587.635C638.506 589.265 634.489 589.543 632.176 589.841C614.77 592.082 596.632 592.554 579.091 593.856C552.483 595.834 525.909 598.317 499.27 599.919C495.451 600.415 490.911 601.451 487.217 600.255C486.275 599.354 486.19 599.185 486.033 598.01C485.723 595.683 485.479 593.201 487.333 591.298C488.847 589.746 491.414 588.994 493.634 588.624C498.527 587.809 503.876 587.811 508.853 587.463L537.118 585.304C566.772 582.906 596.646 579.919 626.398 578.725Z" fill="#292A28"/>
<path d="M634.378 842.931C634.486 842.958 634.594 842.979 634.701 843.007C636.46 843.43 638.049 844.262 638.92 845.753C639.892 847.411 639.499 850.997 638.701 852.71C638.21 853.771 637.551 854.451 636.329 854.846C631.372 856.427 624.844 856.809 619.612 857.593C606.275 859.599 592.927 861.546 579.569 863.432C550.28 867.628 521.088 872.983 491.714 876.617C490.194 876.804 489.099 876.957 487.635 876.388L486.353 876.7C484.519 876.145 482.976 874.793 481.891 873.322C481.239 872.435 481.121 871.658 481.425 870.638C482.279 867.76 488.246 865.874 491.071 865.104C503.409 861.726 519.36 860.436 532.222 858.459C557.248 854.483 582.299 850.634 607.373 846.912C614.012 845.989 629.455 845.518 634.378 842.931Z" fill="#292A28"/>
<path d="M542.913 147.404C544.197 147.322 545.699 147.284 546.942 147.589C548.337 147.931 549.573 148.89 550.157 150.072C551.166 152.113 550.628 154.589 549.751 156.594C549.318 157.571 548.79 158.506 548.167 159.397C547.545 160.288 546.838 161.121 546.046 161.896C541.194 166.683 534.964 170.371 529.8 174.905C519.63 183.834 489.404 214.894 479.232 218.753C477.836 219.323 476.228 219.999 474.688 220.135C473.04 220.281 472.439 220.159 471.186 219.247C471.023 218.565 470.947 218.034 471.116 217.341C473.34 208.23 497.888 187.255 505.723 179.778C513.771 172.098 521.321 164.159 529.898 156.906C534.026 153.415 538.194 150.231 542.913 147.404Z" fill="#FE8F2B"/>
<path d="M321.062 401.778C322.339 401.822 323.11 402.024 324.294 402.45C324.717 402.962 325.201 403.333 325.284 403.972C326.496 413.325 290.447 453.988 281.837 463.404C277.324 468.338 274.936 471.818 267.281 472.568C264.883 471.957 262.921 471.3 261.611 469.35C261.433 467.766 261.822 466.572 262.439 465.104C263.516 462.541 265.072 460.02 266.812 457.756C272.457 450.411 279.52 443.526 285.668 436.457C292.947 428.087 299.771 418.827 307.904 411.106C311.792 407.416 315.768 403.868 321.062 401.778Z" fill="#FE8F2B"/>
<path d="M452.145 104.288C454.528 104.324 457.351 103.952 459.486 105.081C460.862 106.536 460.828 108.349 460.739 110.202C460.449 116.192 458.17 122.484 456.659 128.323C453.03 142.341 449.772 158.234 443.446 171.381C442.297 173.767 441.1 175.496 439.035 177.256C437.483 177.83 435.954 178.354 434.267 178.02C433.272 177.822 432.54 177.361 431.985 176.563C430.474 174.39 431.456 170.379 431.967 167.956C435.303 152.155 439.957 136.506 444.778 121.058C446.207 116.479 447.335 110.964 449.575 106.708C450.157 105.604 451.076 104.953 452.145 104.288Z" fill="#FE8F2B"/>
<path d="M206.856 282.84C218.277 282.152 267.74 286.567 276.371 292.939C278.006 294.146 278.342 295.107 278.643 296.94C277.644 300.27 275.191 301.317 272.274 302.94L271.319 303.288C266.974 302.258 262.223 302.551 257.771 302.095C242.732 300.556 224.242 299.346 209.852 295.335C206.965 294.53 204.621 293.668 203.204 290.904C202.591 289.706 202.08 288.182 202.572 286.888C203.297 284.982 205.061 283.728 206.856 282.84Z" fill="#FE8F2B"/>
<path d="M290.1 349.505C291.976 349.363 294.014 349.485 295.633 350.401C296.675 350.99 297.672 352.051 297.909 353.123C298.282 354.81 297.376 356.262 296.271 357.595C288.511 366.955 267.962 374.005 256.286 378.86C249.297 381.766 241.699 385.769 234.029 386.797C232.616 387.052 230.428 387.639 229.028 387.324C227.262 386.929 225.999 385.415 225.235 384.077C225.099 383.142 225.056 382.324 225.491 381.438C226.423 379.535 228.451 377.923 230.366 376.762C238.644 371.746 248.862 368.186 257.847 364.137C268.615 359.285 279.022 353.825 290.1 349.505Z" fill="#FE8F2B"/>
<path d="M212.191 189.411C219.73 189.221 249.049 206.902 256.462 211.471C260.818 214.155 268.717 219.301 269.487 224.296C269.732 225.884 269.038 226.854 267.909 228.043C266.575 229.444 265.491 230.25 263.426 230.447C248.578 224.065 235.291 216.746 221.559 208.674C216.859 205.911 211.396 203.165 207.422 199.594C206.205 198.5 205.414 197.092 204.651 195.723C206.83 192.696 208.345 190.778 212.191 189.411Z" fill="#FE8F2B"/>
<path d="M500.379 332.07C501.503 332.019 502.628 332.003 503.754 332.022C511.099 332.178 547.311 343.164 554.542 346.197C557.308 347.357 560.279 348.862 562.334 350.941C563.545 352.166 564.552 353.668 564.333 355.375C564.08 357.337 562.953 358.262 561.281 359.398C560.562 359.536 559.826 359.613 559.095 359.676C549.249 360.522 510.182 347.247 502.532 341.385C500.701 339.981 498.465 338.001 498.345 335.711C498.261 334.126 499.272 333.185 500.379 332.07Z" fill="#FE8F2B"/>
<path d="M548.904 251.991C550.98 252.275 553.656 253.369 555.303 254.595C555.818 254.979 556.223 255.532 556.315 256.129C556.605 258.007 556.117 259.401 554.807 260.887C548.275 268.299 513.406 277.33 502.394 278.666C500.777 278.622 498.79 278.503 497.359 277.773C496.06 277.11 495.266 275.873 495.01 274.57C494.706 273.016 495.246 271.521 496.303 270.29C497.812 268.532 500.157 267.282 502.343 266.325C510.487 262.762 519.498 260.676 528.046 258.042C534.942 255.917 541.613 252.916 548.904 251.991Z" fill="#FE8F2B"/>
<rect width="50.4897" height="46.3692" transform="matrix(0.995744 -0.0921651 0.113217 0.99357 383.806 581.465)" fill="white"/>
<path d="M387.792 685.975L441.869 679.064L440.309 690.773L438.362 703.193L432.54 726.969L384.578 725.581L387.792 685.975Z" fill="white"/>
</g>
<defs>
<clipPath id="clip0_124_42">
<rect width="1024" height="1024" fill="white"/>
</clipPath>
</defs>
</svg>
