<svg width="1024" height="1024" viewBox="0 0 1024 1024" fill="none" xmlns="http://www.w3.org/2000/svg">
<g clip-path="url(#clip0_16_207)">
<path d="M0 0H1024V1024H0V0Z" fill="#FEFEFE"/>
<path d="M234.545 605.895C235.828 606.18 236 606.111 236.827 607.104C236.788 607.234 236.766 607.371 236.709 607.494C235.53 610.043 228.708 612.85 226.172 614.056C225.071 613.964 224.594 613.865 223.716 613.183L223.747 612.235C226.247 609.441 231.221 607.578 234.545 605.895Z" fill="#231F20"/>
<path d="M362.2 232.476C364.1 232.318 365.801 232.126 367.345 233.517C368.422 234.486 368.708 235.518 368.649 236.926C368.554 239.174 367.098 240.498 365.599 241.961C363.921 242.185 362.835 242.282 361.499 241.082C360.449 240.139 360.058 239.032 360.016 237.656C359.951 235.473 360.81 234.068 362.2 232.476Z" fill="#231F20"/>
<path d="M399.681 225.981C400.88 225.987 402.536 225.845 403.627 226.39C405.04 227.095 406.054 228.862 406.277 230.383C406.66 233.005 405.463 235.442 404.015 237.524C402.63 237.721 402.127 237.967 400.915 237.129C399.212 235.95 398.418 233.547 398.146 231.615C397.802 229.163 398.238 227.959 399.681 225.981Z" fill="#231F20"/>
<path d="M597.184 455.745C598.412 455.668 599.845 455.473 601.061 455.672C602.826 455.962 603.746 456.74 604.744 458.163C604.829 459.391 604.907 459.817 604.025 460.816C602.84 462.159 600.404 462.22 598.742 462.455C597.085 462.55 594.786 462.919 593.201 462.301C591.897 461.792 591.326 461.011 590.716 459.819C590.819 458.974 590.723 458.632 591.313 457.945C592.85 456.155 594.973 455.99 597.184 455.745Z" fill="#231F20"/>
<path d="M381.136 227.774C382.617 227.876 383.863 228.008 385.056 228.949C386.501 230.089 387.295 231.734 387.372 233.565C387.477 236.062 386.444 237.85 384.856 239.672C384.67 239.694 384.484 239.723 384.297 239.737C382.659 239.86 381.311 239.631 380.087 238.434C378.922 237.294 378.442 235.707 378.453 234.118C378.472 231.333 379.219 229.746 381.136 227.774Z" fill="#231F20"/>
<path d="M563.848 456.675C567.101 456.637 573.094 456.127 575.851 458.186C576.997 459.042 577.067 459.461 577.295 460.766C576.261 462.28 575.3 462.567 573.624 463.04C569.804 463.022 563.049 463.763 560.125 460.96C559.737 459.748 559.795 459.566 560.113 458.321C561.169 457.136 562.373 457.006 563.848 456.675Z" fill="#231F20"/>
<path d="M483.562 545.38C484.722 545.806 485.286 546.158 486.136 547.056C486.241 547.709 486.446 548.079 486.107 548.699C483.921 552.703 473.908 556.865 469.632 557.991C468.124 557.893 467.621 557.649 466.55 556.688L466.749 555.56C470.346 551.091 478.526 548.04 483.562 545.38Z" fill="#231F20"/>
<path d="M946.275 505.412C947.053 506.267 947.064 506.367 947.222 507.519C944.372 512.532 934.39 519.578 930.011 524.248C926.511 527.981 924.122 532.699 920.364 536.199C919.867 535.711 919.303 535.474 919.347 534.714C919.735 527.939 940.478 510.683 946.275 505.412Z" fill="#231F20"/>
<path d="M830.831 131.345C831.455 131.417 831.863 131.438 832.486 131.642C833.828 132.082 834.318 132.99 834.923 134.154C834.763 138.306 826.033 157.156 823.211 160.645C821.889 160.571 821.038 160.368 819.828 159.832C818.697 158.516 818.433 157.417 818.549 155.727C819.04 148.565 825.582 136.157 830.831 131.345Z" fill="#231F20"/>
<path d="M649.469 450.264C650.282 450.788 650.837 451.772 651.414 452.546C651.516 453.716 651.469 453.91 650.628 454.779C647.486 458.026 623.968 460.579 618.82 460.53C617.948 459.587 617.52 458.836 617.032 457.65C617.099 456.851 616.97 456.267 617.522 455.629C620.831 451.807 643.55 450.811 649.469 450.264Z" fill="#231F20"/>
<path d="M879.039 191.532C880.766 191.488 882.389 191.252 883.94 192.148C884.889 193.377 885.046 193.597 885.239 195.126C884.559 196.741 883.709 197.625 882.232 198.531C878.44 200.858 864.095 205.399 858.429 207.911C856.97 208.344 855.126 208.813 853.663 208.095C852.903 207.722 852.462 207.412 852.225 206.599C851.894 205.467 852.082 204.66 852.626 203.63C855.888 197.456 872.175 193.808 879.039 191.532Z" fill="#231F20"/>
<path d="M454.073 640.612C456.691 640.319 459.304 639.955 461.709 641.295C464.711 642.969 465.69 646.411 466.641 649.472C466.315 651.24 466.017 653.068 465.269 654.718C463.768 658.029 460.996 659.173 457.803 660.403C455.997 660.569 454.073 660.512 452.324 660.01C449.784 659.282 447.559 657.796 446.352 655.386C445.268 653.221 445.204 650.678 445.989 648.406C447.359 644.444 450.432 642.321 454.073 640.612Z" fill="#231F20"/>
<path d="M453.839 648.193C455.304 648.496 456.117 648.832 457.373 649.645C458.05 651.084 457.972 651.143 457.619 652.71C456.106 652.565 454.956 652.537 453.679 651.607C453.155 650.06 453.404 649.722 453.839 648.193Z" fill="#FEFEFE"/>
<path d="M426.224 643.42C428.368 643.401 430.663 643.294 432.774 643.728C435.966 644.385 439.137 646.461 440.885 649.224C442.32 651.492 442.882 654.299 442.234 656.92C441.322 660.611 438.761 662.843 435.701 664.824C433.75 665.463 431.503 665.742 429.47 665.401C429.065 665.334 428.664 665.247 428.267 665.14C427.87 665.032 427.48 664.904 427.097 664.757C426.714 664.61 426.339 664.443 425.972 664.257C425.605 664.071 425.249 663.867 424.904 663.645C424.559 663.422 424.225 663.183 423.904 662.927C423.583 662.67 423.276 662.398 422.983 662.111C422.69 661.823 422.412 661.521 422.149 661.204C421.887 660.888 421.642 660.559 421.413 660.218C419.69 657.615 419.01 654.466 419.711 651.408C420.598 647.536 422.994 645.451 426.224 643.42Z" fill="#231F20"/>
<path d="M428.239 651.789C430.113 651.782 431.56 651.956 433.004 653.236C433.729 654.714 433.522 655.631 433.257 657.174C431.471 656.984 430.314 656.803 428.893 655.607C428.06 654.105 428.109 653.432 428.239 651.789Z" fill="#FEFEFE"/>
<path d="M333.574 110.77C334.593 111.279 334.934 111.775 335.548 112.719C335.64 113.501 335.616 114.092 335.325 114.835C333.694 119.011 331.153 123.128 329.046 127.105C325.805 133.2 322.8 139.408 320.03 145.73C318.497 149.295 318.516 156.513 316.644 159.217C315.816 160.414 315.527 160.36 314.189 160.499C313.492 160.074 312.807 159.854 312.426 159.096C310.611 155.491 314.112 146.974 315.261 143.16C309.186 137.226 302.848 131.579 296.815 125.584C293.888 122.646 286.332 117.188 285.443 113.321C285.245 112.46 285.561 112.297 285.97 111.593C286.387 111.489 286.616 111.397 287.084 111.471C292.815 112.378 311.925 133.777 317.017 139.121C320.821 132.365 328.727 115.445 333.574 110.77Z" fill="#231F20"/>
<path d="M878.409 285.445L879.741 286.542L879.742 287.406C876.817 290.432 872.755 292.752 869.322 295.191C864.969 298.284 860.846 301.551 856.915 305.169C862.737 310.84 869.673 317.819 874.163 324.585C874.89 325.68 874.919 326.562 874.72 327.846C874.065 328.742 873.734 329.436 872.505 329.561C871.408 329.673 870.666 329.145 869.888 328.462C867.442 326.315 865.392 323.015 863.26 320.513C859.774 316.471 856.166 312.541 852.435 308.724C849.893 310.794 847.578 313.202 845.222 315.486L842.152 319.574C840.949 320.118 840.798 320.434 839.459 320.151C839.398 315.906 846.874 308.796 849.704 305.838C845.791 301.358 839.19 296.963 836.359 291.838C835.698 290.642 835.355 289.42 835.741 288.065C835.972 287.253 836.241 287.293 836.904 286.895C840.822 287.46 850.59 298.784 853.746 302.122C861.364 295.615 869.111 289.377 878.409 285.445Z" fill="#231F20"/>
<path d="M757.65 227.338C758.503 228.165 758.597 228.299 758.891 229.448C756.67 235.613 747.252 242.425 742.461 246.778C749.997 252.85 761.418 262.65 766.731 270.68L766.62 270.576L767.189 272.19L766.675 272.977C766.493 273.007 766.313 273.058 766.128 273.069C764.718 273.152 763.288 272.377 762.183 271.559C759.495 269.568 757.29 266.499 754.912 264.121C750.251 259.458 745.19 254.864 739.982 250.817L739.469 250.424C734.85 256.312 729.447 261.5 724.943 267.536C722.49 270.85 717.105 281.495 713.704 282.652L712.927 282.186C712.899 282.016 712.85 281.848 712.842 281.676C712.5 274.055 731.322 253.3 736.71 247.489C733.524 244.621 728.655 241.269 726.243 237.753C725.247 236.3 725.332 235.162 725.592 233.54C726.006 233.114 726.186 232.673 726.835 232.685C730.707 232.752 737.348 240.994 740.041 243.777C745.826 238.189 751.606 232.648 757.65 227.338Z" fill="#231F20"/>
<path d="M742.251 359.524C745.243 359.314 748.397 359.508 751.276 360.378C755.451 361.638 758.984 364.37 760.944 368.303C763.376 373.181 762.959 378.802 761.196 383.823C761.046 384.255 760.885 384.683 760.714 385.108C760.542 385.532 760.36 385.952 760.168 386.367C759.976 386.782 759.774 387.193 759.561 387.598C759.348 388.003 759.126 388.403 758.894 388.798C758.662 389.192 758.42 389.58 758.168 389.963C757.917 390.346 757.656 390.722 757.386 391.091C757.116 391.46 756.837 391.823 756.549 392.179C756.261 392.534 755.964 392.883 755.659 393.224C755.354 393.565 755.04 393.898 754.719 394.223C754.397 394.549 754.067 394.866 753.73 395.175C753.393 395.484 753.048 395.785 752.696 396.078C752.343 396.37 751.984 396.653 751.618 396.927C751.252 397.202 750.879 397.467 750.5 397.723C750.121 397.979 749.735 398.225 749.343 398.462C748.952 398.699 748.555 398.926 748.152 399.143C747.749 399.36 747.341 399.568 746.928 399.765C743.312 400.747 739.388 400.887 735.873 399.388C732.582 397.985 730.268 395.265 728.956 391.986C726.258 385.241 727.652 378.049 730.506 371.635C733.08 365.852 736.2 361.815 742.251 359.524Z" fill="#231F20"/>
<path d="M745.781 364.472C746.921 364.467 748 364.493 749.13 364.664C752.424 365.16 755.384 366.237 757.302 369.123C759.266 372.077 759.315 375.891 758.498 379.235C756.996 385.388 752.974 390.172 747.641 393.384C745.554 393.958 743.629 394.178 741.499 393.626C739.15 393.018 737.329 391.714 736.162 389.573C733.923 385.465 734.41 380.126 735.856 375.847C737.735 370.288 740.641 367.069 745.781 364.472Z" fill="#FEFEFE"/>
<path d="M486.54 237.086C487.988 237.202 488.118 237.113 489.17 238.082C489.598 239.651 489.686 240.981 489.556 242.608C489.28 246.08 485.566 268.894 484.433 270.888C483.703 271.361 483.392 271.777 482.478 271.722C477.875 271.446 472.156 264.027 469.019 260.86C465.348 265.366 446.713 288.113 446.338 292.135C446.22 293.409 446.217 295.098 445.316 296.077C444.493 296.971 443.215 297.713 441.947 297.6C440.091 297.434 438.809 295.551 437.778 294.219C425.7 294.627 413.686 295.876 401.625 296.49C401.249 296.503 400.873 296.507 400.498 296.526C397.048 296.702 394.353 296.818 391.467 294.507L392.272 293.256C398.43 290.423 431.203 289.225 441.625 287.275L465.006 257.155C462.596 254.804 457.169 252.28 455.665 249.371C455.022 248.127 455.164 247.834 455.551 246.589C455.979 246.065 456.238 245.702 456.861 245.399C459.544 244.092 463.821 243.607 466.789 242.8C473.412 240.999 479.939 238.943 486.54 237.086Z" fill="#231F20"/>
<path d="M86.1166 344.683C89.2613 344.409 93.5264 345.606 96.2954 347.061C100.533 349.287 103.524 353.103 104.868 357.68C106.199 362.211 105.728 366.846 103.362 370.943C99.3562 377.881 92.2286 380.893 84.9244 383.006C79.8445 383.683 75.0533 383.594 70.7622 380.352C67.239 377.689 65.2539 373.421 64.7825 369.097C64.1612 363.399 66.0371 357.31 69.6632 352.884C73.8961 347.718 79.6461 345.411 86.1166 344.683Z" fill="#231F20"/>
<path d="M82.4771 352.26C86.0493 351.924 89.0425 352.359 91.9948 354.594C95.3968 357.171 96.3389 360.379 96.9246 364.357C94.8036 369.94 92.7819 372.092 87.6444 374.865C84.8354 375.592 82.1743 376.038 79.4221 374.815C77.0654 373.769 75.4697 371.7 74.7143 369.27C73.6174 365.741 74.4615 361.305 76.1539 358.098C77.7075 355.153 79.2984 353.285 82.4771 352.26Z" fill="#FEFEFE"/>
<path d="M832.158 793.419C833.227 793.742 834.203 793.952 835.002 794.788C836.229 796.071 836.582 805.675 836.275 807.724C836.013 809.473 835.391 810.907 833.867 811.906C831.73 813.308 814.878 810.844 810.592 810.684C793.342 810.038 775.666 810.239 758.398 810.765C716.055 812.239 673.701 812.736 631.336 812.256C623.948 812.17 613.316 813.839 606.563 812.474C605.5 811.381 605.104 810.072 604.574 808.678C604.455 807.181 603.954 804.491 604.486 803.093C605.122 801.422 606.103 800.59 607.688 799.816C609.076 800.019 609.139 800.103 610.16 801.079C610.88 802.888 610.327 804.463 609.936 806.31C614.589 806.587 619.294 806.194 623.957 806.2L650.274 806.334C661.386 806.307 672.488 805.939 683.597 805.885C692.332 805.842 701.065 806.136 709.799 805.92C731.323 805.387 752.718 804.421 774.27 804.368C792.915 804.322 811.794 803.986 830.339 806.063C829.754 803.34 828.264 799.46 828.965 796.791C829.406 795.111 830.815 794.332 832.158 793.419Z" fill="#231F20"/>
<path d="M624.959 824.672C625.108 824.653 625.255 824.624 625.405 824.613C634.376 823.988 647.115 823.949 654.024 830.538C660.694 836.899 662.984 847.21 663.318 856.083C663.827 869.63 659.494 884.657 650.12 894.722C643.12 902.239 634.466 906.184 624.195 906.534C613.585 906.719 603.833 906.295 595.014 899.636C588.657 894.835 586.396 887.468 585.281 879.931C583.336 866.778 586.169 852.671 594.197 841.946C601.971 831.559 612.365 826.476 624.959 824.672Z" fill="#231F20"/>
<path d="M607.395 839.324C608.137 839.514 608.195 839.674 608.732 840.18C608.39 842.257 602.884 846.942 601.401 849.487C598.155 855.06 597.585 861.252 595.41 867.193L595.207 867.732L594.292 867.623C593.717 865.888 594.079 863.896 594.304 862.106C595.528 852.388 599.648 845.317 607.395 839.324Z" fill="#FEFEFE"/>
<path d="M642.411 835.621C645.031 835.322 647.185 836.131 649.634 836.909C654.96 842.344 656.051 849.994 656.173 857.275C656.361 868.511 653.398 881.725 645.225 889.967C640.099 895.136 635.029 896.724 627.963 896.702C625.834 896.287 623.184 895.766 621.308 894.667C617.753 892.585 615.408 888.904 614.506 884.937C612.109 874.391 615.541 857.959 621.284 848.883C626.187 841.134 633.794 837.541 642.411 835.621Z" fill="#FEFEFE"/>
<path d="M631.418 862.36C632.299 862.432 633.36 862.436 634.197 862.71C635.805 863.236 636.979 864.596 637.831 866.001C639.623 868.955 639.877 872.703 638.92 875.986C637.999 879.147 636.237 880.685 633.424 882.202C633.265 882.228 633.107 882.266 632.946 882.278C631.258 882.405 629.433 881.679 628.152 880.592C626.476 879.168 625.994 876.78 625.994 874.688C625.995 869.766 628.108 865.847 631.418 862.36Z" fill="#231F20"/>
<path d="M773.43 826.643C782.072 825.953 788.613 827.769 795.344 833.367C797.57 833.467 799.891 833.491 802.019 834.215C807.243 835.994 811.264 839.612 813.721 844.531C818.6 854.3 816.975 866.573 813.422 876.479C807.424 893.197 795.401 904.656 779.61 912.149C777.958 912.811 776.329 913.4 774.579 913.751C768.554 914.959 764.316 912.936 758.632 911.607C755.066 910.773 752.086 911.262 748.925 908.977C742.504 904.336 739.295 895.683 737.946 888.135C735.084 872.12 741.523 854.864 750.625 841.864C756.546 833.409 763.143 828.489 773.43 826.643Z" fill="#231F20"/>
<path d="M773.368 834.024C774.782 833.985 776.056 833.909 777.434 834.309C775.187 835.644 772.719 836.46 770.432 837.71C766.159 840.046 762.826 844.779 759.93 848.557L758.676 849.386L757.703 849.14C757.386 848.03 757.425 847.778 757.926 846.674C760.682 840.601 767.275 836.116 773.368 834.024Z" fill="#FEFEFE"/>
<path d="M797.267 840.635C797.585 840.604 797.903 840.566 798.221 840.542C800.613 840.365 803.058 841.39 804.812 842.992C808.153 846.042 809.04 851.769 809.041 856.054C809.045 868.961 802.07 883.341 792.952 892.283C788.456 896.692 783.839 898.988 777.477 898.905C775.345 898.518 773.325 897.88 771.488 896.695C767.365 894.035 765.039 889.695 764.224 884.941C762.584 875.379 765.847 864.023 771.313 856.147C777.654 847.008 786.541 842.482 797.267 840.635Z" fill="#FEFEFE"/>
<path d="M783.143 864.827C785.222 865.333 786.159 865.976 787.481 867.66C789.474 870.198 790.093 872.989 789.697 876.168C789.226 879.952 787.484 882.113 784.557 884.404C784.356 884.399 784.153 884.409 783.952 884.39C782.17 884.22 780.732 883.183 779.678 881.776C777.934 879.45 777.719 876.314 778.107 873.527C778.64 869.701 780.145 867.193 783.143 864.827Z" fill="#231F20"/>
<path d="M268.763 433.69C269.428 433.627 270.074 433.572 270.742 433.567C284.31 433.464 296.676 439.39 306.172 448.945C315.075 457.904 319.864 468.909 319.694 481.606C319.54 493.188 314.735 502.788 306.574 510.78C307.892 514.884 308.7 518.517 308.639 522.827C308.565 528.03 307.354 537.085 303.331 540.709C302.169 541.756 300.652 542.225 299.104 542.01C293.5 541.233 288.686 532.601 285.569 528.264C284.5 526.582 283.829 524.923 283.162 523.049C279.082 525.316 275.066 527.034 270.426 527.685C259.604 529.203 247.937 525.454 239.305 518.962C230.084 512.026 223.62 500.845 222.158 489.418C220.45 476.076 224.331 463.997 232.584 453.519C242.004 441.559 253.795 435.528 268.763 433.69Z" fill="#231F20"/>
<path d="M270.169 442.188C276.346 442.041 282.34 443.83 287.784 446.689C297.898 451.999 306.724 461.221 310.054 472.302C312.955 481.956 310.787 491.844 305.287 500.136C303.41 502.967 300.88 505.712 299.372 508.736C298.264 510.955 299.199 512.604 300.008 514.764C302.397 521.143 300.792 528.952 299.81 535.546C295.53 529.816 291.682 523.658 287.656 517.741C287.128 516.904 286.608 516.422 285.837 515.808C280.938 516.22 276.274 518.332 271.367 518.91C262.248 519.984 252.444 517.627 245.272 511.8C236.682 504.821 231.312 495.518 230.26 484.441C229.334 474.693 232.761 464.692 239.086 457.221C247.151 447.697 257.918 443.179 270.169 442.188Z" fill="#FBBE1D"/>
<path d="M273.845 497.536C273.971 497.489 274.099 497.449 274.228 497.414C274.358 497.38 274.489 497.352 274.621 497.33C274.754 497.308 274.887 497.292 275.02 497.283C275.154 497.274 275.288 497.271 275.422 497.274C275.557 497.277 275.69 497.287 275.823 497.304C275.956 497.32 276.089 497.342 276.22 497.371C276.351 497.4 276.48 497.435 276.608 497.476C276.735 497.517 276.861 497.564 276.984 497.617C277.107 497.67 277.228 497.728 277.346 497.793C277.463 497.857 277.578 497.927 277.689 498.002C277.8 498.077 277.907 498.158 278.01 498.244C278.113 498.329 278.212 498.419 278.307 498.514C278.402 498.609 278.493 498.709 278.578 498.812C278.663 498.915 278.743 499.023 278.818 499.134C278.893 499.245 278.963 499.36 279.027 499.477C279.092 499.595 279.15 499.716 279.203 499.839C279.256 499.962 279.302 500.088 279.343 500.216C279.384 500.343 279.419 500.473 279.447 500.604C279.476 500.735 279.498 500.867 279.514 501C279.53 501.133 279.54 501.267 279.543 501.401C279.546 501.536 279.543 501.67 279.534 501.803C279.524 501.937 279.508 502.07 279.486 502.202C279.464 502.335 279.436 502.466 279.401 502.595C279.366 502.725 279.326 502.853 279.279 502.978C279.232 503.104 279.18 503.227 279.121 503.348C279.062 503.469 278.998 503.586 278.929 503.701C278.859 503.816 278.784 503.927 278.704 504.034C278.623 504.141 278.538 504.245 278.448 504.345C278.358 504.444 278.263 504.539 278.164 504.629C278.065 504.72 277.962 504.805 277.855 504.886C277.748 504.967 277.637 505.042 277.522 505.112C277.408 505.182 277.291 505.246 277.17 505.305C276.999 505.388 276.822 505.46 276.641 505.52C276.46 505.58 276.276 505.627 276.088 505.662C275.901 505.697 275.712 505.72 275.521 505.729C275.331 505.738 275.141 505.735 274.951 505.718C274.761 505.701 274.573 505.672 274.387 505.631C274.201 505.589 274.018 505.535 273.839 505.468C273.66 505.402 273.487 505.324 273.319 505.234C273.151 505.144 272.99 505.043 272.835 504.931C272.68 504.819 272.534 504.697 272.396 504.566C272.258 504.435 272.129 504.294 272.01 504.145C271.891 503.996 271.783 503.84 271.685 503.676C271.587 503.513 271.5 503.343 271.425 503.168C271.35 502.992 271.287 502.812 271.236 502.629C271.185 502.445 271.147 502.258 271.122 502.069C271.097 501.88 271.084 501.691 271.084 501.5C271.084 501.309 271.097 501.119 271.123 500.93C271.149 500.741 271.187 500.555 271.238 500.371C271.289 500.187 271.353 500.008 271.428 499.833C271.503 499.658 271.59 499.488 271.688 499.325C271.786 499.161 271.895 499.005 272.014 498.856C272.133 498.707 272.262 498.567 272.401 498.436C272.539 498.305 272.685 498.183 272.84 498.072C272.995 497.96 273.156 497.859 273.324 497.77C273.493 497.68 273.666 497.602 273.845 497.536Z" fill="#231F20"/>
<path d="M265.82 449.999C266.055 449.988 266.291 449.972 266.527 449.967C268.449 449.926 270.302 449.933 271.741 451.43C274.256 454.046 275.81 478.051 275.872 482.969C275.914 486.336 275.96 488.622 273.51 491.106C271.643 490.442 270.201 489.809 269.06 488.082C265.282 482.364 261.375 460.628 262.86 453.788C263.27 451.902 264.285 451.034 265.82 449.999Z" fill="#231F20"/>
<path d="M354.921 573.228C349.755 573.482 332.981 575.681 329.65 572.951C329.421 572.212 329.545 571.882 330.001 571.216C331.293 569.33 336.648 569.166 338.858 569.027C342.425 568.803 357.429 567.416 359.585 569.374C360.307 570.03 360.952 570.781 361.591 571.515C367.622 566.329 379.586 548.784 384.239 541.867C386.025 539.212 387.527 536.092 389.528 533.629C390.181 532.827 390.513 532.433 391.501 532.086C398.672 534.312 405.679 537.396 412.819 539.814C433.24 546.731 453.132 553.175 472.676 562.377C477.709 560.851 484.312 557.297 489.551 557.773C490.551 558.685 490.438 558.83 490.623 560.196C487.947 563.775 476.544 566.482 472.034 567.192C467.262 579.49 466.479 605.95 465.89 619.634C465.626 625.769 465.742 632.135 464.599 638.177C448.307 639.346 432.103 641.257 415.987 643.912C409.343 644.987 402.643 645.781 396.134 647.515L395.752 648.084L395.636 647.647L394.997 648.057L394.761 647.882L394.65 648.094L395.335 648.132C398.49 648.332 401.662 648.817 403.774 651.428C406.001 654.182 406.071 657.857 405.616 661.199C405.293 663.565 404.404 665.318 402.417 666.711C400.014 668.396 396.681 669 393.812 668.472C390.924 667.94 388.693 666.502 387.019 664.086C385.396 661.742 385.275 658.56 385.125 655.806C386.061 653.882 386.963 651.942 388.048 650.096C386.463 649.723 384.57 649.556 383.608 648.116C378.825 640.961 375.094 629.779 371.624 621.731C367.283 611.666 362.368 601.631 358.704 591.297C357.777 588.683 357.343 585.907 356.822 583.193C356.64 582.242 356.767 582.607 356.256 581.799C352.616 583.487 347.826 583.808 343.874 584.253C340.969 584.579 336.409 585.345 334.046 583.454C334.387 582.359 334.455 582.319 335.391 581.727C338.915 579.499 350.275 577.711 354.256 578.877C355.172 579.145 355.349 580.032 355.787 580.813C356.13 578.285 355.436 575.703 354.921 573.228Z" fill="#231F20"/>
<path d="M391.896 535.811C401.687 539.481 411.351 543.37 421.209 546.886C435.584 552.013 451.172 556.317 464.172 564.459C450.353 568.183 436.223 570.714 422.268 573.892C402.476 578.113 382.526 581.352 362.604 584.873C362.471 582.369 362.11 579.855 361.835 577.361C372.237 563.966 383.784 550.773 391.896 535.811Z" fill="#FEFEFE"/>
<path d="M462.112 572.08L462.896 571.927L463.391 572.462C463.311 591.321 460.414 610.427 458.595 629.186C456.741 630.349 454.961 631.246 452.843 631.843C446.755 633.559 440.079 634.053 433.839 635.138C418.813 637.751 403.545 640.262 388.718 643.821C386.225 639.097 384.045 634.232 381.828 629.376C376.467 616.37 369.795 603.957 364.155 591.106C375.005 589.24 386.029 588.208 396.906 586.356C407.881 584.488 418.567 581.895 429.428 579.503C440.339 577.101 451.303 574.915 462.112 572.08Z" fill="#FEFEFE"/>
<path d="M447.655 612.645C448.203 612.776 448.602 613.171 449.052 613.5C449.503 614.659 449.576 614.712 449.237 615.894C447.913 617.166 446.568 617.589 444.806 618.046C438.923 619.57 432.724 619.911 426.75 621.008C417.8 622.652 408.969 624.829 399.895 625.809C399.149 625.445 398.833 625.286 398.38 624.552C397.919 623.803 398.191 623.565 398.38 622.764C401.041 620.27 440.686 614.314 447.655 612.645Z" fill="#231F20"/>
<path d="M447.345 594.714C448.137 594.669 449.255 594.797 449.987 595.099C451.126 595.57 451.488 596.331 451.877 597.408L451.347 598.533C448.11 601.34 411.929 605.024 404.345 607.145L403.628 607.351C403.228 607.444 402.601 607.612 402.201 607.598C400.881 607.55 400.429 606.898 399.562 606.039C399.162 604.679 399.034 604.732 399.699 603.504C407.807 599.933 437.548 596.064 447.345 594.714Z" fill="#231F20"/>
<path d="M501.46 262.579C505.606 262.415 525.076 261.324 527.837 263.039C528.974 263.745 529.934 265.133 530.236 266.418C532.035 274.073 531.989 285.287 532.749 293.49C534.49 312.291 536.119 330.855 537.061 349.72C537.473 357.992 538.254 366.521 537.75 374.788C537.595 377.327 537.249 379.755 535.904 381.947C527.336 387.918 416.409 390.267 397.743 390.761C392.407 390.902 379.125 392.26 374.675 391.293C373.237 390.98 372.687 390.229 372.031 388.973C369.113 383.379 366.071 352.053 368.081 346.117C370.116 344.903 395.448 345.687 398.959 346.217C399.13 346.243 399.301 346.275 399.473 346.303C399.92 341.372 398.99 325.5 401.352 322.384C403.301 321.345 405.327 321.321 407.486 321.131C413.104 321.475 423.603 320.157 428.317 321.491C428.507 321.545 429.233 321.806 429.336 321.904C431.759 324.21 430.685 375.548 433.957 381.645C438.35 383.255 445.833 381.852 450.546 381.543C450.291 369.315 450.47 357.014 449.818 344.803C449.072 330.835 446.737 316.253 448.38 302.336C448.755 302.213 449.131 302.096 449.508 301.984C452.676 301.061 477.644 300.577 479.78 302.009C480.645 302.589 480.819 305.991 480.934 307.029C482.135 317.895 482.275 328.913 483.126 339.813C484.164 353.085 485.903 366.366 486.555 379.658C491.822 379.607 497.091 378.868 502.348 378.508C501.688 362.288 502.181 345.948 501.274 329.775C500.049 307.947 496.341 286.198 498.574 264.296C499.411 263.061 500.079 263.063 501.46 262.579Z" fill="#231F20"/>
<path d="M371.184 350.421C380.237 351.125 389.033 351.825 398.151 352.077C398.616 357.163 400.924 380.956 399.361 383.446C391.48 383.486 383.549 383.66 375.705 384.446C374.501 378.682 374.167 372.714 373.493 366.869C372.859 361.374 371.969 355.896 371.184 350.421Z" fill="#4B6F4C"/>
<path d="M405.012 326.63C411.787 325.931 419.291 326.814 426.154 326.896C423.174 336.903 428.529 377.656 424.992 382.542C419.207 383.092 413.346 383.247 407.54 383.508C405.516 372.656 403.157 337.602 405.012 326.63Z" fill="#4B6F4C"/>
<path d="M452.5 306.236C460.155 306.518 467.812 306.667 475.472 306.682C475.942 324.454 477.177 342.268 478.123 360.024C478.458 366.316 479.706 373.643 479.279 379.853L457.089 381.126C455.77 369.858 455.8 358.779 455.004 347.505C454.034 333.757 452.358 320.033 452.5 306.236Z" fill="#FBBE1D"/>
<path d="M503.201 267.983C510.817 267.987 518.431 268.103 526.043 268.332C526.889 282.631 533.807 370.378 529.837 376.396C526.355 376.579 511.96 378.686 509.62 377.419C508.815 373.416 509.013 369.136 508.808 365.059C508.309 355.15 508.023 345.206 507.415 335.308C506.037 312.908 502.115 290.493 503.201 267.983Z" fill="#C62D2D"/>
<path d="M180.575 390.061C188.449 389.161 197.559 390.728 205.303 392.327C213.555 394.032 242.413 404.828 246.752 412.477C247.363 413.554 247.516 414.441 247.113 415.63C246.604 417.129 244.987 418.696 243.899 419.837C240.774 423.113 237.187 425.959 233.896 429.066C228.775 433.9 223.871 439.282 219.381 444.705C213.41 451.918 207.275 459.18 201.593 466.618C198.743 470.349 196.366 474.512 193.292 478.06C192.709 478.734 192.163 479.121 191.363 479.501C190.627 479.456 190.081 479.618 189.525 479.057C185.668 475.163 185.43 451.476 184.811 444.866C173.665 447.587 163.705 455.648 157.03 464.79C148.081 477.046 143.965 492.233 146.35 507.295C148.731 522.329 157.898 536.499 170.279 545.266C187.082 557.163 214.952 562.944 232.242 548.832C235.85 545.887 240.169 537.46 244.465 536.713C247.938 537.79 248.167 540.994 249.94 543.673C250.91 545.14 252.497 546.477 253.777 547.68C257.488 551.211 261.481 554.389 265.754 557.214C269.617 559.714 273.923 561.776 277.378 564.842C278.358 565.713 278.726 565.772 278.8 567.111C277.917 569.261 276.32 570.526 274.649 572.065C272.457 573.789 270.228 575.463 267.962 577.088C265.695 578.713 263.394 580.286 261.057 581.808C258.72 583.33 256.351 584.799 253.948 586.215C251.546 587.631 249.113 588.993 246.65 590.3C244.187 591.607 241.695 592.859 239.176 594.055C236.657 595.251 234.113 596.39 231.543 597.472C228.973 598.555 226.38 599.579 223.764 600.546C221.148 601.513 218.512 602.42 215.856 603.269C195.884 609.559 172.751 602.446 154.994 592.975C128.28 578.728 111.739 556.959 103.109 528.247C95.3346 502.38 96.9234 473.594 109.862 449.629C117.8 434.926 137.232 410.208 153.893 405.782C155.079 405.467 156.027 405.382 157.132 406.001C158.736 408.53 157.289 414.522 157.428 417.553C157.876 427.387 159.255 437.841 161.809 447.328C162.917 446.502 163.98 445.589 165.055 444.72C162.873 436.692 162.84 428.732 162.36 420.505C161.994 414.237 161.429 407.976 161.045 401.706C166.386 397.8 175.375 397.455 181.779 396.481C181.51 394.332 180.997 392.186 180.575 390.061Z" fill="#231F20"/>
<path d="M230.297 559.514C230.174 562.853 226.076 572.112 224.18 575.166C223.528 573.225 225.863 564.667 226.211 561.844L230.297 559.514Z" fill="#FEFEFE"/>
<path d="M214.698 565.149C215.217 565.193 214.909 565.103 215.457 565.741C214.728 568.869 213.284 572.542 211.384 575.131C210.887 574.697 210.601 574.337 210.403 573.697C209.715 571.473 209.572 568.454 210.97 566.45C211.833 565.214 213.334 565.357 214.698 565.149Z" fill="#FEFEFE"/>
<path d="M244.112 549.862C244.283 550.266 244.425 550.54 244.491 550.991C245.223 555.962 239.598 570.235 236.555 574.238C235.717 570.861 238.747 564.286 239.321 560.631C239.604 558.831 239.507 556.925 239.457 555.108L244.112 549.862Z" fill="#FEFEFE"/>
<path d="M149.176 417.373L149.607 417.829C151.45 426.189 151.073 435.059 152.932 443.451C153.465 445.858 155.645 451.509 154.961 453.619L154.01 453.396C150.482 442.638 148.991 431.317 145.954 420.414C146.964 419.334 148.082 418.368 149.176 417.373Z" fill="#FEFEFE"/>
<path d="M111.075 476.866C111.778 477.695 111.6 477.352 111.988 478.27C116.361 488.469 121.27 498.403 126.716 508.071C128.469 511.242 132.622 514.326 133.206 517.851C127.908 514.91 114.175 489.326 110.516 482.636L111.075 476.866Z" fill="#FEFEFE"/>
<path d="M170.028 407.823C171.515 408.2 173.046 408.452 174.552 408.745C174.658 418.142 171.82 428.54 175.597 437.388C174.811 438.039 174.314 438.447 173.309 438.677C170.143 431.803 170.442 415.951 170.028 407.823Z" fill="#FEFEFE"/>
<path d="M109.456 493.383C109.854 493.689 109.913 493.705 110.281 494.159C114.548 499.425 116.525 507.463 120.028 513.366C123.105 518.554 128.247 523.014 130.843 527.535C131.67 528.976 131.409 530.864 131.349 532.473C130.365 532.288 130.345 532.412 129.571 531.643C123.975 526.088 109.422 499.963 109.456 493.383Z" fill="#FEFEFE"/>
<path d="M132.787 434.933C135.035 437.453 137.525 463.741 143.062 472.376C142.293 474.037 141.358 475.63 140.478 477.234C137.301 473.542 132.79 446.346 129.755 438.742L132.787 434.933Z" fill="#FEFEFE"/>
<path d="M125.462 443.977C127.56 446.745 128.698 463.614 129.695 468.546C130.685 473.443 132.834 478.241 133.218 483.22L132.784 483.512L131.685 482.071C126.98 472.452 123.629 461.976 120.11 451.876C121.474 448.839 123.3 446.466 125.462 443.977Z" fill="#FEFEFE"/>
<path d="M115.763 461.375C118.003 463.79 122.476 482.828 126.652 489.015C129.005 492.502 132.707 495.415 135.826 498.219C136.57 500.075 136.685 501.829 136.173 503.778C135.842 505.037 136.162 504.578 135.042 505.243C127.581 498.377 118.233 477.247 112.752 467.618C113.615 465.457 114.68 463.431 115.763 461.375Z" fill="#FEFEFE"/>
<path d="M614.284 118.712C621.267 118.407 628.075 119.017 634.394 122.244C645.154 127.738 653.693 143.241 657.35 154.31C659.487 160.776 659.276 167.277 659.709 173.979C660.065 179.495 660.582 185.011 661.048 190.52C663.02 212.047 664.387 233.612 665.148 255.216C666.444 293.016 666.1 330.889 666.506 368.711C666.838 399.642 667.901 430.642 668.815 461.566C669.436 487.338 670.262 513.103 671.291 538.862C671.66 547.4 672.089 555.935 672.576 564.466C672.83 568.408 673.463 572.409 673.538 576.348C673.573 578.209 673.484 579.736 672.643 581.407L671.539 581.7L670.598 580.979C667.26 574.458 667.326 555.726 666.707 547.558C661.308 473.915 658.549 400.172 658.43 326.331C649.554 327.298 640.812 328.995 631.884 329.719C606.729 331.758 581.169 331.623 555.953 331.268C556.145 346.77 561.791 392.042 553.522 402.925C551.528 405.55 547.162 405.764 544.048 406.023C522.48 407.819 500.676 408.286 479.052 409.129L425.157 411.717L382.239 413.689C373.038 414.132 363.536 414.984 354.341 414.454C352.22 414.332 349.415 413.863 347.905 412.177C345.936 409.979 345.267 404.94 344.892 402.046C343.856 394.057 343.928 385.652 343.706 377.581C343.485 368.005 343.059 358.438 342.427 348.881C313.694 348.196 284.89 350.432 256.165 350.973C233.543 351.4 210.807 350.075 188.208 351.021C188.617 362.054 188.494 373.088 188.436 384.126C188 384.756 187.565 385.459 187.053 386.027C186.081 387.107 185.96 387.219 184.588 387.326C183.215 386.334 182.528 385.316 182.093 383.697C180.476 377.67 180.739 370.172 180.386 363.911C179.609 349.102 179.024 334.286 178.63 319.463C178.286 309.126 178.477 297.665 176.257 287.546C159.875 289.733 144.408 288.934 128.101 286.846C122.723 286.157 117.313 285.673 112.267 283.571C111.278 275.759 110.847 267.748 110.117 259.898C108.104 238.238 104.675 212.811 109.591 191.5C112.639 178.285 116.113 168.851 128.186 161.495C136.238 156.59 143.648 156.186 152.662 158.445C157.781 159.728 168.322 158.011 174.153 157.678C189.116 156.822 204.08 156.19 219.001 154.716C236.331 153.004 253.531 150.355 270.823 148.348C275.026 147.86 297.686 144.785 300.02 145.62C301.224 146.051 301.762 146.672 302.274 147.791C302.285 148.989 302.403 149.588 301.402 150.465C300.232 151.488 298.155 151.871 296.673 152.083C291.711 152.791 286.542 152.896 281.533 153.286C273.893 153.927 266.257 154.611 258.624 155.339C236.415 157.393 214.136 160.011 191.868 161.237C181.009 161.835 169.993 161.522 159.115 161.545C160.268 162.488 161.437 163.431 162.53 164.443C173.073 174.203 177.707 192.292 180.278 206.006C183.63 223.893 183.513 242.369 184.301 260.502L188.071 345.523C197.596 345.584 207.113 345.326 216.622 344.75C236.985 342.838 257.902 343.661 278.329 343.54C299.562 343.415 320.739 342.431 341.986 342.7C341.599 325.797 340.614 308.91 340.1 292.011C339.467 273.134 339.398 254.256 339.893 235.375C339.961 231.806 339.402 222.024 340.88 218.996C341.439 217.85 341.941 217.411 343.094 216.948C344.796 218.249 344.949 220.609 345.072 222.644C345.859 235.609 344.823 248.619 345.29 261.574C346.402 292.39 348.42 323.182 349.32 354.005C349.638 364.895 349.041 398.948 352.086 406.986C352.392 407.795 352.176 407.577 353.051 407.916C357.258 409.549 364.9 408.59 369.432 408.45C397.843 407.577 426.312 405.079 454.708 403.61C467.731 402.936 542.392 401.002 548.379 398.523C550.867 395.397 550.953 390.528 551.084 386.667C551.968 360.631 549.169 334.255 548.009 308.262C546.622 277.173 546.531 245.584 545.959 214.419C519.147 213.284 492.386 214.878 465.593 215.822L386.121 217.979C378.835 218.174 371.551 218.437 364.27 218.766C359.638 219.017 354.876 219.624 350.245 219.567C348.634 219.547 347.033 219.485 345.639 218.609L345.617 217.748C347.096 216.3 348.85 215.669 350.833 215.144C355.534 213.899 361.029 214.11 365.885 213.786L401.64 211.7C435.656 209.787 469.693 208.379 503.751 207.476C517.469 207.083 531.289 205.997 545.009 206.233C547.114 206.269 549.447 206.284 551.311 207.351C553.02 209.834 553.558 212.369 553.825 215.347C554.598 223.992 553.998 233.092 554.111 241.803C554.482 270.339 553.634 299.342 556.017 327.781C565.861 325.687 576.79 326.178 586.834 325.808C609.06 324.988 636.82 324.36 658.312 319.387C658.508 294.248 658.545 268.894 657.318 243.78C656.275 222.433 654.208 201.033 652.27 179.75C650.093 181.477 648.007 182.98 645.481 184.157C635.044 189.022 621.352 188.624 610.718 184.571C599.731 180.382 592.205 172.669 587.441 162.005C582.482 150.906 582.072 140.715 586.322 129.398C577.245 128.382 566.8 130.15 557.666 130.935C535.129 132.871 512.662 135.449 490.152 137.67C448.533 141.777 407.025 144.403 365.268 146.521C358.294 146.875 339.595 149.372 334.27 146.983C333.224 146.514 333.173 146.321 332.786 145.317C332.896 145.184 332.989 145.034 333.117 144.916C334.903 143.27 339.03 143.01 341.425 142.777C378.781 139.146 416.338 137.46 453.712 133.761C490.382 130.131 527.033 125.501 563.771 122.632C574.404 121.802 585 121.678 595.626 121.052C601.91 120.682 607.938 118.993 614.284 118.712Z" fill="#231F20"/>
<path d="M636.411 163.819C637.094 163.929 637.744 164.087 638.408 164.292C640.044 164.799 642.103 166.157 642.657 167.865C643.109 169.256 642.614 169.879 642.006 171.075C641.801 170.999 641.593 170.929 641.39 170.848C639.504 170.098 636.899 168.26 636.134 166.306C635.649 165.07 635.861 164.942 636.411 163.819Z" fill="#FEFEFE"/>
<path d="M620.888 152.58C622.965 153.023 625.249 154.266 626.498 156.034C627.458 157.393 627.148 158.093 626.715 159.587C625.518 159.59 624.566 159.486 623.486 158.968C622.174 158.338 620.479 157.016 620.15 155.532C619.835 154.106 620.139 153.689 620.888 152.58Z" fill="#FEFEFE"/>
<path d="M602.659 136.243C603.55 136.27 604.391 136.365 605.162 136.864C607.682 138.497 613.624 144.726 614.115 147.516C613.961 147.571 613.811 147.639 613.653 147.682C612.225 148.067 611.643 148.106 610.419 147.26C607.158 145.005 603.611 140.147 602.659 136.243Z" fill="#FEFEFE"/>
<path d="M600.494 152.858C604.089 153.748 612.74 160.617 615.068 163.704C616.428 165.507 616.486 165.99 616.176 168.153C615.064 168.115 614.227 168.124 613.216 167.605C609.873 165.89 601.304 156.538 600.494 152.858Z" fill="#FEFEFE"/>
<path d="M616.431 127.485C617.588 127.607 618.615 127.746 619.685 128.243C622.802 129.69 631.065 136.345 632.097 139.707C632.344 140.512 631.508 141.564 631.131 142.286C630.917 142.27 630.701 142.276 630.49 142.237C626.327 141.456 620.036 134.872 617.499 131.482C616.406 130.021 616.182 129.28 616.431 127.485Z" fill="#FEFEFE"/>
<path d="M138.951 165.15C139.584 165.054 140.221 164.994 140.861 164.971C146.222 164.724 151.629 166.884 155.55 170.499C158.96 173.641 161.454 177.904 163.584 181.977C173.442 200.819 172.963 220.79 174.158 241.383C174.722 251.108 175.737 260.793 176.219 270.522C165.936 270.428 156.256 270.626 146.117 272.545C136.327 273.43 126.226 276.393 116.79 279.048C116.572 273.81 116.638 268.563 116.375 263.323C115.276 241.39 111.272 193.163 123.309 174.969C126.974 169.429 132.644 166.528 138.951 165.15Z" fill="#FEFEFE"/>
<path d="M151.167 180.912C154.019 181.056 155.673 182.11 157.618 184.185C161.829 188.677 164.129 196.206 163.824 202.327C162.825 202.572 162.754 202.569 161.696 202.255C159.305 198.978 159.857 194.33 157.932 190.889C156.004 187.44 151.559 184.979 151.167 180.912Z" fill="#231F20"/>
<path d="M868.843 376.609C871.076 376.426 873.55 376.069 875.746 376.614C883.05 378.425 886.237 386.294 890.574 391.656C892.739 394.333 895.21 396.554 897.926 398.653C900.009 396.289 901.628 393.553 903.705 391.189C906.503 388.004 910.713 387.451 914.731 387.32C920.479 387.134 925.445 388.805 929.645 392.8C935.795 398.649 937.962 406.155 941.088 413.744C942.037 416.047 944.103 418.717 943.887 421.284C943.516 425.675 935.477 430.49 932.245 433.22C934.461 440.408 938.809 446.451 941.415 453.47C942.178 452.833 942.953 452.199 943.817 451.704C946.852 449.963 950.391 450.081 953.667 451.048C959.634 452.809 964.797 457.287 967.623 462.797C970.191 467.803 974.099 479.805 971.106 484.937C968.98 488.582 960.511 491.714 956.864 494.005C951.267 497.522 946.047 502.066 940.868 506.186C912.113 529.067 907.615 545.121 897.096 578.034C898.385 579.625 899.466 581.415 900.596 583.122C900.483 596.553 898.066 610.779 895.576 623.977C891.057 647.928 884.505 671.196 878.6 694.799C874.71 710.346 870.501 725.674 866.174 741.101C863.989 748.889 862.245 756.978 859.42 764.55C857.806 768.877 855.637 773.248 852.873 776.961C846.163 785.975 833.764 787.202 823.523 788.662C816.328 789.689 808.862 789.655 801.603 789.949C788.397 790.371 775.197 790.923 762.002 791.606L680.499 795.93C658.543 797.142 628.761 799.399 607.308 797.025C599.161 796.123 591.154 793.402 584.589 788.401C566.778 774.83 563.807 745.971 561.091 725.475C524.007 725.305 487.021 729.073 450.032 731.431C411.346 734.216 372.635 736.604 333.9 738.593C303.829 739.702 273.749 740.347 243.659 740.526C232.285 740.58 221.205 741.66 209.874 742.426C204.018 742.822 197.854 743.524 191.994 742.99C185.126 742.363 177.502 739.781 171.62 736.193C154.523 725.762 152.83 713.126 148.661 695.18C148.303 693.641 148.374 692.669 149.245 691.3C153.068 689.919 187.225 686.705 193.402 686.311C192.42 672.128 192.183 657.922 191.553 643.721C191.179 635.308 189.074 618.348 190.869 610.804C191.671 609.672 192.288 609.353 193.489 608.745C194.154 608.809 194.637 608.697 195.148 609.192C197.362 611.331 197.161 616.447 197.4 619.379C198.165 637.937 199.133 656.484 200.304 675.021C200.915 683.743 200.933 693.157 203.256 701.606C204.899 707.58 207.793 713.121 212.16 717.556C219.469 724.98 230.909 730.756 241.236 732.171C250.777 733.478 261.084 732.089 270.683 731.659L309.437 730.249C364.208 727.726 418.954 724.726 473.673 721.251C502.402 719.681 531.023 717.806 559.82 718.037C555.502 701.961 552.283 685.497 548.685 669.244L535.229 610.988C530.206 590.06 525.359 569.091 520.688 548.081C518.623 538.367 516.211 528.524 515.102 518.654C506.586 517.296 497.817 516.947 489.224 516.171C474.353 514.92 459.517 513.332 444.718 511.407C438.349 510.57 431.492 510.115 425.299 508.428C421.956 507.518 418.449 506.068 415.931 503.63C413.916 501.68 412.925 499.212 413.022 496.414C413.116 493.719 413.867 491.038 415.982 489.232C421.02 484.932 428.219 486.723 434.149 487.179C434.358 486.78 434.663 486.175 434.91 485.819C435.711 484.661 435.922 484.631 437.232 484.386C438.88 484.986 439.692 486.398 440.8 487.724C453.196 491.824 465.559 493.366 478.422 495.118C494.457 497.302 510.964 499.221 526.74 502.769C527.581 506.376 529.072 509.684 530.289 513.165C532.031 518.147 533.53 523.29 534.841 528.401C541.339 553.729 546.644 579.386 553.237 604.703C593.796 601.747 634.338 598.584 674.865 595.214C704.865 592.808 734.81 590.998 764.764 587.9C764.115 585.96 763.516 584 762.904 582.048C752.233 547.967 751.181 496.248 768.253 463.945C773.631 453.769 780.052 443.45 787.806 434.939C799.557 422.042 814.298 412.235 828.247 401.909C837.351 395.17 846.41 387.758 856.221 382.081C860.272 379.738 864.383 378.001 868.843 376.609Z" fill="#231F20"/>
<path d="M844.273 520.857C844.722 523.267 844.095 529.368 843.07 531.612C842.366 533.154 841.165 533.053 839.683 533.424C839.643 533.292 839.586 533.164 839.564 533.029C838.999 529.604 842.397 523.582 844.273 520.857Z" fill="#FEFEFE"/>
<path d="M876.278 466.988L876.963 467.002L877.328 467.859C877.175 468.228 877.051 468.566 876.855 468.911C875.137 471.933 866.982 480.854 863.877 481.857C862.763 478.846 862.025 475.577 861.013 472.506C866.077 470.581 871.132 468.686 876.278 466.988Z" fill="#FEFEFE"/>
<path d="M191.265 692.207L192.764 692.05C194.476 693.172 195.62 703.069 196.414 705.625C200.515 718.826 210.521 727.735 222.33 733.987C211.77 735.319 199.872 735.747 189.386 734.015C183.315 732.802 176.611 730.496 171.524 726.864C161.053 719.389 158.645 707.55 156.679 695.627C168.224 694.472 179.741 693.652 191.265 692.207Z" fill="#FEFEFE"/>
<path d="M926.09 438.474C928.165 439.888 930.945 449.409 932.501 452.23C933.49 454.02 934.836 455.682 936.073 457.308C916.584 472.882 899.551 488.091 883.574 507.393C871.097 522.466 856.256 542.854 854.794 563.068C854.481 567.399 855.263 572.101 855.669 576.428C855.957 578.329 856.861 580.038 856.393 581.981L854.941 582.359C852.766 578.37 851.813 554.608 851.932 548.93C852.05 543.339 852.398 537.731 853.507 532.244C859.071 504.718 863.591 494.766 883.597 475.253C890.962 468.069 898.31 461.318 906.302 454.836C912.83 449.54 919.15 443.088 926.09 438.474Z" fill="#FEFEFE"/>
<path d="M912.585 395.484C915.643 395.482 918.52 395.351 921.346 396.729C929.238 400.576 932.361 411.846 935.242 419.513C931.032 420.18 927.025 419.852 922.806 420.04C919.655 420.18 916.641 421.318 913.856 422.737C904.567 427.468 896.257 434.15 887.398 439.639C880.207 444.093 872.504 447.505 865.686 452.575C860.856 456.167 856.691 460.63 852.611 465.034C826.804 492.896 815.365 534.746 816.78 572.096C816.991 576.202 817.803 580.327 818.427 584.389L809.771 584.787C805.074 561.983 807.836 529.722 812.1 506.732C814.575 493.393 819.004 480.312 826.443 468.881C842.661 443.96 874.463 423.235 898.601 406.094C903.381 402.699 907.766 398.788 912.585 395.484Z" fill="#FED496"/>
<path d="M949.142 457.926C952.196 458.214 954.905 459.62 957.079 461.753C962.537 467.107 963.507 474.183 963.507 481.403C952.355 487.287 942.316 494.492 932.768 502.709C931.119 504.128 921.922 513.276 920.995 513.404C919.078 513.669 917.339 512.772 915.206 513.325C913.996 514.198 913.658 514.689 913.145 516.087C913.149 517.667 913.641 518.475 914.426 519.78L914.726 520.269C912.305 525.292 907.982 529.336 905.427 534.329C897.81 549.215 893.978 564.587 889.131 580.436C885.561 580.33 882.061 580.68 878.511 581.012C873.428 581.553 868.367 581.533 863.264 581.546C861.142 573.644 859.482 563.416 861.1 555.294C862.387 548.834 865.72 542.333 869.206 536.807C871.611 532.992 874.639 529.526 877.378 525.947C890.161 509.247 904.717 492.101 920.743 478.403C929.66 470.782 939.5 464.557 949.142 457.926Z" fill="#FED496"/>
<path d="M916.816 500.364L918.016 500.536L918.504 501.262C917.956 503.924 912.124 509.621 910.486 512.733C909.573 514.468 909.373 516.417 908.872 518.297C908.007 517.866 907.523 517.651 906.975 516.814C906.419 515.967 906.403 514.723 906.602 513.745C907.606 508.824 912.669 502.943 916.816 500.364Z" fill="#231F20"/>
<path d="M886.019 543.271C886.723 543.962 886.769 544.089 886.678 545.108C886.357 548.742 882.861 568.002 881.288 570.278C881.015 570.673 880.027 571.224 879.607 571.539C878.839 570.612 878.529 570.3 878.531 569.007C878.538 564.115 882.834 546.325 886.019 543.271Z" fill="#231F20"/>
<path d="M876.737 534.873C876.881 535.372 876.999 535.636 876.927 536.21C876.428 540.163 873.639 546.375 872.527 550.646C870.872 557 870.14 563.752 868.239 570C867.754 571.594 867.249 572.466 866.067 573.639C865.742 572.656 865.52 571.809 865.534 570.766C865.652 561.919 870.513 540.964 876.737 534.873Z" fill="#231F20"/>
<path d="M870.218 384.11C870.831 384.135 871.443 384.177 872.054 384.235C873.426 384.371 874.834 384.63 875.984 385.44C880.643 388.721 885.777 397.775 889.592 402.537C881.829 407.935 874.823 414.677 867.255 420.4C844.267 437.781 824.676 447.996 810.262 474.514C798.642 495.89 788.679 532.195 791.393 556.624C792.456 566.193 795.951 575.776 798.661 585C795.142 585.337 791.62 585.638 788.095 585.904C782.894 586.213 777.616 586.35 772.47 587.198C767.813 571.693 764.772 556.994 763.352 540.858C762.745 533.961 761.984 526.897 762.179 519.969C762.734 500.347 769.524 479.934 778.052 462.488C785.675 446.894 803.094 427.943 816.587 417.052C822.887 411.967 829.887 407.581 836.534 402.963C847.494 395.348 857.418 388.484 870.218 384.11Z" fill="#FED496"/>
<path d="M791.734 453.756C792.819 453.887 792.824 453.748 793.705 454.516C793.471 456.948 786.925 466.823 785.514 469.804C784.208 472.562 783.287 475.414 782.403 478.329C781.725 478.374 781.445 478.21 780.831 477.953C780.475 477.239 780.268 477.018 780.286 476.189C780.416 470.034 787.414 458.129 791.734 453.756Z" fill="#231F20"/>
<path d="M849.474 418.379C850.748 418.515 850.73 418.545 851.633 419.464C851.579 419.831 851.679 420.259 851.47 420.566C850.012 422.715 842.863 426.801 840.443 428.719C833.351 434.338 827.014 440.887 819.992 446.618C819.378 447.078 819.785 446.883 818.664 446.885L818.668 445.846C820.674 442.991 823.363 440.599 825.823 438.134C833.376 430.565 840.5 424.211 849.474 418.379Z" fill="#231F20"/>
<path d="M805.541 459.709C806.543 460.087 806.721 460.191 807.409 461.007C807.789 465.823 797.161 480.803 794.786 486.788C790.873 496.649 787.465 507.094 785.93 517.609C785.052 523.63 785.438 541.537 783.443 545.792C783.168 545.655 782.873 545.553 782.618 545.382C781.532 544.653 781.43 542.687 781.379 541.528C780.317 517.564 786.526 492.813 797.931 471.801C800.111 467.785 802.47 463.087 805.541 459.709Z" fill="#231F20"/>
<path d="M893.138 588.23C893.452 588.37 893.614 588.727 893.842 588.984C890.341 630.394 877.521 670.623 867.654 710.817C864.104 725.276 858.223 756.398 851.619 768.316C848.284 774.334 843.301 777.126 836.863 778.924C819.269 783.839 779.308 781.315 759.755 780.746L698.819 779.448C680.494 779.23 662.131 779.459 643.798 779.346C633.636 779.283 623.383 779.402 613.246 778.621C608.166 778.229 602.462 777.357 598.011 774.722C590.493 770.271 588.651 761.71 586.651 753.899C582.351 735.272 579.272 716.353 575.268 697.655C569.367 670.095 562.551 642.825 555.895 615.443C581.651 614.784 607.569 610.822 633.251 608.582L782.816 595.567C803.265 593.629 823.745 592.09 844.254 590.949C860.505 590.124 876.963 589.952 893.138 588.23Z" fill="#FEFEFE"/>
<path d="M631.366 671.451C631.749 671.463 632.196 671.461 632.566 671.549C633.827 671.851 634.052 672.102 634.736 673.109C634.734 673.789 634.773 673.811 634.555 674.572C633.11 679.637 614.997 695.267 610.029 697.714C607.96 696.353 604.398 693.587 601.94 693.743C601.21 695.395 601.946 697.335 602.569 698.93C603.037 700.126 603.786 701.587 605.077 702.042C607.602 702.933 611.433 700.158 613.813 699.242C615.451 698.612 616.471 698.573 618.068 699.264C618.731 700.292 618.894 700.99 618.84 702.189C618.753 704.142 617.912 704.701 616.633 705.936C613.859 707.873 611.325 708.823 608.088 709.649C604.383 708.803 601.066 707.647 598.29 704.941C597.973 704.638 597.672 704.32 597.387 703.987C597.102 703.654 596.835 703.307 596.584 702.946C596.334 702.586 596.103 702.214 595.891 701.831C595.678 701.447 595.485 701.054 595.312 700.651C595.139 700.248 594.987 699.837 594.856 699.419C594.724 699.001 594.614 698.577 594.525 698.147C594.436 697.718 594.369 697.285 594.324 696.849C594.279 696.413 594.255 695.976 594.254 695.537C594.28 690.65 596.744 687.597 599.963 684.291C603.524 685.698 606.754 687.904 609.997 689.918C616.6 683.152 623.068 676.169 631.366 671.451Z" fill="#4B6F4C"/>
<path d="M628.835 628.846C629.57 629.319 629.755 629.59 630.232 630.296C630.508 633.33 629.284 636.307 628.096 639.052C626.437 642.883 623.14 650.367 618.832 651.598C615.634 652.511 609.947 648.625 606.92 647.233C604.872 649.279 602.326 652.36 601.322 655.074C600.778 656.542 601.062 657.296 601.595 658.662C606.5 662.439 612.919 653.576 618.339 655.229L618.714 656.379C618.259 659.562 617.286 660.722 614.833 662.833C611.562 664.719 607.589 666.501 603.748 666.517C601.141 666.528 598.716 665.63 596.956 663.666C594.843 661.31 594.079 657.968 594.27 654.874C594.701 647.883 599.396 642.296 604.483 637.982C607.436 640.059 610.391 641.963 613.539 643.731C617.376 638.2 622.549 631.668 628.835 628.846Z" fill="#4B6F4C"/>
<path d="M630.355 714.457C631.93 714.427 632.61 714.409 633.825 715.426C634.104 716.338 634.144 716.952 633.859 717.855C632.609 721.822 615.852 740.878 612.338 742.744C609.913 742.087 607.914 740.181 605.946 738.67C607.824 741.846 609.438 745.218 612.637 747.249C616.246 747.621 619.018 740.378 623.794 738.489C625.389 737.858 626.052 737.68 627.627 738.283C628.047 738.972 628.423 739.384 628.505 740.211C628.73 742.464 626.033 745.47 624.699 747.087C623.507 748.166 622.312 749.264 621.032 750.238C617.592 752.854 614.407 754.162 610.081 753.587C608.211 752.542 606.953 751.049 605.72 749.311C602.642 744.972 596.337 734.338 597.29 729.149C598.039 728.293 598.179 728.111 599.409 728.08C601.957 728.015 605.416 730.437 607.207 732.059L610.522 735.043C615.915 727.492 622.436 719.45 630.355 714.457Z" fill="#4B6F4C"/>
<path d="M771.865 730.712C772.954 730.531 773.746 730.59 774.843 730.652C775.782 731.184 776.527 731.506 777.084 732.462L776.906 733.036C769.449 738.639 701.656 739.014 688.543 739.626C678.497 740.095 668.419 741.265 658.391 742.088C657.547 742.258 656.347 742.592 655.474 742.464C654.256 742.285 652.811 741.102 652.121 740.135C651.623 739.436 651.839 739.322 651.991 738.557C653.504 736.948 656.252 736.448 658.349 736.124C674.211 733.671 691.15 733.83 707.203 733.568C728.677 733.217 750.495 732.819 771.865 730.712Z" fill="#231F20"/>
<path d="M746.186 685.287C754.098 684.933 785.002 683.703 791.1 686.427C791.669 687.588 791.46 688.239 791.249 689.462C790.452 690.306 790.171 690.708 788.968 690.922C786.217 691.41 776.523 690.663 772.556 690.836C760.541 691.36 748.503 691.59 736.498 692.312C722.111 693.177 707.759 694.648 693.381 695.661C683.921 697.015 673.932 697.113 664.369 697.695C661.111 697.893 657.707 698.582 654.463 698.507C653.499 698.484 652.738 698.235 651.843 697.906C651.351 697.388 650.864 697.089 650.733 696.354C650.524 695.181 650.862 693.748 651.595 692.789C652.324 691.834 653.237 691.357 654.399 691.129C660.818 689.865 670.995 690.149 678.019 689.615C700.764 687.887 723.377 685.978 746.186 685.287Z" fill="#231F20"/>
<path d="M739.802 642.217C741.347 642.089 742.929 642.087 744.479 642.054C751.562 641.907 795.316 641.783 797.685 644.048C797.666 645.059 797.616 645.573 796.845 646.365C795.485 647.765 792.42 648.161 790.549 648.396C782.384 649.422 773.563 648.714 765.306 648.954C754.132 649.378 742.961 649.866 731.792 650.418C722.575 650.823 713.305 650.969 704.121 651.873C697.004 652.443 655.696 656.344 651.558 655.071C650.327 654.692 649.887 653.95 649.283 652.903C649.195 651.5 649.323 650.768 649.878 649.477C650.764 648.672 651.534 648.174 652.724 647.922C658.747 646.645 665.989 646.74 672.18 646.214C694.701 644.298 717.245 643.504 739.802 642.217Z" fill="#231F20"/>
</g>
<defs>
<clipPath id="clip0_16_207">
<rect width="1024" height="1024" fill="white"/>
</clipPath>
</defs>
</svg>
